<?xml version="1.0" encoding="UTF-8" standalone="no"?>
<!-- Created with Inkscape (http://www.inkscape.org/) -->

<svg
   xmlns:dc="http://purl.org/dc/elements/1.1/"
   xmlns:cc="http://creativecommons.org/ns#"
   xmlns:rdf="http://www.w3.org/1999/02/22-rdf-syntax-ns#"
   xmlns:svg="http://www.w3.org/2000/svg"
   xmlns="http://www.w3.org/2000/svg"
   xmlns:xlink="http://www.w3.org/1999/xlink"
   xmlns:sodipodi="http://sodipodi.sourceforge.net/DTD/sodipodi-0.dtd"
   xmlns:inkscape="http://www.inkscape.org/namespaces/inkscape"
   version="1.0"
   viewBox="0 0 746.04625 552.85112"
   id="svg2"
   inkscape:version="0.91 r13725"
   sodipodi:docname="an-overview.svg"
   width="746.04626"
   height="552.85114">
  <sodipodi:namedview
     pagecolor="#ffffff"
     bordercolor="#666666"
     borderopacity="1"
     objecttolerance="10"
     gridtolerance="10"
     guidetolerance="10"
     inkscape:pageopacity="0"
     inkscape:pageshadow="2"
     inkscape:window-width="1814"
     inkscape:window-height="1025"
     id="namedview414"
     showgrid="false"
     fit-margin-top="3"
     fit-margin-left="3"
     fit-margin-right="3"
     fit-margin-bottom="3"
     inkscape:zoom="1.1616678"
     inkscape:cx="476.62867"
     inkscape:cy="247.55256"
     inkscape:window-x="1322"
     inkscape:window-y="0"
     inkscape:window-maximized="0"
     inkscape:current-layer="svg2" />
  <defs
     id="defs4">
    <marker
       id="DotS"
       refY="0"
       refX="0"
       orient="auto">
      <path
         d="m -2.5,-1 c 0,2.76 -2.24,5 -5,5 -2.76,0 -5,-2.24 -5,-5 0,-2.76 2.24,-5 5,-5 2.76,0 5,2.24 5,5 z"
         transform="matrix(0.2,0,0,0.2,1.48,0.2)"
         id="path7"
         inkscape:connector-curvature="0"
         style="fill-rule:evenodd;stroke:#000000;stroke-width:1pt" />
    </marker>
    <linearGradient
       id="linearGradient4648">
      <stop
         stop-color="#C00"
         offset="0"
         id="stop10" />
      <stop
         stop-color="#C00"
         stop-opacity="0.50588235"
         offset="0.71498"
         id="stop12" />
      <stop
         stop-color="#C00"
         stop-opacity="0"
         offset="1"
         id="stop14" />
    </linearGradient>
    <linearGradient
       id="linearGradient4018"
       y2="-13.714"
       gradientUnits="userSpaceOnUse"
       x2="187.14"
       gradientTransform="translate(-36.671886,-25.281961)"
       y1="254.86"
       x1="371.42999">
      <stop
         stop-color="#fce94f"
         offset="0"
         id="stop17" />
      <stop
         stop-color="#fce94f"
         stop-opacity="0"
         offset="1"
         id="stop19" />
    </linearGradient>
    <linearGradient
       id="linearGradient4037"
       y2="316.35999"
       gradientUnits="userSpaceOnUse"
       x2="188.89999"
       gradientTransform="translate(-36.671886,-25.281961)"
       y1="313.69"
       x1="321.73001">
      <stop
         stop-color="#9fe859"
         offset="0"
         id="stop22" />
      <stop
         stop-color="#9fe859"
         stop-opacity="0"
         offset="1"
         id="stop24" />
    </linearGradient>
    <linearGradient
       id="linearGradient4042"
       y2="264.20001"
       gradientUnits="userSpaceOnUse"
       x2="733.88"
       gradientTransform="translate(-36.671886,-25.281961)"
       y1="286.42001"
       x1="661.14001">
      <stop
         stop-color="#edd400"
         offset="0"
         id="stop27" />
      <stop
         stop-color="#edd400"
         stop-opacity="0"
         offset="1"
         id="stop29" />
    </linearGradient>
    <linearGradient
       id="linearGradient4045"
       y2="450.57001"
       gradientUnits="userSpaceOnUse"
       x2="637.40997"
       gradientTransform="translate(-36.671886,-25.281961)"
       y1="324.29999"
       x1="509.62">
      <stop
         stop-color="#C00"
         offset="0"
         id="stop32" />
      <stop
         stop-color="#C00"
         stop-opacity="0"
         offset="1"
         id="stop34" />
    </linearGradient>
    <linearGradient
       id="linearGradient4048"
       y2="231.67999"
       gradientUnits="userSpaceOnUse"
       x2="706.65002"
       gradientTransform="translate(-36.671886,-25.281961)"
       y1="231.67999"
       x1="567.5">
      <stop
         stop-color="#edd400"
         offset="0"
         id="stop37" />
      <stop
         stop-color="#edd400"
         stop-opacity="0"
         offset="1"
         id="stop39" />
    </linearGradient>
    <radialGradient
       id="radialGradient4654"
       xlink:href="#linearGradient4648"
       gradientUnits="userSpaceOnUse"
       cy="337.12"
       cx="587.62"
       gradientTransform="matrix(1.6712865,-0.25368698,0.24340859,1.6035719,-495.57116,-68.165208)"
       r="8.375" />
    <linearGradient
       id="linearGradient10552"
       gradientUnits="userSpaceOnUse"
       gradientTransform="matrix(27.717213,0,0,14.009283,908.25115,361.93685)">
      <stop
         stop-color="#fffbf2"
         offset="0"
         id="stop43" />
      <stop
         stop-color="#fff0c2"
         offset="1"
         id="stop45" />
    </linearGradient>
    <linearGradient
       id="linearGradient10554"
       gradientUnits="userSpaceOnUse"
       gradientTransform="matrix(31.568488,0,0,16.272279,904.4029,362.46378)">
      <stop
         stop-color="#fffbf2"
         offset="0"
         id="stop48" />
      <stop
         stop-color="#fff0c2"
         offset="1"
         id="stop50" />
    </linearGradient>
    <radialGradient
       inkscape:collect="always"
       xlink:href="#linearGradient4648"
       id="radialGradient4675"
       gradientUnits="userSpaceOnUse"
       gradientTransform="matrix(0.93123325,0.82337706,-0.79001667,0.89350301,258.19617,-481.81805)"
       cx="587.62"
       cy="337.12"
       r="8.375" />
    <radialGradient
       inkscape:collect="always"
       xlink:href="#linearGradient4648"
       id="radialGradient4677"
       gradientUnits="userSpaceOnUse"
       gradientTransform="matrix(2.0195084,1.1221563,-1.0766904,1.9376851,-242.5317,-1061.7832)"
       cx="587.62"
       cy="337.12"
       r="8.375" />
  </defs>
  <metadata
     id="metadata52">
    <rdf:RDF>
      <cc:Work
         rdf:about="">
        <dc:format>image/svg+xml</dc:format>
        <dc:type
           rdf:resource="http://purl.org/dc/dcmitype/StillImage" />
        <dc:title></dc:title>
      </cc:Work>
    </rdf:RDF>
  </metadata>
  <path
     inkscape:connector-curvature="0"
     style="fill:url(#linearGradient4048)"
     id="path56"
     d="m 532.96779,200.11113 c 0,0 41.786,3.5714 93.214,-6.0714 51.429,-9.6429 46.25,0.89285 39.821,2.3214 -6.4286,1.4286 -104.64,15.893 -127.32,26.429 -7.6786,-5.8929 -7.8571,-9.2857 -7.8571,-9.2857 l 2.1429,-13.393 z" />
  <path
     inkscape:connector-curvature="0"
     style="fill:url(#linearGradient4045)"
     id="path58"
     d="m 582.42779,431.85113 c 0,0 -12.501,-28.537 -41.795,-57.579 -29.294,-29.042 -48.235,-39.143 -48.235,-39.143 0,0 -34.345,4.7982 -48.992,-8.3338 4.0406,-7.8287 10.354,-28.789 -21.466,-64.397 -14.647,-10.859 -27.274,-15.91 -27.274,-15.91 6.566,-1.7678 6.8185,-6.566 2.7779,-12.374 -4.0406,-5.8084 -14.142,-24.496 -8.8388,-28.789 5.3033,-4.2932 24.244,-11.869 38.133,-6.8185 13.89,5.0508 9.0914,13.637 12.627,17.678 3.5355,4.0406 16.162,12.879 16.162,12.879 l 5.8084,11.869 8.3338,0.75761 10.102,-6.3134 19.445,5.5558 8.5863,6.8185 0.75762,5.8084 c 0,0 -7.5762,1.7678 -9.3439,1.0102 -3.283,5.0508 -15.152,11.112 -15.152,11.112 0,0 -8.5863,14.9 -7.8287,20.456 0.75761,5.5558 1.7678,29.042 27.779,34.345 26.011,5.3033 -3.283,-9.0914 16.162,12.122 19.445,21.2134 63.892,58.841 63.892,58.841 l 36.618,44.699 -38.26,-4.2932 z" />
  <path
     inkscape:connector-curvature="0"
     style="fill:url(#linearGradient4042)"
     id="path60"
     d="m 594.79779,241.56113 c 4.4194,4.1669 15.784,16.668 15.784,16.668 l 6.566,10.859 4.7982,14.647 c 0,0 15.531,-21.592 41.416,-27.4 25.885,-5.8084 42.931,-10.354 42.931,-10.354 l -17.551,-12.879 -35.103,9.5964 -44.194,2.0203 -14.647,-3.1567 z" />
  <path
     style="fill:#729fcf"
     inkscape:connector-curvature="0"
     id="path62"
     d="m 403.48779,202.81113 c -3.6967,2.5062 2.7456,8.4195 -2.4062,9.4375 -6.1058,3.8143 -4.1346,12.116 -0.0625,16.781 1.1368,1.9042 4.9473,6.2491 0.51442,6.6971 -4.7975,1.3606 -1.0134,7.7316 3.0168,6.1154 3.7563,-0.87732 3.6657,3.8045 1.9375,5.875 -1.762,5.773 6.4681,7.4363 9.4375,10.719 4.051,2.0663 4.255,-3.3382 5.0625,-5.8438 2.2683,-4.8294 8.6542,2.8871 10.375,-2.5938 1.0034,-5.1133 -4.3636,-7.9612 -8.7188,-7.7812 -3.2511,-1.8496 1.7628,-5.3111 2.4062,-7.5625 3.8414,-7.9365 -4.2924,-14.687 -9.7188,-19.094 -4.4364,-3.5361 -5.758,-10.066 -10.375,-13.094 -0.51016,0.0449 -1.1059,-0.20001 -1.4688,0.34375 z" />
  <path
     style="fill:#ad7fa8"
     inkscape:connector-curvature="0"
     id="path64"
     d="m 514.66779,137.22113 c -12.311,0.62797 -23.459,8.958 -28.844,19.781 -4.6466,0.37143 -5.3209,2.3622 -7.9777,4.5089 -5.3417,7.2361 -5.6737,17.366 -1.0848,24.96 -11.041,-0.58149 -24.136,-0.28512 -32.312,8.0938 -6.7772,8.4983 0.38179,20.412 8.9062,24.438 8.9037,5.7082 19.842,4.6042 29.562,7.0312 0.96569,3.095 -5.6294,8.327 -4.3866,10.183 10.531,1.5573 24.384,2.9014 29.73,13.504 1.6543,3.6285 -2.6926,6.6361 -6.0918,4.9995 -5.2417,-0.45793 -8.0943,5.9622 -13.127,7.4693 -6.848,3.4563 -10.201,11.62 -11.719,18.781 -2.9205,13.885 3.9257,28.607 16.156,35.506 7.1339,4.786 18.441,5.8443 24.716,5.1629 22.584,9.7216 48.512,18.583 72.909,10.144 16.725,-4.7938 30.504,-19.669 31.188,-37.562 2.0113,-34.129 -31.059,-65.939 -65.219,-61.062 -6.1451,0.53764 -14.123,4.2782 -17.75,6.8438 4.4788,-3.7769 0.19012,-9.998 -1.375,-14.25 -2.9719,-6.1091 -8.5046,-10.678 -12.062,-16.219 0.18764,-2.0028 -1.3113,-5.7826 -1.5312,-6.375 2.7164,2.519 2.1345,9.6164 7.1562,8.375 2.6205,-3.9489 0.84091,-9.5953 2.7188,-14.062 2.2084,-6.9004 8.7059,-11.957 9.5312,-19.469 3.9515,-14.014 -0.62344,-31.381 -14.438,-38.062 -4.4423,-2.5152 -9.6314,-2.8564 -14.656,-2.7188 z m 2.7188,12.656 c 7.1327,-1.396 14.036,4.6228 13.562,11.938 0.47775,6.2233 -3.3107,11.481 -4.6875,17.281 -1.1387,-8.4841 -2.7434,-19.517 -12.125,-22.812 -3.4416,-1.3744 -7.1278,-1.9064 -10.844,-2.125 4.2548,-2.6456 9.1048,-4.1253 14.094,-4.2812 z m -18.938,15.906 c 9.9566,-0.85759 18.945,8.2667 17.875,18.281 -0.0996,4.5744 0.1862,9.4257 2.6562,13.375 -9.0431,-4.6805 -21.447,-6.2876 -25.75,-16.969 -1.9818,-4.4226 -1.9648,-9.5653 -0.1875,-14.094 2.7295,0.67271 2.4097,-0.54966 5.4062,-0.59375 z m -10.531,26.531 c 1.7851,1.9064 6.03,6.1614 5.875,6.25 -2.0932,-2.373 -4.5069,-4.497 -6.5312,-6.9688 l 0.65625,0.71875 z m -18.688,4.5938 c 8.7792,0.24519 23.741,3.728 28.179,12.196 6.2908,1.2721 -1.619,-9.207 0.47768,-4.6964 1.4731,2.8694 2.9006,7.2177 2,9.75 -13.748,-1.2314 -29.038,1.5481 -41.406,-5.5 -3.0064,-1.5724 -7.9908,-7.497 -2.875,-9.5938 4.2514,-1.8352 9.0188,-1.9962 13.625,-2.1562 z m 87.375,62.344 c 16.065,-0.64055 33.355,12.591 32.188,29.688 0.91376,10.623 -5.9665,21.679 -16.844,23.344 -10.262,0.56965 -21.184,4.6268 -31.156,-0.1875 -12.886,-4.7707 -16.606,-20.405 -14.281,-32.688 -0.66844,-3.5967 -2.1365,-7.0727 -2.0625,-10.812 0.24891,2.894 1.4146,5.6215 2.1562,8.4688 6.0167,-10.985 17.133,-18.606 30,-17.812 z m -62.906,32.406 c 6.6935,0.65321 11.061,8.848 8.625,14.844 -2.8998,2.746 -6.0431,-1.304 -8.6562,-2.8125 -3.0159,-2.3127 -6.2402,-11.523 0.0312,-12.031 z" />
  <path
     inkscape:connector-curvature="0"
     style="fill:url(#linearGradient4037)"
     id="path66"
     d="m 168.85779,253.00113 c -12.556,1.9434 -27.808,3.8623 -35.344,15.375 -5.5238,10.734 1.8512,22.523 8.0312,31.219 5.8085,7.8609 12.087,15.709 18.5,22.906 21.394,8.673 45.437,8.1175 67.406,2.5938 25.088,-6.1638 49.27,-16.027 75.245,-17.941 31.154,-2.9345 63.179,-1.1314 92.614,10.025 9.4023,2.7971 19.093,6.0621 29.047,4.5718 -8.6808,-5.3572 -18.629,-9.2543 -24.406,-18.281 -6.7549,-10.069 -13.891,-22.06 -11.25,-34.5 1.9076,-4.29 6.5166,-6.3093 10.219,-8.75 -21.61,-6.7249 -44.063,0.22574 -65.79,1.9572 -49.941,6.8888 -101.98,9.4064 -150.76,-4.7874 -4.5898,-1.2737 -8.9543,-3.2712 -13.514,-4.3886 z" />
  <path
     style="fill:#5c3566"
     inkscape:connector-curvature="0"
     id="path68"
     d="m 493.48779,291.06113 c -6.0427,1.3184 -3.9198,9.0968 -1.25,12.656 2.1316,4.9918 10.744,7.4728 12.438,0.9375 0.45141,-5.8582 -5.2805,-13.169 -11.188,-13.594 z" />
  <path
     inkscape:connector-curvature="0"
     id="path70"
     d="m 627.82779,438.64113 c 0.38,0 0.59,0.17 0.46,0.37 -0.41,0.68 -2.21,0.4 -4.51,-0.7 -4.11,-1.95 -7.65,-5.08 -14.8,-13.05 -1.101,-1.23 -4.561,-5.62 -7.69,-9.76 -12.26,-16.23 -15.49,-19.91 -24.16,-27.601 -2.479,-2.199 -5.02,-4.52 -5.64,-5.149 -0.63,-0.63 -5.7,-5.03 -11.271,-9.78 -13.54,-11.53 -27.3,-23.63 -31.21,-27.45 -2.77,-2.69 -18.591,-22.644 -18.6,-23.324 0,-0.17 1.06,-0.19 2.35,-0.04 1.7,0.19 1.0714,-1.8514 2.87,1 4.29,6.06 13.901,18.044 17.901,21.694 7.2,6.59 24.189,21.56 33.819,29.82 2.271,1.95 4.561,4 5.08,4.55 0.511,0.56 3.42,3.15 6.46,5.77 8.971,7.721 18.41,18.65 30.41,35.211 1.721,2.38 3.23,4.409 3.36,4.52 0.13,0.1 1.39,1.68 2.8,3.51 4.751,6.129 9.831,10.409 12.371,10.409 z" />
  <path
     inkscape:connector-curvature="0"
     id="path72"
     d="m 607.01779,404.74113 c 4.42,5.83 10.25,15.521 9.689,16.08 -0.1,0.091 -0.84,-0.64 -1.66,-1.64 -0.819,-0.99 -3.08,-3.92 -5.02,-6.5 -11.73,-15.62 -27.33,-31.49 -42.78,-43.53 -8.85,-6.89 -16.99,-14.2 -25.86,-23.22 -6.119,-6.21 -11.09,-12.26 -10.079,-12.26 0.189,0 3.13,2.59 6.529,5.75 3.4,3.16 7.38,6.75 8.86,7.99 1.47,1.24 4.85,4.21 7.52,6.61 4.431,3.99 7.551,6.63 18.931,16.08 14.19,11.79 24.77,22.6 33.87,34.64 z" />
  <path
     style="fill:#ad7fa8"
     inkscape:connector-curvature="0"
     id="path74"
     d="m 587.15779,281.38113 c 0.74,2.37 0.87,3.6 0.85,7.71 -0.02,4.24 -0.16,5.3 -1.02,7.9 -2.12,6.4 -6.101,10.77 -11.48,12.58 -2.109,0.71 -5.72,1.07 -5.72,0.57 0,-0.12 0.49,-0.84 1.09,-1.6 0.601,-0.76 1.63,-2.83 2.311,-4.59 0.3,-0.79 0.54,-1.48 0.72,-2.13 0.42,-1.43 0.59,-2.71 0.689,-4.71 0.221,-4.36 -0.17,-6.14 -2.229,-10.37 -1.76,-3.61 -4.23,-6.06 -8.18,-8.13 -2.891,-1.51 -4.54,-1.98 -8,-2.28 -4.82,-0.41 -10.86,2.34 -13.86,6.32 -3.06,4.05 -4.08,9.77 -2.4,13.4 1.23,2.64 3.53,4.99 5.641,5.74 2.62,0.94 5.979,0.86 8.04,-0.19 2.64,-1.35 2.37,-1.75 -1.021,-1.52 -3.38,0.24 -5.029,-0.36 -7.12,-2.58 -1.85,-1.97 -2.43,-3.46 -2.46,-6.3 -0.04,-4.49 2.221,-8.03 6.551,-10.23 1.8,-0.91 2.609,-1.1 4.909,-1.1 7.17,0 13.63,3.82 16.38,9.69 0.931,1.99 1.011,2.55 1.011,6.88 0,2.86 0.354,4.4788 0.055,5.5388 -0.18,0.64 -0.845,0.78125 -1.295,1.7012 -2.29,4.65 -6.43,7.75 -12.13,9.09 -2.94,0.7 -8.37,0.71 -11.49,0.03 -7.15,-1.56 -12.39,-5.59 -15.51,-11.92 -2.53,-5.14 -3.271,-8.33 -3.24,-14.05 0.021,-4.57 0.1,-5.1 1.25,-8.16 1.72,-4.59 3.89,-7.77 7.4,-10.86 6.729,-5.91 14.42,-8.18 23.62,-6.96 7.31,0.97 10.85,2.47 17.6,7.46 4.278,3.16 7.338,7.6 9.038,13.07 z" />
  <path
     inkscape:connector-curvature="0"
     id="path76"
     d="m 522.98779,119.95113 c 7.06,-1.16 16.52,-1.14 15.34,0.04 -0.19,0.19 -3.24,0.94 -6.79,1.67 -15.76,3.25 -27.92,8.02 -38.31,15.04 -6.58,4.45 -9.221,6.61 -15.42,12.61 -9.761,9.44 -17.061,14.65 -28.75,20.5 -5.431,2.72 -17.19,7.64 -23.36,9.78 -2.79,0.97 -5.42,1.92 -5.83,2.11 -3.19,1.51 -25.63,7.61 -32.92,8.94 -18.34,3.37 -31.61,5.01 -46.09,5.71 -8.561,0.41 -10.61,0.41 -19.24,-0.02 -10.771,-0.53 -20.21,-1.85 -27.13,-3.78 -2.12,-0.6 -4.19,-1.09 -4.59,-1.09 -2.551,0 -19.07,-7.76 -22.18,-10.42 -0.33,-0.28 -2.31,-1.76 -4.4,-3.3 -17.51,-12.88 -30.98,-31.99 -42.58,-60.39 -4.22,-10.32 -13.3,-37.039997 -21.75,-63.959998 -1.98,-6.31 -4.43,-14.08 -5.45,-17.260001 -1.01,-3.18 -1.85,-6.15 -1.85,-6.6 0,-0.45 -0.41,-2.24 -0.91,-3.99 -2.47,-8.62 -4.9,-19.1300002 -4.52,-19.5100002 0.44,-0.44 1.44,1.25 3.37,5.7100002 1.13,2.63 2.06,5.04 2.06,5.36 0,0.53 5.6,15.97 6.41,17.67 0.78,1.64 10.04,28.31 18.61,53.610002 6.54,19.309997 10.23,28.389997 16.57,40.829997 8.68,17.01 19.45,30.84 31.9,40.94 6.98,5.66 12.26,8.86 19.93,12.07 13.1,5.49 23.96,7.34 44.279,7.55 12.25,0.13 16.381,-0.05 26.9,-1.13 9.36,-0.97 27.19,-3.93 31.04,-5.15 0.72,-0.24 1.82,-0.48 2.43,-0.55 1.83,-0.22 15.101,-3.73 21.11,-5.6 6.75,-2.1 17.35,-5.94 19.82,-7.18 0.979,-0.5 1.779,-0.83 1.779,-0.74 0,0.52 12.78,-5.32 18.25,-8.34 6.73,-3.72 11.341,-7.15 20.32,-15.13 17.232,-15.32 32.002,-22.71 51.952,-26 z" />
  <path
     style="fill:#204a87"
     inkscape:connector-curvature="0"
     id="path78"
     d="m 477.13779,235.75113 c -2.4863,1.4535 -4.6198,3.5916 -5.3125,6.25 -3.5642,4.1793 -9.1433,8.8479 -5.8214,15.125 -0.36032,2.8152 0.0271,5.241 2.5402,6.5 2.3561,4.5882 6.6884,0.43323 10.531,1.5312 7.516,0.69897 14.139,-4.4671 19.719,-8.7812 2.527,-1.9032 7.912,1.1658 9.75,-3.0625 2.2356,-5.6009 -4.5606,-9.7749 -8.625,-12.125 -6.9494,-3.6005 -15.233,-5.6517 -22.781,-5.4375 z m 2.5938,9.4688 c 1.3502,4.1434 7.7794,2.7645 10.781,5.8125 0.0933,1.8947 -5.0936,3.8342 -7.4375,4.625 -3.2311,0.70258 -8.5604,1.9324 -10.719,-1 0.34906,-4.0058 5.0978,-6.8003 7.375,-9.4375 z m 14.875,2.0625 z" />
  <path
     inkscape:connector-curvature="0"
     id="path80"
     d="m 504.98779,302.64113 c 0.12,2.43 0.061,3.2901 -0.57,4.32 -2.0418,3.3327 -5.7324,3.2864 -8.6239,1.3296 -4.3623,-2.952 -7.6451,-7.5496 -7.6451,-12.59 0.01,-5.11 4.42,-7.52 9.31,-5.08 4.409,2.19 7.279,6.78 7.529,12.02 z m -3.01,2.97 c 1.17,-1.31 1.08,-3.02 -0.311,-5.66 -1.92,-3.68 -5.59,-6.91 -7.84,-6.91 -0.43,0 -1.15,0.36 -1.59,0.8 -2.26,2.27 1.38,10.53 5.479,12.42 1.832,0.84 3.102,0.65 4.262,-0.65 z" />
  <path
     inkscape:connector-curvature="0"
     id="path82"
     d="m 498.43779,247.08113 c 0.93,1.03 0.449,1.67 -1.11,1.49 -1.14,-0.13 -1.38,0.02 -2.44,1.57 -2.27,3.29 -7.3,6.48 -12.18,7.72 -3.14,0.8 -7.89,0.74 -9.79,-0.13 -2.01,-0.91 -2.63,-1.74 -2.58,-3.46 0.05,-2.18 1.521,-4.26 6.33,-8.95 4.11,-4.02 4.45,-4.26 5.58,-4.04 1.6,0.3 3.65,1.58 3.65,2.27 0,0.39 -0.59,0.64 -1.891,0.81 -1.72,0.23 -2.6,0.68 -2.16,1.12 0.091,0.09 1.351,0.47 2.801,0.86 1.46,0.38 3.58,1.2 4.72,1.81 l 2.08,1.13 0.61,-1.03 c 0.329,-0.57 0.609,-1.47 0.609,-2.01 0,-0.89 0.13,-0.98 1.521,-0.98 1.68,0 3.19,0.65 4.25,1.82 z m -17.23,8.89 c 3.68,-0.94 8.45,-3.6 8.45,-4.72 0,-0.85 -7.63,-2.95 -10.78,-2.97 -1.359,-0.01 -1.78,0.21 -3.26,1.71 -2.72,2.76 -3.23,5.17 -1.3,6.1 1.24,0.59 4.31,0.54 6.89,-0.12 z" />
  <path
     style="fill:#3465a4"
     inkscape:connector-curvature="0"
     id="path84"
     d="m 424.88779,216.97113 c -3.3358,-0.41285 -6.9972,4.117 -3.1875,6.0312 4.7827,4.6454 2.6789,11.721 -0.84375,16.281 -0.79619,5.8001 8.4568,3.0595 9.3125,8.4688 0.70885,2.7637 -1.8512,5.9883 1.6652,7.8839 4.9506,2.2216 6.6971,6.9649 9.5848,11.116 5.5825,7.5763 15.701,4.8069 23.179,1.6339 3.6823,0.33099 7.9764,-2.929 4.5402,-5.8527 -3.881,-4.6475 -9.0466,-0.73339 -13.179,1.5134 -6.3252,0.51899 -8.8501,-7.4494 -10.821,-12.076 -2.1566,-4.9225 -9.1361,-6.6043 -8.125,-12.875 -0.51099,-3.2149 -0.90928,-7.4852 3.2812,-8.1562 4.2284,-0.85987 3.6333,-6.4451 -0.46875,-6.7778 -3.5707,0.29488 -6.2934,-1.9309 -8.375,-4.6597 -1.8148,-1.5012 -4.1194,-2.8037 -6.5625,-2.5312 z" />
  <path
     inkscape:connector-curvature="0"
     style="fill:url(#radialGradient4675)"
     id="path86"
     d="m 546.79057,311.25853 c -3.3348,3.20521 -9.48968,2.21249 -13.74736,-2.21732 -4.25767,-4.42981 -5.00581,-10.61918 -1.67101,-13.8244 3.33481,-3.20522 9.48968,-2.21249 13.74736,2.21732 4.25768,4.42981 5.00581,10.61918 1.67101,13.8244 z" />
  <path
     inkscape:connector-curvature="0"
     style="fill:url(#radialGradient4677)"
     id="path88"
     d="m 598.40802,262.33448 c -4.77139,7.15121 -16.34004,7.81035 -25.83941,1.47224 -9.49937,-6.33811 -13.33213,-17.27328 -8.56074,-24.42449 4.77138,-7.15121 16.34003,-7.81036 25.8394,-1.47225 9.49937,6.33811 13.33213,17.27329 8.56075,24.4245 z" />
  <path
     inkscape:connector-curvature="0"
     style="fill:url(#radialGradient4654)"
     id="path90"
     d="m 583.66995,322.30967 c 0.43642,6.27501 -5.96697,11.83182 -14.30243,12.41155 -8.33545,0.57972 -15.44641,-4.03719 -15.88283,-10.31219 -0.43642,-6.27501 5.96696,-11.83183 14.30242,-12.41155 8.33546,-0.57972 15.44642,4.03718 15.88284,10.31219 z" />
  <path
     inkscape:connector-curvature="0"
     id="path92"
     d="m 525.19779,138.10113 c -0.31754,1.1902 -0.0539,2.4153 -2.0285,1.6814 -5.8912,-1.0264 -12.146,-0.9007 -17.694,1.5332 -9.7937,3.8323 -17.134,12.543 -20.38,22.421 -1.924,5.5326 -2.671,11.639 -1.3167,17.385 1.3814,5.3472 5.0625,9.6425 9.0079,13.331 4.7918,4.8693 9.081,10.913 9.4082,17.977 -0.12943,1.065 1.3738,0.72826 2.034,1.1153 4.7821,1.2341 10.147,2.7673 12.876,7.2547 0.62253,0.42489 1.2341,4.4919 0.31911,2.9777 -2.5671,-4.2051 -7.2089,-6.8301 -12.076,-7.2315 -12.154,-1.0863 -24.458,-0.15575 -36.545,-2.0681 -6.4459,-1.0306 -13.457,-3.7384 -16.706,-9.7962 -1.6495,-2.5032 -0.6467,-6.0377 2.1642,-7.1729 4.8578,-2.3305 10.417,-2.5107 15.714,-2.5801 6.5714,0.19836 13.4,1.338 19.055,4.8721 2.8348,2.1038 5.8582,4.1816 7.9801,7.0362 -0.29191,2.4191 -2.1653,-0.87005 -3.6167,-1.5465 -5.0318,-4.3857 -11.398,-7.1287 -18.038,-7.7915 -5.7086,-0.5197 -11.598,-0.86669 -17.203,0.56807 -2.3267,0.44715 -5.0432,2.885 -3.1321,5.2863 1.8402,2.7548 4.6289,4.8612 7.5655,6.3466 6.0853,2.4795 12.807,2.2884 19.257,2.6311 4.8153,0.0829 9.6372,0.31527 14.451,0.12336 2.1467,-0.92325 -0.27309,-4.5945 -0.36579,-6.4561 -1.2937,-4.9498 -5.76,-7.9909 -8.9577,-11.673 -5.1585,-5.1534 -7.0506,-12.678 -6.9308,-19.788 0.17921,-9.1556 3.8021,-18.169 10.093,-24.837 5.7097,-6.4172 13.318,-11.702 22.062,-12.575 4.3418,-0.49355 8.7935,-0.22264 13.003,0.97709 z m 3.52,13.22 c 4.5144,4.2049 4.9647,11.051 3.5734,16.723 -1.081,3.9109 -3.1228,7.4836 -4.0362,11.456 -0.59377,2.1596 -1.105,4.3407 -1.6572,6.5112 -3.3798,-6.284 -2.6867,-13.79 -5.3887,-20.299 -2.0027,-5.1856 -7.3224,-8.0904 -12.573,-8.9228 -2.5093,-0.53496 -5.1211,-0.48914 -7.6362,-0.83565 -0.66412,-0.53878 -2.1478,-0.63476 -1.2905,-1.6928 6.7455,-5.3291 15.918,-7.6034 24.337,-5.7621 1.7947,0.47095 3.3657,1.5278 4.6714,2.8223 z m -0.29998,19.16 c 1.7268,-5.0042 2.7259,-11.028 -0.36405,-15.721 -2.1475,-3.4388 -6.3506,-4.8998 -10.26,-4.6363 -3.7492,0.1557 -7.6242,0.93003 -10.881,2.8333 2.0278,1.0102 4.7265,0.90522 6.8327,2.0892 4.5884,1.9052 8.2286,5.6023 10.418,10.026 1.3002,2.283 2.1337,4.7796 2.8146,7.3012 0.49483,1.432 1.1805,-1.6292 1.44,-1.8925 z m 43.95,116.26 c 1.7339,3.1602 2.6182,6.7644 2.229,10.37 -0.0675,1.1823 -0.38551,4.637 -0.7373,5.6226 -0.23111,0.64748 -0.19262,-0.78316 -1.1066,-1.0636 -0.92704,0.10198 -1.2086,0.66284 -1.2044,0.0435 0.007,-0.96591 0.32456,-3.267 0.30783,-4.277 -0.0497,-2.999 0.237,-6.308 -1.5679,-8.9517 -3.6892,-6.4336 -11.825,-9.7212 -18.993,-8.2618 -4.5213,1.4705 -8.3642,5.6186 -8.2858,10.56 -0.39146,3.7996 2.1056,7.4603 5.5336,8.9306 2.0916,1.0754 5.0878,-0.37549 6.7952,0.75266 -3.0925,2.6243 -8.0078,2.5704 -11.369,0.48281 -3.478,-2.4078 -5.5527,-6.7768 -4.6929,-10.993 0.72762,-5.5 4.6063,-10.318 9.7668,-12.317 5.7326,-2.6126 12.534,-1.1395 17.532,2.3935 2.4982,1.6601 4.5087,3.9994 5.7927,6.7088 z m -57.54,-56.67 c -1.0418,2.019 -3.7664,2.871 -5.8897,3.551 -3.6591,1.1263 -7.5524,1.3389 -11.293,0.47532 -5.7198,-1.0205 -10.54,-4.4879 -15.945,-6.3764 -4.9,-1.2293 -10.02,-1.0473 -14.982,-1.9487 -9.2311,-1.4678 -18.578,-6.1295 -23.497,-14.368 -1.7427,-2.937 -2.7912,-6.3464 -2.3934,-9.7835 0.98,0.03 1.96,0.06 2.94,0.09 -0.24406,6.5022 4.5215,11.994 9.8337,15.131 6.3174,3.8146 13.703,5.303 20.992,5.7069 4.3769,0.30915 8.9713,0.85835 12.598,3.5644 4.7994,3.4565 10.587,5.9558 16.611,5.5169 3.6431,-0.0118 7.2061,-0.78851 10.745,-1.5546 l 0.28001,-0.005 0,1e-5 z m -28.69,-74.194 c -1.2179,2.1482 -3.9976,2.9726 -5.6831,4.8017 -4.002,3.5234 -5.143,9.163 -5.0916,14.273 0.11103,4.9889 2.19,9.7468 5.2337,13.639 0.46659,1.4158 -2.8726,-0.42765 -3.8498,-0.0865 -8.5167,-0.77967 -17.397,-0.1184 -25.311,3.3222 -3.9779,1.7204 -7.6362,5.2847 -7.6686,9.8842 -0.98,-0.03 -1.96,-0.06 -2.94,-0.09 -0.2423,-4.7414 2.7094,-9.1627 6.7752,-11.41 6.1236,-3.6095 13.249,-5.0786 20.245,-5.8099 2.7194,0.30093 6.5721,-0.0972 4.5373,-3.7135 -0.96748,-4.7348 -1.3091,-9.9738 1.1721,-14.328 2.3576,-4.841 6.8963,-8.1904 11.687,-10.382 0.27287,-0.0524 0.61247,-0.274 0.89373,-0.1 z m 24.27,93.984 c 0.86971,2.6959 -0.91769,6.1394 -3.5139,6.8832 -0.79861,0.22879 -3.1639,0.17222 -4.3754,0.009 -0.37617,-0.0507 0.39891,-0.49191 0.61453,-1.1346 -0.14799,-0.8438 -1.294,-1.9778 -0.85197,-1.9194 0.47979,0.0634 2.371,0.16383 3.2042,-0.13697 3.0988,-1.1187 1.0759,-5.0394 -0.78358,-6.5349 -6.1729,-5.7417 -14.653,-8.0267 -22.812,-9.1594 -1.241,-0.27075 -3.0122,0.18436 -4.172,-0.29129 -0.49491,-0.59302 -3.0043,-0.95081 -2.2487,-1.5537 2.4492,-1.558 5.6093,-4.253 6.297,-7.1978 0.27764,-1.2136 1.088,-2.6079 1.0273,-0.37795 0.18838,2.2127 -0.8608,4.1888 -1.6976,6.1538 6.9788,0.99638 14.164,1.9448 20.356,5.5666 3.8669,2.1609 7.7554,5.2232 8.9564,9.6934 z m 213.16,-9.63 c 3.0212,0.12892 -2.2946,2.7108 -3.4644,3.0613 -10.275,3.8974 -21.048,6.2525 -31.701,8.8554 -13.943,3.3163 -28,6.7073 -41.087,12.679 -5.527,2.7037 -11.43,5.2639 -15.435,10.137 -3.2352,3.7589 -6.2391,7.8909 -7.9778,12.567 -0.50897,3.5008 -0.0833,7.0924 -0.77942,10.587 -2.1239,14.273 -11.474,27.25 -24.434,33.643 -12.066,6.205 -26.161,7.8519 -39.462,5.5391 -13.507,-2.1836 -26.504,-6.9247 -38.655,-13.147 -3.1281,-1.7091 -6.7906,-0.6564 -10.154,-1.3074 -6.5726,-0.68105 -13.065,-2.6085 -18.625,-6.2432 -3.4675,-2.2065 -6.9092,-4.5902 -9.397,-7.923 -3.5187,-4.2997 -6.0934,-9.4352 -7.4008,-14.835 -1.1724,-6.9299 -0.70597,-14.378 2.7114,-20.645 1.1142,-2.3515 2.755,-4.3753 4.4688,-6.3092 -2.1298,-0.18039 -4.2608,-0.46189 -6.2779,-1.1741 -2.8108,-0.77006 -3.8016,2.2708 -5.9888,2.9801 -3.0632,0.52363 -6.1812,0.84048 -9.1423,1.864 -0.43114,-0.81858 -0.54653,-1.4611 -0.23518,-1.8986 2.4142,-1.7756 7.3362,-0.57132 7.6782,-4.1284 -1.7064,-2.3741 -5.1774,-3.4007 -7.7188,-1.7042 -2.1513,1.3824 -5.421,2.7634 -8.0818,1.9333 -0.0834,-0.99362 0.63145,-1.3781 1.1362,-1.5606 0.67844,-0.24537 2.066,0.0572 3.0128,-0.18029 2.4218,-1.122 4.3613,-3.4354 7.2132,-3.5269 1.5779,-0.18287 1.6866,-1.8301 3.4301,-1.3852 -0.4583,2.1816 2.0415,3.3591 3.5063,4.8909 1.7747,2.0801 4.8198,-0.7533 7.3538,0.1317 2.6881,0.14248 5.531,0.43736 7.8794,-1.1496 4.2702,-1.7321 8.3364,-4.163 11.709,-7.3142 0.6804,-0.42021 1.0958,-1.7173 1.9727,-1.4874 1.1302,0.4109 2.975,0.25911 3.6042,0.93003 -0.0568,0.8898 -0.11362,1.7796 -0.17042,2.6694 -1.0162,0.008 -2.134,-0.27896 -3.0887,-0.0931 -3.4648,3.2448 -7.2704,6.1858 -11.655,8.0828 -2.6875,1.6915 -4.0572,4.747 -5.7376,7.331 -3.7605,6.2993 -4.2756,13.966 -3.3848,21.095 1.5127,9.7733 8.5285,18.036 17.111,22.596 4.5955,2.4231 9.807,3.5126 14.947,3.9581 1.602,0.25381 0.76172,-0.39318 -0.078,-1.04 -2.4169,-1.4956 0.43459,-2.1895 1.8037,-1.2075 9.9087,3.7203 19.569,8.1366 29.732,11.16 13.218,4.0465 27.432,6.1263 41.079,3.0317 11.29,-2.4244 22.538,-7.8353 29.389,-17.449 7.041,-9.5731 8.6366,-22.275 6.0879,-33.691 -3.4708,-15.517 -13.798,-29.116 -27.1,-37.631 -7.049,-4.5937 -15.311,-7.0153 -23.603,-8.0373 -7.733,-0.56103 -15.729,0.26263 -22.755,3.7374 -8.9061,4.2471 -16.813,11.948 -19.078,21.805 -0.85335,3.9606 -0.58369,8.1518 0.61195,12.012 2.8652,-4.3498 6.6915,-8.1318 11.154,-10.828 5.1264,-2.9132 11.003,-4.4136 16.899,-4.3403 3.5773,-0.0692 7.2607,-0.21868 10.649,1.1312 7.874,1.9557 14.861,6.8787 19.859,13.201 2.8506,4.4729 4.8092,9.6212 4.816,14.982 0.49825,7.6988 -0.99273,16.168 -6.7942,21.701 -4.6859,4.5307 -11.267,6.5622 -17.687,6.6271 -3.0089,0.0821 -5.9273,0.78605 -8.8578,1.3617 -6.7026,0.71426 -13.674,-0.16863 -19.658,-3.411 -6.0349,-2.7819 -10.028,-8.5784 -12.036,-14.751 -1.9186,-5.6171 -2.2954,-11.716 -1.1813,-17.54 0.10185,-2.7896 -1.4348,-5.3171 -1.6711,-8.0837 -1.9216,-11.584 3.1825,-23.602 11.886,-31.247 1.5278,-1.7298 4.5412,-2.6969 4.6445,-5.3006 -1.0986,-6.0579 -4.0534,-11.651 -7.9708,-16.363 -2.1712,-2.8314 -4.7024,-5.3685 -6.8914,-8.1792 -1.107,-2.8228 -0.76882,-6.1726 -2.7397,-8.7255 -2.4341,-3.9638 -7.3312,-4.9802 -11.309,-6.7139 -3.9666,-1.561 -7.8554,-3.3423 -11.593,-5.3835 -5.3006,-4.2217 -9.3554,-10.583 -9.1263,-17.557 0.0959,-7.0546 4.7157,-14.338 10.041,-18.804 0.55014,0.47779 1.7298,1.0084 1.5523,1.6325 -2.0536,2.4355 -4.5778,5.2581 -5.627,8.3331 -2.6887,5.5023 -2.379,12.327 1.0228,17.454 3.0545,4.9539 8.0801,8.2086 13.256,10.609 1.7579,0.72282 3.9094,2.261 5.5058,2.3162 -1.1056,-5.6301 -0.40452,-11.411 -1.0104,-17.082 -1.1307,-4.3707 -4.2916,-8.4529 -8.8121,-9.6154 -3.3832,-1.0147 -6.9629,-1.3397 -10.457,-0.94955 -3.789,0.42314 -3.8923,-2.4401 2.9164,-2.6782 4.047,-0.14151 8.3098,0.14137 11.742,2.5088 5.5005,3.5596 8.7537,10.175 8.4783,16.694 -0.10907,5.2236 0.0385,11.246 4.1475,15.06 3.1618,2.3618 5.3585,5.7758 6.5019,9.5292 0.21103,1.6892 2.2333,2.4759 1.6963,0.0694 0.39298,-4.4429 0.87753,-8.9467 2.2226,-13.214 1.713,-4.0084 5.0953,-7.0383 6.804,-11.067 3.4223,-7.9184 4.2829,-17.02 2.2091,-25.407 -2.2958,-8.4296 -9.6956,-15.744 -18.046,-18.421 0.35,-0.97661 -0.5596,-2.7171 2.5076,-1.5217 7.0839,2.7608 13.469,7.9924 16.142,15.214 3.818,9.7455 4.2469,20.897 0.70517,30.787 -1.384,2.9396 -3.1963,5.6639 -5.1892,8.2132 -2.2951,4.163 -3.7579,8.8175 -3.7731,13.602 -0.11745,2.6515 -0.15644,5.3057 -0.2353,7.9585 3.4618,4.5117 7.071,9.0721 8.707,14.62 0.95172,1.6039 0.69636,4.691 2.2613,5.4196 4.2154,-1.0852 8.2842,-2.8697 12.683,-3.1624 8.9411,-0.80305 18.2,-0.0831 26.497,3.567 4.6461,1.968 9.087,4.6248 14.176,5.304 12.897,2.4204 26.102,3.8413 39.21,2.4828 21.553,-2.0981 42.614,-7.6573 63.061,-14.638 1.0372,-0.42166 5.1603,-1.6322 2.0211,-0.12407 -10.011,4.4432 -20.282,8.298 -30.642,11.847 -19.981,6.3802 -41.254,8.8018 -62.142,6.724 -2.5787,-0.18983 -5.1404,-0.541 -7.7025,-0.88059 4.7576,4.9036 9.7027,9.7471 13.077,15.757 3.054,4.9999 5.3824,10.414 6.9981,16.042 1.2075,1.5704 2.7845,-2.5129 4.0604,-3.3625 2.9015,-3.444 6.822,-5.7203 10.526,-8.1804 10.069,-5.8555 21.362,-9.1222 32.448,-12.458 17.891,-5.1206 35.985,-9.6332 54.299,-12.969 z m -135.56,48.86 c 0.23738,-4.0106 -0.545,-8.0295 -2.3778,-11.615 -2.2461,-5.0095 -6.4346,-8.7671 -11.016,-11.623 -5.8915,-4.1005 -13.258,-5.4634 -20.323,-5.2824 -9.2775,0.36615 -18.134,5.8438 -22.824,13.814 -1.8565,3.4592 -3.4507,7.2559 -3.2105,11.263 -0.25056,5.0781 0.59318,10.238 2.9998,14.758 2.7294,6.181 8.4928,10.796 15.077,12.243 4.8309,0.98329 10.02,1.02 14.711,-0.63275 4.8797,-1.6429 9.3933,-6.0055 10.587,-11.066 0.86945,0.32049 2.9371,0.35207 2.1488,2.0725 -1.1426,2.4934 -1.8514,4.8874 -3.9935,7.12 2.6697,0.63441 5.6834,-0.42875 8.1376,-1.6039 5.7668,-3.0653 9.2096,-9.4384 9.9786,-15.769 0.0907,-1.2235 0.0964,-2.4512 0.10481,-3.6774 z m -12.92,126.41 c 3.3789,5.7058 6.4681,11.635 8.756,17.866 0.28431,2.3528 -1.8814,-1.7629 -2.2736,-2.4306 -3.5941,-6.2569 -7.2626,-12.476 -11.03,-18.629 -7.5764,-10.788 -16.013,-20.956 -24.814,-30.762 -9.0274,-10.275 -19.819,-18.745 -30.352,-27.392 -5.8278,-4.8693 -12.094,-9.1609 -18.14,-13.747 -1.8965,-1.3161 -3.8012,-2.819 -5.86,-3.807 -11.066,0.61345 -22.349,1.8062 -33.245,-0.84527 -5.4315,-1.2569 -10.182,-4.2637 -14.581,-7.5736 -2.0457,1.6733 -4.5032,2.6792 -6.9088,3.6838 1.6103,2.0026 4.582,3.1618 6.944,4.4407 10.434,5.0121 22.175,6.4466 33.637,6.3719 6.2567,0.0826 12.894,-0.21969 18.552,2.9344 2.5156,1.3711 5.3052,2.2139 7.5076,4.111 8.4907,6.0263 15.525,13.759 22.958,20.98 8.241,8.3284 16.648,16.509 24.52,25.191 7.1747,8.4386 13.919,17.335 19.261,27.062 1.0664,2.1503 2.5302,4.7732 2.1568,7.0661 -4.4724,-6.6384 -9.2511,-13.077 -14.056,-19.481 -6.1616,-8.0742 -12.48,-16.094 -19.978,-22.987 -9.5291,-8.9899 -18.868,-18.177 -28.297,-27.271 -5.5052,-5.1677 -11.475,-10.203 -18.646,-12.838 -6.4145,-2.099 -13.233,-1.045 -19.844,-1.6062 -11.11,-0.44965 -22.52,-1.8371 -32.48,-7.1162 -2.7405,-1.3835 -5.1249,-3.3296 -7.4232,-5.3326 -2.5151,-0.46289 -5.1927,0.75738 -7.8048,0.65592 -3.7907,0.35718 -7.6029,0.35887 -11.391,-0.0144 0.16134,2.4723 -0.13497,5.0843 -1.8173,7.0378 -3.7874,4.8162 -9.722,7.034 -15.084,9.5933 -3.4469,1.5715 -7.1005,2.6331 -10.716,3.713 -5.8788,0.89321 -11.724,2.0725 -17.679,2.3721 -17.848,1.4376 -35.838,-0.33534 -53.288,-4.1951 -8.4077,-1.8708 -17.169,-1.9691 -25.652,-0.53784 -9.2327,1.2258 -18.589,3.5256 -27.926,1.9678 -6.1725,-1.0522 -11.653,-5.6514 -13.693,-11.571 -0.87099,-2.0145 -0.10033,-4.3812 -0.62121,-6.3246 -11.364,3.3341 -22.498,7.5977 -34.119,10.027 -8.2212,1.5664 -16.679,1.1801 -24.964,0.3833 -10.447,-1.2988 -20.526,-4.6294 -30.322,-8.376 -6.131,-2.521 -12.351,-5.0137 -17.919,-8.6599 4.4711,0.89261 8.683,2.7636 13.02,4.136 14.256,4.8921 29.089,8.5674 44.21,9.0743 15.078,0.28485 29.355,-5.1615 43.588,-9.3906 11.948,-3.6015 23.795,-7.5425 35.812,-10.91 16.572,-4.3454 33.527,-7.6914 50.704,-8.0622 12.475,-0.33013 25.107,0.16711 37.224,3.4026 13.801,3.3955 27.335,7.9089 41.317,10.544 10.267,1.5539 20.983,2.212 31.064,-0.78223 4.3202,-0.7625 7.1515,-4.6032 8.5883,-8.476 1.3347,-3.9112 0.93442,-8.1842 0.41535,-12.212 -2.1769,-10.732 -7.2895,-20.689 -13.502,-29.626 -4.5931,-6.2899 -10.182,-11.799 -15.978,-16.974 -10.767,-8.8288 -24.597,-14.592 -38.69,-13.672 -11.689,0.86842 -23.239,2.9882 -34.855,4.4895 -23.975,3.2866 -48.147,6.1195 -72.389,5.1283 -20.607,-0.6857 -41.141,-3.5989 -61.089,-8.8341 -13.921,-3.5002 -27.638,-7.7838 -41.08,-12.817 -7.9863,-2.891 -16.126,-5.3204 -24.329,-7.5121 -1.3548,-0.37856 -2.6901,-0.82097 -4.0308,-1.2455 10.377,0.39885 20.623,2.4606 30.519,5.556 5.9144,1.7656 11.686,3.9968 17.631,5.654 -1.0022,-2.8023 -2.6234,-5.4477 -2.866,-8.4917 -0.8344,-7.9374 1.143,-15.805 2.4838,-23.579 2.815,-15.259 5.4374,-30.705 4.8727,-46.283 -0.16147,-9.4184 -2.5121,-18.609 -4.2568,-27.816 -3.6808,-17.477 -8.0311,-34.802997 -12.024,-52.208999 -4.5785,-19.865 -9.5183,-39.644 -14.308,-59.458 -1.105,-5.058 -2.5357,-10.0740002 -3.1441,-15.2230002 0.44317,-2.6784 2.3723,1.5697 2.8623,2.6167 4.0414,9.4815002 6.6318,19.4990002 9.4662,29.3860002 5.5838,20.168 10.125,40.609 15.822,60.748002 3.186,11.935997 6.0832,23.969997 7.8799,36.202997 1.7981,10.161 3.4683,20.422 3.174,30.778 -0.0231,18.803 -4.0864,37.252 -6.8214,55.77 -0.58906,4.846 -1.3967,10.376 1.7969,14.545 2.3587,3.1715 6.4737,4.0834 9.9393,5.5352 14.05,4.7738 28.784,7.1383 43.464,8.9923 15.532,2.071 31.237,1.9981 46.871,1.7144 10.794,-0.48434 21.522,-1.8832 32.265,-2.9828 13.941,-1.4712 27.81,-3.5142 41.715,-5.2745 7.044,-0.74298 14.245,-0.84475 21.228,0.4762 2.9539,0.4094 5.6466,2.0629 8.6512,2.0805 2.8594,-0.42256 2.5174,-4.2138 1.5796,-6.1786 -1.5393,-3.7848 -4.1203,-7.035 -5.6974,-10.811 -2.4608,-5.4075 -4.9896,-10.876 -6.29,-16.698 -0.70893,-3.6011 1.6041,-6.9788 4.5581,-8.8094 5.6425,-3.4743 12.288,-4.8129 18.749,-5.8814 7.7321,-1.1264 15.926,-1.3518 23.285,1.6308 3.5452,1.5439 6.3366,4.8643 6.6248,8.8081 0.38304,3.7543 0.72152,7.9676 3.804,10.602 4.4119,4.2184 10.399,6.3493 14.73,10.649 2.7055,2.9478 2.5972,7.5475 5.7176,10.227 2.8593,2.7175 7.1387,1.3994 10.127,-0.3497 1.5453,-0.63146 2.9716,-2.8444 4.4172,-1.0521 1.2579,0.51538 0.98563,1.0622 -0.0855,1.6253 -1.7614,1.1152 -3.1466,2.6077 -3.5353,4.6786 -2.0661,3.0332 -5.3045,5.1806 -7.0413,8.4342 -0.88168,2.303 0.30552,4.5422 0.56809,6.7843 -0.98421,0.23545 -1.6715,1.8591 -2.0693,1.3509 -0.23877,-0.3051 -0.16361,-2.4846 -0.2317,-3.1216 -1.5338,-2.6618 -1.7903,-6.418 0.64213,-8.651 1.0523,-1.5663 3.6771,-3.0495 3.8945,-4.554 -2.3661,0.38017 -4.8076,0.91652 -7.1796,0.18125 -2.4374,-0.44073 -4.4301,-2.2235 -4.9223,-4.689 -1.2111,-3.9247 -2.9265,-7.808 -5.9998,-10.645 -2.8106,-3.0474 -6.401,-5.1445 -9.7879,-7.4537 -4.3659,-3.1616 -6.0722,-8.5034 -7.159,-13.542 -0.26237,-2.5235 -1.7601,-4.8666 -4.2006,-5.7705 -3.9914,-1.3289 -8.2799,-1.3972 -12.442,-1.744 -3.8389,-0.0299 -7.7695,-0.20672 -11.536,0.60194 0.39639,2.5584 2.0284,4.8557 3.1934,7.1665 2.4595,4.5248 6.3211,8.0789 10.297,11.263 2.6291,-1.3835 5.6915,-2.4616 8.6444,-1.447 3.6962,0.91211 4.5586,5.864 8.4831,6.3304 5.6104,0.19527 3.8246,2.4489 -0.13313,2.0743 -3.087,-0.29219 -4.6896,-2.9841 -6.8403,-4.6946 -2.0432,-1.8438 -5.4481,-2.6517 -7.6627,-0.65556 0.59713,1.8857 3.412,3.8366 3.9076,6.3425 0.83288,3.7053 0.4715,7.864 -1.8739,10.978 -1.4322,1.2954 -2.2329,3.9268 0.50892,4.0398 2.8933,0.64247 5.9954,2.016 7.1054,4.9916 2.0359,2.5528 -1.8316,5.8319 0.77925,7.7355 2.6372,2.0916 6.0022,3.5828 7.4314,6.855 2.1598,4.1953 5.6456,8.399 10.669,8.8879 3.2056,0.37653 7.6001,-0.81175 10.652,-1.7636 0.56077,1.2592 1.3434,0.92146 -0.2716,2.2369 -3.3645,1.2137 -8.9548,1.9038 -12.467,1.5221 -2.5734,-0.94848 -5.3384,-2.0368 -7.1321,-4.2143 -1.9426,-2.0568 -3.124,-4.6581 -4.7554,-6.924 -2.1284,-1.8907 -4.4831,-3.5435 -6.4747,-5.6045 -1.8566,-1.8675 -4.378,-2.884 -6.9224,-3.362 -3.3341,0.12855 -3.5508,4.5106 -1.5077,6.3888 2.1113,2.8926 6.144,4.2901 7.1507,7.9466 -0.32835,2.8303 2.398,4.206 3.761,6.3067 6.938,9.3858 12.908,19.817 15.496,31.294 1.1909,6.3261 1.998,13.25 -0.79876,19.279 -0.4765,0.97678 -0.98644,1.9369 -1.4787,2.9058 3.538,3.5484 7.9438,6.331 12.893,7.3658 9.0704,1.8097 18.373,0.81216 27.495,0.0209 3.1664,-0.0758 6.7867,-0.41477 9.329,1.8747 6.0324,4.2909 11.633,9.158 17.63,13.487 9.1026,7.627 18.146,15.343 26.79,23.489 11.249,11.108 21.529,23.216 30.636,36.139 1.5904,2.3012 2.8229,4.8235 4.3559,7.1631 z m -149.01,-166.13 c 1.3953,0.8385 4.2614,1.3128 3.2824,-1.2941 -0.62877,-3.3506 -4.3574,-3.5852 -7.0639,-3.8485 -2.3127,-0.45899 -3.4797,-3.1806 -2.422,-5.2338 1.3677,-2.7149 4.0507,-4.8326 4.1535,-8.1208 0.35531,-3.1795 -1.9619,-5.8536 -3.7489,-8.2265 -2.9802,-2.9276 -6.5368,-5.2759 -9.0177,-8.7032 -2.4683,-2.8536 -4.0506,-6.325 -6.3541,-9.2874 -1.7084,0.6525 0.5695,4.1195 0.47975,5.8244 -0.29201,2.7975 -3.3725,3.0371 -4.7985,4.9279 -2.0535,2.3619 -1.8439,5.8597 -0.30719,8.4345 1.627,3.5427 4.734,6.4486 5.4308,10.383 0.78093,3.3832 -5.5671,2.28 -4.0815,5.2239 2.1618,1.1425 5.5586,-0.77747 7.0539,1.8977 2.1154,2.1699 0.48567,5.0803 -0.41155,7.3746 -0.56115,2.6369 2.9726,3.5876 4.5416,5.0516 1.6699,0.58874 4.8989,5.1003 5.405,1.5895 0.0934,-3.0395 2.0422,-6.5263 5.4235,-6.5732 0.84657,-0.014 1.649,0.30593 2.4349,0.58095 z m -18.06,85.33 c -0.59355,-1.9979 -3.7814,-1.0184 -5.4299,-1.7622 -16.175,-3.026 -31.66,-8.8875 -47.801,-12.056 -10.426,-1.915 -21.089,-1.6875 -31.637,-1.3075 -19.065,0.90196 -37.777,5.1669 -56.141,10.139 -5.9404,1.9226 -12.059,3.3464 -17.872,5.6271 -0.72376,2.7444 0.52314,5.6972 1.8898,8.0701 1.8831,3.7427 6.3587,4.623 10.151,4.8951 7.6068,0.21937 15.12,-1.3362 22.624,-2.37 8.6821,-1.3729 17.574,-2.3283 26.303,-0.77171 11.373,2.0682 22.773,4.1998 34.335,4.8707 12.548,0.77375 25.235,0.29214 37.558,-2.3305 5.0844,-0.63444 9.8899,-2.4835 14.664,-4.2564 3.7499,-1.6473 7.8173,-3.2568 10.513,-6.4746 0.48378,-0.65684 0.8452,-1.4429 0.84168,-2.2728 z m -0.86001,-90.25 c 1.3575,-3.0255 -3.6312,-2.3588 -5.1745,-1.428 -0.80508,1.0984 -1.6553,2.2675 -2.6255,3.288 1.8196,0.86688 3.6392,1.7336 5.459,2.6 0.74166,-1.5064 1.4605,-3.0278 2.341,-4.46 z m -4.91,-9.56 c 0.21108,-2.6162 -1.6896,-4.8264 -2.9009,-7.0041 -2.2615,-3.56 -3.9089,-8.3503 -1.6716,-12.298 1.1951,-2.1604 3.6563,-3.1654 5.031,-5.1234 0.612,-2.6309 -1.5391,-4.8872 -2.0856,-7.3555 -1.2401,-3.1366 -5.0462,0.53204 -7.1372,1.0915 -2.6425,1.2775 -5.2181,4.0558 -4.3326,7.2074 1.3317,8.1418 5.844,15.224 9.9916,22.185 0.62289,1.0668 1.9109,2.8564 3.1054,1.2977 z m 51.28,28.3 c 0.11011,2.061 -1.2523,1.8335 -2.7419,0.80855 -3.694,-1.5768 -5.0394,-5.5747 -6.3832,-9.0101 -1.2168,-3.3006 -3.7003,-5.8638 -6.4405,-7.9672 -2.963,-2.18 -2.7545,-6.1952 -3.0845,-9.4712 -0.13126,-2.5676 -0.46717,-6.04 2.3767,-7.3144 1.4837,-0.88298 5.8252,-2.0904 3.1433,-4.1324 -1.3877,-0.71353 -4.4375,0.0334 -3.6449,-2.1816 0.90429,-1.217 4.7242,0.15308 6.0174,1.0856 2.6655,1.8823 0.91276,5.67 -1.7597,6.4438 -1.2457,0.61091 -2.5086,1.186 -3.7629,1.779 0.35209,3.3809 0.46638,6.8738 1.6898,10.071 1.9297,2.7923 5.9308,3.7779 6.899,7.3234 1.358,4.089 2.1149,8.8737 5.7925,11.632 0.5721,0.41414 1.1823,0.82871 1.8987,0.93328 z" />
  <path
     style="fill:#4e9a06"
     inkscape:connector-curvature="0"
     id="path94"
     d="m 397.13779,262.87113 c -8.9498,0.4384 -11.587,11.325 -9.5544,18.611 3.4676,13.869 12.256,27.248 24.961,34.264 5.1049,2.3391 13.054,5.2998 17.5,0.4375 3.4423,-12.88 -4.1209,-25.396 -9.875,-36.375 -4.9975,-8.0347 -12.694,-17.182 -23.031,-16.938 z" />
  <path
     inkscape:connector-curvature="0"
     id="path96"
     d="m 434.90779,310.16113 c 0.01,4.59 -0.05,5.02 -1.03,7.01 -3.37,6.86 -11.34,9.15 -23.79,6.85 -5.45,-1 -10.399,-2.4 -20.51,-5.78 -13.2,-4.42 -21.78,-6.27 -36.87,-7.95 -8.11,-0.9 -25.07,-1.39 -34.979,-1 -21.23,0.84 -41.86,4.63 -63.811,11.73 -19.36,6.26 -36.49,10.36 -48.94,11.7 -6.38,0.69 -18.56,0.8 -23.2,0.21 -7.94,-1 -12.75,-2.19 -24.7,-6.11 -10.76,-3.54 -13.61,-4.77 -28.71,-12.45 -7.07,-3.6 -13.69,-6.82 -14.71,-7.16 -2.34,-0.78 -6.98,-0.81 -9.52,-0.06 -4.09,1.22 -7.400004,4.58 -8.610004,8.74 -1.68,5.76 0.22,11.58 7.280004,22.35 3.56,5.43 5.08,8.86 5.77,13.02 0.23,1.4 0.56,7.28 0.73,13.07 0.34,11.67 0.53,12.85 2.98,18.68 3.02,7.2 3.4,12.05 1.75,22.33 -3.57,22.3 -2.22,34.89 3.94,36.729 3.13,0.94 6.14,-0.89 10.37,-6.3 1.37,-1.75 2.55,-3.13 2.62,-3.05 0.08,0.07 0.63,2.33 1.24,5 3.91,17.36 6.52,37.52 7.8,60.36 0.64,11.33 0.12,30.52 -0.93,34.439 -0.37,1.38 -1.39,1.66 -1.68,0.47 -0.38,-1.619 -0.64,-4.239 -1.2,-12.34 -0.74,-10.54 -0.77,-10.88 -2.3,-25.199 -1.51,-14.221 -4.93,-41.33 -5.27,-41.721 -0.07,-0.09 -0.78,0.53 -1.59,1.36 -6.41,6.6 -16.34,10.29 -27.730004,10.29 -9.66,0 -17.09,-2.5 -24.43,-8.23 -13.27,-10.34 -22.47,-27.14 -28.580001,-52.16 -2.42,-9.89 -5.31,-25.31 -6.57,-35.01 -0.21,-1.66 -0.98,-7.58 -1.71,-13.17 -0.72,-5.59 -1.68,-11.34 -2.12,-12.79 -0.44,-1.45 -3.5,-9.07 -6.81,-16.93 -11.58,-27.55 -15.26,-38.39 -17.55,-51.73 -1.45,-8.39 -1.74,-12.09 -1.72,-21.82 0.02,-11.88 0.68,-18.3 3.44,-33.55 0.22,-1.2 -0.86,-17.98 -1.57,-24.52 -0.27,-2.52 -1.35,-10.5 -2.4,-17.74 -5.7,-39.53 -6.46,-46.79 -6.26,-60.57 0.21,-15.12 2.07,-25.689997 6.52,-37.059997 4.34,-11.060002 13.07,-22.510002 18.87,-24.760002 0.52,-0.2 2.11,-1.06 3.55,-1.9 8.64,-5.08 17.54,-7.34 28.800001,-7.33 9.69,0.02 16.62,1.49 24.27,5.17 9.74,4.7 16.610004,11.98 22.550004,23.92 1.28,2.59 2.89,6.100002 3.57,7.800002 1.36,3.44 2.28,4.63 2.28,2.98 0,-2.25 -7.22,-48.350002 -7.7,-49.120002 -0.24,-0.38 -2.4,-14.66 -3.21,-21.17 -0.88,-7.1500002 -0.98,-10.5800002 -0.28,-10.3800002 0.74,0.22 2.77,4.57 4.44,9.5200002 2.97,8.77 9.39,36.32 9.39,40.31 0,0.68 0.42,3.65 0.93,6.61 4.21,24.260002 6.24,46.229999 5.02,54.279999 -0.25,1.66 -0.43,3.8 -0.41,4.76 0.08,3.21 1.87,6.22 4.84,8.11 0.7,0.45 0.7,0.47 -0.02,1.04 -0.4,0.32 -1.46,0.58 -2.39,0.58 -4,0 -6.22,-2.49 -9.24,-10.35 -1.96,-5.12 -3.12,-8.94 -4.2,-13.84 -1.7,-7.709997 -4.05,-12.449997 -8.03,-16.099997 -4.660004,-4.29 -9.910004,-5.09 -15.810004,-2.4 -8.18,3.73 -9.91,12.489997 -6.05,30.649997 0.59,2.79 1.49,6.85 2,9.03 5.19,22.35 6.62,30.02 9.67,52.1 2.27,16.43 3.41,23.74 3.98,25.61 1.57,5.15 4.770004,8.56 14.440004,15.38 2.58,1.82 4.87,3.52 5.08,3.76 0.2,0.25 1.56,1.45 3.01,2.67 1.45,1.21 4.53,3.94 6.85,6.06 2.73,2.47 5.07,4.25 6.59,4.99 3.15,1.54 8.34,2.85 14.96,3.78 10.03,1.42 11.86,1.92 25.4,6.98 11.56,4.32 20.94,7.2 29.98,9.19 21.67,4.79 49.11,7.59 74.419,7.58 19.94,0 31.761,-1.16 57.74,-5.68 17.55,-3.05 25.021,-3.97 36.5,-4.49 18.58,-0.85 30.9,2.37 41.37,10.82 3.16,2.56 6.7,6.05 7.4,7.3 0.279,0.51 1.59,2.52 2.899,4.46 4.2,6.23 8.73,16.06 10.86,23.6 0.882,3.122 1.032,4.372 1.042,8.542 z m -8.37,6.19 c 2.07,-0.58 2.36,-1.38 2.35,-6.57 -0.02,-6.64 -1.55,-11.46 -7.43,-23.39 -3.979,-8.07 -7.939,-13.34 -12.93,-17.2 -3.04,-2.36 -4.54,-3.17 -7.09,-3.85 -9.74,-2.6 -14.771,5.53 -11.311,18.27 2.49,9.18 10.5,21.23 17.92,26.94 6.221,4.8 13.681,7.14 18.491,5.8 z m -11.02,3.61 2.85,0.23 -2.83,-1.27 c -9.15,-4.12 -16.52,-11.56 -22.7,-22.94 -2.22,-4.09 -4.859,-10.59 -5.92,-14.6 -1.189,-4.48 -1.22,-10.72 -0.07,-13.23 0.99,-2.18 3.16,-4.63 5.29,-5.99 l 1.62,-1.03 -2.56,-0.58 c -8.47,-1.92 -15.25,-1.76 -36.04,0.88 -55.86,7.1 -63.23,7.79 -86.91,8.13 -23.39,0.35 -33.15,-0.24 -53.79,-3.25 -18.02,-2.62 -30.08,-5.64 -45.34,-11.35 -11.27,-4.22 -13.38,-4.82 -21.07,-5.94 -3,-0.43 -7.57,-1.28 -10.15,-1.87 -2.59,-0.59 -6.53,-1.27 -8.75,-1.5 -5.24,-0.54 -15.07,-0.44 -18.91,0.2 -9.43,1.57 -15.390004,2.41 -18.050004,2.55 -3.52,0.19 -7.33,-0.27 -8.77,-1.05 -0.97,-0.53 -0.88,-0.55 1.86,-0.57 4.36,-0.02 11.24,-1.34 16.690004,-3.2 5.67,-1.94 10.27,-3.08 13.73,-3.39 5.12,-0.47 5.59,-0.58 5.84,-1.35 0.14,-0.44 -0.08,-1.24 -0.54,-1.99 -0.82,-1.33 -5.23,-5.48 -7.75,-7.3 -0.82,-0.6 -2.86,-2.24 -4.51,-3.65 -4.58,-3.89 -5.11,-3.99 -6.8,-1.25 -1.37,2.21 -3.470004,4.36 -5.050004,5.18 -3.22,1.66 -5.17,1.96 -14.67,2.24 -9.96,0.3 -11.28,0.55 -14.72,2.83 -1.67,1.11 -1.84,1.15 -1.84,0.42 0,-0.29 0.76,-1.2 1.69,-2.02 2.46,-2.16 5.45,-2.98 13.36,-3.66 10.81,-0.93 14.26,-2.46 15.76,-7 0.61,-1.85 0.02,-3.46 -2.94,-8.03 -2.76,-4.25 -3.58,-6.01 -4.33,-9.26 -0.67,-2.91 -2.61,-17.1 -3.24,-23.76 l -0.46,-4.8 -2.55,0 c -6.43,0 -13.2,2.29 -19.33,6.55 -3.77,2.62 -10.4,9.03 -14.050001,13.6 -1.67,2.08 -3.3,4.01 -3.64,4.29 -1.77,1.47 -0.73,-1.75 2.08,-6.44 1.03,-1.71 2.000001,-3.2 2.150001,-3.31 0.15,-0.11 1.22,-1.39 2.38,-2.84 8.28,-10.34 18.59,-16.82 29.13,-18.29 l 3.24,-0.45 -0.24,-2.67 c -0.13,-1.47 -0.49,-4.61 -0.78,-6.98 -0.3,-2.37 -0.55,-4.55 -0.55,-4.84 0,-0.74 -3.53,-0.32 -7.84,0.92 -6.87,1.98 -13.24,5.75 -18.7,11.05 -1.35,1.3 -2.54,2.27 -2.67,2.15 -0.44,-0.44 3.22,-5.02 6.69,-8.37 3.79,-3.66 7.82,-6.58 11.89,-8.6 2.83,-1.4 4.18,-1.86 7.31,-2.48 l 2.13,-0.42 -1.26,-4.77 c -1.57,-5.93 -6.16,-20.06 -8.15,-25.1 -2.07,-5.22 -6.37,-13.69 -8.83,-17.4 l -2.06,-3.099997 -2.7,0.01 c -5.91,0.01 -10.460001,1.839997 -14.380001,5.789997 -2.62,2.65 -4.06,4.92 -4.69,7.39 -0.18,0.71 -0.59,2.23 -0.9,3.36 -0.95,3.4 -1.35,8.39 -1.36,16.75 -0.01,16.3 -2.35,33.61 -6.98,51.62 -4.7897,15.34 -9.9724,30.433 -13.89,46.11 -6.33,30.73 -0.16,59.59 20.36,95.18 1.52,2.65 2.77,4.94 2.77,5.09 0,0.16 0.58,1.38 1.29,2.72 0.83,1.57 1.64,4.03 2.29,6.95 1.88,8.47 5.79,19.2 9.650001,26.49 5.01,9.451 11.99,17.88 19.39,23.411 1.28,0.96 2.25,1.819 2.15,1.92 -0.37,0.37 -3.8,-0.591 -6.37,-1.771 -7.34,-3.39 -14.93,-11.28 -21.490001,-22.34 -3.3,-5.54 -3.2,-5.42 -2.94,-3.45 0.4,3.18 3.6,21.24 4.73,26.71 5.470001,26.561 12.760001,43.28 23.640001,54.21 4.41,4.42 7.48,6.67 11.23,8.221 6.21,2.55 14.38,3.579 20.950004,2.64 7.85,-1.12 13.82,-4.14 17.4,-8.811 1.95,-2.539 1.96,-2.939 0.03,-2.01 -0.94,0.46 -2.7,0.87 -4.16,0.98 -2.19,0.149 -2.79,0.05 -4.58,-0.83 -3.85,-1.88 -5.44,-4.75 -6.26,-11.311 -0.6,-4.739 -0.29,-15.08 0.78,-26.34 0.9,-9.439 1.04,-16.609 0.4,-20.06 -0.25,-1.3 -0.98,-4.01 -1.62,-6.021 -1.14,-3.54 -1.18,-3.859 -1.26,-11.36 -0.04,-4.24 -0.27,-8.86 -0.51,-10.26 -0.38,-2.3 -2.07,-8.23 -2.58,-9.08 -0.07,-0.12 -0.28,0.12 -0.51,0.58 l -2.670004,-0.5 c 0.72,-1.09 1.190004,-2.26 1.210004,-3.26 0,-0.49 -1.340004,-2.94 -2.990004,-5.45 -3.63,-5.56 -6.17,-10.81 -7.22,-14.96 -0.64,-2.52 -0.75,-3.89 -0.62,-7.27 0.2,-4.77 1.14,-7.56 4.05,-11.88 2.21,-3.28 8.060004,-9.07 12.430004,-12.3 5.27,-3.89 8.34,-6.88 10.65,-10.4 2.81,-4.27 3.93,-6.56 4.6,-9.47 0.75,-3.22 0.75,-10.18 0,-13.75 -0.32,-1.54 -0.58,-2.94 -0.58,-3.12 0,-0.7 1.23,0.74 2.1,2.46 1.62,3.19 2.13,6.34 1.94,11.79 -0.34,9.22 -2.62,13.68 -11.86,23.13 l -3.48,3.58 2.51,0.29 c 4.42,0.5 10,2.68 20.87,8.16 13.28,6.69 16.11,7.88 27.99,11.78 16.27,5.34 21.14,6.31 32.92,6.49 8.94,0.14 14.6,-0.32 23.32,-1.88 10.55,-1.9 21.61,-4.75 34.8,-8.99 27.39,-8.8 49.03,-12.27 76.439,-12.28 23.551,0 42.101,2.73 60.131,8.84 12.39,4.212 22.11,6.762 27.25,7.172 z m -313.47,-237.759997 c 0.89,0.52 1.61,0.76 1.61,0.54 0,-0.71 -2.67,-5.740001 -4.680004,-8.840002 -7.61,-11.7 -18.57,-18.789999 -32.94,-21.33 -1.68,-0.29 -5.49,-0.48 -9.41,-0.47 -9.200001,0.04 -13.330001,0.950001 -21.250001,4.68 -1.24,0.58 -3.28,1.51 -4.52,2.05 -6.57,2.9 -14.99,17.46 -18.8,32.530002 -2.56,10.149997 -3.76,21.349997 -3.46,32.379997 0.2,7.29 0.86,14.56 1.76,19.19 0.22,1.14 0.98,5.54 1.69,9.78 1.63,9.79 2.9,18.76 6.22,44.21 0.41,3.1 0.75,5.73 0.77,5.83 0.05,0.28 1.69,-3.33 4.02,-8.84 1.14,-2.69 2.88,-7.24 3.86,-10.12 2.7599,-5.7712 4.0534,-11.857 5.26,-18.2 1.65,-9.53 2.15,-17.48 2.43,-38.46 0.12,-8.89 0.27,-11.3 0.89,-14.11 1.55,-7.13 4.21,-12.96 7.29,-15.989997 2.07,-2.04 5.65,-4.02 7.920001,-4.38 2.34,-0.38 1.05,-1 -2.440001,-1.18 -2.47,-0.13 -3.59,0 -5.42,0.62 -4.22,1.43 -9.547,6.474 -12.75,9.969997 -3.4568,3.773 -4.8937,9.7264 -5.44,15.5 -0.2,2.5 -0.46,4.83 -0.6,5.18 -0.65,1.71 -1.44,-0.16 -2.08,-4.95 -1.4716,-10.544 1.5925,-20.442997 8.96,-26.219997 4.38,-3.57 9.51,-5.54 14.36,-5.52 9.850001,0.04 17.800001,6.55 26.950001,22.069997 0.26,0.44 0.38,-0.98 0.4,-4.76 0.02,-4.369997 0.19,-5.959997 0.87,-8.399997 1.67,-5.99 4.53,-9.46 10.05,-12.17 6.55,-3.22 13.61,-3.440001 18.480004,-0.59 z" />
  <path
     inkscape:connector-curvature="0"
     id="path98"
     d="m 99.057786,351.28113 2.670004,0.5 c -0.12,0.23 -0.25,0.51 -0.38,0.83 -1.12,2.86 -2.510004,4.74 -4.380004,5.93 -2.6,1.64 -4.04,1.95 -8.41,1.79 -4.76,-0.18 -7.06,-1.14 -10.27,-4.3 -2.82,-2.77 -5.54,-8.36 -6.81,-13.98 -0.94,-4.18 -2.06,-14.19 -2.06,-18.43 0,-3.98 -0.59,-5.57 -2.97,-7.97 -1.16,-1.17 -4.21,-3.56 -6.79,-5.31 -5.67,-3.86 -10.740001,-8.75 -13.680001,-13.2 -2.22,-3.37 -5.29,-9.48 -5.73,-11.43 -0.1,-0.47 -0.46,-1.82 -0.88,-3.35 l 2.66,-0.73 c 0.33,1.11 0.69,2.23 1.08,3.32 3.45,9.77 7.470001,14.5 17.450001,20.51 3.26,1.96 6.94,4.22 8.16,5.02 5.46,3.55 6.33,5.64 6.89,16.61 0.63,12.11 1.84,17.73 4.74,22.01 1.86,2.73 2.75,3.52 5.4,4.73 1.88,0.86 2.7,1.01 5.45,0.99 1.79,-0.01 3.68,-0.19 4.2,-0.39 1.36,-0.52 2.72,-1.76 3.66,-3.15 z" />
  <path
     inkscape:connector-curvature="0"
     id="path100"
     d="m 98.677786,382.95113 c 1.500004,0.25 2.720004,0.529 2.720004,0.619 0,0.83 -6.600004,1.37 -10.330004,0.841 -7.4,-1.051 -14.79,-5.28 -21.1,-12.091 -4.91,-5.3 -9.81,-12.689 -8.41,-12.689 0.22,0 2.8,2.41 5.73,5.36 6.91,6.95 10.98,9.99 18.28,13.64 3.46,1.73 9.5,3.72 13.11,4.32 z" />
  <path
     inkscape:connector-curvature="0"
     id="path102"
     d="m 42.027785,281.63113 -2.66,0.73 c -0.14,-0.51 -0.29,-1.04 -0.44,-1.55 -1.29,-4.58 -2.68,-10.84 -3.8,-17.11 -0.69,-3.9 -0.84,-6.16 -0.86,-13.17 -0.02,-9.17 0.46,-13.11 2.31,-18.81 1.25,-3.84 3.77,-8.95 4.65,-9.42 0.91,-0.48 0.91,-0.48 -0.07,2.38 -0.43,1.28 -0.92,3.27 -1.08,4.41 -0.16,1.13 -0.6,3.93 -0.97,6.2 -0.93,5.68 -0.92,21.06 0.01,28.6 0.36,2.89 0.79,6.62 0.96,8.27 0.28,2.83 0.97,6.14 1.95,9.47 z" />
  <path
     inkscape:connector-curvature="0"
     id="path104"
     d="m 15.547785,549.72113 c 1.39,0.07 0.15,0.13 -2.75,0.13 -2.89,0 -4.03,-0.06 -2.52,-0.13 1.51,-0.07 3.88,-0.07 5.27,0 z" />
  <path
     inkscape:connector-curvature="0"
     style="fill:url(#linearGradient4018)"
     id="path106"
     d="m 184.03779,14.575132 c 12.857,58.570999 42.316,178.399998 107.32,184.829998 65,6.4286 84.159,-4.1942 84.827,4.8162 0.71428,9.6429 13.571,26.786 10,30.357 -3.5714,3.5714 -53.571,2.8572 -95.714,7.8572 -42.143,5 -92.143,-8.5714 -90,-23.571 2.1428,-15 12.857,-57.143 6.4286,-75 -6.44,-17.87 -36.44,-132.149998 -36.44,-132.149998 l 13.571,2.8571 z" />
  <path
     style="fill:#fce94f"
     inkscape:connector-curvature="0"
     id="path108"
     d="m 253.14779,336.00113 c 49.464,-11.786 75.268,-21.786 145.98,-0.35714 -4.8214,7.3214 -27.589,15.179 -63.839,10.893 -36.25,-4.2857 -54.464,-7.1429 -66.964,-2.6786 -12.5,4.4643 -15.357,-7.6786 -15.179,-7.8572 z" />
  <path
     style="fill:#000000"
     inkscape:connector-curvature="0"
     id="path110"
     d="m 534.31779,198.51113 c 15.91,5.5558 116.15,-9.8084 125.76,-11.869 14.142,-3.0304 12.879,-0.50508 1.0102,2.5254 -11.054,2.8224 -100.26,17.678 -127.53,13.132" />
  <path
     style="fill:#000000"
     inkscape:connector-curvature="0"
     id="path112"
     d="m 537.97779,225.82113 c 13.47,-10.127 113.64,-25.947 123.42,-26.905 14.394,-1.4099 12.424,-3.4322 0.19505,-2.7129 -11.389,0.66995 -100.89,13.622 -125.49,26.24" />
  <path
     style="fill:#000000;stroke:#000000;stroke-width:2;stroke-linecap:butt;stroke-linejoin:round;stroke-miterlimit:4;stroke-dasharray:none;stroke-dashoffset:0"
     inkscape:connector-curvature="0"
     id="path116"
     stroke-miterlimit="4"
     d="m 628.14344,257.7686 c 0,1.0809 -0.87625,1.9572 -1.9572,1.9572 -1.0809,0 -1.9572,-0.87626 -1.9572,-1.9572 0,-1.08094 0.87626,-1.9572 1.9572,-1.9572 1.08094,0 1.9572,0.87625 1.9572,1.9572 z" />
  <path
     style="fill:#000000;stroke:#000000;stroke-width:2;stroke-linecap:butt;stroke-linejoin:round;stroke-miterlimit:4;stroke-dasharray:none;stroke-dashoffset:0"
     inkscape:connector-curvature="0"
     id="path118"
     stroke-miterlimit="4"
     d="m 625.93779,257.42113 29.257,16.34" />
  <path
     style="fill:#000000;stroke:#000000;stroke-width:2;stroke-linecap:butt;stroke-linejoin:round;stroke-miterlimit:4;stroke-dasharray:none;stroke-dashoffset:0"
     inkscape:connector-curvature="0"
     id="path120"
     stroke-miterlimit="4"
     d="m 606.2863,291.99181 c 0,1.0809 -0.87625,1.9572 -1.9572,1.9572 -1.0809,0 -1.9572,-0.87626 -1.9572,-1.9572 0,-1.08094 0.87626,-1.9572 1.9572,-1.9572 1.08094,0 1.9572,0.87625 1.9572,1.9572 z" />
  <path
     style="fill:#000000;stroke:#000000;stroke-width:2;stroke-linecap:butt;stroke-linejoin:round;stroke-miterlimit:4;stroke-dasharray:none;stroke-dashoffset:0"
     inkscape:connector-curvature="0"
     id="path122"
     stroke-miterlimit="4"
     d="m 603.92779,292.07113 46.26,26.708" />
  <path
     style="fill:#cc0000;stroke:#000000;stroke-width:2;stroke-linecap:butt;stroke-linejoin:round;stroke-miterlimit:4;stroke-dasharray:none;stroke-dashoffset:0"
     inkscape:connector-curvature="0"
     id="path124"
     stroke-miterlimit="4"
     d="m 539.46779,171.47113 28.65,-112.929999" />
  <path
     style="fill:#000000;stroke:#000000;stroke-width:2;stroke-linecap:butt;stroke-linejoin:round;stroke-miterlimit:4;stroke-dasharray:none;stroke-dashoffset:0"
     inkscape:connector-curvature="0"
     id="path126"
     stroke-miterlimit="4"
     d="m 539.67916,172.77753 c 0,1.0809 -0.87625,1.9572 -1.9572,1.9572 -1.0809,0 -1.9572,-0.87626 -1.9572,-1.9572 0,-1.08094 0.87626,-1.9572 1.9572,-1.9572 1.08094,0 1.9572,0.87625 1.9572,1.9572 z" />
  <path
     style="fill:#000000;stroke:#000000;stroke-width:2;stroke-linecap:butt;stroke-linejoin:round;stroke-miterlimit:4;stroke-dasharray:none;stroke-dashoffset:0"
     inkscape:connector-curvature="0"
     id="path128"
     stroke-miterlimit="4"
     d="m 554.56184,209.3572 c 0,1.0809 -0.87625,1.9572 -1.9572,1.9572 -1.0809,0 -1.9572,-0.87626 -1.9572,-1.9572 0,-1.08094 0.87626,-1.9572 1.9572,-1.9572 1.08094,0 1.9572,0.87625 1.9572,1.9572 z" />
  <path
     style="fill:#000000;stroke:#000000;stroke-width:2;stroke-linecap:butt;stroke-linejoin:round;stroke-miterlimit:4;stroke-dasharray:none;stroke-dashoffset:0"
     inkscape:connector-curvature="0"
     id="path130"
     stroke-miterlimit="4"
     d="m 552.34779,209.36113 36.871,-82.176" />
  <path
     style="fill:#000000;stroke:#000000;stroke-width:2;stroke-linecap:butt;stroke-linejoin:round;stroke-miterlimit:4;stroke-dasharray:none;stroke-dashoffset:0"
     inkscape:connector-curvature="0"
     id="path132"
     stroke-miterlimit="4"
     d="m 491.68967,243.96762 c 0,1.0809 -0.87625,1.9572 -1.9572,1.9572 -1.0809,0 -1.9572,-0.87626 -1.9572,-1.9572 0,-1.08094 0.87626,-1.9572 1.9572,-1.9572 1.08094,0 1.9572,0.87625 1.9572,1.9572 z" />
  <path
     style="fill:#000000;stroke:#000000;stroke-width:2;stroke-linecap:butt;stroke-linejoin:round;stroke-miterlimit:4;stroke-dasharray:none;stroke-dashoffset:0"
     inkscape:connector-curvature="0"
     id="path134"
     stroke-miterlimit="4"
     d="m 440.59779,80.881133 48.761,162.019997" />
  <path
     style="fill:#000000;stroke:#000000;stroke-width:2;stroke-linecap:butt;stroke-linejoin:round;stroke-miterlimit:4;stroke-dasharray:none;stroke-dashoffset:0"
     inkscape:connector-curvature="0"
     id="path136"
     stroke-miterlimit="4"
     d="m 413.7863,289.02753 c 0,1.0809 -0.87625,1.9572 -1.9572,1.9572 -1.0809,0 -1.9572,-0.87626 -1.9572,-1.9572 0,-1.08094 0.87626,-1.9572 1.9572,-1.9572 1.08094,0 1.9572,0.87625 1.9572,1.9572 z" />
  <path
     style="fill:#000000;stroke:#000000;stroke-width:2;stroke-linecap:butt;stroke-linejoin:round;stroke-miterlimit:4;stroke-dasharray:none;stroke-dashoffset:0"
     inkscape:connector-curvature="0"
     id="path138"
     stroke-miterlimit="4"
     d="m 411.64779,289.03113 -126.29,163.14" />
  <path
     style="fill:#000000;stroke:#000000;stroke-width:2;stroke-linecap:butt;stroke-linejoin:round;stroke-miterlimit:4;stroke-dasharray:none;stroke-dashoffset:0"
     inkscape:connector-curvature="0"
     id="path140"
     stroke-miterlimit="4"
     d="m 210.15779,355.83113 55.558,-60.609" />
  <path
     style="fill:#000000;stroke:#000000;stroke-width:2;stroke-linecap:butt;stroke-linejoin:round;stroke-miterlimit:4;stroke-dasharray:none;stroke-dashoffset:0"
     inkscape:connector-curvature="0"
     id="path142"
     stroke-miterlimit="4"
     d="m 267.04717,295.72524 c 0,1.0809 -0.87625,1.9572 -1.9572,1.9572 -1.0809,0 -1.9572,-0.87626 -1.9572,-1.9572 0,-1.08094 0.87626,-1.9572 1.9572,-1.9572 1.08094,0 1.9572,0.87625 1.9572,1.9572 z" />
  <text
     sodipodi:linespacing="100%"
     id="text144"
     line-height="100%"
     x="388.07776"
     y="403.99115"
     font-variant="normal"
     font-stretch="normal"
     font-style="normal"
     font-size="20px"
     xml:space="preserve"
     font-weight="normal"
     style="font-style:normal;font-variant:normal;font-weight:normal;font-stretch:normal;font-size:20px;line-height:100%;font-family:'DejaVu Sans';text-align:start;writing-mode:lr-tb;text-anchor:start;fill:#000000"><tspan
       id="tspan146"
       y="403.99115"
       x="388.07776" /></text>
  <text
     sodipodi:linespacing="100%"
     id="text148"
     line-height="100%"
     x="417.80139"
     y="397.49115"
     font-variant="normal"
     font-stretch="normal"
     font-style="normal"
     font-size="20px"
     xml:space="preserve"
     font-weight="normal"
     style="font-style:normal;font-variant:normal;font-weight:normal;font-stretch:normal;font-size:20px;line-height:100%;font-family:Arial;text-align:start;writing-mode:lr-tb;text-anchor:start;fill:#000000"><tspan
       id="tspan150"
       x="417.80139"
       y="397.49115"
       style="text-align:center;text-anchor:middle">Tympanic</tspan><tspan
       id="tspan152"
       x="417.80139"
       y="417.49115"
       style="text-align:center;text-anchor:middle">Cavity</tspan></text>
  <path
     style="fill:#000000;stroke:#000000;stroke-width:2;stroke-linecap:butt;stroke-linejoin:round;stroke-miterlimit:4;stroke-dasharray:none;stroke-dashoffset:0"
     inkscape:connector-curvature="0"
     id="path154"
     stroke-miterlimit="4"
     d="m 424.07779,380.49113 41.5,-62.5" />
  <path
     style="fill:#000000;stroke:#000000;stroke-width:2;stroke-linecap:butt;stroke-linejoin:round;stroke-miterlimit:4;stroke-dasharray:none;stroke-dashoffset:0"
     inkscape:connector-curvature="0"
     id="path156"
     stroke-miterlimit="4"
     d="m 468.39582,317.49403 c 0,1.0809 -0.87625,1.9572 -1.9572,1.9572 -1.0809,0 -1.9572,-0.87626 -1.9572,-1.9572 0,-1.08094 0.87626,-1.9572 1.9572,-1.9572 1.08094,0 1.9572,0.87625 1.9572,1.9572 z" />
  <path
     style="fill:#000000;stroke:#cc0000;stroke-width:2;stroke-linecap:butt;stroke-linejoin:round;stroke-miterlimit:4;stroke-dasharray:none;stroke-dashoffset:0"
     inkscape:connector-curvature="0"
     id="path158"
     stroke-miterlimit="4"
     d="m 569.31779,325.41113 46.26,26.708" />
  <path
     style="fill:#000000;stroke:#000000;stroke-width:2;stroke-linecap:butt;stroke-linejoin:round;stroke-miterlimit:4;stroke-dasharray:none;stroke-dashoffset:0"
     inkscape:connector-curvature="0"
     id="path160"
     stroke-miterlimit="4"
     d="m 571.68429,325.33295 c 0,1.0809 -0.87625,1.9572 -1.9572,1.9572 -1.0809,0 -1.9572,-0.87626 -1.9572,-1.9572 0,-1.08094 0.87626,-1.9572 1.9572,-1.9572 1.08094,0 1.9572,0.87625 1.9572,1.9572 z" />
  <path
     style="fill:#cc0000;stroke:#cc0000;stroke-width:2;stroke-linecap:butt;stroke-linejoin:round;stroke-miterlimit:4;stroke-dasharray:none;stroke-dashoffset:0"
     inkscape:connector-curvature="0"
     id="path162"
     stroke-miterlimit="4"
     d="m 539.62779,303.70113 57.27,-125.51" />
  <path
     style="fill:#cc0000;stroke:#cc0000;stroke-width:2;stroke-linecap:butt;stroke-linejoin:round;stroke-miterlimit:4;stroke-dasharray:none;stroke-dashoffset:0"
     inkscape:connector-curvature="0"
     id="path164"
     stroke-miterlimit="4"
     d="m 584.52779,249.61113 33.23,-16.97" />
  <path
     style="fill:#000000;stroke:#000000;stroke-width:2;stroke-linecap:butt;stroke-linejoin:round;stroke-miterlimit:4;stroke-dasharray:none;stroke-dashoffset:0"
     inkscape:connector-curvature="0"
     id="path166"
     stroke-miterlimit="4"
     d="m 541.1613,303.36681 c 0,1.0809 -0.87625,1.9572 -1.9572,1.9572 -1.0809,0 -1.9572,-0.87626 -1.9572,-1.9572 0,-1.08094 0.87626,-1.9572 1.9572,-1.9572 1.08094,0 1.9572,0.87625 1.9572,1.9572 z" />
  <path
     style="fill:#000000;stroke:#000000;stroke-width:2;stroke-linecap:butt;stroke-linejoin:round;stroke-miterlimit:4;stroke-dasharray:none;stroke-dashoffset:0"
     inkscape:connector-curvature="0"
     id="path168"
     stroke-miterlimit="4"
     d="m 586.5363,249.99181 c 0,1.0809 -0.87625,1.9572 -1.9572,1.9572 -1.0809,0 -1.9572,-0.87626 -1.9572,-1.9572 0,-1.08094 0.87626,-1.9572 1.9572,-1.9572 1.08094,0 1.9572,0.87625 1.9572,1.9572 z" />
  <text
     sodipodi:linespacing="100%"
     id="text172"
     xml:space="preserve"
     x="651.16907"
     y="53.22678"
     font-variant="normal"
     font-stretch="normal"
     font-style="normal"
     font-size="20px"
     font-weight="normal"
     line-height="100%"
     style="font-style:normal;font-variant:normal;font-weight:normal;font-stretch:normal;font-size:20px;line-height:100%;font-family:Arial;text-align:end;writing-mode:lr-tb;text-anchor:end;fill:#000000"><tspan
       id="tspan174"
       x="651.16907"
       y="53.22678">Semicircular</tspan><tspan
       id="tspan176"
       x="651.16907"
       y="73.226784">Canals</tspan></text>
  <text
     sodipodi:linespacing="100%"
     id="text178"
     xml:space="preserve"
     x="589.30206"
     y="104.55423"
     font-variant="normal"
     font-stretch="normal"
     font-style="normal"
     font-size="20px"
     font-weight="normal"
     line-height="100%"
     style="font-style:normal;font-variant:normal;font-weight:normal;font-stretch:normal;font-size:20px;line-height:100%;font-family:Arial;text-align:start;writing-mode:lr-tb;text-anchor:start;fill:#000000"><tspan
       id="tspan180"
       x="589.30206"
       y="104.55423">Vestibular</tspan><tspan
       id="tspan182"
       x="589.30206"
       y="124.55423">Nerve</tspan></text>
  <text
     sodipodi:linespacing="100%"
     id="text184"
     xml:space="preserve"
     x="702.73376"
     y="279.92654"
     font-variant="normal"
     font-stretch="normal"
     font-style="normal"
     font-size="20px"
     font-weight="normal"
     line-height="100%"
     style="font-style:normal;font-variant:normal;font-weight:normal;font-stretch:normal;font-size:20px;line-height:100%;font-family:Arial;text-align:start;writing-mode:lr-tb;text-anchor:start;fill:#000000"><tspan
       id="tspan186"
       x="702.73376"
       y="279.92654"
       style="text-align:center;text-anchor:middle">Cochlear</tspan><tspan
       id="tspan188"
       x="702.73376"
       y="299.92654"
       style="text-align:center;text-anchor:middle">Nerve</tspan></text>
  <text
     sodipodi:linespacing="100%"
     id="text190"
     xml:space="preserve"
     x="278.01947"
     y="471.63071"
     font-variant="normal"
     font-stretch="normal"
     font-style="normal"
     font-size="20px"
     font-weight="normal"
     line-height="100%"
     style="font-style:normal;font-variant:normal;font-weight:normal;font-stretch:normal;font-size:20px;line-height:100%;font-family:Arial;text-align:center;writing-mode:lr-tb;text-anchor:middle;fill:#000000"><tspan
       id="tspan192"
       x="278.01947"
       y="471.63071">Tympanic</tspan><tspan
       id="tspan194"
       x="278.01947"
       y="491.63065">Membrane</tspan></text>
  <text
     sodipodi:linespacing="100%"
     id="text196"
     xml:space="preserve"
     x="206.48393"
     y="381.02155"
     font-variant="normal"
     font-stretch="normal"
     font-style="normal"
     font-size="20px"
     font-weight="normal"
     line-height="100%"
     style="font-style:normal;font-variant:normal;font-weight:normal;font-stretch:normal;font-size:20px;line-height:100%;font-family:'DejaVu Sans';text-align:center;writing-mode:lr-tb;text-anchor:middle;fill:#000000"><tspan
       style="font-style:normal;font-variant:normal;font-weight:normal;font-stretch:normal;font-family:Arial"
       id="tspan198"
       x="206.48393"
       y="381.02155"
       font-variant="normal"
       font-stretch="normal"
       font-style="normal"
       font-weight="normal">Auditory Canal</tspan></text>
  <text
     sodipodi:linespacing="100%"
     id="text200"
     xml:space="preserve"
     x="434.2641"
     y="33.659573"
     font-variant="normal"
     font-stretch="normal"
     font-style="normal"
     font-size="20px"
     font-weight="normal"
     line-height="100%"
     style="font-style:normal;font-variant:normal;font-weight:normal;font-stretch:normal;font-size:20px;line-height:100%;font-family:Arial;text-align:center;writing-mode:lr-tb;text-anchor:middle;fill:#000000"><tspan
       id="tspan202"
       x="434.2641"
       y="33.659573">Stapes</tspan><tspan
       id="tspan204"
       x="437.03754"
       y="53.659573">(attached to </tspan><tspan
       id="tspan206"
       x="434.2641"
       y="73.659576">oval window)</tspan></text>
  <text
     sodipodi:linespacing="100%"
     id="text208"
     xml:space="preserve"
     x="652.71405"
     y="331.31317"
     font-variant="normal"
     font-stretch="normal"
     font-style="normal"
     font-size="20px"
     font-weight="normal"
     line-height="100%"
     style="font-style:normal;font-variant:normal;font-weight:normal;font-stretch:normal;font-size:20px;line-height:100%;font-family:'DejaVu Sans';text-align:start;writing-mode:lr-tb;text-anchor:start;fill:#000000"><tspan
       style="font-style:normal;font-variant:normal;font-weight:normal;font-stretch:normal;font-family:Arial"
       id="tspan210"
       x="652.71405"
       y="331.31317"
       font-variant="normal"
       font-stretch="normal"
       font-style="normal"
       font-weight="normal">Cochlea</tspan></text>
  <text
     sodipodi:linespacing="100%"
     id="text212"
     xml:space="preserve"
     x="618.11206"
     y="364.65433"
     font-variant="normal"
     font-stretch="normal"
     font-style="normal"
     font-size="20px"
     font-weight="normal"
     line-height="100%"
     style="font-style:normal;font-variant:normal;font-weight:normal;font-stretch:normal;font-size:20px;line-height:100%;font-family:'DejaVu Sans';text-align:start;writing-mode:lr-tb;text-anchor:start;fill:#cc0000"><tspan
       style="font-style:normal;font-variant:normal;font-weight:normal;font-stretch:normal;font-family:Arial"
       id="tspan214"
       x="618.11206"
       y="364.65433"
       font-variant="normal"
       font-stretch="normal"
       font-style="normal"
       font-weight="normal">16 kHz</tspan></text>
  <text
     sodipodi:linespacing="100%"
     id="text216"
     xml:space="preserve"
     x="619.37152"
     y="233.37907"
     font-variant="normal"
     font-stretch="normal"
     font-style="normal"
     font-size="20px"
     font-weight="normal"
     line-height="100%"
     style="font-style:normal;font-variant:normal;font-weight:normal;font-stretch:normal;font-size:20px;line-height:100%;font-family:'DejaVu Sans';text-align:start;writing-mode:lr-tb;text-anchor:start;fill:#cc0000"><tspan
       style="font-style:normal;font-variant:normal;font-weight:normal;font-stretch:normal;font-family:Arial"
       id="tspan218"
       x="619.37152"
       y="233.37907"
       font-variant="normal"
       font-stretch="normal"
       font-style="normal"
       font-weight="normal">6 kHz</tspan></text>
  <text
     sodipodi:linespacing="100%"
     id="text220"
     xml:space="preserve"
     x="593.79431"
     y="174.10344"
     font-variant="normal"
     font-stretch="normal"
     font-style="normal"
     font-size="20px"
     font-weight="normal"
     line-height="100%"
     style="font-style:normal;font-variant:normal;font-weight:normal;font-stretch:normal;font-size:20px;line-height:100%;font-family:'DejaVu Sans';text-align:start;writing-mode:lr-tb;text-anchor:start;fill:#cc0000"><tspan
       style="font-style:normal;font-variant:normal;font-weight:normal;font-stretch:normal;font-family:Arial"
       id="tspan222"
       x="593.79431"
       y="174.10344"
       font-variant="normal"
       font-stretch="normal"
       font-style="normal"
       font-weight="normal">0.5 kHz</tspan></text>
</svg>
