<?xml version="1.0" encoding="UTF-8" standalone="no"?>
<!-- Created with Inkscape (http://www.inkscape.org/) -->

<svg
   xmlns:dc="http://purl.org/dc/elements/1.1/"
   xmlns:cc="http://creativecommons.org/ns#"
   xmlns:rdf="http://www.w3.org/1999/02/22-rdf-syntax-ns#"
   xmlns:svg="http://www.w3.org/2000/svg"
   xmlns="http://www.w3.org/2000/svg"
   xmlns:sodipodi="http://sodipodi.sourceforge.net/DTD/sodipodi-0.dtd"
   xmlns:inkscape="http://www.inkscape.org/namespaces/inkscape"
   width="122.4883mm"
   height="109.10036mm"
   viewBox="0 0 434.01368 386.57607"
   id="svg4961"
   version="1.1"
   inkscape:version="0.91 r13725"
   sodipodi:docname="cochlea.svg">
  <defs
     id="defs4963">
    <marker
       id="DotS"
       refY="0"
       refX="0"
       orient="auto">
      <path
         style="fill-rule:evenodd;stroke:#000000;stroke-width:1pt"
         inkscape:connector-curvature="0"
         d="m -2.5,-1 c 0,2.76 -2.24,5 -5,5 -2.76,0 -5,-2.24 -5,-5 0,-2.76 2.24,-5 5,-5 2.76,0 5,2.24 5,5 z"
         transform="matrix(0.2,0,0,0.2,1.48,0.2)"
         id="path7" />
    </marker>
    <marker
       id="marker4837"
       refY="0"
       refX="0"
       orient="auto">
      <path
         style="fill-rule:evenodd;stroke:#000000;stroke-width:1pt"
         inkscape:connector-curvature="0"
         d="m -2.5,-1 c 0,2.76 -2.24,5 -5,5 -2.76,0 -5,-2.24 -5,-5 0,-2.76 2.24,-5 5,-5 2.76,0 5,2.24 5,5 z"
         transform="matrix(0.2,0,0,0.2,1.48,0.2)"
         id="path4839" />
    </marker>
    <marker
       id="marker4841"
       refY="0"
       refX="0"
       orient="auto">
      <path
         style="fill-rule:evenodd;stroke:#000000;stroke-width:1pt"
         inkscape:connector-curvature="0"
         d="m -2.5,-1 c 0,2.76 -2.24,5 -5,5 -2.76,0 -5,-2.24 -5,-5 0,-2.76 2.24,-5 5,-5 2.76,0 5,2.24 5,5 z"
         transform="matrix(0.2,0,0,0.2,1.48,0.2)"
         id="path4843" />
    </marker>
    <marker
       id="marker4845"
       refY="0"
       refX="0"
       orient="auto">
      <path
         style="fill-rule:evenodd;stroke:#000000;stroke-width:1pt"
         inkscape:connector-curvature="0"
         d="m -2.5,-1 c 0,2.76 -2.24,5 -5,5 -2.76,0 -5,-2.24 -5,-5 0,-2.76 2.24,-5 5,-5 2.76,0 5,2.24 5,5 z"
         transform="matrix(0.2,0,0,0.2,1.48,0.2)"
         id="path4847" />
    </marker>
    <marker
       id="marker4849"
       refY="0"
       refX="0"
       orient="auto">
      <path
         style="fill-rule:evenodd;stroke:#000000;stroke-width:1pt"
         inkscape:connector-curvature="0"
         d="m -2.5,-1 c 0,2.76 -2.24,5 -5,5 -2.76,0 -5,-2.24 -5,-5 0,-2.76 2.24,-5 5,-5 2.76,0 5,2.24 5,5 z"
         transform="matrix(0.2,0,0,0.2,1.48,0.2)"
         id="path4851" />
    </marker>
    <marker
       id="marker4853"
       refY="0"
       refX="0"
       orient="auto">
      <path
         style="fill-rule:evenodd;stroke:#000000;stroke-width:1pt"
         inkscape:connector-curvature="0"
         d="m -2.5,-1 c 0,2.76 -2.24,5 -5,5 -2.76,0 -5,-2.24 -5,-5 0,-2.76 2.24,-5 5,-5 2.76,0 5,2.24 5,5 z"
         transform="matrix(0.2,0,0,0.2,1.48,0.2)"
         id="path4855" />
    </marker>
    <marker
       id="marker4857"
       refY="0"
       refX="0"
       orient="auto">
      <path
         style="fill-rule:evenodd;stroke:#000000;stroke-width:1pt"
         inkscape:connector-curvature="0"
         d="m -2.5,-1 c 0,2.76 -2.24,5 -5,5 -2.76,0 -5,-2.24 -5,-5 0,-2.76 2.24,-5 5,-5 2.76,0 5,2.24 5,5 z"
         transform="matrix(0.2,0,0,0.2,1.48,0.2)"
         id="path4859" />
    </marker>
    <linearGradient
       id="linearGradient10554"
       gradientUnits="userSpaceOnUse"
       gradientTransform="matrix(31.568488,0,0,16.272279,445.44749,863.2027)">
      <stop
         stop-color="#fffbf2"
         offset="0"
         id="stop48" />
      <stop
         stop-color="#fff0c2"
         offset="1"
         id="stop50" />
    </linearGradient>
    <linearGradient
       id="linearGradient10552"
       gradientUnits="userSpaceOnUse"
       gradientTransform="matrix(27.717213,0,0,14.009283,449.29574,862.67577)">
      <stop
         stop-color="#fffbf2"
         offset="0"
         id="stop43" />
      <stop
         stop-color="#fff0c2"
         offset="1"
         id="stop45" />
    </linearGradient>
  </defs>
  <sodipodi:namedview
     id="base"
     pagecolor="#ffffff"
     bordercolor="#666666"
     borderopacity="1.0"
     inkscape:pageopacity="0.0"
     inkscape:pageshadow="2"
     inkscape:zoom="0.7"
     inkscape:cx="290.74524"
     inkscape:cy="76.69172"
     inkscape:document-units="px"
     inkscape:current-layer="layer1"
     showgrid="false"
     fit-margin-top="2"
     fit-margin-left="2"
     fit-margin-right="2"
     fit-margin-bottom="2"
     inkscape:window-width="1920"
     inkscape:window-height="1035"
     inkscape:window-x="1280"
     inkscape:window-y="0"
     inkscape:window-maximized="1" />
  <metadata
     id="metadata4966">
    <rdf:RDF>
      <cc:Work
         rdf:about="">
        <dc:format>image/svg+xml</dc:format>
        <dc:type
           rdf:resource="http://purl.org/dc/dcmitype/StillImage" />
        <dc:title></dc:title>
      </cc:Work>
    </rdf:RDF>
  </metadata>
  <g
     inkscape:label="Layer 1"
     inkscape:groupmode="layer"
     id="layer1"
     transform="translate(-394.42174,-545.72668)">
    <path
       style="text-align:start;fill:#f3f4f9;fill-rule:nonzero"
       d="m 820.26069,598.45973 c 0,0 -9.372,-3.6535 -20.845,4.6081 -11.478,8.2598 -6.4258,7.341 -19.738,12.391 -13.31,5.0486 -21.57,4.1317 -33.048,13.31 -11.474,9.1821 -5.9638,11.016 -18.357,11.476 -12.393,0.45848 -24.328,1.3754 -46.358,-0.91875 -22.032,-2.296 -64.715,-5.9674 -86.746,-1.8357 -22.032,4.1299 -22.032,4.5902 -32.131,6.8843 -10.096,2.296 -25.70198,7.3446 -27.07898,7.8031 -1.3754,0.45848 -13.767,-4.1317 -18.359,-0.92054 -4.5884,3.21471 -8.7219,8.72361 -3.213,11.01801 5.5072,2.2942 21.101,1.4148 29.37498,1.3772 7.2694,-0.034 46.776,-2.2028 65.136,2.3873 18.357,4.5884 52.822,18.268 74.852,14.136 22.03,-4.1317 50.028,-22.032 63.8,-31.66901 13.769,-9.6406 13.308,-8.2616 13.308,-8.2616 0,0 22.492,8.2616 27.079,16.06301 4.592,7.8031 15.15,47.734 -2.7508,63.34 -17.904,15.604 -50.488,29.377 -61.046,29.833 -10.556,0.45848 -20.655,6.4241 -24.326,9.6388 -3.6696,3.2129 -5.5089,7.8013 -5.5089,7.8013 0,0 6.8861,3.2129 16.066,3.2129 9.1803,0 22.487,-0.91874 40.848,-0.46027 18.361,0.46027 23.409,0.46027 35.801,3.2147 12.395,2.7544 29.301,2.7204 33.24,-0.0161 l 0,-174.41001"
       id="path226"
       inkscape:connector-curvature="0" />
    <path
       style="text-align:start;fill:#d45500"
       d="m 820.26069,598.45973 c 0,0 -9.372,-3.6535 -20.845,4.6081 -11.478,8.2598 -6.4258,7.341 -19.738,12.391 -13.31,5.0486 -21.57,4.1317 -33.048,13.31 -11.474,9.1821 -7.3052,10.479 -19.698,10.94 -12.393,0.45848 -22.987,1.912 -45.017,-0.38219 -22.032,-2.296 -64.715,-5.9674 -86.746,-1.8357 -22.032,4.1299 -22.032,4.5902 -32.131,6.8843 -10.096,2.296 -25.70198,7.3446 -27.07898,7.8031 -1.3754,0.45848 -13.767,-4.1317 -18.359,-0.92054 -4.5884,3.21471 -8.7219,8.72361 -3.213,11.01801 5.5072,2.2942 21.101,1.4148 29.37498,1.3772 7.2694,-0.034 46.776,-2.2028 65.136,2.3873 18.357,4.5884 52.822,18.268 74.852,14.136 22.03,-4.1317 50.028,-22.032 63.8,-31.66901 13.769,-9.6406 13.308,-8.2616 13.308,-8.2616 0,0 22.492,8.2616 27.079,16.06301 4.592,7.8031 15.15,47.734 -2.7508,63.34 -17.904,15.604 -50.488,29.377 -61.046,29.833 -10.556,0.45848 -20.655,6.4241 -24.326,9.6388 -3.6696,3.2129 -5.5089,7.8013 -5.5089,7.8013 0,0 6.8861,3.2129 16.066,3.2129 9.1803,0 22.487,-0.91874 40.848,-0.46027 18.361,0.46027 23.409,0.46027 35.801,3.2147 12.395,2.7544 29.301,2.7204 33.24,-0.0161 l 0,-174.41001"
       id="path228"
       inkscape:connector-curvature="0" />
    <path
       style="text-align:start;fill:none;stroke:#ffffff;stroke-width:1.34319925;stroke-linecap:round;stroke-linejoin:round;stroke-miterlimit:4;stroke-dasharray:none"
       d="m 820.26069,598.45973 c 0,0 -8.0305,-8.7509 -19.503,-0.48932 -11.478,8.2598 -7.7673,8.4142 -21.079,13.465 -13.31,5.0486 -23.716,5.4731 -35.194,14.652 -11.474,9.1821 -6.5003,12.626 -18.894,13.086 -12.393,0.45848 -21.645,2.4486 -43.676,0.15438 -22.032,-2.296 -64.715,-5.9674 -86.746,-1.8357 -22.032,4.1299 -22.032,4.5902 -32.131,6.8843 -10.096,2.296 -25.70198,7.3446 -27.07898,7.8031 -1.3754,0.45848 -13.767,-4.1317 -18.359,-0.92054 -4.5884,3.21471 -8.7219,8.72361 -3.213,11.01801 5.5072,2.2942 21.101,1.4148 29.37498,1.3772 7.2694,-0.034 46.776,-2.2025 65.136,2.3873 11.108,2.7769 28.116,8.8821 44.696,12.355 10.819,2.2664 21.457,3.4119 30.156,1.7805 22.03,-4.1317 50.028,-22.032 63.8,-31.66901 13.769,-9.6406 13.308,-8.2616 13.308,-8.2616 0,0 22.492,8.2616 27.079,16.06301 4.592,7.8031 15.15,47.734 -2.7508,63.34 -17.904,15.604 -50.488,29.377 -61.046,29.833 -10.556,0.45848 -20.655,6.4241 -24.326,9.6388 -3.6696,3.2129 -5.5089,7.8013 -5.5089,7.8013 0,0 6.8861,3.2129 16.066,3.2129 9.1803,0 22.487,-0.91874 40.848,-0.46027 18.361,0.46027 23.409,0.46027 35.801,3.2147 12.395,2.7544 29.301,2.7204 33.24,-0.0161 l 0,-174.41001 z"
       stroke-miterlimit="4"
       id="path230"
       inkscape:connector-curvature="0" />
    <path
       style="text-align:start;fill:#ffcc00;fill-rule:nonzero"
       d="m 402.19071,719.62974 17.168,3.229 c 2.5843,3.2255 5.8098,4.5167 5.8098,4.5167 l 6.4581,1.2913 3.2273,1.2931 5.165,-1.2931 c 0,0 6.4563,-3.2255 12.268,-3.872 5.8098,-0.64653 9.0388,-2.5843 10.975,-4.5203 1.9378,-1.9378 7.1028,-16.14 9.0388,-17.433 1.9396,-1.2895 1.9396,-1.2895 1.9396,-1.2895 0,0 3.2237,-9.0406 6.4527,-13.559 3.2309,-4.5185 10.977,-10.33 10.977,-10.33 0,0 5.1668,-4.5185 9.6835,-7.0993 4.5203,-2.5843 8.0181,-4.0296 9.954,-4.0296 1.9378,0 7.479,-0.49072 7.479,-0.49072 0,0 10.33,-1.2948 14.204,-0.64652 3.8738,0.64652 14.20598,-2.5825 16.78798,4.5185 0,0 27.245,-1.8429 43.256,0 8.6824,1.0011 10.022,1.422 15.964,2.9049 7.5953,1.902 19.544,4.8427 25.356,8.7165 5.8098,3.8738 5.8098,4.5203 7.7458,5.165 1.9378,0.64653 4.5203,0 4.5203,0 0,0 0.6448,-1.9378 5.8098,-1.2913 5.1669,0.64653 9.0424,3.8738 10.332,9.0388 1.2913,5.1668 1.2931,7.7494 5.8116,10.332 4.5185,2.5807 14.849,5.165 21.305,11.62 6.4545,6.4581 10.33,15.495 10.33,15.495 0,0 2.0238,-3.0929 4.5185,0 3.7359,4.6349 7.7476,9.0388 7.7476,9.0388 l 0,1.9396 c 0,0 1.2949,-1.2948 6.4581,-1.2948 5.1633,0 8.3905,0.64473 12.266,0 3.872,-0.64474 7.101,-0.64474 7.101,-0.64474 l 1.2913,2.5843 c 0,0 -1.9378,-1.9396 3.8738,-3.8756 5.8098,-1.936 5.1651,-1.2913 9.0406,-3.229 3.872,-1.936 7.1029,-5.1668 9.0389,-3.8738 0,0 -0.6448,1.9396 3.8738,-2.5807 4.5185,-4.5203 9.6817,-8.3941 12.911,-10.33 3.229,-1.9378 5.8116,-8.3941 9.0389,-7.1028 3.229,1.2912 -3.2273,2.5843 0.6447,-9.6854 3.8756,-12.266 4.5203,-14.849 4.5203,-14.849 0,0 -2.4231,0.24357 -3.0697,-3.6284 -0.6447,-3.8738 -4.0314,-8.6377 -4.0314,-14.449 0,-5.8116 -1.2912,-14.2 1.9361,-14.849 0,0 2.5842,5.8116 5.165,11.62 2.5825,5.8134 9.6871,23.889 4.5203,38.095 -5.165,14.204 -21.953,32.926 -36.157,38.738 -14.202,5.8098 -23.243,9.6818 -32.926,10.328 -9.6854,0.64832 -20.016,4.5185 -27.116,7.7476 -7.1011,3.229 -7.1029,7.101 -15.495,7.101 -8.3923,0 -20.014,3.8756 -41.32,3.8756 -21.305,0 -109.75998,1.9396 -122.66998,1.2913 -12.911,-0.64653 -38.738,-2.5843 -57.458,1.2913 -18.722,3.872 -52.295,13.556 -52.295,13.556 l -9.4221,2.5861 0,-71.666"
       id="path232"
       inkscape:connector-curvature="0" />
    <path
       style="text-align:start;fill:#ff9955;fill-rule:nonzero"
       d="m 402.19071,756.42974 c 0,0 45.61,9.7463 71.859,10.712 24.09,0.88651 45.968,1.1946 45.968,1.1946 0,0 37.53398,0.67877 44.17498,0.59638 6.6407,-0.0824 29.348,0.27223 42.66,-0.75219 16.55,-1.2734 53.334,-1.293 56.269,-1.5259 2.9335,-0.23282 26.436,-0.70742 26.436,-0.70742 0,0 -0.7217,3.5066 -33.82,6.0534 -17.354,1.3342 -56.894,1.6494 -81.98,1.6799 -25.086,0.0287 -48.36798,0.62683 -57.92098,0.0287 -9.551,-0.59816 -37.61,-1.7909 -45.37,0 -7.7601,1.7909 -68.278,17.585 -68.278,17.585 l 0,-34.864"
       id="path234"
       inkscape:connector-curvature="0" />
    <path
       style="text-align:start;fill:none;stroke:#000000;stroke-width:1.34319925;stroke-linecap:round;stroke-linejoin:round;stroke-miterlimit:4;stroke-dasharray:none"
       d="m 402.19071,719.62974 17.168,3.229 c 2.5843,3.2255 5.8098,4.5167 5.8098,4.5167 l 6.4581,1.2913 3.2273,1.2931 5.165,-1.2931 c 0,0 6.4563,-3.2255 12.268,-3.872 5.8098,-0.64653 9.0388,-2.5843 10.975,-4.5203 1.9378,-1.9378 7.1028,-16.14 9.0388,-17.433 1.9396,-1.2895 1.9396,-1.2895 1.9396,-1.2895 0,0 3.2237,-9.0406 6.4527,-13.559 3.2309,-4.5185 10.977,-10.33 10.977,-10.33 0,0 5.1668,-4.5185 9.6835,-7.0993 4.5203,-2.5843 8.018,-4.0296 9.954,-4.0296 1.9378,0 7.479,-0.49072 7.479,-0.49072 0,0 10.33,-1.2948 14.204,-0.64653 3.8738,0.64653 14.20598,-2.5825 16.78798,4.5185 0,0 27.246,-1.8429 43.256,0 8.6825,1.0011 10.022,1.422 15.964,2.9049 7.5954,1.902 19.544,4.8427 25.356,8.7165 5.8098,3.8738 5.8098,4.5203 7.7458,5.165 1.9378,0.64652 4.5203,0 4.5203,0 0,0 0.6448,-1.9378 5.8098,-1.2913 5.1668,0.64653 9.0424,3.8738 10.332,9.0388 1.2913,5.1668 1.2931,7.7494 5.8116,10.332 4.5185,2.5807 14.849,5.165 21.305,11.62 6.4545,6.4581 10.33,15.495 10.33,15.495 0,0 2.0238,-3.0929 4.5185,0 3.7359,4.6349 7.7476,9.0388 7.7476,9.0388 l 0,1.9396 c 0,0 1.2948,-1.2948 6.4581,-1.2948 5.1633,0 8.3905,0.64473 12.266,0 3.872,-0.64474 7.101,-0.64474 7.101,-0.64474 l 1.2913,2.5843 c 0,0 -1.9378,-1.9396 3.8738,-3.8756 5.8098,-1.936 5.165,-1.2913 9.0406,-3.229 3.872,-1.936 7.1029,-5.1668 9.0389,-3.8738 0,0 -0.6448,1.9396 3.8737,-2.5807 4.5186,-4.5203 9.6818,-8.3941 12.911,-10.33 3.229,-1.9378 5.8116,-8.3941 9.0388,-7.1028 3.2291,1.2913 -3.2272,2.5843 0.6447,-9.6854 3.8756,-12.266 4.5204,-14.849 4.5204,-14.849 0,0 -2.4232,0.24356 -3.0697,-3.6284 -0.6447,-3.8738 -4.0314,-8.6377 -4.0314,-14.449 0,-5.8116 -1.2912,-14.2 1.936,-14.849 0,0 2.5843,5.8116 5.1651,11.62 2.5825,5.8134 9.6871,23.889 4.5203,38.095 -5.1651,14.204 -21.953,32.926 -36.157,38.738 -14.202,5.8098 -23.243,9.6818 -32.926,10.328 -9.6853,0.64832 -20.015,4.5185 -27.116,7.7476 -7.101,3.229 -7.1028,7.101 -15.495,7.101 -8.3923,0 -20.014,3.8756 -41.32,3.8756 -21.305,0 -109.75998,1.9396 -122.66998,1.2913 -12.911,-0.64652 -38.738,-2.5843 -57.458,1.2913 -18.722,3.872 -52.295,13.556 -52.295,13.556 l -9.4221,2.5861 0,-71.666 z m 0.64832,21.95 c 0,0 6.1912,1.2948 11.999,1.9396 5.8116,0.64473 8.3941,0 8.3941,0 l 2.5843,0 c 0,0 1.9342,4.5167 8.3905,5.8098 6.4599,1.2913 8.3959,1.2913 10.978,1.2913 2.5807,0 8.3923,-2.5843 8.3923,-2.5843 0,0 5.8098,2.5843 11.621,1.293 5.8098,-1.293 9.6835,-5.165 9.6835,-5.165 0,0 1.9378,-6.4545 -2.5825,-9.0388 -4.5203,-2.5843 -10.332,-3.2291 -10.975,-5.165 -0.64653,-1.9378 -3.2344,-6.0963 -3.2344,-6.0963 m -32.923,3.512 c 0,0 3.229,16.143 0.64832,16.143 m 9.037,-13.559 c 0,0 3.2273,3.872 5.8134,6.4545 2.5807,2.5825 6.4545,6.4599 8.3905,8.3941 1.9378,1.9396 4.5203,3.2273 4.5203,3.2273 m -51.387,8.3959 c 0,0 20.395,3.872 32.016,6.4545 11.623,2.5825 67.146,6.4563 75.54,5.8098 8.39406,-0.64473 33.57294,0 41.31994,0 7.7476,0 40.672,1.2931 51.004,0 10.332,-1.2895 62.627,-1.936 64.565,-1.936 1.9378,0 26.472,-1.2913 26.472,-1.2913"
       stroke-miterlimit="4"
       id="path236"
       inkscape:connector-curvature="0" />
    <path
       style="text-align:start;fill:#e7a8af;fill-rule:nonzero"
       d="m 791.26069,813.72974 c -15.98,-4.8427 -28.571,-15.012 -46.002,-23.245 -17.433,-8.2293 -38.738,-2.9049 -54.233,-26.633 -6.0946,-9.3326 -7.264,-25.177 -7.7476,-36.798 0,0 0.7003,-9.3433 -2.6882,-11.765 -2.4553,-1.7533 -4.9698,-3.0697 -6.9094,-4.0332 l 0.01,-0.0125 c 0,0 -8.9207,-7.1978 -10.649,-14.969 -1.7283,-7.7709 -4.8929,-9.4991 -9.4991,-10.362 0,0 -5.7489,-1.5886 -6.9041,0.78801 -1.1569,2.3784 1.7229,6.408 4.6009,9.5743 2.8781,3.1664 10.074,9.7874 13.817,27.921 l 0.013,-0.0179 c 1.0477,6.1483 2.253,13.006 3.6822,16.434 2.4213,5.8098 13.074,27.6 20.338,34.864 7.2622,7.2622 24.212,26.631 29.052,30.99 4.8445,4.3591 18.402,16.464 45.033,25.179 9.0424,2.9586 18.887,4.3573 24.695,4.8427 8.5517,0.71279 32.444,2.9049 32.444,2.9049 l 0,-22.274 c 0,0 -13.076,1.4542 -29.052,-3.3884"
       id="path238"
       inkscape:connector-curvature="0" />
    <path
       style="text-align:start;fill:#803300;stroke:#000000;stroke-width:1.79093242"
       d="m 791.26069,813.72974 c -15.98,-4.8427 -28.571,-15.012 -46.002,-23.245 -17.433,-8.2293 -38.738,-2.9049 -54.233,-26.633 -6.0946,-9.3326 -7.264,-25.177 -7.7476,-36.798 0,0 0.7003,-9.3433 -2.6882,-11.765 -2.4553,-1.7533 -4.9698,-3.0697 -6.9094,-4.0332 l 0.01,-0.0125 c 0,0 -8.9207,-7.1978 -10.649,-14.969 -1.7283,-7.7709 -4.8929,-9.4991 -9.4991,-10.362 0,0 -5.7489,-1.5886 -6.9041,0.78801 -1.1569,2.3784 1.7229,6.408 4.6009,9.5743 2.8781,3.1664 10.074,9.7874 13.817,27.921 l 0.013,-0.0179 c 1.0477,6.1483 2.253,13.006 3.6822,16.434 2.4213,5.8098 13.074,27.6 20.338,34.864 7.2622,7.2622 24.212,26.631 29.052,30.99 4.8445,4.3591 18.402,16.464 45.033,25.179 9.0424,2.9586 18.887,4.3573 24.695,4.8427 8.5517,0.71279 32.444,2.9049 32.444,2.9049 l 0,-22.274 c 0,0 -13.076,1.4542 -29.052,-3.3884 z"
       id="path240"
       inkscape:connector-curvature="0" />
    <path
       style="text-align:start;fill:none;stroke:#000000;stroke-width:1.34319937;stroke-linecap:round;stroke-linejoin:round;stroke-miterlimit:4;stroke-dasharray:none"
       d="m 441.08071,750.74974 c 0,0 -12.069,4.6636 -16.459,9.877 m 19.201,-10.151 c 0,0 1.0978,11.245 0.54981,13.441 m 9.0532,-15.087 c 0,0 0.27401,6.0354 -1.3719,9.6012 -1.6459,3.564 -2.4697,6.3077 -2.4697,6.3077 m 10.973,-14.813 c 0,0 2.7419,4.3914 3.0177,8.2293 0.2758,3.8398 2.1939,7.9571 2.1939,7.9571 m 4.1156,-18.38 c 0,0 9.0531,6.0354 9.5993,18.928 m -5.2116,-21.672 c 0,0 14.265,6.0337 17.282,9.3272 3.0177,3.2917 7.1333,8.5051 6.5835,13.717 m -23.316,-66.659 c 0,0 3.2918,5.7596 7.6814,10.423 4.3877,4.6636 5.2116,8.7774 6.0354,13.441 0.8202,4.6636 1.9181,7.9571 5.7596,11.521 3.8398,3.5675 11.797,7.6831 12.071,8.7792 m -14.702,-67.873 c 0,0 2.6308,1.7623 3.1807,7.5237 0.5462,5.7578 0.2722,23.866 1.37,26.608 1.0961,2.7437 7.9554,12.621 9.6012,13.169 1.6441,0.54803 7.9553,-7.6813 8.5051,-10.699 0.54629,-3.0195 -1.3736,-11.795 -1.6458,-15.638 -0.2776,-3.8398 -0.548,-7.4037 1.6458,-12.617 2.19389,-5.2134 3.56579,-17.555 3.56579,-19.75 m -11.52099,59.253 c 0,0 0.274,18.927 0.274,23.316 0,4.3896 -0.8238,18.927 -0.8238,18.927 m 29.90099,-101.77 c 0,0 2.1939,-0.27402 -1.6459,3.5657 -3.8415,3.8398 -5.7614,7.6795 -7.9535,11.521 -2.1957,3.8398 -5.2152,9.3254 -5.2152,12.893 0,3.5658 1.9235,7.4073 3.0195,8.5034 1.0961,1.096 1.9181,3.0177 1.9181,3.0177 l 1.3737,10.973 c 0,0 -2.4679,12.071 -5.4857,18.106 -3.0195,6.0319 -5.7596,6.5835 -6.0354,11.245 -0.2758,4.6636 0,6.5835 -2.74369,12.619 -2.7419,6.0354 -1.9199,9.6012 -1.9199,9.6012 m 38.74297,-98.114 c 0,0 1.3056,1.0065 -3.084,5.9441 -4.3878,4.9358 -8.50158,7.9535 -10.97098,12.617 -2.4697,4.6636 -10.425,16.186 -10.425,16.186 m 13.167,4.3896 c 0,0 0,-7.9571 1.096,-12.347 1.0996,-4.3878 1.0996,-7.9535 5.76138,-13.989 4.6654,-6.0336 13.342,-8.9475 13.342,-8.9475 0,0 8.8634,-2.2154 7.9124,4.4344 0,0 6.648,-5.6987 10.131,-4.7478 3.4816,0.9492 4.4325,4.7478 4.4325,4.7478 0,0 2.8477,-3.4816 6.014,-3.1664 3.1664,0.317 8.8669,1.2662 9.4973,5.6988 0,0 4.1156,-3.4834 11.08,-0.31699 m -80.51298,36.861 c 0,0 5.2116,-3.29 9.0513,-6.0354 3.8398,-2.7401 7.10288,-5.217 7.10288,-5.217 0,0 6.716,-4.4773 10.969,-8.0592 6.7805,-5.7095 11.193,-19.476 11.193,-19.476"
       stroke-miterlimit="4"
       id="path242"
       inkscape:connector-curvature="0" />
    <path
       style="text-align:start;fill:#ffffff;fill-rule:nonzero"
       d="m 608.46069,681.06974 c 0,0 12.617,3.8398 14.811,11.247 2.1938,7.4055 2.1975,20.3 -4.3878,31.271 -6.5853,10.973 -16.459,24.14 -19.476,26.608 -3.0177,2.4679 -4.3896,4.1156 -8.5034,3.5657 -4.1155,-0.54802 -11.249,-4.9376 -10.425,-10.151 0.8257,-5.2098 5.7615,-13.713 8.7774,-18.103 3.0195,-4.3878 3.5693,-13.443 5.2134,-16.457 1.6477,-3.0177 8.2311,-14.815 10.149,-18.654 1.9199,-3.8416 3.8416,-9.3272 3.8416,-9.3272"
       id="path244"
       inkscape:connector-curvature="0" />
    <path
       style="text-align:start;fill:none;stroke:#000000;stroke-width:1.34319937;stroke-linecap:round;stroke-linejoin:round;stroke-miterlimit:4;stroke-dasharray:none"
       d="m 608.46069,681.06974 c 0,0 12.617,3.8398 14.811,11.247 2.1938,7.4055 2.1975,20.3 -4.3878,31.271 -6.5853,10.973 -16.459,24.14 -19.476,26.608 -3.0177,2.4679 -4.3896,4.1156 -8.5034,3.5657 -4.1155,-0.54802 -11.249,-4.9376 -10.425,-10.151 0.8257,-5.2098 5.7615,-13.713 8.7774,-18.103 3.0195,-4.3878 3.5693,-13.443 5.2134,-16.457 1.6477,-3.0177 8.2311,-14.815 10.149,-18.654 1.9199,-3.8416 3.8416,-9.3272 3.8416,-9.3272 z"
       stroke-miterlimit="4"
       id="path246"
       inkscape:connector-curvature="0" />
    <path
       style="text-align:start;fill:#ebc3c6;fill-rule:nonzero"
       d="m 592.26069,718.23974 c 0,0 15.997,-2.6989 26.608,5.3495 l -1.8769,2.9837 c 0,0 -0.4567,-3.1055 -10.6,-4.2033 -12.173,-1.3163 -15.62,-0.25969 -15.62,-0.25969 l 1.49,-3.8702"
       id="path248"
       inkscape:connector-curvature="0" />
    <path
       style="text-align:start;fill:#c83737;stroke:#000000;stroke-width:1.34319937;stroke-linecap:round;stroke-linejoin:round;stroke-miterlimit:4;stroke-dasharray:none"
       d="m 592.26069,718.23974 c 0,0 15.997,-2.6989 26.608,5.3495 l -1.8769,2.9837 c 0,0 -0.4567,-3.1055 -10.6,-4.2033 -12.173,-1.3163 -15.62,-0.25969 -15.62,-0.25969 l 1.49,-3.8702 z m -0.5856,1.5689 c 0.274,-0.0913 20.017,-0.82205 26.14,4.7531"
       stroke-miterlimit="4"
       id="path250"
       inkscape:connector-curvature="0" />
    <path
       style="text-align:start;fill:#ebc3c6;fill-rule:nonzero"
       d="m 616.36069,727.38974 c 0,0 -6.4903,-3.0159 -12.707,-3.0159 -6.2146,0 -13.801,-0.0895 -13.801,-0.0895 l -2.9228,4.8427 c 0,0 22.301,-1.9199 26.869,1.8285 l 2.561,-3.5657"
       id="path252"
       inkscape:connector-curvature="0" />
    <path
       style="text-align:start;fill:#c83737;stroke:#000000;stroke-width:1.34319937;stroke-linecap:round;stroke-linejoin:round;stroke-miterlimit:4;stroke-dasharray:none"
       d="m 616.36069,727.38974 c 0,0 -6.4903,-3.0159 -12.707,-3.0159 -6.2146,0 -13.801,-0.0895 -13.801,-0.0895 l -2.9228,4.8427 c 0,0 22.301,-1.9199 26.869,1.8285 l 2.561,-3.5657 z"
       stroke-miterlimit="4"
       id="path254"
       inkscape:connector-curvature="0" />
    <path
       style="text-align:start;fill:#ffffff;fill-rule:nonzero"
       d="m 649.06069,712.88974 c 0,0 -6.5835,-7.9571 -11.521,-4.1174 -4.9376,3.8416 -6.8592,9.877 -12.345,17.832 -5.4857,7.9571 -14.811,17.832 -13.989,23.044 0.8238,5.2098 10.701,15.633 17.282,15.909 6.5817,0.27222 14.261,-0.54803 18.651,-5.2134 4.3914,-4.6618 13.991,-12.619 10.427,-27.98 -3.5676,-15.361 -8.5052,-19.475 -8.5052,-19.475"
       id="path256"
       inkscape:connector-curvature="0" />
    <path
       style="text-align:start;fill:none;stroke:#000000;stroke-width:1.34319937;stroke-linecap:round;stroke-linejoin:round;stroke-miterlimit:4;stroke-dasharray:none"
       d="m 649.06069,712.88974 c 0,0 -6.5835,-7.9571 -11.521,-4.1174 -4.9376,3.8416 -6.8592,9.877 -12.345,17.832 -5.4857,7.9571 -14.811,17.832 -13.989,23.044 0.8238,5.2098 10.701,15.633 17.282,15.909 6.5817,0.27222 14.261,-0.54803 18.651,-5.2134 4.3914,-4.6618 13.991,-12.619 10.427,-27.98 -3.5676,-15.361 -8.5052,-19.475 -8.5052,-19.475 z m 38.679,1.9217 c 0,0 -1.0961,-2.7455 -2.1921,2.4661 -1.0979,5.2134 0,21.396 -0.2776,24.964 -0.2722,3.5658 4.6672,18.654 9.0549,23.316 m 5.9316,-33.664 c 0,0 -2.0918,7.3303 -3.7359,11.994 -1.6476,4.6636 -5.7614,13.717 -1.3736,21.67 m 17.376,-22.686 c 0,0 -3.3849,14.179 -14.634,20.49 m 41.75,-19.845 -0.052,8.326 m 22.768,-18.928 3.2917,8.2311 m 22.494,-28.256 c 1.114,0.66086 2.0937,1.6315 3.2918,2.1939 m 0.822,-27.156 c 1.9289,-0.58922 3.8559,-0.53907 5.7614,-1.0978 m -212.1,65.31 c -2.7562,3.8093 -7.0186,3.1574 -10.362,5.7543 -3.4458,2.6792 -3.2452,7.4539 -4.7263,10.978 m -12.486,-97.615 c 0,0 19.788,-1.096 27.226,-0.6304 10.13,0.6322 28.49,5.0648 34.504,7.9123 6.0176,2.8512 15.513,8.8651 17.73,15.83 1.9092,6.0086 2.2136,10.764 0.9474,13.613 m -76.926,-35.457 c 0,0 28.492,-3.4834 53.818,7.2801 17.601,7.4825 23.424,17.413 18.359,28.177 -5.0612,10.762 -21.206,32.921 -25.007,37.986 -3.7986,5.0666 -10.762,17.411 -11.711,22.161 m 14.876,-24.058 c 0,0 -11.394,17.411 -12.028,24.058 m -6.9649,0.317 c 0,0 10.445,-18.995 19.942,-31.974 9.4973,-12.979 19.312,-26.909 18.995,-36.089 -0.317,-9.1803 -11.079,-17.727 -21.525,-20.578 -10.446,-2.8476 -25.958,-7.2801 -44.635,-6.0158 m 53.184,12.348 c 0,0 9.4955,5.3817 8.5463,16.147 -0.9509,10.76 -12.347,26.903 -15.196,30.704 m -8.5481,12.03 c 0,0 -17.093,20.578 -25.007,24.061 m 27.224,-22.793 c 0,0 -14.562,18.044 -21.21,22.793"
       stroke-miterlimit="4"
       id="path258"
       inkscape:connector-curvature="0" />
    <path
       style="text-align:start;fill:#e7a8af;fill-rule:nonzero"
       d="m 577.66069,674.39974 c 0,0 -6.6462,-1.2662 -9.4955,3.4816 -2.8512,4.7496 -5.0666,9.1803 -6.3328,14.562 -1.2662,5.3818 -4.7477,10.447 -5.3799,11.713 -0.634,1.2662 -2.2011,7.5362 -2.2154,10.765 -0.018,3.4565 -1.2662,12.347 -0.317,11.713 0.9474,-0.63398 9.4955,-8.2311 12.345,-11.396 2.8494,-3.1682 4.7495,-7.9159 5.3817,-12.348 0.6322,-4.4308 4.1138,-11.079 5.38,-13.928 1.2662,-2.8494 6.965,-12.03 0.634,-14.562"
       id="path260"
       inkscape:connector-curvature="0" />
    <path
       style="text-align:start;fill:#ff6600;stroke:#000000;stroke-width:1.34319937;stroke-linecap:butt;stroke-linejoin:miter;stroke-miterlimit:4;stroke-dasharray:none"
       d="m 577.66069,674.39974 c 0,0 -6.6462,-1.2662 -9.4955,3.4816 -2.8512,4.7496 -5.0666,9.1803 -6.3328,14.562 -1.2662,5.3818 -4.7477,10.447 -5.3799,11.713 -0.634,1.2662 -2.2011,7.5362 -2.2154,10.765 -0.018,3.4565 -1.2662,12.347 -0.317,11.713 0.9474,-0.63398 9.4955,-8.2311 12.345,-11.396 2.8494,-3.1682 4.7495,-7.9159 5.3817,-12.348 0.6322,-4.4308 4.1138,-11.079 5.38,-13.928 1.2662,-2.8494 6.965,-12.03 0.634,-14.562 z"
       stroke-miterlimit="4"
       id="path262"
       inkscape:connector-curvature="0" />
    <path
       style="text-align:start;fill:#e7a8af;fill-rule:nonzero"
       d="m 591.86069,676.61974 c 0,0 -6.3292,-3.1646 -10.13,2.8494 -3.7986,6.0157 -0.9492,9.4973 -4.4308,15.511 -3.4816,6.0175 -8.8651,13.613 -8.5481,18.361 0.317,4.7496 0.317,14.879 0.317,14.879 0,0 6.6461,-6.6462 8.5463,-8.5463 1.9002,-1.9002 4.7495,-7.9141 6.6497,-15.194 1.8966,-7.2819 5.697,-12.031 6.6462,-13.93 0.9492,-1.9002 8.2293,-10.131 0.9492,-13.93"
       id="path264"
       inkscape:connector-curvature="0" />
    <path
       style="text-align:start;fill:#ff6600;stroke:#000000;stroke-width:1.34319937;stroke-linecap:butt;stroke-linejoin:miter;stroke-miterlimit:4;stroke-dasharray:none"
       d="m 591.86069,676.61974 c 0,0 -6.3292,-3.1646 -10.13,2.8494 -3.7986,6.0157 -0.9492,9.4973 -4.4308,15.511 -3.4816,6.0175 -8.8651,13.613 -8.5481,18.361 0.317,4.7496 0.317,14.879 0.317,14.879 0,0 6.6461,-6.6462 8.5463,-8.5463 1.9002,-1.9002 4.7495,-7.9141 6.6497,-15.194 1.8966,-7.2819 5.697,-12.031 6.6462,-13.93 0.9492,-1.9002 8.2293,-10.131 0.9492,-13.93 z"
       stroke-miterlimit="4"
       id="path266"
       inkscape:connector-curvature="0" />
    <path
       style="text-align:start;fill:#e7a8af;fill-rule:nonzero"
       d="m 606.46069,680.72974 c 0,0 -4.7495,-2.5306 -8.5499,0 -3.7968,2.5306 -3.1646,6.9649 -5.6969,11.396 -2.5324,4.4326 -5.38,11.08 -6.965,12.981 -1.5832,1.9002 -4.7477,9.4955 -7.2801,15.513 -2.5324,6.014 -1.5832,12.345 -1.5832,12.345 0,0 11.398,-6.6497 12.345,-8.8651 0.951,-2.2136 2.921,-3.8469 4.943,-11.578 2.0219,-7.7297 6.7697,-15.012 7.7207,-16.912 0.951,-1.9002 8.5481,-11.711 5.0665,-14.879"
       id="path268"
       inkscape:connector-curvature="0" />
    <path
       style="text-align:start;fill:#ff6600;stroke:#000000;stroke-width:1.34319937;stroke-linecap:butt;stroke-linejoin:miter;stroke-miterlimit:4;stroke-dasharray:none"
       d="m 606.46069,680.72974 c 0,0 -4.7495,-2.5306 -8.5499,0 -3.7968,2.5306 -3.1646,6.9649 -5.6969,11.396 -2.5324,4.4326 -5.38,11.08 -6.965,12.981 -1.5832,1.9002 -4.7477,9.4955 -7.2801,15.513 -2.5324,6.014 -1.5832,12.345 -1.5832,12.345 0,0 11.398,-6.6497 12.345,-8.8651 0.951,-2.2136 2.921,-3.8469 4.943,-11.578 2.0219,-7.7297 6.7697,-15.012 7.7207,-16.912 0.951,-1.9002 8.5481,-11.711 5.0665,-14.879 z"
       stroke-miterlimit="4"
       id="path270"
       inkscape:connector-curvature="0" />
    <path
       style="text-align:start;fill:none;stroke:#000000;stroke-width:1.34319937;stroke-linecap:round;stroke-linejoin:round;stroke-miterlimit:4;stroke-dasharray:none"
       d="m 557.06069,695.27974 c 0,0 -19.94198,25.845 -19.92398,32.685 0.025,8.5481 -2.1831,14.181 -7.8819,19.881 -5.6987,5.6987 -5.0647,9.4955 -5.0647,13.294 0,3.8022 -1.2645,6.9649 -1.2645,6.9649 m 30.90598,-41.813 c 0,0 -5.2976,5.5053 -6.2468,11.519 -0.9492,6.0158 -0.6017,7.8174 -4.7191,11.931 -4.11378,4.1174 -7.91228,18.996 -7.91228,18.996 m 34.18898,-40.52 c 0,0 -7.8049,7.6097 -9.0657,12.784 -1.5187,6.2181 1.1515,9.3737 -2.33,12.223 -3.4816,2.853 -7.2802,14.879 -7.2802,14.879 m 25.956,-35.136 c 0,0 -7.9141,6.014 -8.5481,11.394 -0.6304,5.38 -1.8984,9.8125 -4.429,12.981 -2.5324,3.1664 -5.6987,9.8107 -5.6987,11.396 m 0.317,-43.052 c 0,0 -2.8494,0.6322 -5.0648,8.8633 -2.2172,8.2293 -1.902,10.447 -5.6988,15.828 -3.7985,5.3818 -7.91578,15.196 -7.59888,18.045 m 32.28998,-41.154 c 0,0 -1.8983,2.8476 -5.3817,8.2293 -3.4834,5.3818 -4.1174,5.3835 -4.4308,10.131 -0.317,4.7478 0.9474,6.0175 -1.9002,8.5463 -2.8493,2.5306 -6.6497,12.348 -6.9631,13.298 m 30.072,-37.04 c 0,0 -10.13,8.2311 -11.396,12.664 -1.2661,4.4326 -0.317,6.9649 -2.8493,9.8125 -2.5324,2.8494 -6.3328,9.8143 -7.9142,12.031"
       stroke-miterlimit="4"
       id="path272"
       inkscape:connector-curvature="0" />
    <path
       style="text-align:start;fill:#800000;stroke:#000000;stroke-width:1.34319937;stroke-linecap:round;stroke-linejoin:round;stroke-miterlimit:4;stroke-dasharray:none"
       d="m 563.76069,711.57974 c 0,1.61 -1.3074,2.9138 -2.9156,2.9138 -1.6101,0 -2.9139,-1.3038 -2.9139,-2.9138 0,-1.61 1.3038,-2.9138 2.9139,-2.9138 1.6082,0 2.9156,1.3038 2.9156,2.9138 z m 13.878,1.1104 c 0,1.6083 -1.3074,2.9138 -2.9138,2.9138 -1.6119,0 -2.9156,-1.3056 -2.9156,-2.9138 0,-1.6083 1.3037,-2.9138 2.9156,-2.9138 1.6064,0 2.9138,1.3056 2.9138,2.9138 z m 9.8538,6.3847 c 0,1.61 -1.3074,2.912 -2.9139,2.912 -1.6118,0 -2.9157,-1.302 -2.9157,-2.912 0,-1.6101 1.3039,-2.9156 2.9157,-2.9156 1.6065,0 2.9139,1.3056 2.9139,2.9156 z m -31.44,-4.2696 c -0.2776,0.78801 -0.7969,1.5294 -1.1157,2.3192 -0.3923,0.9689 -0.6179,1.9808 -0.7755,2.9998 -0.2042,1.3486 -0.5086,2.9783 -0.2239,4.3502 m 0,1.1659 c 0.2651,-0.25252 0.24,-0.76473 0.3313,-1.1247 0.129,-0.50326 0.3152,-0.99934 0.4496,-1.499 0.2758,-1.0208 0.6519,-1.9969 1.0548,-2.9747 0.3403,-0.82741 0.6949,-1.5098 1.2788,-2.1814 0.4674,-0.54085 1.2017,-1.216 1.4435,-1.8894 m 2.835,0.66622 c -0.2776,2.2709 -2.9335,3.4905 -4.2266,5.1597 -0.591,0.76293 -1.0799,1.5527 -1.61,2.3443 -0.3081,0.46206 -0.9367,1.3683 -1.5564,1.3324 m 20.343,-7.504 c -0.1577,0.66086 -0.7343,1.2948 -1.0567,1.8894 -0.4012,0.73248 -0.72,1.5205 -1.0585,2.2852 -0.3403,0.77548 -0.6984,1.4954 -1.1229,2.2297 -0.5659,0.98501 -1.0691,2.1563 -1.764,3.0464 m 10.504,-5.6146 c -0.1684,0.35641 -0.6412,0.69668 -0.9152,1.0137 -0.4173,0.48176 -0.7128,0.93486 -1.0333,1.4793 -0.4227,0.7325 -0.7952,1.4041 -0.9439,2.2494 -0.2937,1.6602 -0.1522,3.3759 -0.4997,5.0397 m -5.5554,-14.784 c 0,3.315 0.048,6.3005 -1.1122,9.3916 m 12.171,-2.5557 c -1.9163,0.87577 -3.1592,2.2548 -4.0403,4.1281 -0.3045,0.64294 -0.6018,1.2662 -0.8096,1.9467 -0.197,0.63757 -0.1414,1.311 -0.3188,1.9288 m 7.2802,-6.6139 c -0.4782,0.85607 -1.8017,1.4292 -2.6165,1.9468 -0.8167,0.51937 -1.5492,1.234 -2.0542,2.0524 -0.677,1.0925 -1.4095,2.1724 -2.6095,2.7813"
       stroke-miterlimit="4"
       id="path274"
       inkscape:connector-curvature="0" />
    <path
       style="text-align:start;fill:none;stroke:#ffffff;stroke-width:1.34319925;stroke-linecap:round;stroke-linejoin:round;stroke-miterlimit:4;stroke-dasharray:none"
       d="m 760.16069,640.28973 c 0,0 17.562,-14.698 33.592,-9.9271 16.034,4.7728 23.098,15.463 22.714,24.24201 m -84.365,-14.69801 27.867,-5.1525 m -17.18,1.7157 c 2.4464,0.0663 5.5053,-2.3533 7.4467,-3.6714 2.912,-1.9772 5.6468,-4.352 8.7397,-6.0336 6.3471,-3.4529 13.387,-2.9497 19.89,-5.7525 m 4.5812,-1.3378 c 7.2963,-1.4542 12.485,-7.4825 18.601,-11.018 5.4839,-3.17 11.428,-4.5866 17.474,-5.5877 m -46.382,23.859 c 8.9887,0.26684 16.373,-5.7847 24.194,-8.969 4.5346,-1.8482 9.4346,-3.435 14.172,-4.3914 2.8672,-0.57847 4.3913,-0.76473 9.1624,-0.19163 m -27.869,10.688 c 4.5973,-2.4392 12.664,-1.8948 17.419,-0.22565 2.7795,0.97426 9.0155,3.0231 9.877,6.3345 m -16.032,-2.4804 c 2.8118,0.53907 6.5602,2.5342 8.7452,4.3448 1.5724,1.302 4.6456,3.1807 4.6134,5.3889 m -33.401,-7.8246 c 0,0 15.653,5.9172 24.052,18.133 m -32.642,-15.843 c 0,0 12.63,1.4578 23.669,15.651 10.688,13.74201 11.643,15.08001 12.597,16.79701 0.9528,1.7175 5.919,10.307 5.7256,23.286 m -47.718,-53.25301 c 0,0 16.987,4.198 25.766,16.795 m -30.541,-13.74 c 0,0 22.908,6.4886 31.497,23.66501 m 3.435,-4.7692 c 0,0 7.633,11.26 8.969,25.385"
       stroke-miterlimit="4"
       id="path276"
       inkscape:connector-curvature="0" />
    <path
       style="text-align:start;fill:none;stroke:#ffffff;stroke-width:1.34319925;stroke-linecap:round;stroke-linejoin:round;stroke-miterlimit:4;stroke-dasharray:none"
       d="m 808.96069,691.24974 c 0,0 1.6172,18.373 -6.4903,30.541 m -4.1586,-55.746 c 0,0 9.3594,18.722 3.2273,40.352 m 16.144,-4.5203 c 0,0 3.2272,35.186 -21.309,58.107 m -10.33,5.4874 c 0,0 -0.9653,1.9396 -13.88,3.5514 m -67.147,-6.7769 c 1.293,-0.32595 25.505,0 41.967,-9.6854 m -48.744,12.911 c 0,0 21.303,5.8098 52.295,-5.4874 m 6.134,-10.977 c 0,0 12.911,-3.8738 19.691,-10.328 m 23.887,-26.794 c 0,0 -7.7475,14.524 -15.818,20.658 m 11.621,-1.6118 c 0,0 -10.652,13.556 -20.983,19.043 m -8.3959,3.5532 -10.004,4.1962 m 44.87,-25.501 c 0,0 -7.4234,11.946 -14.204,17.433 m -7.7476,5.8098 c 0,0 -8.0699,7.7476 -24.21,11.297 m 43.901,-18.4 c 0,0 -4.1961,7.101 -13.88,12.268"
       stroke-miterlimit="4"
       id="path278"
       inkscape:connector-curvature="0" />
    <path
       style="text-align:start;fill:none;stroke:#ffffff;stroke-width:1.34319937;stroke-linecap:round;stroke-linejoin:round;stroke-miterlimit:4;stroke-dasharray:none"
       d="m 814.16069,688.95974 c 0,0 0.9689,9.0388 0.3223,13.237"
       stroke-miterlimit="4"
       id="path280"
       inkscape:connector-curvature="0" />
    <path
       style="text-align:start;fill:none;stroke:#ffffff;stroke-width:1.34319937;stroke-linecap:round;stroke-linejoin:round;stroke-miterlimit:4;stroke-dasharray:none"
       d="m 813.56069,709.93974 c 0,0 -3.5496,20.336 -7.4252,25.825"
       stroke-miterlimit="4"
       id="path282"
       inkscape:connector-curvature="0" />
    <path
       style="text-align:start;fill:none;stroke:#ffffff;stroke-width:1.34319937;stroke-linecap:round;stroke-linejoin:round;stroke-miterlimit:4;stroke-dasharray:none"
       d="m 535.96071,652.17973 c 0,0 -13.522,6.67841 -19.319,4.23741"
       stroke-miterlimit="4"
       id="path284"
       inkscape:connector-curvature="0" />
    <path
       style="text-align:start;fill:none;stroke:#ffffff;stroke-width:1.34319925;stroke-linecap:round;stroke-linejoin:round;stroke-miterlimit:4;stroke-dasharray:none"
       d="m 513.69071,658.77974 c 2.955,2.5485 8.9063,1.105 12.508,0.84711 4.7083,-0.3349 9.4149,0.45132 13.729,2.5091 m -0.1362,-7.3786 c 4.67438,1.2178 11.61098,3.2702 14.95098,7.0151 m -8.9761,-11.26701 c 4.9161,-0.25431 10.733,2.124 14.951,4.27141 m 3.5246,-9.32181 c 7.1726,1.1229 17.825,2.9676 22.575,8.84541 m 138.92,-10.64201 c 7.8944,1.1623 15.248,2.0309 23.187,1.5259 m -42.612,-2.7813 c 5.0576,-0.42266 8.695,2.8422 12.812,4.9484 4.2212,2.1599 9.551,3.5944 14.34,3.5926 m -43.21,-9.0944 c 6.8414,-0.79876 12.635,7.2963 19.218,8.541 m 7.5506,1.9808 c 2.6989,0.37968 5.5716,1.68881 8.3045,2.06671 2.4787,0.34565 5.8654,0.12716 8.1703,0.98322 m -68.111,-16.26201 c 6.8199,0.47818 12.993,2.9908 19.22,5.4928 4.2911,1.7247 9.4239,5.3979 13.432,7.9482 8.4675,5.38531 14.025,7.30521 25.311,9.74631 m -48.943,-17.52401 c 6.8574,2.527 12.594,7.3679 19.206,10.60201 5.1955,2.5431 13.201,7.1154 18.93,7.7028 m -66.182,-25.10901 c 6.6264,2.7652 11.163,4.5132 17.076,8.6269 4.8606,3.3777 10.001,7.17631 15.264,9.67641 m 6.9542,2.7616 c 6.1017,4.5776 18.309,9.6101 24.711,9.4579 m -67.642,-25.83101 c 0,0 12.506,6.7124 24.407,16.16901 11.897,9.4579 28.676,14.951 31.424,15.255 m -96.069,-36.25201 54.306,23.49301 m -71.505,-20.69101 c 0,0 16.779,1.2214 33.56,14.95101 m 8.0627,1.7892 c 0,0 22.573,18.303 35.998,21.049 m -17.752,-17.254 c 0,0 21.054,15.558 36.308,17.39 m -105.77,-35.84601 c 0,0 9.4597,0.61071 20.442,7.9338 m 4.0726,-0.50504 c 0,0 10.679,6.40801 17.392,11.89901 6.7106,5.491 12.809,9.1517 14.336,9.7624 m -42.477,-16.489 c 9.0084,6.1017 7.6473,4.2105 10.74,7.9911 m -25.44,-9.8197 c 0,0 9.2054,6.2307 11.648,8.369 m -19.218,-6.1787 c 0,0 4.968,3.4243 7.1046,6.1716 m -28.632,-8.84 c 0,0 8.5409,2.441 12.203,5.7972"
       stroke-miterlimit="4"
       id="path286"
       inkscape:connector-curvature="0" />
    <path
       style="text-align:start;fill:none;stroke:#ffffff;stroke-width:1.34319925;stroke-linecap:round;stroke-linejoin:round;stroke-miterlimit:4;stroke-dasharray:none"
       d="m 402.51071,759.97974 c 0,0 33.947,7.5756 81.887,10.481 m -81.24,16.151 c 0,0 46.706,-14.524 65.106,-14.041 m -65.589,8.2311 c 0,0 39.442,-8.7147 58.325,-8.7147 m -58.325,-7.7476 c 0,0 27.335,6.7769 56.875,7.2604 m -56.875,-1.936 c 0,0 25.399,3.3902 44.283,3.3902 m -44.283,2.4213 c 0,0 13.294,-0.48355 17.168,-0.9671"
       stroke-miterlimit="4"
       id="path288"
       inkscape:connector-curvature="0" />
    <path
       style="text-align:start;fill:none;stroke:#000000;stroke-width:1.34319937;stroke-linecap:round;stroke-linejoin:round;stroke-miterlimit:4;stroke-dasharray:none"
       d="m 625.66069,681.04974 c 0,0 17.431,8.2347 23.243,21.79 5.8116,13.559 16.464,37.771 16.464,46.487 0,8.7165 1.6244,13.71 -0.3116,17.582 m -22.448,-79.079 c 0,0 10.169,10.652 13.559,20.821 3.3885,10.171 10.651,36.317 14.043,42.13 3.3867,5.808 9.9684,14.793 9.9684,14.793 m -61.782,-88.882 c 0,0 24.695,5.328 34.38,30.023 9.6853,24.695 14.041,38.738 14.041,38.738 0,0 5.328,15.012 9.6871,19.854 m -7.7493,0.9671 c 0,0 0.4853,-13.074 -1.9378,-20.821 m 5.328,20.821 -3.872,-13.559 m 11.904,12.859 c 0,0 -1.5188,-3.3866 -7.1638,-12.984 -5.6432,-9.5976 -7.8138,-19.396 -8.283,-21.939 -0.4657,-2.5395 -1.791,-9.4024 -3.3581,-14.999 -1.3629,-4.8696 -7.3875,-14.551 -7.3875,-14.551 0,0 6.1142,2.2763 11.193,2.4625 m -25.417,-18.103 c 0,0 12.071,9.4901 21.387,8.9242 m -15.368,-3.1825 c 0,0 9.243,6.3399 16.487,5.8689 m -13.194,-1.8232 c 0,0 7.3518,4.6528 14.313,5.405"
       stroke-miterlimit="4"
       id="path290"
       inkscape:connector-curvature="0" />
    <path
       style="text-align:start;fill:#fffbf2;fill-rule:nonzero"
       d="m 820.26069,821.07974 c 0,0 0.011,1.3647 -12.114,-0.65906 -12.128,-2.0202 -19.201,-0.33669 -27.622,-5.7256 -8.4192,-5.3889 -16.505,-5.7256 -20.884,-8.7577 -4.3788,-3.0303 -1.345,-1.0101 -8.0825,-6.0623 -6.7392,-5.0522 -12.802,-5.0522 -12.802,-5.0522 0,0 -0.1397,-4.8713 -4.4613,-5.5913 -7.0992,-1.1802 -7.6669,3.5675 -5.645,6.2647 2.0238,2.6954 5.3907,4.0439 8.7595,3.0338 0,0 1.6817,2.6936 7.7458,6.3972 6.0641,3.7054 4.7173,1.0101 10.106,5.3889 5.3889,4.3788 11.453,9.7678 20.547,11.453 9.0943,1.6871 8.7576,1.0137 13.81,2.3587 5.0523,1.3486 13.471,3.367 18.862,3.7054 5.3907,0.33491 11.779,-0.35102 11.779,-0.35102 l 0,-6.4026"
       id="path292"
       inkscape:connector-curvature="0" />
    <path
       style="text-align:start;fill:url(#linearGradient10552)"
       d="m 820.26069,821.07974 c 0,0 0.011,1.3647 -12.114,-0.65906 -12.128,-2.0202 -19.201,-0.33669 -27.622,-5.7256 -8.4192,-5.3889 -16.505,-5.7256 -20.884,-8.7577 -4.3788,-3.0303 -1.345,-1.0101 -8.0825,-6.0623 -6.7392,-5.0522 -12.802,-5.0522 -12.802,-5.0522 0,0 -0.1397,-4.8713 -4.4613,-5.5913 -7.0992,-1.1802 -7.6669,3.5675 -5.645,6.2647 2.0238,2.6954 5.3907,4.0439 8.7595,3.0338 0,0 1.6817,2.6936 7.7458,6.3972 6.0641,3.7054 4.7173,1.0101 10.106,5.3889 5.3889,4.3788 11.453,9.7678 20.547,11.453 9.0943,1.6871 8.7576,1.0137 13.81,2.3587 5.0523,1.3486 13.471,3.367 18.862,3.7054 5.3907,0.33491 11.779,-0.35102 11.779,-0.35102 l 0,-6.4026"
       id="path294"
       inkscape:connector-curvature="0" />
    <path
       style="text-align:start;fill:none;stroke:#f6ca00;stroke-width:1.34319925;stroke-linecap:round;stroke-linejoin:round;stroke-miterlimit:4;stroke-dasharray:none"
       d="m 820.26069,821.07974 c 0,0 0.011,1.3647 -12.114,-0.65906 -12.128,-2.0202 -19.201,-0.33669 -27.622,-5.7256 -8.4192,-5.3889 -16.505,-5.7256 -20.884,-8.7577 -4.3788,-3.0303 -1.345,-1.0101 -8.0825,-6.0623 -6.7392,-5.0522 -12.802,-5.0522 -12.802,-5.0522 0,0 -0.1397,-4.8713 -4.4613,-5.5913 -7.0992,-1.1802 -7.6669,3.5675 -5.645,6.2647 2.0238,2.6954 5.3907,4.0439 8.7595,3.0338 0,0 1.6817,2.6936 7.7458,6.3972 6.0641,3.7054 4.7173,1.0101 10.106,5.3889 5.3889,4.3788 11.453,9.7678 20.547,11.453 9.0943,1.6871 8.7576,1.0137 13.81,2.3587 5.0523,1.3486 13.471,3.367 18.862,3.7054 5.3907,0.33491 11.779,-0.35102 11.779,-0.35102 l 0,-6.4026 z"
       stroke-miterlimit="4"
       id="path296"
       inkscape:connector-curvature="0" />
    <path
       style="text-align:start;fill:#fffbf2;fill-rule:nonzero"
       d="m 716.26069,793.12974 c 0,0 3.9813,-3.3078 7.0724,-0.67339 2.5395,2.1652 3.3687,7.0742 3.3687,7.0742 0,0 5.0523,-0.002 8.421,2.3587 3.3688,2.3569 6.0659,4.7119 11.116,7.7458 5.0523,3.032 5.0505,2.3587 12.126,6.4026 7.0742,4.0421 8.0825,7.0724 14.485,8.0825 6.3972,1.0101 8.0825,-0.33848 13.471,1.6835 5.3889,2.022 3.0302,4.0439 9.431,3.3687 6.4008,-0.67339 16.505,0.67518 18.527,0.67518 2.0202,0 6.0516,0.32237 6.0516,0.32237 l 0,7.4073 c 0,0 -2.3443,-0.31879 -10.092,-0.65727 -7.7494,-0.33491 -14.148,-1.3486 -17.854,-3.3688 -3.7055,-2.0202 -3.7072,-2.6971 -9.7678,-2.6971 -6.0623,0 -6.4008,1.6853 -13.81,-0.33312 -7.4127,-2.022 -13.81,-3.7054 -16.507,-6.7375 -2.6953,-3.032 -6.0623,-4.7173 -8.4191,-5.3907 -2.3605,-0.67339 -5.0558,-1.6799 -7.4127,-3.0303 -2.3551,-1.3486 -6.0641,-5.0522 -8.0861,-7.4109 -2.0166,-2.3569 -3.3669,-5.0522 -3.3669,-5.0522 0,0 -6.0605,-0.33848 -7.7476,-1.3486 -1.6835,-1.0101 -4.4505,-4.6654 -1.0083,-8.421"
       id="path298"
       inkscape:connector-curvature="0" />
    <path
       style="text-align:start;fill:url(#linearGradient10554)"
       d="m 716.26069,793.12974 c 0,0 3.9813,-3.3078 7.0724,-0.67339 2.5395,2.1652 3.3687,7.0742 3.3687,7.0742 0,0 5.0523,-0.002 8.421,2.3587 3.3688,2.3569 6.0659,4.7119 11.116,7.7458 5.0523,3.032 5.0505,2.3587 12.126,6.4026 7.0742,4.0421 8.0825,7.0724 14.485,8.0825 6.3972,1.0101 8.0825,-0.33848 13.471,1.6835 5.3889,2.022 3.0302,4.0439 9.431,3.3687 6.4008,-0.67339 16.505,0.67518 18.527,0.67518 2.0202,0 6.0516,0.32237 6.0516,0.32237 l 0,7.4073 c 0,0 -2.3443,-0.31879 -10.092,-0.65727 -7.7494,-0.33491 -14.148,-1.3486 -17.854,-3.3688 -3.7055,-2.0202 -3.7072,-2.6971 -9.7678,-2.6971 -6.0623,0 -6.4008,1.6853 -13.81,-0.33312 -7.4127,-2.022 -13.81,-3.7054 -16.507,-6.7375 -2.6953,-3.032 -6.0623,-4.7173 -8.4191,-5.3907 -2.3605,-0.67339 -5.0558,-1.6799 -7.4127,-3.0303 -2.3551,-1.3486 -6.0641,-5.0522 -8.0861,-7.4109 -2.0166,-2.3569 -3.3669,-5.0522 -3.3669,-5.0522 0,0 -6.0605,-0.33848 -7.7476,-1.3486 -1.6835,-1.0101 -4.4505,-4.6654 -1.0083,-8.421"
       id="path300"
       inkscape:connector-curvature="0" />
    <path
       style="text-align:start;fill:none;stroke:#f6ca00;stroke-width:1.34319925;stroke-linecap:round;stroke-linejoin:round;stroke-miterlimit:4;stroke-dasharray:none"
       d="m 716.26069,793.12974 c 0,0 3.9813,-3.3078 7.0724,-0.67339 2.5395,2.1652 3.3687,7.0742 3.3687,7.0742 0,0 5.0523,-0.002 8.421,2.3587 3.3688,2.3569 6.0659,4.7119 11.116,7.7458 5.0523,3.032 5.0505,2.3587 12.126,6.4026 7.0742,4.0421 8.0825,7.0724 14.485,8.0825 6.3972,1.0101 8.0825,-0.33848 13.471,1.6835 5.3889,2.022 3.0302,4.0439 9.431,3.3687 6.4008,-0.67339 16.505,0.67518 18.527,0.67518 2.0202,0 6.0516,0.32237 6.0516,0.32237 l 0,7.4073 c 0,0 -2.3443,-0.31879 -10.092,-0.65727 -7.7494,-0.33491 -14.148,-1.3486 -17.854,-3.3688 -3.7055,-2.0202 -3.7072,-2.6971 -9.7678,-2.6971 -6.0623,0 -6.4008,1.6853 -13.81,-0.33312 -7.4127,-2.022 -13.81,-3.7054 -16.507,-6.7375 -2.6953,-3.032 -6.0623,-4.7173 -8.4191,-5.3907 -2.3605,-0.67339 -5.0558,-1.6799 -7.4127,-3.0303 -2.3551,-1.3486 -6.0641,-5.0522 -8.0861,-7.4109 -2.0166,-2.3569 -3.3669,-5.0522 -3.3669,-5.0522 0,0 -6.0605,-0.33848 -7.7476,-1.3486 -1.6835,-1.0101 -4.4505,-4.6654 -1.0083,-8.421 z m 0.7486,2.1993 c -0.5462,0.70563 -0.4728,1.7462 0.1523,2.3873 0.6483,0.67518 1.2017,0.43161 2.1168,0.3349 1.6137,-0.16298 1.4399,0.34028 2.4321,1.4435 0.8758,0.97427 2.1688,1.8554 3.2004,0.50325 m 5.3871,-8.6198 c 1.32,-0.87935 4.78,0.23819 5.2439,1.7856 0.1701,0.57488 -0.3994,1.1193 -0.1397,1.773 0.274,0.67876 1.1874,1.0584 1.8393,1.2304 m -17.361,-2.3945 c -1.3611,1.0871 0.7128,1.5653 1.4041,1.7014 1.4614,0.2955 2.8386,1.4077 1.7121,2.9694 m 7.1799,-5.3889 c -0.6412,1.9432 0.8596,2.1222 2.2673,2.2745 0.6429,0.0698 0.7468,-0.0734 1.2053,0.38326 0.4728,0.47281 0.1576,1.4292 1.0763,1.2948 m 5.0308,0 c 1.8751,1.2035 4.6618,1.61 6.7571,2.5395 2.1438,0.94919 3.9293,2.219 5.6683,3.7824 3.0804,2.767 6.3668,5.6235 10.287,7.2013 4.762,1.9163 9.7247,3.2398 14.415,5.3656 3.6177,1.6423 7.0294,3.6052 10.971,4.3269 1.1498,0.21133 2.416,0.2579 3.4977,0.72533 0,0 2.8727,0.95457 5.7471,0.83637 2.8727,-0.12 8.258,0.71637 13.167,1.3145 4.9071,0.59996 9.7122,0.12895 10.065,0.005 m -93.3,-20.81 c -0.025,1.336 1.7695,2.7688 2.6076,3.7448 0.9062,1.0513 1.7802,2.1581 2.7509,3.1771 2.4088,2.5198 5.3979,4.2051 8.5266,5.6217 3.4941,1.5868 7.1781,2.8959 10.67,4.4558 1.9629,0.87576 3.8039,2.1366 5.0164,3.9508 0,0 0.9564,1.9145 3.8308,2.8727 2.8727,0.95636 7.3016,2.3927 10.654,2.3927 3.3526,0 10.896,0.002 13.049,0.59996 m 9.2179,3.1108 c 0,0 6.3453,1.6781 12.211,2.1563 5.8653,0.47997 14.734,0.96173 14.734,0.96173 m -24.192,-4.0744 c 0,0 6.4652,-0.35819 10.656,0.23998 4.1908,0.59818 13.536,1.2017 13.536,1.2017 m -91.114,-30.65 c 0,0 4.5508,1.0746 7.4252,3.829 2.8709,2.7544 6.5871,5.1507 11.371,7.5434 4.789,2.3927 9.0998,3.8308 11.614,5.9835 2.5145,2.1545 7.5399,5.7453 11.611,6.4635 4.0725,0.71996 13.049,-0.11999 16.281,2.1545 m -56.984,-23.343 c 0,0 2.5145,2.5163 6.5835,5.3889 4.0726,2.8726 8.9815,4.9089 13.769,6.7052 4.7889,1.7927 6.947,4.069 8.1416,5.3853 1.1963,1.3163 6.3417,3.8308 7.7798,4.1908 m -25.858,-26.936 c 0,0 3.4726,3.2308 6.2253,4.429 2.7544,1.1963 7.5416,3.4726 10.296,5.9853 2.7545,2.5163 9.4562,5.8671 14.485,7.6634 5.0272,1.7927 11.731,3.709 12.211,3.8272 0,0 3.4726,0.59817 5.9871,1.3181 2.5144,0.71817 16.401,2.8727 21.788,3.2308 5.3853,0.36177 8.3869,-0.23461 8.3869,-0.23461"
       stroke-miterlimit="4"
       id="path302"
       inkscape:connector-curvature="0" />
    <path
       style="text-align:start;fill:none;stroke:#000000;stroke-width:1.34319937;stroke-linecap:round;stroke-linejoin:round;stroke-miterlimit:4;stroke-dasharray:none"
       d="m 674.06069,717.96974 c 5.3925,0.71995 7.6258,10.19 7.384,16.949 -0.091,2.6219 0.1147,7.2998 -3.1467,7.9911 -3.5156,0.73966 -5.7846,-1.8268 -7.5093,-4.3932 -2.1438,-3.1879 -3.0213,-7.8228 -3.0213,-11.614 0,-3.5568 0.1593,-6.7662 3.752,-8.5696 0,0 0.7253,-0.60533 2.5413,-0.36356 z"
       stroke-miterlimit="4"
       id="path304"
       inkscape:connector-curvature="0" />
    <path
       style="text-align:start;fill:#c83737;stroke:#000000;stroke-width:1.34319937;stroke-linecap:round;stroke-linejoin:round;stroke-miterlimit:4;stroke-dasharray:none"
       d="m 588.96069,726.56974 c 0,0 3.511,-0.17107 7.9967,-0.13521 6.3941,0.0511 14.768,0.5228 17.777,2.51"
       stroke-miterlimit="4"
       id="path306"
       inkscape:connector-curvature="0" />
    <path
       style="text-align:start;fill:#ebc3c6;fill-rule:nonzero"
       d="m 635.76069,733.42974 -11.609,-5.3943 2.1026,-2.8332 c 0,0 6.673,1.8286 12.433,4.5705 3.7358,1.7784 7.3123,4.5723 19.467,7.9517 0,0 0.4567,5.9387 -1.2805,8.9565 0,0 -8.0449,-3.1091 -11.793,-5.0272 -3.7467,-1.9163 -12.062,-5.3925 -17.913,-6.3059 0,0 -5.4355,-1.0298 -7.2103,-1.5133 l 2.4607,-3.512 13.342,3.1073"
       id="path308"
       inkscape:connector-curvature="0" />
    <path
       style="text-align:start;fill:#c83737;stroke:#000000;stroke-width:1.34319937;stroke-linecap:round;stroke-linejoin:round;stroke-miterlimit:4;stroke-dasharray:none"
       d="m 635.76069,733.42974 -11.609,-5.3943 2.1026,-2.8332 c 0,0 6.673,1.8286 12.433,4.5705 3.7358,1.7784 7.3123,4.5723 19.467,7.9517 0,0 0.4567,5.9387 -1.2805,8.9565 0,0 -8.0449,-3.1091 -11.793,-5.0272 -3.7467,-1.9163 -12.062,-5.3925 -17.913,-6.3059 0,0 -5.4355,-1.0298 -7.2103,-1.5133 l 2.4607,-3.512 13.342,3.1073 z m -13.867,-1.3718 c 0,0 11.299,2.099 16.788,4.5203 5.4856,2.4196 18.722,7.4234 18.722,7.4234 m -31.474,-17.107 c 0,0 10.491,4.035 13.072,5.971 2.5843,1.9378 17.272,7.9106 18.722,8.07"
       stroke-miterlimit="4"
       id="path310"
       inkscape:connector-curvature="0" />
    <path
       style="text-align:start;fill:#d40000;fill-rule:nonzero"
       d="m 491.42071,696.70974 c 0,2.9156 -1.8249,5.2761 -4.0708,5.2761 -2.2494,0 -4.0707,-2.3604 -4.0707,-5.2761 0,-2.912 1.8213,-5.2761 4.0707,-5.2761 2.2459,0 4.0708,2.364 4.0708,5.2761"
       id="path312"
       inkscape:connector-curvature="0" />
    <path
       style="text-align:start;fill:#d40000;fill-rule:nonzero"
       d="m 509.51071,709.97974 c 0,3.084 -1.6871,5.5805 -3.7682,5.5805 -2.0828,0 -3.7699,-2.4966 -3.7699,-5.5805 0,-3.0786 1.6871,-5.577 3.7699,-5.577 2.0811,0 3.7682,2.4984 3.7682,5.577"
       id="path314"
       inkscape:connector-curvature="0" />
    <path
       style="text-align:start;fill:#aa0000;fill-rule:nonzero"
       d="m 522.86071,716.43974 c -0.8848,3.2094 -2.9031,5.457 -4.5096,5.0128 -1.6029,-0.44415 -2.1885,-3.4046 -1.3038,-6.6157 0.883,-3.2094 2.9013,-5.4552 4.506,-5.011 1.6082,0.44056 2.1903,3.4028 1.3074,6.6139"
       id="path316"
       inkscape:connector-curvature="0" />
    <path
       style="text-align:start;fill:#d40000;fill-rule:nonzero"
       d="m 534.66071,685.68974 c 0,2.0005 -1.5528,3.6195 -3.4691,3.6195 -1.9127,0 -3.4654,-1.619 -3.4654,-3.6195 0,-1.9951 1.5527,-3.6177 3.4654,-3.6177 1.9163,0 3.4691,1.6226 3.4691,3.6177"
       id="path318"
       inkscape:connector-curvature="0" />
    <path
       style="text-align:start;fill:#d40000;fill-rule:nonzero"
       d="m 556.86069,688.14974 c 0,2.0005 -1.5527,3.6195 -3.469,3.6195 -1.9127,0 -3.4655,-1.619 -3.4655,-3.6195 0,-1.9951 1.5528,-3.6177 3.4655,-3.6177 1.9163,0 3.469,1.6226 3.469,3.6177"
       id="path320"
       inkscape:connector-curvature="0" />
    <path
       style="text-align:start;fill:#d40000;fill-rule:nonzero"
       d="m 531.16071,732.02974 c -0.9241,2.6774 -2.6936,4.4934 -3.9544,4.0565 -1.259,-0.4352 -1.5276,-2.9568 -0.6035,-5.6325 0.9241,-2.6721 2.6953,-4.4899 3.9544,-4.0547 1.259,0.4352 1.5294,2.9568 0.6035,5.6307"
       id="path322"
       inkscape:connector-curvature="0" />
    <path
       style="text-align:start;fill:#d40000;fill-rule:nonzero"
       d="m 492.02071,742.38974 c 0,2.8315 -2.364,5.1239 -5.2761,5.1239 -2.9138,0 -5.2761,-2.2924 -5.2761,-5.1239 0,-2.8315 2.3623,-5.1256 5.2761,-5.1256 2.9121,0 5.2761,2.2942 5.2761,5.1256"
       id="path324"
       inkscape:connector-curvature="0" />
    <path
       style="text-align:start;fill:#aa0000;fill-rule:nonzero"
       d="m 469.41071,742.08974 c 0,2.5001 -2.2924,4.5203 -5.1239,4.5203 -2.8297,0 -5.1256,-2.0202 -5.1256,-4.5203 0,-2.4983 2.296,-4.5221 5.1256,-4.5221 2.8315,0 5.1239,2.0238 5.1239,4.5221"
       id="path326"
       inkscape:connector-curvature="0" />
    <path
       style="text-align:start;fill:#d40000;fill-rule:nonzero"
       d="m 545.36069,733.79974 c 0,2.5807 -0.942,4.6725 -2.1079,4.6725 -1.1659,0 -2.1115,-2.0918 -2.1115,-4.6725 0,-2.5825 0.9456,-4.6743 2.1115,-4.6743 1.1659,0 2.1079,2.0918 2.1079,4.6743"
       id="path328"
       inkscape:connector-curvature="0" />
    <path
       style="text-align:start;fill:#aa0000;fill-rule:nonzero"
       d="m 558.26069,741.04974 c -0.532,2.1832 -1.7516,3.761 -2.7205,3.521 -0.9706,-0.2364 -1.3271,-2.1975 -0.7916,-4.3806 0.5337,-2.1832 1.7534,-3.761 2.724,-3.5246 0.9689,0.23998 1.3235,2.1993 0.7881,4.3842"
       id="path330"
       inkscape:connector-curvature="0" />
    <path
       style="text-align:start;fill:#aa0000;fill-rule:nonzero"
       d="m 578.86069,750.52974 c 0,1.9969 -1.284,3.6159 -2.8636,3.6159 -1.5814,0 -2.8655,-1.619 -2.8655,-3.6159 0,-2.0005 1.2841,-3.6213 2.8655,-3.6213 1.5796,0 2.8636,1.6208 2.8636,3.6213"
       id="path332"
       inkscape:connector-curvature="0" />
    <path
       style="text-align:start;fill:#d40000;fill-rule:nonzero"
       d="m 614.96069,762.93974 c -0.9295,2.3175 -3.752,3.367 -6.3023,2.3425 -2.5503,-1.0226 -3.8613,-3.7341 -2.93,-6.0516 0.9295,-2.3157 3.7502,-3.367 6.3005,-2.3408 2.5503,1.0226 3.8631,3.7341 2.9318,6.0498"
       id="path334"
       inkscape:connector-curvature="0" />
    <path
       style="text-align:start;fill:#aa0000;fill-rule:nonzero"
       d="m 661.86069,760.02974 c 0,2.4966 -1.7085,4.5239 -3.8164,4.5239 -2.1098,0 -3.8165,-2.0273 -3.8165,-4.5239 0,-2.5019 1.7067,-4.5293 3.8165,-4.5293 2.1079,0 3.8164,2.0273 3.8164,4.5293"
       id="path336"
       inkscape:connector-curvature="0" />
    <path
       style="text-align:start;fill:#d40000;fill-rule:nonzero"
       d="m 696.26069,733.04974 c 0,2.3049 -1.5509,4.1711 -3.4619,4.1711 -1.9109,0 -3.46,-1.8662 -3.46,-4.1711 0,-2.3031 1.5491,-4.1693 3.46,-4.1693 1.911,0 3.4619,1.8662 3.4619,4.1693"
       id="path338"
       inkscape:connector-curvature="0" />
    <path
       style="text-align:start;fill:#d40000;fill-rule:nonzero"
       d="m 703.86069,751.75974 c -0.9044,2.2261 -2.8136,3.5532 -4.266,2.9622 -1.4542,-0.58923 -1.9002,-2.8709 -0.9958,-5.097 0.8991,-2.2244 2.81,-3.5514 4.2642,-2.9604 1.4561,0.591 1.902,2.8709 0.9976,5.0952"
       id="path340"
       inkscape:connector-curvature="0" />
    <path
       style="text-align:start;fill:#aa0000;fill-rule:nonzero"
       d="m 729.36069,746.78974 c 0.082,1.1731 -1.3683,3.9204 -5.217,4.1192 -2.4966,0.12715 -3.727,-2.2942 -3.8129,-3.469 -0.082,-1.1713 1.619,-2.7598 4.112,-2.9407 2.4929,-0.17729 4.8337,1.1193 4.9179,2.2906"
       id="path342"
       inkscape:connector-curvature="0" />
    <path
       style="text-align:start;fill:#aa0000;fill-rule:nonzero"
       d="m 753.46069,743.97974 c -0.9904,1.6906 -2.8261,2.4572 -4.0923,1.7121 -1.2679,-0.74325 -1.4918,-2.7204 -0.4942,-4.4093 0.9903,-1.6924 2.8224,-2.4554 4.0922,-1.7121 1.2662,0.74681 1.4901,2.7168 0.4943,4.4093"
       id="path344"
       inkscape:connector-curvature="0" />
    <path
       style="text-align:start;fill:#d40000;fill-rule:nonzero"
       d="m 776.86069,729.40974 c -0.48,1.7462 -1.945,2.8709 -3.2685,2.5037 -1.3235,-0.36356 -2.004,-2.0775 -1.524,-3.8236 0.4817,-1.748 1.9449,-2.8691 3.2702,-2.5073 1.3235,0.36535 2.0058,2.0775 1.5223,3.8272"
       id="path346"
       inkscape:connector-curvature="0" />
    <path
       style="text-align:start;fill:#d40000;fill-rule:nonzero"
       d="m 796.56069,700.38974 c 0,1.9091 -1.0746,3.4583 -2.3981,3.4583 -1.3217,0 -2.3945,-1.5492 -2.3945,-3.4583 0,-1.9145 1.0728,-3.4636 2.3945,-3.4636 1.3235,0 2.3981,1.5492 2.3981,3.4636"
       id="path348"
       inkscape:connector-curvature="0" />
    <path
       style="text-align:start;fill:#d40000;fill-rule:nonzero"
       d="m 794.46069,675.71974 c 0.3295,2.4285 -0.6233,4.5633 -2.1295,4.7693 -1.5025,0.20416 -2.9908,-1.5975 -3.3203,-4.0278 -0.3296,-2.4267 0.6232,-4.5615 2.1294,-4.7657 1.5026,-0.20596 2.9909,1.5957 3.3204,4.0242"
       id="path350"
       inkscape:connector-curvature="0" />
    <path
       style="text-align:start;fill:#aa0000;fill-rule:nonzero"
       d="m 438.46071,741.60974 c 0,2.5395 -1.7247,4.6027 -3.8469,4.6027 -2.1294,0 -3.8505,-2.0632 -3.8505,-4.6027 0,-2.5396 1.7211,-4.5991 3.8505,-4.5991 2.1222,0 3.8469,2.0596 3.8469,4.5991"
       id="path352"
       inkscape:connector-curvature="0" />
    <path
       style="text-align:start;fill:#aa0000;fill-rule:nonzero"
       d="m 425.32071,752.39974 c 0,2.4876 -2.3945,4.5078 -5.3495,4.5078 -2.9532,0 -5.3495,-2.0202 -5.3495,-4.5078 0,-2.4876 2.3963,-4.506 5.3495,-4.506 2.955,0 5.3495,2.0184 5.3495,4.506"
       id="path354"
       inkscape:connector-curvature="0" />
    <path
       style="text-align:start;fill:#aa0000;fill-rule:nonzero"
       d="m 439.74071,759.79974 c -1.0978,1.6351 -3.0697,2.2351 -4.4039,1.3414 -1.336,-0.89547 -1.5277,-2.9479 -0.43161,-4.5848 1.0996,-1.6369 3.0714,-2.2369 4.4057,-1.3414 1.3342,0.89546 1.5259,2.9479 0.42982,4.5848"
       id="path356"
       inkscape:connector-curvature="0" />
    <path
       style="text-align:start;fill:#aa0000;fill-rule:nonzero"
       d="m 450.29071,756.62974 c 0,1.8142 -0.92591,3.2864 -2.0685,3.2864 -1.139,0 -2.0632,-1.4721 -2.0632,-3.2864 0,-1.8142 0.92412,-3.2864 2.0632,-3.2864 1.1426,0 2.0685,1.4721 2.0685,3.2864"
       id="path358"
       inkscape:connector-curvature="0" />
    <path
       style="text-align:start;fill:#aa0000;fill-rule:nonzero"
       d="m 460.62071,760.17974 c -0.47101,2.0739 -2.1258,3.4637 -3.6911,3.1055 -1.5689,-0.3564 -2.4554,-2.3264 -1.9826,-4.3985 0.4728,-2.0739 2.1276,-3.4655 3.6947,-3.1073 1.5653,0.35819 2.4536,2.3264 1.979,4.4003"
       id="path360"
       inkscape:connector-curvature="0" />
    <path
       style="text-align:start;fill:#d40000;fill-rule:nonzero"
       d="m 473.27071,758.98974 c -0.2579,2.5234 -1.8464,4.4308 -3.5514,4.257 -1.6996,-0.1773 -2.8691,-2.3658 -2.6112,-4.891 0.2597,-2.527 1.8501,-4.4344 3.5514,-4.2606 1.7014,0.17551 2.8709,2.3658 2.6112,4.8946"
       id="path362"
       inkscape:connector-curvature="0" />
    <path
       style="text-align:start;fill:#d40000;fill-rule:nonzero"
       d="m 490.47071,761.59974 c 0,2.0721 -1.7247,3.7538 -3.8488,3.7538 -2.1276,0 -3.8469,-1.6817 -3.8469,-3.7538 0,-2.0739 1.7193,-3.7556 3.8469,-3.7556 2.1241,0 3.8488,1.6817 3.8488,3.7556"
       id="path364"
       inkscape:connector-curvature="0" />
    <path
       style="text-align:start;fill:#aa0000;fill-rule:nonzero"
       d="m 418.07071,733.17974 c 0,2.3193 -1.9485,4.1979 -4.3556,4.1979 -2.4088,0 -4.3609,-1.8787 -4.3609,-4.1979 0,-2.3175 1.9521,-4.1926 4.3609,-4.1926 2.407,0 4.3556,1.8751 4.3556,4.1926"
       id="path366"
       inkscape:connector-curvature="0" />
    <path
       style="text-align:start;fill:none;stroke:#ffffff;stroke-width:1.34319937;stroke-linecap:round;stroke-linejoin:round;stroke-miterlimit:4;stroke-dasharray:none"
       d="m 490.04071,770.03974 c 0,0 7.5165,0.62683 17.54,0.83458 10.0235,0.20775 15.244,0.20953 18.794,0.41908 m 12.528,0.41728 c 0,0 13.78298,-0.20954 22.34698,-0.20954 l 18.794,0 m 9.8126,-0.41907 14.827,0 c 8.9797,0 29.445,-1.0405 30.072,-1.2519 m 9.8161,-0.20775 c 0,0 20.254,-0.63041 26.937,-1.0459 6.682,-0.41728 9.8144,-1.2518 9.8144,-1.2518"
       stroke-miterlimit="4"
       id="path368"
       inkscape:connector-curvature="0" />
    <path
       style="text-align:start;fill:none;stroke:#000000;stroke-width:1.34319937;stroke-linecap:round;stroke-linejoin:round;stroke-miterlimit:4;stroke-dasharray:none"
       d="m 673.46069,721.49974 c -6.2844,0.1003 -2.9837,11.186 -2.0882,14.24 m 3.4171,3.4189 c 1.7605,0.83457 2.9336,1.5205 3.8433,-0.56415 0.6841,-1.5635 0.3851,-3.8487 0.3314,-5.5447 -0.097,-3.0929 -0.5767,-8.0771 -2.8476,-10.411 m -3.607,3.6069 c 0,3.555 0.4442,5.7471 1.7104,8.926 m 0.5695,-7.975 c 1.2841,1.8447 1.139,3.7216 1.139,5.8868"
       stroke-miterlimit="4"
       id="path370"
       inkscape:connector-curvature="0" />
    <path
       style="text-align:start;fill:none;stroke:#000000;stroke-width:0.89546621;stroke-linecap:round;stroke-linejoin:round;stroke-miterlimit:4;stroke-dasharray:none"
       d="m 573.06069,669.09974 c 0.1128,-1.2823 0.7647,-2.6685 1.0226,-3.9705 0.1343,-0.68772 0.1862,-1.3128 0.1916,-2.0058 m 7.3643,5.6289 c 0.6591,-0.94919 0.5624,-2.7401 0.7827,-3.8971 0.1092,-0.57488 0.052,-0.86143 0.2561,-1.388 m 4.2463,5.7184 c 0.6089,-1.5241 0.1289,-3.6571 0.5193,-5.2833 m 9.4418,6.2378 c 0.5194,-0.83279 0.4496,-2.4554 0.5409,-3.4458 0.068,-0.76294 0.1504,-1.5205 0.24,-2.2727 m 5.8026,6.6694 c 0,-2.1169 -0.1218,-3.8469 0.2597,-5.8904 m 7.6258,8.0574 c -0.1791,-1.096 0.3922,-2.6434 0.4513,-3.8129 0.041,-0.79517 0.2543,-1.628 0.5874,-2.339 m -23.218,1.9933 c 0.01,-1.0996 0.4746,-2.1545 0.5211,-3.2702 0.027,-0.72174 -0.1522,-1.6118 0.084,-2.2727 m 15.855,8.2293 c 0,-2.0058 -0.3384,-3.9884 0.3027,-6.2683 m -14.336,3.7538 c -0.4101,-1.2895 0.064,-3.9418 0.5176,-5.1955 m 15.338,8.0556 c 0.4621,-1.628 0.3421,-4.0726 0.8632,-5.8904 m -14.815,3.1198 c 0.1093,-1.2142 0.2973,-2.4267 0.4156,-3.6266 0.043,-0.44774 0.038,-0.89906 0.2776,-1.2268 m -14.725,4.2445 c 0.197,-0.89547 0.6483,-2.45 0.7612,-3.6356 0.057,-0.59817 -0.031,-1.1856 0.1916,-1.7354 m -5.2833,5.285 c 0.6233,-0.83457 0.3313,-2.2243 0.5104,-3.2237 0.1164,-0.65727 0.3582,-1.3414 0.5283,-1.9754 m 0.8651,5.1991 c 1.0477,-1.3038 0.6716,-3.367 1.0405,-4.8534 m 17.066,5.9799 c 0.1343,-1.782 0.9976,-3.6069 0.9546,-5.371 m 13.253,8.0574 c 0.019,-1.234 0.4011,-2.4715 0.6913,-3.6392 0.1755,-0.69129 0.2632,-1.508 0.6931,-2.0793 m -36.383,-5.6307 c 0.027,-1.1641 -0.2597,-2.244 -0.3475,-3.3795 m 2.613,3.4314 c -0.025,-1.2841 -0.5014,-2.536 -0.5176,-3.8111 m 2.2369,3.9132 c 0,-1.0441 0.01,-2.0811 -0.088,-3.1198 m 2.1187,3.1538 c -0.072,-0.99756 -0.091,-2.2046 -0.2436,-3.1538 m 2.3874,3.1914 c -0.1523,-0.91695 -0.5069,-1.927 -0.4352,-2.8601 m 5.3405,3.392 c 0.1504,-0.89189 0.07,-1.8626 0.07,-2.7778 m 10.538,3.2756 c 0.01,-1.2375 0.3564,-2.3014 0.5713,-3.4887 m -8.9725,2.8494 c 0.1182,-1.0584 0.3563,-2.758 0,-3.7735 m 6.4795,4.4129 c 0.084,-1.4542 0.8418,-2.9371 0.8543,-4.343 m -4.9841,3.8452 c -0.031,-1.0137 0,-3.1789 0,-4.1998 m 11.747,5.4104 c 0,-1.0047 0,-1.9432 0.1432,-2.9192 m -9.6119,1.9217 c 0,-1.413 0.1433,-2.7795 0.1433,-4.2015 m 18.3,6.9793 c 0.093,-0.8489 0.1988,-2.0524 0.566,-2.8476 m -2.2763,2.5628 c 0.1594,-1.1766 0.2722,-2.459 0.6394,-3.5604 m -5.4803,2.8476 c -0.057,-0.75398 0.3206,-1.6512 0.4263,-2.4052 0.072,-0.51579 0.1164,-1.0029 0.2131,-1.5098 m 1.7801,4.2714 c 0.3296,-0.84712 0.3081,-1.7981 0.4227,-2.6882 0.073,-0.54623 0.3332,-0.99934 0.4316,-1.5133 m 38.521,24.677 c -0.097,-2.595 -2.6721,-4.7012 -2.9103,-7.3876 m 12.537,8.7308 c -1.6746,-1.3199 -1.2117,-4.8624 -1.1383,-6.9399 m -6.4732,5.1489 c -0.4567,-2.0434 -1.1086,-4.1729 -1.3432,-6.2683 m 4.7012,6.716 c -0.317,-2.099 -1.0244,-4.1693 -1.3432,-6.2683"
       stroke-miterlimit="4"
       id="path372"
       inkscape:connector-curvature="0" />
    <path
       style="text-align:start;fill:none;stroke:#000000;stroke-width:2;stroke-linecap:butt;stroke-linejoin:miter;stroke-miterlimit:4;stroke-dasharray:none;stroke-dashoffset:0"
       d="m 775.36069,828.56974 -45.1,77.394"
       stroke-miterlimit="4"
       id="path374"
       inkscape:connector-curvature="0" />
    <path
       style="text-align:start;fill:none;stroke:#000000;stroke-width:2;stroke-linecap:butt;stroke-linejoin:miter;stroke-miterlimit:4;stroke-dasharray:none;stroke-dashoffset:0"
       d="m 652.46069,870.21974 65.243,-69.727"
       stroke-miterlimit="4"
       id="path376"
       inkscape:connector-curvature="0" />
    <path
       style="text-align:start;fill:none;stroke:#000000;stroke-width:2;stroke-linecap:butt;stroke-linejoin:miter;stroke-miterlimit:4;stroke-dasharray:none;stroke-dashoffset:0"
       d="m 628.16069,771.65974 -76.201,65.179"
       stroke-miterlimit="4"
       id="path378"
       inkscape:connector-curvature="0" />
    <path
       style="text-align:start;fill:none;stroke:#000000;stroke-width:2;stroke-linecap:butt;stroke-linejoin:miter;stroke-miterlimit:4;stroke-dasharray:none;stroke-dashoffset:0"
       d="m 585.66069,691.21974 -78.15898,-55.39401 59.18798,63.74101"
       stroke-miterlimit="4"
       id="path380"
       inkscape:connector-curvature="0" />
    <path
       style="text-align:start;fill:none;stroke:#000000;stroke-width:2;stroke-linecap:butt;stroke-linejoin:miter;stroke-miterlimit:4;stroke-dasharray:none;stroke-dashoffset:0"
       d="m 599.26069,596.45973 -0.7588,53.027 9.1059,6.82941"
       stroke-miterlimit="4"
       id="path382"
       inkscape:connector-curvature="0" />
    <path
       style="text-align:start;fill:none;stroke:#000000;stroke-width:2;stroke-linecap:butt;stroke-linejoin:miter;stroke-miterlimit:4;stroke-dasharray:none;stroke-dashoffset:0"
       d="m 709.16069,574.46973 -40.796,138.76001"
       stroke-miterlimit="4"
       id="path384"
       inkscape:connector-curvature="0" />
    <text
       style="font-style:normal;font-variant:normal;font-weight:normal;font-stretch:normal;font-size:28.65491867px;line-height:125%;font-family:Calibri;text-align:start;writing-mode:lr-tb;text-anchor:start;fill:#000000"
       line-height="125%"
       font-weight="normal"
       font-size="28.65491867px"
       font-style="normal"
       font-stretch="normal"
       font-variant="normal"
       y="631.14789"
       x="440.38547"
       xml:space="preserve"
       id="text386"
       sodipodi:linespacing="125%"><tspan
         font-size="20px"
         y="631.14789"
         x="440.38547"
         id="tspan388"
         style="font-size:20px;font-family:Arial">Outer hair cells</tspan></text>
    <text
       style="font-style:normal;font-variant:normal;font-weight:normal;font-stretch:normal;font-size:28.65491867px;line-height:125%;font-family:Calibri;text-align:start;writing-mode:lr-tb;text-anchor:start;fill:#000000"
       line-height="125%"
       font-weight="normal"
       font-size="28.65491867px"
       font-style="normal"
       font-stretch="normal"
       font-variant="normal"
       y="589.57977"
       x="510.29245"
       xml:space="preserve"
       id="text390"
       sodipodi:linespacing="125%"><tspan
         font-size="20px"
         y="589.57977"
         x="510.29245"
         id="tspan392"
         style="font-size:20px;font-family:Arial">Tectorial membrane</tspan></text>
    <text
       style="font-style:normal;font-variant:normal;font-weight:normal;font-stretch:normal;font-size:28.65491867px;line-height:125%;font-family:Calibri;text-align:start;writing-mode:lr-tb;text-anchor:start;fill:#000000"
       line-height="125%"
       font-weight="normal"
       font-size="28.65491867px"
       font-style="normal"
       font-stretch="normal"
       font-variant="normal"
       y="567.1297"
       x="644.4151"
       xml:space="preserve"
       id="text394"
       sodipodi:linespacing="125%"><tspan
         font-size="20px"
         y="567.1297"
         x="644.4151"
         id="tspan396"
         style="font-size:20px;font-family:Arial">Inner hair cells</tspan></text>
    <text
       style="font-style:normal;font-variant:normal;font-weight:normal;font-stretch:normal;font-size:28.65491867px;line-height:125%;font-family:Calibri;text-align:start;writing-mode:lr-tb;text-anchor:start;fill:#000000"
       line-height="125%"
       font-weight="normal"
       font-size="28.65491867px"
       font-style="normal"
       font-stretch="normal"
       font-variant="normal"
       y="852.62897"
       x="488.41434"
       xml:space="preserve"
       id="text398"
       sodipodi:linespacing="125%"><tspan
         font-size="20px"
         y="852.62897"
         x="488.41434"
         id="tspan400"
         style="font-size:20px;font-family:Arial">Basilar membrane</tspan></text>
    <text
       style="font-style:normal;font-variant:normal;font-weight:normal;font-stretch:normal;font-size:28.65491867px;line-height:125%;font-family:Calibri;text-align:start;writing-mode:lr-tb;text-anchor:start;fill:#000000"
       line-height="125%"
       font-weight="normal"
       font-size="28.65491867px"
       font-style="normal"
       font-stretch="normal"
       font-variant="normal"
       y="887.66638"
       x="591.69244"
       xml:space="preserve"
       id="text402"
       sodipodi:linespacing="125%"><tspan
         font-size="20px"
         y="887.66638"
         x="591.69244"
         id="tspan404"
         style="font-size:20px;font-family:Arial">Spiral ganglion</tspan></text>
    <text
       style="font-style:normal;font-variant:normal;font-weight:normal;font-stretch:normal;font-size:28.65491867px;line-height:125%;font-family:Calibri;text-align:start;writing-mode:lr-tb;text-anchor:start;fill:#000000"
       line-height="125%"
       font-weight="normal"
       font-size="28.65491867px"
       font-style="normal"
       font-stretch="normal"
       font-variant="normal"
       y="924.97198"
       x="659.72913"
       xml:space="preserve"
       id="text406"
       sodipodi:linespacing="125%"><tspan
         font-size="20px"
         y="924.97198"
         x="659.72913"
         id="tspan408"
         style="font-size:20px;font-family:Arial">Cochlear nerve</tspan></text>
  </g>
</svg>
