<?xml version="1.0" encoding="UTF-8" standalone="no"?>
<!-- Created with Inkscape (http://www.inkscape.org/) -->

<svg
   xmlns:dc="http://purl.org/dc/elements/1.1/"
   xmlns:cc="http://creativecommons.org/ns#"
   xmlns:rdf="http://www.w3.org/1999/02/22-rdf-syntax-ns#"
   xmlns:svg="http://www.w3.org/2000/svg"
   xmlns="http://www.w3.org/2000/svg"
   xmlns:sodipodi="http://sodipodi.sourceforge.net/DTD/sodipodi-0.dtd"
   xmlns:inkscape="http://www.inkscape.org/namespaces/inkscape"
   width="421.58939"
   height="496.1998"
   id="svg3919"
   version="1.1"
   inkscape:version="0.91 r13725"
   sodipodi:docname="vt.svg">
  <defs
     id="defs3921">
    <clipPath
       id="clipPath4311"
       clipPathUnits="userSpaceOnUse">
      <path
         id="path4313"
         d="m 0.022,841.993 594.996,0 0,-841.993 -594.996,0 0,841.993 z"
         inkscape:connector-curvature="0" />
    </clipPath>
    <clipPath
       id="clipPath4305"
       clipPathUnits="userSpaceOnUse">
      <path
         id="path4307"
         d="m -1,843 614,0 0,-796 -614,0 0,796 z"
         inkscape:connector-curvature="0" />
    </clipPath>
    <clipPath
       id="clipPath4285"
       clipPathUnits="userSpaceOnUse">
      <path
         id="path4287"
         clip-rule="evenodd"
         d="m 227.21,735.64 328.51,0 0,-285.7 -328.51,0 0,285.7 z"
         inkscape:connector-curvature="0" />
    </clipPath>
    <clipPath
       id="clipPath4215"
       clipPathUnits="userSpaceOnUse">
      <path
         id="path4217"
         clip-rule="evenodd"
         d="m 227.21,735.64 328.51,0 0,-285.7 -328.51,0 0,285.7 z"
         inkscape:connector-curvature="0" />
    </clipPath>
    <clipPath
       id="clipPath4197"
       clipPathUnits="userSpaceOnUse">
      <path
         id="path4199"
         clip-rule="evenodd"
         d="m 227.21,735.64 328.51,0 0,-285.7 -328.51,0 0,285.7 z"
         inkscape:connector-curvature="0" />
    </clipPath>
    <clipPath
       id="clipPath4191"
       clipPathUnits="userSpaceOnUse">
      <path
         id="path4193"
         d="m 556.519,734.589 c -10.61,0 -21.222,0 -31.832,0 -2.404,0 -4.808,0 -7.213,0 -0.007,-0.019 -0.012,-0.037 -0.019,-0.055 -1.914,-26.828 -5.964,-43.13 -6.428,-46.377 -0.298,-2.082 -0.868,-12.407 -0.98,-21.011 -0.013,-0.967 -0.02,-1.913 -0.02,-2.822 0,-9 6.5,-24 9,-33 2.5,-9 6.333,-22.334 6.333,-38.334 0,-16 1.001,-20.167 1.167,-22 0.166,-1.833 1.833,-21.333 6.333,-31.833 4.5,-10.5 6.833,-23.333 6.833,-29 0,-5.667 0,-22 0.667,-24.167 0.667,-2.167 6.167,-21.501 6.667,-25.667 0.222,-1.846 0.476,-4.672 0.689,-7.625 0.051,-0.697 0.1,-1.403 0.145,-2.104 0.013,-0.202 0.025,-0.403 0.038,-0.604 2.873,0 5.747,0 8.62,0 0,72.351 0,144.7 0,217.05 0,22.517 0,45.033 0,67.549"
         inkscape:connector-curvature="0" />
    </clipPath>
    <clipPath
       id="clipPath4167"
       clipPathUnits="userSpaceOnUse">
      <path
         id="path4169"
         d="m 253.039,734.482 c 0,0 6.022,-10e-4 16.248,-0.002 57.536,-0.005 248.167,-0.021 248.167,-0.021 -1.148,-16.096 -3.064,-28.37 -4.513,-36.318 -0.968,-5.306 -1.728,-8.684 -1.914,-9.984 -0.093,-0.652 -0.213,-2.112 -0.33,-4.074 -0.968,-2.609 -7.14,-3.116 -7.108,-4.194 0.97,-1.928 1.616,-5.027 1.987,-8.744 0.504,-5.041 2.268,-18.273 2.898,-22.179 0.63,-3.907 0.882,-13.61 0.882,-16.004 0,-2.395 0.126,-9.955 -0.126,-12.224 -0.252,-2.268 -0.505,-10.333 -2.394,-10.333 -1.89,0 -3.908,5.04 -5.797,13.357 -1.89,8.317 -5.671,20.541 -6.805,23.565 -1.134,3.025 -4.284,8.695 -7.812,10.333 -3.529,1.639 -12.098,1.387 -14.367,1.387 -2.268,0 -7.56,1.26 -10.207,2.52 -2.646,1.261 -9.072,6.175 -13.231,8.065 -4.159,1.89 -9.829,3.907 -17.391,3.907 -7.561,0 -23.062,0.126 -28.102,-0.882 -5.04,-1.009 -15.373,-3.403 -18.65,-5.545 -3.277,-2.142 -13.862,-10.711 -16.76,-13.358 -2.899,-2.646 -7.939,-10.081 -10.334,-13.862 -2.394,-3.78 -5.04,-12.727 -9.955,-15.878 -0.736,-0.471 -1.484,-0.906 -2.237,-1.307 -4.272,-2.276 -8.719,-3.45 -12.255,-3.986 -4.158,-0.629 -9.199,-1.511 -11.467,-3.906 -2.269,-2.394 -4.411,-4.411 -5.167,-5.167 -0.756,-0.756 -0.851,-2.142 -3.749,0 -0.03,0.02 -0.059,0.039 -0.089,0.058 -0.62,-2.2 -2.169,-4.716 -8.101,-4.716 -8.5,0 -12,11.833 -12,26.167 0,14.333 5.5,22.5 -2.5,31.167 -8,8.666 -23.833,10.166 -27.833,10.833 -3.824,0.637 -22.569,3.71 -24.218,22.756 -0.076,0.88 -0.115,1.794 -0.115,2.744 0,12.18 9.124,27.026 15.345,35.825"
         inkscape:connector-curvature="0" />
    </clipPath>
    <clipPath
       id="clipPath4145"
       clipPathUnits="userSpaceOnUse">
      <path
         id="path4147"
         d="m 486.056,598.914 c -3.964,4.008 -9.025,7.937 -15.696,11.576 -22,12 -46.167,9.833 -51.167,9.667 -5,-0.167 -32.266,-2.104 -55.333,-13.167 -6.108,-2.929 -10.911,-6.208 -14.661,-9.471 -6.278,-5.462 -9.608,-10.877 -11.172,-14.529 -0.008,-0.033 -0.015,-0.065 -0.022,-0.098 -1.467,1.788 -3.798,4.812 -4.854,6.315 -1.394,1.985 -2.602,2.682 -3.407,2.951 -0.803,0.267 -2.672,-1.786 -3.001,-2.275 -1.919,2.733 -5.061,5.274 -11.549,5.274 -9.833,0 -16.834,-15.667 -16.834,-20.667 0,-5 2.5,-10 8.334,-15.5 5.833,-5.5 10.833,-15.667 10.833,-20 0,-4.333 -5,-10.333 -7.167,-14.167 -2.166,-3.834 -6.666,-14.167 -6.666,-33.5 0,-0.838 0.037,-1.662 0.108,-2.473 1.133,-12.762 10.916,-22.165 21.018,-29.17 7.947,-5.51 16.928,-7.933 26.262,-9.69 9.693,0 19.386,0 29.079,0 35.241,0 70.481,0 105.722,0 3.392,9.553 6.218,18.96 8.477,29.5 1.331,3.993 3.548,7.98 5.767,11.679 0.787,3.318 1.523,6.339 1.99,8.27 3.021,12.491 5.41,25.327 5.41,38.218 0,16.333 -10e-4,24.333 -5.334,35 -3.716,7.433 -7.027,17.049 -16.137,26.257"
         inkscape:connector-curvature="0" />
    </clipPath>
    <clipPath
       id="clipPath3947"
       clipPathUnits="userSpaceOnUse">
      <path
         id="path3949"
         d="m 0.022,841.993 594.996,0 0,-841.993 -594.996,0 0,841.993 z"
         inkscape:connector-curvature="0" />
    </clipPath>
    <clipPath
       id="clipPath3941"
       clipPathUnits="userSpaceOnUse">
      <path
         id="path3943"
         d="m -1,843 614,0 0,-796 -614,0 0,796 z"
         inkscape:connector-curvature="0" />
    </clipPath>
    <filter
       inkscape:collect="always"
       id="filter6579"
       color-interpolation-filters="sRGB">
      <feGaussianBlur
         inkscape:collect="always"
         stdDeviation="2.2515347"
         id="feGaussianBlur6581" />
    </filter>
    <filter
       inkscape:collect="always"
       id="filter6615"
       color-interpolation-filters="sRGB">
      <feGaussianBlur
         inkscape:collect="always"
         stdDeviation="2.80701"
         id="feGaussianBlur6617" />
    </filter>
    <filter
       inkscape:collect="always"
       id="filter6619"
       color-interpolation-filters="sRGB">
      <feGaussianBlur
         inkscape:collect="always"
         stdDeviation="3.2303245"
         id="feGaussianBlur6621" />
    </filter>
    <filter
       inkscape:collect="always"
       id="filter6627"
       x="-0.11068091"
       width="1.2213618"
       y="-0.013459249"
       height="1.0269185"
       color-interpolation-filters="sRGB">
      <feGaussianBlur
         inkscape:collect="always"
         stdDeviation="2.6466135"
         id="feGaussianBlur6629" />
    </filter>
    <filter
       inkscape:collect="always"
       id="filter6631"
       color-interpolation-filters="sRGB">
      <feGaussianBlur
         inkscape:collect="always"
         stdDeviation="0.314966"
         id="feGaussianBlur6633" />
    </filter>
  </defs>
  <sodipodi:namedview
     id="base"
     pagecolor="#ffffff"
     bordercolor="#666666"
     borderopacity="1.0"
     inkscape:pageopacity="0.0"
     inkscape:pageshadow="2"
     inkscape:zoom="5.6568542"
     inkscape:cx="373.37652"
     inkscape:cy="28.583451"
     inkscape:document-units="px"
     inkscape:current-layer="g7227"
     showgrid="false"
     inkscape:window-width="1276"
     inkscape:window-height="755"
     inkscape:window-x="4"
     inkscape:window-y="1"
     inkscape:window-maximized="1"
     showguides="false"
     inkscape:guide-bbox="true"
     fit-margin-top="5"
     fit-margin-left="5"
     fit-margin-bottom="5"
     fit-margin-right="5">
    <sodipodi:guide
       orientation="-0.70710678,0.70710678"
       position="-298.39603,541.38609"
       id="guide6587" />
  </sodipodi:namedview>
  <metadata
     id="metadata3924">
    <rdf:RDF>
      <cc:Work
         rdf:about="">
        <dc:format>image/svg+xml</dc:format>
        <dc:type
           rdf:resource="http://purl.org/dc/dcmitype/StillImage" />
        <dc:title />
      </cc:Work>
    </rdf:RDF>
  </metadata>
  <g
     inkscape:label="Layer 1"
     inkscape:groupmode="layer"
     id="layer1"
     transform="translate(-1171.1678,-358.11683)">
    <g
       id="g7227"
       transform="translate(304,64)">
      <path
         sodipodi:nodetypes="cscccccscccscscccccccc"
         inkscape:connector-curvature="0"
         id="path6583"
         d="m 942.47233,395.76303 c 6.81968,6.01416 9.66863,13.88211 7.71703,23.92166 -3.26776,16.81019 -2.86425,35.06363 4.94051,47.26346 4.79057,5.98984 16.0586,4.93311 18.00272,-2.48466 3.41211,4.48578 4.2106,1.13068 5.88175,0.39354 2.94937,-5.3383 7.12985,-6.98327 10.96369,-9.66815 23.18797,-1.8734 32.98187,-9.66506 35.73997,-20.56561 10.5318,-27.59619 39.7144,-45.74261 58.2131,-48.08401 33.7302,-4.26925 52.1026,-1.59074 61.6569,4.58965 10.3266,7.50765 20.939,14.26492 35.0097,11.94453 8.995,-0.45141 15.1724,2.51867 17.5044,10.15805 5.3312,11.39754 7.9123,26.52931 11.2688,37.03397 5.5143,17.25752 10.0875,22.93687 9.9444,-14.21362 -0.3066,-8.92612 -0.1873,-20.74323 -2.2951,-31.91348 -3.3065,-17.52289 -2.292,-31.81414 -11.9083,-30.35884 -12.1517,0.34161 -25.7321,6.04374 -38.5981,3.23074 -6.4038,-2.47737 -14.1421,-2.10482 -21.9982,1.02318 -11.8759,1.38022 -21.2839,0.78606 -30.8527,0.32054 -21.76,0.77251 -41.5296,-1.77235 -61.9894,-3.16692 -15.4611,-1.22565 -31.4596,-4.49308 -44.6608,2.86905 -15.25936,5.3806 -32.80831,7.55584 -50.39529,9.67784 -6.58593,0.39261 -12.71255,1.52293 -14.14508,8.02908 z"
         style="fill:#d9d9d9;fill-opacity:1;stroke:none;filter:url(#filter6615)" />
      <path
         sodipodi:nodetypes="cscssssccssccccc"
         inkscape:connector-curvature="0"
         id="path6589"
         d="m 899.54084,306.86961 c -8.49719,16.95658 -32.52586,45.62515 -10.6987,68.49933 4.65353,4.87675 10.82747,8.28122 20.29515,9.28241 2.50942,-9.99332 14.74176,-8.44237 28.33348,-3.48675 4.79523,1.74837 11.6174,6.23482 16.62093,6.80013 3.53202,0.39907 36.52067,-3.14361 47.5131,-8.22633 15.2933,-7.07134 31.3362,-7.35667 49.7026,-4.87997 17.8485,2.40687 39.5803,3.43081 57.9584,3.45232 12.0799,0.56373 23.8627,0.75587 34.6056,-0.35166 5.5077,-1.85938 12.622,-4.43837 21.4658,-1.38352 5.547,1.91606 15.4599,2.02716 22.7188,-0.23779 12.1722,-3.79804 22.6554,-4.1484 23.9881,0.61731 8.4375,-0.95789 9.439,-3.91777 9.2303,-7.20349 1.2767,-8.22932 2.864,-16.14811 4.8141,-23.70409 2.8018,-14.42955 3.8322,-27.44192 3.2671,-39.1779 z"
         style="fill:#d9d9d9;fill-opacity:1;stroke:none;filter:url(#filter6619)" />
      <path
         sodipodi:nodetypes="ccccccccccc"
         inkscape:connector-curvature="0"
         id="path6593"
         d="m 1229.0864,307.24707 48.3189,-0.25254 0,456.62882 -33.2755,0.2615 c 15.8252,-20.64287 33.1447,-45.17637 22.7939,-109.98995 -3.7244,-17.24924 -10.4924,-34.93328 -10.0235,-51.58348 2.4134,-29.57234 -3.3227,-35.15446 -8.9992,-51.29267 -6.2801,-18.27228 -7.9539,-38.27194 -8.9155,-58.53864 3.2529,-20.54211 -3.672,-39.51761 -8.6358,-58.79497 -4.5453,-16.58346 -12.1923,-24.42566 -9.9213,-60.21871 4.9035,-22.1573 10.2168,-44.3146 8.658,-66.21936 z"
         style="fill:#bdbdbd;fill-opacity:1;stroke:none;filter:url(#filter6627)" />
      <path
         sodipodi:nodetypes="csscssssccsccccscc"
         inkscape:connector-curvature="0"
         id="path6561"
         d="m 1210.6884,763.95723 c -4.657,-7.88873 -0.7963,-22.83746 4.6861,-46.55539 6.3776,-27.5907 8.3207,-64.53095 10.1927,-90.4117 3.4942,-48.30799 -14.0762,-63.81026 -7.4458,-5.0142 -0.322,24.11177 -16.819,38.16874 -13.6095,7.4957 1.5186,-14.51332 14.0601,-36.59443 12.4166,-86.06306 -0.4807,-14.46881 -2.7468,-26.14643 -7.9545,-37.75785 -29.6261,-66.05496 -116.7737,-67.91552 -176.1987,-34.62544 -10.1863,5.70636 -24.3601,16.31697 -27.7961,26.58985 -6.93568,-10.85212 -11.63928,-13.59003 -14.01955,-7.9079 -6.00673,-8.67651 -15.51082,-8.24214 -19.92316,-5.65644 -8.40578,4.92591 -19.95314,19.97654 -13.91816,33.3166 7.98435,11.39328 14.01785,15.34486 19.99505,26.64298 8.10895,10.34503 -5.78664,20.89075 -10.46966,35.84837 -9.35375,30.66265 -6.89253,58.24315 27.34639,77.53381 8.79659,2.7028 16.99829,4.79499 25.36919,7.07741 70.7288,19.28503 107.0377,61.28989 121.1152,99.26094 z"
         style="fill:#d9d9d9;fill-opacity:1;stroke:none;filter:url(#filter6579)" />
      <path
         sodipodi:nodetypes="ccc"
         inkscape:connector-curvature="0"
         id="path6442"
         d="m 1212.09,377.74433 c 0.4849,-0.78502 2.708,-1.22486 4.2834,-1.79333 2.5492,-0.92845 4.3059,-2.00367 4.587,-3.35213"
         style="fill:none;stroke:#000000;stroke-width:0.69999999;stroke-linecap:round;stroke-linejoin:miter;stroke-miterlimit:4;stroke-dasharray:none;stroke-opacity:1" />
      <ellipse
         ry="3.4821429"
         rx="16.517857"
         cy="763.38647"
         cx="1227.4983"
         id="path6436"
         style="fill:none;stroke:#000000;stroke-width:0.69999999;stroke-linecap:round;stroke-linejoin:round;stroke-miterlimit:4;stroke-dasharray:none;stroke-dashoffset:0;stroke-opacity:1" />
      <path
         sodipodi:nodetypes="cssssscccssc"
         inkscape:connector-curvature="0"
         id="path5918"
         d="m 1002.3684,506.63739 c -3.70052,-2.542 -7.02792,-9.74976 -9.39798,-14.19081 -4.99447,-9.35869 -16.41649,-12.45263 -24.57062,-6.44477 -2.60178,1.91696 -7.85913,8.42056 -10.97151,15.5094 -2.73159,6.22153 -1.53047,13.50664 0.1303,16.15165 4.84849,7.7219 12.27742,14.03507 13.62438,16.504 0.99015,1.81491 6.61888,9.98013 7.5249,14.2662 3.02136,7.28998 -1.67608,12.80779 -5.25757,18.32627 -9.53525,13.33298 -10.83094,27.8329 -11.07814,42.82445 -0.59059,9.19871 2.00211,16.20023 5.25695,21.71171 10.55964,17.88086 31.41466,30.54582 47.31139,32.3306 34.4951,3.87289 103.5833,42.744 125.351,99.81909"
         style="fill:none;stroke:#000000;stroke-width:0.69999999;stroke-linecap:round;stroke-linejoin:miter;stroke-miterlimit:4;stroke-dasharray:none;stroke-opacity:1" />
      <path
         sodipodi:nodetypes="ccc"
         inkscape:connector-curvature="0"
         id="path6428"
         d="m 1013.6139,502.38866 c -5.3303,0.91591 -8.3508,-3.67347 -11.7609,-8.37718 -3.22549,-4.172 -6.11769,-10.95475 -10.69761,-4.51695"
         style="fill:none;stroke:#000000;stroke-width:0.69999999;stroke-linecap:round;stroke-linejoin:miter;stroke-miterlimit:4;stroke-dasharray:none;stroke-opacity:1" />
      <path
         sodipodi:nodetypes="cssscssssscccsc"
         inkscape:connector-curvature="0"
         id="path6430"
         d="m 1005.1655,498.23038 c 6.0813,-14.96918 26.5106,-31.56584 60.7111,-40.04236 35.7096,-8.85055 77.6284,-10.72827 108.3948,7.60029 14.1055,8.4031 23.988,21.97454 33.6109,39.22631 9.5982,17.20738 11.5062,38.79178 8.1279,66.87276 -1.3748,6.64995 -1.0883,14.68451 -3.4641,22.13878 -3.5322,11.08276 -6.2377,25.23945 -7.8279,32.67965 -1.0499,4.91233 -1.5984,9.15264 -1.0602,12.65365 1.4042,9.13513 7.6568,11.833 12.0138,1.91894 1.0697,-2.43411 1.1291,-5.95751 1.548,-10.14178 0.7329,-7.3219 -0.3363,-17.83106 0.455,-33.08447 -0.2543,-15.60156 4.4113,-16.73999 5.9506,-2.28289 1.649,22.51873 2.8287,45.03746 -0.1645,67.5562 -3.2043,23.58718 -5.5358,49.80283 -11.3052,70.77056 -3.1118,11.30922 -5.0172,21.91475 -1.6604,29.47602"
         style="fill:none;stroke:#000000;stroke-width:0.69999999;stroke-linecap:round;stroke-linejoin:miter;stroke-miterlimit:4;stroke-dasharray:none;stroke-opacity:1" />
      <path
         sodipodi:nodetypes="csscssssssssc"
         inkscape:connector-curvature="0"
         id="path6434"
         d="m 1229.3877,307.21685 c -0.4369,16.81594 -2.3166,35.54751 -6.2346,51.21086 -1.9358,7.739 -3.3169,22.53294 -2.7986,36.44993 0.3239,8.69531 1.9271,17.033 4.8069,23.10762 5.8791,15.63601 10.154,32.43516 13.2239,50.10787 1.6839,9.69394 0.3293,20.42289 0.8733,30.58017 0.909,16.9702 3.1851,36.10252 7.6662,49.11782 1.892,5.49526 4.2387,10.14421 5.7967,15.16888 2.2511,7.25952 4.112,14.58175 4.6196,20.81542 0.9923,12.18595 -1.4802,22.19515 0.5488,33.96017 1.6182,9.38337 9.5203,32.5741 10.6793,45.76959 3.221,36.67507 0.8977,64.39553 -13.9475,85.26149 -2.0916,2.93995 -6.9076,12.0428 -10.029,14.78567"
         style="fill:none;stroke:#000000;stroke-width:0.69999999;stroke-linecap:round;stroke-linejoin:miter;stroke-miterlimit:4;stroke-dasharray:none;stroke-opacity:1" />
      <path
         sodipodi:nodetypes="cssscscsc"
         inkscape:connector-curvature="0"
         id="path6438"
         d="m 979.53287,447.40708 c -3.66844,6.47001 -4.96135,12.53581 -6.29551,17.31187 -0.67851,2.42897 -1.48855,4.95989 -6.95868,5.78249 -5.59234,0.84098 -10.1248,-0.71945 -13.34035,-6.44553 -4.51617,-8.04213 -6.05832,-22.60748 -3.52154,-39.80312 6.65779,-26.7787 -13.69446,-34.31092 -32.32578,-37.72608 -8.26724,-1.51541 -14.75122,-2.46719 -17.6026,-3.64902 -21.48521,-9.24517 -23.96106,-31.39102 -13.24425,-52.60057 3.55427,-7.03423 9.16977,-15.75043 13.48266,-22.97009"
         style="fill:none;stroke:#000000;stroke-width:0.69999999;stroke-linecap:round;stroke-linejoin:miter;stroke-miterlimit:4;stroke-dasharray:none;stroke-opacity:1" />
      <path
         sodipodi:nodetypes="cssssccssscccssssccccccsccccc"
         inkscape:connector-curvature="0"
         id="path6440"
         d="m 973.34568,464.83221 c 2.58074,2.44502 3.89016,2.03826 4.66808,0.40524 0.7226,-1.51686 3.07974,-2.78802 4.08194,-4.12034 4.02583,-5.35196 11.19129,-6.34754 17.56798,-7.64388 10.43862,-2.1221 16.50952,-4.22144 22.21482,-11.233 2.2082,-2.71384 3.6415,-6.7672 5.7279,-11.56688 7.9599,-17.09794 18.9111,-24.22547 28.5887,-32.11149 3.9051,-3.93652 11.5324,-8.11287 17.0143,-9.14653 5.1068,-0.96295 10.4431,-3.14572 15.6865,-3.64255 10.5174,-0.99657 21.5454,-0.65646 31.8999,-0.77536 10.7369,-0.1233 21.2413,2.84597 31.4237,10.0975 11.6856,8.53014 15.7127,7.88862 28.691,8.22346 6.1901,0.019 12.3309,0.29928 16.8897,8.9415 3.756,5.77881 5.6743,14.30776 7.2871,20.80517 2.3347,9.40569 4.2302,17.23538 5.8257,22.16569 3.6518,11.28487 6.87,10.63882 7.9386,2.10079 0.9104,-7.2731 1.0199,-19.77318 0.3731,-33.89839 -0.4113,-8.98051 -3.0306,-20.71449 -4.1378,-32.12771 -1.3356,-5.21002 0.1245,-17.38962 -8.2649,-17.41606 -7.9231,-1.02523 -14.3118,1.53007 -21.3347,2.60523 -6.7542,1.78668 -11.3749,2.32584 -18.6318,0.35836 -6.0365,-1.58756 -12.5815,-2.23414 -21.2832,0.67592 -9.8502,1.53014 -19.1624,1.55365 -28.1723,0.7311 -9.4245,0.42083 -20.0291,-0.0915 -29.3354,-0.58227 -12.5533,-0.66203 -27.101,-1.12473 -40.3045,-3.20917 -9.4584,-0.49974 -18.8589,-1.75315 -28.4742,-0.21367 -11.8054,3.21083 -24.11997,8.07618 -35.32764,9.3442 -11.58137,2.11299 -23.1233,4.11543 -34.34815,5.22916 -5.28292,0.84018 -6.06286,4.20203 -7.28535,7.31605"
         style="fill:none;stroke:#000000;stroke-width:0.69999999;stroke-linecap:round;stroke-linejoin:miter;stroke-miterlimit:4;stroke-dasharray:none;stroke-opacity:1" />
      <path
         sodipodi:nodetypes="ccc"
         inkscape:connector-curvature="0"
         id="path6444"
         d="m 909.99467,385.2981 c -0.38271,-9.54549 10.92455,-9.83325 27.97263,-3.65659 6.28065,2.75339 12.97503,6.5886 18.27737,6.51373"
         style="fill:none;stroke:#000000;stroke-width:0.69999999;stroke-linecap:round;stroke-linejoin:miter;stroke-miterlimit:4;stroke-dasharray:none;stroke-opacity:1" />
      <path
         sodipodi:nodetypes="cccc"
         inkscape:connector-curvature="0"
         id="path6522"
         d="m 899.95003,306.99453 377.45527,0 -0.2902,456.47768 -32.8828,0.0622"
         style="fill:none;stroke:#000000;stroke-width:0.7;stroke-linecap:round;stroke-linejoin:miter;stroke-miterlimit:4;stroke-dasharray:none;stroke-opacity:1" />
      <path
         sodipodi:nodetypes="cccc"
         inkscape:connector-curvature="0"
         id="path6585"
         d="m 909.90538,385.20882 c 11.92952,1.49811 23.39677,3.92075 32.5,11.07142 1.19061,-4.4712 2.86979,-8.08005 11.42857,-8.03571 -21.27251,-9.66867 -43.78213,-17.56488 -43.92857,-3.03571 z"
         style="fill:#bdbdbd;fill-opacity:1;stroke:none;filter:url(#filter6631)" />
      <path
         inkscape:connector-curvature="0"
         id="path6801-5"
         d="m 1027.7637,349.98458 0,16.78571 101.9643,0 0,-16.78571"
         style="fill:none;stroke:#000000;stroke-width:0.80000001;stroke-linecap:butt;stroke-linejoin:miter;stroke-miterlimit:4;stroke-opacity:1;stroke-dasharray:none" />
      <path
         inkscape:connector-curvature="0"
         id="path6801-5-1"
         d="m 925.83513,349.98458 0,16.78571 101.96427,0 0,-16.78571"
         style="fill:none;stroke:#000000;stroke-width:0.80000001;stroke-linecap:butt;stroke-linejoin:miter;stroke-miterlimit:4;stroke-opacity:1;stroke-dasharray:none" />
      <path
         inkscape:connector-curvature="0"
         id="path6801-5-7"
         d="m 1129.6922,349.98458 0,16.78571 101.9642,0 0,-16.78571"
         style="fill:none;stroke:#000000;stroke-width:0.80000001;stroke-linecap:butt;stroke-linejoin:miter;stroke-miterlimit:4;stroke-opacity:1;stroke-dasharray:none" />
      <text
         sodipodi:linespacing="125%"
         id="text6901"
         y="349.64795"
         x="976.80017"
         style="font-size:12px;font-style:normal;font-variant:normal;font-weight:normal;font-stretch:normal;text-align:center;line-height:125%;letter-spacing:0px;word-spacing:0px;text-anchor:middle;fill:#000000;fill-opacity:1;stroke:none;font-family:Arial;-inkscape-font-specification:Arial"
         xml:space="preserve"><tspan
           style="font-size:10px"
           y="349.64795"
           x="976.80017"
           id="tspan6903"
           sodipodi:role="line">[p] [b] [m]</tspan><tspan
           style="font-size:10px"
           id="tspan6905"
           y="362.14795"
           x="976.80017"
           sodipodi:role="line">Labial</tspan></text>
      <text
         sodipodi:linespacing="125%"
         id="text6907"
         y="349.64551"
         x="1078.7288"
         style="font-size:12px;font-style:normal;font-variant:normal;font-weight:normal;font-stretch:normal;text-align:center;line-height:125%;letter-spacing:0px;word-spacing:0px;text-anchor:middle;fill:#000000;fill-opacity:1;stroke:none;font-family:Arial;-inkscape-font-specification:Arial"
         xml:space="preserve"><tspan
           style="font-size:10px"
           y="349.64551"
           x="1078.7288"
           id="tspan6909"
           sodipodi:role="line">[t] [d] [n]</tspan><tspan
           style="font-size:10px"
           id="tspan6911"
           y="362.14551"
           x="1078.7288"
           sodipodi:role="line">Coronal</tspan></text>
      <text
         sodipodi:linespacing="125%"
         id="text6913"
         y="349.64795"
         x="1180.6426"
         style="font-size:12px;font-style:normal;font-variant:normal;font-weight:normal;font-stretch:normal;text-align:center;line-height:125%;letter-spacing:0px;word-spacing:0px;text-anchor:middle;fill:#000000;fill-opacity:1;stroke:none;font-family:Arial;-inkscape-font-specification:Arial"
         xml:space="preserve"><tspan
           style="font-size:10px"
           y="349.64795"
           x="1180.6426"
           id="tspan6915"
           sodipodi:role="line">[k] [g]</tspan><tspan
           style="font-size:10px"
           id="tspan6917"
           y="362.14795"
           x="1180.6426"
           sodipodi:role="line">Dorsal</tspan></text>
      <text
         sodipodi:linespacing="125%"
         id="text6923"
         y="395.08191"
         x="986.42847"
         style="font-size:12px;font-style:normal;font-variant:normal;font-weight:normal;font-stretch:normal;text-align:start;line-height:125%;letter-spacing:0px;word-spacing:0px;text-anchor:start;fill:#000000;fill-opacity:1;stroke:none;font-family:Lato;-inkscape-font-specification:Lato"
         xml:space="preserve"><tspan
           style="font-size:10px;font-style:normal;font-variant:normal;font-weight:normal;font-stretch:normal;font-family:Arial;-inkscape-font-specification:Arial"
           y="395.08191"
           x="986.42847"
           id="tspan6925"
           sodipodi:role="line">Hard palate</tspan></text>
      <text
         sodipodi:linespacing="125%"
         id="text6927"
         y="329.50504"
         x="1051.9904"
         style="font-size:12px;font-style:normal;font-variant:normal;font-weight:normal;font-stretch:normal;text-align:start;line-height:125%;letter-spacing:0px;word-spacing:0px;text-anchor:start;fill:#000000;fill-opacity:1;stroke:none;font-family:Lato;-inkscape-font-specification:Lato"
         xml:space="preserve"><tspan
           style="font-size:10px;font-style:normal;font-variant:normal;font-weight:normal;font-stretch:normal;font-family:Arial;-inkscape-font-specification:Arial"
           y="329.50504"
           x="1051.9904"
           id="tspan6929"
           sodipodi:role="line">Consonants</tspan></text>
      <text
         sodipodi:linespacing="125%"
         id="text6931"
         y="414.64789"
         x="1083.8745"
         style="font-size:12px;font-style:normal;font-variant:normal;font-weight:normal;font-stretch:normal;text-align:start;line-height:125%;letter-spacing:0px;word-spacing:0px;text-anchor:start;fill:#000000;fill-opacity:1;stroke:none;font-family:Lato;-inkscape-font-specification:Lato"
         xml:space="preserve"><tspan
           style="font-size:10px;font-style:normal;font-variant:normal;font-weight:normal;font-stretch:normal;font-family:Arial;-inkscape-font-specification:Arial"
           y="414.64789"
           x="1083.8745"
           id="tspan6933"
           sodipodi:role="line">Vocal tract</tspan></text>
      <text
         sodipodi:linespacing="125%"
         id="text6935"
         y="477.36218"
         x="1103.4773"
         style="font-size:12px;font-style:normal;font-variant:normal;font-weight:normal;font-stretch:normal;text-align:start;line-height:125%;letter-spacing:0px;word-spacing:0px;text-anchor:start;fill:#000000;fill-opacity:1;stroke:none;font-family:Lato;-inkscape-font-specification:Lato"
         xml:space="preserve"><tspan
           style="font-size:10px;font-style:normal;font-variant:normal;font-weight:normal;font-stretch:normal;font-family:Arial;-inkscape-font-specification:Arial"
           y="477.36218"
           x="1103.4773"
           id="tspan6937"
           sodipodi:role="line">Tongue</tspan></text>
      <text
         sodipodi:linespacing="125%"
         id="text6939"
         y="493.07648"
         x="932.85712"
         style="font-size:12px;font-style:normal;font-variant:normal;font-weight:normal;font-stretch:normal;text-align:start;line-height:125%;letter-spacing:0px;word-spacing:0px;text-anchor:start;fill:#000000;fill-opacity:1;stroke:none;font-family:Lato;-inkscape-font-specification:Lato"
         xml:space="preserve"><tspan
           style="font-size:10px;font-style:normal;font-variant:normal;font-weight:normal;font-stretch:normal;font-family:Arial;-inkscape-font-specification:Arial"
           y="493.07648"
           x="932.85712"
           id="tspan6941"
           sodipodi:role="line">Lips</tspan></text>
      <path
         inkscape:connector-curvature="0"
         id="path6801-5-3"
         d="m 1077.4658,546.82647 0,16.78571 61.7828,0 0,-16.78571"
         style="fill:none;stroke:#000000;stroke-width:0.80000001;stroke-linecap:butt;stroke-linejoin:miter;stroke-miterlimit:4;stroke-dasharray:none;stroke-opacity:1" />
      <path
         inkscape:connector-curvature="0"
         id="path6801-5-1-7"
         d="m 1015.7047,546.82647 0,16.78571 61.7827,0 0,-16.78571"
         style="fill:none;stroke:#000000;stroke-width:0.80000001;stroke-linecap:butt;stroke-linejoin:miter;stroke-miterlimit:4;stroke-dasharray:none;stroke-opacity:1" />
      <path
         inkscape:connector-curvature="0"
         id="path6801-5-7-9"
         d="m 1139.2269,546.82647 0,16.78571 61.7827,0 0,-16.78571"
         style="fill:none;stroke:#000000;stroke-width:0.80000001;stroke-linecap:butt;stroke-linejoin:miter;stroke-miterlimit:4;stroke-dasharray:none;stroke-opacity:1" />
      <text
         sodipodi:linespacing="125%"
         id="text6943"
         y="558.73981"
         x="1034.5404"
         style="font-style:normal;font-variant:normal;font-weight:normal;font-stretch:normal;font-size:12px;line-height:125%;font-family:Lato;-inkscape-font-specification:Lato;text-align:start;letter-spacing:0px;word-spacing:0px;text-anchor:start;fill:#000000;fill-opacity:1;stroke:none"
         xml:space="preserve"><tspan
           style="font-style:normal;font-variant:normal;font-weight:normal;font-stretch:normal;font-size:10px;font-family:Arial;-inkscape-font-specification:Arial"
           y="558.73981"
           x="1034.5404"
           id="tspan6945"
           sodipodi:role="line">Front</tspan></text>
      <text
         sodipodi:linespacing="125%"
         id="text6947"
         y="558.7984"
         x="1092.3293"
         style="font-style:normal;font-variant:normal;font-weight:normal;font-stretch:normal;font-size:12px;line-height:125%;font-family:Lato;-inkscape-font-specification:Lato;text-align:start;letter-spacing:0px;word-spacing:0px;text-anchor:start;fill:#000000;fill-opacity:1;stroke:none"
         xml:space="preserve"><tspan
           style="font-style:normal;font-variant:normal;font-weight:normal;font-stretch:normal;font-size:10px;font-family:Arial;-inkscape-font-specification:Arial"
           y="558.7984"
           x="1092.3293"
           id="tspan6949"
           sodipodi:role="line">Central</tspan></text>
      <text
         sodipodi:linespacing="125%"
         id="text6951"
         y="558.73981"
         x="1158.6486"
         style="font-style:normal;font-variant:normal;font-weight:normal;font-stretch:normal;font-size:12px;line-height:125%;font-family:Lato;-inkscape-font-specification:Lato;text-align:start;letter-spacing:0px;word-spacing:0px;text-anchor:start;fill:#000000;fill-opacity:1;stroke:none"
         xml:space="preserve"><tspan
           style="font-style:normal;font-variant:normal;font-weight:normal;font-stretch:normal;font-size:10px;font-family:Arial;-inkscape-font-specification:Arial"
           y="558.73981"
           x="1158.6486"
           id="tspan6953"
           sodipodi:role="line">Back</tspan></text>
      <text
         sodipodi:linespacing="125%"
         id="text6955"
         y="578.79077"
         x="1092.3953"
         style="font-style:normal;font-variant:normal;font-weight:normal;font-stretch:normal;font-size:12px;line-height:125%;font-family:Lato;-inkscape-font-specification:Lato;text-align:start;letter-spacing:0px;word-spacing:0px;text-anchor:start;fill:#000000;fill-opacity:1;stroke:none"
         xml:space="preserve"><tspan
           style="font-style:normal;font-variant:normal;font-weight:normal;font-stretch:normal;font-size:10px;font-family:Arial;-inkscape-font-specification:Arial"
           y="578.79077"
           x="1092.3953"
           id="tspan6957"
           sodipodi:role="line">Vowels</tspan></text>
      <text
         xml:space="preserve"
         style="font-style:normal;font-variant:normal;font-weight:normal;font-stretch:normal;font-size:12px;line-height:100%;font-family:Lato;-inkscape-font-specification:Lato;text-align:start;letter-spacing:0px;word-spacing:0px;text-anchor:start;fill:#000000;fill-opacity:1;stroke:none"
         x="1186.5479"
         y="387.1207"
         id="text7472"
         sodipodi:linespacing="100%"><tspan
           sodipodi:role="line"
           id="tspan7474"
           x="1186.5479"
           y="387.1207"
           style="font-style:normal;font-variant:normal;font-weight:normal;font-stretch:normal;font-size:10px;line-height:100%;font-family:Arial;-inkscape-font-specification:Arial;text-align:center;text-anchor:middle">Velum</tspan><tspan
           sodipodi:role="line"
           x="1186.5479"
           y="397.1207"
           style="font-style:normal;font-variant:normal;font-weight:normal;font-stretch:normal;font-size:10px;line-height:100%;font-family:Arial;-inkscape-font-specification:Arial;text-align:center;text-anchor:middle"
           id="tspan7476">(soft palate)</tspan></text>
      <text
         sodipodi:linespacing="125%"
         id="text6931-8"
         y="479.17459"
         x="1196.3134"
         style="font-style:normal;font-variant:normal;font-weight:normal;font-stretch:normal;font-size:12px;line-height:125%;font-family:Lato;-inkscape-font-specification:Lato;text-align:start;letter-spacing:0px;word-spacing:0px;text-anchor:start;fill:#000000;fill-opacity:1;stroke:none"
         xml:space="preserve"><tspan
           style="font-style:normal;font-variant:normal;font-weight:normal;font-stretch:normal;font-size:10px;font-family:Arial;-inkscape-font-specification:Arial"
           y="479.17459"
           x="1196.3134"
           id="tspan6933-8"
           sodipodi:role="line">Pharynx</tspan></text>
      <path
         style="opacity:1;fill:none;fill-opacity:1;stroke:#000000;stroke-width:0.7;stroke-linecap:butt;stroke-linejoin:round;stroke-miterlimit:4;stroke-dasharray:none;stroke-dashoffset:0;stroke-opacity:1"
         d="m 1210.4681,763.62335 -70.1803,0"
         id="path7526"
         inkscape:connector-curvature="0" />
      <text
         sodipodi:linespacing="100%"
         id="text6923-9"
         y="438.64157"
         x="992.90814"
         style="font-style:normal;font-variant:normal;font-weight:normal;font-stretch:normal;font-size:12px;line-height:100%;font-family:Lato;-inkscape-font-specification:Lato;text-align:start;letter-spacing:0px;word-spacing:0px;text-anchor:start;fill:#000000;fill-opacity:1;stroke:none"
         xml:space="preserve"><tspan
           style="font-style:normal;font-variant:normal;font-weight:normal;font-stretch:normal;font-size:10px;line-height:100%;font-family:Arial;-inkscape-font-specification:Arial;text-align:center;text-anchor:middle"
           y="438.64157"
           x="992.90814"
           id="tspan6925-1"
           sodipodi:role="line">Alveolar</tspan><tspan
           style="font-style:normal;font-variant:normal;font-weight:normal;font-stretch:normal;font-size:10px;line-height:100%;font-family:Arial;-inkscape-font-specification:Arial;text-align:center;text-anchor:middle"
           y="448.64157"
           x="992.90814"
           sodipodi:role="line"
           id="tspan7546">ridge</tspan></text>
      <text
         sodipodi:linespacing="125%"
         id="text6935-1"
         y="478.88809"
         x="977.7702"
         style="font-style:normal;font-variant:normal;font-weight:normal;font-stretch:normal;font-size:12px;line-height:125%;font-family:Lato;-inkscape-font-specification:Lato;text-align:start;letter-spacing:0px;word-spacing:0px;text-anchor:start;fill:#000000;fill-opacity:1;stroke:none"
         xml:space="preserve"><tspan
           style="font-style:normal;font-variant:normal;font-weight:normal;font-stretch:normal;font-size:10px;font-family:Arial;-inkscape-font-specification:Arial"
           y="478.88809"
           x="977.7702"
           id="tspan6937-5"
           sodipodi:role="line">Teeth</tspan></text>
      <text
         sodipodi:linespacing="125%"
         id="text6931-8-2"
         y="751.59351"
         x="1215.2094"
         style="font-style:normal;font-variant:normal;font-weight:normal;font-stretch:normal;font-size:12px;line-height:125%;font-family:Lato;-inkscape-font-specification:Lato;text-align:start;letter-spacing:0px;word-spacing:0px;text-anchor:start;fill:#000000;fill-opacity:1;stroke:none"
         xml:space="preserve"><tspan
           style="font-style:normal;font-variant:normal;font-weight:normal;font-stretch:normal;font-size:10px;font-family:Arial;-inkscape-font-specification:Arial"
           y="751.59351"
           x="1215.2094"
           id="tspan6933-8-2"
           sodipodi:role="line">Glottis</tspan></text>
    </g>
  </g>
</svg>
