<?xml version="1.0" encoding="utf-8" standalone="no"?>
<!DOCTYPE svg PUBLIC "-//W3C//DTD SVG 1.1//EN"
  "http://www.w3.org/Graphics/SVG/1.1/DTD/svg11.dtd">
<!-- Created with matplotlib (http://matplotlib.org/) -->
<svg height="216pt" version="1.1" viewBox="0 0 432 216" width="432pt" xmlns="http://www.w3.org/2000/svg" xmlns:xlink="http://www.w3.org/1999/xlink">
 <defs>
  <style type="text/css">
*{stroke-linecap:butt;stroke-linejoin:round;stroke-miterlimit:100000;}
  </style>
 </defs>
 <g id="figure_1">
  <g id="patch_1">
   <path d="M 0 216 
L 432 216 
L 432 0 
L 0 0 
z
" style="fill:#ffffff;"/>
  </g>
  <g id="axes_1">
   <g id="patch_2">
    <path d="M 43.7125 169.2 
L 414.16875 169.2 
L 414.16875 15.3 
L 43.7125 15.3 
z
" style="fill:#ffffff;"/>
   </g>
   <g id="matplotlib.axis_1">
    <g id="xtick_1">
     <g id="line2d_1">
      <defs>
       <path d="M 0 0 
L 0 6 
" id="mff2d346822" style="stroke:#262626;"/>
      </defs>
      <g>
       <use style="fill:#262626;stroke:#262626;" x="43.7125" xlink:href="#mff2d346822" y="169.2"/>
      </g>
     </g>
     <g id="text_1">
      <!-- 0.0 -->
      <defs>
       <path d="M 4.15625 35.296875 
Q 4.15625 48 6.765625 55.734375 
Q 9.375 63.484375 14.515625 67.671875 
Q 19.671875 71.875 27.484375 71.875 
Q 33.25 71.875 37.59375 69.546875 
Q 41.9375 67.234375 44.765625 62.859375 
Q 47.609375 58.5 49.21875 52.21875 
Q 50.828125 45.953125 50.828125 35.296875 
Q 50.828125 22.703125 48.234375 14.96875 
Q 45.65625 7.234375 40.5 3 
Q 35.359375 -1.21875 27.484375 -1.21875 
Q 17.140625 -1.21875 11.234375 6.203125 
Q 4.15625 15.140625 4.15625 35.296875 
M 13.1875 35.296875 
Q 13.1875 17.671875 17.3125 11.828125 
Q 21.4375 6 27.484375 6 
Q 33.546875 6 37.671875 11.859375 
Q 41.796875 17.71875 41.796875 35.296875 
Q 41.796875 52.984375 37.671875 58.78125 
Q 33.546875 64.59375 27.390625 64.59375 
Q 21.34375 64.59375 17.71875 59.46875 
Q 13.1875 52.9375 13.1875 35.296875 
" id="ArialMT-30"/>
       <path d="M 9.078125 0 
L 9.078125 10.015625 
L 19.09375 10.015625 
L 19.09375 0 
z
" id="ArialMT-2e"/>
      </defs>
      <g style="fill:#262626;" transform="translate(36.7625 189.3578125)scale(0.1 -0.1)">
       <use xlink:href="#ArialMT-30"/>
       <use x="55.615234375" xlink:href="#ArialMT-2e"/>
       <use x="83.3984375" xlink:href="#ArialMT-30"/>
      </g>
     </g>
    </g>
    <g id="xtick_2">
     <g id="line2d_2">
      <g>
       <use style="fill:#262626;stroke:#262626;" x="105.455208333" xlink:href="#mff2d346822" y="169.2"/>
      </g>
     </g>
     <g id="text_2">
      <!-- 0.2 -->
      <defs>
       <path d="M 50.34375 8.453125 
L 50.34375 0 
L 3.03125 0 
Q 2.9375 3.171875 4.046875 6.109375 
Q 5.859375 10.9375 9.828125 15.625 
Q 13.8125 20.3125 21.34375 26.46875 
Q 33.015625 36.03125 37.109375 41.625 
Q 41.21875 47.21875 41.21875 52.203125 
Q 41.21875 57.421875 37.46875 61 
Q 33.734375 64.59375 27.734375 64.59375 
Q 21.390625 64.59375 17.578125 60.78125 
Q 13.765625 56.984375 13.71875 50.25 
L 4.6875 51.171875 
Q 5.609375 61.28125 11.65625 66.578125 
Q 17.71875 71.875 27.9375 71.875 
Q 38.234375 71.875 44.234375 66.15625 
Q 50.25 60.453125 50.25 52 
Q 50.25 47.703125 48.484375 43.546875 
Q 46.734375 39.40625 42.65625 34.8125 
Q 38.578125 30.21875 29.109375 22.21875 
Q 21.1875 15.578125 18.9375 13.203125 
Q 16.703125 10.84375 15.234375 8.453125 
z
" id="ArialMT-32"/>
      </defs>
      <g style="fill:#262626;" transform="translate(98.5052083333 189.3578125)scale(0.1 -0.1)">
       <use xlink:href="#ArialMT-30"/>
       <use x="55.615234375" xlink:href="#ArialMT-2e"/>
       <use x="83.3984375" xlink:href="#ArialMT-32"/>
      </g>
     </g>
    </g>
    <g id="xtick_3">
     <g id="line2d_3">
      <g>
       <use style="fill:#262626;stroke:#262626;" x="167.197916667" xlink:href="#mff2d346822" y="169.2"/>
      </g>
     </g>
     <g id="text_3">
      <!-- 0.4 -->
      <defs>
       <path d="M 32.328125 0 
L 32.328125 17.140625 
L 1.265625 17.140625 
L 1.265625 25.203125 
L 33.9375 71.578125 
L 41.109375 71.578125 
L 41.109375 25.203125 
L 50.78125 25.203125 
L 50.78125 17.140625 
L 41.109375 17.140625 
L 41.109375 0 
z
M 32.328125 25.203125 
L 32.328125 57.46875 
L 9.90625 25.203125 
z
" id="ArialMT-34"/>
      </defs>
      <g style="fill:#262626;" transform="translate(160.247916667 189.3578125)scale(0.1 -0.1)">
       <use xlink:href="#ArialMT-30"/>
       <use x="55.615234375" xlink:href="#ArialMT-2e"/>
       <use x="83.3984375" xlink:href="#ArialMT-34"/>
      </g>
     </g>
    </g>
    <g id="xtick_4">
     <g id="line2d_4">
      <g>
       <use style="fill:#262626;stroke:#262626;" x="228.940625" xlink:href="#mff2d346822" y="169.2"/>
      </g>
     </g>
     <g id="text_4">
      <!-- 0.6 -->
      <defs>
       <path d="M 49.75 54.046875 
L 41.015625 53.375 
Q 39.84375 58.546875 37.703125 60.890625 
Q 34.125 64.65625 28.90625 64.65625 
Q 24.703125 64.65625 21.53125 62.3125 
Q 17.390625 59.28125 14.984375 53.46875 
Q 12.59375 47.65625 12.5 36.921875 
Q 15.671875 41.75 20.265625 44.09375 
Q 24.859375 46.4375 29.890625 46.4375 
Q 38.671875 46.4375 44.84375 39.96875 
Q 51.03125 33.5 51.03125 23.25 
Q 51.03125 16.5 48.125 10.71875 
Q 45.21875 4.9375 40.140625 1.859375 
Q 35.0625 -1.21875 28.609375 -1.21875 
Q 17.625 -1.21875 10.6875 6.859375 
Q 3.765625 14.9375 3.765625 33.5 
Q 3.765625 54.25 11.421875 63.671875 
Q 18.109375 71.875 29.4375 71.875 
Q 37.890625 71.875 43.28125 67.140625 
Q 48.6875 62.40625 49.75 54.046875 
M 13.875 23.1875 
Q 13.875 18.65625 15.796875 14.5 
Q 17.71875 10.359375 21.1875 8.171875 
Q 24.65625 6 28.46875 6 
Q 34.03125 6 38.03125 10.484375 
Q 42.046875 14.984375 42.046875 22.703125 
Q 42.046875 30.125 38.078125 34.390625 
Q 34.125 38.671875 28.125 38.671875 
Q 22.171875 38.671875 18.015625 34.390625 
Q 13.875 30.125 13.875 23.1875 
" id="ArialMT-36"/>
      </defs>
      <g style="fill:#262626;" transform="translate(221.990625 189.3578125)scale(0.1 -0.1)">
       <use xlink:href="#ArialMT-30"/>
       <use x="55.615234375" xlink:href="#ArialMT-2e"/>
       <use x="83.3984375" xlink:href="#ArialMT-36"/>
      </g>
     </g>
    </g>
    <g id="xtick_5">
     <g id="line2d_5">
      <g>
       <use style="fill:#262626;stroke:#262626;" x="290.683333333" xlink:href="#mff2d346822" y="169.2"/>
      </g>
     </g>
     <g id="text_5">
      <!-- 0.8 -->
      <defs>
       <path d="M 17.671875 38.8125 
Q 12.203125 40.828125 9.5625 44.53125 
Q 6.9375 48.25 6.9375 53.421875 
Q 6.9375 61.234375 12.546875 66.546875 
Q 18.171875 71.875 27.484375 71.875 
Q 36.859375 71.875 42.578125 66.421875 
Q 48.296875 60.984375 48.296875 53.171875 
Q 48.296875 48.1875 45.671875 44.5 
Q 43.0625 40.828125 37.75 38.8125 
Q 44.34375 36.671875 47.78125 31.875 
Q 51.21875 27.09375 51.21875 20.453125 
Q 51.21875 11.28125 44.71875 5.03125 
Q 38.234375 -1.21875 27.640625 -1.21875 
Q 17.046875 -1.21875 10.546875 5.046875 
Q 4.046875 11.328125 4.046875 20.703125 
Q 4.046875 27.6875 7.59375 32.390625 
Q 11.140625 37.109375 17.671875 38.8125 
M 15.921875 53.71875 
Q 15.921875 48.640625 19.1875 45.40625 
Q 22.46875 42.1875 27.6875 42.1875 
Q 32.765625 42.1875 36.015625 45.375 
Q 39.265625 48.578125 39.265625 53.21875 
Q 39.265625 58.0625 35.90625 61.359375 
Q 32.5625 64.65625 27.59375 64.65625 
Q 22.5625 64.65625 19.234375 61.421875 
Q 15.921875 58.203125 15.921875 53.71875 
M 13.09375 20.65625 
Q 13.09375 16.890625 14.875 13.375 
Q 16.65625 9.859375 20.171875 7.921875 
Q 23.6875 6 27.734375 6 
Q 34.03125 6 38.125 10.046875 
Q 42.234375 14.109375 42.234375 20.359375 
Q 42.234375 26.703125 38.015625 30.859375 
Q 33.796875 35.015625 27.4375 35.015625 
Q 21.234375 35.015625 17.15625 30.90625 
Q 13.09375 26.8125 13.09375 20.65625 
" id="ArialMT-38"/>
      </defs>
      <g style="fill:#262626;" transform="translate(283.733333333 189.3578125)scale(0.1 -0.1)">
       <use xlink:href="#ArialMT-30"/>
       <use x="55.615234375" xlink:href="#ArialMT-2e"/>
       <use x="83.3984375" xlink:href="#ArialMT-38"/>
      </g>
     </g>
    </g>
    <g id="xtick_6">
     <g id="line2d_6">
      <g>
       <use style="fill:#262626;stroke:#262626;" x="352.426041667" xlink:href="#mff2d346822" y="169.2"/>
      </g>
     </g>
     <g id="text_6">
      <!-- 1.0 -->
      <defs>
       <path d="M 37.25 0 
L 28.46875 0 
L 28.46875 56 
Q 25.296875 52.984375 20.140625 49.953125 
Q 14.984375 46.921875 10.890625 45.40625 
L 10.890625 53.90625 
Q 18.265625 57.375 23.78125 62.296875 
Q 29.296875 67.234375 31.59375 71.875 
L 37.25 71.875 
z
" id="ArialMT-31"/>
      </defs>
      <g style="fill:#262626;" transform="translate(345.476041667 189.3578125)scale(0.1 -0.1)">
       <use xlink:href="#ArialMT-31"/>
       <use x="55.615234375" xlink:href="#ArialMT-2e"/>
       <use x="83.3984375" xlink:href="#ArialMT-30"/>
      </g>
     </g>
    </g>
    <g id="xtick_7">
     <g id="line2d_7">
      <g>
       <use style="fill:#262626;stroke:#262626;" x="414.16875" xlink:href="#mff2d346822" y="169.2"/>
      </g>
     </g>
     <g id="text_7">
      <!-- 1.2 -->
      <g style="fill:#262626;" transform="translate(407.21875 189.3578125)scale(0.1 -0.1)">
       <use xlink:href="#ArialMT-31"/>
       <use x="55.615234375" xlink:href="#ArialMT-2e"/>
       <use x="83.3984375" xlink:href="#ArialMT-32"/>
      </g>
     </g>
    </g>
    <g id="text_8">
     <!-- Time (s) -->
     <defs>
      <path d="M 42.09375 16.703125 
L 51.171875 15.578125 
Q 49.03125 7.625 43.21875 3.21875 
Q 37.40625 -1.171875 28.375 -1.171875 
Q 17 -1.171875 10.328125 5.828125 
Q 3.65625 12.84375 3.65625 25.484375 
Q 3.65625 38.578125 10.390625 45.796875 
Q 17.140625 53.03125 27.875 53.03125 
Q 38.28125 53.03125 44.875 45.953125 
Q 51.46875 38.875 51.46875 26.03125 
Q 51.46875 25.25 51.421875 23.6875 
L 12.75 23.6875 
Q 13.234375 15.140625 17.578125 10.59375 
Q 21.921875 6.0625 28.421875 6.0625 
Q 33.25 6.0625 36.671875 8.59375 
Q 40.09375 11.140625 42.09375 16.703125 
M 13.234375 30.90625 
L 42.1875 30.90625 
Q 41.609375 37.453125 38.875 40.71875 
Q 34.671875 45.796875 27.984375 45.796875 
Q 21.921875 45.796875 17.796875 41.75 
Q 13.671875 37.703125 13.234375 30.90625 
" id="ArialMT-65"/>
      <path d="M 6.640625 61.46875 
L 6.640625 71.578125 
L 15.4375 71.578125 
L 15.4375 61.46875 
z
M 6.640625 0 
L 6.640625 51.859375 
L 15.4375 51.859375 
L 15.4375 0 
z
" id="ArialMT-69"/>
      <path d="M 6.59375 0 
L 6.59375 51.859375 
L 14.453125 51.859375 
L 14.453125 44.578125 
Q 16.890625 48.390625 20.9375 50.703125 
Q 25 53.03125 30.171875 53.03125 
Q 35.9375 53.03125 39.625 50.640625 
Q 43.3125 48.25 44.828125 43.953125 
Q 50.984375 53.03125 60.84375 53.03125 
Q 68.5625 53.03125 72.703125 48.75 
Q 76.859375 44.484375 76.859375 35.59375 
L 76.859375 0 
L 68.109375 0 
L 68.109375 32.671875 
Q 68.109375 37.9375 67.25 40.25 
Q 66.40625 42.578125 64.15625 43.984375 
Q 61.921875 45.40625 58.890625 45.40625 
Q 53.421875 45.40625 49.796875 41.765625 
Q 46.1875 38.140625 46.1875 30.125 
L 46.1875 0 
L 37.40625 0 
L 37.40625 33.6875 
Q 37.40625 39.546875 35.25 42.46875 
Q 33.109375 45.40625 28.21875 45.40625 
Q 24.515625 45.40625 21.359375 43.453125 
Q 18.21875 41.5 16.796875 37.734375 
Q 15.375 33.984375 15.375 26.90625 
L 15.375 0 
z
" id="ArialMT-6d"/>
      <path d="M 25.921875 0 
L 25.921875 63.140625 
L 2.34375 63.140625 
L 2.34375 71.578125 
L 59.078125 71.578125 
L 59.078125 63.140625 
L 35.40625 63.140625 
L 35.40625 0 
z
" id="ArialMT-54"/>
      <path d="M 3.078125 15.484375 
L 11.765625 16.84375 
Q 12.5 11.625 15.84375 8.84375 
Q 19.1875 6.0625 25.203125 6.0625 
Q 31.25 6.0625 34.171875 8.515625 
Q 37.109375 10.984375 37.109375 14.3125 
Q 37.109375 17.28125 34.515625 19 
Q 32.71875 20.171875 25.53125 21.96875 
Q 15.875 24.421875 12.140625 26.203125 
Q 8.40625 27.984375 6.46875 31.125 
Q 4.546875 34.28125 4.546875 38.09375 
Q 4.546875 41.546875 6.125 44.5 
Q 7.71875 47.46875 10.453125 49.421875 
Q 12.5 50.921875 16.03125 51.96875 
Q 19.578125 53.03125 23.640625 53.03125 
Q 29.734375 53.03125 34.34375 51.265625 
Q 38.96875 49.515625 41.15625 46.5 
Q 43.359375 43.5 44.1875 38.484375 
L 35.59375 37.3125 
Q 35.015625 41.3125 32.203125 43.546875 
Q 29.390625 45.796875 24.265625 45.796875 
Q 18.21875 45.796875 15.625 43.796875 
Q 13.03125 41.796875 13.03125 39.109375 
Q 13.03125 37.40625 14.109375 36.03125 
Q 15.1875 34.625 17.484375 33.6875 
Q 18.796875 33.203125 25.25 31.453125 
Q 34.578125 28.953125 38.25 27.359375 
Q 41.9375 25.78125 44.03125 22.75 
Q 46.140625 19.734375 46.140625 15.234375 
Q 46.140625 10.84375 43.578125 6.953125 
Q 41.015625 3.078125 36.171875 0.953125 
Q 31.34375 -1.171875 25.25 -1.171875 
Q 15.140625 -1.171875 9.84375 3.03125 
Q 4.546875 7.234375 3.078125 15.484375 
" id="ArialMT-73"/>
      <path d="M 12.359375 -21.046875 
L 6.0625 -21.046875 
Q 20.65625 2.390625 20.65625 25.875 
Q 20.65625 35.0625 18.5625 44.09375 
Q 16.890625 51.421875 13.921875 58.15625 
Q 12.015625 62.546875 6.0625 72.796875 
L 12.359375 72.796875 
Q 21.53125 60.546875 25.921875 48.1875 
Q 29.6875 37.546875 29.6875 25.921875 
Q 29.6875 12.75 24.625 0.4375 
Q 19.578125 -11.859375 12.359375 -21.046875 
" id="ArialMT-29"/>
      <path d="M 23.390625 -21.046875 
Q 16.109375 -11.859375 11.078125 0.4375 
Q 6.0625 12.75 6.0625 25.921875 
Q 6.0625 37.546875 9.8125 48.1875 
Q 14.203125 60.546875 23.390625 72.796875 
L 29.6875 72.796875 
Q 23.78125 62.640625 21.875 58.296875 
Q 18.890625 51.5625 17.1875 44.234375 
Q 15.09375 35.109375 15.09375 25.875 
Q 15.09375 2.390625 29.6875 -21.046875 
z
" id="ArialMT-28"/>
      <path id="ArialMT-20"/>
     </defs>
     <g style="fill:#262626;" transform="translate(208.78140625 204.35296875)scale(0.11 -0.11)">
      <use xlink:href="#ArialMT-54"/>
      <use x="61.037109375" xlink:href="#ArialMT-69"/>
      <use x="83.25390625" xlink:href="#ArialMT-6d"/>
      <use x="166.5546875" xlink:href="#ArialMT-65"/>
      <use x="222.169921875" xlink:href="#ArialMT-20"/>
      <use x="249.953125" xlink:href="#ArialMT-28"/>
      <use x="283.25390625" xlink:href="#ArialMT-73"/>
      <use x="333.25390625" xlink:href="#ArialMT-29"/>
     </g>
    </g>
   </g>
   <g id="matplotlib.axis_2">
    <g id="ytick_1">
     <g id="line2d_8">
      <defs>
       <path d="M 0 0 
L -6 0 
" id="m65f7d53867" style="stroke:#262626;"/>
      </defs>
      <g>
       <use style="fill:#262626;stroke:#262626;" x="43.7125" xlink:href="#m65f7d53867" y="169.2"/>
      </g>
     </g>
     <g id="text_9">
      <!-- −0.2 -->
      <defs>
       <path d="M 52.828125 31.203125 
L 5.5625 31.203125 
L 5.5625 39.40625 
L 52.828125 39.40625 
z
" id="ArialMT-2212"/>
      </defs>
      <g style="fill:#262626;" transform="translate(10.971875 171.78515625)scale(0.1 -0.1)">
       <use xlink:href="#ArialMT-2212"/>
       <use x="58.3984375" xlink:href="#ArialMT-30"/>
       <use x="114.013671875" xlink:href="#ArialMT-2e"/>
       <use x="141.796875" xlink:href="#ArialMT-32"/>
      </g>
     </g>
    </g>
    <g id="ytick_2">
     <g id="line2d_9">
      <g>
       <use style="fill:#262626;stroke:#262626;" x="43.7125" xlink:href="#m65f7d53867" y="147.214285714"/>
      </g>
     </g>
     <g id="text_10">
      <!-- 0.0 -->
      <g style="fill:#262626;" transform="translate(16.8125 149.799441964)scale(0.1 -0.1)">
       <use xlink:href="#ArialMT-30"/>
       <use x="55.615234375" xlink:href="#ArialMT-2e"/>
       <use x="83.3984375" xlink:href="#ArialMT-30"/>
      </g>
     </g>
    </g>
    <g id="ytick_3">
     <g id="line2d_10">
      <g>
       <use style="fill:#262626;stroke:#262626;" x="43.7125" xlink:href="#m65f7d53867" y="125.228571429"/>
      </g>
     </g>
     <g id="text_11">
      <!-- 0.2 -->
      <g style="fill:#262626;" transform="translate(16.8125 127.813727679)scale(0.1 -0.1)">
       <use xlink:href="#ArialMT-30"/>
       <use x="55.615234375" xlink:href="#ArialMT-2e"/>
       <use x="83.3984375" xlink:href="#ArialMT-32"/>
      </g>
     </g>
    </g>
    <g id="ytick_4">
     <g id="line2d_11">
      <g>
       <use style="fill:#262626;stroke:#262626;" x="43.7125" xlink:href="#m65f7d53867" y="103.242857143"/>
      </g>
     </g>
     <g id="text_12">
      <!-- 0.4 -->
      <g style="fill:#262626;" transform="translate(16.8125 105.828013393)scale(0.1 -0.1)">
       <use xlink:href="#ArialMT-30"/>
       <use x="55.615234375" xlink:href="#ArialMT-2e"/>
       <use x="83.3984375" xlink:href="#ArialMT-34"/>
      </g>
     </g>
    </g>
    <g id="ytick_5">
     <g id="line2d_12">
      <g>
       <use style="fill:#262626;stroke:#262626;" x="43.7125" xlink:href="#m65f7d53867" y="81.2571428571"/>
      </g>
     </g>
     <g id="text_13">
      <!-- 0.6 -->
      <g style="fill:#262626;" transform="translate(16.8125 83.8422991071)scale(0.1 -0.1)">
       <use xlink:href="#ArialMT-30"/>
       <use x="55.615234375" xlink:href="#ArialMT-2e"/>
       <use x="83.3984375" xlink:href="#ArialMT-36"/>
      </g>
     </g>
    </g>
    <g id="ytick_6">
     <g id="line2d_13">
      <g>
       <use style="fill:#262626;stroke:#262626;" x="43.7125" xlink:href="#m65f7d53867" y="59.2714285714"/>
      </g>
     </g>
     <g id="text_14">
      <!-- 0.8 -->
      <g style="fill:#262626;" transform="translate(16.8125 61.8565848214)scale(0.1 -0.1)">
       <use xlink:href="#ArialMT-30"/>
       <use x="55.615234375" xlink:href="#ArialMT-2e"/>
       <use x="83.3984375" xlink:href="#ArialMT-38"/>
      </g>
     </g>
    </g>
    <g id="ytick_7">
     <g id="line2d_14">
      <g>
       <use style="fill:#262626;stroke:#262626;" x="43.7125" xlink:href="#m65f7d53867" y="37.2857142857"/>
      </g>
     </g>
     <g id="text_15">
      <!-- 1.0 -->
      <g style="fill:#262626;" transform="translate(16.8125 39.8708705357)scale(0.1 -0.1)">
       <use xlink:href="#ArialMT-31"/>
       <use x="55.615234375" xlink:href="#ArialMT-2e"/>
       <use x="83.3984375" xlink:href="#ArialMT-30"/>
      </g>
     </g>
    </g>
    <g id="ytick_8">
     <g id="line2d_15">
      <g>
       <use style="fill:#262626;stroke:#262626;" x="43.7125" xlink:href="#m65f7d53867" y="15.3"/>
      </g>
     </g>
     <g id="text_16">
      <!-- 1.2 -->
      <g style="fill:#262626;" transform="translate(16.8125 17.88515625)scale(0.1 -0.1)">
       <use xlink:href="#ArialMT-31"/>
       <use x="55.615234375" xlink:href="#ArialMT-2e"/>
       <use x="83.3984375" xlink:href="#ArialMT-32"/>
      </g>
     </g>
    </g>
   </g>
   <g id="line2d_16">
    <path clip-path="url(#p6c92427f73)" d="M 44.021214 147.214286 
L 44.329927 147.214286 
L 44.638641 147.076123 
L 44.947354 148.966059 
L 45.564781 146.600345 
L 45.873495 146.454311 
L 46.182208 148.039399 
L 46.490922 148.108002 
L 46.799635 148.573134 
L 47.108349 147.661006 
L 47.417063 149.019774 
L 47.725776 146.55387 
L 48.03449 148.10767 
L 48.343203 146.333417 
L 48.651917 145.960112 
L 48.96063 146.774252 
L 49.269344 145.919831 
L 49.578057 146.772025 
L 49.886771 145.857442 
L 50.195484 148.498963 
L 50.504198 147.147701 
L 50.812911 146.894317 
L 51.430339 148.925248 
L 52.047766 145.708656 
L 52.356479 147.147852 
L 52.665193 147.337319 
L 52.973906 148.288675 
L 53.28262 146.41825 
L 53.591333 146.405718 
L 53.900047 146.173624 
L 54.20876 147.194112 
L 54.517474 147.130899 
L 54.826188 145.765956 
L 55.443615 147.707162 
L 55.752328 148.32699 
L 56.061042 146.00971 
L 56.369755 145.903863 
L 56.987182 148.240057 
L 57.295896 148.852516 
L 57.604609 145.996969 
L 58.222036 146.225656 
L 58.839464 147.086615 
L 59.148177 147.812565 
L 59.456891 147.286881 
L 59.765604 146.005105 
L 60.074318 147.602036 
L 60.383031 147.618411 
L 60.691745 145.849087 
L 61.000458 146.590842 
L 61.309172 147.850566 
L 61.617885 147.210858 
L 61.926599 147.034949 
L 62.235313 148.577211 
L 62.544026 147.228835 
L 62.85274 146.9122 
L 63.161453 146.434519 
L 63.470167 147.617143 
L 63.77888 147.390946 
L 64.087594 146.949934 
L 64.705021 145.613729 
L 65.322448 146.700867 
L 65.631161 146.038998 
L 65.939875 147.155378 
L 66.248589 146.573524 
L 66.557302 147.584402 
L 66.866016 147.527344 
L 67.174729 147.660273 
L 67.792156 146.035583 
L 68.10087 148.316615 
L 68.409583 147.794815 
L 68.718297 146.594205 
L 69.335724 148.431052 
L 69.644438 146.23489 
L 69.953151 147.13261 
L 70.261865 147.424786 
L 70.570578 144.737116 
L 70.879292 144.404524 
L 71.188005 146.893606 
L 71.496719 147.405652 
L 71.805432 145.742523 
L 72.114146 147.684385 
L 72.422859 147.583676 
L 72.731573 147.150679 
L 73.040286 147.323042 
L 73.349 146.800029 
L 73.657714 146.602064 
L 73.966427 148.986802 
L 74.275141 147.582724 
L 74.583854 148.233478 
L 74.892568 147.390662 
L 75.201281 147.598403 
L 75.818708 146.364697 
L 76.127422 146.286651 
L 76.436135 146.802941 
L 76.744849 146.82264 
L 77.053562 145.972498 
L 77.362276 147.287616 
L 77.67099 147.162556 
L 77.979703 146.871045 
L 78.288417 147.09727 
L 78.59713 146.141408 
L 78.905844 146.586859 
L 79.214557 148.038874 
L 79.523271 146.37649 
L 79.831984 145.404846 
L 80.140698 146.60336 
L 80.449411 146.125469 
L 80.758125 146.109976 
L 81.066839 146.58607 
L 81.375552 146.383711 
L 81.684266 143.464927 
L 81.992979 145.291756 
L 82.301693 146.032598 
L 82.610406 145.824377 
L 82.91912 146.503722 
L 83.227833 144.996735 
L 83.536547 147.123775 
L 84.462688 142.889112 
L 84.771401 143.666894 
L 85.080115 145.391918 
L 85.388828 144.839362 
L 85.697542 144.717097 
L 86.006255 145.944974 
L 86.314969 145.6397 
L 86.623682 144.059373 
L 86.932396 144.118898 
L 87.549823 142.792016 
L 87.858536 143.848502 
L 88.16725 145.363313 
L 88.475964 144.375994 
L 88.784677 144.411664 
L 89.402104 142.947807 
L 89.710818 142.642746 
L 90.019531 144.114568 
L 90.328245 143.401174 
L 90.636958 144.120785 
L 90.945672 143.747622 
L 91.254385 143.162904 
L 91.563099 139.567725 
L 91.871813 142.552946 
L 92.180526 143.696518 
L 92.48924 144.006096 
L 92.797953 142.55239 
L 93.106667 142.091102 
L 93.41538 142.324511 
L 93.724094 140.503453 
L 94.032807 141.38687 
L 94.341521 140.496328 
L 94.958948 140.001109 
L 95.267661 140.984276 
L 95.576375 141.284743 
L 95.885089 142.418606 
L 96.193802 142.049023 
L 96.502516 142.447372 
L 96.811229 140.554177 
L 97.119943 142.198565 
L 97.428656 140.793993 
L 97.73737 140.872794 
L 98.354797 139.137913 
L 98.972224 140.546161 
L 99.280937 140.047 
L 99.589651 139.123617 
L 99.898365 140.116528 
L 100.207078 139.632388 
L 100.515792 140.303879 
L 101.133219 138.132689 
L 101.441932 141.784607 
L 101.750646 141.907371 
L 102.059359 138.15543 
L 102.368073 137.84132 
L 102.676786 136.644703 
L 102.9855 138.681259 
L 103.294214 138.20733 
L 103.602927 138.583885 
L 104.220354 137.818343 
L 104.529068 138.664105 
L 104.837781 139.137589 
L 105.146495 137.754976 
L 105.455208 137.626128 
L 105.763922 138.498022 
L 106.381349 136.68826 
L 106.690063 136.760236 
L 106.998776 137.500383 
L 107.30749 137.09269 
L 107.616203 137.949775 
L 107.924917 136.632607 
L 108.23363 136.361159 
L 108.542344 137.410412 
L 108.851057 136.166819 
L 109.159771 138.289104 
L 109.468484 137.082363 
L 109.777198 136.595836 
L 110.085911 135.398746 
L 110.394625 135.43407 
L 111.012052 137.322472 
L 111.320766 138.647089 
L 111.629479 134.825198 
L 111.938193 134.531587 
L 112.246906 135.163599 
L 113.173047 134.828069 
L 113.48176 136.57533 
L 113.790474 133.797807 
L 114.099187 135.024296 
L 114.407901 135.380451 
L 114.716615 132.685961 
L 115.025328 134.71356 
L 115.334042 133.219086 
L 115.642755 135.723102 
L 115.951469 133.976425 
L 116.260182 133.948005 
L 116.877609 132.804354 
L 117.186323 133.996302 
L 118.112464 131.818661 
L 118.421177 133.855603 
L 118.729891 134.138254 
L 119.038604 132.347228 
L 119.347318 134.245749 
L 119.656031 133.99512 
L 119.964745 133.196254 
L 120.273458 130.890374 
L 120.582172 131.16973 
L 120.890885 134.595244 
L 121.199599 133.977246 
L 121.508313 131.38088 
L 121.817026 131.11058 
L 122.434453 132.20265 
L 122.743167 130.618763 
L 123.05188 133.270543 
L 123.669307 132.360088 
L 123.978021 131.268954 
L 124.286734 129.210695 
L 124.904161 132.396465 
L 125.212875 129.948698 
L 125.521589 129.559435 
L 125.830302 131.71883 
L 126.139016 132.07977 
L 126.447729 129.131675 
L 126.756443 129.21466 
L 127.065156 129.683659 
L 127.37387 130.871485 
L 127.682583 131.468904 
L 127.991297 131.752026 
L 128.30001 130.603077 
L 128.608724 128.805951 
L 128.917438 129.096998 
L 129.226151 130.259138 
L 129.534865 130.415475 
L 129.843578 129.193955 
L 130.152292 128.749951 
L 130.461005 129.636694 
L 130.769719 129.973447 
L 131.078432 128.52571 
L 131.387146 128.480461 
L 131.695859 127.969667 
L 132.004573 129.1968 
L 132.313286 128.953718 
L 132.622 128.541409 
L 132.930714 127.849675 
L 133.239427 128.842062 
L 133.548141 127.742886 
L 133.856854 127.147862 
L 134.165568 127.960606 
L 134.474281 127.465565 
L 134.782995 129.113438 
L 135.091708 128.784994 
L 135.709135 125.892209 
L 136.017849 125.375495 
L 136.326562 126.258181 
L 136.635276 127.648861 
L 136.94399 126.666226 
L 137.252703 126.239815 
L 137.561417 126.088719 
L 137.87013 126.128328 
L 138.178844 127.238229 
L 138.487557 126.468711 
L 138.796271 124.870267 
L 139.104984 127.061331 
L 139.413698 124.633321 
L 139.722411 127.181124 
L 140.031125 125.513856 
L 140.339839 125.586743 
L 140.648552 125.076717 
L 140.957266 124.806866 
L 141.265979 124.981172 
L 141.883406 124.93714 
L 142.500833 126.01054 
L 143.11826 123.623103 
L 143.426974 126.100398 
L 143.735687 124.839158 
L 144.044401 124.291705 
L 144.353115 124.394916 
L 144.661828 125.092513 
L 144.970542 121.916011 
L 145.587969 125.614608 
L 145.896682 124.152307 
L 146.205396 119.558303 
L 146.514109 123.376496 
L 146.822823 124.814281 
L 147.131536 123.799698 
L 147.44025 123.629669 
L 147.748964 123.163483 
L 148.057677 124.283589 
L 148.675104 120.843371 
L 148.983818 123.992444 
L 149.909958 120.126587 
L 150.527385 123.096965 
L 151.144813 121.482304 
L 151.453526 122.725261 
L 151.76224 122.038142 
L 152.070953 121.755722 
L 152.379667 120.905558 
L 152.68838 121.020574 
L 153.305807 120.848468 
L 153.923234 121.023705 
L 154.231948 119.742658 
L 154.540661 120.554654 
L 154.849375 118.931335 
L 155.158089 119.808746 
L 155.466802 121.794778 
L 155.775516 119.056834 
L 156.084229 119.715848 
L 156.392943 121.409466 
L 157.01037 118.123825 
L 157.319083 118.576554 
L 157.93651 121.424285 
L 158.245224 119.600959 
L 158.553937 118.54264 
L 159.171365 118.274669 
L 159.480078 117.117678 
L 159.788792 117.50457 
L 160.097505 120.468445 
L 160.406219 117.706779 
L 161.023646 117.709028 
L 161.332359 114.806175 
L 161.641073 117.569033 
L 161.949786 118.5638 
L 162.2585 117.967611 
L 162.567214 118.32588 
L 162.875927 119.122827 
L 163.184641 119.189492 
L 163.493354 115.98004 
L 163.802068 116.286709 
L 164.110781 116.204947 
L 164.419495 116.920311 
L 164.728208 117.200523 
L 165.036922 118.180476 
L 165.345635 115.563551 
L 165.654349 115.416182 
L 165.963062 117.030294 
L 166.271776 117.12925 
L 166.58049 117.456349 
L 166.889203 115.309277 
L 167.197917 115.061868 
L 167.50663 115.072599 
L 167.815344 115.96823 
L 168.124057 114.042845 
L 168.432771 116.714556 
L 168.741484 115.002121 
L 169.050198 115.556928 
L 169.358911 115.731024 
L 169.667625 113.573066 
L 169.976339 113.574942 
L 170.593766 115.378115 
L 170.902479 113.262227 
L 171.211193 114.90403 
L 171.519906 114.785361 
L 171.82862 113.809662 
L 172.137333 114.375159 
L 172.446047 115.639623 
L 172.75476 113.235764 
L 173.063474 113.926272 
L 173.372187 113.149879 
L 173.680901 115.195553 
L 173.989615 111.994718 
L 174.298328 112.661486 
L 174.607042 112.666471 
L 174.915755 114.23325 
L 175.224469 112.974309 
L 175.533182 114.036859 
L 175.841896 112.358324 
L 176.150609 113.135145 
L 176.459323 113.312798 
L 176.768036 111.635527 
L 177.07675 111.671038 
L 177.385464 112.415612 
L 177.694177 112.401758 
L 178.002891 111.811866 
L 178.311604 113.370264 
L 178.620318 111.831762 
L 178.929031 111.181677 
L 179.237745 111.617544 
L 179.546458 111.667876 
L 179.855172 110.745143 
L 180.163885 110.882418 
L 180.472599 109.496646 
L 180.781312 111.559069 
L 181.090026 110.451308 
L 181.39874 111.988857 
L 181.707453 112.0895 
L 182.32488 109.631245 
L 182.633594 111.892066 
L 183.251021 109.388751 
L 183.559734 109.045594 
L 183.868448 110.889153 
L 184.177161 110.394994 
L 184.485875 109.484297 
L 184.794589 109.180086 
L 185.103302 110.083342 
L 185.412016 109.086808 
L 185.720729 107.467925 
L 186.029443 108.964226 
L 186.338156 108.319217 
L 186.64687 110.077388 
L 186.955583 108.272627 
L 187.264297 110.061262 
L 187.57301 109.875575 
L 187.881724 108.256704 
L 188.190438 109.370265 
L 188.499151 108.709506 
L 188.807865 108.816128 
L 189.116578 107.255011 
L 189.425292 107.680166 
L 189.734005 108.659615 
L 190.042719 108.718644 
L 190.351432 108.59395 
L 190.660146 107.745876 
L 190.968859 109.098953 
L 191.277573 107.709561 
L 191.586286 108.442406 
L 191.895 106.21023 
L 192.203714 108.549627 
L 192.821141 106.158421 
L 193.129854 107.933271 
L 193.438568 107.958751 
L 193.747281 104.825806 
L 194.364708 108.169124 
L 194.982135 105.714554 
L 195.290849 106.953392 
L 195.599562 106.392795 
L 195.908276 106.909635 
L 196.21699 106.839477 
L 196.525703 105.589842 
L 196.834417 105.3423 
L 197.14313 104.751164 
L 197.451844 106.47358 
L 197.760557 107.158238 
L 198.069271 102.334722 
L 198.377984 103.325763 
L 198.686698 106.235425 
L 198.995411 106.118753 
L 199.304125 103.322343 
L 199.612839 103.91734 
L 199.921552 105.663759 
L 200.230266 103.588344 
L 200.538979 104.008197 
L 200.847693 104.882914 
L 201.46512 104.31937 
L 201.773833 105.446501 
L 202.082547 105.397453 
L 202.39126 102.12639 
L 202.699974 102.455766 
L 203.008687 104.624834 
L 203.317401 102.719269 
L 203.626115 102.056235 
L 204.243542 105.077984 
L 204.552255 102.974068 
L 204.860969 102.015878 
L 205.169682 101.967207 
L 205.478396 100.340876 
L 205.787109 102.013011 
L 206.095823 102.239644 
L 206.404536 101.729191 
L 206.71325 102.362638 
L 207.021964 101.72621 
L 207.330677 101.85978 
L 207.639391 103.067763 
L 207.948104 101.113033 
L 208.256818 102.085967 
L 208.565531 101.316332 
L 208.874245 101.116111 
L 209.182958 100.645357 
L 209.491672 100.639962 
L 209.800385 100.416839 
L 210.109099 98.01164 
L 210.417812 100.713261 
L 210.726526 100.317794 
L 211.03524 100.88438 
L 211.343953 100.475987 
L 211.652667 98.092094 
L 211.96138 99.338908 
L 212.270094 98.649062 
L 212.578807 99.588584 
L 212.887521 99.957961 
L 213.196234 99.042374 
L 213.504948 98.749655 
L 213.813661 98.24116 
L 214.431089 100.76191 
L 214.739802 99.066459 
L 215.048516 96.605393 
L 215.357229 100.089356 
L 215.974656 98.054966 
L 216.28337 98.187173 
L 216.592083 98.530369 
L 216.900797 96.713376 
L 217.20951 99.25403 
L 217.518224 98.074824 
L 217.826938 97.55701 
L 218.135651 97.434754 
L 218.444365 98.024198 
L 218.753078 95.971837 
L 219.370505 97.956833 
L 219.679219 96.04495 
L 219.987932 97.599454 
L 220.296646 95.854391 
L 220.605359 97.478399 
L 220.914073 97.289797 
L 221.222786 95.965895 
L 221.840214 96.691144 
L 222.148927 97.932429 
L 222.457641 95.861172 
L 222.766354 94.577606 
L 223.075068 96.962301 
L 223.383781 95.796635 
L 223.692495 96.234753 
L 224.001208 97.298531 
L 224.309922 94.586419 
L 224.618635 93.296517 
L 224.927349 94.831299 
L 225.236062 95.759067 
L 225.544776 93.677933 
L 225.85349 94.872146 
L 226.162203 97.093551 
L 226.470917 94.783329 
L 226.77963 93.929736 
L 227.088344 94.557893 
L 227.397057 93.470996 
L 227.705771 92.895273 
L 228.014484 93.792944 
L 228.323198 94.138607 
L 228.631911 95.49724 
L 228.940625 93.083038 
L 229.249339 91.912846 
L 229.558052 92.471667 
L 229.866766 93.842375 
L 230.175479 91.249861 
L 230.484193 91.114746 
L 230.792906 92.215002 
L 231.10162 94.241759 
L 231.719047 91.84472 
L 232.02776 92.851849 
L 232.336474 94.826477 
L 232.645187 91.601235 
L 232.953901 90.178961 
L 233.571328 93.08856 
L 233.880042 92.944264 
L 234.188755 91.992919 
L 234.497469 91.564735 
L 234.806182 93.654996 
L 235.114896 92.297673 
L 235.423609 92.80997 
L 235.732323 90.347043 
L 236.041036 89.964181 
L 236.34975 89.017854 
L 236.658464 92.05921 
L 236.967177 93.632733 
L 237.584604 88.15464 
L 238.202031 90.581319 
L 238.510745 89.531081 
L 238.819458 89.58163 
L 239.128172 90.737521 
L 239.436885 89.360139 
L 239.745599 91.700097 
L 240.054312 91.247536 
L 240.363026 89.55783 
L 240.67174 89.705087 
L 241.289167 87.863537 
L 241.59788 90.691791 
L 241.906594 89.836935 
L 242.215307 86.085937 
L 242.524021 87.552821 
L 242.832734 89.979735 
L 243.141448 86.925906 
L 243.450161 87.050731 
L 243.758875 87.499838 
L 244.067589 86.459912 
L 244.376302 87.436585 
L 244.685016 88.827652 
L 245.302443 87.43253 
L 245.91987 87.486984 
L 246.228583 87.917258 
L 246.84601 85.620875 
L 247.154724 85.453495 
L 247.772151 88.078034 
L 248.080865 84.817345 
L 248.389578 86.532625 
L 248.698292 86.453904 
L 249.007005 85.386394 
L 249.315719 86.376124 
L 249.933146 86.604351 
L 250.241859 86.868021 
L 250.550573 85.395525 
L 250.859286 86.948827 
L 251.168 86.188624 
L 251.476714 83.927928 
L 252.094141 85.082219 
L 252.402854 84.338395 
L 252.711568 84.881246 
L 253.020281 85.831221 
L 253.328995 84.484263 
L 253.637708 85.779584 
L 253.946422 83.090808 
L 254.563849 84.879847 
L 254.872562 84.58328 
L 255.181276 83.867007 
L 255.48999 82.747843 
L 255.798703 82.534386 
L 256.107417 82.57442 
L 256.724844 83.942949 
L 257.033557 83.403487 
L 257.342271 83.205951 
L 257.650984 84.166205 
L 257.959698 84.415034 
L 258.268411 84.075992 
L 258.577125 81.771101 
L 258.885839 83.247754 
L 259.194552 82.193687 
L 259.811979 81.837856 
L 260.120693 82.397206 
L 260.429406 81.163654 
L 261.046833 81.918089 
L 261.355547 83.163675 
L 261.66426 81.334867 
L 261.972974 81.074941 
L 262.281687 82.473952 
L 262.590401 81.110715 
L 262.899115 81.64395 
L 263.207828 82.712306 
L 263.516542 80.811253 
L 263.825255 80.354039 
L 264.133969 81.156901 
L 264.442682 80.867383 
L 264.751396 82.128235 
L 265.060109 80.925547 
L 265.368823 80.770577 
L 265.677536 80.192475 
L 265.98625 81.58851 
L 266.603677 79.400565 
L 267.221104 82.117783 
L 267.529818 78.844683 
L 267.838531 80.655579 
L 268.147245 81.5978 
L 268.455958 79.14596 
L 268.764672 79.834363 
L 269.382099 80.396087 
L 269.690812 79.263864 
L 269.999526 79.810499 
L 270.30824 78.887347 
L 270.616953 80.149977 
L 270.925667 78.257223 
L 271.23438 77.966569 
L 271.543094 80.91762 
L 271.851807 76.6612 
L 272.469234 81.081514 
L 272.777948 78.849068 
L 273.086661 79.569184 
L 273.395375 77.459702 
L 273.704089 77.341581 
L 274.012802 77.880029 
L 274.321516 77.190785 
L 274.630229 77.626265 
L 274.938943 79.41876 
L 275.55637 78.401707 
L 275.865083 76.882707 
L 276.173797 76.145479 
L 276.48251 78.680851 
L 277.099938 75.244268 
L 277.408651 76.925462 
L 277.717365 76.553658 
L 278.026078 76.811792 
L 278.334792 76.496193 
L 278.643505 79.31234 
L 279.260932 75.440017 
L 279.569646 77.899005 
L 279.878359 75.443718 
L 280.187073 75.08075 
L 280.495786 76.231529 
L 280.8045 74.720048 
L 281.113214 75.387205 
L 281.421927 75.512253 
L 281.730641 76.854503 
L 282.039354 74.826192 
L 282.348068 74.992235 
L 282.656781 74.406517 
L 283.274208 75.570371 
L 283.582922 74.624887 
L 283.891635 76.790436 
L 284.509062 74.621369 
L 284.817776 76.027761 
L 285.12649 73.679002 
L 285.435203 75.02942 
L 285.743917 74.600959 
L 286.05263 72.527744 
L 286.361344 73.119363 
L 286.670057 74.902816 
L 286.978771 70.920195 
L 287.596198 75.590646 
L 287.904911 73.666751 
L 288.213625 74.871795 
L 288.522339 74.522047 
L 288.831052 72.808259 
L 289.139766 74.804392 
L 289.448479 71.527633 
L 289.757193 70.654171 
L 290.065906 72.195395 
L 290.37462 72.57309 
L 290.683333 74.149643 
L 290.992047 71.636724 
L 291.30076 70.993574 
L 291.609474 71.621256 
L 291.918187 72.541877 
L 292.226901 71.677205 
L 292.535615 72.300321 
L 293.153042 69.668251 
L 293.461755 71.969713 
L 293.770469 72.318962 
L 294.079182 70.754748 
L 294.387896 70.128415 
L 294.696609 71.977367 
L 295.005323 71.282888 
L 295.314036 71.887155 
L 295.62275 71.870337 
L 295.931464 69.948069 
L 296.240177 69.771591 
L 296.548891 71.140244 
L 296.857604 70.906469 
L 297.166318 70.848235 
L 297.475031 70.910229 
L 297.783745 70.572795 
L 298.092458 68.562836 
L 298.401172 68.933258 
L 298.709885 70.33616 
L 299.018599 69.746312 
L 299.327313 69.407239 
L 299.636026 70.465822 
L 299.94474 69.028919 
L 300.253453 70.132544 
L 300.562167 69.1224 
L 300.87088 69.302303 
L 301.179594 70.357551 
L 301.488307 69.733459 
L 301.797021 68.271493 
L 302.105734 68.784989 
L 302.414448 67.612991 
L 302.723161 69.259967 
L 303.340589 68.77928 
L 303.649302 66.99223 
L 303.958016 67.349943 
L 304.266729 68.034784 
L 304.884156 66.946588 
L 305.19287 68.611895 
L 305.501583 67.620009 
L 305.810297 66.170132 
L 306.11901 67.566337 
L 306.427724 69.591291 
L 306.736437 66.619881 
L 307.045151 65.661614 
L 307.353865 67.852831 
L 308.280005 66.361949 
L 308.588719 66.440705 
L 308.897432 68.200575 
L 309.206146 67.815551 
L 309.514859 65.751821 
L 309.823573 66.205976 
L 310.132286 67.288278 
L 310.441 64.833887 
L 310.749714 66.53011 
L 311.058427 67.013186 
L 311.367141 66.829536 
L 311.675854 65.56961 
L 311.984568 65.93851 
L 312.293281 65.520976 
L 312.601995 66.24826 
L 312.910708 65.510618 
L 313.219422 65.12717 
L 313.528135 64.928575 
L 313.836849 63.502281 
L 314.145562 65.812054 
L 314.454276 65.734121 
L 314.76299 63.099974 
L 315.071703 64.184735 
L 315.380417 64.487642 
L 315.68913 62.771226 
L 315.997844 62.94235 
L 316.306557 64.45525 
L 316.615271 63.508682 
L 316.923984 63.83474 
L 317.232698 65.671112 
L 317.541411 63.727396 
L 317.850125 62.94702 
L 318.467552 64.728073 
L 318.776266 63.104985 
L 319.084979 60.461375 
L 319.393693 62.396454 
L 319.702406 63.236695 
L 320.01112 61.763046 
L 320.319833 61.637689 
L 320.628547 60.975713 
L 320.93726 61.761745 
L 321.245974 59.952827 
L 321.554688 61.576517 
L 321.863401 62.189238 
L 322.172115 60.466841 
L 322.480828 61.658396 
L 322.789542 61.711848 
L 323.098255 60.926812 
L 323.406969 61.360049 
L 323.715682 57.820332 
L 324.024396 60.901407 
L 324.333109 61.907188 
L 324.641823 58.392859 
L 325.25925 61.607691 
L 325.567964 59.214579 
L 326.185391 60.133869 
L 326.494104 60.239367 
L 326.802818 57.657953 
L 327.111531 60.340383 
L 327.420245 61.870783 
L 327.728958 59.347991 
L 328.037672 59.031595 
L 328.346385 58.242319 
L 328.655099 56.368203 
L 328.963813 57.499532 
L 329.272526 59.755978 
L 329.58124 57.623211 
L 329.889953 56.917646 
L 330.198667 58.144344 
L 330.50738 55.764396 
L 330.816094 56.624678 
L 331.124807 58.732755 
L 331.433521 56.416587 
L 331.742234 56.093598 
L 332.050948 57.81611 
L 332.359661 55.887679 
L 332.668375 57.314443 
L 332.977089 58.040335 
L 333.285802 56.282204 
L 333.594516 56.345183 
L 333.903229 59.465197 
L 334.211943 56.1511 
L 334.520656 57.746647 
L 334.82937 56.71217 
L 335.138083 54.238888 
L 335.446797 56.606775 
L 335.75551 55.806305 
L 336.064224 54.303516 
L 336.372938 55.928201 
L 336.681651 56.443695 
L 336.990365 54.379098 
L 337.299078 55.3122 
L 337.607792 55.768328 
L 337.916505 56.600021 
L 338.225219 55.156526 
L 338.533932 54.587481 
L 338.842646 53.730189 
L 339.151359 55.333419 
L 339.460073 54.788524 
L 339.768786 53.869111 
L 340.0775 54.965227 
L 340.386214 54.484935 
L 340.694927 53.203356 
L 341.003641 54.256763 
L 341.312354 52.007978 
L 341.621068 50.587748 
L 341.929781 53.438984 
L 342.238495 53.320971 
L 342.547208 54.381042 
L 342.855922 53.222847 
L 343.473349 52.178751 
L 343.782062 53.54163 
L 344.090776 52.984372 
L 344.39949 50.706621 
L 344.708203 51.759292 
L 345.016917 53.746932 
L 345.32563 50.976314 
L 345.634344 52.746226 
L 345.943057 52.301704 
L 346.251771 50.540331 
L 346.560484 52.649592 
L 346.869198 51.001711 
L 347.177911 50.385991 
L 347.795339 53.216321 
L 348.104052 50.016662 
L 348.412766 53.415199 
L 348.721479 51.378404 
L 349.338906 50.591459 
L 349.64762 49.663065 
L 349.956333 50.904562 
L 350.265047 50.676754 
L 350.57376 49.933871 
L 350.882474 50.063901 
L 351.191187 49.500227 
L 351.499901 48.675484 
L 351.808615 50.421655 
L 352.117328 49.446989 
L 352.426042 49.385617 
L 352.734755 50.270307 
L 353.043469 51.715331 
L 353.352182 49.209507 
L 353.660896 48.709509 
L 353.969609 50.247314 
L 354.278323 48.54935 
L 354.587036 50.068688 
L 355.204464 48.931821 
L 355.513177 49.081644 
L 355.821891 48.921571 
L 356.130604 47.013035 
L 356.748031 49.302047 
L 357.056745 48.505165 
L 357.365458 48.846845 
L 357.674172 47.066198 
L 357.982885 46.794289 
L 358.291599 49.114317 
L 358.600312 46.93045 
L 358.909026 46.312693 
L 359.21774 47.749599 
L 359.526453 47.488151 
L 359.835167 49.329493 
L 360.452594 45.918628 
L 360.761307 48.054893 
L 361.070021 47.047177 
L 361.378734 48.110424 
L 361.687448 46.722902 
L 361.996161 43.766737 
L 362.304875 48.012909 
L 362.613589 46.639901 
L 362.922302 44.419994 
L 363.231016 47.713644 
L 363.539729 43.91761 
L 363.848443 46.679363 
L 364.157156 45.973936 
L 364.46587 46.586966 
L 364.774583 45.989663 
L 365.083297 46.019118 
L 365.39201 45.345086 
L 365.700724 45.236033 
L 366.009437 47.00786 
L 366.318151 46.183146 
L 366.626865 45.719512 
L 366.935578 44.380286 
L 367.244292 45.182355 
L 367.553005 47.043704 
L 367.861719 47.067745 
L 368.170432 44.207272 
L 368.479146 46.339542 
L 368.787859 43.496937 
L 369.096573 44.965875 
L 369.405286 45.76657 
L 369.714 42.081757 
L 370.022714 44.041359 
L 370.331427 46.866723 
L 370.640141 44.298904 
L 370.948854 43.086504 
L 371.257568 42.978242 
L 371.566281 44.925606 
L 371.874995 45.619727 
L 372.183708 41.753191 
L 372.492422 43.448696 
L 372.801135 46.400324 
L 373.109849 40.678015 
L 373.418563 42.082743 
L 373.727276 44.399219 
L 374.03599 43.111522 
L 374.344703 42.404595 
L 374.653417 44.553977 
L 374.96213 42.213515 
L 375.270844 42.510401 
L 375.579557 42.218372 
L 376.196984 42.774784 
L 376.505698 42.478571 
L 376.814411 42.35847 
L 377.123125 43.822672 
L 377.431839 41.854254 
L 377.740552 41.61299 
L 378.049266 41.694913 
L 378.357979 41.454656 
L 378.666693 42.170598 
L 378.975406 41.204963 
L 379.28412 40.998471 
L 379.592833 42.434354 
L 379.901547 42.498927 
L 380.21026 42.835378 
L 380.518974 41.12234 
L 380.827688 41.00707 
L 381.136401 42.132397 
L 381.445115 38.998859 
L 381.753828 41.195978 
L 382.062542 41.166977 
L 382.371255 38.837566 
L 382.988682 41.674953 
L 383.297396 39.442095 
L 383.606109 39.563724 
L 384.223536 40.875408 
L 384.53225 39.468006 
L 385.149677 40.095723 
L 385.458391 39.852857 
L 385.767104 38.896291 
L 386.075818 39.894889 
L 386.384531 39.128323 
L 386.693245 39.387876 
L 387.001958 39.206542 
L 387.310672 39.726522 
L 387.619385 39.108767 
L 387.928099 40.36308 
L 388.236813 39.725051 
L 388.545526 39.914888 
L 388.85424 37.943628 
L 389.162953 38.686004 
L 389.471667 38.538319 
L 389.78038 38.750113 
L 390.089094 39.290878 
L 390.397807 40.360587 
L 390.706521 37.738956 
L 391.323948 39.751221 
L 391.941375 37.988067 
L 392.250089 38.382428 
L 392.867516 40.227776 
L 393.176229 37.297703 
L 393.793656 39.81355 
L 394.10237 40.162125 
L 394.719797 37.677996 
L 395.02851 39.320681 
L 395.337224 39.794602 
L 395.645937 36.579207 
L 395.954651 39.032508 
L 396.263365 38.844596 
L 396.572078 38.805875 
L 396.880792 38.930915 
L 397.189505 38.875369 
L 397.498219 39.209343 
L 397.806932 37.816811 
L 398.115646 38.283312 
L 398.424359 40.052166 
L 398.733073 39.965809 
L 399.041786 37.965139 
L 399.3505 37.916798 
L 399.659214 40.659132 
L 399.967927 38.5402 
L 400.276641 38.189709 
L 400.585354 39.106241 
L 400.894068 38.268612 
L 401.202781 38.001859 
L 401.820208 39.847645 
L 402.128922 38.270515 
L 402.437635 38.21606 
L 402.746349 39.749903 
L 403.055062 38.540487 
L 403.67249 37.543961 
L 403.981203 38.346117 
L 404.289917 40.853524 
L 404.59863 36.409745 
L 404.907344 39.198605 
L 405.216057 40.88937 
L 405.524771 38.890006 
L 405.833484 38.971147 
L 406.142198 39.963602 
L 406.450911 37.795723 
L 406.759625 39.497074 
L 407.068339 38.396068 
L 407.377052 38.867032 
L 407.685766 38.351533 
L 407.994479 38.807743 
L 408.303193 39.62882 
L 408.611906 40.082258 
L 408.92062 37.586205 
L 409.229333 36.844509 
L 409.538047 41.646632 
L 409.84676 38.572972 
L 410.155474 38.875137 
L 410.464187 40.106233 
L 410.772901 37.171824 
L 411.081615 39.517692 
L 411.390328 40.85898 
L 411.699042 37.083685 
L 412.007755 38.132572 
L 412.316469 39.61077 
L 412.625182 39.272737 
L 412.933896 38.754182 
L 413.242609 36.683694 
L 413.551323 40.185161 
L 414.16875 37.524651 
L 414.16875 37.524651 
" style="fill:none;stroke:#4c72b0;stroke-linecap:round;stroke-width:1.75;"/>
   </g>
   <g id="patch_3">
    <path d="M 43.7125 169.2 
L 414.16875 169.2 
" style="fill:none;stroke:#262626;stroke-linecap:square;stroke-linejoin:miter;stroke-width:1.25;"/>
   </g>
   <g id="patch_4">
    <path d="M 43.7125 169.2 
L 43.7125 15.3 
" style="fill:none;stroke:#262626;stroke-linecap:square;stroke-linejoin:miter;stroke-width:1.25;"/>
   </g>
  </g>
 </g>
 <defs>
  <clipPath id="p6c92427f73">
   <rect height="153.9" width="370.45625" x="43.7125" y="15.3"/>
  </clipPath>
 </defs>
</svg>
