<?xml version="1.0" encoding="utf-8" standalone="no"?>
<!DOCTYPE svg PUBLIC "-//W3C//DTD SVG 1.1//EN"
  "http://www.w3.org/Graphics/SVG/1.1/DTD/svg11.dtd">
<!-- Created with matplotlib (http://matplotlib.org/) -->
<svg height="288pt" version="1.1" viewBox="0 0 576 288" width="576pt" xmlns="http://www.w3.org/2000/svg" xmlns:xlink="http://www.w3.org/1999/xlink">
 <defs>
  <style type="text/css">
*{stroke-linecap:butt;stroke-linejoin:round;stroke-miterlimit:100000;}
  </style>
 </defs>
 <g id="figure_1">
  <g id="patch_1">
   <path d="M 0 288 
L 576 288 
L 576 0 
L 0 0 
z
" style="fill:#ffffff;"/>
  </g>
  <g id="axes_1">
   <g id="patch_2">
    <path d="M 49.317187 241.2 
L 295.326745 241.2 
L 295.326745 23.9 
L 49.317187 23.9 
z
" style="fill:#ffffff;"/>
   </g>
   <g id="matplotlib.axis_1">
    <g id="xtick_1">
     <g id="text_1">
      <!-- 0.000 -->
      <defs>
       <path d="M 4.15625 35.296875 
Q 4.15625 48 6.765625 55.734375 
Q 9.375 63.484375 14.515625 67.671875 
Q 19.671875 71.875 27.484375 71.875 
Q 33.25 71.875 37.59375 69.546875 
Q 41.9375 67.234375 44.765625 62.859375 
Q 47.609375 58.5 49.21875 52.21875 
Q 50.828125 45.953125 50.828125 35.296875 
Q 50.828125 22.703125 48.234375 14.96875 
Q 45.65625 7.234375 40.5 3 
Q 35.359375 -1.21875 27.484375 -1.21875 
Q 17.140625 -1.21875 11.234375 6.203125 
Q 4.15625 15.140625 4.15625 35.296875 
M 13.1875 35.296875 
Q 13.1875 17.671875 17.3125 11.828125 
Q 21.4375 6 27.484375 6 
Q 33.546875 6 37.671875 11.859375 
Q 41.796875 17.71875 41.796875 35.296875 
Q 41.796875 52.984375 37.671875 58.78125 
Q 33.546875 64.59375 27.390625 64.59375 
Q 21.34375 64.59375 17.71875 59.46875 
Q 13.1875 52.9375 13.1875 35.296875 
" id="ArialMT-30"/>
       <path d="M 9.078125 0 
L 9.078125 10.015625 
L 19.09375 10.015625 
L 19.09375 0 
z
" id="ArialMT-2e"/>
      </defs>
      <g style="fill:#262626;" transform="translate(36.3122549051 261.3578125)scale(0.1 -0.1)">
       <use xlink:href="#ArialMT-30"/>
       <use x="55.615234375" xlink:href="#ArialMT-2e"/>
       <use x="83.3984375" xlink:href="#ArialMT-30"/>
       <use x="139.013671875" xlink:href="#ArialMT-30"/>
       <use x="194.62890625" xlink:href="#ArialMT-30"/>
      </g>
     </g>
    </g>
    <g id="xtick_2">
     <g id="line2d_1">
      <defs>
       <path d="M 0 0 
L 0 6 
" id="m91923e0ecd" style="stroke:#262626;"/>
      </defs>
      <g>
       <use style="fill:#262626;stroke:#262626;" x="81.6903327195" xlink:href="#m91923e0ecd" y="241.2"/>
      </g>
     </g>
     <g id="text_2">
      <!-- 0.002 -->
      <defs>
       <path d="M 50.34375 8.453125 
L 50.34375 0 
L 3.03125 0 
Q 2.9375 3.171875 4.046875 6.109375 
Q 5.859375 10.9375 9.828125 15.625 
Q 13.8125 20.3125 21.34375 26.46875 
Q 33.015625 36.03125 37.109375 41.625 
Q 41.21875 47.21875 41.21875 52.203125 
Q 41.21875 57.421875 37.46875 61 
Q 33.734375 64.59375 27.734375 64.59375 
Q 21.390625 64.59375 17.578125 60.78125 
Q 13.765625 56.984375 13.71875 50.25 
L 4.6875 51.171875 
Q 5.609375 61.28125 11.65625 66.578125 
Q 17.71875 71.875 27.9375 71.875 
Q 38.234375 71.875 44.234375 66.15625 
Q 50.25 60.453125 50.25 52 
Q 50.25 47.703125 48.484375 43.546875 
Q 46.734375 39.40625 42.65625 34.8125 
Q 38.578125 30.21875 29.109375 22.21875 
Q 21.1875 15.578125 18.9375 13.203125 
Q 16.703125 10.84375 15.234375 8.453125 
z
" id="ArialMT-32"/>
      </defs>
      <g style="fill:#262626;" transform="translate(69.1793952195 261.3578125)scale(0.1 -0.1)">
       <use xlink:href="#ArialMT-30"/>
       <use x="55.615234375" xlink:href="#ArialMT-2e"/>
       <use x="83.3984375" xlink:href="#ArialMT-30"/>
       <use x="139.013671875" xlink:href="#ArialMT-30"/>
       <use x="194.62890625" xlink:href="#ArialMT-32"/>
      </g>
     </g>
    </g>
    <g id="xtick_3">
     <g id="line2d_2">
      <g>
       <use style="fill:#262626;stroke:#262626;" x="114.557473034" xlink:href="#m91923e0ecd" y="241.2"/>
      </g>
     </g>
     <g id="text_3">
      <!-- 0.004 -->
      <defs>
       <path d="M 32.328125 0 
L 32.328125 17.140625 
L 1.265625 17.140625 
L 1.265625 25.203125 
L 33.9375 71.578125 
L 41.109375 71.578125 
L 41.109375 25.203125 
L 50.78125 25.203125 
L 50.78125 17.140625 
L 41.109375 17.140625 
L 41.109375 0 
z
M 32.328125 25.203125 
L 32.328125 57.46875 
L 9.90625 25.203125 
z
" id="ArialMT-34"/>
      </defs>
      <g style="fill:#262626;" transform="translate(102.046535534 261.3578125)scale(0.1 -0.1)">
       <use xlink:href="#ArialMT-30"/>
       <use x="55.615234375" xlink:href="#ArialMT-2e"/>
       <use x="83.3984375" xlink:href="#ArialMT-30"/>
       <use x="139.013671875" xlink:href="#ArialMT-30"/>
       <use x="194.62890625" xlink:href="#ArialMT-34"/>
      </g>
     </g>
    </g>
    <g id="xtick_4">
     <g id="line2d_3">
      <g>
       <use style="fill:#262626;stroke:#262626;" x="147.424613348" xlink:href="#m91923e0ecd" y="241.2"/>
      </g>
     </g>
     <g id="text_4">
      <!-- 0.006 -->
      <defs>
       <path d="M 49.75 54.046875 
L 41.015625 53.375 
Q 39.84375 58.546875 37.703125 60.890625 
Q 34.125 64.65625 28.90625 64.65625 
Q 24.703125 64.65625 21.53125 62.3125 
Q 17.390625 59.28125 14.984375 53.46875 
Q 12.59375 47.65625 12.5 36.921875 
Q 15.671875 41.75 20.265625 44.09375 
Q 24.859375 46.4375 29.890625 46.4375 
Q 38.671875 46.4375 44.84375 39.96875 
Q 51.03125 33.5 51.03125 23.25 
Q 51.03125 16.5 48.125 10.71875 
Q 45.21875 4.9375 40.140625 1.859375 
Q 35.0625 -1.21875 28.609375 -1.21875 
Q 17.625 -1.21875 10.6875 6.859375 
Q 3.765625 14.9375 3.765625 33.5 
Q 3.765625 54.25 11.421875 63.671875 
Q 18.109375 71.875 29.4375 71.875 
Q 37.890625 71.875 43.28125 67.140625 
Q 48.6875 62.40625 49.75 54.046875 
M 13.875 23.1875 
Q 13.875 18.65625 15.796875 14.5 
Q 17.71875 10.359375 21.1875 8.171875 
Q 24.65625 6 28.46875 6 
Q 34.03125 6 38.03125 10.484375 
Q 42.046875 14.984375 42.046875 22.703125 
Q 42.046875 30.125 38.078125 34.390625 
Q 34.125 38.671875 28.125 38.671875 
Q 22.171875 38.671875 18.015625 34.390625 
Q 13.875 30.125 13.875 23.1875 
" id="ArialMT-36"/>
      </defs>
      <g style="fill:#262626;" transform="translate(134.913675848 261.3578125)scale(0.1 -0.1)">
       <use xlink:href="#ArialMT-30"/>
       <use x="55.615234375" xlink:href="#ArialMT-2e"/>
       <use x="83.3984375" xlink:href="#ArialMT-30"/>
       <use x="139.013671875" xlink:href="#ArialMT-30"/>
       <use x="194.62890625" xlink:href="#ArialMT-36"/>
      </g>
     </g>
    </g>
    <g id="xtick_5">
     <g id="line2d_4">
      <g>
       <use style="fill:#262626;stroke:#262626;" x="180.291753663" xlink:href="#m91923e0ecd" y="241.2"/>
      </g>
     </g>
     <g id="text_5">
      <!-- 0.008 -->
      <defs>
       <path d="M 17.671875 38.8125 
Q 12.203125 40.828125 9.5625 44.53125 
Q 6.9375 48.25 6.9375 53.421875 
Q 6.9375 61.234375 12.546875 66.546875 
Q 18.171875 71.875 27.484375 71.875 
Q 36.859375 71.875 42.578125 66.421875 
Q 48.296875 60.984375 48.296875 53.171875 
Q 48.296875 48.1875 45.671875 44.5 
Q 43.0625 40.828125 37.75 38.8125 
Q 44.34375 36.671875 47.78125 31.875 
Q 51.21875 27.09375 51.21875 20.453125 
Q 51.21875 11.28125 44.71875 5.03125 
Q 38.234375 -1.21875 27.640625 -1.21875 
Q 17.046875 -1.21875 10.546875 5.046875 
Q 4.046875 11.328125 4.046875 20.703125 
Q 4.046875 27.6875 7.59375 32.390625 
Q 11.140625 37.109375 17.671875 38.8125 
M 15.921875 53.71875 
Q 15.921875 48.640625 19.1875 45.40625 
Q 22.46875 42.1875 27.6875 42.1875 
Q 32.765625 42.1875 36.015625 45.375 
Q 39.265625 48.578125 39.265625 53.21875 
Q 39.265625 58.0625 35.90625 61.359375 
Q 32.5625 64.65625 27.59375 64.65625 
Q 22.5625 64.65625 19.234375 61.421875 
Q 15.921875 58.203125 15.921875 53.71875 
M 13.09375 20.65625 
Q 13.09375 16.890625 14.875 13.375 
Q 16.65625 9.859375 20.171875 7.921875 
Q 23.6875 6 27.734375 6 
Q 34.03125 6 38.125 10.046875 
Q 42.234375 14.109375 42.234375 20.359375 
Q 42.234375 26.703125 38.015625 30.859375 
Q 33.796875 35.015625 27.4375 35.015625 
Q 21.234375 35.015625 17.15625 30.90625 
Q 13.09375 26.8125 13.09375 20.65625 
" id="ArialMT-38"/>
      </defs>
      <g style="fill:#262626;" transform="translate(167.780816163 261.3578125)scale(0.1 -0.1)">
       <use xlink:href="#ArialMT-30"/>
       <use x="55.615234375" xlink:href="#ArialMT-2e"/>
       <use x="83.3984375" xlink:href="#ArialMT-30"/>
       <use x="139.013671875" xlink:href="#ArialMT-30"/>
       <use x="194.62890625" xlink:href="#ArialMT-38"/>
      </g>
     </g>
    </g>
    <g id="xtick_6">
     <g id="line2d_5">
      <g>
       <use style="fill:#262626;stroke:#262626;" x="213.158893977" xlink:href="#m91923e0ecd" y="241.2"/>
      </g>
     </g>
     <g id="text_6">
      <!-- 0.010 -->
      <defs>
       <path d="M 37.25 0 
L 28.46875 0 
L 28.46875 56 
Q 25.296875 52.984375 20.140625 49.953125 
Q 14.984375 46.921875 10.890625 45.40625 
L 10.890625 53.90625 
Q 18.265625 57.375 23.78125 62.296875 
Q 29.296875 67.234375 31.59375 71.875 
L 37.25 71.875 
z
" id="ArialMT-31"/>
      </defs>
      <g style="fill:#262626;" transform="translate(200.647956477 261.3578125)scale(0.1 -0.1)">
       <use xlink:href="#ArialMT-30"/>
       <use x="55.615234375" xlink:href="#ArialMT-2e"/>
       <use x="83.3984375" xlink:href="#ArialMT-30"/>
       <use x="139.013671875" xlink:href="#ArialMT-31"/>
       <use x="194.62890625" xlink:href="#ArialMT-30"/>
      </g>
     </g>
    </g>
    <g id="xtick_7">
     <g id="line2d_6">
      <g>
       <use style="fill:#262626;stroke:#262626;" x="246.026034292" xlink:href="#m91923e0ecd" y="241.2"/>
      </g>
     </g>
     <g id="text_7">
      <!-- 0.012 -->
      <g style="fill:#262626;" transform="translate(233.515096792 261.3578125)scale(0.1 -0.1)">
       <use xlink:href="#ArialMT-30"/>
       <use x="55.615234375" xlink:href="#ArialMT-2e"/>
       <use x="83.3984375" xlink:href="#ArialMT-30"/>
       <use x="139.013671875" xlink:href="#ArialMT-31"/>
       <use x="194.62890625" xlink:href="#ArialMT-32"/>
      </g>
     </g>
    </g>
    <g id="xtick_8">
     <g id="line2d_7">
      <g>
       <use style="fill:#262626;stroke:#262626;" x="278.893174606" xlink:href="#m91923e0ecd" y="241.2"/>
      </g>
     </g>
     <g id="text_8">
      <!-- 0.014 -->
      <g style="fill:#262626;" transform="translate(266.382237106 261.3578125)scale(0.1 -0.1)">
       <use xlink:href="#ArialMT-30"/>
       <use x="55.615234375" xlink:href="#ArialMT-2e"/>
       <use x="83.3984375" xlink:href="#ArialMT-30"/>
       <use x="139.013671875" xlink:href="#ArialMT-31"/>
       <use x="194.62890625" xlink:href="#ArialMT-34"/>
      </g>
     </g>
    </g>
    <g id="text_9">
     <!-- Time (s) -->
     <defs>
      <path d="M 42.09375 16.703125 
L 51.171875 15.578125 
Q 49.03125 7.625 43.21875 3.21875 
Q 37.40625 -1.171875 28.375 -1.171875 
Q 17 -1.171875 10.328125 5.828125 
Q 3.65625 12.84375 3.65625 25.484375 
Q 3.65625 38.578125 10.390625 45.796875 
Q 17.140625 53.03125 27.875 53.03125 
Q 38.28125 53.03125 44.875 45.953125 
Q 51.46875 38.875 51.46875 26.03125 
Q 51.46875 25.25 51.421875 23.6875 
L 12.75 23.6875 
Q 13.234375 15.140625 17.578125 10.59375 
Q 21.921875 6.0625 28.421875 6.0625 
Q 33.25 6.0625 36.671875 8.59375 
Q 40.09375 11.140625 42.09375 16.703125 
M 13.234375 30.90625 
L 42.1875 30.90625 
Q 41.609375 37.453125 38.875 40.71875 
Q 34.671875 45.796875 27.984375 45.796875 
Q 21.921875 45.796875 17.796875 41.75 
Q 13.671875 37.703125 13.234375 30.90625 
" id="ArialMT-65"/>
      <path d="M 6.640625 61.46875 
L 6.640625 71.578125 
L 15.4375 71.578125 
L 15.4375 61.46875 
z
M 6.640625 0 
L 6.640625 51.859375 
L 15.4375 51.859375 
L 15.4375 0 
z
" id="ArialMT-69"/>
      <path d="M 6.59375 0 
L 6.59375 51.859375 
L 14.453125 51.859375 
L 14.453125 44.578125 
Q 16.890625 48.390625 20.9375 50.703125 
Q 25 53.03125 30.171875 53.03125 
Q 35.9375 53.03125 39.625 50.640625 
Q 43.3125 48.25 44.828125 43.953125 
Q 50.984375 53.03125 60.84375 53.03125 
Q 68.5625 53.03125 72.703125 48.75 
Q 76.859375 44.484375 76.859375 35.59375 
L 76.859375 0 
L 68.109375 0 
L 68.109375 32.671875 
Q 68.109375 37.9375 67.25 40.25 
Q 66.40625 42.578125 64.15625 43.984375 
Q 61.921875 45.40625 58.890625 45.40625 
Q 53.421875 45.40625 49.796875 41.765625 
Q 46.1875 38.140625 46.1875 30.125 
L 46.1875 0 
L 37.40625 0 
L 37.40625 33.6875 
Q 37.40625 39.546875 35.25 42.46875 
Q 33.109375 45.40625 28.21875 45.40625 
Q 24.515625 45.40625 21.359375 43.453125 
Q 18.21875 41.5 16.796875 37.734375 
Q 15.375 33.984375 15.375 26.90625 
L 15.375 0 
z
" id="ArialMT-6d"/>
      <path d="M 25.921875 0 
L 25.921875 63.140625 
L 2.34375 63.140625 
L 2.34375 71.578125 
L 59.078125 71.578125 
L 59.078125 63.140625 
L 35.40625 63.140625 
L 35.40625 0 
z
" id="ArialMT-54"/>
      <path d="M 3.078125 15.484375 
L 11.765625 16.84375 
Q 12.5 11.625 15.84375 8.84375 
Q 19.1875 6.0625 25.203125 6.0625 
Q 31.25 6.0625 34.171875 8.515625 
Q 37.109375 10.984375 37.109375 14.3125 
Q 37.109375 17.28125 34.515625 19 
Q 32.71875 20.171875 25.53125 21.96875 
Q 15.875 24.421875 12.140625 26.203125 
Q 8.40625 27.984375 6.46875 31.125 
Q 4.546875 34.28125 4.546875 38.09375 
Q 4.546875 41.546875 6.125 44.5 
Q 7.71875 47.46875 10.453125 49.421875 
Q 12.5 50.921875 16.03125 51.96875 
Q 19.578125 53.03125 23.640625 53.03125 
Q 29.734375 53.03125 34.34375 51.265625 
Q 38.96875 49.515625 41.15625 46.5 
Q 43.359375 43.5 44.1875 38.484375 
L 35.59375 37.3125 
Q 35.015625 41.3125 32.203125 43.546875 
Q 29.390625 45.796875 24.265625 45.796875 
Q 18.21875 45.796875 15.625 43.796875 
Q 13.03125 41.796875 13.03125 39.109375 
Q 13.03125 37.40625 14.109375 36.03125 
Q 15.1875 34.625 17.484375 33.6875 
Q 18.796875 33.203125 25.25 31.453125 
Q 34.578125 28.953125 38.25 27.359375 
Q 41.9375 25.78125 44.03125 22.75 
Q 46.140625 19.734375 46.140625 15.234375 
Q 46.140625 10.84375 43.578125 6.953125 
Q 41.015625 3.078125 36.171875 0.953125 
Q 31.34375 -1.171875 25.25 -1.171875 
Q 15.140625 -1.171875 9.84375 3.03125 
Q 4.546875 7.234375 3.078125 15.484375 
" id="ArialMT-73"/>
      <path d="M 12.359375 -21.046875 
L 6.0625 -21.046875 
Q 20.65625 2.390625 20.65625 25.875 
Q 20.65625 35.0625 18.5625 44.09375 
Q 16.890625 51.421875 13.921875 58.15625 
Q 12.015625 62.546875 6.0625 72.796875 
L 12.359375 72.796875 
Q 21.53125 60.546875 25.921875 48.1875 
Q 29.6875 37.546875 29.6875 25.921875 
Q 29.6875 12.75 24.625 0.4375 
Q 19.578125 -11.859375 12.359375 -21.046875 
" id="ArialMT-29"/>
      <path d="M 23.390625 -21.046875 
Q 16.109375 -11.859375 11.078125 0.4375 
Q 6.0625 12.75 6.0625 25.921875 
Q 6.0625 37.546875 9.8125 48.1875 
Q 14.203125 60.546875 23.390625 72.796875 
L 29.6875 72.796875 
Q 23.78125 62.640625 21.875 58.296875 
Q 18.890625 51.5625 17.1875 44.234375 
Q 15.09375 35.109375 15.09375 25.875 
Q 15.09375 2.390625 29.6875 -21.046875 
z
" id="ArialMT-28"/>
      <path id="ArialMT-20"/>
     </defs>
     <g style="fill:#262626;" transform="translate(152.162747382 276.35296875)scale(0.11 -0.11)">
      <use xlink:href="#ArialMT-54"/>
      <use x="61.037109375" xlink:href="#ArialMT-69"/>
      <use x="83.25390625" xlink:href="#ArialMT-6d"/>
      <use x="166.5546875" xlink:href="#ArialMT-65"/>
      <use x="222.169921875" xlink:href="#ArialMT-20"/>
      <use x="249.953125" xlink:href="#ArialMT-28"/>
      <use x="283.25390625" xlink:href="#ArialMT-73"/>
      <use x="333.25390625" xlink:href="#ArialMT-29"/>
     </g>
    </g>
   </g>
   <g id="matplotlib.axis_2">
    <g id="ytick_1">
     <g id="line2d_8">
      <defs>
       <path d="M 0 0 
L -6 0 
" id="m53d1f6bdc2" style="stroke:#262626;"/>
      </defs>
      <g>
       <use style="fill:#262626;stroke:#262626;" x="49.3171875" xlink:href="#m53d1f6bdc2" y="218.754787243"/>
      </g>
     </g>
     <g id="text_10">
      <!-- −6 -->
      <defs>
       <path d="M 52.828125 31.203125 
L 5.5625 31.203125 
L 5.5625 39.40625 
L 52.828125 39.40625 
z
" id="ArialMT-2212"/>
      </defs>
      <g style="fill:#262626;" transform="translate(24.915625 221.339943493)scale(0.1 -0.1)">
       <use xlink:href="#ArialMT-2212"/>
       <use x="58.3984375" xlink:href="#ArialMT-36"/>
      </g>
     </g>
    </g>
    <g id="ytick_2">
     <g id="line2d_9">
      <g>
       <use style="fill:#262626;stroke:#262626;" x="49.3171875" xlink:href="#m53d1f6bdc2" y="187.908897542"/>
      </g>
     </g>
     <g id="text_11">
      <!-- −4 -->
      <g style="fill:#262626;" transform="translate(24.915625 190.494053792)scale(0.1 -0.1)">
       <use xlink:href="#ArialMT-2212"/>
       <use x="58.3984375" xlink:href="#ArialMT-34"/>
      </g>
     </g>
    </g>
    <g id="ytick_3">
     <g id="line2d_10">
      <g>
       <use style="fill:#262626;stroke:#262626;" x="49.3171875" xlink:href="#m53d1f6bdc2" y="157.063007841"/>
      </g>
     </g>
     <g id="text_12">
      <!-- −2 -->
      <g style="fill:#262626;" transform="translate(24.915625 159.648164091)scale(0.1 -0.1)">
       <use xlink:href="#ArialMT-2212"/>
       <use x="58.3984375" xlink:href="#ArialMT-32"/>
      </g>
     </g>
    </g>
    <g id="ytick_4">
     <g id="line2d_11">
      <g>
       <use style="fill:#262626;stroke:#262626;" x="49.3171875" xlink:href="#m53d1f6bdc2" y="126.21711814"/>
      </g>
     </g>
     <g id="text_13">
      <!-- 0 -->
      <g style="fill:#262626;" transform="translate(30.75625 128.80227439)scale(0.1 -0.1)">
       <use xlink:href="#ArialMT-30"/>
      </g>
     </g>
    </g>
    <g id="ytick_5">
     <g id="line2d_12">
      <g>
       <use style="fill:#262626;stroke:#262626;" x="49.3171875" xlink:href="#m53d1f6bdc2" y="95.3712284386"/>
      </g>
     </g>
     <g id="text_14">
      <!-- 2 -->
      <g style="fill:#262626;" transform="translate(30.75625 97.9563846886)scale(0.1 -0.1)">
       <use xlink:href="#ArialMT-32"/>
      </g>
     </g>
    </g>
    <g id="ytick_6">
     <g id="line2d_13">
      <g>
       <use style="fill:#262626;stroke:#262626;" x="49.3171875" xlink:href="#m53d1f6bdc2" y="64.5253387376"/>
      </g>
     </g>
     <g id="text_15">
      <!-- 4 -->
      <g style="fill:#262626;" transform="translate(30.75625 67.1104949876)scale(0.1 -0.1)">
       <use xlink:href="#ArialMT-34"/>
      </g>
     </g>
    </g>
    <g id="ytick_7">
     <g id="line2d_14">
      <g>
       <use style="fill:#262626;stroke:#262626;" x="49.3171875" xlink:href="#m53d1f6bdc2" y="33.6794490366"/>
      </g>
     </g>
     <g id="text_16">
      <!-- 6 -->
      <g style="fill:#262626;" transform="translate(30.75625 36.2646052866)scale(0.1 -0.1)">
       <use xlink:href="#ArialMT-36"/>
      </g>
     </g>
    </g>
    <g id="text_17">
     <!-- Arbitrary units -->
     <defs>
      <path d="M 14.703125 0 
L 6.546875 0 
L 6.546875 71.578125 
L 15.328125 71.578125 
L 15.328125 46.046875 
Q 20.90625 53.03125 29.546875 53.03125 
Q 34.328125 53.03125 38.59375 51.09375 
Q 42.875 49.171875 45.625 45.671875 
Q 48.390625 42.1875 49.953125 37.25 
Q 51.515625 32.328125 51.515625 26.703125 
Q 51.515625 13.375 44.921875 6.09375 
Q 38.328125 -1.171875 29.109375 -1.171875 
Q 19.921875 -1.171875 14.703125 6.5 
z
M 14.59375 26.3125 
Q 14.59375 17 17.140625 12.84375 
Q 21.296875 6.0625 28.375 6.0625 
Q 34.125 6.0625 38.328125 11.0625 
Q 42.53125 16.0625 42.53125 25.984375 
Q 42.53125 36.140625 38.5 40.96875 
Q 34.46875 45.796875 28.765625 45.796875 
Q 23 45.796875 18.796875 40.796875 
Q 14.59375 35.796875 14.59375 26.3125 
" id="ArialMT-62"/>
      <path d="M 40.4375 6.390625 
Q 35.546875 2.25 31.03125 0.53125 
Q 26.515625 -1.171875 21.34375 -1.171875 
Q 12.796875 -1.171875 8.203125 3 
Q 3.609375 7.171875 3.609375 13.671875 
Q 3.609375 17.484375 5.34375 20.625 
Q 7.078125 23.78125 9.890625 25.6875 
Q 12.703125 27.59375 16.21875 28.5625 
Q 18.796875 29.25 24.03125 29.890625 
Q 34.671875 31.15625 39.703125 32.90625 
Q 39.75 34.71875 39.75 35.203125 
Q 39.75 40.578125 37.25 42.78125 
Q 33.890625 45.75 27.25 45.75 
Q 21.046875 45.75 18.09375 43.578125 
Q 15.140625 41.40625 13.71875 35.890625 
L 5.125 37.0625 
Q 6.296875 42.578125 8.984375 45.96875 
Q 11.671875 49.359375 16.75 51.1875 
Q 21.828125 53.03125 28.515625 53.03125 
Q 35.15625 53.03125 39.296875 51.46875 
Q 43.453125 49.90625 45.40625 47.53125 
Q 47.359375 45.171875 48.140625 41.546875 
Q 48.578125 39.3125 48.578125 33.453125 
L 48.578125 21.734375 
Q 48.578125 9.46875 49.140625 6.21875 
Q 49.703125 2.984375 51.375 0 
L 42.1875 0 
Q 40.828125 2.734375 40.4375 6.390625 
M 39.703125 26.03125 
Q 34.90625 24.078125 25.34375 22.703125 
Q 19.921875 21.921875 17.671875 20.9375 
Q 15.4375 19.96875 14.203125 18.09375 
Q 12.984375 16.21875 12.984375 13.921875 
Q 12.984375 10.40625 15.640625 8.0625 
Q 18.3125 5.71875 23.4375 5.71875 
Q 28.515625 5.71875 32.46875 7.9375 
Q 36.421875 10.15625 38.28125 14.015625 
Q 39.703125 17 39.703125 22.796875 
z
" id="ArialMT-61"/>
      <path d="M 6.203125 -19.96875 
L 5.21875 -11.71875 
Q 8.109375 -12.5 10.25 -12.5 
Q 13.1875 -12.5 14.9375 -11.515625 
Q 16.703125 -10.546875 17.828125 -8.796875 
Q 18.65625 -7.46875 20.515625 -2.25 
Q 20.75 -1.515625 21.296875 -0.09375 
L 1.609375 51.859375 
L 11.078125 51.859375 
L 21.875 21.828125 
Q 23.96875 16.109375 25.640625 9.8125 
Q 27.15625 15.875 29.25 21.625 
L 40.328125 51.859375 
L 49.125 51.859375 
L 29.390625 -0.875 
Q 26.21875 -9.421875 24.46875 -12.640625 
Q 22.125 -17 19.09375 -19.015625 
Q 16.0625 -21.046875 11.859375 -21.046875 
Q 9.328125 -21.046875 6.203125 -19.96875 
" id="ArialMT-79"/>
      <path d="M -0.140625 0 
L 27.34375 71.578125 
L 37.546875 71.578125 
L 66.84375 0 
L 56.0625 0 
L 47.703125 21.6875 
L 17.78125 21.6875 
L 9.90625 0 
z
M 20.515625 29.390625 
L 44.78125 29.390625 
L 37.3125 49.21875 
Q 33.890625 58.25 32.234375 64.0625 
Q 30.859375 57.171875 28.375 50.390625 
z
" id="ArialMT-41"/>
      <path d="M 40.578125 0 
L 40.578125 7.625 
Q 34.515625 -1.171875 24.125 -1.171875 
Q 19.53125 -1.171875 15.546875 0.578125 
Q 11.578125 2.34375 9.640625 5 
Q 7.71875 7.671875 6.9375 11.53125 
Q 6.390625 14.109375 6.390625 19.734375 
L 6.390625 51.859375 
L 15.1875 51.859375 
L 15.1875 23.09375 
Q 15.1875 16.21875 15.71875 13.8125 
Q 16.546875 10.359375 19.234375 8.375 
Q 21.921875 6.390625 25.875 6.390625 
Q 29.828125 6.390625 33.296875 8.421875 
Q 36.765625 10.453125 38.203125 13.9375 
Q 39.65625 17.4375 39.65625 24.078125 
L 39.65625 51.859375 
L 48.4375 51.859375 
L 48.4375 0 
z
" id="ArialMT-75"/>
      <path d="M 6.5 0 
L 6.5 51.859375 
L 14.40625 51.859375 
L 14.40625 44 
Q 17.4375 49.515625 20 51.265625 
Q 22.5625 53.03125 25.640625 53.03125 
Q 30.078125 53.03125 34.671875 50.203125 
L 31.640625 42.046875 
Q 28.421875 43.953125 25.203125 43.953125 
Q 22.3125 43.953125 20.015625 42.21875 
Q 17.71875 40.484375 16.75 37.40625 
Q 15.28125 32.71875 15.28125 27.15625 
L 15.28125 0 
z
" id="ArialMT-72"/>
      <path d="M 25.78125 7.859375 
L 27.046875 0.09375 
Q 23.34375 -0.6875 20.40625 -0.6875 
Q 15.625 -0.6875 12.984375 0.828125 
Q 10.359375 2.34375 9.28125 4.8125 
Q 8.203125 7.28125 8.203125 15.1875 
L 8.203125 45.015625 
L 1.765625 45.015625 
L 1.765625 51.859375 
L 8.203125 51.859375 
L 8.203125 64.703125 
L 16.9375 69.96875 
L 16.9375 51.859375 
L 25.78125 51.859375 
L 25.78125 45.015625 
L 16.9375 45.015625 
L 16.9375 14.703125 
Q 16.9375 10.9375 17.40625 9.859375 
Q 17.875 8.796875 18.921875 8.15625 
Q 19.96875 7.515625 21.921875 7.515625 
Q 23.390625 7.515625 25.78125 7.859375 
" id="ArialMT-74"/>
      <path d="M 6.59375 0 
L 6.59375 51.859375 
L 14.5 51.859375 
L 14.5 44.484375 
Q 20.21875 53.03125 31 53.03125 
Q 35.6875 53.03125 39.625 51.34375 
Q 43.5625 49.65625 45.515625 46.921875 
Q 47.46875 44.1875 48.25 40.4375 
Q 48.734375 37.984375 48.734375 31.890625 
L 48.734375 0 
L 39.9375 0 
L 39.9375 31.546875 
Q 39.9375 36.921875 38.90625 39.578125 
Q 37.890625 42.234375 35.28125 43.8125 
Q 32.671875 45.40625 29.15625 45.40625 
Q 23.53125 45.40625 19.453125 41.84375 
Q 15.375 38.28125 15.375 28.328125 
L 15.375 0 
z
" id="ArialMT-6e"/>
     </defs>
     <g style="fill:#262626;" transform="translate(17.60046875 166.4746875)rotate(-90.0)scale(0.11 -0.11)">
      <use xlink:href="#ArialMT-41"/>
      <use x="66.69921875" xlink:href="#ArialMT-72"/>
      <use x="100.0" xlink:href="#ArialMT-62"/>
      <use x="155.615234375" xlink:href="#ArialMT-69"/>
      <use x="177.83203125" xlink:href="#ArialMT-74"/>
      <use x="205.615234375" xlink:href="#ArialMT-72"/>
      <use x="238.916015625" xlink:href="#ArialMT-61"/>
      <use x="294.53125" xlink:href="#ArialMT-72"/>
      <use x="327.83203125" xlink:href="#ArialMT-79"/>
      <use x="377.83203125" xlink:href="#ArialMT-20"/>
      <use x="405.615234375" xlink:href="#ArialMT-75"/>
      <use x="461.23046875" xlink:href="#ArialMT-6e"/>
      <use x="516.845703125" xlink:href="#ArialMT-69"/>
      <use x="539.0625" xlink:href="#ArialMT-74"/>
      <use x="566.845703125" xlink:href="#ArialMT-73"/>
     </g>
    </g>
    <g id="text_18">
     <!-- 1e−7 -->
     <defs>
      <path d="M 4.734375 62.203125 
L 4.734375 70.65625 
L 51.078125 70.65625 
L 51.078125 63.8125 
Q 44.234375 56.546875 37.515625 44.484375 
Q 30.8125 32.421875 27.15625 19.671875 
Q 24.515625 10.6875 23.78125 0 
L 14.75 0 
Q 14.890625 8.453125 18.0625 20.40625 
Q 21.234375 32.375 27.171875 43.484375 
Q 33.109375 54.59375 39.796875 62.203125 
z
" id="ArialMT-37"/>
     </defs>
     <g style="fill:#262626;" transform="translate(49.3171875 20.9)scale(0.1 -0.1)">
      <use xlink:href="#ArialMT-31"/>
      <use x="55.615234375" xlink:href="#ArialMT-65"/>
      <use x="111.23046875" xlink:href="#ArialMT-2212"/>
      <use x="169.62890625" xlink:href="#ArialMT-37"/>
     </g>
    </g>
   </g>
   <g id="line2d_15">
    <path clip-path="url(#p89b1aff51e)" d="M 49.317187 126.344159 
L 49.811183 126.120204 
L 50.305178 127.173364 
L 51.293168 123.282475 
L 51.787163 124.863575 
L 52.775153 132.729496 
L 53.269148 135.150889 
L 53.763143 135.343694 
L 54.257138 133.379138 
L 54.751134 129.721806 
L 55.739124 119.643885 
L 57.221109 104.19849 
L 58.209099 96.174952 
L 59.197089 90.270926 
L 60.18508 86.05961 
L 61.17307 82.944912 
L 64.631035 73.324191 
L 65.619026 69.596173 
L 66.607016 65.178109 
L 68.089001 57.354419 
L 72.040962 34.669394 
L 73.028952 30.569127 
L 73.522947 29.074836 
L 74.016942 28.03471 
L 74.510937 27.510288 
L 75.004932 27.560826 
L 75.498928 28.242105 
L 75.992923 29.605196 
L 76.486918 31.695212 
L 76.980913 34.550058 
L 77.968903 42.662617 
L 78.956893 54.057542 
L 79.944883 68.66494 
L 80.932874 86.207367 
L 82.414859 116.881037 
L 86.36682 203.260225 
L 87.35481 219.912131 
L 88.3428 232.344275 
L 88.836795 236.687301 
L 89.33079 239.6557 
L 89.824785 241.177261 
L 90.31878 241.2 
L 90.812775 239.693845 
L 91.306771 236.651988 
L 91.800766 232.091854 
L 92.294761 226.055637 
L 93.282751 209.8477 
L 94.270741 188.853013 
L 95.752726 151.043946 
L 98.716697 72.370133 
L 99.704687 51.488259 
L 100.692677 35.805893 
L 101.186672 30.265958 
L 101.680668 26.39631 
L 102.174663 24.262752 
L 102.668658 23.9 
L 103.162653 25.310652 
L 103.656648 28.464779 
L 104.150643 33.300169 
L 104.644638 39.723214 
L 105.632628 56.810736 
L 106.620619 78.424364 
L 111.066574 184.210426 
L 112.054565 198.958587 
L 112.54856 204.089606 
L 113.042555 207.603076 
L 113.53655 209.448623 
L 114.030545 209.610172 
L 114.52454 208.106171 
L 115.018535 204.989076 
L 115.51253 200.344112 
L 116.50052 186.962953 
L 117.488511 169.209658 
L 119.464491 127.116272 
L 120.946476 96.85847 
L 121.934466 80.468863 
L 122.922457 68.636534 
L 123.416452 64.711383 
L 123.910447 62.203896 
L 124.404442 61.141929 
L 124.898437 61.521006 
L 125.392432 63.304813 
L 125.886427 66.426426 
L 126.380422 70.790214 
L 127.368412 82.734094 
L 128.356403 97.907642 
L 131.814368 154.637465 
L 132.802359 165.908756 
L 133.296354 170.0258 
L 133.790349 173.026953 
L 134.284344 174.86862 
L 134.778339 175.535192 
L 135.272334 175.038904 
L 135.766329 173.419035 
L 136.260324 170.740471 
L 136.754319 167.091675 
L 137.742309 157.339335 
L 139.224295 138.682897 
L 141.200275 112.922647 
L 142.188265 102.388629 
L 143.176256 94.693652 
L 143.670251 92.10679 
L 144.164246 90.4212 
L 144.658241 89.653892 
L 145.152236 89.798968 
L 145.646231 90.828294 
L 146.140226 92.692701 
L 146.634221 95.323687 
L 147.622211 102.528006 
L 149.104197 116.526682 
L 151.080177 135.918337 
L 152.068167 143.791257 
L 153.056157 149.466248 
L 153.550153 151.332903 
L 154.044148 152.5092 
L 154.538143 152.985556 
L 155.032138 152.770415 
L 155.526133 151.889572 
L 156.020128 150.385055 
L 156.514123 148.313624 
L 157.502113 142.75939 
L 158.984099 132.216701 
L 160.960079 118.06529 
L 161.948069 112.543119 
L 162.936059 108.75617 
L 163.430054 107.609162 
L 163.92405 106.983253 
L 164.418045 106.878493 
L 164.91204 107.281304 
L 165.406035 108.165224 
L 165.90003 109.491974 
L 166.88802 113.270081 
L 168.370005 120.789262 
L 170.345986 131.252296 
L 171.333976 135.451566 
L 172.321966 138.41438 
L 172.815961 139.354089 
L 173.309956 139.911807 
L 173.803951 140.085168 
L 174.297947 139.88217 
L 174.791942 139.320647 
L 175.285937 138.427487 
L 176.273927 135.792871 
L 177.261917 132.332036 
L 180.225888 121.210808 
L 181.213878 118.563577 
L 181.707873 117.602721 
L 182.201868 116.909771 
L 182.695863 116.494474 
L 183.189858 116.358677 
L 183.683853 116.49653 
L 184.177848 116.894892 
L 184.671844 117.533927 
L 185.659834 119.425909 
L 186.647824 121.912072 
L 189.611794 129.848376 
L 190.599785 131.706247 
L 191.09378 132.37047 
L 191.587775 132.84034 
L 192.08177 133.10967 
L 192.575765 133.178057 
L 193.06976 133.050699 
L 193.563755 132.738064 
L 194.551745 131.622237 
L 195.539736 129.999039 
L 198.997701 123.475265 
L 199.985691 122.220606 
L 200.973682 121.494835 
L 201.467677 121.346057 
L 201.961672 121.340048 
L 202.455667 121.471795 
L 203.443657 122.110309 
L 204.431647 123.154543 
L 205.913633 125.160198 
L 207.889613 127.80343 
L 208.877603 128.787141 
L 209.865593 129.412869 
L 210.853584 129.637051 
L 211.841574 129.463974 
L 212.829564 128.941934 
L 213.817554 128.154739 
L 217.769515 124.5698 
L 218.757505 124.068197 
L 219.745495 123.845937 
L 220.733485 123.907308 
L 221.721476 124.224299 
L 223.203461 125.053794 
L 226.661427 127.275771 
L 227.649417 127.659408 
L 228.637407 127.84994 
L 229.625397 127.840274 
L 230.613387 127.646644 
L 232.095373 127.094064 
L 236.047333 125.374057 
L 237.529319 125.09689 
L 239.011304 125.131219 
L 240.493289 125.433289 
L 245.927235 126.940004 
L 247.409221 127.000039 
L 248.891206 126.855839 
L 251.361181 126.338227 
L 253.831157 125.838484 
L 255.807137 125.67614 
L 257.783118 125.773387 
L 261.241083 126.283969 
L 263.711059 126.554414 
L 265.687039 126.575841 
L 268.65101 126.333035 
L 272.60297 125.985665 
L 275.072946 125.987323 
L 280.012897 126.313992 
L 283.470862 126.384002 
L 288.410813 126.168902 
L 292.362774 126.104118 
L 295.326745 126.185639 
L 295.326745 126.185639 
" style="fill:none;stroke:#4c72b0;stroke-linecap:round;stroke-width:1.75;"/>
   </g>
   <g id="patch_3">
    <path d="M 49.317187 241.2 
L 295.326745 241.2 
" style="fill:none;stroke:#262626;stroke-linecap:square;stroke-linejoin:miter;stroke-width:1.25;"/>
   </g>
   <g id="patch_4">
    <path d="M 49.317187 241.2 
L 49.317187 23.9 
" style="fill:none;stroke:#262626;stroke-linecap:square;stroke-linejoin:miter;stroke-width:1.25;"/>
   </g>
   <g id="text_19">
    <!-- Log Gammachirp IR (c=-1) -->
    <defs>
     <path d="M 40.4375 19 
L 49.078125 17.875 
Q 47.65625 8.9375 41.8125 3.875 
Q 35.984375 -1.171875 27.484375 -1.171875 
Q 16.84375 -1.171875 10.375 5.78125 
Q 3.90625 12.75 3.90625 25.734375 
Q 3.90625 34.125 6.6875 40.421875 
Q 9.46875 46.734375 15.15625 49.875 
Q 20.84375 53.03125 27.546875 53.03125 
Q 35.984375 53.03125 41.359375 48.75 
Q 46.734375 44.484375 48.25 36.625 
L 39.703125 35.296875 
Q 38.484375 40.53125 35.375 43.15625 
Q 32.28125 45.796875 27.875 45.796875 
Q 21.234375 45.796875 17.078125 41.03125 
Q 12.9375 36.28125 12.9375 25.984375 
Q 12.9375 15.53125 16.9375 10.796875 
Q 20.953125 6.0625 27.390625 6.0625 
Q 32.5625 6.0625 36.03125 9.234375 
Q 39.5 12.40625 40.4375 19 
" id="ArialMT-63"/>
     <path d="M 9.328125 0 
L 9.328125 71.578125 
L 18.796875 71.578125 
L 18.796875 0 
z
" id="ArialMT-49"/>
     <path d="M 3.171875 21.484375 
L 3.171875 30.328125 
L 30.171875 30.328125 
L 30.171875 21.484375 
z
" id="ArialMT-2d"/>
     <path d="M 4.984375 -4.296875 
L 13.53125 -5.5625 
Q 14.0625 -9.515625 16.5 -11.328125 
Q 19.78125 -13.765625 25.4375 -13.765625 
Q 31.546875 -13.765625 34.859375 -11.328125 
Q 38.1875 -8.890625 39.359375 -4.5 
Q 40.046875 -1.8125 39.984375 6.78125 
Q 34.234375 0 25.640625 0 
Q 14.9375 0 9.078125 7.71875 
Q 3.21875 15.4375 3.21875 26.21875 
Q 3.21875 33.640625 5.90625 39.90625 
Q 8.59375 46.1875 13.6875 49.609375 
Q 18.796875 53.03125 25.6875 53.03125 
Q 34.859375 53.03125 40.828125 45.609375 
L 40.828125 51.859375 
L 48.921875 51.859375 
L 48.921875 7.03125 
Q 48.921875 -5.078125 46.453125 -10.125 
Q 44 -15.1875 38.640625 -18.109375 
Q 33.296875 -21.046875 25.484375 -21.046875 
Q 16.21875 -21.046875 10.5 -16.875 
Q 4.78125 -12.703125 4.984375 -4.296875 
M 12.25 26.859375 
Q 12.25 16.65625 16.296875 11.96875 
Q 20.359375 7.28125 26.46875 7.28125 
Q 32.515625 7.28125 36.609375 11.9375 
Q 40.71875 16.609375 40.71875 26.5625 
Q 40.71875 36.078125 36.5 40.90625 
Q 32.28125 45.75 26.3125 45.75 
Q 20.453125 45.75 16.34375 40.984375 
Q 12.25 36.234375 12.25 26.859375 
" id="ArialMT-67"/>
     <path d="M 7.859375 0 
L 7.859375 71.578125 
L 39.59375 71.578125 
Q 49.171875 71.578125 54.140625 69.640625 
Q 59.125 67.71875 62.109375 62.828125 
Q 65.09375 57.953125 65.09375 52.046875 
Q 65.09375 44.4375 60.15625 39.203125 
Q 55.21875 33.984375 44.921875 32.5625 
Q 48.6875 30.765625 50.640625 29 
Q 54.78125 25.203125 58.5 19.484375 
L 70.953125 0 
L 59.03125 0 
L 49.5625 14.890625 
Q 45.40625 21.34375 42.71875 24.75 
Q 40.046875 28.171875 37.921875 29.53125 
Q 35.796875 30.90625 33.59375 31.453125 
Q 31.984375 31.78125 28.328125 31.78125 
L 17.328125 31.78125 
L 17.328125 0 
z
M 17.328125 39.984375 
L 37.703125 39.984375 
Q 44.1875 39.984375 47.84375 41.328125 
Q 51.515625 42.671875 53.421875 45.625 
Q 55.328125 48.578125 55.328125 52.046875 
Q 55.328125 57.125 51.640625 60.390625 
Q 47.953125 63.671875 39.984375 63.671875 
L 17.328125 63.671875 
z
" id="ArialMT-52"/>
     <path d="M 52.828125 42.09375 
L 5.5625 42.09375 
L 5.5625 50.296875 
L 52.828125 50.296875 
z
M 52.828125 20.359375 
L 5.5625 20.359375 
L 5.5625 28.5625 
L 52.828125 28.5625 
z
" id="ArialMT-3d"/>
     <path d="M 6.59375 0 
L 6.59375 71.578125 
L 15.375 71.578125 
L 15.375 45.90625 
Q 21.53125 53.03125 30.90625 53.03125 
Q 36.671875 53.03125 40.921875 50.75 
Q 45.171875 48.484375 47 44.484375 
Q 48.828125 40.484375 48.828125 32.859375 
L 48.828125 0 
L 40.046875 0 
L 40.046875 32.859375 
Q 40.046875 39.453125 37.1875 42.453125 
Q 34.328125 45.453125 29.109375 45.453125 
Q 25.203125 45.453125 21.75 43.421875 
Q 18.3125 41.40625 16.84375 37.9375 
Q 15.375 34.46875 15.375 28.375 
L 15.375 0 
z
" id="ArialMT-68"/>
     <path d="M 6.59375 -19.875 
L 6.59375 51.859375 
L 14.59375 51.859375 
L 14.59375 45.125 
Q 17.4375 49.078125 21 51.046875 
Q 24.5625 53.03125 29.640625 53.03125 
Q 36.28125 53.03125 41.359375 49.609375 
Q 46.4375 46.1875 49.015625 39.953125 
Q 51.609375 33.734375 51.609375 26.3125 
Q 51.609375 18.359375 48.75 11.984375 
Q 45.90625 5.609375 40.453125 2.21875 
Q 35.015625 -1.171875 29 -1.171875 
Q 24.609375 -1.171875 21.109375 0.6875 
Q 17.625 2.546875 15.375 5.375 
L 15.375 -19.875 
z
M 14.546875 25.640625 
Q 14.546875 15.625 18.59375 10.84375 
Q 22.65625 6.0625 28.421875 6.0625 
Q 34.28125 6.0625 38.453125 11.015625 
Q 42.625 15.96875 42.625 26.375 
Q 42.625 36.28125 38.546875 41.203125 
Q 34.46875 46.140625 28.8125 46.140625 
Q 23.1875 46.140625 18.859375 40.890625 
Q 14.546875 35.640625 14.546875 25.640625 
" id="ArialMT-70"/>
     <path d="M 41.21875 28.078125 
L 41.21875 36.46875 
L 71.53125 36.53125 
L 71.53125 9.96875 
Q 64.546875 4.390625 57.125 1.578125 
Q 49.703125 -1.21875 41.890625 -1.21875 
Q 31.34375 -1.21875 22.71875 3.296875 
Q 14.109375 7.8125 9.71875 16.359375 
Q 5.328125 24.90625 5.328125 35.453125 
Q 5.328125 45.90625 9.6875 54.953125 
Q 14.0625 64.015625 22.265625 68.40625 
Q 30.46875 72.796875 41.15625 72.796875 
Q 48.921875 72.796875 55.1875 70.28125 
Q 61.46875 67.78125 65.03125 63.28125 
Q 68.609375 58.796875 70.453125 51.5625 
L 61.921875 49.21875 
Q 60.296875 54.6875 57.90625 57.8125 
Q 55.515625 60.9375 51.0625 62.8125 
Q 46.625 64.703125 41.21875 64.703125 
Q 34.71875 64.703125 29.984375 62.71875 
Q 25.25 60.75 22.34375 57.515625 
Q 19.4375 54.296875 17.828125 50.4375 
Q 15.09375 43.796875 15.09375 36.03125 
Q 15.09375 26.46875 18.390625 20.015625 
Q 21.6875 13.578125 27.984375 10.453125 
Q 34.28125 7.328125 41.359375 7.328125 
Q 47.515625 7.328125 53.375 9.6875 
Q 59.234375 12.0625 62.25 14.75 
L 62.25 28.078125 
z
" id="ArialMT-47"/>
     <path d="M 3.328125 25.921875 
Q 3.328125 40.328125 11.328125 47.265625 
Q 18.015625 53.03125 27.640625 53.03125 
Q 38.328125 53.03125 45.109375 46.015625 
Q 51.90625 39.015625 51.90625 26.65625 
Q 51.90625 16.65625 48.90625 10.90625 
Q 45.90625 5.171875 40.15625 2 
Q 34.421875 -1.171875 27.640625 -1.171875 
Q 16.75 -1.171875 10.03125 5.8125 
Q 3.328125 12.796875 3.328125 25.921875 
M 12.359375 25.921875 
Q 12.359375 15.96875 16.703125 11.015625 
Q 21.046875 6.0625 27.640625 6.0625 
Q 34.1875 6.0625 38.53125 11.03125 
Q 42.875 16.015625 42.875 26.21875 
Q 42.875 35.84375 38.5 40.796875 
Q 34.125 45.75 27.640625 45.75 
Q 21.046875 45.75 16.703125 40.8125 
Q 12.359375 35.890625 12.359375 25.921875 
" id="ArialMT-6f"/>
     <path d="M 7.328125 0 
L 7.328125 71.578125 
L 16.796875 71.578125 
L 16.796875 8.453125 
L 52.046875 8.453125 
L 52.046875 0 
z
" id="ArialMT-4c"/>
    </defs>
    <g style="fill:#262626;" transform="translate(101.137591132 18.9)scale(0.12 -0.12)">
     <use xlink:href="#ArialMT-4c"/>
     <use x="55.615234375" xlink:href="#ArialMT-6f"/>
     <use x="111.23046875" xlink:href="#ArialMT-67"/>
     <use x="166.845703125" xlink:href="#ArialMT-20"/>
     <use x="194.62890625" xlink:href="#ArialMT-47"/>
     <use x="272.412109375" xlink:href="#ArialMT-61"/>
     <use x="328.02734375" xlink:href="#ArialMT-6d"/>
     <use x="411.328125" xlink:href="#ArialMT-6d"/>
     <use x="494.62890625" xlink:href="#ArialMT-61"/>
     <use x="550.244140625" xlink:href="#ArialMT-63"/>
     <use x="600.244140625" xlink:href="#ArialMT-68"/>
     <use x="655.859375" xlink:href="#ArialMT-69"/>
     <use x="678.076171875" xlink:href="#ArialMT-72"/>
     <use x="711.376953125" xlink:href="#ArialMT-70"/>
     <use x="766.9921875" xlink:href="#ArialMT-20"/>
     <use x="794.775390625" xlink:href="#ArialMT-49"/>
     <use x="822.55859375" xlink:href="#ArialMT-52"/>
     <use x="894.775390625" xlink:href="#ArialMT-20"/>
     <use x="922.55859375" xlink:href="#ArialMT-28"/>
     <use x="955.859375" xlink:href="#ArialMT-63"/>
     <use x="1005.859375" xlink:href="#ArialMT-3d"/>
     <use x="1064.2578125" xlink:href="#ArialMT-2d"/>
     <use x="1097.55859375" xlink:href="#ArialMT-31"/>
     <use x="1153.17382812" xlink:href="#ArialMT-29"/>
    </g>
   </g>
  </g>
  <g id="axes_2">
   <g id="patch_5">
    <path d="M 319.190443 241.2 
L 565.2 241.2 
L 565.2 23.9 
L 319.190443 23.9 
z
" style="fill:#ffffff;"/>
   </g>
   <g id="matplotlib.axis_3">
    <g id="xtick_9">
     <g id="text_20">
      <!-- 0.000 -->
      <g style="fill:#262626;" transform="translate(306.185510142 261.3578125)scale(0.1 -0.1)">
       <use xlink:href="#ArialMT-30"/>
       <use x="55.615234375" xlink:href="#ArialMT-2e"/>
       <use x="83.3984375" xlink:href="#ArialMT-30"/>
       <use x="139.013671875" xlink:href="#ArialMT-30"/>
       <use x="194.62890625" xlink:href="#ArialMT-30"/>
      </g>
     </g>
    </g>
    <g id="xtick_10">
     <g id="line2d_16">
      <g>
       <use style="fill:#262626;stroke:#262626;" x="351.563587956" xlink:href="#m91923e0ecd" y="241.2"/>
      </g>
     </g>
     <g id="text_21">
      <!-- 0.002 -->
      <g style="fill:#262626;" transform="translate(339.052650456 261.3578125)scale(0.1 -0.1)">
       <use xlink:href="#ArialMT-30"/>
       <use x="55.615234375" xlink:href="#ArialMT-2e"/>
       <use x="83.3984375" xlink:href="#ArialMT-30"/>
       <use x="139.013671875" xlink:href="#ArialMT-30"/>
       <use x="194.62890625" xlink:href="#ArialMT-32"/>
      </g>
     </g>
    </g>
    <g id="xtick_11">
     <g id="line2d_17">
      <g>
       <use style="fill:#262626;stroke:#262626;" x="384.430728271" xlink:href="#m91923e0ecd" y="241.2"/>
      </g>
     </g>
     <g id="text_22">
      <!-- 0.004 -->
      <g style="fill:#262626;" transform="translate(371.919790771 261.3578125)scale(0.1 -0.1)">
       <use xlink:href="#ArialMT-30"/>
       <use x="55.615234375" xlink:href="#ArialMT-2e"/>
       <use x="83.3984375" xlink:href="#ArialMT-30"/>
       <use x="139.013671875" xlink:href="#ArialMT-30"/>
       <use x="194.62890625" xlink:href="#ArialMT-34"/>
      </g>
     </g>
    </g>
    <g id="xtick_12">
     <g id="line2d_18">
      <g>
       <use style="fill:#262626;stroke:#262626;" x="417.297868585" xlink:href="#m91923e0ecd" y="241.2"/>
      </g>
     </g>
     <g id="text_23">
      <!-- 0.006 -->
      <g style="fill:#262626;" transform="translate(404.786931085 261.3578125)scale(0.1 -0.1)">
       <use xlink:href="#ArialMT-30"/>
       <use x="55.615234375" xlink:href="#ArialMT-2e"/>
       <use x="83.3984375" xlink:href="#ArialMT-30"/>
       <use x="139.013671875" xlink:href="#ArialMT-30"/>
       <use x="194.62890625" xlink:href="#ArialMT-36"/>
      </g>
     </g>
    </g>
    <g id="xtick_13">
     <g id="line2d_19">
      <g>
       <use style="fill:#262626;stroke:#262626;" x="450.1650089" xlink:href="#m91923e0ecd" y="241.2"/>
      </g>
     </g>
     <g id="text_24">
      <!-- 0.008 -->
      <g style="fill:#262626;" transform="translate(437.6540714 261.3578125)scale(0.1 -0.1)">
       <use xlink:href="#ArialMT-30"/>
       <use x="55.615234375" xlink:href="#ArialMT-2e"/>
       <use x="83.3984375" xlink:href="#ArialMT-30"/>
       <use x="139.013671875" xlink:href="#ArialMT-30"/>
       <use x="194.62890625" xlink:href="#ArialMT-38"/>
      </g>
     </g>
    </g>
    <g id="xtick_14">
     <g id="line2d_20">
      <g>
       <use style="fill:#262626;stroke:#262626;" x="483.032149214" xlink:href="#m91923e0ecd" y="241.2"/>
      </g>
     </g>
     <g id="text_25">
      <!-- 0.010 -->
      <g style="fill:#262626;" transform="translate(470.521211714 261.3578125)scale(0.1 -0.1)">
       <use xlink:href="#ArialMT-30"/>
       <use x="55.615234375" xlink:href="#ArialMT-2e"/>
       <use x="83.3984375" xlink:href="#ArialMT-30"/>
       <use x="139.013671875" xlink:href="#ArialMT-31"/>
       <use x="194.62890625" xlink:href="#ArialMT-30"/>
      </g>
     </g>
    </g>
    <g id="xtick_15">
     <g id="line2d_21">
      <g>
       <use style="fill:#262626;stroke:#262626;" x="515.899289528" xlink:href="#m91923e0ecd" y="241.2"/>
      </g>
     </g>
     <g id="text_26">
      <!-- 0.012 -->
      <g style="fill:#262626;" transform="translate(503.388352028 261.3578125)scale(0.1 -0.1)">
       <use xlink:href="#ArialMT-30"/>
       <use x="55.615234375" xlink:href="#ArialMT-2e"/>
       <use x="83.3984375" xlink:href="#ArialMT-30"/>
       <use x="139.013671875" xlink:href="#ArialMT-31"/>
       <use x="194.62890625" xlink:href="#ArialMT-32"/>
      </g>
     </g>
    </g>
    <g id="xtick_16">
     <g id="line2d_22">
      <g>
       <use style="fill:#262626;stroke:#262626;" x="548.766429843" xlink:href="#m91923e0ecd" y="241.2"/>
      </g>
     </g>
     <g id="text_27">
      <!-- 0.014 -->
      <g style="fill:#262626;" transform="translate(536.255492343 261.3578125)scale(0.1 -0.1)">
       <use xlink:href="#ArialMT-30"/>
       <use x="55.615234375" xlink:href="#ArialMT-2e"/>
       <use x="83.3984375" xlink:href="#ArialMT-30"/>
       <use x="139.013671875" xlink:href="#ArialMT-31"/>
       <use x="194.62890625" xlink:href="#ArialMT-34"/>
      </g>
     </g>
    </g>
    <g id="text_28">
     <!-- Time (s) -->
     <g style="fill:#262626;" transform="translate(422.036002618 276.35296875)scale(0.11 -0.11)">
      <use xlink:href="#ArialMT-54"/>
      <use x="61.037109375" xlink:href="#ArialMT-69"/>
      <use x="83.25390625" xlink:href="#ArialMT-6d"/>
      <use x="166.5546875" xlink:href="#ArialMT-65"/>
      <use x="222.169921875" xlink:href="#ArialMT-20"/>
      <use x="249.953125" xlink:href="#ArialMT-28"/>
      <use x="283.25390625" xlink:href="#ArialMT-73"/>
      <use x="333.25390625" xlink:href="#ArialMT-29"/>
     </g>
    </g>
   </g>
   <g id="matplotlib.axis_4"/>
   <g id="line2d_23">
    <path clip-path="url(#pa570c14737)" d="M 319.190443 132.076542 
L 319.684438 132.252958 
L 320.178433 131.799134 
L 320.672428 130.398365 
L 321.166423 133.651193 
L 321.660418 135.775589 
L 322.154413 132.184756 
L 322.648408 126.220082 
L 323.142403 123.991949 
L 323.636399 128.268061 
L 324.624389 144.76782 
L 325.118384 147.402116 
L 325.612379 142.842782 
L 327.094364 109.485173 
L 327.588359 105.157708 
L 328.082354 108.59998 
L 328.57635 119.324814 
L 330.058335 165.346427 
L 330.55233 173.057294 
L 331.046325 172.699864 
L 331.54032 163.993798 
L 332.034315 148.302911 
L 333.5163 89.264973 
L 334.010296 76.915808 
L 334.504291 72.536318 
L 334.998286 77.027387 
L 335.492281 89.946388 
L 336.480271 133.427317 
L 337.468261 180.628624 
L 337.962256 197.782443 
L 338.456251 207.390573 
L 338.950247 208.146641 
L 339.444242 199.830392 
L 339.938237 183.301465 
L 340.926227 133.548421 
L 341.914217 80.059263 
L 342.408212 59.154798 
L 342.902207 45.285751 
L 343.396202 39.922872 
L 343.890197 43.654924 
L 344.384193 56.153231 
L 344.878188 76.228835 
L 345.866178 130.951789 
L 346.854168 187.794036 
L 347.348163 210.451972 
L 347.842158 226.410227 
L 348.336153 234.264274 
L 348.830148 233.342612 
L 349.324144 223.746451 
L 349.818139 206.320953 
L 350.806129 154.481897 
L 352.288114 68.073181 
L 352.782109 46.30924 
L 353.276104 31.207154 
L 353.770099 23.9 
L 354.264094 24.893037 
L 354.75809 34.040743 
L 355.252085 50.574994 
L 356.240075 100.106161 
L 357.72206 185.912506 
L 358.216055 209.214012 
L 358.71005 226.906355 
L 359.204045 237.796761 
L 359.698041 241.2 
L 360.192036 236.97353 
L 360.686031 225.513046 
L 361.180026 207.710333 
L 362.168016 158.646981 
L 363.650001 78.067074 
L 364.143996 56.573367 
L 364.637991 40.255608 
L 365.131987 30.103132 
L 365.625982 26.678007 
L 366.119977 30.089905 
L 366.613972 40.001475 
L 367.107967 55.66269 
L 368.095957 99.551152 
L 370.071938 195.101613 
L 370.565933 211.851181 
L 371.059928 223.451232 
L 371.553923 229.290931 
L 372.047918 229.128253 
L 372.541913 223.09424 
L 373.035908 211.674221 
L 374.023898 176.132255 
L 376.493874 70.940743 
L 376.987869 57.142962 
L 377.481864 47.946506 
L 377.975859 43.782118 
L 378.469854 44.77648 
L 378.963849 50.753937 
L 379.457844 61.255751 
L 380.445835 92.80529 
L 382.91581 184.582563 
L 383.409805 196.808954 
L 383.9038 205.173907 
L 384.397795 209.308833 
L 384.89179 209.090706 
L 385.385785 204.641304 
L 385.879781 196.312845 
L 386.867771 170.409542 
L 389.337746 91.124897 
L 389.831741 79.719855 
L 390.325736 71.382546 
L 390.819731 66.4766 
L 391.313727 65.171157 
L 391.807722 67.438014 
L 392.301717 73.059461 
L 392.795712 81.64598 
L 393.783702 105.461448 
L 395.759682 159.772743 
L 396.747673 179.092163 
L 397.241668 184.95451 
L 397.735663 187.932884 
L 398.229658 187.956617 
L 398.723653 185.109825 
L 399.217648 179.621945 
L 399.711643 171.851095 
L 400.699633 151.395476 
L 402.675614 107.046409 
L 403.169609 98.530194 
L 403.663604 91.934707 
L 404.157599 87.534022 
L 404.651594 85.48289 
L 405.145589 85.812964 
L 405.639584 88.435381 
L 406.133579 93.149311 
L 407.12157 107.576256 
L 410.08554 159.278459 
L 410.579535 164.608162 
L 411.07353 168.18267 
L 411.567525 169.882204 
L 412.061521 169.682896 
L 412.555516 167.65464 
L 413.049511 163.954405 
L 414.037501 152.533625 
L 417.001472 110.8356 
L 417.495467 106.366911 
L 417.989462 103.264075 
L 418.483457 101.6312 
L 418.977452 101.498309 
L 419.471447 102.822527 
L 419.965442 105.492718 
L 420.459437 109.337239 
L 421.447427 119.624364 
L 423.423408 142.782668 
L 424.411398 151.334126 
L 424.905393 154.135049 
L 425.399388 155.805551 
L 425.893383 156.305322 
L 426.387378 155.65051 
L 426.881373 153.910924 
L 427.375369 151.204804 
L 428.363359 143.562582 
L 430.833334 121.324508 
L 431.327329 118.008929 
L 431.821324 115.449902 
L 432.315319 113.739614 
L 432.809315 112.927665 
L 433.30331 113.020343 
L 433.797305 113.98192 
L 434.2913 115.737858 
L 435.27929 121.171223 
L 438.243261 141.483198 
L 438.737256 143.803199 
L 439.231251 145.505655 
L 439.725246 146.534964 
L 440.219241 146.868221 
L 440.713236 146.515039 
L 441.207231 145.515892 
L 441.701226 143.939121 
L 442.689216 139.439564 
L 445.159192 126.068197 
L 446.147182 122.376595 
L 446.641177 121.234387 
L 447.135172 120.614038 
L 447.629167 120.524435 
L 448.123163 120.950316 
L 448.617158 121.853873 
L 449.111153 123.177303 
L 450.099143 126.773334 
L 452.569118 136.909114 
L 453.557109 139.566014 
L 454.051104 140.347401 
L 454.545099 140.730422 
L 455.039094 140.71284 
L 455.533089 140.310256 
L 456.027084 139.554728 
L 457.015074 137.182491 
L 458.49706 132.456507 
L 459.48505 129.373408 
L 460.47304 126.956662 
L 460.967035 126.119115 
L 461.46103 125.569041 
L 461.955025 125.31975 
L 462.44902 125.370853 
L 462.943015 125.708815 
L 463.43701 126.308059 
L 464.425001 128.137817 
L 467.882966 135.818623 
L 468.376961 136.435394 
L 468.870956 136.836077 
L 469.364952 137.011531 
L 469.858947 136.962742 
L 470.352942 136.700384 
L 470.846937 136.243972 
L 471.834927 134.8638 
L 475.292893 129.110304 
L 475.786888 128.647415 
L 476.280883 128.345252 
L 476.774878 128.210588 
L 477.268873 128.242729 
L 477.762868 128.433844 
L 478.750858 129.229953 
L 479.738849 130.423052 
L 482.208824 133.62896 
L 483.196814 134.443129 
L 483.690809 134.678043 
L 484.184804 134.789182 
L 484.6788 134.776657 
L 485.66679 134.406936 
L 486.65478 133.665829 
L 490.112746 130.461815 
L 491.100736 130.001617 
L 492.088726 129.900885 
L 493.076716 130.148244 
L 494.064706 130.676193 
L 498.016667 133.268776 
L 499.004657 133.504388 
L 499.992647 133.474278 
L 500.980638 133.20416 
L 502.462623 132.493041 
L 504.932598 131.238984 
L 505.920589 130.948921 
L 506.908579 130.848279 
L 507.896569 130.938347 
L 509.378554 131.3595 
L 512.83652 132.612902 
L 514.318505 132.808476 
L 515.800491 132.694079 
L 517.776471 132.202344 
L 520.246446 131.552586 
L 521.728432 131.383641 
L 523.210417 131.440925 
L 525.186397 131.77995 
L 528.150368 132.330318 
L 530.126348 132.413027 
L 532.102329 132.231246 
L 536.548284 131.680291 
L 538.524265 131.701396 
L 541.982231 132.044195 
L 544.452206 132.205207 
L 546.922181 132.143687 
L 552.850123 131.817486 
L 556.308088 131.957159 
L 560.260049 132.099468 
L 564.21201 131.990168 
L 565.2 131.951635 
L 565.2 131.951635 
" style="fill:none;stroke:#4c72b0;stroke-linecap:round;stroke-width:1.75;"/>
   </g>
   <g id="patch_6">
    <path d="M 319.190443 241.2 
L 565.2 241.2 
" style="fill:none;stroke:#262626;stroke-linecap:square;stroke-linejoin:miter;stroke-width:1.25;"/>
   </g>
   <g id="text_29">
    <!-- Log Gammachirp IR (c=1) -->
    <g style="fill:#262626;" transform="translate(373.008658868 18.9)scale(0.12 -0.12)">
     <use xlink:href="#ArialMT-4c"/>
     <use x="55.615234375" xlink:href="#ArialMT-6f"/>
     <use x="111.23046875" xlink:href="#ArialMT-67"/>
     <use x="166.845703125" xlink:href="#ArialMT-20"/>
     <use x="194.62890625" xlink:href="#ArialMT-47"/>
     <use x="272.412109375" xlink:href="#ArialMT-61"/>
     <use x="328.02734375" xlink:href="#ArialMT-6d"/>
     <use x="411.328125" xlink:href="#ArialMT-6d"/>
     <use x="494.62890625" xlink:href="#ArialMT-61"/>
     <use x="550.244140625" xlink:href="#ArialMT-63"/>
     <use x="600.244140625" xlink:href="#ArialMT-68"/>
     <use x="655.859375" xlink:href="#ArialMT-69"/>
     <use x="678.076171875" xlink:href="#ArialMT-72"/>
     <use x="711.376953125" xlink:href="#ArialMT-70"/>
     <use x="766.9921875" xlink:href="#ArialMT-20"/>
     <use x="794.775390625" xlink:href="#ArialMT-49"/>
     <use x="822.55859375" xlink:href="#ArialMT-52"/>
     <use x="894.775390625" xlink:href="#ArialMT-20"/>
     <use x="922.55859375" xlink:href="#ArialMT-28"/>
     <use x="955.859375" xlink:href="#ArialMT-63"/>
     <use x="1005.859375" xlink:href="#ArialMT-3d"/>
     <use x="1064.2578125" xlink:href="#ArialMT-31"/>
     <use x="1119.87304688" xlink:href="#ArialMT-29"/>
    </g>
   </g>
  </g>
 </g>
 <defs>
  <clipPath id="pa570c14737">
   <rect height="217.3" width="246.009557263" x="319.190442737" y="23.9"/>
  </clipPath>
  <clipPath id="p89b1aff51e">
   <rect height="217.3" width="246.009557263" x="49.3171875" y="23.9"/>
  </clipPath>
 </defs>
</svg>
