<?xml version="1.0" encoding="utf-8" standalone="no"?>
<!DOCTYPE svg PUBLIC "-//W3C//DTD SVG 1.1//EN"
  "http://www.w3.org/Graphics/SVG/1.1/DTD/svg11.dtd">
<!-- Created with matplotlib (http://matplotlib.org/) -->
<svg height="432pt" version="1.1" viewBox="0 0 720 432" width="720pt" xmlns="http://www.w3.org/2000/svg" xmlns:xlink="http://www.w3.org/1999/xlink">
 <defs>
  <style type="text/css">
*{stroke-linecap:butt;stroke-linejoin:round;stroke-miterlimit:100000;}
  </style>
 </defs>
 <g id="figure_1">
  <g id="patch_1">
   <path d="M 0 432 
L 720 432 
L 720 0 
L 0 0 
z
" style="fill:#ffffff;"/>
  </g>
  <g id="axes_1">
   <g id="patch_2">
    <path d="M 90 378 
L 648 378 
L 648 43.2 
L 90 43.2 
z
" style="fill:#ffffff;"/>
   </g>
   <g id="matplotlib.axis_1">
    <g id="xtick_1">
     <g id="line2d_1">
      <defs>
       <path d="M 0 0 
L 0 6 
" id="m64cec40d45" style="stroke:#262626;"/>
      </defs>
      <g>
       <use style="fill:#262626;stroke:#262626;" x="229.5" xlink:href="#m64cec40d45" y="378.0"/>
      </g>
     </g>
     <g id="text_1">
      <!-- Training -->
      <defs>
       <path d="M 40.4375 6.390625 
Q 35.546875 2.25 31.03125 0.53125 
Q 26.515625 -1.171875 21.34375 -1.171875 
Q 12.796875 -1.171875 8.203125 3 
Q 3.609375 7.171875 3.609375 13.671875 
Q 3.609375 17.484375 5.34375 20.625 
Q 7.078125 23.78125 9.890625 25.6875 
Q 12.703125 27.59375 16.21875 28.5625 
Q 18.796875 29.25 24.03125 29.890625 
Q 34.671875 31.15625 39.703125 32.90625 
Q 39.75 34.71875 39.75 35.203125 
Q 39.75 40.578125 37.25 42.78125 
Q 33.890625 45.75 27.25 45.75 
Q 21.046875 45.75 18.09375 43.578125 
Q 15.140625 41.40625 13.71875 35.890625 
L 5.125 37.0625 
Q 6.296875 42.578125 8.984375 45.96875 
Q 11.671875 49.359375 16.75 51.1875 
Q 21.828125 53.03125 28.515625 53.03125 
Q 35.15625 53.03125 39.296875 51.46875 
Q 43.453125 49.90625 45.40625 47.53125 
Q 47.359375 45.171875 48.140625 41.546875 
Q 48.578125 39.3125 48.578125 33.453125 
L 48.578125 21.734375 
Q 48.578125 9.46875 49.140625 6.21875 
Q 49.703125 2.984375 51.375 0 
L 42.1875 0 
Q 40.828125 2.734375 40.4375 6.390625 
M 39.703125 26.03125 
Q 34.90625 24.078125 25.34375 22.703125 
Q 19.921875 21.921875 17.671875 20.9375 
Q 15.4375 19.96875 14.203125 18.09375 
Q 12.984375 16.21875 12.984375 13.921875 
Q 12.984375 10.40625 15.640625 8.0625 
Q 18.3125 5.71875 23.4375 5.71875 
Q 28.515625 5.71875 32.46875 7.9375 
Q 36.421875 10.15625 38.28125 14.015625 
Q 39.703125 17 39.703125 22.796875 
z
" id="ArialMT-61"/>
       <path d="M 4.984375 -4.296875 
L 13.53125 -5.5625 
Q 14.0625 -9.515625 16.5 -11.328125 
Q 19.78125 -13.765625 25.4375 -13.765625 
Q 31.546875 -13.765625 34.859375 -11.328125 
Q 38.1875 -8.890625 39.359375 -4.5 
Q 40.046875 -1.8125 39.984375 6.78125 
Q 34.234375 0 25.640625 0 
Q 14.9375 0 9.078125 7.71875 
Q 3.21875 15.4375 3.21875 26.21875 
Q 3.21875 33.640625 5.90625 39.90625 
Q 8.59375 46.1875 13.6875 49.609375 
Q 18.796875 53.03125 25.6875 53.03125 
Q 34.859375 53.03125 40.828125 45.609375 
L 40.828125 51.859375 
L 48.921875 51.859375 
L 48.921875 7.03125 
Q 48.921875 -5.078125 46.453125 -10.125 
Q 44 -15.1875 38.640625 -18.109375 
Q 33.296875 -21.046875 25.484375 -21.046875 
Q 16.21875 -21.046875 10.5 -16.875 
Q 4.78125 -12.703125 4.984375 -4.296875 
M 12.25 26.859375 
Q 12.25 16.65625 16.296875 11.96875 
Q 20.359375 7.28125 26.46875 7.28125 
Q 32.515625 7.28125 36.609375 11.9375 
Q 40.71875 16.609375 40.71875 26.5625 
Q 40.71875 36.078125 36.5 40.90625 
Q 32.28125 45.75 26.3125 45.75 
Q 20.453125 45.75 16.34375 40.984375 
Q 12.25 36.234375 12.25 26.859375 
" id="ArialMT-67"/>
       <path d="M 6.640625 61.46875 
L 6.640625 71.578125 
L 15.4375 71.578125 
L 15.4375 61.46875 
z
M 6.640625 0 
L 6.640625 51.859375 
L 15.4375 51.859375 
L 15.4375 0 
z
" id="ArialMT-69"/>
       <path d="M 6.5 0 
L 6.5 51.859375 
L 14.40625 51.859375 
L 14.40625 44 
Q 17.4375 49.515625 20 51.265625 
Q 22.5625 53.03125 25.640625 53.03125 
Q 30.078125 53.03125 34.671875 50.203125 
L 31.640625 42.046875 
Q 28.421875 43.953125 25.203125 43.953125 
Q 22.3125 43.953125 20.015625 42.21875 
Q 17.71875 40.484375 16.75 37.40625 
Q 15.28125 32.71875 15.28125 27.15625 
L 15.28125 0 
z
" id="ArialMT-72"/>
       <path d="M 25.921875 0 
L 25.921875 63.140625 
L 2.34375 63.140625 
L 2.34375 71.578125 
L 59.078125 71.578125 
L 59.078125 63.140625 
L 35.40625 63.140625 
L 35.40625 0 
z
" id="ArialMT-54"/>
       <path d="M 6.59375 0 
L 6.59375 51.859375 
L 14.5 51.859375 
L 14.5 44.484375 
Q 20.21875 53.03125 31 53.03125 
Q 35.6875 53.03125 39.625 51.34375 
Q 43.5625 49.65625 45.515625 46.921875 
Q 47.46875 44.1875 48.25 40.4375 
Q 48.734375 37.984375 48.734375 31.890625 
L 48.734375 0 
L 39.9375 0 
L 39.9375 31.546875 
Q 39.9375 36.921875 38.90625 39.578125 
Q 37.890625 42.234375 35.28125 43.8125 
Q 32.671875 45.40625 29.15625 45.40625 
Q 23.53125 45.40625 19.453125 41.84375 
Q 15.375 38.28125 15.375 28.328125 
L 15.375 0 
z
" id="ArialMT-6e"/>
      </defs>
      <g style="fill:#262626;" transform="translate(211.43984375 398.1578125)scale(0.1 -0.1)">
       <use xlink:href="#ArialMT-54"/>
       <use x="61.037109375" xlink:href="#ArialMT-72"/>
       <use x="94.337890625" xlink:href="#ArialMT-61"/>
       <use x="149.953125" xlink:href="#ArialMT-69"/>
       <use x="172.169921875" xlink:href="#ArialMT-6e"/>
       <use x="227.78515625" xlink:href="#ArialMT-69"/>
       <use x="250.001953125" xlink:href="#ArialMT-6e"/>
       <use x="305.6171875" xlink:href="#ArialMT-67"/>
      </g>
     </g>
    </g>
    <g id="xtick_2">
     <g id="line2d_2">
      <g>
       <use style="fill:#262626;stroke:#262626;" x="508.5" xlink:href="#m64cec40d45" y="378.0"/>
      </g>
     </g>
     <g id="text_2">
      <!-- Testing -->
      <defs>
       <path d="M 25.78125 7.859375 
L 27.046875 0.09375 
Q 23.34375 -0.6875 20.40625 -0.6875 
Q 15.625 -0.6875 12.984375 0.828125 
Q 10.359375 2.34375 9.28125 4.8125 
Q 8.203125 7.28125 8.203125 15.1875 
L 8.203125 45.015625 
L 1.765625 45.015625 
L 1.765625 51.859375 
L 8.203125 51.859375 
L 8.203125 64.703125 
L 16.9375 69.96875 
L 16.9375 51.859375 
L 25.78125 51.859375 
L 25.78125 45.015625 
L 16.9375 45.015625 
L 16.9375 14.703125 
Q 16.9375 10.9375 17.40625 9.859375 
Q 17.875 8.796875 18.921875 8.15625 
Q 19.96875 7.515625 21.921875 7.515625 
Q 23.390625 7.515625 25.78125 7.859375 
" id="ArialMT-74"/>
       <path d="M 42.09375 16.703125 
L 51.171875 15.578125 
Q 49.03125 7.625 43.21875 3.21875 
Q 37.40625 -1.171875 28.375 -1.171875 
Q 17 -1.171875 10.328125 5.828125 
Q 3.65625 12.84375 3.65625 25.484375 
Q 3.65625 38.578125 10.390625 45.796875 
Q 17.140625 53.03125 27.875 53.03125 
Q 38.28125 53.03125 44.875 45.953125 
Q 51.46875 38.875 51.46875 26.03125 
Q 51.46875 25.25 51.421875 23.6875 
L 12.75 23.6875 
Q 13.234375 15.140625 17.578125 10.59375 
Q 21.921875 6.0625 28.421875 6.0625 
Q 33.25 6.0625 36.671875 8.59375 
Q 40.09375 11.140625 42.09375 16.703125 
M 13.234375 30.90625 
L 42.1875 30.90625 
Q 41.609375 37.453125 38.875 40.71875 
Q 34.671875 45.796875 27.984375 45.796875 
Q 21.921875 45.796875 17.796875 41.75 
Q 13.671875 37.703125 13.234375 30.90625 
" id="ArialMT-65"/>
       <path d="M 3.078125 15.484375 
L 11.765625 16.84375 
Q 12.5 11.625 15.84375 8.84375 
Q 19.1875 6.0625 25.203125 6.0625 
Q 31.25 6.0625 34.171875 8.515625 
Q 37.109375 10.984375 37.109375 14.3125 
Q 37.109375 17.28125 34.515625 19 
Q 32.71875 20.171875 25.53125 21.96875 
Q 15.875 24.421875 12.140625 26.203125 
Q 8.40625 27.984375 6.46875 31.125 
Q 4.546875 34.28125 4.546875 38.09375 
Q 4.546875 41.546875 6.125 44.5 
Q 7.71875 47.46875 10.453125 49.421875 
Q 12.5 50.921875 16.03125 51.96875 
Q 19.578125 53.03125 23.640625 53.03125 
Q 29.734375 53.03125 34.34375 51.265625 
Q 38.96875 49.515625 41.15625 46.5 
Q 43.359375 43.5 44.1875 38.484375 
L 35.59375 37.3125 
Q 35.015625 41.3125 32.203125 43.546875 
Q 29.390625 45.796875 24.265625 45.796875 
Q 18.21875 45.796875 15.625 43.796875 
Q 13.03125 41.796875 13.03125 39.109375 
Q 13.03125 37.40625 14.109375 36.03125 
Q 15.1875 34.625 17.484375 33.6875 
Q 18.796875 33.203125 25.25 31.453125 
Q 34.578125 28.953125 38.25 27.359375 
Q 41.9375 25.78125 44.03125 22.75 
Q 46.140625 19.734375 46.140625 15.234375 
Q 46.140625 10.84375 43.578125 6.953125 
Q 41.015625 3.078125 36.171875 0.953125 
Q 31.34375 -1.171875 25.25 -1.171875 
Q 15.140625 -1.171875 9.84375 3.03125 
Q 4.546875 7.234375 3.078125 15.484375 
" id="ArialMT-73"/>
      </defs>
      <g style="fill:#262626;" transform="translate(492.11328125 398.1578125)scale(0.1 -0.1)">
       <use xlink:href="#ArialMT-54"/>
       <use x="60.912109375" xlink:href="#ArialMT-65"/>
       <use x="116.52734375" xlink:href="#ArialMT-73"/>
       <use x="166.52734375" xlink:href="#ArialMT-74"/>
       <use x="194.310546875" xlink:href="#ArialMT-69"/>
       <use x="216.52734375" xlink:href="#ArialMT-6e"/>
       <use x="272.142578125" xlink:href="#ArialMT-67"/>
      </g>
     </g>
    </g>
   </g>
   <g id="matplotlib.axis_2">
    <g id="ytick_1">
     <g id="line2d_3">
      <defs>
       <path d="M 0 0 
L -6 0 
" id="mbe6a87f373" style="stroke:#262626;"/>
      </defs>
      <g>
       <use style="fill:#262626;stroke:#262626;" x="90.0" xlink:href="#mbe6a87f373" y="378.0"/>
      </g>
     </g>
     <g id="text_3">
      <!-- 1.0 -->
      <defs>
       <path d="M 4.15625 35.296875 
Q 4.15625 48 6.765625 55.734375 
Q 9.375 63.484375 14.515625 67.671875 
Q 19.671875 71.875 27.484375 71.875 
Q 33.25 71.875 37.59375 69.546875 
Q 41.9375 67.234375 44.765625 62.859375 
Q 47.609375 58.5 49.21875 52.21875 
Q 50.828125 45.953125 50.828125 35.296875 
Q 50.828125 22.703125 48.234375 14.96875 
Q 45.65625 7.234375 40.5 3 
Q 35.359375 -1.21875 27.484375 -1.21875 
Q 17.140625 -1.21875 11.234375 6.203125 
Q 4.15625 15.140625 4.15625 35.296875 
M 13.1875 35.296875 
Q 13.1875 17.671875 17.3125 11.828125 
Q 21.4375 6 27.484375 6 
Q 33.546875 6 37.671875 11.859375 
Q 41.796875 17.71875 41.796875 35.296875 
Q 41.796875 52.984375 37.671875 58.78125 
Q 33.546875 64.59375 27.390625 64.59375 
Q 21.34375 64.59375 17.71875 59.46875 
Q 13.1875 52.9375 13.1875 35.296875 
" id="ArialMT-30"/>
       <path d="M 37.25 0 
L 28.46875 0 
L 28.46875 56 
Q 25.296875 52.984375 20.140625 49.953125 
Q 14.984375 46.921875 10.890625 45.40625 
L 10.890625 53.90625 
Q 18.265625 57.375 23.78125 62.296875 
Q 29.296875 67.234375 31.59375 71.875 
L 37.25 71.875 
z
" id="ArialMT-31"/>
       <path d="M 9.078125 0 
L 9.078125 10.015625 
L 19.09375 10.015625 
L 19.09375 0 
z
" id="ArialMT-2e"/>
      </defs>
      <g style="fill:#262626;" transform="translate(63.1 380.58515625)scale(0.1 -0.1)">
       <use xlink:href="#ArialMT-31"/>
       <use x="55.615234375" xlink:href="#ArialMT-2e"/>
       <use x="83.3984375" xlink:href="#ArialMT-30"/>
      </g>
     </g>
    </g>
    <g id="ytick_2">
     <g id="line2d_4">
      <g>
       <use style="fill:#262626;stroke:#262626;" x="90.0" xlink:href="#mbe6a87f373" y="322.2"/>
      </g>
     </g>
     <g id="text_4">
      <!-- 1.1 -->
      <g style="fill:#262626;" transform="translate(63.1 324.78515625)scale(0.1 -0.1)">
       <use xlink:href="#ArialMT-31"/>
       <use x="55.615234375" xlink:href="#ArialMT-2e"/>
       <use x="83.3984375" xlink:href="#ArialMT-31"/>
      </g>
     </g>
    </g>
    <g id="ytick_3">
     <g id="line2d_5">
      <g>
       <use style="fill:#262626;stroke:#262626;" x="90.0" xlink:href="#mbe6a87f373" y="266.4"/>
      </g>
     </g>
     <g id="text_5">
      <!-- 1.2 -->
      <defs>
       <path d="M 50.34375 8.453125 
L 50.34375 0 
L 3.03125 0 
Q 2.9375 3.171875 4.046875 6.109375 
Q 5.859375 10.9375 9.828125 15.625 
Q 13.8125 20.3125 21.34375 26.46875 
Q 33.015625 36.03125 37.109375 41.625 
Q 41.21875 47.21875 41.21875 52.203125 
Q 41.21875 57.421875 37.46875 61 
Q 33.734375 64.59375 27.734375 64.59375 
Q 21.390625 64.59375 17.578125 60.78125 
Q 13.765625 56.984375 13.71875 50.25 
L 4.6875 51.171875 
Q 5.609375 61.28125 11.65625 66.578125 
Q 17.71875 71.875 27.9375 71.875 
Q 38.234375 71.875 44.234375 66.15625 
Q 50.25 60.453125 50.25 52 
Q 50.25 47.703125 48.484375 43.546875 
Q 46.734375 39.40625 42.65625 34.8125 
Q 38.578125 30.21875 29.109375 22.21875 
Q 21.1875 15.578125 18.9375 13.203125 
Q 16.703125 10.84375 15.234375 8.453125 
z
" id="ArialMT-32"/>
      </defs>
      <g style="fill:#262626;" transform="translate(63.1 268.98515625)scale(0.1 -0.1)">
       <use xlink:href="#ArialMT-31"/>
       <use x="55.615234375" xlink:href="#ArialMT-2e"/>
       <use x="83.3984375" xlink:href="#ArialMT-32"/>
      </g>
     </g>
    </g>
    <g id="ytick_4">
     <g id="line2d_6">
      <g>
       <use style="fill:#262626;stroke:#262626;" x="90.0" xlink:href="#mbe6a87f373" y="210.6"/>
      </g>
     </g>
     <g id="text_6">
      <!-- 1.3 -->
      <defs>
       <path d="M 4.203125 18.890625 
L 12.984375 20.0625 
Q 14.5 12.59375 18.140625 9.296875 
Q 21.78125 6 27 6 
Q 33.203125 6 37.46875 10.296875 
Q 41.75 14.59375 41.75 20.953125 
Q 41.75 27 37.796875 30.921875 
Q 33.84375 34.859375 27.734375 34.859375 
Q 25.25 34.859375 21.53125 33.890625 
L 22.515625 41.609375 
Q 23.390625 41.5 23.921875 41.5 
Q 29.546875 41.5 34.03125 44.421875 
Q 38.53125 47.359375 38.53125 53.46875 
Q 38.53125 58.296875 35.25 61.46875 
Q 31.984375 64.65625 26.8125 64.65625 
Q 21.6875 64.65625 18.265625 61.421875 
Q 14.84375 58.203125 13.875 51.765625 
L 5.078125 53.328125 
Q 6.6875 62.15625 12.390625 67.015625 
Q 18.109375 71.875 26.609375 71.875 
Q 32.46875 71.875 37.390625 69.359375 
Q 42.328125 66.84375 44.9375 62.5 
Q 47.5625 58.15625 47.5625 53.265625 
Q 47.5625 48.640625 45.0625 44.828125 
Q 42.578125 41.015625 37.703125 38.765625 
Q 44.046875 37.3125 47.5625 32.6875 
Q 51.078125 28.078125 51.078125 21.140625 
Q 51.078125 11.765625 44.234375 5.25 
Q 37.40625 -1.265625 26.953125 -1.265625 
Q 17.53125 -1.265625 11.296875 4.34375 
Q 5.078125 9.96875 4.203125 18.890625 
" id="ArialMT-33"/>
      </defs>
      <g style="fill:#262626;" transform="translate(63.1 213.18515625)scale(0.1 -0.1)">
       <use xlink:href="#ArialMT-31"/>
       <use x="55.615234375" xlink:href="#ArialMT-2e"/>
       <use x="83.3984375" xlink:href="#ArialMT-33"/>
      </g>
     </g>
    </g>
    <g id="ytick_5">
     <g id="line2d_7">
      <g>
       <use style="fill:#262626;stroke:#262626;" x="90.0" xlink:href="#mbe6a87f373" y="154.8"/>
      </g>
     </g>
     <g id="text_7">
      <!-- 1.4 -->
      <defs>
       <path d="M 32.328125 0 
L 32.328125 17.140625 
L 1.265625 17.140625 
L 1.265625 25.203125 
L 33.9375 71.578125 
L 41.109375 71.578125 
L 41.109375 25.203125 
L 50.78125 25.203125 
L 50.78125 17.140625 
L 41.109375 17.140625 
L 41.109375 0 
z
M 32.328125 25.203125 
L 32.328125 57.46875 
L 9.90625 25.203125 
z
" id="ArialMT-34"/>
      </defs>
      <g style="fill:#262626;" transform="translate(63.1 157.38515625)scale(0.1 -0.1)">
       <use xlink:href="#ArialMT-31"/>
       <use x="55.615234375" xlink:href="#ArialMT-2e"/>
       <use x="83.3984375" xlink:href="#ArialMT-34"/>
      </g>
     </g>
    </g>
    <g id="ytick_6">
     <g id="line2d_8">
      <g>
       <use style="fill:#262626;stroke:#262626;" x="90.0" xlink:href="#mbe6a87f373" y="99.0"/>
      </g>
     </g>
     <g id="text_8">
      <!-- 1.5 -->
      <defs>
       <path d="M 4.15625 18.75 
L 13.375 19.53125 
Q 14.40625 12.796875 18.140625 9.390625 
Q 21.875 6 27.15625 6 
Q 33.5 6 37.890625 10.78125 
Q 42.28125 15.578125 42.28125 23.484375 
Q 42.28125 31 38.0625 35.34375 
Q 33.84375 39.703125 27 39.703125 
Q 22.75 39.703125 19.328125 37.765625 
Q 15.921875 35.84375 13.96875 32.765625 
L 5.71875 33.84375 
L 12.640625 70.609375 
L 48.25 70.609375 
L 48.25 62.203125 
L 19.671875 62.203125 
L 15.828125 42.96875 
Q 22.265625 47.46875 29.34375 47.46875 
Q 38.71875 47.46875 45.15625 40.96875 
Q 51.609375 34.46875 51.609375 24.265625 
Q 51.609375 14.546875 45.953125 7.46875 
Q 39.0625 -1.21875 27.15625 -1.21875 
Q 17.390625 -1.21875 11.203125 4.25 
Q 5.03125 9.71875 4.15625 18.75 
" id="ArialMT-35"/>
      </defs>
      <g style="fill:#262626;" transform="translate(63.1 101.58515625)scale(0.1 -0.1)">
       <use xlink:href="#ArialMT-31"/>
       <use x="55.615234375" xlink:href="#ArialMT-2e"/>
       <use x="83.3984375" xlink:href="#ArialMT-35"/>
      </g>
     </g>
    </g>
    <g id="ytick_7">
     <g id="line2d_9">
      <g>
       <use style="fill:#262626;stroke:#262626;" x="90.0" xlink:href="#mbe6a87f373" y="43.2"/>
      </g>
     </g>
     <g id="text_9">
      <!-- 1.6 -->
      <defs>
       <path d="M 49.75 54.046875 
L 41.015625 53.375 
Q 39.84375 58.546875 37.703125 60.890625 
Q 34.125 64.65625 28.90625 64.65625 
Q 24.703125 64.65625 21.53125 62.3125 
Q 17.390625 59.28125 14.984375 53.46875 
Q 12.59375 47.65625 12.5 36.921875 
Q 15.671875 41.75 20.265625 44.09375 
Q 24.859375 46.4375 29.890625 46.4375 
Q 38.671875 46.4375 44.84375 39.96875 
Q 51.03125 33.5 51.03125 23.25 
Q 51.03125 16.5 48.125 10.71875 
Q 45.21875 4.9375 40.140625 1.859375 
Q 35.0625 -1.21875 28.609375 -1.21875 
Q 17.625 -1.21875 10.6875 6.859375 
Q 3.765625 14.9375 3.765625 33.5 
Q 3.765625 54.25 11.421875 63.671875 
Q 18.109375 71.875 29.4375 71.875 
Q 37.890625 71.875 43.28125 67.140625 
Q 48.6875 62.40625 49.75 54.046875 
M 13.875 23.1875 
Q 13.875 18.65625 15.796875 14.5 
Q 17.71875 10.359375 21.1875 8.171875 
Q 24.65625 6 28.46875 6 
Q 34.03125 6 38.03125 10.484375 
Q 42.046875 14.984375 42.046875 22.703125 
Q 42.046875 30.125 38.078125 34.390625 
Q 34.125 38.671875 28.125 38.671875 
Q 22.171875 38.671875 18.015625 34.390625 
Q 13.875 30.125 13.875 23.1875 
" id="ArialMT-36"/>
      </defs>
      <g style="fill:#262626;" transform="translate(63.1 45.78515625)scale(0.1 -0.1)">
       <use xlink:href="#ArialMT-31"/>
       <use x="55.615234375" xlink:href="#ArialMT-2e"/>
       <use x="83.3984375" xlink:href="#ArialMT-36"/>
      </g>
     </g>
    </g>
    <g id="text_10">
     <!-- Relative consonant accuracy -->
     <defs>
      <path d="M 40.4375 19 
L 49.078125 17.875 
Q 47.65625 8.9375 41.8125 3.875 
Q 35.984375 -1.171875 27.484375 -1.171875 
Q 16.84375 -1.171875 10.375 5.78125 
Q 3.90625 12.75 3.90625 25.734375 
Q 3.90625 34.125 6.6875 40.421875 
Q 9.46875 46.734375 15.15625 49.875 
Q 20.84375 53.03125 27.546875 53.03125 
Q 35.984375 53.03125 41.359375 48.75 
Q 46.734375 44.484375 48.25 36.625 
L 39.703125 35.296875 
Q 38.484375 40.53125 35.375 43.15625 
Q 32.28125 45.796875 27.875 45.796875 
Q 21.234375 45.796875 17.078125 41.03125 
Q 12.9375 36.28125 12.9375 25.984375 
Q 12.9375 15.53125 16.9375 10.796875 
Q 20.953125 6.0625 27.390625 6.0625 
Q 32.5625 6.0625 36.03125 9.234375 
Q 39.5 12.40625 40.4375 19 
" id="ArialMT-63"/>
      <path d="M 6.203125 -19.96875 
L 5.21875 -11.71875 
Q 8.109375 -12.5 10.25 -12.5 
Q 13.1875 -12.5 14.9375 -11.515625 
Q 16.703125 -10.546875 17.828125 -8.796875 
Q 18.65625 -7.46875 20.515625 -2.25 
Q 20.75 -1.515625 21.296875 -0.09375 
L 1.609375 51.859375 
L 11.078125 51.859375 
L 21.875 21.828125 
Q 23.96875 16.109375 25.640625 9.8125 
Q 27.15625 15.875 29.25 21.625 
L 40.328125 51.859375 
L 49.125 51.859375 
L 29.390625 -0.875 
Q 26.21875 -9.421875 24.46875 -12.640625 
Q 22.125 -17 19.09375 -19.015625 
Q 16.0625 -21.046875 11.859375 -21.046875 
Q 9.328125 -21.046875 6.203125 -19.96875 
" id="ArialMT-79"/>
      <path d="M 7.859375 0 
L 7.859375 71.578125 
L 39.59375 71.578125 
Q 49.171875 71.578125 54.140625 69.640625 
Q 59.125 67.71875 62.109375 62.828125 
Q 65.09375 57.953125 65.09375 52.046875 
Q 65.09375 44.4375 60.15625 39.203125 
Q 55.21875 33.984375 44.921875 32.5625 
Q 48.6875 30.765625 50.640625 29 
Q 54.78125 25.203125 58.5 19.484375 
L 70.953125 0 
L 59.03125 0 
L 49.5625 14.890625 
Q 45.40625 21.34375 42.71875 24.75 
Q 40.046875 28.171875 37.921875 29.53125 
Q 35.796875 30.90625 33.59375 31.453125 
Q 31.984375 31.78125 28.328125 31.78125 
L 17.328125 31.78125 
L 17.328125 0 
z
M 17.328125 39.984375 
L 37.703125 39.984375 
Q 44.1875 39.984375 47.84375 41.328125 
Q 51.515625 42.671875 53.421875 45.625 
Q 55.328125 48.578125 55.328125 52.046875 
Q 55.328125 57.125 51.640625 60.390625 
Q 47.953125 63.671875 39.984375 63.671875 
L 17.328125 63.671875 
z
" id="ArialMT-52"/>
      <path d="M 40.578125 0 
L 40.578125 7.625 
Q 34.515625 -1.171875 24.125 -1.171875 
Q 19.53125 -1.171875 15.546875 0.578125 
Q 11.578125 2.34375 9.640625 5 
Q 7.71875 7.671875 6.9375 11.53125 
Q 6.390625 14.109375 6.390625 19.734375 
L 6.390625 51.859375 
L 15.1875 51.859375 
L 15.1875 23.09375 
Q 15.1875 16.21875 15.71875 13.8125 
Q 16.546875 10.359375 19.234375 8.375 
Q 21.921875 6.390625 25.875 6.390625 
Q 29.828125 6.390625 33.296875 8.421875 
Q 36.765625 10.453125 38.203125 13.9375 
Q 39.65625 17.4375 39.65625 24.078125 
L 39.65625 51.859375 
L 48.4375 51.859375 
L 48.4375 0 
z
" id="ArialMT-75"/>
      <path d="M 21 0 
L 1.265625 51.859375 
L 10.546875 51.859375 
L 21.6875 20.796875 
Q 23.484375 15.765625 25 10.359375 
Q 26.171875 14.453125 28.265625 20.21875 
L 39.796875 51.859375 
L 48.828125 51.859375 
L 29.203125 0 
z
" id="ArialMT-76"/>
      <path d="M 6.390625 0 
L 6.390625 71.578125 
L 15.1875 71.578125 
L 15.1875 0 
z
" id="ArialMT-6c"/>
      <path d="M 3.328125 25.921875 
Q 3.328125 40.328125 11.328125 47.265625 
Q 18.015625 53.03125 27.640625 53.03125 
Q 38.328125 53.03125 45.109375 46.015625 
Q 51.90625 39.015625 51.90625 26.65625 
Q 51.90625 16.65625 48.90625 10.90625 
Q 45.90625 5.171875 40.15625 2 
Q 34.421875 -1.171875 27.640625 -1.171875 
Q 16.75 -1.171875 10.03125 5.8125 
Q 3.328125 12.796875 3.328125 25.921875 
M 12.359375 25.921875 
Q 12.359375 15.96875 16.703125 11.015625 
Q 21.046875 6.0625 27.640625 6.0625 
Q 34.1875 6.0625 38.53125 11.03125 
Q 42.875 16.015625 42.875 26.21875 
Q 42.875 35.84375 38.5 40.796875 
Q 34.125 45.75 27.640625 45.75 
Q 21.046875 45.75 16.703125 40.8125 
Q 12.359375 35.890625 12.359375 25.921875 
" id="ArialMT-6f"/>
      <path id="ArialMT-20"/>
     </defs>
     <g style="fill:#262626;" transform="translate(55.78484375 280.911484375)rotate(-90.0)scale(0.11 -0.11)">
      <use xlink:href="#ArialMT-52"/>
      <use x="72.216796875" xlink:href="#ArialMT-65"/>
      <use x="127.83203125" xlink:href="#ArialMT-6c"/>
      <use x="150.048828125" xlink:href="#ArialMT-61"/>
      <use x="205.6640625" xlink:href="#ArialMT-74"/>
      <use x="233.447265625" xlink:href="#ArialMT-69"/>
      <use x="255.6640625" xlink:href="#ArialMT-76"/>
      <use x="305.6640625" xlink:href="#ArialMT-65"/>
      <use x="361.279296875" xlink:href="#ArialMT-20"/>
      <use x="389.0625" xlink:href="#ArialMT-63"/>
      <use x="439.0625" xlink:href="#ArialMT-6f"/>
      <use x="494.677734375" xlink:href="#ArialMT-6e"/>
      <use x="550.29296875" xlink:href="#ArialMT-73"/>
      <use x="600.29296875" xlink:href="#ArialMT-6f"/>
      <use x="655.908203125" xlink:href="#ArialMT-6e"/>
      <use x="711.5234375" xlink:href="#ArialMT-61"/>
      <use x="767.138671875" xlink:href="#ArialMT-6e"/>
      <use x="822.75390625" xlink:href="#ArialMT-74"/>
      <use x="850.537109375" xlink:href="#ArialMT-20"/>
      <use x="878.3203125" xlink:href="#ArialMT-61"/>
      <use x="933.935546875" xlink:href="#ArialMT-63"/>
      <use x="983.935546875" xlink:href="#ArialMT-63"/>
      <use x="1033.93554688" xlink:href="#ArialMT-75"/>
      <use x="1089.55078125" xlink:href="#ArialMT-72"/>
      <use x="1122.8515625" xlink:href="#ArialMT-61"/>
      <use x="1178.46679688" xlink:href="#ArialMT-63"/>
      <use x="1228.46679688" xlink:href="#ArialMT-79"/>
     </g>
    </g>
   </g>
   <g id="PolyCollection_1">
    <defs>
     <path d="M 174.227405 -140.198236 
L 173.172595 -140.198236 
L 172.966893 -140.694644 
L 172.700165 -141.191052 
L 172.361779 -141.687461 
L 171.941778 -142.183869 
L 171.431807 -142.680278 
L 170.826105 -143.176686 
L 170.122472 -143.673094 
L 169.32307 -144.169503 
L 168.434915 -144.665911 
L 167.469928 -145.162319 
L 166.444444 -145.658728 
L 165.378146 -146.155136 
L 164.292442 -146.651545 
L 163.208427 -147.147953 
L 162.144615 -147.644361 
L 161.114701 -148.14077 
L 160.125652 -148.637178 
L 159.176362 -149.133587 
L 158.257126 -149.629995 
L 157.350004 -150.126403 
L 156.430114 -150.622812 
L 155.467721 -151.11922 
L 154.430916 -151.615629 
L 153.2886 -152.112037 
L 152.013458 -152.608445 
L 150.584609 -153.104854 
L 148.989671 -153.601262 
L 147.226057 -154.097671 
L 145.301388 -154.594079 
L 143.233058 -155.090487 
L 141.047035 -155.586896 
L 138.776114 -156.083304 
L 136.457843 -156.579713 
L 134.132412 -157.076121 
L 131.840713 -157.572529 
L 129.622741 -158.068938 
L 127.516394 -158.565346 
L 125.55663 -159.061754 
L 123.774857 -159.558163 
L 122.19839 -160.054571 
L 120.849861 -160.55098 
L 119.746494 -161.047388 
L 118.899317 -161.543796 
L 118.312462 -162.040205 
L 117.982777 -162.536613 
L 117.9 -163.033022 
L 118.047679 -163.52943 
L 118.404874 -164.025838 
L 118.948547 -164.522247 
L 119.656348 -165.018655 
L 120.509409 -165.515064 
L 121.494691 -166.011472 
L 122.60646 -166.50788 
L 123.8466 -167.004289 
L 125.223631 -167.500697 
L 126.750532 -167.997106 
L 128.441651 -168.493514 
L 130.309148 -168.989922 
L 132.35952 -169.486331 
L 134.590705 -169.982739 
L 136.990234 -170.479147 
L 139.534668 -170.975556 
L 142.190388 -171.471964 
L 144.91558 -171.968373 
L 147.663099 -172.464781 
L 150.383753 -172.961189 
L 153.029576 -173.457598 
L 155.556676 -173.954006 
L 157.927402 -174.450415 
L 160.111696 -174.946823 
L 162.087676 -175.443231 
L 163.841579 -175.93964 
L 165.367283 -176.436048 
L 166.665602 -176.932457 
L 167.743526 -177.428865 
L 168.61349 -177.925273 
L 169.292683 -178.421682 
L 169.802362 -178.91809 
L 170.167072 -179.414499 
L 170.413724 -179.910907 
L 170.570464 -180.407315 
L 170.665373 -180.903724 
L 170.725051 -181.400132 
L 170.773225 -181.89654 
L 170.829522 -182.392949 
L 170.908559 -182.889357 
L 171.019463 -183.385766 
L 171.165891 -183.882174 
L 171.34653 -184.378582 
L 171.55601 -184.874991 
L 171.786101 -185.371399 
L 172.027022 -185.867808 
L 172.268715 -186.364216 
L 172.501928 -186.860624 
L 172.719012 -187.357033 
L 172.914402 -187.853441 
L 173.084755 -188.34985 
L 173.228832 -188.846258 
L 173.347174 -189.342666 
L 174.052826 -189.342666 
L 174.052826 -189.342666 
L 174.171168 -188.846258 
L 174.315245 -188.34985 
L 174.485598 -187.853441 
L 174.680988 -187.357033 
L 174.898072 -186.860624 
L 175.131285 -186.364216 
L 175.372978 -185.867808 
L 175.613899 -185.371399 
L 175.84399 -184.874991 
L 176.05347 -184.378582 
L 176.234109 -183.882174 
L 176.380537 -183.385766 
L 176.491441 -182.889357 
L 176.570478 -182.392949 
L 176.626775 -181.89654 
L 176.674949 -181.400132 
L 176.734627 -180.903724 
L 176.829536 -180.407315 
L 176.986276 -179.910907 
L 177.232928 -179.414499 
L 177.597638 -178.91809 
L 178.107317 -178.421682 
L 178.78651 -177.925273 
L 179.656474 -177.428865 
L 180.734398 -176.932457 
L 182.032717 -176.436048 
L 183.558421 -175.93964 
L 185.312324 -175.443231 
L 187.288304 -174.946823 
L 189.472598 -174.450415 
L 191.843324 -173.954006 
L 194.370424 -173.457598 
L 197.016247 -172.961189 
L 199.736901 -172.464781 
L 202.48442 -171.968373 
L 205.209612 -171.471964 
L 207.865332 -170.975556 
L 210.409766 -170.479147 
L 212.809295 -169.982739 
L 215.04048 -169.486331 
L 217.090852 -168.989922 
L 218.958349 -168.493514 
L 220.649468 -167.997106 
L 222.176369 -167.500697 
L 223.5534 -167.004289 
L 224.79354 -166.50788 
L 225.905309 -166.011472 
L 226.890591 -165.515064 
L 227.743652 -165.018655 
L 228.451453 -164.522247 
L 228.995126 -164.025838 
L 229.352321 -163.52943 
L 229.5 -163.033022 
L 229.417223 -162.536613 
L 229.087538 -162.040205 
L 228.500683 -161.543796 
L 227.653506 -161.047388 
L 226.550139 -160.55098 
L 225.20161 -160.054571 
L 223.625143 -159.558163 
L 221.84337 -159.061754 
L 219.883606 -158.565346 
L 217.777259 -158.068938 
L 215.559287 -157.572529 
L 213.267588 -157.076121 
L 210.942157 -156.579713 
L 208.623886 -156.083304 
L 206.352965 -155.586896 
L 204.166942 -155.090487 
L 202.098612 -154.594079 
L 200.173943 -154.097671 
L 198.410329 -153.601262 
L 196.815391 -153.104854 
L 195.386542 -152.608445 
L 194.1114 -152.112037 
L 192.969084 -151.615629 
L 191.932279 -151.11922 
L 190.969886 -150.622812 
L 190.049996 -150.126403 
L 189.142874 -149.629995 
L 188.223638 -149.133587 
L 187.274348 -148.637178 
L 186.285299 -148.14077 
L 185.255385 -147.644361 
L 184.191573 -147.147953 
L 183.107558 -146.651545 
L 182.021854 -146.155136 
L 180.955556 -145.658728 
L 179.930072 -145.162319 
L 178.965085 -144.665911 
L 178.07693 -144.169503 
L 177.277528 -143.673094 
L 176.573895 -143.176686 
L 175.968193 -142.680278 
L 175.458222 -142.183869 
L 175.038221 -141.687461 
L 174.699835 -141.191052 
L 174.433107 -140.694644 
L 174.227405 -140.198236 
z
" id="m479f515ce7" style="stroke:#4c4c4c;stroke-width:1.75;"/>
    </defs>
    <g clip-path="url(#p28ca2d2dfb)">
     <use style="fill:#5875a4;stroke:#4c4c4c;stroke-width:1.75;" x="0.0" xlink:href="#m479f515ce7" y="432.0"/>
    </g>
   </g>
   <g id="PolyCollection_2">
    <defs>
     <path d="M 285.962675 -140.452591 
L 284.637325 -140.452591 
L 284.397802 -140.933063 
L 284.091659 -141.413535 
L 283.707707 -141.894006 
L 283.235251 -142.374478 
L 282.664917 -142.85495 
L 281.989566 -143.335422 
L 281.205219 -143.815894 
L 280.311896 -144.296366 
L 279.314246 -144.776838 
L 278.22187 -145.257309 
L 277.049238 -145.737781 
L 275.815143 -146.218253 
L 274.541682 -146.698725 
L 273.252815 -147.179197 
L 271.972594 -147.659669 
L 270.72324 -148.140141 
L 269.523219 -148.620612 
L 268.385549 -149.101084 
L 267.316499 -149.581556 
L 266.314825 -150.062028 
L 265.371643 -150.5425 
L 264.470949 -151.022972 
L 263.590758 -151.503444 
L 262.704741 -151.983915 
L 261.784245 -152.464387 
L 260.800518 -152.944859 
L 259.726967 -153.425331 
L 258.541302 -153.905803 
L 257.227425 -154.386275 
L 255.776936 -154.866747 
L 254.190177 -155.347218 
L 252.476752 -155.82769 
L 250.655467 -156.308162 
L 248.753698 -156.788634 
L 246.806182 -157.269106 
L 244.853309 -157.749578 
L 242.938978 -158.23005 
L 241.108176 -158.710521 
L 239.404432 -159.190993 
L 237.867335 -159.671465 
L 236.530333 -160.151937 
L 235.418987 -160.632409 
L 234.549847 -161.112881 
L 233.930052 -161.593353 
L 233.557677 -162.073824 
L 233.422801 -162.554296 
L 233.50914 -163.034768 
L 233.796098 -163.51524 
L 234.26096 -163.995712 
L 234.881008 -164.476184 
L 235.635327 -164.956656 
L 236.50611 -165.437127 
L 237.479363 -165.917599 
L 238.544989 -166.398071 
L 239.696318 -166.878543 
L 240.929219 -167.359015 
L 242.240994 -167.839487 
L 243.629233 -168.319959 
L 245.090846 -168.80043 
L 246.621375 -169.280902 
L 248.214674 -169.761374 
L 249.862937 -170.241846 
L 251.556999 -170.722318 
L 253.286797 -171.20279 
L 255.041852 -171.683261 
L 256.811655 -172.163733 
L 258.585878 -172.644205 
L 260.354392 -173.124677 
L 262.107123 -173.605149 
L 263.833824 -174.085621 
L 265.523888 -174.566093 
L 267.166272 -175.046564 
L 268.749643 -175.527036 
L 270.262751 -176.007508 
L 271.695009 -176.48798 
L 273.037206 -176.968452 
L 274.282239 -177.448924 
L 275.42574 -177.929396 
L 276.466482 -178.409867 
L 277.406491 -178.890339 
L 278.250821 -179.370811 
L 279.007032 -179.851283 
L 279.684422 -180.331755 
L 280.293132 -180.812227 
L 280.843247 -181.292699 
L 281.343988 -181.77317 
L 281.803114 -182.253642 
L 282.22657 -182.734114 
L 282.618404 -183.214586 
L 282.980921 -183.695058 
L 283.31503 -184.17553 
L 283.620689 -184.656002 
L 283.897394 -185.136473 
L 284.144621 -185.616945 
L 284.362178 -186.097417 
L 284.550442 -186.577889 
L 284.710458 -187.058361 
L 284.843932 -187.538833 
L 284.953127 -188.019305 
L 285.646873 -188.019305 
L 285.646873 -188.019305 
L 285.756068 -187.538833 
L 285.889542 -187.058361 
L 286.049558 -186.577889 
L 286.237822 -186.097417 
L 286.455379 -185.616945 
L 286.702606 -185.136473 
L 286.979311 -184.656002 
L 287.28497 -184.17553 
L 287.619079 -183.695058 
L 287.981596 -183.214586 
L 288.37343 -182.734114 
L 288.796886 -182.253642 
L 289.256012 -181.77317 
L 289.756753 -181.292699 
L 290.306868 -180.812227 
L 290.915578 -180.331755 
L 291.592968 -179.851283 
L 292.349179 -179.370811 
L 293.193509 -178.890339 
L 294.133518 -178.409867 
L 295.17426 -177.929396 
L 296.317761 -177.448924 
L 297.562794 -176.968452 
L 298.904991 -176.48798 
L 300.337249 -176.007508 
L 301.850357 -175.527036 
L 303.433728 -175.046564 
L 305.076112 -174.566093 
L 306.766176 -174.085621 
L 308.492877 -173.605149 
L 310.245608 -173.124677 
L 312.014122 -172.644205 
L 313.788345 -172.163733 
L 315.558148 -171.683261 
L 317.313203 -171.20279 
L 319.043001 -170.722318 
L 320.737063 -170.241846 
L 322.385326 -169.761374 
L 323.978625 -169.280902 
L 325.509154 -168.80043 
L 326.970767 -168.319959 
L 328.359006 -167.839487 
L 329.670781 -167.359015 
L 330.903682 -166.878543 
L 332.055011 -166.398071 
L 333.120637 -165.917599 
L 334.09389 -165.437127 
L 334.964673 -164.956656 
L 335.718992 -164.476184 
L 336.33904 -163.995712 
L 336.803902 -163.51524 
L 337.09086 -163.034768 
L 337.177199 -162.554296 
L 337.042323 -162.073824 
L 336.669948 -161.593353 
L 336.050153 -161.112881 
L 335.181013 -160.632409 
L 334.069667 -160.151937 
L 332.732665 -159.671465 
L 331.195568 -159.190993 
L 329.491824 -158.710521 
L 327.661022 -158.23005 
L 325.746691 -157.749578 
L 323.793818 -157.269106 
L 321.846302 -156.788634 
L 319.944533 -156.308162 
L 318.123248 -155.82769 
L 316.409823 -155.347218 
L 314.823064 -154.866747 
L 313.372575 -154.386275 
L 312.058698 -153.905803 
L 310.873033 -153.425331 
L 309.799482 -152.944859 
L 308.815755 -152.464387 
L 307.895259 -151.983915 
L 307.009242 -151.503444 
L 306.129051 -151.022972 
L 305.228357 -150.5425 
L 304.285175 -150.062028 
L 303.283501 -149.581556 
L 302.214451 -149.101084 
L 301.076781 -148.620612 
L 299.87676 -148.140141 
L 298.627406 -147.659669 
L 297.347185 -147.179197 
L 296.058318 -146.698725 
L 294.784857 -146.218253 
L 293.550762 -145.737781 
L 292.37813 -145.257309 
L 291.285754 -144.776838 
L 290.288104 -144.296366 
L 289.394781 -143.815894 
L 288.610434 -143.335422 
L 287.935083 -142.85495 
L 287.364749 -142.374478 
L 286.892293 -141.894006 
L 286.508341 -141.413535 
L 286.202198 -140.933063 
L 285.962675 -140.452591 
z
" id="mccd81e2e9a" style="stroke:#4c4c4c;stroke-width:1.75;"/>
    </defs>
    <g clip-path="url(#p28ca2d2dfb)">
     <use style="fill:#5f9e6e;stroke:#4c4c4c;stroke-width:1.75;" x="0.0" xlink:href="#mccd81e2e9a" y="432.0"/>
    </g>
   </g>
   <g id="PolyCollection_3">
    <defs>
     <path d="M 453.627047 -111.324886 
L 451.772953 -111.324886 
L 451.474881 -113.524816 
L 451.100442 -115.724745 
L 450.636369 -117.924675 
L 450.068865 -120.124605 
L 449.384068 -122.324535 
L 448.56862 -124.524465 
L 447.610317 -126.724395 
L 446.49883 -128.924325 
L 445.226439 -131.124254 
L 443.788779 -133.324184 
L 442.185517 -135.524114 
L 440.420955 -137.724044 
L 438.504498 -139.923974 
L 436.450956 -142.123904 
L 434.280663 -144.323833 
L 432.019368 -146.523763 
L 429.697893 -148.723693 
L 427.351551 -150.923623 
L 425.019298 -153.123553 
L 422.742642 -155.323483 
L 420.564324 -157.523412 
L 418.526784 -159.723342 
L 416.670477 -161.923272 
L 415.032094 -164.123202 
L 413.642779 -166.323132 
L 412.526443 -168.523062 
L 411.698281 -170.722992 
L 411.163614 -172.922921 
L 410.917158 -175.122851 
L 410.942798 -177.322781 
L 411.213932 -179.522711 
L 411.694376 -181.722641 
L 412.339813 -183.922571 
L 413.099709 -186.1225 
L 413.919568 -188.32243 
L 414.743404 -190.52236 
L 415.516265 -192.72229 
L 416.186656 -194.92222 
L 416.70873 -197.12215 
L 417.044127 -199.322079 
L 417.163377 -201.522009 
L 417.046823 -203.721939 
L 416.685045 -205.921869 
L 416.078808 -208.121799 
L 415.238563 -210.321729 
L 414.183577 -212.521659 
L 412.940754 -214.721588 
L 411.543236 -216.921518 
L 410.028872 -219.121448 
L 408.438637 -221.321378 
L 406.815101 -223.521308 
L 405.200994 -225.721238 
L 403.637958 -227.921167 
L 402.165508 -230.121097 
L 400.820233 -232.321027 
L 399.635229 -234.520957 
L 398.639745 -236.720887 
L 397.858996 -238.920817 
L 397.314097 -241.120746 
L 397.022041 -243.320676 
L 396.995694 -245.520606 
L 397.243749 -247.720536 
L 397.770632 -249.920466 
L 398.576354 -252.120396 
L 399.656351 -254.320326 
L 401.001336 -256.520255 
L 402.597235 -258.720185 
L 404.42525 -260.920115 
L 406.4621 -263.120045 
L 408.680469 -265.319975 
L 411.049659 -267.519905 
L 413.536446 -269.719834 
L 416.106072 -271.919764 
L 418.723339 -274.119694 
L 421.353716 -276.319624 
L 423.964384 -278.519554 
L 426.525165 -280.719484 
L 429.009261 -282.919413 
L 431.39379 -285.119343 
L 433.66008 -287.319273 
L 435.793749 -289.519203 
L 437.784582 -291.719133 
L 439.626252 -293.919063 
L 441.31592 -296.118993 
L 442.853771 -298.318922 
L 444.242528 -300.518852 
L 445.486964 -302.718782 
L 446.593461 -304.918712 
L 447.569613 -307.118642 
L 448.423886 -309.318572 
L 449.165325 -311.518501 
L 449.803322 -313.718431 
L 450.347407 -315.918361 
L 450.807076 -318.118291 
L 451.191645 -320.318221 
L 451.510114 -322.518151 
L 451.771055 -324.71808 
L 451.982509 -326.91801 
L 452.151913 -329.11794 
L 453.248087 -329.11794 
L 453.248087 -329.11794 
L 453.417491 -326.91801 
L 453.628945 -324.71808 
L 453.889886 -322.518151 
L 454.208355 -320.318221 
L 454.592924 -318.118291 
L 455.052593 -315.918361 
L 455.596678 -313.718431 
L 456.234675 -311.518501 
L 456.976114 -309.318572 
L 457.830387 -307.118642 
L 458.806539 -304.918712 
L 459.913036 -302.718782 
L 461.157472 -300.518852 
L 462.546229 -298.318922 
L 464.08408 -296.118993 
L 465.773748 -293.919063 
L 467.615418 -291.719133 
L 469.606251 -289.519203 
L 471.73992 -287.319273 
L 474.00621 -285.119343 
L 476.390739 -282.919413 
L 478.874835 -280.719484 
L 481.435616 -278.519554 
L 484.046284 -276.319624 
L 486.676661 -274.119694 
L 489.293928 -271.919764 
L 491.863554 -269.719834 
L 494.350341 -267.519905 
L 496.719531 -265.319975 
L 498.9379 -263.120045 
L 500.97475 -260.920115 
L 502.802765 -258.720185 
L 504.398664 -256.520255 
L 505.743649 -254.320326 
L 506.823646 -252.120396 
L 507.629368 -249.920466 
L 508.156251 -247.720536 
L 508.404306 -245.520606 
L 508.377959 -243.320676 
L 508.085903 -241.120746 
L 507.541004 -238.920817 
L 506.760255 -236.720887 
L 505.764771 -234.520957 
L 504.579767 -232.321027 
L 503.234492 -230.121097 
L 501.762042 -227.921167 
L 500.199006 -225.721238 
L 498.584899 -223.521308 
L 496.961363 -221.321378 
L 495.371128 -219.121448 
L 493.856764 -216.921518 
L 492.459246 -214.721588 
L 491.216423 -212.521659 
L 490.161437 -210.321729 
L 489.321192 -208.121799 
L 488.714955 -205.921869 
L 488.353177 -203.721939 
L 488.236623 -201.522009 
L 488.355873 -199.322079 
L 488.69127 -197.12215 
L 489.213344 -194.92222 
L 489.883735 -192.72229 
L 490.656596 -190.52236 
L 491.480432 -188.32243 
L 492.300291 -186.1225 
L 493.060187 -183.922571 
L 493.705624 -181.722641 
L 494.186068 -179.522711 
L 494.457202 -177.322781 
L 494.482842 -175.122851 
L 494.236386 -172.922921 
L 493.701719 -170.722992 
L 492.873557 -168.523062 
L 491.757221 -166.323132 
L 490.367906 -164.123202 
L 488.729523 -161.923272 
L 486.873216 -159.723342 
L 484.835676 -157.523412 
L 482.657358 -155.323483 
L 480.380702 -153.123553 
L 478.048449 -150.923623 
L 475.702107 -148.723693 
L 473.380632 -146.523763 
L 471.119337 -144.323833 
L 468.949044 -142.123904 
L 466.895502 -139.923974 
L 464.979045 -137.724044 
L 463.214483 -135.524114 
L 461.611221 -133.324184 
L 460.173561 -131.124254 
L 458.90117 -128.924325 
L 457.789683 -126.724395 
L 456.83138 -124.524465 
L 456.015932 -122.324535 
L 455.331135 -120.124605 
L 454.763631 -117.924675 
L 454.299558 -115.724745 
L 453.925119 -113.524816 
L 453.627047 -111.324886 
z
" id="mcb9237ac05" style="stroke:#4c4c4c;stroke-width:1.75;"/>
    </defs>
    <g clip-path="url(#p28ca2d2dfb)">
     <use style="fill:#5875a4;stroke:#4c4c4c;stroke-width:1.75;" x="0.0" xlink:href="#mcb9237ac05" y="432.0"/>
    </g>
   </g>
   <g id="PolyCollection_4">
    <defs>
     <path d="M 564.777979 -105.881632 
L 563.822021 -105.881632 
L 563.67003 -108.142265 
L 563.478638 -110.402897 
L 563.240076 -112.66353 
L 562.94554 -114.924163 
L 562.585116 -117.184796 
L 562.147717 -119.445429 
L 561.621047 -121.706062 
L 560.991622 -123.966694 
L 560.24488 -126.227327 
L 559.36543 -128.48796 
L 558.337472 -130.748593 
L 557.145443 -133.009226 
L 555.774913 -135.269859 
L 554.213726 -137.530491 
L 552.453379 -139.791124 
L 550.490547 -142.051757 
L 548.328682 -144.31239 
L 545.979514 -146.573023 
L 543.464302 -148.833656 
L 540.814642 -151.094288 
L 538.072679 -153.354921 
L 535.290553 -155.615554 
L 532.529025 -157.876187 
L 529.855241 -160.13682 
L 527.339722 -162.397453 
L 525.052733 -164.658085 
L 523.060246 -166.918718 
L 521.419805 -169.179351 
L 520.1766 -171.439984 
L 519.360076 -173.700617 
L 518.981365 -175.96125 
L 519.031781 -178.221882 
L 519.482515 -180.482515 
L 520.285599 -182.743148 
L 521.376105 -185.003781 
L 522.675422 -187.264414 
L 524.095416 -189.525047 
L 525.543192 -191.785679 
L 526.926129 -194.046312 
L 528.156871 -196.306945 
L 529.157938 -198.567578 
L 529.865662 -200.828211 
L 530.233217 -203.088844 
L 530.232549 -205.349476 
L 529.85514 -207.610109 
L 529.111562 -209.870742 
L 528.029932 -212.131375 
L 526.653411 -214.392008 
L 525.036975 -216.652641 
L 523.243742 -218.913273 
L 521.341137 -221.173906 
L 519.397197 -223.434539 
L 517.477278 -225.695172 
L 515.641367 -227.955805 
L 513.942135 -230.216438 
L 512.423777 -232.47707 
L 511.121631 -234.737703 
L 510.062447 -236.998336 
L 509.265181 -239.258969 
L 508.742095 -241.519602 
L 508.5 -243.780235 
L 508.541432 -246.040867 
L 508.865635 -248.3015 
L 509.469251 -250.562133 
L 510.346673 -252.822766 
L 511.490085 -255.083399 
L 512.889244 -257.344032 
L 514.531099 -259.604664 
L 516.399372 -261.865297 
L 518.474203 -264.12593 
L 520.731968 -266.386563 
L 523.145344 -268.647196 
L 525.683657 -270.907829 
L 528.313526 -273.168461 
L 530.999756 -275.429094 
L 533.706427 -277.689727 
L 536.398088 -279.95036 
L 539.040962 -282.210993 
L 541.604065 -284.471626 
L 544.060157 -286.732258 
L 546.386457 -288.992891 
L 548.565093 -291.253524 
L 550.583258 -293.514157 
L 552.433115 -295.77479 
L 554.111458 -298.035423 
L 555.619206 -300.296055 
L 556.960774 -302.556688 
L 558.143392 -304.817321 
L 559.176415 -307.077954 
L 560.070681 -309.338587 
L 560.837929 -311.59922 
L 561.490314 -313.859852 
L 562.040006 -316.120485 
L 562.498883 -318.381118 
L 562.8783 -320.641751 
L 563.188923 -322.902384 
L 563.440622 -325.163017 
L 563.642403 -327.423649 
L 563.802371 -329.684282 
L 564.797629 -329.684282 
L 564.797629 -329.684282 
L 564.957597 -327.423649 
L 565.159378 -325.163017 
L 565.411077 -322.902384 
L 565.7217 -320.641751 
L 566.101117 -318.381118 
L 566.559994 -316.120485 
L 567.109686 -313.859852 
L 567.762071 -311.59922 
L 568.529319 -309.338587 
L 569.423585 -307.077954 
L 570.456608 -304.817321 
L 571.639226 -302.556688 
L 572.980794 -300.296055 
L 574.488542 -298.035423 
L 576.166885 -295.77479 
L 578.016742 -293.514157 
L 580.034907 -291.253524 
L 582.213543 -288.992891 
L 584.539843 -286.732258 
L 586.995935 -284.471626 
L 589.559038 -282.210993 
L 592.201912 -279.95036 
L 594.893573 -277.689727 
L 597.600244 -275.429094 
L 600.286474 -273.168461 
L 602.916343 -270.907829 
L 605.454656 -268.647196 
L 607.868032 -266.386563 
L 610.125797 -264.12593 
L 612.200628 -261.865297 
L 614.068901 -259.604664 
L 615.710756 -257.344032 
L 617.109915 -255.083399 
L 618.253327 -252.822766 
L 619.130749 -250.562133 
L 619.734365 -248.3015 
L 620.058568 -246.040867 
L 620.1 -243.780235 
L 619.857905 -241.519602 
L 619.334819 -239.258969 
L 618.537553 -236.998336 
L 617.478369 -234.737703 
L 616.176223 -232.47707 
L 614.657865 -230.216438 
L 612.958633 -227.955805 
L 611.122722 -225.695172 
L 609.202803 -223.434539 
L 607.258863 -221.173906 
L 605.356258 -218.913273 
L 603.563025 -216.652641 
L 601.946589 -214.392008 
L 600.570068 -212.131375 
L 599.488438 -209.870742 
L 598.74486 -207.610109 
L 598.367451 -205.349476 
L 598.366783 -203.088844 
L 598.734338 -200.828211 
L 599.442062 -198.567578 
L 600.443129 -196.306945 
L 601.673871 -194.046312 
L 603.056808 -191.785679 
L 604.504584 -189.525047 
L 605.924578 -187.264414 
L 607.223895 -185.003781 
L 608.314401 -182.743148 
L 609.117485 -180.482515 
L 609.568219 -178.221882 
L 609.618635 -175.96125 
L 609.239924 -173.700617 
L 608.4234 -171.439984 
L 607.180195 -169.179351 
L 605.539754 -166.918718 
L 603.547267 -164.658085 
L 601.260278 -162.397453 
L 598.744759 -160.13682 
L 596.070975 -157.876187 
L 593.309447 -155.615554 
L 590.527321 -153.354921 
L 587.785358 -151.094288 
L 585.135698 -148.833656 
L 582.620486 -146.573023 
L 580.271318 -144.31239 
L 578.109453 -142.051757 
L 576.146621 -139.791124 
L 574.386274 -137.530491 
L 572.825087 -135.269859 
L 571.454557 -133.009226 
L 570.262528 -130.748593 
L 569.23457 -128.48796 
L 568.35512 -126.227327 
L 567.608378 -123.966694 
L 566.978953 -121.706062 
L 566.452283 -119.445429 
L 566.014884 -117.184796 
L 565.65446 -114.924163 
L 565.359924 -112.66353 
L 565.121362 -110.402897 
L 564.92997 -108.142265 
L 564.777979 -105.881632 
z
" id="m1eb4f970a4" style="stroke:#4c4c4c;stroke-width:1.75;"/>
    </defs>
    <g clip-path="url(#p28ca2d2dfb)">
     <use style="fill:#5f9e6e;stroke:#4c4c4c;stroke-width:1.75;" x="0.0" xlink:href="#m1eb4f970a4" y="432.0"/>
    </g>
   </g>
   <g id="patch_3">
    <path clip-path="url(#p28ca2d2dfb)" d="M 229.5 936 
L 229.5 936 
L 229.5 936 
L 229.5 936 
z
" style="fill:#5875a4;stroke:#4c4c4c;stroke-linejoin:miter;stroke-width:0.875;"/>
   </g>
   <g id="patch_4">
    <path clip-path="url(#p28ca2d2dfb)" d="M 229.5 936 
L 229.5 936 
L 229.5 936 
L 229.5 936 
z
" style="fill:#5f9e6e;stroke:#4c4c4c;stroke-linejoin:miter;stroke-width:0.875;"/>
   </g>
   <g id="line2d_10">
    <path clip-path="url(#p28ca2d2dfb)" d="M 173.7 285.188858 
L 173.7 257.180888 
" style="fill:none;stroke:#4c4c4c;stroke-linecap:round;stroke-width:1.75;"/>
   </g>
   <g id="line2d_11">
    <path clip-path="url(#p28ca2d2dfb)" d="M 173.7 273.643588 
L 173.7 264.610483 
" style="fill:none;stroke:#4c4c4c;stroke-linecap:round;stroke-width:5.25;"/>
   </g>
   <g id="line2d_12">
    <path clip-path="url(#p28ca2d2dfb)" d="M 285.3 284.547454 
L 285.3 250.980651 
" style="fill:none;stroke:#4c4c4c;stroke-linecap:round;stroke-width:1.75;"/>
   </g>
   <g id="line2d_13">
    <path clip-path="url(#p28ca2d2dfb)" d="M 285.3 273.429787 
L 285.3 263.969079 
" style="fill:none;stroke:#4c4c4c;stroke-linecap:round;stroke-width:5.25;"/>
   </g>
   <g id="line2d_14">
    <path clip-path="url(#p28ca2d2dfb)" d="M 452.7 284.119446 
L 452.7 139.437728 
" style="fill:none;stroke:#4c4c4c;stroke-linecap:round;stroke-width:1.75;"/>
   </g>
   <g id="line2d_15">
    <path clip-path="url(#p28ca2d2dfb)" d="M 452.7 251.200291 
L 452.7 180.485069 
" style="fill:none;stroke:#4c4c4c;stroke-linecap:round;stroke-width:5.25;"/>
   </g>
   <g id="line2d_16">
    <path clip-path="url(#p28ca2d2dfb)" d="M 564.3 289.809177 
L 564.3 138.624909 
" style="fill:none;stroke:#4c4c4c;stroke-linecap:round;stroke-width:1.75;"/>
   </g>
   <g id="line2d_17">
    <path clip-path="url(#p28ca2d2dfb)" d="M 564.3 252.825929 
L 564.3 180.07866 
" style="fill:none;stroke:#4c4c4c;stroke-linecap:round;stroke-width:5.25;"/>
   </g>
   <g id="line2d_18">
    <path clip-path="url(#p28ca2d2dfb)" d="M 90 378 
L 648 378 
" style="fill:none;stroke:#000000;stroke-dasharray:1.000000,3.000000;stroke-dashoffset:0.0;stroke-width:1.75;"/>
   </g>
   <g id="patch_5">
    <path d="M 90 378 
L 648 378 
" style="fill:none;stroke:#262626;stroke-linecap:square;stroke-linejoin:miter;stroke-width:1.25;"/>
   </g>
   <g id="patch_6">
    <path d="M 90 378 
L 90 43.2 
" style="fill:none;stroke:#262626;stroke-linecap:square;stroke-linejoin:miter;stroke-width:1.25;"/>
   </g>
   <g id="PathCollection_1">
    <defs>
     <path d="M 0 1.75 
C 0.464105 1.75 0.909265 1.565609 1.237437 1.237437 
C 1.565609 0.909265 1.75 0.464105 1.75 0 
C 1.75 -0.464105 1.565609 -0.909265 1.237437 -1.237437 
C 0.909265 -1.565609 0.464105 -1.75 0 -1.75 
C -0.464105 -1.75 -0.909265 -1.565609 -1.237437 -1.237437 
C -1.565609 -0.909265 -1.75 -0.464105 -1.75 0 
C -1.75 0.464105 -1.565609 0.909265 -1.237437 1.237437 
C -0.909265 1.565609 -0.464105 1.75 0 1.75 
z
" id="m1e0b3a0e90" style="stroke:#4c4c4c;stroke-width:0.3;"/>
    </defs>
    <g clip-path="url(#p28ca2d2dfb)">
     <use style="fill:#ffffff;stroke:#4c4c4c;stroke-width:0.3;" x="173.7" xlink:href="#m1e0b3a0e90" y="269.15376068"/>
    </g>
   </g>
   <g id="PathCollection_2">
    <g clip-path="url(#p28ca2d2dfb)">
     <use style="fill:#ffffff;stroke:#4c4c4c;stroke-width:0.3;" x="285.3" xlink:href="#m1e0b3a0e90" y="269.046860033"/>
    </g>
   </g>
   <g id="PathCollection_3">
    <g clip-path="url(#p28ca2d2dfb)">
     <use style="fill:#ffffff;stroke:#4c4c4c;stroke-width:0.3;" x="452.7" xlink:href="#m1e0b3a0e90" y="203.650400583"/>
    </g>
   </g>
   <g id="PathCollection_4">
    <g clip-path="url(#p28ca2d2dfb)">
     <use style="fill:#ffffff;stroke:#4c4c4c;stroke-width:0.3;" x="564.3" xlink:href="#m1e0b3a0e90" y="204.463219228"/>
    </g>
   </g>
   <g id="legend_1">
    <g id="text_11">
     <!-- adaptive -->
     <defs>
      <path d="M 6.59375 -19.875 
L 6.59375 51.859375 
L 14.59375 51.859375 
L 14.59375 45.125 
Q 17.4375 49.078125 21 51.046875 
Q 24.5625 53.03125 29.640625 53.03125 
Q 36.28125 53.03125 41.359375 49.609375 
Q 46.4375 46.1875 49.015625 39.953125 
Q 51.609375 33.734375 51.609375 26.3125 
Q 51.609375 18.359375 48.75 11.984375 
Q 45.90625 5.609375 40.453125 2.21875 
Q 35.015625 -1.171875 29 -1.171875 
Q 24.609375 -1.171875 21.109375 0.6875 
Q 17.625 2.546875 15.375 5.375 
L 15.375 -19.875 
z
M 14.546875 25.640625 
Q 14.546875 15.625 18.59375 10.84375 
Q 22.65625 6.0625 28.421875 6.0625 
Q 34.28125 6.0625 38.453125 11.015625 
Q 42.625 15.96875 42.625 26.375 
Q 42.625 36.28125 38.546875 41.203125 
Q 34.46875 46.140625 28.8125 46.140625 
Q 23.1875 46.140625 18.859375 40.890625 
Q 14.546875 35.640625 14.546875 25.640625 
" id="ArialMT-70"/>
      <path d="M 40.234375 0 
L 40.234375 6.546875 
Q 35.296875 -1.171875 25.734375 -1.171875 
Q 19.53125 -1.171875 14.328125 2.25 
Q 9.125 5.671875 6.265625 11.796875 
Q 3.421875 17.921875 3.421875 25.875 
Q 3.421875 33.640625 6 39.96875 
Q 8.59375 46.296875 13.765625 49.65625 
Q 18.953125 53.03125 25.34375 53.03125 
Q 30.03125 53.03125 33.6875 51.046875 
Q 37.359375 49.078125 39.65625 45.90625 
L 39.65625 71.578125 
L 48.390625 71.578125 
L 48.390625 0 
z
M 12.453125 25.875 
Q 12.453125 15.921875 16.640625 10.984375 
Q 20.84375 6.0625 26.5625 6.0625 
Q 32.328125 6.0625 36.34375 10.765625 
Q 40.375 15.484375 40.375 25.140625 
Q 40.375 35.796875 36.265625 40.765625 
Q 32.171875 45.75 26.171875 45.75 
Q 20.3125 45.75 16.375 40.96875 
Q 12.453125 36.1875 12.453125 25.875 
" id="ArialMT-64"/>
     </defs>
     <g style="fill:#262626;" transform="translate(595.100527344 58.8925546875)scale(0.0935 -0.0935)">
      <use xlink:href="#ArialMT-61"/>
      <use x="55.615234375" xlink:href="#ArialMT-64"/>
      <use x="111.23046875" xlink:href="#ArialMT-61"/>
      <use x="166.845703125" xlink:href="#ArialMT-70"/>
      <use x="222.4609375" xlink:href="#ArialMT-74"/>
      <use x="250.244140625" xlink:href="#ArialMT-69"/>
      <use x="272.4609375" xlink:href="#ArialMT-76"/>
      <use x="322.4609375" xlink:href="#ArialMT-65"/>
     </g>
    </g>
    <g id="patch_7">
     <path d="M 586.548437 72.90868 
L 606.548437 72.90868 
L 606.548437 65.90868 
L 586.548437 65.90868 
z
" style="fill:#5875a4;stroke:#4c4c4c;stroke-linejoin:miter;stroke-width:0.875;"/>
    </g>
    <g id="text_12">
     <!-- False -->
     <defs>
      <path d="M 8.203125 0 
L 8.203125 71.578125 
L 56.5 71.578125 
L 56.5 63.140625 
L 17.671875 63.140625 
L 17.671875 40.96875 
L 51.265625 40.96875 
L 51.265625 32.515625 
L 17.671875 32.515625 
L 17.671875 0 
z
" id="ArialMT-46"/>
     </defs>
     <g style="fill:#262626;" transform="translate(614.5484375 72.9086796875)scale(0.1 -0.1)">
      <use xlink:href="#ArialMT-46"/>
      <use x="61.083984375" xlink:href="#ArialMT-61"/>
      <use x="116.69921875" xlink:href="#ArialMT-6c"/>
      <use x="138.916015625" xlink:href="#ArialMT-73"/>
      <use x="188.916015625" xlink:href="#ArialMT-65"/>
     </g>
    </g>
    <g id="patch_8">
     <path d="M 586.548437 87.053992 
L 606.548437 87.053992 
L 606.548437 80.053992 
L 586.548437 80.053992 
z
" style="fill:#5f9e6e;stroke:#4c4c4c;stroke-linejoin:miter;stroke-width:0.875;"/>
    </g>
    <g id="text_13">
     <!-- True -->
     <g style="fill:#262626;" transform="translate(614.5484375 87.0539921875)scale(0.1 -0.1)">
      <use xlink:href="#ArialMT-54"/>
      <use x="61.037109375" xlink:href="#ArialMT-72"/>
      <use x="94.337890625" xlink:href="#ArialMT-75"/>
      <use x="149.953125" xlink:href="#ArialMT-65"/>
     </g>
    </g>
   </g>
  </g>
 </g>
 <defs>
  <clipPath id="p28ca2d2dfb">
   <rect height="334.8" width="558.0" x="90.0" y="43.2"/>
  </clipPath>
 </defs>
</svg>
