<?xml version="1.0" encoding="utf-8" standalone="no"?>
<!DOCTYPE svg PUBLIC "-//W3C//DTD SVG 1.1//EN"
  "http://www.w3.org/Graphics/SVG/1.1/DTD/svg11.dtd">
<!-- Created with matplotlib (http://matplotlib.org/) -->
<svg height="432pt" version="1.1" viewBox="0 0 720 432" width="720pt" xmlns="http://www.w3.org/2000/svg" xmlns:xlink="http://www.w3.org/1999/xlink">
 <defs>
  <style type="text/css">
*{stroke-linecap:butt;stroke-linejoin:round;stroke-miterlimit:100000;}
  </style>
 </defs>
 <g id="figure_1">
  <g id="patch_1">
   <path d="M 0 432 
L 720 432 
L 720 0 
L 0 0 
z
" style="fill:#ffffff;"/>
  </g>
  <g id="axes_1">
   <g id="patch_2">
    <path d="M 90 378 
L 648 378 
L 648 43.2 
L 90 43.2 
z
" style="fill:#ffffff;"/>
   </g>
   <g id="matplotlib.axis_1">
    <g id="xtick_1">
     <g id="line2d_1">
      <defs>
       <path d="M 0 0 
L 0 6 
" id="m798d2ca808" style="stroke:#262626;"/>
      </defs>
      <g>
       <use style="fill:#262626;stroke:#262626;" x="229.5" xlink:href="#m798d2ca808" y="378.0"/>
      </g>
     </g>
     <g id="text_1">
      <!-- Training -->
      <defs>
       <path d="M 40.4375 6.390625 
Q 35.546875 2.25 31.03125 0.53125 
Q 26.515625 -1.171875 21.34375 -1.171875 
Q 12.796875 -1.171875 8.203125 3 
Q 3.609375 7.171875 3.609375 13.671875 
Q 3.609375 17.484375 5.34375 20.625 
Q 7.078125 23.78125 9.890625 25.6875 
Q 12.703125 27.59375 16.21875 28.5625 
Q 18.796875 29.25 24.03125 29.890625 
Q 34.671875 31.15625 39.703125 32.90625 
Q 39.75 34.71875 39.75 35.203125 
Q 39.75 40.578125 37.25 42.78125 
Q 33.890625 45.75 27.25 45.75 
Q 21.046875 45.75 18.09375 43.578125 
Q 15.140625 41.40625 13.71875 35.890625 
L 5.125 37.0625 
Q 6.296875 42.578125 8.984375 45.96875 
Q 11.671875 49.359375 16.75 51.1875 
Q 21.828125 53.03125 28.515625 53.03125 
Q 35.15625 53.03125 39.296875 51.46875 
Q 43.453125 49.90625 45.40625 47.53125 
Q 47.359375 45.171875 48.140625 41.546875 
Q 48.578125 39.3125 48.578125 33.453125 
L 48.578125 21.734375 
Q 48.578125 9.46875 49.140625 6.21875 
Q 49.703125 2.984375 51.375 0 
L 42.1875 0 
Q 40.828125 2.734375 40.4375 6.390625 
M 39.703125 26.03125 
Q 34.90625 24.078125 25.34375 22.703125 
Q 19.921875 21.921875 17.671875 20.9375 
Q 15.4375 19.96875 14.203125 18.09375 
Q 12.984375 16.21875 12.984375 13.921875 
Q 12.984375 10.40625 15.640625 8.0625 
Q 18.3125 5.71875 23.4375 5.71875 
Q 28.515625 5.71875 32.46875 7.9375 
Q 36.421875 10.15625 38.28125 14.015625 
Q 39.703125 17 39.703125 22.796875 
z
" id="ArialMT-61"/>
       <path d="M 4.984375 -4.296875 
L 13.53125 -5.5625 
Q 14.0625 -9.515625 16.5 -11.328125 
Q 19.78125 -13.765625 25.4375 -13.765625 
Q 31.546875 -13.765625 34.859375 -11.328125 
Q 38.1875 -8.890625 39.359375 -4.5 
Q 40.046875 -1.8125 39.984375 6.78125 
Q 34.234375 0 25.640625 0 
Q 14.9375 0 9.078125 7.71875 
Q 3.21875 15.4375 3.21875 26.21875 
Q 3.21875 33.640625 5.90625 39.90625 
Q 8.59375 46.1875 13.6875 49.609375 
Q 18.796875 53.03125 25.6875 53.03125 
Q 34.859375 53.03125 40.828125 45.609375 
L 40.828125 51.859375 
L 48.921875 51.859375 
L 48.921875 7.03125 
Q 48.921875 -5.078125 46.453125 -10.125 
Q 44 -15.1875 38.640625 -18.109375 
Q 33.296875 -21.046875 25.484375 -21.046875 
Q 16.21875 -21.046875 10.5 -16.875 
Q 4.78125 -12.703125 4.984375 -4.296875 
M 12.25 26.859375 
Q 12.25 16.65625 16.296875 11.96875 
Q 20.359375 7.28125 26.46875 7.28125 
Q 32.515625 7.28125 36.609375 11.9375 
Q 40.71875 16.609375 40.71875 26.5625 
Q 40.71875 36.078125 36.5 40.90625 
Q 32.28125 45.75 26.3125 45.75 
Q 20.453125 45.75 16.34375 40.984375 
Q 12.25 36.234375 12.25 26.859375 
" id="ArialMT-67"/>
       <path d="M 6.640625 61.46875 
L 6.640625 71.578125 
L 15.4375 71.578125 
L 15.4375 61.46875 
z
M 6.640625 0 
L 6.640625 51.859375 
L 15.4375 51.859375 
L 15.4375 0 
z
" id="ArialMT-69"/>
       <path d="M 6.5 0 
L 6.5 51.859375 
L 14.40625 51.859375 
L 14.40625 44 
Q 17.4375 49.515625 20 51.265625 
Q 22.5625 53.03125 25.640625 53.03125 
Q 30.078125 53.03125 34.671875 50.203125 
L 31.640625 42.046875 
Q 28.421875 43.953125 25.203125 43.953125 
Q 22.3125 43.953125 20.015625 42.21875 
Q 17.71875 40.484375 16.75 37.40625 
Q 15.28125 32.71875 15.28125 27.15625 
L 15.28125 0 
z
" id="ArialMT-72"/>
       <path d="M 25.921875 0 
L 25.921875 63.140625 
L 2.34375 63.140625 
L 2.34375 71.578125 
L 59.078125 71.578125 
L 59.078125 63.140625 
L 35.40625 63.140625 
L 35.40625 0 
z
" id="ArialMT-54"/>
       <path d="M 6.59375 0 
L 6.59375 51.859375 
L 14.5 51.859375 
L 14.5 44.484375 
Q 20.21875 53.03125 31 53.03125 
Q 35.6875 53.03125 39.625 51.34375 
Q 43.5625 49.65625 45.515625 46.921875 
Q 47.46875 44.1875 48.25 40.4375 
Q 48.734375 37.984375 48.734375 31.890625 
L 48.734375 0 
L 39.9375 0 
L 39.9375 31.546875 
Q 39.9375 36.921875 38.90625 39.578125 
Q 37.890625 42.234375 35.28125 43.8125 
Q 32.671875 45.40625 29.15625 45.40625 
Q 23.53125 45.40625 19.453125 41.84375 
Q 15.375 38.28125 15.375 28.328125 
L 15.375 0 
z
" id="ArialMT-6e"/>
      </defs>
      <g style="fill:#262626;" transform="translate(211.43984375 398.1578125)scale(0.1 -0.1)">
       <use xlink:href="#ArialMT-54"/>
       <use x="61.037109375" xlink:href="#ArialMT-72"/>
       <use x="94.337890625" xlink:href="#ArialMT-61"/>
       <use x="149.953125" xlink:href="#ArialMT-69"/>
       <use x="172.169921875" xlink:href="#ArialMT-6e"/>
       <use x="227.78515625" xlink:href="#ArialMT-69"/>
       <use x="250.001953125" xlink:href="#ArialMT-6e"/>
       <use x="305.6171875" xlink:href="#ArialMT-67"/>
      </g>
     </g>
    </g>
    <g id="xtick_2">
     <g id="line2d_2">
      <g>
       <use style="fill:#262626;stroke:#262626;" x="508.5" xlink:href="#m798d2ca808" y="378.0"/>
      </g>
     </g>
     <g id="text_2">
      <!-- Testing -->
      <defs>
       <path d="M 25.78125 7.859375 
L 27.046875 0.09375 
Q 23.34375 -0.6875 20.40625 -0.6875 
Q 15.625 -0.6875 12.984375 0.828125 
Q 10.359375 2.34375 9.28125 4.8125 
Q 8.203125 7.28125 8.203125 15.1875 
L 8.203125 45.015625 
L 1.765625 45.015625 
L 1.765625 51.859375 
L 8.203125 51.859375 
L 8.203125 64.703125 
L 16.9375 69.96875 
L 16.9375 51.859375 
L 25.78125 51.859375 
L 25.78125 45.015625 
L 16.9375 45.015625 
L 16.9375 14.703125 
Q 16.9375 10.9375 17.40625 9.859375 
Q 17.875 8.796875 18.921875 8.15625 
Q 19.96875 7.515625 21.921875 7.515625 
Q 23.390625 7.515625 25.78125 7.859375 
" id="ArialMT-74"/>
       <path d="M 42.09375 16.703125 
L 51.171875 15.578125 
Q 49.03125 7.625 43.21875 3.21875 
Q 37.40625 -1.171875 28.375 -1.171875 
Q 17 -1.171875 10.328125 5.828125 
Q 3.65625 12.84375 3.65625 25.484375 
Q 3.65625 38.578125 10.390625 45.796875 
Q 17.140625 53.03125 27.875 53.03125 
Q 38.28125 53.03125 44.875 45.953125 
Q 51.46875 38.875 51.46875 26.03125 
Q 51.46875 25.25 51.421875 23.6875 
L 12.75 23.6875 
Q 13.234375 15.140625 17.578125 10.59375 
Q 21.921875 6.0625 28.421875 6.0625 
Q 33.25 6.0625 36.671875 8.59375 
Q 40.09375 11.140625 42.09375 16.703125 
M 13.234375 30.90625 
L 42.1875 30.90625 
Q 41.609375 37.453125 38.875 40.71875 
Q 34.671875 45.796875 27.984375 45.796875 
Q 21.921875 45.796875 17.796875 41.75 
Q 13.671875 37.703125 13.234375 30.90625 
" id="ArialMT-65"/>
       <path d="M 3.078125 15.484375 
L 11.765625 16.84375 
Q 12.5 11.625 15.84375 8.84375 
Q 19.1875 6.0625 25.203125 6.0625 
Q 31.25 6.0625 34.171875 8.515625 
Q 37.109375 10.984375 37.109375 14.3125 
Q 37.109375 17.28125 34.515625 19 
Q 32.71875 20.171875 25.53125 21.96875 
Q 15.875 24.421875 12.140625 26.203125 
Q 8.40625 27.984375 6.46875 31.125 
Q 4.546875 34.28125 4.546875 38.09375 
Q 4.546875 41.546875 6.125 44.5 
Q 7.71875 47.46875 10.453125 49.421875 
Q 12.5 50.921875 16.03125 51.96875 
Q 19.578125 53.03125 23.640625 53.03125 
Q 29.734375 53.03125 34.34375 51.265625 
Q 38.96875 49.515625 41.15625 46.5 
Q 43.359375 43.5 44.1875 38.484375 
L 35.59375 37.3125 
Q 35.015625 41.3125 32.203125 43.546875 
Q 29.390625 45.796875 24.265625 45.796875 
Q 18.21875 45.796875 15.625 43.796875 
Q 13.03125 41.796875 13.03125 39.109375 
Q 13.03125 37.40625 14.109375 36.03125 
Q 15.1875 34.625 17.484375 33.6875 
Q 18.796875 33.203125 25.25 31.453125 
Q 34.578125 28.953125 38.25 27.359375 
Q 41.9375 25.78125 44.03125 22.75 
Q 46.140625 19.734375 46.140625 15.234375 
Q 46.140625 10.84375 43.578125 6.953125 
Q 41.015625 3.078125 36.171875 0.953125 
Q 31.34375 -1.171875 25.25 -1.171875 
Q 15.140625 -1.171875 9.84375 3.03125 
Q 4.546875 7.234375 3.078125 15.484375 
" id="ArialMT-73"/>
      </defs>
      <g style="fill:#262626;" transform="translate(492.11328125 398.1578125)scale(0.1 -0.1)">
       <use xlink:href="#ArialMT-54"/>
       <use x="60.912109375" xlink:href="#ArialMT-65"/>
       <use x="116.52734375" xlink:href="#ArialMT-73"/>
       <use x="166.52734375" xlink:href="#ArialMT-74"/>
       <use x="194.310546875" xlink:href="#ArialMT-69"/>
       <use x="216.52734375" xlink:href="#ArialMT-6e"/>
       <use x="272.142578125" xlink:href="#ArialMT-67"/>
      </g>
     </g>
    </g>
   </g>
   <g id="matplotlib.axis_2">
    <g id="ytick_1">
     <g id="line2d_3">
      <defs>
       <path d="M 0 0 
L -6 0 
" id="m0dac783a6b" style="stroke:#262626;"/>
      </defs>
      <g>
       <use style="fill:#262626;stroke:#262626;" x="90.0" xlink:href="#m0dac783a6b" y="378.0"/>
      </g>
     </g>
     <g id="text_3">
      <!-- 0.9 -->
      <defs>
       <path d="M 4.15625 35.296875 
Q 4.15625 48 6.765625 55.734375 
Q 9.375 63.484375 14.515625 67.671875 
Q 19.671875 71.875 27.484375 71.875 
Q 33.25 71.875 37.59375 69.546875 
Q 41.9375 67.234375 44.765625 62.859375 
Q 47.609375 58.5 49.21875 52.21875 
Q 50.828125 45.953125 50.828125 35.296875 
Q 50.828125 22.703125 48.234375 14.96875 
Q 45.65625 7.234375 40.5 3 
Q 35.359375 -1.21875 27.484375 -1.21875 
Q 17.140625 -1.21875 11.234375 6.203125 
Q 4.15625 15.140625 4.15625 35.296875 
M 13.1875 35.296875 
Q 13.1875 17.671875 17.3125 11.828125 
Q 21.4375 6 27.484375 6 
Q 33.546875 6 37.671875 11.859375 
Q 41.796875 17.71875 41.796875 35.296875 
Q 41.796875 52.984375 37.671875 58.78125 
Q 33.546875 64.59375 27.390625 64.59375 
Q 21.34375 64.59375 17.71875 59.46875 
Q 13.1875 52.9375 13.1875 35.296875 
" id="ArialMT-30"/>
       <path d="M 5.46875 16.546875 
L 13.921875 17.328125 
Q 14.984375 11.375 18.015625 8.6875 
Q 21.046875 6 25.78125 6 
Q 29.828125 6 32.875 7.859375 
Q 35.9375 9.71875 37.890625 12.8125 
Q 39.84375 15.921875 41.15625 21.1875 
Q 42.484375 26.46875 42.484375 31.9375 
Q 42.484375 32.515625 42.4375 33.6875 
Q 39.796875 29.5 35.234375 26.875 
Q 30.671875 24.265625 25.34375 24.265625 
Q 16.453125 24.265625 10.296875 30.703125 
Q 4.15625 37.15625 4.15625 47.703125 
Q 4.15625 58.59375 10.578125 65.234375 
Q 17 71.875 26.65625 71.875 
Q 33.640625 71.875 39.421875 68.109375 
Q 45.21875 64.359375 48.21875 57.390625 
Q 51.21875 50.4375 51.21875 37.25 
Q 51.21875 23.53125 48.234375 15.40625 
Q 45.265625 7.28125 39.375 3.03125 
Q 33.5 -1.21875 25.59375 -1.21875 
Q 17.1875 -1.21875 11.859375 3.4375 
Q 6.546875 8.109375 5.46875 16.546875 
M 41.453125 48.140625 
Q 41.453125 55.71875 37.421875 60.15625 
Q 33.40625 64.59375 27.734375 64.59375 
Q 21.875 64.59375 17.53125 59.8125 
Q 13.1875 55.03125 13.1875 47.40625 
Q 13.1875 40.578125 17.3125 36.296875 
Q 21.4375 32.03125 27.484375 32.03125 
Q 33.59375 32.03125 37.515625 36.296875 
Q 41.453125 40.578125 41.453125 48.140625 
" id="ArialMT-39"/>
       <path d="M 9.078125 0 
L 9.078125 10.015625 
L 19.09375 10.015625 
L 19.09375 0 
z
" id="ArialMT-2e"/>
      </defs>
      <g style="fill:#262626;" transform="translate(63.1 380.58515625)scale(0.1 -0.1)">
       <use xlink:href="#ArialMT-30"/>
       <use x="55.615234375" xlink:href="#ArialMT-2e"/>
       <use x="83.3984375" xlink:href="#ArialMT-39"/>
      </g>
     </g>
    </g>
    <g id="ytick_2">
     <g id="line2d_4">
      <g>
       <use style="fill:#262626;stroke:#262626;" x="90.0" xlink:href="#m0dac783a6b" y="322.2"/>
      </g>
     </g>
     <g id="text_4">
      <!-- 1.0 -->
      <defs>
       <path d="M 37.25 0 
L 28.46875 0 
L 28.46875 56 
Q 25.296875 52.984375 20.140625 49.953125 
Q 14.984375 46.921875 10.890625 45.40625 
L 10.890625 53.90625 
Q 18.265625 57.375 23.78125 62.296875 
Q 29.296875 67.234375 31.59375 71.875 
L 37.25 71.875 
z
" id="ArialMT-31"/>
      </defs>
      <g style="fill:#262626;" transform="translate(63.1 324.78515625)scale(0.1 -0.1)">
       <use xlink:href="#ArialMT-31"/>
       <use x="55.615234375" xlink:href="#ArialMT-2e"/>
       <use x="83.3984375" xlink:href="#ArialMT-30"/>
      </g>
     </g>
    </g>
    <g id="ytick_3">
     <g id="line2d_5">
      <g>
       <use style="fill:#262626;stroke:#262626;" x="90.0" xlink:href="#m0dac783a6b" y="266.4"/>
      </g>
     </g>
     <g id="text_5">
      <!-- 1.1 -->
      <g style="fill:#262626;" transform="translate(63.1 268.98515625)scale(0.1 -0.1)">
       <use xlink:href="#ArialMT-31"/>
       <use x="55.615234375" xlink:href="#ArialMT-2e"/>
       <use x="83.3984375" xlink:href="#ArialMT-31"/>
      </g>
     </g>
    </g>
    <g id="ytick_4">
     <g id="line2d_6">
      <g>
       <use style="fill:#262626;stroke:#262626;" x="90.0" xlink:href="#m0dac783a6b" y="210.6"/>
      </g>
     </g>
     <g id="text_6">
      <!-- 1.2 -->
      <defs>
       <path d="M 50.34375 8.453125 
L 50.34375 0 
L 3.03125 0 
Q 2.9375 3.171875 4.046875 6.109375 
Q 5.859375 10.9375 9.828125 15.625 
Q 13.8125 20.3125 21.34375 26.46875 
Q 33.015625 36.03125 37.109375 41.625 
Q 41.21875 47.21875 41.21875 52.203125 
Q 41.21875 57.421875 37.46875 61 
Q 33.734375 64.59375 27.734375 64.59375 
Q 21.390625 64.59375 17.578125 60.78125 
Q 13.765625 56.984375 13.71875 50.25 
L 4.6875 51.171875 
Q 5.609375 61.28125 11.65625 66.578125 
Q 17.71875 71.875 27.9375 71.875 
Q 38.234375 71.875 44.234375 66.15625 
Q 50.25 60.453125 50.25 52 
Q 50.25 47.703125 48.484375 43.546875 
Q 46.734375 39.40625 42.65625 34.8125 
Q 38.578125 30.21875 29.109375 22.21875 
Q 21.1875 15.578125 18.9375 13.203125 
Q 16.703125 10.84375 15.234375 8.453125 
z
" id="ArialMT-32"/>
      </defs>
      <g style="fill:#262626;" transform="translate(63.1 213.18515625)scale(0.1 -0.1)">
       <use xlink:href="#ArialMT-31"/>
       <use x="55.615234375" xlink:href="#ArialMT-2e"/>
       <use x="83.3984375" xlink:href="#ArialMT-32"/>
      </g>
     </g>
    </g>
    <g id="ytick_5">
     <g id="line2d_7">
      <g>
       <use style="fill:#262626;stroke:#262626;" x="90.0" xlink:href="#m0dac783a6b" y="154.8"/>
      </g>
     </g>
     <g id="text_7">
      <!-- 1.3 -->
      <defs>
       <path d="M 4.203125 18.890625 
L 12.984375 20.0625 
Q 14.5 12.59375 18.140625 9.296875 
Q 21.78125 6 27 6 
Q 33.203125 6 37.46875 10.296875 
Q 41.75 14.59375 41.75 20.953125 
Q 41.75 27 37.796875 30.921875 
Q 33.84375 34.859375 27.734375 34.859375 
Q 25.25 34.859375 21.53125 33.890625 
L 22.515625 41.609375 
Q 23.390625 41.5 23.921875 41.5 
Q 29.546875 41.5 34.03125 44.421875 
Q 38.53125 47.359375 38.53125 53.46875 
Q 38.53125 58.296875 35.25 61.46875 
Q 31.984375 64.65625 26.8125 64.65625 
Q 21.6875 64.65625 18.265625 61.421875 
Q 14.84375 58.203125 13.875 51.765625 
L 5.078125 53.328125 
Q 6.6875 62.15625 12.390625 67.015625 
Q 18.109375 71.875 26.609375 71.875 
Q 32.46875 71.875 37.390625 69.359375 
Q 42.328125 66.84375 44.9375 62.5 
Q 47.5625 58.15625 47.5625 53.265625 
Q 47.5625 48.640625 45.0625 44.828125 
Q 42.578125 41.015625 37.703125 38.765625 
Q 44.046875 37.3125 47.5625 32.6875 
Q 51.078125 28.078125 51.078125 21.140625 
Q 51.078125 11.765625 44.234375 5.25 
Q 37.40625 -1.265625 26.953125 -1.265625 
Q 17.53125 -1.265625 11.296875 4.34375 
Q 5.078125 9.96875 4.203125 18.890625 
" id="ArialMT-33"/>
      </defs>
      <g style="fill:#262626;" transform="translate(63.1 157.38515625)scale(0.1 -0.1)">
       <use xlink:href="#ArialMT-31"/>
       <use x="55.615234375" xlink:href="#ArialMT-2e"/>
       <use x="83.3984375" xlink:href="#ArialMT-33"/>
      </g>
     </g>
    </g>
    <g id="ytick_6">
     <g id="line2d_8">
      <g>
       <use style="fill:#262626;stroke:#262626;" x="90.0" xlink:href="#m0dac783a6b" y="99.0"/>
      </g>
     </g>
     <g id="text_8">
      <!-- 1.4 -->
      <defs>
       <path d="M 32.328125 0 
L 32.328125 17.140625 
L 1.265625 17.140625 
L 1.265625 25.203125 
L 33.9375 71.578125 
L 41.109375 71.578125 
L 41.109375 25.203125 
L 50.78125 25.203125 
L 50.78125 17.140625 
L 41.109375 17.140625 
L 41.109375 0 
z
M 32.328125 25.203125 
L 32.328125 57.46875 
L 9.90625 25.203125 
z
" id="ArialMT-34"/>
      </defs>
      <g style="fill:#262626;" transform="translate(63.1 101.58515625)scale(0.1 -0.1)">
       <use xlink:href="#ArialMT-31"/>
       <use x="55.615234375" xlink:href="#ArialMT-2e"/>
       <use x="83.3984375" xlink:href="#ArialMT-34"/>
      </g>
     </g>
    </g>
    <g id="ytick_7">
     <g id="line2d_9">
      <g>
       <use style="fill:#262626;stroke:#262626;" x="90.0" xlink:href="#m0dac783a6b" y="43.2"/>
      </g>
     </g>
     <g id="text_9">
      <!-- 1.5 -->
      <defs>
       <path d="M 4.15625 18.75 
L 13.375 19.53125 
Q 14.40625 12.796875 18.140625 9.390625 
Q 21.875 6 27.15625 6 
Q 33.5 6 37.890625 10.78125 
Q 42.28125 15.578125 42.28125 23.484375 
Q 42.28125 31 38.0625 35.34375 
Q 33.84375 39.703125 27 39.703125 
Q 22.75 39.703125 19.328125 37.765625 
Q 15.921875 35.84375 13.96875 32.765625 
L 5.71875 33.84375 
L 12.640625 70.609375 
L 48.25 70.609375 
L 48.25 62.203125 
L 19.671875 62.203125 
L 15.828125 42.96875 
Q 22.265625 47.46875 29.34375 47.46875 
Q 38.71875 47.46875 45.15625 40.96875 
Q 51.609375 34.46875 51.609375 24.265625 
Q 51.609375 14.546875 45.953125 7.46875 
Q 39.0625 -1.21875 27.15625 -1.21875 
Q 17.390625 -1.21875 11.203125 4.25 
Q 5.03125 9.71875 4.15625 18.75 
" id="ArialMT-35"/>
      </defs>
      <g style="fill:#262626;" transform="translate(63.1 45.78515625)scale(0.1 -0.1)">
       <use xlink:href="#ArialMT-31"/>
       <use x="55.615234375" xlink:href="#ArialMT-2e"/>
       <use x="83.3984375" xlink:href="#ArialMT-35"/>
      </g>
     </g>
    </g>
    <g id="text_10">
     <!-- Relative consonant accuracy -->
     <defs>
      <path d="M 40.4375 19 
L 49.078125 17.875 
Q 47.65625 8.9375 41.8125 3.875 
Q 35.984375 -1.171875 27.484375 -1.171875 
Q 16.84375 -1.171875 10.375 5.78125 
Q 3.90625 12.75 3.90625 25.734375 
Q 3.90625 34.125 6.6875 40.421875 
Q 9.46875 46.734375 15.15625 49.875 
Q 20.84375 53.03125 27.546875 53.03125 
Q 35.984375 53.03125 41.359375 48.75 
Q 46.734375 44.484375 48.25 36.625 
L 39.703125 35.296875 
Q 38.484375 40.53125 35.375 43.15625 
Q 32.28125 45.796875 27.875 45.796875 
Q 21.234375 45.796875 17.078125 41.03125 
Q 12.9375 36.28125 12.9375 25.984375 
Q 12.9375 15.53125 16.9375 10.796875 
Q 20.953125 6.0625 27.390625 6.0625 
Q 32.5625 6.0625 36.03125 9.234375 
Q 39.5 12.40625 40.4375 19 
" id="ArialMT-63"/>
      <path d="M 6.203125 -19.96875 
L 5.21875 -11.71875 
Q 8.109375 -12.5 10.25 -12.5 
Q 13.1875 -12.5 14.9375 -11.515625 
Q 16.703125 -10.546875 17.828125 -8.796875 
Q 18.65625 -7.46875 20.515625 -2.25 
Q 20.75 -1.515625 21.296875 -0.09375 
L 1.609375 51.859375 
L 11.078125 51.859375 
L 21.875 21.828125 
Q 23.96875 16.109375 25.640625 9.8125 
Q 27.15625 15.875 29.25 21.625 
L 40.328125 51.859375 
L 49.125 51.859375 
L 29.390625 -0.875 
Q 26.21875 -9.421875 24.46875 -12.640625 
Q 22.125 -17 19.09375 -19.015625 
Q 16.0625 -21.046875 11.859375 -21.046875 
Q 9.328125 -21.046875 6.203125 -19.96875 
" id="ArialMT-79"/>
      <path d="M 7.859375 0 
L 7.859375 71.578125 
L 39.59375 71.578125 
Q 49.171875 71.578125 54.140625 69.640625 
Q 59.125 67.71875 62.109375 62.828125 
Q 65.09375 57.953125 65.09375 52.046875 
Q 65.09375 44.4375 60.15625 39.203125 
Q 55.21875 33.984375 44.921875 32.5625 
Q 48.6875 30.765625 50.640625 29 
Q 54.78125 25.203125 58.5 19.484375 
L 70.953125 0 
L 59.03125 0 
L 49.5625 14.890625 
Q 45.40625 21.34375 42.71875 24.75 
Q 40.046875 28.171875 37.921875 29.53125 
Q 35.796875 30.90625 33.59375 31.453125 
Q 31.984375 31.78125 28.328125 31.78125 
L 17.328125 31.78125 
L 17.328125 0 
z
M 17.328125 39.984375 
L 37.703125 39.984375 
Q 44.1875 39.984375 47.84375 41.328125 
Q 51.515625 42.671875 53.421875 45.625 
Q 55.328125 48.578125 55.328125 52.046875 
Q 55.328125 57.125 51.640625 60.390625 
Q 47.953125 63.671875 39.984375 63.671875 
L 17.328125 63.671875 
z
" id="ArialMT-52"/>
      <path d="M 40.578125 0 
L 40.578125 7.625 
Q 34.515625 -1.171875 24.125 -1.171875 
Q 19.53125 -1.171875 15.546875 0.578125 
Q 11.578125 2.34375 9.640625 5 
Q 7.71875 7.671875 6.9375 11.53125 
Q 6.390625 14.109375 6.390625 19.734375 
L 6.390625 51.859375 
L 15.1875 51.859375 
L 15.1875 23.09375 
Q 15.1875 16.21875 15.71875 13.8125 
Q 16.546875 10.359375 19.234375 8.375 
Q 21.921875 6.390625 25.875 6.390625 
Q 29.828125 6.390625 33.296875 8.421875 
Q 36.765625 10.453125 38.203125 13.9375 
Q 39.65625 17.4375 39.65625 24.078125 
L 39.65625 51.859375 
L 48.4375 51.859375 
L 48.4375 0 
z
" id="ArialMT-75"/>
      <path d="M 21 0 
L 1.265625 51.859375 
L 10.546875 51.859375 
L 21.6875 20.796875 
Q 23.484375 15.765625 25 10.359375 
Q 26.171875 14.453125 28.265625 20.21875 
L 39.796875 51.859375 
L 48.828125 51.859375 
L 29.203125 0 
z
" id="ArialMT-76"/>
      <path d="M 6.390625 0 
L 6.390625 71.578125 
L 15.1875 71.578125 
L 15.1875 0 
z
" id="ArialMT-6c"/>
      <path d="M 3.328125 25.921875 
Q 3.328125 40.328125 11.328125 47.265625 
Q 18.015625 53.03125 27.640625 53.03125 
Q 38.328125 53.03125 45.109375 46.015625 
Q 51.90625 39.015625 51.90625 26.65625 
Q 51.90625 16.65625 48.90625 10.90625 
Q 45.90625 5.171875 40.15625 2 
Q 34.421875 -1.171875 27.640625 -1.171875 
Q 16.75 -1.171875 10.03125 5.8125 
Q 3.328125 12.796875 3.328125 25.921875 
M 12.359375 25.921875 
Q 12.359375 15.96875 16.703125 11.015625 
Q 21.046875 6.0625 27.640625 6.0625 
Q 34.1875 6.0625 38.53125 11.03125 
Q 42.875 16.015625 42.875 26.21875 
Q 42.875 35.84375 38.5 40.796875 
Q 34.125 45.75 27.640625 45.75 
Q 21.046875 45.75 16.703125 40.8125 
Q 12.359375 35.890625 12.359375 25.921875 
" id="ArialMT-6f"/>
      <path id="ArialMT-20"/>
     </defs>
     <g style="fill:#262626;" transform="translate(55.78484375 280.911484375)rotate(-90.0)scale(0.11 -0.11)">
      <use xlink:href="#ArialMT-52"/>
      <use x="72.216796875" xlink:href="#ArialMT-65"/>
      <use x="127.83203125" xlink:href="#ArialMT-6c"/>
      <use x="150.048828125" xlink:href="#ArialMT-61"/>
      <use x="205.6640625" xlink:href="#ArialMT-74"/>
      <use x="233.447265625" xlink:href="#ArialMT-69"/>
      <use x="255.6640625" xlink:href="#ArialMT-76"/>
      <use x="305.6640625" xlink:href="#ArialMT-65"/>
      <use x="361.279296875" xlink:href="#ArialMT-20"/>
      <use x="389.0625" xlink:href="#ArialMT-63"/>
      <use x="439.0625" xlink:href="#ArialMT-6f"/>
      <use x="494.677734375" xlink:href="#ArialMT-6e"/>
      <use x="550.29296875" xlink:href="#ArialMT-73"/>
      <use x="600.29296875" xlink:href="#ArialMT-6f"/>
      <use x="655.908203125" xlink:href="#ArialMT-6e"/>
      <use x="711.5234375" xlink:href="#ArialMT-61"/>
      <use x="767.138671875" xlink:href="#ArialMT-6e"/>
      <use x="822.75390625" xlink:href="#ArialMT-74"/>
      <use x="850.537109375" xlink:href="#ArialMT-20"/>
      <use x="878.3203125" xlink:href="#ArialMT-61"/>
      <use x="933.935546875" xlink:href="#ArialMT-63"/>
      <use x="983.935546875" xlink:href="#ArialMT-63"/>
      <use x="1033.93554688" xlink:href="#ArialMT-75"/>
      <use x="1089.55078125" xlink:href="#ArialMT-72"/>
      <use x="1122.8515625" xlink:href="#ArialMT-61"/>
      <use x="1178.46679688" xlink:href="#ArialMT-63"/>
      <use x="1228.46679688" xlink:href="#ArialMT-79"/>
     </g>
    </g>
   </g>
   <g id="PolyCollection_1">
    <defs>
     <path d="M 140.56056 -203.638589 
L 139.87944 -203.638589 
L 139.788051 -203.989285 
L 139.679368 -204.339981 
L 139.552266 -204.690678 
L 139.406159 -205.041374 
L 139.241159 -205.39207 
L 139.05822 -205.742766 
L 138.85925 -206.093463 
L 138.647178 -206.444159 
L 138.425953 -206.794855 
L 138.200475 -207.145551 
L 137.976444 -207.496248 
L 137.760127 -207.846944 
L 137.558056 -208.19764 
L 137.376673 -208.548337 
L 137.221937 -208.899033 
L 137.098925 -209.249729 
L 137.011465 -209.600425 
L 136.961812 -209.951122 
L 136.950408 -210.301818 
L 136.975743 -210.652514 
L 137.034321 -211.00321 
L 137.120742 -211.353907 
L 137.227884 -211.704603 
L 137.347179 -212.055299 
L 137.468954 -212.405995 
L 137.582814 -212.756692 
L 137.678045 -213.107388 
L 137.743999 -213.458084 
L 137.770455 -213.80878 
L 137.747936 -214.159477 
L 137.667965 -214.510173 
L 137.523268 -214.860869 
L 137.307915 -215.211565 
L 137.017416 -215.562262 
L 136.648777 -215.912958 
L 136.200521 -216.263654 
L 135.672698 -216.61435 
L 135.066877 -216.965047 
L 134.386146 -217.315743 
L 133.635099 -217.666439 
L 132.819831 -218.017135 
L 131.947922 -218.367832 
L 131.028406 -218.718528 
L 130.071715 -219.069224 
L 129.089589 -219.41992 
L 128.094934 -219.770617 
L 127.101636 -220.121313 
L 126.124308 -220.472009 
L 125.177995 -220.822705 
L 124.277835 -221.173402 
L 123.438682 -221.524098 
L 122.674732 -221.874794 
L 121.999138 -222.22549 
L 121.423668 -222.576187 
L 120.958383 -222.926883 
L 120.61138 -223.277579 
L 120.388583 -223.628275 
L 120.293595 -223.978972 
L 120.327603 -224.329668 
L 120.489345 -224.680364 
L 120.775127 -225.03106 
L 121.178895 -225.381757 
L 121.692362 -225.732453 
L 122.305206 -226.083149 
L 123.005325 -226.433846 
L 123.779164 -226.784542 
L 124.612109 -227.135238 
L 125.488932 -227.485934 
L 126.394284 -227.836631 
L 127.313199 -228.187327 
L 128.231585 -228.538023 
L 129.136672 -228.888719 
L 130.017384 -229.239416 
L 130.864613 -229.590112 
L 131.671364 -229.940808 
L 132.432784 -230.291504 
L 133.146059 -230.642201 
L 133.810208 -230.992897 
L 134.425787 -231.343593 
L 134.994546 -231.694289 
L 135.519056 -232.044986 
L 136.002356 -232.395682 
L 136.447632 -232.746378 
L 136.857962 -233.097074 
L 137.236124 -233.447771 
L 137.58449 -233.798467 
L 137.90499 -234.149163 
L 138.199132 -234.499859 
L 138.468075 -234.850556 
L 138.712726 -235.201252 
L 138.933852 -235.551948 
L 139.132185 -235.902644 
L 139.308514 -236.253341 
L 139.463755 -236.604037 
L 139.598983 -236.954733 
L 139.71545 -237.305429 
L 139.814571 -237.656126 
L 139.897889 -238.006822 
L 139.967035 -238.357518 
L 140.472965 -238.357518 
L 140.472965 -238.357518 
L 140.542111 -238.006822 
L 140.625429 -237.656126 
L 140.72455 -237.305429 
L 140.841017 -236.954733 
L 140.976245 -236.604037 
L 141.131486 -236.253341 
L 141.307815 -235.902644 
L 141.506148 -235.551948 
L 141.727274 -235.201252 
L 141.971925 -234.850556 
L 142.240868 -234.499859 
L 142.53501 -234.149163 
L 142.85551 -233.798467 
L 143.203876 -233.447771 
L 143.582038 -233.097074 
L 143.992368 -232.746378 
L 144.437644 -232.395682 
L 144.920944 -232.044986 
L 145.445454 -231.694289 
L 146.014213 -231.343593 
L 146.629792 -230.992897 
L 147.293941 -230.642201 
L 148.007216 -230.291504 
L 148.768636 -229.940808 
L 149.575387 -229.590112 
L 150.422616 -229.239416 
L 151.303328 -228.888719 
L 152.208415 -228.538023 
L 153.126801 -228.187327 
L 154.045716 -227.836631 
L 154.951068 -227.485934 
L 155.827891 -227.135238 
L 156.660836 -226.784542 
L 157.434675 -226.433846 
L 158.134794 -226.083149 
L 158.747638 -225.732453 
L 159.261105 -225.381757 
L 159.664873 -225.03106 
L 159.950655 -224.680364 
L 160.112397 -224.329668 
L 160.146405 -223.978972 
L 160.051417 -223.628275 
L 159.82862 -223.277579 
L 159.481617 -222.926883 
L 159.016332 -222.576187 
L 158.440862 -222.22549 
L 157.765268 -221.874794 
L 157.001318 -221.524098 
L 156.162165 -221.173402 
L 155.262005 -220.822705 
L 154.315692 -220.472009 
L 153.338364 -220.121313 
L 152.345066 -219.770617 
L 151.350411 -219.41992 
L 150.368285 -219.069224 
L 149.411594 -218.718528 
L 148.492078 -218.367832 
L 147.620169 -218.017135 
L 146.804901 -217.666439 
L 146.053854 -217.315743 
L 145.373123 -216.965047 
L 144.767302 -216.61435 
L 144.239479 -216.263654 
L 143.791223 -215.912958 
L 143.422584 -215.562262 
L 143.132085 -215.211565 
L 142.916732 -214.860869 
L 142.772035 -214.510173 
L 142.692064 -214.159477 
L 142.669545 -213.80878 
L 142.696001 -213.458084 
L 142.761955 -213.107388 
L 142.857186 -212.756692 
L 142.971046 -212.405995 
L 143.092821 -212.055299 
L 143.212116 -211.704603 
L 143.319258 -211.353907 
L 143.405679 -211.00321 
L 143.464257 -210.652514 
L 143.489592 -210.301818 
L 143.478188 -209.951122 
L 143.428535 -209.600425 
L 143.341075 -209.249729 
L 143.218063 -208.899033 
L 143.063327 -208.548337 
L 142.881944 -208.19764 
L 142.679873 -207.846944 
L 142.463556 -207.496248 
L 142.239525 -207.145551 
L 142.014047 -206.794855 
L 141.792822 -206.444159 
L 141.58075 -206.093463 
L 141.38178 -205.742766 
L 141.198841 -205.39207 
L 141.033841 -205.041374 
L 140.887734 -204.690678 
L 140.760632 -204.339981 
L 140.651949 -203.989285 
L 140.56056 -203.638589 
z
" id="m9ea7b657d2" style="stroke:#4c4c4c;stroke-width:1.75;"/>
    </defs>
    <g clip-path="url(#pd9c8dbcf11)">
     <use style="fill:#5875a4;stroke:#4c4c4c;stroke-width:1.75;" x="0.0" xlink:href="#m9ea7b657d2" y="432.0"/>
    </g>
   </g>
   <g id="PolyCollection_2">
    <defs>
     <path d="M 185.31698 -196.154803 
L 184.40302 -196.154803 
L 184.291779 -196.47312 
L 184.159569 -196.791437 
L 184.004032 -197.109754 
L 183.822924 -197.428071 
L 183.614222 -197.746388 
L 183.376241 -198.064705 
L 183.107751 -198.383022 
L 182.80811 -198.701339 
L 182.477381 -199.019657 
L 182.116441 -199.337974 
L 181.727073 -199.656291 
L 181.312028 -199.974608 
L 180.875051 -200.292925 
L 180.420871 -200.611242 
L 179.955136 -200.929559 
L 179.484308 -201.247876 
L 179.015496 -201.566193 
L 178.556255 -201.88451 
L 178.114326 -202.202827 
L 177.697356 -202.521144 
L 177.312582 -202.839462 
L 176.966515 -203.157779 
L 176.664618 -203.476096 
L 176.411014 -203.794413 
L 176.208225 -204.11273 
L 176.056972 -204.431047 
L 175.956032 -204.749364 
L 175.902182 -205.067681 
L 175.890226 -205.385998 
L 175.913115 -205.704315 
L 175.962157 -206.022632 
L 176.027307 -206.34095 
L 176.097542 -206.659267 
L 176.16129 -206.977584 
L 176.206907 -207.295901 
L 176.223176 -207.614218 
L 176.199808 -207.932535 
L 176.127917 -208.250852 
L 176.000457 -208.569169 
L 175.812586 -208.887486 
L 175.561942 -209.205803 
L 175.248827 -209.52412 
L 174.876264 -209.842437 
L 174.449948 -210.160755 
L 173.978068 -210.479072 
L 173.471019 -210.797389 
L 172.941012 -211.115706 
L 172.401596 -211.434023 
L 171.867119 -211.75234 
L 171.352146 -212.070657 
L 170.870873 -212.388974 
L 170.436552 -212.707291 
L 170.060972 -213.025608 
L 169.75401 -213.343925 
L 169.523279 -213.662242 
L 169.373891 -213.98056 
L 169.308348 -214.298877 
L 169.326559 -214.617194 
L 169.425982 -214.935511 
L 169.601885 -215.253828 
L 169.847696 -215.572145 
L 170.155428 -215.890462 
L 170.516152 -216.208779 
L 170.920478 -216.527096 
L 171.35903 -216.845413 
L 171.822869 -217.16373 
L 172.30386 -217.482048 
L 172.794949 -217.800365 
L 173.290347 -218.118682 
L 173.785615 -218.436999 
L 174.277648 -218.755316 
L 174.764579 -219.073633 
L 175.2456 -219.39195 
L 175.720736 -219.710267 
L 176.190589 -220.028584 
L 176.656062 -220.346901 
L 177.118102 -220.665218 
L 177.577476 -220.983535 
L 178.03458 -221.301853 
L 178.489314 -221.62017 
L 178.94101 -221.938487 
L 179.388421 -222.256804 
L 179.829768 -222.575121 
L 180.262824 -222.893438 
L 180.685046 -223.211755 
L 181.093716 -223.530072 
L 181.486097 -223.848389 
L 181.859584 -224.166706 
L 182.211842 -224.485023 
L 182.540912 -224.80334 
L 182.845304 -225.121658 
L 183.124037 -225.439975 
L 183.376669 -225.758292 
L 183.603274 -226.076609 
L 183.804418 -226.394926 
L 183.98109 -226.713243 
L 184.134636 -227.03156 
L 184.266681 -227.349877 
L 184.379039 -227.668194 
L 185.340961 -227.668194 
L 185.340961 -227.668194 
L 185.453319 -227.349877 
L 185.585364 -227.03156 
L 185.73891 -226.713243 
L 185.915582 -226.394926 
L 186.116726 -226.076609 
L 186.343331 -225.758292 
L 186.595963 -225.439975 
L 186.874696 -225.121658 
L 187.179088 -224.80334 
L 187.508158 -224.485023 
L 187.860416 -224.166706 
L 188.233903 -223.848389 
L 188.626284 -223.530072 
L 189.034954 -223.211755 
L 189.457176 -222.893438 
L 189.890232 -222.575121 
L 190.331579 -222.256804 
L 190.77899 -221.938487 
L 191.230686 -221.62017 
L 191.68542 -221.301853 
L 192.142524 -220.983535 
L 192.601898 -220.665218 
L 193.063938 -220.346901 
L 193.529411 -220.028584 
L 193.999264 -219.710267 
L 194.4744 -219.39195 
L 194.955421 -219.073633 
L 195.442352 -218.755316 
L 195.934385 -218.436999 
L 196.429653 -218.118682 
L 196.925051 -217.800365 
L 197.41614 -217.482048 
L 197.897131 -217.16373 
L 198.36097 -216.845413 
L 198.799522 -216.527096 
L 199.203848 -216.208779 
L 199.564572 -215.890462 
L 199.872304 -215.572145 
L 200.118115 -215.253828 
L 200.294018 -214.935511 
L 200.393441 -214.617194 
L 200.411652 -214.298877 
L 200.346109 -213.98056 
L 200.196721 -213.662242 
L 199.96599 -213.343925 
L 199.659028 -213.025608 
L 199.283448 -212.707291 
L 198.849127 -212.388974 
L 198.367854 -212.070657 
L 197.852881 -211.75234 
L 197.318404 -211.434023 
L 196.778988 -211.115706 
L 196.248981 -210.797389 
L 195.741932 -210.479072 
L 195.270052 -210.160755 
L 194.843736 -209.842437 
L 194.471173 -209.52412 
L 194.158058 -209.205803 
L 193.907414 -208.887486 
L 193.719543 -208.569169 
L 193.592083 -208.250852 
L 193.520192 -207.932535 
L 193.496824 -207.614218 
L 193.513093 -207.295901 
L 193.55871 -206.977584 
L 193.622458 -206.659267 
L 193.692693 -206.34095 
L 193.757843 -206.022632 
L 193.806885 -205.704315 
L 193.829774 -205.385998 
L 193.817818 -205.067681 
L 193.763968 -204.749364 
L 193.663028 -204.431047 
L 193.511775 -204.11273 
L 193.308986 -203.794413 
L 193.055382 -203.476096 
L 192.753485 -203.157779 
L 192.407418 -202.839462 
L 192.022644 -202.521144 
L 191.605674 -202.202827 
L 191.163745 -201.88451 
L 190.704504 -201.566193 
L 190.235692 -201.247876 
L 189.764864 -200.929559 
L 189.299129 -200.611242 
L 188.844949 -200.292925 
L 188.407972 -199.974608 
L 187.992927 -199.656291 
L 187.603559 -199.337974 
L 187.242619 -199.019657 
L 186.91189 -198.701339 
L 186.612249 -198.383022 
L 186.343759 -198.064705 
L 186.105778 -197.746388 
L 185.897076 -197.428071 
L 185.715968 -197.109754 
L 185.560431 -196.791437 
L 185.428221 -196.47312 
L 185.31698 -196.154803 
z
" id="m6d229ec97e" style="stroke:#4c4c4c;stroke-width:1.75;"/>
    </defs>
    <g clip-path="url(#pd9c8dbcf11)">
     <use style="fill:#5f9e6e;stroke:#4c4c4c;stroke-width:1.75;" x="0.0" xlink:href="#m6d229ec97e" y="432.0"/>
    </g>
   </g>
   <g id="PolyCollection_3">
    <defs>
     <path d="M 229.831395 -200.806527 
L 229.168605 -200.806527 
L 229.088341 -201.058945 
L 228.992931 -201.311363 
L 228.880583 -201.56378 
L 228.749525 -201.816198 
L 228.598062 -202.068616 
L 228.424639 -202.321034 
L 228.227904 -202.573452 
L 228.00678 -202.825869 
L 227.760536 -203.078287 
L 227.488859 -203.330705 
L 227.191912 -203.583123 
L 226.870397 -203.83554 
L 226.525598 -204.087958 
L 226.159415 -204.340376 
L 225.774373 -204.592794 
L 225.373617 -204.845212 
L 224.960883 -205.097629 
L 224.540437 -205.350047 
L 224.116992 -205.602465 
L 223.695597 -205.854883 
L 223.2815 -206.1073 
L 222.879989 -206.359718 
L 222.496214 -206.612136 
L 222.135004 -206.864554 
L 221.800671 -207.116971 
L 221.496834 -207.369389 
L 221.226248 -207.621807 
L 220.990671 -207.874225 
L 220.790754 -208.126643 
L 220.625987 -208.37906 
L 220.494683 -208.631478 
L 220.394012 -208.883896 
L 220.32009 -209.136314 
L 220.268098 -209.388731 
L 220.232447 -209.641149 
L 220.206962 -209.893567 
L 220.185078 -210.145985 
L 220.160038 -210.398403 
L 220.125083 -210.65082 
L 220.073619 -210.903238 
L 219.999361 -211.155656 
L 219.896443 -211.408074 
L 219.759506 -211.660491 
L 219.583758 -211.912909 
L 219.365017 -212.165327 
L 219.099741 -212.417745 
L 218.785073 -212.670163 
L 218.418882 -212.92258 
L 217.999833 -213.174998 
L 217.527481 -213.427416 
L 217.002382 -213.679834 
L 216.426235 -213.932251 
L 215.80203 -214.184669 
L 215.1342 -214.437087 
L 214.428755 -214.689505 
L 213.69338 -214.941922 
L 212.937482 -215.19434 
L 212.172168 -215.446758 
L 211.410138 -215.699176 
L 210.665483 -215.951594 
L 209.953391 -216.204011 
L 209.289767 -216.456429 
L 208.690761 -216.708847 
L 208.172253 -216.961265 
L 207.749291 -217.213682 
L 207.435524 -217.4661 
L 207.242665 -217.718518 
L 207.18 -217.970936 
L 207.253983 -218.223354 
L 207.467936 -218.475771 
L 207.821876 -218.728189 
L 208.312466 -218.980607 
L 208.933116 -219.233025 
L 209.674203 -219.485442 
L 210.523415 -219.73786 
L 211.466197 -219.990278 
L 212.486262 -220.242696 
L 213.566159 -220.495113 
L 214.687861 -220.747531 
L 215.833339 -220.999949 
L 216.985105 -221.252367 
L 218.126702 -221.504785 
L 219.243115 -221.757202 
L 220.321102 -222.00962 
L 221.349424 -222.262038 
L 222.318986 -222.514456 
L 223.222885 -222.766873 
L 224.056375 -223.019291 
L 224.816753 -223.271709 
L 225.503191 -223.524127 
L 226.116518 -223.776545 
L 226.658978 -224.028962 
L 227.133963 -224.28138 
L 227.545747 -224.533798 
L 227.899235 -224.786216 
L 228.199717 -225.038633 
L 228.452662 -225.291051 
L 228.66353 -225.543469 
L 228.837626 -225.795887 
L 230.162374 -225.795887 
L 230.162374 -225.795887 
L 230.33647 -225.543469 
L 230.547338 -225.291051 
L 230.800283 -225.038633 
L 231.100765 -224.786216 
L 231.454253 -224.533798 
L 231.866037 -224.28138 
L 232.341022 -224.028962 
L 232.883482 -223.776545 
L 233.496809 -223.524127 
L 234.183247 -223.271709 
L 234.943625 -223.019291 
L 235.777115 -222.766873 
L 236.681014 -222.514456 
L 237.650576 -222.262038 
L 238.678898 -222.00962 
L 239.756885 -221.757202 
L 240.873298 -221.504785 
L 242.014895 -221.252367 
L 243.166661 -220.999949 
L 244.312139 -220.747531 
L 245.433841 -220.495113 
L 246.513738 -220.242696 
L 247.533803 -219.990278 
L 248.476585 -219.73786 
L 249.325797 -219.485442 
L 250.066884 -219.233025 
L 250.687534 -218.980607 
L 251.178124 -218.728189 
L 251.532064 -218.475771 
L 251.746017 -218.223354 
L 251.82 -217.970936 
L 251.757335 -217.718518 
L 251.564476 -217.4661 
L 251.250709 -217.213682 
L 250.827747 -216.961265 
L 250.309239 -216.708847 
L 249.710233 -216.456429 
L 249.046609 -216.204011 
L 248.334517 -215.951594 
L 247.589862 -215.699176 
L 246.827832 -215.446758 
L 246.062518 -215.19434 
L 245.30662 -214.941922 
L 244.571245 -214.689505 
L 243.8658 -214.437087 
L 243.19797 -214.184669 
L 242.573765 -213.932251 
L 241.997618 -213.679834 
L 241.472519 -213.427416 
L 241.000167 -213.174998 
L 240.581118 -212.92258 
L 240.214927 -212.670163 
L 239.900259 -212.417745 
L 239.634983 -212.165327 
L 239.416242 -211.912909 
L 239.240494 -211.660491 
L 239.103557 -211.408074 
L 239.000639 -211.155656 
L 238.926381 -210.903238 
L 238.874917 -210.65082 
L 238.839962 -210.398403 
L 238.814922 -210.145985 
L 238.793038 -209.893567 
L 238.767553 -209.641149 
L 238.731902 -209.388731 
L 238.67991 -209.136314 
L 238.605988 -208.883896 
L 238.505317 -208.631478 
L 238.374013 -208.37906 
L 238.209246 -208.126643 
L 238.009329 -207.874225 
L 237.773752 -207.621807 
L 237.503166 -207.369389 
L 237.199329 -207.116971 
L 236.864996 -206.864554 
L 236.503786 -206.612136 
L 236.120011 -206.359718 
L 235.7185 -206.1073 
L 235.304403 -205.854883 
L 234.883008 -205.602465 
L 234.459563 -205.350047 
L 234.039117 -205.097629 
L 233.626383 -204.845212 
L 233.225627 -204.592794 
L 232.840585 -204.340376 
L 232.474402 -204.087958 
L 232.129603 -203.83554 
L 231.808088 -203.583123 
L 231.511141 -203.330705 
L 231.239464 -203.078287 
L 230.99322 -202.825869 
L 230.772096 -202.573452 
L 230.575361 -202.321034 
L 230.401938 -202.068616 
L 230.250475 -201.816198 
L 230.119417 -201.56378 
L 230.007069 -201.311363 
L 229.911659 -201.058945 
L 229.831395 -200.806527 
z
" id="mab66bdd80c" style="stroke:#4c4c4c;stroke-width:1.75;"/>
    </defs>
    <g clip-path="url(#pd9c8dbcf11)">
     <use style="fill:#b55d60;stroke:#4c4c4c;stroke-width:1.75;" x="0.0" xlink:href="#mab66bdd80c" y="432.0"/>
    </g>
   </g>
   <g id="PolyCollection_4">
    <defs>
     <path d="M 274.485456 -208.207224 
L 273.794544 -208.207224 
L 273.702823 -208.577924 
L 273.594045 -208.948624 
L 273.467169 -209.319325 
L 273.321679 -209.690025 
L 273.157721 -210.060725 
L 272.976219 -210.431425 
L 272.778948 -210.802126 
L 272.568555 -211.172826 
L 272.348507 -211.543526 
L 272.122963 -211.914226 
L 271.896564 -212.284927 
L 271.67414 -212.655627 
L 271.460365 -213.026327 
L 271.259356 -213.397028 
L 271.07427 -213.767728 
L 270.906909 -214.138428 
L 270.757392 -214.509128 
L 270.623904 -214.879829 
L 270.502576 -215.250529 
L 270.387486 -215.621229 
L 270.270828 -215.991929 
L 270.143209 -216.36263 
L 269.994087 -216.73333 
L 269.812315 -217.10403 
L 269.586755 -217.474731 
L 269.306927 -217.845431 
L 268.963656 -218.216131 
L 268.549661 -218.586831 
L 268.060076 -218.957532 
L 267.492851 -219.328232 
L 266.849023 -219.698932 
L 266.132847 -220.069632 
L 265.35177 -220.440333 
L 264.516266 -220.811033 
L 263.639528 -221.181733 
L 262.737037 -221.552434 
L 261.826025 -221.923134 
L 260.924858 -222.293834 
L 260.052366 -222.664534 
L 259.227142 -223.035235 
L 258.46686 -223.405935 
L 257.787633 -223.776635 
L 257.203459 -224.147335 
L 256.725768 -224.518036 
L 256.363117 -224.888736 
L 256.121029 -225.259436 
L 256.001993 -225.630137 
L 256.005603 -226.000837 
L 256.128822 -226.371537 
L 256.366334 -226.742237 
L 256.710948 -227.112938 
L 257.153995 -227.483638 
L 257.685713 -227.854338 
L 258.295556 -228.225038 
L 258.972438 -228.595739 
L 259.704889 -228.966439 
L 260.481158 -229.337139 
L 261.289267 -229.70784 
L 262.117059 -230.07854 
L 262.952269 -230.44924 
L 263.782643 -230.81994 
L 264.596129 -231.190641 
L 265.381137 -231.561341 
L 266.126875 -231.932041 
L 266.823717 -232.302741 
L 267.463597 -232.673442 
L 268.040365 -233.044142 
L 268.550089 -233.414842 
L 268.991252 -233.785543 
L 269.364822 -234.156243 
L 269.674186 -234.526943 
L 269.924935 -234.897643 
L 270.124517 -235.268344 
L 270.281787 -235.639044 
L 270.406475 -236.009744 
L 270.508619 -236.380444 
L 270.598009 -236.751145 
L 270.683662 -237.121845 
L 270.773393 -237.492545 
L 270.873472 -237.863246 
L 270.988418 -238.233946 
L 271.120918 -238.604646 
L 271.271862 -238.975346 
L 271.440502 -239.346047 
L 271.624693 -239.716747 
L 271.821199 -240.087447 
L 272.026033 -240.458148 
L 272.234813 -240.828848 
L 272.443086 -241.199548 
L 272.64662 -241.570248 
L 272.841641 -241.940949 
L 273.024999 -242.311649 
L 273.194274 -242.682349 
L 273.347814 -243.053049 
L 273.484715 -243.42375 
L 273.604759 -243.79445 
L 273.708319 -244.16515 
L 273.796244 -244.535851 
L 273.869731 -244.906551 
L 274.410269 -244.906551 
L 274.410269 -244.906551 
L 274.483756 -244.535851 
L 274.571681 -244.16515 
L 274.675241 -243.79445 
L 274.795285 -243.42375 
L 274.932186 -243.053049 
L 275.085726 -242.682349 
L 275.255001 -242.311649 
L 275.438359 -241.940949 
L 275.63338 -241.570248 
L 275.836914 -241.199548 
L 276.045187 -240.828848 
L 276.253967 -240.458148 
L 276.458801 -240.087447 
L 276.655307 -239.716747 
L 276.839498 -239.346047 
L 277.008138 -238.975346 
L 277.159082 -238.604646 
L 277.291582 -238.233946 
L 277.406528 -237.863246 
L 277.506607 -237.492545 
L 277.596338 -237.121845 
L 277.681991 -236.751145 
L 277.771381 -236.380444 
L 277.873525 -236.009744 
L 277.998213 -235.639044 
L 278.155483 -235.268344 
L 278.355065 -234.897643 
L 278.605814 -234.526943 
L 278.915178 -234.156243 
L 279.288748 -233.785543 
L 279.729911 -233.414842 
L 280.239635 -233.044142 
L 280.816403 -232.673442 
L 281.456283 -232.302741 
L 282.153125 -231.932041 
L 282.898863 -231.561341 
L 283.683871 -231.190641 
L 284.497357 -230.81994 
L 285.327731 -230.44924 
L 286.162941 -230.07854 
L 286.990733 -229.70784 
L 287.798842 -229.337139 
L 288.575111 -228.966439 
L 289.307562 -228.595739 
L 289.984444 -228.225038 
L 290.594287 -227.854338 
L 291.126005 -227.483638 
L 291.569052 -227.112938 
L 291.913666 -226.742237 
L 292.151178 -226.371537 
L 292.274397 -226.000837 
L 292.278007 -225.630137 
L 292.158971 -225.259436 
L 291.916883 -224.888736 
L 291.554232 -224.518036 
L 291.076541 -224.147335 
L 290.492367 -223.776635 
L 289.81314 -223.405935 
L 289.052858 -223.035235 
L 288.227634 -222.664534 
L 287.355142 -222.293834 
L 286.453975 -221.923134 
L 285.542963 -221.552434 
L 284.640472 -221.181733 
L 283.763734 -220.811033 
L 282.92823 -220.440333 
L 282.147153 -220.069632 
L 281.430977 -219.698932 
L 280.787149 -219.328232 
L 280.219924 -218.957532 
L 279.730339 -218.586831 
L 279.316344 -218.216131 
L 278.973073 -217.845431 
L 278.693245 -217.474731 
L 278.467685 -217.10403 
L 278.285913 -216.73333 
L 278.136791 -216.36263 
L 278.009172 -215.991929 
L 277.892514 -215.621229 
L 277.777424 -215.250529 
L 277.656096 -214.879829 
L 277.522608 -214.509128 
L 277.373091 -214.138428 
L 277.20573 -213.767728 
L 277.020644 -213.397028 
L 276.819635 -213.026327 
L 276.60586 -212.655627 
L 276.383436 -212.284927 
L 276.157037 -211.914226 
L 275.931493 -211.543526 
L 275.711445 -211.172826 
L 275.501052 -210.802126 
L 275.303781 -210.431425 
L 275.122279 -210.060725 
L 274.958321 -209.690025 
L 274.812831 -209.319325 
L 274.685955 -208.948624 
L 274.577177 -208.577924 
L 274.485456 -208.207224 
z
" id="ma35f2cb968" style="stroke:#4c4c4c;stroke-width:1.75;"/>
    </defs>
    <g clip-path="url(#pd9c8dbcf11)">
     <use style="fill:#857aaa;stroke:#4c4c4c;stroke-width:1.75;" x="0.0" xlink:href="#ma35f2cb968" y="432.0"/>
    </g>
   </g>
   <g id="PolyCollection_5">
    <defs>
     <path d="M 319.191418 -199.337125 
L 318.368582 -199.337125 
L 318.268187 -199.640824 
L 318.150479 -199.944523 
L 318.014404 -200.248221 
L 317.859329 -200.55192 
L 317.685156 -200.855619 
L 317.492412 -201.159318 
L 317.282321 -201.463016 
L 317.056837 -201.766715 
L 316.818641 -202.070414 
L 316.571081 -202.374113 
L 316.318065 -202.677811 
L 316.063905 -202.98151 
L 315.813112 -203.285209 
L 315.570161 -203.588908 
L 315.339244 -203.892606 
L 315.124007 -204.196305 
L 314.927326 -204.500004 
L 314.751104 -204.803703 
L 314.596131 -205.107401 
L 314.462006 -205.4111 
L 314.347136 -205.714799 
L 314.248802 -206.018498 
L 314.163299 -206.322196 
L 314.086123 -206.625895 
L 314.012201 -206.929594 
L 313.936139 -207.233293 
L 313.85246 -207.536991 
L 313.75583 -207.84069 
L 313.641234 -208.144389 
L 313.504108 -208.448088 
L 313.340412 -208.751786 
L 313.146651 -209.055485 
L 312.919843 -209.359184 
L 312.657457 -209.662883 
L 312.357327 -209.966581 
L 312.017572 -210.27028 
L 311.636527 -210.573979 
L 311.212722 -210.877678 
L 310.7449 -211.181376 
L 310.232102 -211.485075 
L 309.673813 -211.788774 
L 309.070162 -212.092473 
L 308.422165 -212.396172 
L 307.732007 -212.69987 
L 307.003306 -213.003569 
L 306.241368 -213.307268 
L 305.453378 -213.610967 
L 304.648502 -213.914665 
L 303.837888 -214.218364 
L 303.034527 -214.522063 
L 302.252985 -214.825762 
L 301.508988 -215.12946 
L 300.818884 -215.433159 
L 300.199004 -215.736858 
L 299.664955 -216.040557 
L 299.230889 -216.344255 
L 298.908793 -216.647954 
L 298.70786 -216.951653 
L 298.633978 -217.255352 
L 298.689387 -217.55905 
L 298.872521 -217.862749 
L 299.178073 -218.166448 
L 299.597259 -218.470147 
L 300.118291 -218.773845 
L 300.726997 -219.077544 
L 301.407584 -219.381243 
L 302.143451 -219.684942 
L 302.918017 -219.98864 
L 303.715504 -220.292339 
L 304.521607 -220.596038 
L 305.32403 -220.899737 
L 306.112831 -221.203435 
L 306.880591 -221.507134 
L 307.622381 -221.810833 
L 308.335569 -222.114532 
L 309.019477 -222.41823 
L 309.67495 -222.721929 
L 310.303864 -223.025628 
L 310.908631 -223.329327 
L 311.491744 -223.633025 
L 312.055391 -223.936724 
L 312.601166 -224.240423 
L 313.129896 -224.544122 
L 313.641573 -224.84782 
L 314.135397 -225.151519 
L 314.609902 -225.455218 
L 315.063135 -225.758917 
L 315.492888 -226.062616 
L 315.896923 -226.366314 
L 316.273193 -226.670013 
L 316.620022 -226.973712 
L 316.936251 -227.277411 
L 317.22132 -227.581109 
L 317.4753 -227.884808 
L 317.698883 -228.188507 
L 317.893324 -228.492206 
L 318.060348 -228.795904 
L 318.202054 -229.099603 
L 318.320789 -229.403302 
L 319.239211 -229.403302 
L 319.239211 -229.403302 
L 319.357946 -229.099603 
L 319.499652 -228.795904 
L 319.666676 -228.492206 
L 319.861117 -228.188507 
L 320.0847 -227.884808 
L 320.33868 -227.581109 
L 320.623749 -227.277411 
L 320.939978 -226.973712 
L 321.286807 -226.670013 
L 321.663077 -226.366314 
L 322.067112 -226.062616 
L 322.496865 -225.758917 
L 322.950098 -225.455218 
L 323.424603 -225.151519 
L 323.918427 -224.84782 
L 324.430104 -224.544122 
L 324.958834 -224.240423 
L 325.504609 -223.936724 
L 326.068256 -223.633025 
L 326.651369 -223.329327 
L 327.256136 -223.025628 
L 327.88505 -222.721929 
L 328.540523 -222.41823 
L 329.224431 -222.114532 
L 329.937619 -221.810833 
L 330.679409 -221.507134 
L 331.447169 -221.203435 
L 332.23597 -220.899737 
L 333.038393 -220.596038 
L 333.844496 -220.292339 
L 334.641983 -219.98864 
L 335.416549 -219.684942 
L 336.152416 -219.381243 
L 336.833003 -219.077544 
L 337.441709 -218.773845 
L 337.962741 -218.470147 
L 338.381927 -218.166448 
L 338.687479 -217.862749 
L 338.870613 -217.55905 
L 338.926022 -217.255352 
L 338.85214 -216.951653 
L 338.651207 -216.647954 
L 338.329111 -216.344255 
L 337.895045 -216.040557 
L 337.360996 -215.736858 
L 336.741116 -215.433159 
L 336.051012 -215.12946 
L 335.307015 -214.825762 
L 334.525473 -214.522063 
L 333.722112 -214.218364 
L 332.911498 -213.914665 
L 332.106622 -213.610967 
L 331.318632 -213.307268 
L 330.556694 -213.003569 
L 329.827993 -212.69987 
L 329.137835 -212.396172 
L 328.489838 -212.092473 
L 327.886187 -211.788774 
L 327.327898 -211.485075 
L 326.8151 -211.181376 
L 326.347278 -210.877678 
L 325.923473 -210.573979 
L 325.542428 -210.27028 
L 325.202673 -209.966581 
L 324.902543 -209.662883 
L 324.640157 -209.359184 
L 324.413349 -209.055485 
L 324.219588 -208.751786 
L 324.055892 -208.448088 
L 323.918766 -208.144389 
L 323.80417 -207.84069 
L 323.70754 -207.536991 
L 323.623861 -207.233293 
L 323.547799 -206.929594 
L 323.473877 -206.625895 
L 323.396701 -206.322196 
L 323.311198 -206.018498 
L 323.212864 -205.714799 
L 323.097994 -205.4111 
L 322.963869 -205.107401 
L 322.808896 -204.803703 
L 322.632674 -204.500004 
L 322.435993 -204.196305 
L 322.220756 -203.892606 
L 321.989839 -203.588908 
L 321.746888 -203.285209 
L 321.496095 -202.98151 
L 321.241935 -202.677811 
L 320.988919 -202.374113 
L 320.741359 -202.070414 
L 320.503163 -201.766715 
L 320.277679 -201.463016 
L 320.067588 -201.159318 
L 319.874844 -200.855619 
L 319.700671 -200.55192 
L 319.545596 -200.248221 
L 319.409521 -199.944523 
L 319.291813 -199.640824 
L 319.191418 -199.337125 
z
" id="m46bdb4dbb7" style="stroke:#4c4c4c;stroke-width:1.75;"/>
    </defs>
    <g clip-path="url(#pd9c8dbcf11)">
     <use style="fill:#c1b37f;stroke:#4c4c4c;stroke-width:1.75;" x="0.0" xlink:href="#m46bdb4dbb7" y="432.0"/>
    </g>
   </g>
   <g id="PolyCollection_6">
    <defs>
     <path d="M 419.460201 -273.271605 
L 418.979799 -273.271605 
L 418.91688 -274.213867 
L 418.841266 -275.15613 
L 418.751412 -276.098393 
L 418.645819 -277.040656 
L 418.523098 -277.982919 
L 418.382024 -278.925182 
L 418.221605 -279.867445 
L 418.041135 -280.809708 
L 417.840247 -281.751971 
L 417.618945 -282.694234 
L 417.377632 -283.636497 
L 417.117105 -284.57876 
L 416.838542 -285.521023 
L 416.543449 -286.463286 
L 416.233604 -287.405549 
L 415.910965 -288.347812 
L 415.577576 -289.290074 
L 415.23545 -290.232337 
L 414.886463 -291.1746 
L 414.532245 -292.116863 
L 414.174094 -293.059126 
L 413.812907 -294.001389 
L 413.449149 -294.943652 
L 413.082856 -295.885915 
L 412.71368 -296.828178 
L 412.34097 -297.770441 
L 411.963898 -298.712704 
L 411.581607 -299.654967 
L 411.193377 -300.59723 
L 410.798802 -301.539493 
L 410.397952 -302.481756 
L 409.991516 -303.424018 
L 409.580903 -304.366281 
L 409.168298 -305.308544 
L 408.756663 -306.250807 
L 408.349677 -307.19307 
L 407.951628 -308.135333 
L 407.567256 -309.077596 
L 407.201558 -310.019859 
L 406.859584 -310.962122 
L 406.546221 -311.904385 
L 406.266 -312.846648 
L 406.02293 -313.788911 
L 405.82037 -314.731174 
L 405.660952 -315.673437 
L 405.546555 -316.6157 
L 405.478319 -317.557962 
L 405.456701 -318.500225 
L 405.481556 -319.442488 
L 405.552228 -320.384751 
L 405.667643 -321.327014 
L 405.826387 -322.269277 
L 406.02676 -323.21154 
L 406.266799 -324.153803 
L 406.544282 -325.096066 
L 406.856693 -326.038329 
L 407.201181 -326.980592 
L 407.574509 -327.922855 
L 407.97301 -328.865118 
L 408.392568 -329.807381 
L 408.828626 -330.749644 
L 409.276235 -331.691906 
L 409.730157 -332.634169 
L 410.185001 -333.576432 
L 410.635402 -334.518695 
L 411.07623 -335.460958 
L 411.502807 -336.403221 
L 411.911123 -337.345484 
L 412.298026 -338.287747 
L 412.661374 -339.23001 
L 413.000128 -340.172273 
L 413.314382 -341.114536 
L 413.605323 -342.056799 
L 413.875111 -342.999062 
L 414.126706 -343.941325 
L 414.363641 -344.883588 
L 414.589753 -345.825851 
L 414.808914 -346.768113 
L 415.024753 -347.710376 
L 415.240422 -348.652639 
L 415.458394 -349.594902 
L 415.680326 -350.537165 
L 415.90699 -351.479428 
L 416.138267 -352.421691 
L 416.373211 -353.363954 
L 416.610167 -354.306217 
L 416.846932 -355.24848 
L 417.080937 -356.190743 
L 417.30945 -357.133006 
L 417.529764 -358.075269 
L 417.739367 -359.017532 
L 417.936083 -359.959795 
L 418.118176 -360.902057 
L 418.28441 -361.84432 
L 418.434073 -362.786583 
L 418.56696 -363.728846 
L 418.683333 -364.671109 
L 418.783853 -365.613372 
L 418.869502 -366.555635 
L 419.570498 -366.555635 
L 419.570498 -366.555635 
L 419.656147 -365.613372 
L 419.756667 -364.671109 
L 419.87304 -363.728846 
L 420.005927 -362.786583 
L 420.15559 -361.84432 
L 420.321824 -360.902057 
L 420.503917 -359.959795 
L 420.700633 -359.017532 
L 420.910236 -358.075269 
L 421.13055 -357.133006 
L 421.359063 -356.190743 
L 421.593068 -355.24848 
L 421.829833 -354.306217 
L 422.066789 -353.363954 
L 422.301733 -352.421691 
L 422.53301 -351.479428 
L 422.759674 -350.537165 
L 422.981606 -349.594902 
L 423.199578 -348.652639 
L 423.415247 -347.710376 
L 423.631086 -346.768113 
L 423.850247 -345.825851 
L 424.076359 -344.883588 
L 424.313294 -343.941325 
L 424.564889 -342.999062 
L 424.834677 -342.056799 
L 425.125618 -341.114536 
L 425.439872 -340.172273 
L 425.778626 -339.23001 
L 426.141974 -338.287747 
L 426.528877 -337.345484 
L 426.937193 -336.403221 
L 427.36377 -335.460958 
L 427.804598 -334.518695 
L 428.254999 -333.576432 
L 428.709843 -332.634169 
L 429.163765 -331.691906 
L 429.611374 -330.749644 
L 430.047432 -329.807381 
L 430.46699 -328.865118 
L 430.865491 -327.922855 
L 431.238819 -326.980592 
L 431.583307 -326.038329 
L 431.895718 -325.096066 
L 432.173201 -324.153803 
L 432.41324 -323.21154 
L 432.613613 -322.269277 
L 432.772357 -321.327014 
L 432.887772 -320.384751 
L 432.958444 -319.442488 
L 432.983299 -318.500225 
L 432.961681 -317.557962 
L 432.893445 -316.6157 
L 432.779048 -315.673437 
L 432.61963 -314.731174 
L 432.41707 -313.788911 
L 432.174 -312.846648 
L 431.893779 -311.904385 
L 431.580416 -310.962122 
L 431.238442 -310.019859 
L 430.872744 -309.077596 
L 430.488372 -308.135333 
L 430.090323 -307.19307 
L 429.683337 -306.250807 
L 429.271702 -305.308544 
L 428.859097 -304.366281 
L 428.448484 -303.424018 
L 428.042048 -302.481756 
L 427.641198 -301.539493 
L 427.246623 -300.59723 
L 426.858393 -299.654967 
L 426.476102 -298.712704 
L 426.09903 -297.770441 
L 425.72632 -296.828178 
L 425.357144 -295.885915 
L 424.990851 -294.943652 
L 424.627093 -294.001389 
L 424.265906 -293.059126 
L 423.907755 -292.116863 
L 423.553537 -291.1746 
L 423.20455 -290.232337 
L 422.862424 -289.290074 
L 422.529035 -288.347812 
L 422.206396 -287.405549 
L 421.896551 -286.463286 
L 421.601458 -285.521023 
L 421.322895 -284.57876 
L 421.062368 -283.636497 
L 420.821055 -282.694234 
L 420.599753 -281.751971 
L 420.398865 -280.809708 
L 420.218395 -279.867445 
L 420.057976 -278.925182 
L 419.916902 -277.982919 
L 419.794181 -277.040656 
L 419.688588 -276.098393 
L 419.598734 -275.15613 
L 419.52312 -274.213867 
L 419.460201 -273.271605 
z
" id="m0427c43085" style="stroke:#4c4c4c;stroke-width:1.75;"/>
    </defs>
    <g clip-path="url(#pd9c8dbcf11)">
     <use style="fill:#5875a4;stroke:#4c4c4c;stroke-width:1.75;" x="0.0" xlink:href="#m0427c43085" y="432.0"/>
    </g>
   </g>
   <g id="PolyCollection_7">
    <defs>
     <path d="M 464.164784 -186.271284 
L 463.555216 -186.271284 
L 463.478496 -186.918557 
L 463.387751 -187.565829 
L 463.281825 -188.213102 
L 463.159802 -188.860375 
L 463.021081 -189.507648 
L 462.865449 -190.154921 
L 462.693128 -190.802194 
L 462.504819 -191.449466 
L 462.3017 -192.096739 
L 462.085411 -192.744012 
L 461.857994 -193.391285 
L 461.621802 -194.038558 
L 461.379386 -194.685831 
L 461.133345 -195.333103 
L 460.886173 -195.980376 
L 460.640092 -196.627649 
L 460.3969 -197.274922 
L 460.15783 -197.922195 
L 459.923454 -198.569468 
L 459.693616 -199.21674 
L 459.467427 -199.864013 
L 459.243308 -200.511286 
L 459.019091 -201.158559 
L 458.792165 -201.805832 
L 458.559663 -202.453105 
L 458.318676 -203.100377 
L 458.066468 -203.74765 
L 457.800683 -204.394923 
L 457.519519 -205.042196 
L 457.221844 -205.689469 
L 456.907255 -206.336742 
L 456.576055 -206.984015 
L 456.229157 -207.631287 
L 455.867918 -208.27856 
L 455.493918 -208.925833 
L 455.1087 -209.573106 
L 454.713511 -210.220379 
L 454.309059 -210.867652 
L 453.895324 -211.514924 
L 453.471444 -212.162197 
L 453.035694 -212.80947 
L 452.585579 -213.456743 
L 452.118018 -214.104016 
L 451.629635 -214.751289 
L 451.117111 -215.398561 
L 450.577593 -216.045834 
L 450.009105 -216.693107 
L 449.410946 -217.34038 
L 448.784027 -217.987653 
L 448.131127 -218.634926 
L 447.457049 -219.282198 
L 446.768656 -219.929471 
L 446.074782 -220.576744 
L 445.386035 -221.224017 
L 444.714487 -221.87129 
L 444.073279 -222.518563 
L 443.476161 -223.165835 
L 442.936996 -223.813108 
L 442.469236 -224.460381 
L 442.085427 -225.107654 
L 441.79673 -225.754927 
L 441.612513 -226.4022 
L 441.54 -227.049472 
L 441.584024 -227.696745 
L 441.746865 -228.344018 
L 442.028194 -228.991291 
L 442.425121 -229.638564 
L 442.93234 -230.285837 
L 443.542357 -230.933109 
L 444.245802 -231.580382 
L 445.031781 -232.227655 
L 445.888276 -232.874928 
L 446.802549 -233.522201 
L 447.761541 -234.169474 
L 448.752241 -234.816746 
L 449.762012 -235.464019 
L 450.778863 -236.111292 
L 451.791661 -236.758565 
L 452.790282 -237.405838 
L 453.765707 -238.053111 
L 454.710064 -238.700383 
L 455.616642 -239.347656 
L 456.479862 -239.994929 
L 457.295244 -240.642202 
L 458.059349 -241.289475 
L 458.769734 -241.936748 
L 459.424884 -242.584021 
L 460.024166 -243.231293 
L 460.567761 -243.878566 
L 461.056607 -244.525839 
L 461.492325 -245.173112 
L 461.877144 -245.820385 
L 462.213812 -246.467658 
L 462.505503 -247.11493 
L 462.755709 -247.762203 
L 462.96814 -248.409476 
L 463.146616 -249.056749 
L 463.294963 -249.704022 
L 463.416928 -250.351295 
L 464.303072 -250.351295 
L 464.303072 -250.351295 
L 464.425037 -249.704022 
L 464.573384 -249.056749 
L 464.75186 -248.409476 
L 464.964291 -247.762203 
L 465.214497 -247.11493 
L 465.506188 -246.467658 
L 465.842856 -245.820385 
L 466.227675 -245.173112 
L 466.663393 -244.525839 
L 467.152239 -243.878566 
L 467.695834 -243.231293 
L 468.295116 -242.584021 
L 468.950266 -241.936748 
L 469.660651 -241.289475 
L 470.424756 -240.642202 
L 471.240138 -239.994929 
L 472.103358 -239.347656 
L 473.009936 -238.700383 
L 473.954293 -238.053111 
L 474.929718 -237.405838 
L 475.928339 -236.758565 
L 476.941137 -236.111292 
L 477.957988 -235.464019 
L 478.967759 -234.816746 
L 479.958459 -234.169474 
L 480.917451 -233.522201 
L 481.831724 -232.874928 
L 482.688219 -232.227655 
L 483.474198 -231.580382 
L 484.177643 -230.933109 
L 484.78766 -230.285837 
L 485.294879 -229.638564 
L 485.691806 -228.991291 
L 485.973135 -228.344018 
L 486.135976 -227.696745 
L 486.18 -227.049472 
L 486.107487 -226.4022 
L 485.92327 -225.754927 
L 485.634573 -225.107654 
L 485.250764 -224.460381 
L 484.783004 -223.813108 
L 484.243839 -223.165835 
L 483.646721 -222.518563 
L 483.005513 -221.87129 
L 482.333965 -221.224017 
L 481.645218 -220.576744 
L 480.951344 -219.929471 
L 480.262951 -219.282198 
L 479.588873 -218.634926 
L 478.935973 -217.987653 
L 478.309054 -217.34038 
L 477.710895 -216.693107 
L 477.142407 -216.045834 
L 476.602889 -215.398561 
L 476.090365 -214.751289 
L 475.601982 -214.104016 
L 475.134421 -213.456743 
L 474.684306 -212.80947 
L 474.248556 -212.162197 
L 473.824676 -211.514924 
L 473.410941 -210.867652 
L 473.006489 -210.220379 
L 472.6113 -209.573106 
L 472.226082 -208.925833 
L 471.852082 -208.27856 
L 471.490843 -207.631287 
L 471.143945 -206.984015 
L 470.812745 -206.336742 
L 470.498156 -205.689469 
L 470.200481 -205.042196 
L 469.919317 -204.394923 
L 469.653532 -203.74765 
L 469.401324 -203.100377 
L 469.160337 -202.453105 
L 468.927835 -201.805832 
L 468.700909 -201.158559 
L 468.476692 -200.511286 
L 468.252573 -199.864013 
L 468.026384 -199.21674 
L 467.796546 -198.569468 
L 467.56217 -197.922195 
L 467.3231 -197.274922 
L 467.079908 -196.627649 
L 466.833827 -195.980376 
L 466.586655 -195.333103 
L 466.340614 -194.685831 
L 466.098198 -194.038558 
L 465.862006 -193.391285 
L 465.634589 -192.744012 
L 465.4183 -192.096739 
L 465.215181 -191.449466 
L 465.026872 -190.802194 
L 464.854551 -190.154921 
L 464.698919 -189.507648 
L 464.560198 -188.860375 
L 464.438175 -188.213102 
L 464.332249 -187.565829 
L 464.241504 -186.918557 
L 464.164784 -186.271284 
z
" id="m1ee3211c92" style="stroke:#4c4c4c;stroke-width:1.75;"/>
    </defs>
    <g clip-path="url(#pd9c8dbcf11)">
     <use style="fill:#5f9e6e;stroke:#4c4c4c;stroke-width:1.75;" x="0.0" xlink:href="#m1ee3211c92" y="432.0"/>
    </g>
   </g>
   <g id="PolyCollection_8">
    <defs>
     <path d="M 508.702131 -195.975749 
L 508.297869 -195.975749 
L 508.243666 -196.968851 
L 508.1791 -197.961953 
L 508.103312 -198.955055 
L 508.015611 -199.948157 
L 507.915504 -200.94126 
L 507.802692 -201.934362 
L 507.677052 -202.927464 
L 507.538569 -203.920566 
L 507.387253 -204.913668 
L 507.223004 -205.90677 
L 507.045478 -206.899872 
L 506.853927 -207.892975 
L 506.647066 -208.886077 
L 506.422959 -209.879179 
L 506.178967 -210.872281 
L 505.911755 -211.865383 
L 505.617389 -212.858485 
L 505.291519 -213.851587 
L 504.929633 -214.844689 
L 504.527398 -215.837792 
L 504.081028 -216.830894 
L 503.587686 -217.823996 
L 503.04586 -218.817098 
L 502.455697 -219.8102 
L 501.81926 -220.803302 
L 501.140675 -221.796404 
L 500.426175 -222.789506 
L 499.684002 -223.782609 
L 498.924203 -224.775711 
L 498.158306 -225.768813 
L 497.398904 -226.761915 
L 496.659179 -227.755017 
L 495.952381 -228.748119 
L 495.291304 -229.741221 
L 494.687776 -230.734324 
L 494.152211 -231.727426 
L 493.693235 -232.720528 
L 493.317411 -233.71363 
L 493.029083 -234.706732 
L 492.830338 -235.699834 
L 492.721099 -236.692936 
L 492.699314 -237.686038 
L 492.761244 -238.679141 
L 492.901807 -239.672243 
L 493.114941 -240.665345 
L 493.393967 -241.658447 
L 493.731903 -242.651549 
L 494.121717 -243.644651 
L 494.556492 -244.637753 
L 495.029523 -245.630856 
L 495.534325 -246.623958 
L 496.064605 -247.61706 
L 496.614196 -248.610162 
L 497.177004 -249.603264 
L 497.74698 -250.596366 
L 498.318131 -251.589468 
L 498.884594 -252.58257 
L 499.440757 -253.575673 
L 499.981412 -254.568775 
L 500.501932 -255.561877 
L 500.998432 -256.554979 
L 501.467901 -257.548081 
L 501.90828 -258.541183 
L 502.318481 -259.534285 
L 502.698336 -260.527387 
L 503.048494 -261.52049 
L 503.370269 -262.513592 
L 503.665472 -263.506694 
L 503.936238 -264.499796 
L 504.184873 -265.492898 
L 504.413733 -266.486 
L 504.625138 -267.479102 
L 504.821333 -268.472205 
L 505.004475 -269.465307 
L 505.176644 -270.458409 
L 505.339854 -271.451511 
L 505.496065 -272.444613 
L 505.647171 -273.437715 
L 505.794967 -274.430817 
L 505.941092 -275.423919 
L 506.086954 -276.417022 
L 506.233653 -277.410124 
L 506.381899 -278.403226 
L 506.531963 -279.396328 
L 506.683645 -280.38943 
L 506.836282 -281.382532 
L 506.988798 -282.375634 
L 507.139786 -283.368736 
L 507.287611 -284.361839 
L 507.430542 -285.354941 
L 507.566878 -286.348043 
L 507.695065 -287.341145 
L 507.813798 -288.334247 
L 507.922096 -289.327349 
L 508.01934 -290.320451 
L 508.105285 -291.313554 
L 508.180041 -292.306656 
L 508.244032 -293.299758 
L 508.297937 -294.29286 
L 508.702063 -294.29286 
L 508.702063 -294.29286 
L 508.755968 -293.299758 
L 508.819959 -292.306656 
L 508.894715 -291.313554 
L 508.98066 -290.320451 
L 509.077904 -289.327349 
L 509.186202 -288.334247 
L 509.304935 -287.341145 
L 509.433122 -286.348043 
L 509.569458 -285.354941 
L 509.712389 -284.361839 
L 509.860214 -283.368736 
L 510.011202 -282.375634 
L 510.163718 -281.382532 
L 510.316355 -280.38943 
L 510.468037 -279.396328 
L 510.618101 -278.403226 
L 510.766347 -277.410124 
L 510.913046 -276.417022 
L 511.058908 -275.423919 
L 511.205033 -274.430817 
L 511.352829 -273.437715 
L 511.503935 -272.444613 
L 511.660146 -271.451511 
L 511.823356 -270.458409 
L 511.995525 -269.465307 
L 512.178667 -268.472205 
L 512.374862 -267.479102 
L 512.586267 -266.486 
L 512.815127 -265.492898 
L 513.063762 -264.499796 
L 513.334528 -263.506694 
L 513.629731 -262.513592 
L 513.951506 -261.52049 
L 514.301664 -260.527387 
L 514.681519 -259.534285 
L 515.09172 -258.541183 
L 515.532099 -257.548081 
L 516.001568 -256.554979 
L 516.498068 -255.561877 
L 517.018588 -254.568775 
L 517.559243 -253.575673 
L 518.115406 -252.58257 
L 518.681869 -251.589468 
L 519.25302 -250.596366 
L 519.822996 -249.603264 
L 520.385804 -248.610162 
L 520.935395 -247.61706 
L 521.465675 -246.623958 
L 521.970477 -245.630856 
L 522.443508 -244.637753 
L 522.878283 -243.644651 
L 523.268097 -242.651549 
L 523.606033 -241.658447 
L 523.885059 -240.665345 
L 524.098193 -239.672243 
L 524.238756 -238.679141 
L 524.300686 -237.686038 
L 524.278901 -236.692936 
L 524.169662 -235.699834 
L 523.970917 -234.706732 
L 523.682589 -233.71363 
L 523.306765 -232.720528 
L 522.847789 -231.727426 
L 522.312224 -230.734324 
L 521.708696 -229.741221 
L 521.047619 -228.748119 
L 520.340821 -227.755017 
L 519.601096 -226.761915 
L 518.841694 -225.768813 
L 518.075797 -224.775711 
L 517.315998 -223.782609 
L 516.573825 -222.789506 
L 515.859325 -221.796404 
L 515.18074 -220.803302 
L 514.544303 -219.8102 
L 513.95414 -218.817098 
L 513.412314 -217.823996 
L 512.918972 -216.830894 
L 512.472602 -215.837792 
L 512.070367 -214.844689 
L 511.708481 -213.851587 
L 511.382611 -212.858485 
L 511.088245 -211.865383 
L 510.821033 -210.872281 
L 510.577041 -209.879179 
L 510.352934 -208.886077 
L 510.146073 -207.892975 
L 509.954522 -206.899872 
L 509.776996 -205.90677 
L 509.612747 -204.913668 
L 509.461431 -203.920566 
L 509.322948 -202.927464 
L 509.197308 -201.934362 
L 509.084496 -200.94126 
L 508.984389 -199.948157 
L 508.896688 -198.955055 
L 508.8209 -197.961953 
L 508.756334 -196.968851 
L 508.702131 -195.975749 
z
" id="m732c3d74ad" style="stroke:#4c4c4c;stroke-width:1.75;"/>
    </defs>
    <g clip-path="url(#pd9c8dbcf11)">
     <use style="fill:#b55d60;stroke:#4c4c4c;stroke-width:1.75;" x="0.0" xlink:href="#m732c3d74ad" y="432.0"/>
    </g>
   </g>
   <g id="PolyCollection_9">
    <defs>
     <path d="M 553.470257 -254.309977 
L 552.809743 -254.309977 
L 552.720192 -254.962059 
L 552.612866 -255.614142 
L 552.486059 -256.266224 
L 552.338342 -256.918306 
L 552.168661 -257.570389 
L 551.976421 -258.222471 
L 551.761542 -258.874554 
L 551.524482 -259.526636 
L 551.266211 -260.178718 
L 550.988137 -260.830801 
L 550.691977 -261.482883 
L 550.379581 -262.134966 
L 550.052719 -262.787048 
L 549.712842 -263.43913 
L 549.360845 -264.091213 
L 548.996853 -264.743295 
L 548.620049 -265.395378 
L 548.228583 -266.04746 
L 547.819566 -266.699542 
L 547.389174 -267.351625 
L 546.932861 -268.003707 
L 546.445675 -268.655789 
L 545.922664 -269.307872 
L 545.359336 -269.959954 
L 544.752145 -270.612037 
L 544.098953 -271.264119 
L 543.399434 -271.916201 
L 542.655371 -272.568284 
L 541.870809 -273.220366 
L 541.052058 -273.872449 
L 540.207527 -274.524531 
L 539.347395 -275.176613 
L 538.483153 -275.828696 
L 537.627055 -276.480778 
L 536.791516 -277.132861 
L 535.988521 -277.784943 
L 535.229083 -278.437025 
L 534.522812 -279.089108 
L 533.877614 -279.74119 
L 533.299535 -280.393273 
L 532.792778 -281.045355 
L 532.359838 -281.697437 
L 532.001775 -282.34952 
L 531.718545 -283.001602 
L 531.509374 -283.653685 
L 531.373128 -284.305767 
L 531.308624 -284.957849 
L 531.314869 -285.609932 
L 531.391196 -286.262014 
L 531.537294 -286.914097 
L 531.753121 -287.566179 
L 532.03873 -288.218261 
L 532.394024 -288.870344 
L 532.818468 -289.522426 
L 533.310784 -290.174509 
L 533.868679 -290.826591 
L 534.48862 -291.478673 
L 535.165683 -292.130756 
L 535.893508 -292.782838 
L 536.664342 -293.43492 
L 537.469199 -294.087003 
L 538.298111 -294.739085 
L 539.140461 -295.391168 
L 539.985365 -296.04325 
L 540.8221 -296.695332 
L 541.640517 -297.347415 
L 542.431445 -297.999497 
L 543.187029 -298.65158 
L 543.901003 -299.303662 
L 544.568875 -299.955744 
L 545.188006 -300.607827 
L 545.757605 -301.259909 
L 546.278607 -301.911992 
L 546.753488 -302.564074 
L 547.185995 -303.216156 
L 547.580828 -303.868239 
L 547.943296 -304.520321 
L 548.27896 -305.172404 
L 548.593286 -305.824486 
L 548.891344 -306.476568 
L 549.17754 -307.128651 
L 549.455425 -307.780733 
L 549.727569 -308.432816 
L 549.995518 -309.084898 
L 550.25982 -309.73698 
L 550.520118 -310.389063 
L 550.775305 -311.041145 
L 551.023708 -311.693228 
L 551.263305 -312.34531 
L 551.491937 -312.997392 
L 551.707511 -313.649475 
L 551.908173 -314.301557 
L 552.09244 -314.95364 
L 552.259296 -315.605722 
L 552.408231 -316.257804 
L 552.539241 -316.909887 
L 552.652795 -317.561969 
L 552.749767 -318.214052 
L 552.83135 -318.866134 
L 553.44865 -318.866134 
L 553.44865 -318.866134 
L 553.530233 -318.214052 
L 553.627205 -317.561969 
L 553.740759 -316.909887 
L 553.871769 -316.257804 
L 554.020704 -315.605722 
L 554.18756 -314.95364 
L 554.371827 -314.301557 
L 554.572489 -313.649475 
L 554.788063 -312.997392 
L 555.016695 -312.34531 
L 555.256292 -311.693228 
L 555.504695 -311.041145 
L 555.759882 -310.389063 
L 556.02018 -309.73698 
L 556.284482 -309.084898 
L 556.552431 -308.432816 
L 556.824575 -307.780733 
L 557.10246 -307.128651 
L 557.388656 -306.476568 
L 557.686714 -305.824486 
L 558.00104 -305.172404 
L 558.336704 -304.520321 
L 558.699172 -303.868239 
L 559.094005 -303.216156 
L 559.526512 -302.564074 
L 560.001393 -301.911992 
L 560.522395 -301.259909 
L 561.091994 -300.607827 
L 561.711125 -299.955744 
L 562.378997 -299.303662 
L 563.092971 -298.65158 
L 563.848555 -297.999497 
L 564.639483 -297.347415 
L 565.4579 -296.695332 
L 566.294635 -296.04325 
L 567.139539 -295.391168 
L 567.981889 -294.739085 
L 568.810801 -294.087003 
L 569.615658 -293.43492 
L 570.386492 -292.782838 
L 571.114317 -292.130756 
L 571.79138 -291.478673 
L 572.411321 -290.826591 
L 572.969216 -290.174509 
L 573.461532 -289.522426 
L 573.885976 -288.870344 
L 574.24127 -288.218261 
L 574.526879 -287.566179 
L 574.742706 -286.914097 
L 574.888804 -286.262014 
L 574.965131 -285.609932 
L 574.971376 -284.957849 
L 574.906872 -284.305767 
L 574.770626 -283.653685 
L 574.561455 -283.001602 
L 574.278225 -282.34952 
L 573.920162 -281.697437 
L 573.487222 -281.045355 
L 572.980465 -280.393273 
L 572.402386 -279.74119 
L 571.757188 -279.089108 
L 571.050917 -278.437025 
L 570.291479 -277.784943 
L 569.488484 -277.132861 
L 568.652945 -276.480778 
L 567.796847 -275.828696 
L 566.932605 -275.176613 
L 566.072473 -274.524531 
L 565.227942 -273.872449 
L 564.409191 -273.220366 
L 563.624629 -272.568284 
L 562.880566 -271.916201 
L 562.181047 -271.264119 
L 561.527855 -270.612037 
L 560.920664 -269.959954 
L 560.357336 -269.307872 
L 559.834325 -268.655789 
L 559.347139 -268.003707 
L 558.890826 -267.351625 
L 558.460434 -266.699542 
L 558.051417 -266.04746 
L 557.659951 -265.395378 
L 557.283147 -264.743295 
L 556.919155 -264.091213 
L 556.567158 -263.43913 
L 556.227281 -262.787048 
L 555.900419 -262.134966 
L 555.588023 -261.482883 
L 555.291863 -260.830801 
L 555.013789 -260.178718 
L 554.755518 -259.526636 
L 554.518458 -258.874554 
L 554.303579 -258.222471 
L 554.111339 -257.570389 
L 553.941658 -256.918306 
L 553.793941 -256.266224 
L 553.667134 -255.614142 
L 553.559808 -254.962059 
L 553.470257 -254.309977 
z
" id="ma2626bc14a" style="stroke:#4c4c4c;stroke-width:1.75;"/>
    </defs>
    <g clip-path="url(#pd9c8dbcf11)">
     <use style="fill:#857aaa;stroke:#4c4c4c;stroke-width:1.75;" x="0.0" xlink:href="#ma2626bc14a" y="432.0"/>
    </g>
   </g>
   <g id="PolyCollection_10">
    <defs>
     <path d="M 598.027794 -260.582587 
L 597.532206 -260.582587 
L 597.468036 -261.460992 
L 597.391109 -262.339398 
L 597.299907 -263.217803 
L 597.192973 -264.096209 
L 597.068966 -264.974614 
L 596.926721 -265.853019 
L 596.765324 -266.731425 
L 596.584169 -267.60983 
L 596.383023 -268.488236 
L 596.162079 -269.366641 
L 595.921999 -270.245047 
L 595.663937 -271.123452 
L 595.389555 -272.001858 
L 595.101009 -272.880263 
L 594.800914 -273.758668 
L 594.492283 -274.637074 
L 594.178446 -275.515479 
L 593.86293 -276.393885 
L 593.54933 -277.27229 
L 593.241146 -278.150696 
L 592.94161 -279.029101 
L 592.653503 -279.907507 
L 592.378977 -280.785912 
L 592.119386 -281.664317 
L 591.875141 -282.542723 
L 591.645612 -283.421128 
L 591.429075 -284.299534 
L 591.222722 -285.177939 
L 591.022743 -286.056345 
L 590.824481 -286.93475 
L 590.622646 -287.813156 
L 590.411604 -288.691561 
L 590.185704 -289.569966 
L 589.939628 -290.448372 
L 589.668752 -291.326777 
L 589.369481 -292.205183 
L 589.039541 -293.083588 
L 588.678193 -293.961994 
L 588.286375 -294.840399 
L 587.866733 -295.718805 
L 587.42356 -296.59721 
L 586.962637 -297.475615 
L 586.490985 -298.354021 
L 586.016556 -299.232426 
L 585.547885 -300.110832 
L 585.093717 -300.989237 
L 584.662652 -301.867643 
L 584.262818 -302.746048 
L 583.901601 -303.624454 
L 583.585434 -304.502859 
L 583.319654 -305.381264 
L 583.108438 -306.25967 
L 582.954782 -307.138075 
L 582.860546 -308.016481 
L 582.826518 -308.894886 
L 582.852504 -309.773292 
L 582.937423 -310.651697 
L 583.079396 -311.530102 
L 583.275827 -312.408508 
L 583.523479 -313.286913 
L 583.818535 -314.165319 
L 584.156669 -315.043724 
L 584.533127 -315.92213 
L 584.942813 -316.800535 
L 585.380409 -317.678941 
L 585.840506 -318.557346 
L 586.317756 -319.435751 
L 586.807028 -320.314157 
L 587.303569 -321.192562 
L 587.803136 -322.070968 
L 588.302111 -322.949373 
L 588.797562 -323.827779 
L 589.287261 -324.706184 
L 589.769653 -325.58459 
L 590.24377 -326.462995 
L 590.709109 -327.3414 
L 591.165482 -328.219806 
L 591.612851 -329.098211 
L 592.051172 -329.976617 
L 592.480257 -330.855022 
L 592.899667 -331.733428 
L 593.308651 -332.611833 
L 593.706125 -333.490239 
L 594.0907 -334.368644 
L 594.46075 -335.247049 
L 594.814501 -336.125455 
L 595.150153 -337.00386 
L 595.465994 -337.882266 
L 595.76052 -338.760671 
L 596.032528 -339.639077 
L 596.281199 -340.517482 
L 596.506139 -341.395888 
L 596.707401 -342.274293 
L 596.885468 -343.152698 
L 597.041225 -344.031104 
L 597.175897 -344.909509 
L 597.29098 -345.787915 
L 597.38817 -346.66632 
L 597.469277 -347.544726 
L 598.090723 -347.544726 
L 598.090723 -347.544726 
L 598.17183 -346.66632 
L 598.26902 -345.787915 
L 598.384103 -344.909509 
L 598.518775 -344.031104 
L 598.674532 -343.152698 
L 598.852599 -342.274293 
L 599.053861 -341.395888 
L 599.278801 -340.517482 
L 599.527472 -339.639077 
L 599.79948 -338.760671 
L 600.094006 -337.882266 
L 600.409847 -337.00386 
L 600.745499 -336.125455 
L 601.09925 -335.247049 
L 601.4693 -334.368644 
L 601.853875 -333.490239 
L 602.251349 -332.611833 
L 602.660333 -331.733428 
L 603.079743 -330.855022 
L 603.508828 -329.976617 
L 603.947149 -329.098211 
L 604.394518 -328.219806 
L 604.850891 -327.3414 
L 605.31623 -326.462995 
L 605.790347 -325.58459 
L 606.272739 -324.706184 
L 606.762438 -323.827779 
L 607.257889 -322.949373 
L 607.756864 -322.070968 
L 608.256431 -321.192562 
L 608.752972 -320.314157 
L 609.242244 -319.435751 
L 609.719494 -318.557346 
L 610.179591 -317.678941 
L 610.617187 -316.800535 
L 611.026873 -315.92213 
L 611.403331 -315.043724 
L 611.741465 -314.165319 
L 612.036521 -313.286913 
L 612.284173 -312.408508 
L 612.480604 -311.530102 
L 612.622577 -310.651697 
L 612.707496 -309.773292 
L 612.733482 -308.894886 
L 612.699454 -308.016481 
L 612.605218 -307.138075 
L 612.451562 -306.25967 
L 612.240346 -305.381264 
L 611.974566 -304.502859 
L 611.658399 -303.624454 
L 611.297182 -302.746048 
L 610.897348 -301.867643 
L 610.466283 -300.989237 
L 610.012115 -300.110832 
L 609.543444 -299.232426 
L 609.069015 -298.354021 
L 608.597363 -297.475615 
L 608.13644 -296.59721 
L 607.693267 -295.718805 
L 607.273625 -294.840399 
L 606.881807 -293.961994 
L 606.520459 -293.083588 
L 606.190519 -292.205183 
L 605.891248 -291.326777 
L 605.620372 -290.448372 
L 605.374296 -289.569966 
L 605.148396 -288.691561 
L 604.937354 -287.813156 
L 604.735519 -286.93475 
L 604.537257 -286.056345 
L 604.337278 -285.177939 
L 604.130925 -284.299534 
L 603.914388 -283.421128 
L 603.684859 -282.542723 
L 603.440614 -281.664317 
L 603.181023 -280.785912 
L 602.906497 -279.907507 
L 602.61839 -279.029101 
L 602.318854 -278.150696 
L 602.01067 -277.27229 
L 601.69707 -276.393885 
L 601.381554 -275.515479 
L 601.067717 -274.637074 
L 600.759086 -273.758668 
L 600.458991 -272.880263 
L 600.170445 -272.001858 
L 599.896063 -271.123452 
L 599.638001 -270.245047 
L 599.397921 -269.366641 
L 599.176977 -268.488236 
L 598.975831 -267.60983 
L 598.794676 -266.731425 
L 598.633279 -265.853019 
L 598.491034 -264.974614 
L 598.367027 -264.096209 
L 598.260093 -263.217803 
L 598.168891 -262.339398 
L 598.091964 -261.460992 
L 598.027794 -260.582587 
z
" id="mfdc2e6ca60" style="stroke:#4c4c4c;stroke-width:1.75;"/>
    </defs>
    <g clip-path="url(#pd9c8dbcf11)">
     <use style="fill:#c1b37f;stroke:#4c4c4c;stroke-width:1.75;" x="0.0" xlink:href="#mfdc2e6ca60" y="432.0"/>
    </g>
   </g>
   <g id="patch_3">
    <path clip-path="url(#pd9c8dbcf11)" d="M 229.5 880.2 
L 229.5 880.2 
L 229.5 880.2 
L 229.5 880.2 
z
" style="fill:#5875a4;stroke:#4c4c4c;stroke-linejoin:miter;stroke-width:0.875;"/>
   </g>
   <g id="patch_4">
    <path clip-path="url(#pd9c8dbcf11)" d="M 229.5 880.2 
L 229.5 880.2 
L 229.5 880.2 
L 229.5 880.2 
z
" style="fill:#5f9e6e;stroke:#4c4c4c;stroke-linejoin:miter;stroke-width:0.875;"/>
   </g>
   <g id="patch_5">
    <path clip-path="url(#pd9c8dbcf11)" d="M 229.5 880.2 
L 229.5 880.2 
L 229.5 880.2 
L 229.5 880.2 
z
" style="fill:#b55d60;stroke:#4c4c4c;stroke-linejoin:miter;stroke-width:0.875;"/>
   </g>
   <g id="patch_6">
    <path clip-path="url(#pd9c8dbcf11)" d="M 229.5 880.2 
L 229.5 880.2 
L 229.5 880.2 
L 229.5 880.2 
z
" style="fill:#857aaa;stroke:#4c4c4c;stroke-linejoin:miter;stroke-width:0.875;"/>
   </g>
   <g id="patch_7">
    <path clip-path="url(#pd9c8dbcf11)" d="M 229.5 880.2 
L 229.5 880.2 
L 229.5 880.2 
L 229.5 880.2 
z
" style="fill:#c1b37f;stroke:#4c4c4c;stroke-linejoin:miter;stroke-width:0.875;"/>
   </g>
   <g id="line2d_10">
    <path clip-path="url(#pd9c8dbcf11)" d="M 140.22 212.926158 
L 140.22 199.670478 
" style="fill:none;stroke:#4c4c4c;stroke-linecap:round;stroke-width:1.75;"/>
   </g>
   <g id="line2d_11">
    <path clip-path="url(#pd9c8dbcf11)" d="M 140.22 210.200192 
L 140.22 205.977616 
" style="fill:none;stroke:#4c4c4c;stroke-linecap:round;stroke-width:5.25;"/>
   </g>
   <g id="line2d_12">
    <path clip-path="url(#pd9c8dbcf11)" d="M 184.86 229.388858 
L 184.86 210.788145 
" style="fill:none;stroke:#4c4c4c;stroke-linecap:round;stroke-width:1.75;"/>
   </g>
   <g id="line2d_13">
    <path clip-path="url(#pd9c8dbcf11)" d="M 184.86 225.807686 
L 184.86 216.667681 
" style="fill:none;stroke:#4c4c4c;stroke-linecap:round;stroke-width:5.25;"/>
   </g>
   <g id="line2d_14">
    <path clip-path="url(#pd9c8dbcf11)" d="M 229.5 226.181838 
L 229.5 211.215748 
" style="fill:none;stroke:#4c4c4c;stroke-linecap:round;stroke-width:1.75;"/>
   </g>
   <g id="line2d_15">
    <path clip-path="url(#pd9c8dbcf11)" d="M 229.5 219.7678 
L 229.5 213.353761 
" style="fill:none;stroke:#4c4c4c;stroke-linecap:round;stroke-width:5.25;"/>
   </g>
   <g id="line2d_16">
    <path clip-path="url(#pd9c8dbcf11)" d="M 274.14 210.360543 
L 274.14 195.180651 
" style="fill:none;stroke:#4c4c4c;stroke-linecap:round;stroke-width:1.75;"/>
   </g>
   <g id="line2d_17">
    <path clip-path="url(#pd9c8dbcf11)" d="M 274.14 208.32943 
L 274.14 202.824047 
" style="fill:none;stroke:#4c4c4c;stroke-linecap:round;stroke-width:5.25;"/>
   </g>
   <g id="line2d_18">
    <path clip-path="url(#pd9c8dbcf11)" d="M 318.78 222.547216 
L 318.78 208.22253 
" style="fill:none;stroke:#4c4c4c;stroke-linecap:round;stroke-width:1.75;"/>
   </g>
   <g id="line2d_19">
    <path clip-path="url(#pd9c8dbcf11)" d="M 318.78 218.16429 
L 318.78 213.30031 
" style="fill:none;stroke:#4c4c4c;stroke-linecap:round;stroke-width:5.25;"/>
   </g>
   <g id="line2d_20">
    <path clip-path="url(#pd9c8dbcf11)" d="M 419.22 141.347851 
L 419.22 82.824909 
" style="fill:none;stroke:#4c4c4c;stroke-linecap:round;stroke-width:1.75;"/>
   </g>
   <g id="line2d_21">
    <path clip-path="url(#pd9c8dbcf11)" d="M 419.22 121.636999 
L 419.22 102.129352 
" style="fill:none;stroke:#4c4c4c;stroke-linecap:round;stroke-width:5.25;"/>
   </g>
   <g id="line2d_22">
    <path clip-path="url(#pd9c8dbcf11)" d="M 463.86 234.009177 
L 463.86 193.368245 
" style="fill:none;stroke:#4c4c4c;stroke-linecap:round;stroke-width:1.75;"/>
   </g>
   <g id="line2d_23">
    <path clip-path="url(#pd9c8dbcf11)" d="M 463.86 214.907939 
L 463.86 202.106045 
" style="fill:none;stroke:#4c4c4c;stroke-linecap:round;stroke-width:5.25;"/>
   </g>
   <g id="line2d_24">
    <path clip-path="url(#pd9c8dbcf11)" d="M 508.5 219.378441 
L 508.5 165.732411 
" style="fill:none;stroke:#4c4c4c;stroke-linecap:round;stroke-width:1.75;"/>
   </g>
   <g id="line2d_25">
    <path clip-path="url(#pd9c8dbcf11)" d="M 508.5 198.854771 
L 508.5 183.411216 
" style="fill:none;stroke:#4c4c4c;stroke-linecap:round;stroke-width:5.25;"/>
   </g>
   <g id="line2d_26">
    <path clip-path="url(#pd9c8dbcf11)" d="M 553.14 166.545229 
L 553.14 124.27866 
" style="fill:none;stroke:#4c4c4c;stroke-linecap:round;stroke-width:1.75;"/>
   </g>
   <g id="line2d_27">
    <path clip-path="url(#pd9c8dbcf11)" d="M 553.14 152.930517 
L 553.14 141.144647 
" style="fill:none;stroke:#4c4c4c;stroke-linecap:round;stroke-width:5.25;"/>
   </g>
   <g id="line2d_28">
    <path clip-path="url(#pd9c8dbcf11)" d="M 597.78 155.165768 
L 597.78 100.706919 
" style="fill:none;stroke:#4c4c4c;stroke-linecap:round;stroke-width:1.75;"/>
   </g>
   <g id="line2d_29">
    <path clip-path="url(#pd9c8dbcf11)" d="M 597.78 132.000437 
L 597.78 115.947269 
" style="fill:none;stroke:#4c4c4c;stroke-linecap:round;stroke-width:5.25;"/>
   </g>
   <g id="line2d_30">
    <path clip-path="url(#pd9c8dbcf11)" d="M 90 322.2 
L 648 322.2 
" style="fill:none;stroke:#000000;stroke-dasharray:1.000000,3.000000;stroke-dashoffset:0.0;stroke-width:1.75;"/>
   </g>
   <g id="patch_8">
    <path d="M 90 378 
L 648 378 
" style="fill:none;stroke:#262626;stroke-linecap:square;stroke-linejoin:miter;stroke-width:1.25;"/>
   </g>
   <g id="patch_9">
    <path d="M 90 378 
L 90 43.2 
" style="fill:none;stroke:#262626;stroke-linecap:square;stroke-linejoin:miter;stroke-width:1.25;"/>
   </g>
   <g id="PathCollection_1">
    <defs>
     <path d="M 0 1.75 
C 0.464105 1.75 0.909265 1.565609 1.237437 1.237437 
C 1.565609 0.909265 1.75 0.464105 1.75 0 
C 1.75 -0.464105 1.565609 -0.909265 1.237437 -1.237437 
C 0.909265 -1.565609 0.464105 -1.75 0 -1.75 
C -0.464105 -1.75 -0.909265 -1.565609 -1.237437 -1.237437 
C -1.565609 -0.909265 -1.75 -0.464105 -1.75 0 
C -1.75 0.464105 -1.565609 0.909265 -1.237437 1.237437 
C -0.909265 1.565609 -0.464105 1.75 0 1.75 
z
" id="ma9c45e5d61" style="stroke:#4c4c4c;stroke-width:0.3;"/>
    </defs>
    <g clip-path="url(#pd9c8dbcf11)">
     <use style="fill:#ffffff;stroke:#4c4c4c;stroke-width:0.3;" x="140.22" xlink:href="#ma9c45e5d61" y="208.650132189"/>
    </g>
   </g>
   <g id="PathCollection_2">
    <g clip-path="url(#pd9c8dbcf11)">
     <use style="fill:#ffffff;stroke:#4c4c4c;stroke-width:0.3;" x="184.86" xlink:href="#ma9c45e5d61" y="218.484991762"/>
    </g>
   </g>
   <g id="PathCollection_3">
    <g clip-path="url(#pd9c8dbcf11)">
     <use style="fill:#ffffff;stroke:#4c4c4c;stroke-width:0.3;" x="229.5" xlink:href="#ma9c45e5d61" y="215.064171041"/>
    </g>
   </g>
   <g id="PathCollection_4">
    <g clip-path="url(#pd9c8dbcf11)">
     <use style="fill:#ffffff;stroke:#4c4c4c;stroke-width:0.3;" x="274.14" xlink:href="#ma9c45e5d61" y="206.619019886"/>
    </g>
   </g>
   <g id="PathCollection_5">
    <g clip-path="url(#pd9c8dbcf11)">
     <use style="fill:#ffffff;stroke:#4c4c4c;stroke-width:0.3;" x="318.78" xlink:href="#ma9c45e5d61" y="215.491773631"/>
    </g>
   </g>
   <g id="PathCollection_6">
    <g clip-path="url(#pd9c8dbcf11)">
     <use style="fill:#ffffff;stroke:#4c4c4c;stroke-width:0.3;" x="419.22" xlink:href="#ma9c45e5d61" y="114.118426803"/>
    </g>
   </g>
   <g id="PathCollection_7">
    <g clip-path="url(#pd9c8dbcf11)">
     <use style="fill:#ffffff;stroke:#4c4c4c;stroke-width:0.3;" x="463.86" xlink:href="#ma9c45e5d61" y="206.779752367"/>
    </g>
   </g>
   <g id="PathCollection_8">
    <g clip-path="url(#pd9c8dbcf11)">
     <use style="fill:#ffffff;stroke:#4c4c4c;stroke-width:0.3;" x="508.5" xlink:href="#ma9c45e5d61" y="193.774654042"/>
    </g>
   </g>
   <g id="PathCollection_9">
    <g clip-path="url(#pd9c8dbcf11)">
     <use style="fill:#ffffff;stroke:#4c4c4c;stroke-width:0.3;" x="553.14" xlink:href="#ma9c45e5d61" y="147.037581937"/>
    </g>
   </g>
   <g id="PathCollection_10">
    <g clip-path="url(#pd9c8dbcf11)">
     <use style="fill:#ffffff;stroke:#4c4c4c;stroke-width:0.3;" x="597.78" xlink:href="#ma9c45e5d61" y="125.091478514"/>
    </g>
   </g>
   <g id="legend_1">
    <g id="text_11">
     <!-- periphmodel -->
     <defs>
      <path d="M 6.59375 0 
L 6.59375 71.578125 
L 15.375 71.578125 
L 15.375 45.90625 
Q 21.53125 53.03125 30.90625 53.03125 
Q 36.671875 53.03125 40.921875 50.75 
Q 45.171875 48.484375 47 44.484375 
Q 48.828125 40.484375 48.828125 32.859375 
L 48.828125 0 
L 40.046875 0 
L 40.046875 32.859375 
Q 40.046875 39.453125 37.1875 42.453125 
Q 34.328125 45.453125 29.109375 45.453125 
Q 25.203125 45.453125 21.75 43.421875 
Q 18.3125 41.40625 16.84375 37.9375 
Q 15.375 34.46875 15.375 28.375 
L 15.375 0 
z
" id="ArialMT-68"/>
      <path d="M 6.59375 -19.875 
L 6.59375 51.859375 
L 14.59375 51.859375 
L 14.59375 45.125 
Q 17.4375 49.078125 21 51.046875 
Q 24.5625 53.03125 29.640625 53.03125 
Q 36.28125 53.03125 41.359375 49.609375 
Q 46.4375 46.1875 49.015625 39.953125 
Q 51.609375 33.734375 51.609375 26.3125 
Q 51.609375 18.359375 48.75 11.984375 
Q 45.90625 5.609375 40.453125 2.21875 
Q 35.015625 -1.171875 29 -1.171875 
Q 24.609375 -1.171875 21.109375 0.6875 
Q 17.625 2.546875 15.375 5.375 
L 15.375 -19.875 
z
M 14.546875 25.640625 
Q 14.546875 15.625 18.59375 10.84375 
Q 22.65625 6.0625 28.421875 6.0625 
Q 34.28125 6.0625 38.453125 11.015625 
Q 42.625 15.96875 42.625 26.375 
Q 42.625 36.28125 38.546875 41.203125 
Q 34.46875 46.140625 28.8125 46.140625 
Q 23.1875 46.140625 18.859375 40.890625 
Q 14.546875 35.640625 14.546875 25.640625 
" id="ArialMT-70"/>
      <path d="M 40.234375 0 
L 40.234375 6.546875 
Q 35.296875 -1.171875 25.734375 -1.171875 
Q 19.53125 -1.171875 14.328125 2.25 
Q 9.125 5.671875 6.265625 11.796875 
Q 3.421875 17.921875 3.421875 25.875 
Q 3.421875 33.640625 6 39.96875 
Q 8.59375 46.296875 13.765625 49.65625 
Q 18.953125 53.03125 25.34375 53.03125 
Q 30.03125 53.03125 33.6875 51.046875 
Q 37.359375 49.078125 39.65625 45.90625 
L 39.65625 71.578125 
L 48.390625 71.578125 
L 48.390625 0 
z
M 12.453125 25.875 
Q 12.453125 15.921875 16.640625 10.984375 
Q 20.84375 6.0625 26.5625 6.0625 
Q 32.328125 6.0625 36.34375 10.765625 
Q 40.375 15.484375 40.375 25.140625 
Q 40.375 35.796875 36.265625 40.765625 
Q 32.171875 45.75 26.171875 45.75 
Q 20.3125 45.75 16.375 40.96875 
Q 12.453125 36.1875 12.453125 25.875 
" id="ArialMT-64"/>
      <path d="M 6.59375 0 
L 6.59375 51.859375 
L 14.453125 51.859375 
L 14.453125 44.578125 
Q 16.890625 48.390625 20.9375 50.703125 
Q 25 53.03125 30.171875 53.03125 
Q 35.9375 53.03125 39.625 50.640625 
Q 43.3125 48.25 44.828125 43.953125 
Q 50.984375 53.03125 60.84375 53.03125 
Q 68.5625 53.03125 72.703125 48.75 
Q 76.859375 44.484375 76.859375 35.59375 
L 76.859375 0 
L 68.109375 0 
L 68.109375 32.671875 
Q 68.109375 37.9375 67.25 40.25 
Q 66.40625 42.578125 64.15625 43.984375 
Q 61.921875 45.40625 58.890625 45.40625 
Q 53.421875 45.40625 49.796875 41.765625 
Q 46.1875 38.140625 46.1875 30.125 
L 46.1875 0 
L 37.40625 0 
L 37.40625 33.6875 
Q 37.40625 39.546875 35.25 42.46875 
Q 33.109375 45.40625 28.21875 45.40625 
Q 24.515625 45.40625 21.359375 43.453125 
Q 18.21875 41.5 16.796875 37.734375 
Q 15.375 33.984375 15.375 26.90625 
L 15.375 0 
z
" id="ArialMT-6d"/>
     </defs>
     <g style="fill:#262626;" transform="translate(145.624402344 58.8925546875)scale(0.0935 -0.0935)">
      <use xlink:href="#ArialMT-70"/>
      <use x="55.615234375" xlink:href="#ArialMT-65"/>
      <use x="111.23046875" xlink:href="#ArialMT-72"/>
      <use x="144.53125" xlink:href="#ArialMT-69"/>
      <use x="166.748046875" xlink:href="#ArialMT-70"/>
      <use x="222.36328125" xlink:href="#ArialMT-68"/>
      <use x="277.978515625" xlink:href="#ArialMT-6d"/>
      <use x="361.279296875" xlink:href="#ArialMT-6f"/>
      <use x="416.89453125" xlink:href="#ArialMT-64"/>
      <use x="472.509765625" xlink:href="#ArialMT-65"/>
      <use x="528.125" xlink:href="#ArialMT-6c"/>
     </g>
    </g>
    <g id="patch_10">
     <path d="M 99 72.90868 
L 119 72.90868 
L 119 65.90868 
L 99 65.90868 
z
" style="fill:#5875a4;stroke:#4c4c4c;stroke-linejoin:miter;stroke-width:0.875;"/>
    </g>
    <g id="text_12">
     <!-- gammatone -->
     <g style="fill:#262626;" transform="translate(127.0 72.9086796875)scale(0.1 -0.1)">
      <use xlink:href="#ArialMT-67"/>
      <use x="55.615234375" xlink:href="#ArialMT-61"/>
      <use x="111.23046875" xlink:href="#ArialMT-6d"/>
      <use x="194.53125" xlink:href="#ArialMT-6d"/>
      <use x="277.83203125" xlink:href="#ArialMT-61"/>
      <use x="333.447265625" xlink:href="#ArialMT-74"/>
      <use x="361.23046875" xlink:href="#ArialMT-6f"/>
      <use x="416.845703125" xlink:href="#ArialMT-6e"/>
      <use x="472.4609375" xlink:href="#ArialMT-65"/>
     </g>
    </g>
    <g id="patch_11">
     <path d="M 99 87.17118 
L 119 87.17118 
L 119 80.17118 
L 99 80.17118 
z
" style="fill:#5f9e6e;stroke:#4c4c4c;stroke-linejoin:miter;stroke-width:0.875;"/>
    </g>
    <g id="text_13">
     <!-- log_gammachirp -->
     <defs>
      <path d="M -1.515625 -19.875 
L -1.515625 -13.53125 
L 56.734375 -13.53125 
L 56.734375 -19.875 
z
" id="ArialMT-5f"/>
     </defs>
     <g style="fill:#262626;" transform="translate(127.0 87.1711796875)scale(0.1 -0.1)">
      <use xlink:href="#ArialMT-6c"/>
      <use x="22.216796875" xlink:href="#ArialMT-6f"/>
      <use x="77.83203125" xlink:href="#ArialMT-67"/>
      <use x="133.447265625" xlink:href="#ArialMT-5f"/>
      <use x="189.0625" xlink:href="#ArialMT-67"/>
      <use x="244.677734375" xlink:href="#ArialMT-61"/>
      <use x="300.29296875" xlink:href="#ArialMT-6d"/>
      <use x="383.59375" xlink:href="#ArialMT-6d"/>
      <use x="466.89453125" xlink:href="#ArialMT-61"/>
      <use x="522.509765625" xlink:href="#ArialMT-63"/>
      <use x="572.509765625" xlink:href="#ArialMT-68"/>
      <use x="628.125" xlink:href="#ArialMT-69"/>
      <use x="650.341796875" xlink:href="#ArialMT-72"/>
      <use x="683.642578125" xlink:href="#ArialMT-70"/>
     </g>
    </g>
    <g id="patch_12">
     <path d="M 99 101.43368 
L 119 101.43368 
L 119 94.43368 
L 99 94.43368 
z
" style="fill:#b55d60;stroke:#4c4c4c;stroke-linejoin:miter;stroke-width:0.875;"/>
    </g>
    <g id="text_14">
     <!-- dual_resonance -->
     <g style="fill:#262626;" transform="translate(127.0 101.433679687)scale(0.1 -0.1)">
      <use xlink:href="#ArialMT-64"/>
      <use x="55.615234375" xlink:href="#ArialMT-75"/>
      <use x="111.23046875" xlink:href="#ArialMT-61"/>
      <use x="166.845703125" xlink:href="#ArialMT-6c"/>
      <use x="189.0625" xlink:href="#ArialMT-5f"/>
      <use x="244.677734375" xlink:href="#ArialMT-72"/>
      <use x="277.978515625" xlink:href="#ArialMT-65"/>
      <use x="333.59375" xlink:href="#ArialMT-73"/>
      <use x="383.59375" xlink:href="#ArialMT-6f"/>
      <use x="439.208984375" xlink:href="#ArialMT-6e"/>
      <use x="494.82421875" xlink:href="#ArialMT-61"/>
      <use x="550.439453125" xlink:href="#ArialMT-6e"/>
      <use x="606.0546875" xlink:href="#ArialMT-63"/>
      <use x="656.0546875" xlink:href="#ArialMT-65"/>
     </g>
    </g>
    <g id="patch_13">
     <path d="M 99 115.578992 
L 119 115.578992 
L 119 108.578992 
L 99 108.578992 
z
" style="fill:#857aaa;stroke:#4c4c4c;stroke-linejoin:miter;stroke-width:0.875;"/>
    </g>
    <g id="text_15">
     <!-- compressive_gammachirp -->
     <g style="fill:#262626;" transform="translate(127.0 115.578992187)scale(0.1 -0.1)">
      <use xlink:href="#ArialMT-63"/>
      <use x="50.0" xlink:href="#ArialMT-6f"/>
      <use x="105.615234375" xlink:href="#ArialMT-6d"/>
      <use x="188.916015625" xlink:href="#ArialMT-70"/>
      <use x="244.53125" xlink:href="#ArialMT-72"/>
      <use x="277.83203125" xlink:href="#ArialMT-65"/>
      <use x="333.447265625" xlink:href="#ArialMT-73"/>
      <use x="383.447265625" xlink:href="#ArialMT-73"/>
      <use x="433.447265625" xlink:href="#ArialMT-69"/>
      <use x="455.6640625" xlink:href="#ArialMT-76"/>
      <use x="505.6640625" xlink:href="#ArialMT-65"/>
      <use x="561.279296875" xlink:href="#ArialMT-5f"/>
      <use x="616.89453125" xlink:href="#ArialMT-67"/>
      <use x="672.509765625" xlink:href="#ArialMT-61"/>
      <use x="728.125" xlink:href="#ArialMT-6d"/>
      <use x="811.42578125" xlink:href="#ArialMT-6d"/>
      <use x="894.7265625" xlink:href="#ArialMT-61"/>
      <use x="950.341796875" xlink:href="#ArialMT-63"/>
      <use x="1000.34179688" xlink:href="#ArialMT-68"/>
      <use x="1055.95703125" xlink:href="#ArialMT-69"/>
      <use x="1078.17382812" xlink:href="#ArialMT-72"/>
      <use x="1111.47460938" xlink:href="#ArialMT-70"/>
     </g>
    </g>
    <g id="patch_14">
     <path d="M 99 129.841492 
L 119 129.841492 
L 119 122.841492 
L 99 122.841492 
z
" style="fill:#c1b37f;stroke:#4c4c4c;stroke-linejoin:miter;stroke-width:0.875;"/>
    </g>
    <g id="text_16">
     <!-- tan_carney -->
     <g style="fill:#262626;" transform="translate(127.0 129.841492187)scale(0.1 -0.1)">
      <use xlink:href="#ArialMT-74"/>
      <use x="27.783203125" xlink:href="#ArialMT-61"/>
      <use x="83.3984375" xlink:href="#ArialMT-6e"/>
      <use x="139.013671875" xlink:href="#ArialMT-5f"/>
      <use x="194.62890625" xlink:href="#ArialMT-63"/>
      <use x="244.62890625" xlink:href="#ArialMT-61"/>
      <use x="300.244140625" xlink:href="#ArialMT-72"/>
      <use x="333.544921875" xlink:href="#ArialMT-6e"/>
      <use x="389.16015625" xlink:href="#ArialMT-65"/>
      <use x="444.775390625" xlink:href="#ArialMT-79"/>
     </g>
    </g>
   </g>
  </g>
 </g>
 <defs>
  <clipPath id="pd9c8dbcf11">
   <rect height="334.8" width="558.0" x="90.0" y="43.2"/>
  </clipPath>
 </defs>
</svg>
