<?xml version="1.0" encoding="utf-8" standalone="no"?>
<!DOCTYPE svg PUBLIC "-//W3C//DTD SVG 1.1//EN"
  "http://www.w3.org/Graphics/SVG/1.1/DTD/svg11.dtd">
<!-- Created with matplotlib (http://matplotlib.org/) -->
<svg height="252pt" version="1.1" viewBox="0 0 360 252" width="360pt" xmlns="http://www.w3.org/2000/svg" xmlns:xlink="http://www.w3.org/1999/xlink">
 <defs>
  <style type="text/css">
*{stroke-linecap:butt;stroke-linejoin:round;stroke-miterlimit:100000;}
  </style>
 </defs>
 <g id="figure_1">
  <g id="patch_1">
   <path d="M 0 252 
L 360 252 
L 360 0 
L 0 0 
z
" style="fill:#ffffff;"/>
  </g>
  <g id="axes_1">
   <g id="patch_2">
    <path d="M 60.3 219.2 
L 349.2 219.2 
L 349.2 15.3 
L 60.3 15.3 
z
" style="fill:#ffffff;"/>
   </g>
   <g id="matplotlib.axis_1">
    <g id="xtick_1">
     <g id="line2d_1">
      <defs>
       <path d="M 0 0 
L 0 6 
" id="mf571b5ed94" style="stroke:#262626;"/>
      </defs>
      <g>
       <use style="fill:#262626;stroke:#262626;" x="96.4125" xlink:href="#mf571b5ed94" y="219.2"/>
      </g>
     </g>
     <g id="text_1">
      <!-- MFCC -->
      <defs>
       <path d="M 58.796875 25.09375 
L 68.265625 22.703125 
Q 65.28125 11.03125 57.546875 4.90625 
Q 49.8125 -1.21875 38.625 -1.21875 
Q 27.046875 -1.21875 19.796875 3.484375 
Q 12.546875 8.203125 8.765625 17.140625 
Q 4.984375 26.078125 4.984375 36.328125 
Q 4.984375 47.515625 9.25 55.828125 
Q 13.53125 64.15625 21.40625 68.46875 
Q 29.296875 72.796875 38.765625 72.796875 
Q 49.515625 72.796875 56.828125 67.328125 
Q 64.15625 61.859375 67.046875 51.953125 
L 57.71875 49.75 
Q 55.21875 57.5625 50.484375 61.125 
Q 45.75 64.703125 38.578125 64.703125 
Q 30.328125 64.703125 24.78125 60.734375 
Q 19.234375 56.78125 16.984375 50.109375 
Q 14.75 43.453125 14.75 36.375 
Q 14.75 27.25 17.40625 20.4375 
Q 20.0625 13.625 25.671875 10.25 
Q 31.296875 6.890625 37.84375 6.890625 
Q 45.796875 6.890625 51.3125 11.46875 
Q 56.84375 16.0625 58.796875 25.09375 
" id="ArialMT-43"/>
       <path d="M 7.421875 0 
L 7.421875 71.578125 
L 21.6875 71.578125 
L 38.625 20.90625 
Q 40.96875 13.8125 42.046875 10.296875 
Q 43.265625 14.203125 45.84375 21.78125 
L 62.984375 71.578125 
L 75.734375 71.578125 
L 75.734375 0 
L 66.609375 0 
L 66.609375 59.90625 
L 45.796875 0 
L 37.25 0 
L 16.546875 60.9375 
L 16.546875 0 
z
" id="ArialMT-4d"/>
       <path d="M 8.203125 0 
L 8.203125 71.578125 
L 56.5 71.578125 
L 56.5 63.140625 
L 17.671875 63.140625 
L 17.671875 40.96875 
L 51.265625 40.96875 
L 51.265625 32.515625 
L 17.671875 32.515625 
L 17.671875 0 
z
" id="ArialMT-46"/>
      </defs>
      <g style="fill:#262626;" transform="translate(81.971875 239.3578125)scale(0.1 -0.1)">
       <use xlink:href="#ArialMT-4d"/>
       <use x="83.30078125" xlink:href="#ArialMT-46"/>
       <use x="144.384765625" xlink:href="#ArialMT-43"/>
       <use x="216.6015625" xlink:href="#ArialMT-43"/>
      </g>
     </g>
    </g>
    <g id="xtick_2">
     <g id="line2d_2">
      <g>
       <use style="fill:#262626;stroke:#262626;" x="168.6375" xlink:href="#mf571b5ed94" y="219.2"/>
      </g>
     </g>
     <g id="text_2">
      <!-- NCC -->
      <defs>
       <path d="M 7.625 0 
L 7.625 71.578125 
L 17.328125 71.578125 
L 54.9375 15.375 
L 54.9375 71.578125 
L 64.015625 71.578125 
L 64.015625 0 
L 54.296875 0 
L 16.703125 56.25 
L 16.703125 0 
z
" id="ArialMT-4e"/>
      </defs>
      <g style="fill:#262626;" transform="translate(157.8046875 239.3578125)scale(0.1 -0.1)">
       <use xlink:href="#ArialMT-4e"/>
       <use x="72.216796875" xlink:href="#ArialMT-43"/>
       <use x="144.43359375" xlink:href="#ArialMT-43"/>
      </g>
     </g>
    </g>
    <g id="xtick_3">
     <g id="line2d_3">
      <g>
       <use style="fill:#262626;stroke:#262626;" x="240.8625" xlink:href="#mf571b5ed94" y="219.2"/>
      </g>
     </g>
     <g id="text_3">
      <!-- SVM for MFCC -->
      <defs>
       <path d="M 8.6875 0 
L 8.6875 45.015625 
L 0.921875 45.015625 
L 0.921875 51.859375 
L 8.6875 51.859375 
L 8.6875 57.375 
Q 8.6875 62.59375 9.625 65.140625 
Q 10.890625 68.5625 14.078125 70.671875 
Q 17.28125 72.796875 23.046875 72.796875 
Q 26.765625 72.796875 31.25 71.921875 
L 29.9375 64.265625 
Q 27.203125 64.75 24.75 64.75 
Q 20.75 64.75 19.09375 63.03125 
Q 17.4375 61.328125 17.4375 56.640625 
L 17.4375 51.859375 
L 27.546875 51.859375 
L 27.546875 45.015625 
L 17.4375 45.015625 
L 17.4375 0 
z
" id="ArialMT-66"/>
       <path d="M 4.5 23 
L 13.421875 23.78125 
Q 14.0625 18.40625 16.375 14.96875 
Q 18.703125 11.53125 23.578125 9.40625 
Q 28.46875 7.28125 34.578125 7.28125 
Q 39.984375 7.28125 44.140625 8.890625 
Q 48.296875 10.5 50.3125 13.296875 
Q 52.34375 16.109375 52.34375 19.4375 
Q 52.34375 22.796875 50.390625 25.3125 
Q 48.4375 27.828125 43.953125 29.546875 
Q 41.0625 30.671875 31.203125 33.03125 
Q 21.34375 35.40625 17.390625 37.5 
Q 12.25 40.1875 9.734375 44.15625 
Q 7.234375 48.140625 7.234375 53.078125 
Q 7.234375 58.5 10.296875 63.203125 
Q 13.375 67.921875 19.28125 70.359375 
Q 25.203125 72.796875 32.421875 72.796875 
Q 40.375 72.796875 46.453125 70.234375 
Q 52.546875 67.671875 55.8125 62.6875 
Q 59.078125 57.71875 59.328125 51.421875 
L 50.25 50.734375 
Q 49.515625 57.515625 45.28125 60.984375 
Q 41.0625 64.453125 32.8125 64.453125 
Q 24.21875 64.453125 20.28125 61.296875 
Q 16.359375 58.15625 16.359375 53.71875 
Q 16.359375 49.859375 19.140625 47.359375 
Q 21.875 44.875 33.421875 42.265625 
Q 44.96875 39.65625 49.265625 37.703125 
Q 55.515625 34.8125 58.484375 30.390625 
Q 61.46875 25.984375 61.46875 20.21875 
Q 61.46875 14.5 58.203125 9.4375 
Q 54.9375 4.390625 48.796875 1.578125 
Q 42.671875 -1.21875 35.015625 -1.21875 
Q 25.296875 -1.21875 18.71875 1.609375 
Q 12.15625 4.4375 8.421875 10.125 
Q 4.6875 15.828125 4.5 23 
" id="ArialMT-53"/>
       <path d="M 28.171875 0 
L 0.4375 71.578125 
L 10.6875 71.578125 
L 29.296875 19.578125 
Q 31.546875 13.328125 33.0625 7.859375 
Q 34.71875 13.71875 36.921875 19.578125 
L 56.25 71.578125 
L 65.921875 71.578125 
L 37.890625 0 
z
" id="ArialMT-56"/>
       <path d="M 6.5 0 
L 6.5 51.859375 
L 14.40625 51.859375 
L 14.40625 44 
Q 17.4375 49.515625 20 51.265625 
Q 22.5625 53.03125 25.640625 53.03125 
Q 30.078125 53.03125 34.671875 50.203125 
L 31.640625 42.046875 
Q 28.421875 43.953125 25.203125 43.953125 
Q 22.3125 43.953125 20.015625 42.21875 
Q 17.71875 40.484375 16.75 37.40625 
Q 15.28125 32.71875 15.28125 27.15625 
L 15.28125 0 
z
" id="ArialMT-72"/>
       <path d="M 3.328125 25.921875 
Q 3.328125 40.328125 11.328125 47.265625 
Q 18.015625 53.03125 27.640625 53.03125 
Q 38.328125 53.03125 45.109375 46.015625 
Q 51.90625 39.015625 51.90625 26.65625 
Q 51.90625 16.65625 48.90625 10.90625 
Q 45.90625 5.171875 40.15625 2 
Q 34.421875 -1.171875 27.640625 -1.171875 
Q 16.75 -1.171875 10.03125 5.8125 
Q 3.328125 12.796875 3.328125 25.921875 
M 12.359375 25.921875 
Q 12.359375 15.96875 16.703125 11.015625 
Q 21.046875 6.0625 27.640625 6.0625 
Q 34.1875 6.0625 38.53125 11.03125 
Q 42.875 16.015625 42.875 26.21875 
Q 42.875 35.84375 38.5 40.796875 
Q 34.125 45.75 27.640625 45.75 
Q 21.046875 45.75 16.703125 40.8125 
Q 12.359375 35.890625 12.359375 25.921875 
" id="ArialMT-6f"/>
       <path id="ArialMT-20"/>
      </defs>
      <g style="fill:#262626;" transform="translate(206.97421875 239.3578125)scale(0.1 -0.1)">
       <use xlink:href="#ArialMT-53"/>
       <use x="66.69921875" xlink:href="#ArialMT-56"/>
       <use x="133.3984375" xlink:href="#ArialMT-4d"/>
       <use x="216.69921875" xlink:href="#ArialMT-20"/>
       <use x="244.482421875" xlink:href="#ArialMT-66"/>
       <use x="272.265625" xlink:href="#ArialMT-6f"/>
       <use x="327.880859375" xlink:href="#ArialMT-72"/>
       <use x="361.181640625" xlink:href="#ArialMT-20"/>
       <use x="388.96484375" xlink:href="#ArialMT-4d"/>
       <use x="472.265625" xlink:href="#ArialMT-46"/>
       <use x="533.349609375" xlink:href="#ArialMT-43"/>
       <use x="605.56640625" xlink:href="#ArialMT-43"/>
      </g>
     </g>
    </g>
    <g id="xtick_4">
     <g id="line2d_4">
      <g>
       <use style="fill:#262626;stroke:#262626;" x="313.0875" xlink:href="#mf571b5ed94" y="219.2"/>
      </g>
     </g>
     <g id="text_4">
      <!-- SVM for NCC -->
      <g style="fill:#262626;" transform="translate(282.80703125 239.3578125)scale(0.1 -0.1)">
       <use xlink:href="#ArialMT-53"/>
       <use x="66.69921875" xlink:href="#ArialMT-56"/>
       <use x="133.3984375" xlink:href="#ArialMT-4d"/>
       <use x="216.69921875" xlink:href="#ArialMT-20"/>
       <use x="244.482421875" xlink:href="#ArialMT-66"/>
       <use x="272.265625" xlink:href="#ArialMT-6f"/>
       <use x="327.880859375" xlink:href="#ArialMT-72"/>
       <use x="361.181640625" xlink:href="#ArialMT-20"/>
       <use x="388.96484375" xlink:href="#ArialMT-4e"/>
       <use x="461.181640625" xlink:href="#ArialMT-43"/>
       <use x="533.3984375" xlink:href="#ArialMT-43"/>
      </g>
     </g>
    </g>
   </g>
   <g id="matplotlib.axis_2">
    <g id="ytick_1">
     <g id="line2d_5">
      <defs>
       <path d="M 0 0 
L -6 0 
" id="m0246bb9f78" style="stroke:#262626;"/>
      </defs>
      <g>
       <use style="fill:#262626;stroke:#262626;" x="60.3" xlink:href="#m0246bb9f78" y="219.2"/>
      </g>
     </g>
     <g id="text_5">
      <!-- 0 -->
      <defs>
       <path d="M 4.15625 35.296875 
Q 4.15625 48 6.765625 55.734375 
Q 9.375 63.484375 14.515625 67.671875 
Q 19.671875 71.875 27.484375 71.875 
Q 33.25 71.875 37.59375 69.546875 
Q 41.9375 67.234375 44.765625 62.859375 
Q 47.609375 58.5 49.21875 52.21875 
Q 50.828125 45.953125 50.828125 35.296875 
Q 50.828125 22.703125 48.234375 14.96875 
Q 45.65625 7.234375 40.5 3 
Q 35.359375 -1.21875 27.484375 -1.21875 
Q 17.140625 -1.21875 11.234375 6.203125 
Q 4.15625 15.140625 4.15625 35.296875 
M 13.1875 35.296875 
Q 13.1875 17.671875 17.3125 11.828125 
Q 21.4375 6 27.484375 6 
Q 33.546875 6 37.671875 11.859375 
Q 41.796875 17.71875 41.796875 35.296875 
Q 41.796875 52.984375 37.671875 58.78125 
Q 33.546875 64.59375 27.390625 64.59375 
Q 21.34375 64.59375 17.71875 59.46875 
Q 13.1875 52.9375 13.1875 35.296875 
" id="ArialMT-30"/>
      </defs>
      <g style="fill:#262626;" transform="translate(41.7390625 221.78515625)scale(0.1 -0.1)">
       <use xlink:href="#ArialMT-30"/>
      </g>
     </g>
    </g>
    <g id="ytick_2">
     <g id="line2d_6">
      <g>
       <use style="fill:#262626;stroke:#262626;" x="60.3" xlink:href="#m0246bb9f78" y="178.42"/>
      </g>
     </g>
     <g id="text_6">
      <!-- 200 -->
      <defs>
       <path d="M 50.34375 8.453125 
L 50.34375 0 
L 3.03125 0 
Q 2.9375 3.171875 4.046875 6.109375 
Q 5.859375 10.9375 9.828125 15.625 
Q 13.8125 20.3125 21.34375 26.46875 
Q 33.015625 36.03125 37.109375 41.625 
Q 41.21875 47.21875 41.21875 52.203125 
Q 41.21875 57.421875 37.46875 61 
Q 33.734375 64.59375 27.734375 64.59375 
Q 21.390625 64.59375 17.578125 60.78125 
Q 13.765625 56.984375 13.71875 50.25 
L 4.6875 51.171875 
Q 5.609375 61.28125 11.65625 66.578125 
Q 17.71875 71.875 27.9375 71.875 
Q 38.234375 71.875 44.234375 66.15625 
Q 50.25 60.453125 50.25 52 
Q 50.25 47.703125 48.484375 43.546875 
Q 46.734375 39.40625 42.65625 34.8125 
Q 38.578125 30.21875 29.109375 22.21875 
Q 21.1875 15.578125 18.9375 13.203125 
Q 16.703125 10.84375 15.234375 8.453125 
z
" id="ArialMT-32"/>
      </defs>
      <g style="fill:#262626;" transform="translate(30.6171875 181.00515625)scale(0.1 -0.1)">
       <use xlink:href="#ArialMT-32"/>
       <use x="55.615234375" xlink:href="#ArialMT-30"/>
       <use x="111.23046875" xlink:href="#ArialMT-30"/>
      </g>
     </g>
    </g>
    <g id="ytick_3">
     <g id="line2d_7">
      <g>
       <use style="fill:#262626;stroke:#262626;" x="60.3" xlink:href="#m0246bb9f78" y="137.64"/>
      </g>
     </g>
     <g id="text_7">
      <!-- 400 -->
      <defs>
       <path d="M 32.328125 0 
L 32.328125 17.140625 
L 1.265625 17.140625 
L 1.265625 25.203125 
L 33.9375 71.578125 
L 41.109375 71.578125 
L 41.109375 25.203125 
L 50.78125 25.203125 
L 50.78125 17.140625 
L 41.109375 17.140625 
L 41.109375 0 
z
M 32.328125 25.203125 
L 32.328125 57.46875 
L 9.90625 25.203125 
z
" id="ArialMT-34"/>
      </defs>
      <g style="fill:#262626;" transform="translate(30.6171875 140.22515625)scale(0.1 -0.1)">
       <use xlink:href="#ArialMT-34"/>
       <use x="55.615234375" xlink:href="#ArialMT-30"/>
       <use x="111.23046875" xlink:href="#ArialMT-30"/>
      </g>
     </g>
    </g>
    <g id="ytick_4">
     <g id="line2d_8">
      <g>
       <use style="fill:#262626;stroke:#262626;" x="60.3" xlink:href="#m0246bb9f78" y="96.86"/>
      </g>
     </g>
     <g id="text_8">
      <!-- 600 -->
      <defs>
       <path d="M 49.75 54.046875 
L 41.015625 53.375 
Q 39.84375 58.546875 37.703125 60.890625 
Q 34.125 64.65625 28.90625 64.65625 
Q 24.703125 64.65625 21.53125 62.3125 
Q 17.390625 59.28125 14.984375 53.46875 
Q 12.59375 47.65625 12.5 36.921875 
Q 15.671875 41.75 20.265625 44.09375 
Q 24.859375 46.4375 29.890625 46.4375 
Q 38.671875 46.4375 44.84375 39.96875 
Q 51.03125 33.5 51.03125 23.25 
Q 51.03125 16.5 48.125 10.71875 
Q 45.21875 4.9375 40.140625 1.859375 
Q 35.0625 -1.21875 28.609375 -1.21875 
Q 17.625 -1.21875 10.6875 6.859375 
Q 3.765625 14.9375 3.765625 33.5 
Q 3.765625 54.25 11.421875 63.671875 
Q 18.109375 71.875 29.4375 71.875 
Q 37.890625 71.875 43.28125 67.140625 
Q 48.6875 62.40625 49.75 54.046875 
M 13.875 23.1875 
Q 13.875 18.65625 15.796875 14.5 
Q 17.71875 10.359375 21.1875 8.171875 
Q 24.65625 6 28.46875 6 
Q 34.03125 6 38.03125 10.484375 
Q 42.046875 14.984375 42.046875 22.703125 
Q 42.046875 30.125 38.078125 34.390625 
Q 34.125 38.671875 28.125 38.671875 
Q 22.171875 38.671875 18.015625 34.390625 
Q 13.875 30.125 13.875 23.1875 
" id="ArialMT-36"/>
      </defs>
      <g style="fill:#262626;" transform="translate(30.6171875 99.44515625)scale(0.1 -0.1)">
       <use xlink:href="#ArialMT-36"/>
       <use x="55.615234375" xlink:href="#ArialMT-30"/>
       <use x="111.23046875" xlink:href="#ArialMT-30"/>
      </g>
     </g>
    </g>
    <g id="ytick_5">
     <g id="line2d_9">
      <g>
       <use style="fill:#262626;stroke:#262626;" x="60.3" xlink:href="#m0246bb9f78" y="56.08"/>
      </g>
     </g>
     <g id="text_9">
      <!-- 800 -->
      <defs>
       <path d="M 17.671875 38.8125 
Q 12.203125 40.828125 9.5625 44.53125 
Q 6.9375 48.25 6.9375 53.421875 
Q 6.9375 61.234375 12.546875 66.546875 
Q 18.171875 71.875 27.484375 71.875 
Q 36.859375 71.875 42.578125 66.421875 
Q 48.296875 60.984375 48.296875 53.171875 
Q 48.296875 48.1875 45.671875 44.5 
Q 43.0625 40.828125 37.75 38.8125 
Q 44.34375 36.671875 47.78125 31.875 
Q 51.21875 27.09375 51.21875 20.453125 
Q 51.21875 11.28125 44.71875 5.03125 
Q 38.234375 -1.21875 27.640625 -1.21875 
Q 17.046875 -1.21875 10.546875 5.046875 
Q 4.046875 11.328125 4.046875 20.703125 
Q 4.046875 27.6875 7.59375 32.390625 
Q 11.140625 37.109375 17.671875 38.8125 
M 15.921875 53.71875 
Q 15.921875 48.640625 19.1875 45.40625 
Q 22.46875 42.1875 27.6875 42.1875 
Q 32.765625 42.1875 36.015625 45.375 
Q 39.265625 48.578125 39.265625 53.21875 
Q 39.265625 58.0625 35.90625 61.359375 
Q 32.5625 64.65625 27.59375 64.65625 
Q 22.5625 64.65625 19.234375 61.421875 
Q 15.921875 58.203125 15.921875 53.71875 
M 13.09375 20.65625 
Q 13.09375 16.890625 14.875 13.375 
Q 16.65625 9.859375 20.171875 7.921875 
Q 23.6875 6 27.734375 6 
Q 34.03125 6 38.125 10.046875 
Q 42.234375 14.109375 42.234375 20.359375 
Q 42.234375 26.703125 38.015625 30.859375 
Q 33.796875 35.015625 27.4375 35.015625 
Q 21.234375 35.015625 17.15625 30.90625 
Q 13.09375 26.8125 13.09375 20.65625 
" id="ArialMT-38"/>
      </defs>
      <g style="fill:#262626;" transform="translate(30.6171875 58.66515625)scale(0.1 -0.1)">
       <use xlink:href="#ArialMT-38"/>
       <use x="55.615234375" xlink:href="#ArialMT-30"/>
       <use x="111.23046875" xlink:href="#ArialMT-30"/>
      </g>
     </g>
    </g>
    <g id="ytick_6">
     <g id="line2d_10">
      <g>
       <use style="fill:#262626;stroke:#262626;" x="60.3" xlink:href="#m0246bb9f78" y="15.3"/>
      </g>
     </g>
     <g id="text_10">
      <!-- 1000 -->
      <defs>
       <path d="M 37.25 0 
L 28.46875 0 
L 28.46875 56 
Q 25.296875 52.984375 20.140625 49.953125 
Q 14.984375 46.921875 10.890625 45.40625 
L 10.890625 53.90625 
Q 18.265625 57.375 23.78125 62.296875 
Q 29.296875 67.234375 31.59375 71.875 
L 37.25 71.875 
z
" id="ArialMT-31"/>
      </defs>
      <g style="fill:#262626;" transform="translate(25.05625 17.88515625)scale(0.1 -0.1)">
       <use xlink:href="#ArialMT-31"/>
       <use x="55.615234375" xlink:href="#ArialMT-30"/>
       <use x="111.23046875" xlink:href="#ArialMT-30"/>
       <use x="166.845703125" xlink:href="#ArialMT-30"/>
      </g>
     </g>
    </g>
    <g id="text_11">
     <!-- Time (s) -->
     <defs>
      <path d="M 42.09375 16.703125 
L 51.171875 15.578125 
Q 49.03125 7.625 43.21875 3.21875 
Q 37.40625 -1.171875 28.375 -1.171875 
Q 17 -1.171875 10.328125 5.828125 
Q 3.65625 12.84375 3.65625 25.484375 
Q 3.65625 38.578125 10.390625 45.796875 
Q 17.140625 53.03125 27.875 53.03125 
Q 38.28125 53.03125 44.875 45.953125 
Q 51.46875 38.875 51.46875 26.03125 
Q 51.46875 25.25 51.421875 23.6875 
L 12.75 23.6875 
Q 13.234375 15.140625 17.578125 10.59375 
Q 21.921875 6.0625 28.421875 6.0625 
Q 33.25 6.0625 36.671875 8.59375 
Q 40.09375 11.140625 42.09375 16.703125 
M 13.234375 30.90625 
L 42.1875 30.90625 
Q 41.609375 37.453125 38.875 40.71875 
Q 34.671875 45.796875 27.984375 45.796875 
Q 21.921875 45.796875 17.796875 41.75 
Q 13.671875 37.703125 13.234375 30.90625 
" id="ArialMT-65"/>
      <path d="M 6.640625 61.46875 
L 6.640625 71.578125 
L 15.4375 71.578125 
L 15.4375 61.46875 
z
M 6.640625 0 
L 6.640625 51.859375 
L 15.4375 51.859375 
L 15.4375 0 
z
" id="ArialMT-69"/>
      <path d="M 6.59375 0 
L 6.59375 51.859375 
L 14.453125 51.859375 
L 14.453125 44.578125 
Q 16.890625 48.390625 20.9375 50.703125 
Q 25 53.03125 30.171875 53.03125 
Q 35.9375 53.03125 39.625 50.640625 
Q 43.3125 48.25 44.828125 43.953125 
Q 50.984375 53.03125 60.84375 53.03125 
Q 68.5625 53.03125 72.703125 48.75 
Q 76.859375 44.484375 76.859375 35.59375 
L 76.859375 0 
L 68.109375 0 
L 68.109375 32.671875 
Q 68.109375 37.9375 67.25 40.25 
Q 66.40625 42.578125 64.15625 43.984375 
Q 61.921875 45.40625 58.890625 45.40625 
Q 53.421875 45.40625 49.796875 41.765625 
Q 46.1875 38.140625 46.1875 30.125 
L 46.1875 0 
L 37.40625 0 
L 37.40625 33.6875 
Q 37.40625 39.546875 35.25 42.46875 
Q 33.109375 45.40625 28.21875 45.40625 
Q 24.515625 45.40625 21.359375 43.453125 
Q 18.21875 41.5 16.796875 37.734375 
Q 15.375 33.984375 15.375 26.90625 
L 15.375 0 
z
" id="ArialMT-6d"/>
      <path d="M 25.921875 0 
L 25.921875 63.140625 
L 2.34375 63.140625 
L 2.34375 71.578125 
L 59.078125 71.578125 
L 59.078125 63.140625 
L 35.40625 63.140625 
L 35.40625 0 
z
" id="ArialMT-54"/>
      <path d="M 3.078125 15.484375 
L 11.765625 16.84375 
Q 12.5 11.625 15.84375 8.84375 
Q 19.1875 6.0625 25.203125 6.0625 
Q 31.25 6.0625 34.171875 8.515625 
Q 37.109375 10.984375 37.109375 14.3125 
Q 37.109375 17.28125 34.515625 19 
Q 32.71875 20.171875 25.53125 21.96875 
Q 15.875 24.421875 12.140625 26.203125 
Q 8.40625 27.984375 6.46875 31.125 
Q 4.546875 34.28125 4.546875 38.09375 
Q 4.546875 41.546875 6.125 44.5 
Q 7.71875 47.46875 10.453125 49.421875 
Q 12.5 50.921875 16.03125 51.96875 
Q 19.578125 53.03125 23.640625 53.03125 
Q 29.734375 53.03125 34.34375 51.265625 
Q 38.96875 49.515625 41.15625 46.5 
Q 43.359375 43.5 44.1875 38.484375 
L 35.59375 37.3125 
Q 35.015625 41.3125 32.203125 43.546875 
Q 29.390625 45.796875 24.265625 45.796875 
Q 18.21875 45.796875 15.625 43.796875 
Q 13.03125 41.796875 13.03125 39.109375 
Q 13.03125 37.40625 14.109375 36.03125 
Q 15.1875 34.625 17.484375 33.6875 
Q 18.796875 33.203125 25.25 31.453125 
Q 34.578125 28.953125 38.25 27.359375 
Q 41.9375 25.78125 44.03125 22.75 
Q 46.140625 19.734375 46.140625 15.234375 
Q 46.140625 10.84375 43.578125 6.953125 
Q 41.015625 3.078125 36.171875 0.953125 
Q 31.34375 -1.171875 25.25 -1.171875 
Q 15.140625 -1.171875 9.84375 3.03125 
Q 4.546875 7.234375 3.078125 15.484375 
" id="ArialMT-73"/>
      <path d="M 12.359375 -21.046875 
L 6.0625 -21.046875 
Q 20.65625 2.390625 20.65625 25.875 
Q 20.65625 35.0625 18.5625 44.09375 
Q 16.890625 51.421875 13.921875 58.15625 
Q 12.015625 62.546875 6.0625 72.796875 
L 12.359375 72.796875 
Q 21.53125 60.546875 25.921875 48.1875 
Q 29.6875 37.546875 29.6875 25.921875 
Q 29.6875 12.75 24.625 0.4375 
Q 19.578125 -11.859375 12.359375 -21.046875 
" id="ArialMT-29"/>
      <path d="M 23.390625 -21.046875 
Q 16.109375 -11.859375 11.078125 0.4375 
Q 6.0625 12.75 6.0625 25.921875 
Q 6.0625 37.546875 9.8125 48.1875 
Q 14.203125 60.546875 23.390625 72.796875 
L 29.6875 72.796875 
Q 23.78125 62.640625 21.875 58.296875 
Q 18.890625 51.5625 17.1875 44.234375 
Q 15.09375 35.109375 15.09375 25.875 
Q 15.09375 2.390625 29.6875 -21.046875 
z
" id="ArialMT-28"/>
     </defs>
     <g style="fill:#262626;" transform="translate(17.74109375 137.40921875)rotate(-90.0)scale(0.11 -0.11)">
      <use xlink:href="#ArialMT-54"/>
      <use x="61.037109375" xlink:href="#ArialMT-69"/>
      <use x="83.25390625" xlink:href="#ArialMT-6d"/>
      <use x="166.5546875" xlink:href="#ArialMT-65"/>
      <use x="222.169921875" xlink:href="#ArialMT-20"/>
      <use x="249.953125" xlink:href="#ArialMT-28"/>
      <use x="283.25390625" xlink:href="#ArialMT-73"/>
      <use x="333.25390625" xlink:href="#ArialMT-29"/>
     </g>
    </g>
   </g>
   <g id="patch_3">
    <path clip-path="url(#pb2c4096fc5)" d="M 67.5225 219.2 
L 77.1525 219.2 
L 77.1525 218.671354 
L 67.5225 218.671354 
z
" style="fill:#5875a4;stroke:#000000;stroke-linejoin:miter;stroke-width:0.3;"/>
   </g>
   <g id="patch_4">
    <path clip-path="url(#pb2c4096fc5)" d="M 139.7475 219.2 
L 149.3775 219.2 
L 149.3775 173.916134 
L 139.7475 173.916134 
z
" style="fill:#5875a4;stroke:#000000;stroke-linejoin:miter;stroke-width:0.3;"/>
   </g>
   <g id="patch_5">
    <path clip-path="url(#pb2c4096fc5)" d="M 211.9725 219.2 
L 221.6025 219.2 
L 221.6025 213.053308 
L 211.9725 213.053308 
z
" style="fill:#5875a4;stroke:#000000;stroke-linejoin:miter;stroke-width:0.3;"/>
   </g>
   <g id="patch_6">
    <path clip-path="url(#pb2c4096fc5)" d="M 284.1975 219.2 
L 293.8275 219.2 
L 293.8275 216.11299 
L 284.1975 216.11299 
z
" style="fill:#5875a4;stroke:#000000;stroke-linejoin:miter;stroke-width:0.3;"/>
   </g>
   <g id="patch_7">
    <path clip-path="url(#pb2c4096fc5)" d="M 77.1525 219.2 
L 86.7825 219.2 
L 86.7825 218.670563 
L 77.1525 218.670563 
z
" style="fill:#5f9e6e;stroke:#000000;stroke-linejoin:miter;stroke-width:0.3;"/>
   </g>
   <g id="patch_8">
    <path clip-path="url(#pb2c4096fc5)" d="M 149.3775 219.2 
L 159.0075 219.2 
L 159.0075 173.16945 
L 149.3775 173.16945 
z
" style="fill:#5f9e6e;stroke:#000000;stroke-linejoin:miter;stroke-width:0.3;"/>
   </g>
   <g id="patch_9">
    <path clip-path="url(#pb2c4096fc5)" d="M 221.6025 219.2 
L 231.2325 219.2 
L 231.2325 213.076326 
L 221.6025 213.076326 
z
" style="fill:#5f9e6e;stroke:#000000;stroke-linejoin:miter;stroke-width:0.3;"/>
   </g>
   <g id="patch_10">
    <path clip-path="url(#pb2c4096fc5)" d="M 293.8275 219.2 
L 303.4575 219.2 
L 303.4575 215.008094 
L 293.8275 215.008094 
z
" style="fill:#5f9e6e;stroke:#000000;stroke-linejoin:miter;stroke-width:0.3;"/>
   </g>
   <g id="patch_11">
    <path clip-path="url(#pb2c4096fc5)" d="M 86.7825 219.2 
L 96.4125 219.2 
L 96.4125 218.67587 
L 86.7825 218.67587 
z
" style="fill:#b55d60;stroke:#000000;stroke-linejoin:miter;stroke-width:0.3;"/>
   </g>
   <g id="patch_12">
    <path clip-path="url(#pb2c4096fc5)" d="M 159.0075 219.2 
L 168.6375 219.2 
L 168.6375 172.848431 
L 159.0075 172.848431 
z
" style="fill:#b55d60;stroke:#000000;stroke-linejoin:miter;stroke-width:0.3;"/>
   </g>
   <g id="patch_13">
    <path clip-path="url(#pb2c4096fc5)" d="M 231.2325 219.2 
L 240.8625 219.2 
L 240.8625 213.04245 
L 231.2325 213.04245 
z
" style="fill:#b55d60;stroke:#000000;stroke-linejoin:miter;stroke-width:0.3;"/>
   </g>
   <g id="patch_14">
    <path clip-path="url(#pb2c4096fc5)" d="M 303.4575 219.2 
L 313.0875 219.2 
L 313.0875 214.839733 
L 303.4575 214.839733 
z
" style="fill:#b55d60;stroke:#000000;stroke-linejoin:miter;stroke-width:0.3;"/>
   </g>
   <g id="patch_15">
    <path clip-path="url(#pb2c4096fc5)" d="M 96.4125 219.2 
L 106.0425 219.2 
L 106.0425 218.670086 
L 96.4125 218.670086 
z
" style="fill:#857aaa;stroke:#000000;stroke-linejoin:miter;stroke-width:0.3;"/>
   </g>
   <g id="patch_16">
    <path clip-path="url(#pb2c4096fc5)" d="M 168.6375 219.2 
L 178.2675 219.2 
L 178.2675 89.312525 
L 168.6375 89.312525 
z
" style="fill:#857aaa;stroke:#000000;stroke-linejoin:miter;stroke-width:0.3;"/>
   </g>
   <g id="patch_17">
    <path clip-path="url(#pb2c4096fc5)" d="M 240.8625 219.2 
L 250.4925 219.2 
L 250.4925 213.067026 
L 240.8625 213.067026 
z
" style="fill:#857aaa;stroke:#000000;stroke-linejoin:miter;stroke-width:0.3;"/>
   </g>
   <g id="patch_18">
    <path clip-path="url(#pb2c4096fc5)" d="M 313.0875 219.2 
L 322.7175 219.2 
L 322.7175 214.719806 
L 313.0875 214.719806 
z
" style="fill:#857aaa;stroke:#000000;stroke-linejoin:miter;stroke-width:0.3;"/>
   </g>
   <g id="patch_19">
    <path clip-path="url(#pb2c4096fc5)" d="M 106.0425 219.2 
L 115.6725 219.2 
L 115.6725 218.670904 
L 106.0425 218.670904 
z
" style="fill:#c1b37f;stroke:#000000;stroke-linejoin:miter;stroke-width:0.3;"/>
   </g>
   <g id="patch_20">
    <path clip-path="url(#pb2c4096fc5)" d="M 178.2675 219.2 
L 187.8975 219.2 
L 187.8975 73.58071 
L 178.2675 73.58071 
z
" style="fill:#c1b37f;stroke:#000000;stroke-linejoin:miter;stroke-width:0.3;"/>
   </g>
   <g id="patch_21">
    <path clip-path="url(#pb2c4096fc5)" d="M 250.4925 219.2 
L 260.1225 219.2 
L 260.1225 213.035928 
L 250.4925 213.035928 
z
" style="fill:#c1b37f;stroke:#000000;stroke-linejoin:miter;stroke-width:0.3;"/>
   </g>
   <g id="patch_22">
    <path clip-path="url(#pb2c4096fc5)" d="M 322.7175 219.2 
L 332.3475 219.2 
L 332.3475 214.297157 
L 322.7175 214.297157 
z
" style="fill:#c1b37f;stroke:#000000;stroke-linejoin:miter;stroke-width:0.3;"/>
   </g>
   <g id="patch_23">
    <path clip-path="url(#pb2c4096fc5)" d="M 115.6725 219.2 
L 125.3025 219.2 
L 125.3025 218.63682 
L 115.6725 218.63682 
z
" style="fill:#71aec0;stroke:#000000;stroke-linejoin:miter;stroke-width:0.3;"/>
   </g>
   <g id="patch_24">
    <path clip-path="url(#pb2c4096fc5)" d="M 187.8975 219.2 
L 197.5275 219.2 
L 197.5275 32.784035 
L 187.8975 32.784035 
z
" style="fill:#71aec0;stroke:#000000;stroke-linejoin:miter;stroke-width:0.3;"/>
   </g>
   <g id="patch_25">
    <path clip-path="url(#pb2c4096fc5)" d="M 260.1225 219.2 
L 269.7525 219.2 
L 269.7525 212.875745 
L 260.1225 212.875745 
z
" style="fill:#71aec0;stroke:#000000;stroke-linejoin:miter;stroke-width:0.3;"/>
   </g>
   <g id="patch_26">
    <path clip-path="url(#pb2c4096fc5)" d="M 332.3475 219.2 
L 341.9775 219.2 
L 341.9775 214.059291 
L 332.3475 214.059291 
z
" style="fill:#71aec0;stroke:#000000;stroke-linejoin:miter;stroke-width:0.3;"/>
   </g>
   <g id="line2d_11">
    <path clip-path="url(#pb2c4096fc5)" d="M 72.3375 218.677948 
L 72.3375 218.664818 
" style="fill:none;stroke:#424242;stroke-linecap:round;stroke-width:3.15;"/>
   </g>
   <g id="line2d_12">
    <path clip-path="url(#pb2c4096fc5)" d="M 144.5625 174.335527 
L 144.5625 173.459618 
" style="fill:none;stroke:#424242;stroke-linecap:round;stroke-width:3.15;"/>
   </g>
   <g id="line2d_13">
    <path clip-path="url(#pb2c4096fc5)" d="M 216.7875 213.100317 
L 216.7875 213.002909 
" style="fill:none;stroke:#424242;stroke-linecap:round;stroke-width:3.15;"/>
   </g>
   <g id="line2d_14">
    <path clip-path="url(#pb2c4096fc5)" d="M 289.0125 216.674834 
L 289.0125 215.564732 
" style="fill:none;stroke:#424242;stroke-linecap:round;stroke-width:3.15;"/>
   </g>
   <g id="line2d_15">
    <path clip-path="url(#pb2c4096fc5)" d="M 81.9675 218.675347 
L 81.9675 218.666221 
" style="fill:none;stroke:#424242;stroke-linecap:round;stroke-width:3.15;"/>
   </g>
   <g id="line2d_16">
    <path clip-path="url(#pb2c4096fc5)" d="M 154.1925 173.603739 
L 154.1925 172.704819 
" style="fill:none;stroke:#424242;stroke-linecap:round;stroke-width:3.15;"/>
   </g>
   <g id="line2d_17">
    <path clip-path="url(#pb2c4096fc5)" d="M 226.4175 213.113918 
L 226.4175 213.029375 
" style="fill:none;stroke:#424242;stroke-linecap:round;stroke-width:3.15;"/>
   </g>
   <g id="line2d_18">
    <path clip-path="url(#pb2c4096fc5)" d="M 298.6425 215.102725 
L 298.6425 214.89857 
" style="fill:none;stroke:#424242;stroke-linecap:round;stroke-width:3.15;"/>
   </g>
   <g id="line2d_19">
    <path clip-path="url(#pb2c4096fc5)" d="M 91.5975 218.678097 
L 91.5975 218.673529 
" style="fill:none;stroke:#424242;stroke-linecap:round;stroke-width:3.15;"/>
   </g>
   <g id="line2d_20">
    <path clip-path="url(#pb2c4096fc5)" d="M 163.8225 173.195721 
L 163.8225 172.556774 
" style="fill:none;stroke:#424242;stroke-linecap:round;stroke-width:3.15;"/>
   </g>
   <g id="line2d_21">
    <path clip-path="url(#pb2c4096fc5)" d="M 236.0475 213.099297 
L 236.0475 212.969639 
" style="fill:none;stroke:#424242;stroke-linecap:round;stroke-width:3.15;"/>
   </g>
   <g id="line2d_22">
    <path clip-path="url(#pb2c4096fc5)" d="M 308.2725 214.913729 
L 308.2725 214.77036 
" style="fill:none;stroke:#424242;stroke-linecap:round;stroke-width:3.15;"/>
   </g>
   <g id="line2d_23">
    <path clip-path="url(#pb2c4096fc5)" d="M 101.2275 218.675613 
L 101.2275 218.663164 
" style="fill:none;stroke:#424242;stroke-linecap:round;stroke-width:3.15;"/>
   </g>
   <g id="line2d_24">
    <path clip-path="url(#pb2c4096fc5)" d="M 173.4525 90.340432 
L 173.4525 88.18838 
" style="fill:none;stroke:#424242;stroke-linecap:round;stroke-width:3.15;"/>
   </g>
   <g id="line2d_25">
    <path clip-path="url(#pb2c4096fc5)" d="M 245.6775 213.115026 
L 245.6775 213.006652 
" style="fill:none;stroke:#424242;stroke-linecap:round;stroke-width:3.15;"/>
   </g>
   <g id="line2d_26">
    <path clip-path="url(#pb2c4096fc5)" d="M 317.9025 214.807846 
L 317.9025 214.622889 
" style="fill:none;stroke:#424242;stroke-linecap:round;stroke-width:3.15;"/>
   </g>
   <g id="line2d_27">
    <path clip-path="url(#pb2c4096fc5)" d="M 110.8575 218.674749 
L 110.8575 218.666888 
" style="fill:none;stroke:#424242;stroke-linecap:round;stroke-width:3.15;"/>
   </g>
   <g id="line2d_28">
    <path clip-path="url(#pb2c4096fc5)" d="M 183.0825 75.642341 
L 183.0825 70.864586 
" style="fill:none;stroke:#424242;stroke-linecap:round;stroke-width:3.15;"/>
   </g>
   <g id="line2d_29">
    <path clip-path="url(#pb2c4096fc5)" d="M 255.3075 213.086075 
L 255.3075 212.979901 
" style="fill:none;stroke:#424242;stroke-linecap:round;stroke-width:3.15;"/>
   </g>
   <g id="line2d_30">
    <path clip-path="url(#pb2c4096fc5)" d="M 327.5325 214.372082 
L 327.5325 214.230278 
" style="fill:none;stroke:#424242;stroke-linecap:round;stroke-width:3.15;"/>
   </g>
   <g id="line2d_31">
    <path clip-path="url(#pb2c4096fc5)" d="M 120.4875 218.676041 
L 120.4875 218.567 
" style="fill:none;stroke:#424242;stroke-linecap:round;stroke-width:3.15;"/>
   </g>
   <g id="line2d_32">
    <path clip-path="url(#pb2c4096fc5)" d="M 192.7125 35.925326 
L 192.7125 29.300516 
" style="fill:none;stroke:#424242;stroke-linecap:round;stroke-width:3.15;"/>
   </g>
   <g id="line2d_33">
    <path clip-path="url(#pb2c4096fc5)" d="M 264.9375 213.096891 
L 264.9375 212.461995 
" style="fill:none;stroke:#424242;stroke-linecap:round;stroke-width:3.15;"/>
   </g>
   <g id="line2d_34">
    <path clip-path="url(#pb2c4096fc5)" d="M 337.1625 214.1044 
L 337.1625 214.011104 
" style="fill:none;stroke:#424242;stroke-linecap:round;stroke-width:3.15;"/>
   </g>
   <g id="patch_27">
    <path d="M 60.3 219.2 
L 349.2 219.2 
" style="fill:none;stroke:#262626;stroke-linecap:square;stroke-linejoin:miter;stroke-width:1.25;"/>
   </g>
   <g id="patch_28">
    <path d="M 60.3 219.2 
L 60.3 15.3 
" style="fill:none;stroke:#262626;stroke-linecap:square;stroke-linejoin:miter;stroke-width:1.25;"/>
   </g>
   <g id="legend_1">
    <g id="text_12">
     <!-- # of feature neurons -->
     <defs>
      <path d="M 25.78125 7.859375 
L 27.046875 0.09375 
Q 23.34375 -0.6875 20.40625 -0.6875 
Q 15.625 -0.6875 12.984375 0.828125 
Q 10.359375 2.34375 9.28125 4.8125 
Q 8.203125 7.28125 8.203125 15.1875 
L 8.203125 45.015625 
L 1.765625 45.015625 
L 1.765625 51.859375 
L 8.203125 51.859375 
L 8.203125 64.703125 
L 16.9375 69.96875 
L 16.9375 51.859375 
L 25.78125 51.859375 
L 25.78125 45.015625 
L 16.9375 45.015625 
L 16.9375 14.703125 
Q 16.9375 10.9375 17.40625 9.859375 
Q 17.875 8.796875 18.921875 8.15625 
Q 19.96875 7.515625 21.921875 7.515625 
Q 23.390625 7.515625 25.78125 7.859375 
" id="ArialMT-74"/>
      <path d="M 40.578125 0 
L 40.578125 7.625 
Q 34.515625 -1.171875 24.125 -1.171875 
Q 19.53125 -1.171875 15.546875 0.578125 
Q 11.578125 2.34375 9.640625 5 
Q 7.71875 7.671875 6.9375 11.53125 
Q 6.390625 14.109375 6.390625 19.734375 
L 6.390625 51.859375 
L 15.1875 51.859375 
L 15.1875 23.09375 
Q 15.1875 16.21875 15.71875 13.8125 
Q 16.546875 10.359375 19.234375 8.375 
Q 21.921875 6.390625 25.875 6.390625 
Q 29.828125 6.390625 33.296875 8.421875 
Q 36.765625 10.453125 38.203125 13.9375 
Q 39.65625 17.4375 39.65625 24.078125 
L 39.65625 51.859375 
L 48.4375 51.859375 
L 48.4375 0 
z
" id="ArialMT-75"/>
      <path d="M 40.4375 6.390625 
Q 35.546875 2.25 31.03125 0.53125 
Q 26.515625 -1.171875 21.34375 -1.171875 
Q 12.796875 -1.171875 8.203125 3 
Q 3.609375 7.171875 3.609375 13.671875 
Q 3.609375 17.484375 5.34375 20.625 
Q 7.078125 23.78125 9.890625 25.6875 
Q 12.703125 27.59375 16.21875 28.5625 
Q 18.796875 29.25 24.03125 29.890625 
Q 34.671875 31.15625 39.703125 32.90625 
Q 39.75 34.71875 39.75 35.203125 
Q 39.75 40.578125 37.25 42.78125 
Q 33.890625 45.75 27.25 45.75 
Q 21.046875 45.75 18.09375 43.578125 
Q 15.140625 41.40625 13.71875 35.890625 
L 5.125 37.0625 
Q 6.296875 42.578125 8.984375 45.96875 
Q 11.671875 49.359375 16.75 51.1875 
Q 21.828125 53.03125 28.515625 53.03125 
Q 35.15625 53.03125 39.296875 51.46875 
Q 43.453125 49.90625 45.40625 47.53125 
Q 47.359375 45.171875 48.140625 41.546875 
Q 48.578125 39.3125 48.578125 33.453125 
L 48.578125 21.734375 
Q 48.578125 9.46875 49.140625 6.21875 
Q 49.703125 2.984375 51.375 0 
L 42.1875 0 
Q 40.828125 2.734375 40.4375 6.390625 
M 39.703125 26.03125 
Q 34.90625 24.078125 25.34375 22.703125 
Q 19.921875 21.921875 17.671875 20.9375 
Q 15.4375 19.96875 14.203125 18.09375 
Q 12.984375 16.21875 12.984375 13.921875 
Q 12.984375 10.40625 15.640625 8.0625 
Q 18.3125 5.71875 23.4375 5.71875 
Q 28.515625 5.71875 32.46875 7.9375 
Q 36.421875 10.15625 38.28125 14.015625 
Q 39.703125 17 39.703125 22.796875 
z
" id="ArialMT-61"/>
      <path d="M 5.03125 -1.21875 
L 9.28125 19.578125 
L 1.03125 19.578125 
L 1.03125 26.859375 
L 10.75 26.859375 
L 14.359375 44.578125 
L 1.03125 44.578125 
L 1.03125 51.859375 
L 15.828125 51.859375 
L 20.0625 72.796875 
L 27.390625 72.796875 
L 23.140625 51.859375 
L 38.53125 51.859375 
L 42.78125 72.796875 
L 50.140625 72.796875 
L 45.90625 51.859375 
L 54.34375 51.859375 
L 54.34375 44.578125 
L 44.4375 44.578125 
L 40.765625 26.859375 
L 54.34375 26.859375 
L 54.34375 19.578125 
L 39.3125 19.578125 
L 35.0625 -1.21875 
L 27.734375 -1.21875 
L 31.9375 19.578125 
L 16.609375 19.578125 
L 12.359375 -1.21875 
z
M 18.0625 26.859375 
L 33.40625 26.859375 
L 37.0625 44.578125 
L 21.6875 44.578125 
z
" id="ArialMT-23"/>
      <path d="M 6.59375 0 
L 6.59375 51.859375 
L 14.5 51.859375 
L 14.5 44.484375 
Q 20.21875 53.03125 31 53.03125 
Q 35.6875 53.03125 39.625 51.34375 
Q 43.5625 49.65625 45.515625 46.921875 
Q 47.46875 44.1875 48.25 40.4375 
Q 48.734375 37.984375 48.734375 31.890625 
L 48.734375 0 
L 39.9375 0 
L 39.9375 31.546875 
Q 39.9375 36.921875 38.90625 39.578125 
Q 37.890625 42.234375 35.28125 43.8125 
Q 32.671875 45.40625 29.15625 45.40625 
Q 23.53125 45.40625 19.453125 41.84375 
Q 15.375 38.28125 15.375 28.328125 
L 15.375 0 
z
" id="ArialMT-6e"/>
     </defs>
     <g style="fill:#262626;" transform="translate(250.7015625 31.4578125)scale(0.1 -0.1)">
      <use xlink:href="#ArialMT-23"/>
      <use x="55.615234375" xlink:href="#ArialMT-20"/>
      <use x="83.3984375" xlink:href="#ArialMT-6f"/>
      <use x="139.013671875" xlink:href="#ArialMT-66"/>
      <use x="166.796875" xlink:href="#ArialMT-20"/>
      <use x="194.580078125" xlink:href="#ArialMT-66"/>
      <use x="222.36328125" xlink:href="#ArialMT-65"/>
      <use x="277.978515625" xlink:href="#ArialMT-61"/>
      <use x="333.59375" xlink:href="#ArialMT-74"/>
      <use x="361.376953125" xlink:href="#ArialMT-75"/>
      <use x="416.9921875" xlink:href="#ArialMT-72"/>
      <use x="450.29296875" xlink:href="#ArialMT-65"/>
      <use x="505.908203125" xlink:href="#ArialMT-20"/>
      <use x="533.69140625" xlink:href="#ArialMT-6e"/>
      <use x="589.306640625" xlink:href="#ArialMT-65"/>
      <use x="644.921875" xlink:href="#ArialMT-75"/>
      <use x="700.537109375" xlink:href="#ArialMT-72"/>
      <use x="733.837890625" xlink:href="#ArialMT-6f"/>
      <use x="789.453125" xlink:href="#ArialMT-6e"/>
      <use x="845.068359375" xlink:href="#ArialMT-73"/>
     </g>
    </g>
    <g id="patch_29">
     <path d="M 275.889844 45.603125 
L 295.889844 45.603125 
L 295.889844 38.603125 
L 275.889844 38.603125 
z
" style="fill:#5875a4;stroke:#000000;stroke-linejoin:miter;stroke-width:0.3;"/>
    </g>
    <g id="text_13">
     <!-- 1 -->
     <g style="fill:#262626;" transform="translate(303.88984375 45.603125)scale(0.1 -0.1)">
      <use xlink:href="#ArialMT-31"/>
     </g>
    </g>
    <g id="patch_30">
     <path d="M 275.889844 59.748437 
L 295.889844 59.748437 
L 295.889844 52.748437 
L 275.889844 52.748437 
z
" style="fill:#5f9e6e;stroke:#000000;stroke-linejoin:miter;stroke-width:0.3;"/>
    </g>
    <g id="text_14">
     <!-- 8 -->
     <g style="fill:#262626;" transform="translate(303.88984375 59.7484375)scale(0.1 -0.1)">
      <use xlink:href="#ArialMT-38"/>
     </g>
    </g>
    <g id="patch_31">
     <path d="M 275.889844 73.89375 
L 295.889844 73.89375 
L 295.889844 66.89375 
L 275.889844 66.89375 
z
" style="fill:#b55d60;stroke:#000000;stroke-linejoin:miter;stroke-width:0.3;"/>
    </g>
    <g id="text_15">
     <!-- 12 -->
     <g style="fill:#262626;" transform="translate(303.88984375 73.89375)scale(0.1 -0.1)">
      <use xlink:href="#ArialMT-31"/>
      <use x="55.615234375" xlink:href="#ArialMT-32"/>
     </g>
    </g>
    <g id="patch_32">
     <path d="M 275.889844 88.039062 
L 295.889844 88.039062 
L 295.889844 81.039062 
L 275.889844 81.039062 
z
" style="fill:#857aaa;stroke:#000000;stroke-linejoin:miter;stroke-width:0.3;"/>
    </g>
    <g id="text_16">
     <!-- 16 -->
     <g style="fill:#262626;" transform="translate(303.88984375 88.0390625)scale(0.1 -0.1)">
      <use xlink:href="#ArialMT-31"/>
      <use x="55.615234375" xlink:href="#ArialMT-36"/>
     </g>
    </g>
    <g id="patch_33">
     <path d="M 275.889844 102.184375 
L 295.889844 102.184375 
L 295.889844 95.184375 
L 275.889844 95.184375 
z
" style="fill:#c1b37f;stroke:#000000;stroke-linejoin:miter;stroke-width:0.3;"/>
    </g>
    <g id="text_17">
     <!-- 32 -->
     <defs>
      <path d="M 4.203125 18.890625 
L 12.984375 20.0625 
Q 14.5 12.59375 18.140625 9.296875 
Q 21.78125 6 27 6 
Q 33.203125 6 37.46875 10.296875 
Q 41.75 14.59375 41.75 20.953125 
Q 41.75 27 37.796875 30.921875 
Q 33.84375 34.859375 27.734375 34.859375 
Q 25.25 34.859375 21.53125 33.890625 
L 22.515625 41.609375 
Q 23.390625 41.5 23.921875 41.5 
Q 29.546875 41.5 34.03125 44.421875 
Q 38.53125 47.359375 38.53125 53.46875 
Q 38.53125 58.296875 35.25 61.46875 
Q 31.984375 64.65625 26.8125 64.65625 
Q 21.6875 64.65625 18.265625 61.421875 
Q 14.84375 58.203125 13.875 51.765625 
L 5.078125 53.328125 
Q 6.6875 62.15625 12.390625 67.015625 
Q 18.109375 71.875 26.609375 71.875 
Q 32.46875 71.875 37.390625 69.359375 
Q 42.328125 66.84375 44.9375 62.5 
Q 47.5625 58.15625 47.5625 53.265625 
Q 47.5625 48.640625 45.0625 44.828125 
Q 42.578125 41.015625 37.703125 38.765625 
Q 44.046875 37.3125 47.5625 32.6875 
Q 51.078125 28.078125 51.078125 21.140625 
Q 51.078125 11.765625 44.234375 5.25 
Q 37.40625 -1.265625 26.953125 -1.265625 
Q 17.53125 -1.265625 11.296875 4.34375 
Q 5.078125 9.96875 4.203125 18.890625 
" id="ArialMT-33"/>
     </defs>
     <g style="fill:#262626;" transform="translate(303.88984375 102.184375)scale(0.1 -0.1)">
      <use xlink:href="#ArialMT-33"/>
      <use x="55.615234375" xlink:href="#ArialMT-32"/>
     </g>
    </g>
    <g id="patch_34">
     <path d="M 275.889844 116.329687 
L 295.889844 116.329687 
L 295.889844 109.329687 
L 275.889844 109.329687 
z
" style="fill:#71aec0;stroke:#000000;stroke-linejoin:miter;stroke-width:0.3;"/>
    </g>
    <g id="text_18">
     <!-- 64 -->
     <g style="fill:#262626;" transform="translate(303.88984375 116.3296875)scale(0.1 -0.1)">
      <use xlink:href="#ArialMT-36"/>
      <use x="55.615234375" xlink:href="#ArialMT-34"/>
     </g>
    </g>
   </g>
  </g>
 </g>
 <defs>
  <clipPath id="pb2c4096fc5">
   <rect height="203.9" width="288.9" x="60.3" y="15.3"/>
  </clipPath>
 </defs>
</svg>
