<?xml version="1.0" encoding="utf-8" standalone="no"?>
<!DOCTYPE svg PUBLIC "-//W3C//DTD SVG 1.1//EN"
  "http://www.w3.org/Graphics/SVG/1.1/DTD/svg11.dtd">
<!-- Created with matplotlib (http://matplotlib.org/) -->
<svg height="432pt" version="1.1" viewBox="0 0 720 432" width="720pt" xmlns="http://www.w3.org/2000/svg" xmlns:xlink="http://www.w3.org/1999/xlink">
 <defs>
  <style type="text/css">
*{stroke-linecap:butt;stroke-linejoin:round;stroke-miterlimit:100000;}
  </style>
 </defs>
 <g id="figure_1">
  <g id="patch_1">
   <path d="M 0 432 
L 720 432 
L 720 0 
L 0 0 
z
" style="fill:#ffffff;"/>
  </g>
  <g id="axes_1">
   <g id="patch_2">
    <path d="M 90 378 
L 648 378 
L 648 43.2 
L 90 43.2 
z
" style="fill:#ffffff;"/>
   </g>
   <g id="matplotlib.axis_1">
    <g id="xtick_1">
     <g id="line2d_1">
      <defs>
       <path d="M 0 0 
L 0 6 
" id="mbf20f436b3" style="stroke:#262626;"/>
      </defs>
      <g>
       <use style="fill:#262626;stroke:#262626;" x="229.5" xlink:href="#mbf20f436b3" y="378.0"/>
      </g>
     </g>
     <g id="text_1">
      <!-- Training -->
      <defs>
       <path d="M 40.4375 6.390625 
Q 35.546875 2.25 31.03125 0.53125 
Q 26.515625 -1.171875 21.34375 -1.171875 
Q 12.796875 -1.171875 8.203125 3 
Q 3.609375 7.171875 3.609375 13.671875 
Q 3.609375 17.484375 5.34375 20.625 
Q 7.078125 23.78125 9.890625 25.6875 
Q 12.703125 27.59375 16.21875 28.5625 
Q 18.796875 29.25 24.03125 29.890625 
Q 34.671875 31.15625 39.703125 32.90625 
Q 39.75 34.71875 39.75 35.203125 
Q 39.75 40.578125 37.25 42.78125 
Q 33.890625 45.75 27.25 45.75 
Q 21.046875 45.75 18.09375 43.578125 
Q 15.140625 41.40625 13.71875 35.890625 
L 5.125 37.0625 
Q 6.296875 42.578125 8.984375 45.96875 
Q 11.671875 49.359375 16.75 51.1875 
Q 21.828125 53.03125 28.515625 53.03125 
Q 35.15625 53.03125 39.296875 51.46875 
Q 43.453125 49.90625 45.40625 47.53125 
Q 47.359375 45.171875 48.140625 41.546875 
Q 48.578125 39.3125 48.578125 33.453125 
L 48.578125 21.734375 
Q 48.578125 9.46875 49.140625 6.21875 
Q 49.703125 2.984375 51.375 0 
L 42.1875 0 
Q 40.828125 2.734375 40.4375 6.390625 
M 39.703125 26.03125 
Q 34.90625 24.078125 25.34375 22.703125 
Q 19.921875 21.921875 17.671875 20.9375 
Q 15.4375 19.96875 14.203125 18.09375 
Q 12.984375 16.21875 12.984375 13.921875 
Q 12.984375 10.40625 15.640625 8.0625 
Q 18.3125 5.71875 23.4375 5.71875 
Q 28.515625 5.71875 32.46875 7.9375 
Q 36.421875 10.15625 38.28125 14.015625 
Q 39.703125 17 39.703125 22.796875 
z
" id="ArialMT-61"/>
       <path d="M 4.984375 -4.296875 
L 13.53125 -5.5625 
Q 14.0625 -9.515625 16.5 -11.328125 
Q 19.78125 -13.765625 25.4375 -13.765625 
Q 31.546875 -13.765625 34.859375 -11.328125 
Q 38.1875 -8.890625 39.359375 -4.5 
Q 40.046875 -1.8125 39.984375 6.78125 
Q 34.234375 0 25.640625 0 
Q 14.9375 0 9.078125 7.71875 
Q 3.21875 15.4375 3.21875 26.21875 
Q 3.21875 33.640625 5.90625 39.90625 
Q 8.59375 46.1875 13.6875 49.609375 
Q 18.796875 53.03125 25.6875 53.03125 
Q 34.859375 53.03125 40.828125 45.609375 
L 40.828125 51.859375 
L 48.921875 51.859375 
L 48.921875 7.03125 
Q 48.921875 -5.078125 46.453125 -10.125 
Q 44 -15.1875 38.640625 -18.109375 
Q 33.296875 -21.046875 25.484375 -21.046875 
Q 16.21875 -21.046875 10.5 -16.875 
Q 4.78125 -12.703125 4.984375 -4.296875 
M 12.25 26.859375 
Q 12.25 16.65625 16.296875 11.96875 
Q 20.359375 7.28125 26.46875 7.28125 
Q 32.515625 7.28125 36.609375 11.9375 
Q 40.71875 16.609375 40.71875 26.5625 
Q 40.71875 36.078125 36.5 40.90625 
Q 32.28125 45.75 26.3125 45.75 
Q 20.453125 45.75 16.34375 40.984375 
Q 12.25 36.234375 12.25 26.859375 
" id="ArialMT-67"/>
       <path d="M 6.640625 61.46875 
L 6.640625 71.578125 
L 15.4375 71.578125 
L 15.4375 61.46875 
z
M 6.640625 0 
L 6.640625 51.859375 
L 15.4375 51.859375 
L 15.4375 0 
z
" id="ArialMT-69"/>
       <path d="M 6.5 0 
L 6.5 51.859375 
L 14.40625 51.859375 
L 14.40625 44 
Q 17.4375 49.515625 20 51.265625 
Q 22.5625 53.03125 25.640625 53.03125 
Q 30.078125 53.03125 34.671875 50.203125 
L 31.640625 42.046875 
Q 28.421875 43.953125 25.203125 43.953125 
Q 22.3125 43.953125 20.015625 42.21875 
Q 17.71875 40.484375 16.75 37.40625 
Q 15.28125 32.71875 15.28125 27.15625 
L 15.28125 0 
z
" id="ArialMT-72"/>
       <path d="M 25.921875 0 
L 25.921875 63.140625 
L 2.34375 63.140625 
L 2.34375 71.578125 
L 59.078125 71.578125 
L 59.078125 63.140625 
L 35.40625 63.140625 
L 35.40625 0 
z
" id="ArialMT-54"/>
       <path d="M 6.59375 0 
L 6.59375 51.859375 
L 14.5 51.859375 
L 14.5 44.484375 
Q 20.21875 53.03125 31 53.03125 
Q 35.6875 53.03125 39.625 51.34375 
Q 43.5625 49.65625 45.515625 46.921875 
Q 47.46875 44.1875 48.25 40.4375 
Q 48.734375 37.984375 48.734375 31.890625 
L 48.734375 0 
L 39.9375 0 
L 39.9375 31.546875 
Q 39.9375 36.921875 38.90625 39.578125 
Q 37.890625 42.234375 35.28125 43.8125 
Q 32.671875 45.40625 29.15625 45.40625 
Q 23.53125 45.40625 19.453125 41.84375 
Q 15.375 38.28125 15.375 28.328125 
L 15.375 0 
z
" id="ArialMT-6e"/>
      </defs>
      <g style="fill:#262626;" transform="translate(211.43984375 398.1578125)scale(0.1 -0.1)">
       <use xlink:href="#ArialMT-54"/>
       <use x="61.037109375" xlink:href="#ArialMT-72"/>
       <use x="94.337890625" xlink:href="#ArialMT-61"/>
       <use x="149.953125" xlink:href="#ArialMT-69"/>
       <use x="172.169921875" xlink:href="#ArialMT-6e"/>
       <use x="227.78515625" xlink:href="#ArialMT-69"/>
       <use x="250.001953125" xlink:href="#ArialMT-6e"/>
       <use x="305.6171875" xlink:href="#ArialMT-67"/>
      </g>
     </g>
    </g>
    <g id="xtick_2">
     <g id="line2d_2">
      <g>
       <use style="fill:#262626;stroke:#262626;" x="508.5" xlink:href="#mbf20f436b3" y="378.0"/>
      </g>
     </g>
     <g id="text_2">
      <!-- Testing -->
      <defs>
       <path d="M 25.78125 7.859375 
L 27.046875 0.09375 
Q 23.34375 -0.6875 20.40625 -0.6875 
Q 15.625 -0.6875 12.984375 0.828125 
Q 10.359375 2.34375 9.28125 4.8125 
Q 8.203125 7.28125 8.203125 15.1875 
L 8.203125 45.015625 
L 1.765625 45.015625 
L 1.765625 51.859375 
L 8.203125 51.859375 
L 8.203125 64.703125 
L 16.9375 69.96875 
L 16.9375 51.859375 
L 25.78125 51.859375 
L 25.78125 45.015625 
L 16.9375 45.015625 
L 16.9375 14.703125 
Q 16.9375 10.9375 17.40625 9.859375 
Q 17.875 8.796875 18.921875 8.15625 
Q 19.96875 7.515625 21.921875 7.515625 
Q 23.390625 7.515625 25.78125 7.859375 
" id="ArialMT-74"/>
       <path d="M 42.09375 16.703125 
L 51.171875 15.578125 
Q 49.03125 7.625 43.21875 3.21875 
Q 37.40625 -1.171875 28.375 -1.171875 
Q 17 -1.171875 10.328125 5.828125 
Q 3.65625 12.84375 3.65625 25.484375 
Q 3.65625 38.578125 10.390625 45.796875 
Q 17.140625 53.03125 27.875 53.03125 
Q 38.28125 53.03125 44.875 45.953125 
Q 51.46875 38.875 51.46875 26.03125 
Q 51.46875 25.25 51.421875 23.6875 
L 12.75 23.6875 
Q 13.234375 15.140625 17.578125 10.59375 
Q 21.921875 6.0625 28.421875 6.0625 
Q 33.25 6.0625 36.671875 8.59375 
Q 40.09375 11.140625 42.09375 16.703125 
M 13.234375 30.90625 
L 42.1875 30.90625 
Q 41.609375 37.453125 38.875 40.71875 
Q 34.671875 45.796875 27.984375 45.796875 
Q 21.921875 45.796875 17.796875 41.75 
Q 13.671875 37.703125 13.234375 30.90625 
" id="ArialMT-65"/>
       <path d="M 3.078125 15.484375 
L 11.765625 16.84375 
Q 12.5 11.625 15.84375 8.84375 
Q 19.1875 6.0625 25.203125 6.0625 
Q 31.25 6.0625 34.171875 8.515625 
Q 37.109375 10.984375 37.109375 14.3125 
Q 37.109375 17.28125 34.515625 19 
Q 32.71875 20.171875 25.53125 21.96875 
Q 15.875 24.421875 12.140625 26.203125 
Q 8.40625 27.984375 6.46875 31.125 
Q 4.546875 34.28125 4.546875 38.09375 
Q 4.546875 41.546875 6.125 44.5 
Q 7.71875 47.46875 10.453125 49.421875 
Q 12.5 50.921875 16.03125 51.96875 
Q 19.578125 53.03125 23.640625 53.03125 
Q 29.734375 53.03125 34.34375 51.265625 
Q 38.96875 49.515625 41.15625 46.5 
Q 43.359375 43.5 44.1875 38.484375 
L 35.59375 37.3125 
Q 35.015625 41.3125 32.203125 43.546875 
Q 29.390625 45.796875 24.265625 45.796875 
Q 18.21875 45.796875 15.625 43.796875 
Q 13.03125 41.796875 13.03125 39.109375 
Q 13.03125 37.40625 14.109375 36.03125 
Q 15.1875 34.625 17.484375 33.6875 
Q 18.796875 33.203125 25.25 31.453125 
Q 34.578125 28.953125 38.25 27.359375 
Q 41.9375 25.78125 44.03125 22.75 
Q 46.140625 19.734375 46.140625 15.234375 
Q 46.140625 10.84375 43.578125 6.953125 
Q 41.015625 3.078125 36.171875 0.953125 
Q 31.34375 -1.171875 25.25 -1.171875 
Q 15.140625 -1.171875 9.84375 3.03125 
Q 4.546875 7.234375 3.078125 15.484375 
" id="ArialMT-73"/>
      </defs>
      <g style="fill:#262626;" transform="translate(492.11328125 398.1578125)scale(0.1 -0.1)">
       <use xlink:href="#ArialMT-54"/>
       <use x="60.912109375" xlink:href="#ArialMT-65"/>
       <use x="116.52734375" xlink:href="#ArialMT-73"/>
       <use x="166.52734375" xlink:href="#ArialMT-74"/>
       <use x="194.310546875" xlink:href="#ArialMT-69"/>
       <use x="216.52734375" xlink:href="#ArialMT-6e"/>
       <use x="272.142578125" xlink:href="#ArialMT-67"/>
      </g>
     </g>
    </g>
   </g>
   <g id="matplotlib.axis_2">
    <g id="ytick_1">
     <g id="line2d_3">
      <defs>
       <path d="M 0 0 
L -6 0 
" id="m11608ab6d5" style="stroke:#262626;"/>
      </defs>
      <g>
       <use style="fill:#262626;stroke:#262626;" x="90.0" xlink:href="#m11608ab6d5" y="378.0"/>
      </g>
     </g>
     <g id="text_3">
      <!-- 1.00 -->
      <defs>
       <path d="M 4.15625 35.296875 
Q 4.15625 48 6.765625 55.734375 
Q 9.375 63.484375 14.515625 67.671875 
Q 19.671875 71.875 27.484375 71.875 
Q 33.25 71.875 37.59375 69.546875 
Q 41.9375 67.234375 44.765625 62.859375 
Q 47.609375 58.5 49.21875 52.21875 
Q 50.828125 45.953125 50.828125 35.296875 
Q 50.828125 22.703125 48.234375 14.96875 
Q 45.65625 7.234375 40.5 3 
Q 35.359375 -1.21875 27.484375 -1.21875 
Q 17.140625 -1.21875 11.234375 6.203125 
Q 4.15625 15.140625 4.15625 35.296875 
M 13.1875 35.296875 
Q 13.1875 17.671875 17.3125 11.828125 
Q 21.4375 6 27.484375 6 
Q 33.546875 6 37.671875 11.859375 
Q 41.796875 17.71875 41.796875 35.296875 
Q 41.796875 52.984375 37.671875 58.78125 
Q 33.546875 64.59375 27.390625 64.59375 
Q 21.34375 64.59375 17.71875 59.46875 
Q 13.1875 52.9375 13.1875 35.296875 
" id="ArialMT-30"/>
       <path d="M 37.25 0 
L 28.46875 0 
L 28.46875 56 
Q 25.296875 52.984375 20.140625 49.953125 
Q 14.984375 46.921875 10.890625 45.40625 
L 10.890625 53.90625 
Q 18.265625 57.375 23.78125 62.296875 
Q 29.296875 67.234375 31.59375 71.875 
L 37.25 71.875 
z
" id="ArialMT-31"/>
       <path d="M 9.078125 0 
L 9.078125 10.015625 
L 19.09375 10.015625 
L 19.09375 0 
z
" id="ArialMT-2e"/>
      </defs>
      <g style="fill:#262626;" transform="translate(57.5390625 380.58515625)scale(0.1 -0.1)">
       <use xlink:href="#ArialMT-31"/>
       <use x="55.615234375" xlink:href="#ArialMT-2e"/>
       <use x="83.3984375" xlink:href="#ArialMT-30"/>
       <use x="139.013671875" xlink:href="#ArialMT-30"/>
      </g>
     </g>
    </g>
    <g id="ytick_2">
     <g id="line2d_4">
      <g>
       <use style="fill:#262626;stroke:#262626;" x="90.0" xlink:href="#m11608ab6d5" y="340.8"/>
      </g>
     </g>
     <g id="text_4">
      <!-- 1.05 -->
      <defs>
       <path d="M 4.15625 18.75 
L 13.375 19.53125 
Q 14.40625 12.796875 18.140625 9.390625 
Q 21.875 6 27.15625 6 
Q 33.5 6 37.890625 10.78125 
Q 42.28125 15.578125 42.28125 23.484375 
Q 42.28125 31 38.0625 35.34375 
Q 33.84375 39.703125 27 39.703125 
Q 22.75 39.703125 19.328125 37.765625 
Q 15.921875 35.84375 13.96875 32.765625 
L 5.71875 33.84375 
L 12.640625 70.609375 
L 48.25 70.609375 
L 48.25 62.203125 
L 19.671875 62.203125 
L 15.828125 42.96875 
Q 22.265625 47.46875 29.34375 47.46875 
Q 38.71875 47.46875 45.15625 40.96875 
Q 51.609375 34.46875 51.609375 24.265625 
Q 51.609375 14.546875 45.953125 7.46875 
Q 39.0625 -1.21875 27.15625 -1.21875 
Q 17.390625 -1.21875 11.203125 4.25 
Q 5.03125 9.71875 4.15625 18.75 
" id="ArialMT-35"/>
      </defs>
      <g style="fill:#262626;" transform="translate(57.5390625 343.38515625)scale(0.1 -0.1)">
       <use xlink:href="#ArialMT-31"/>
       <use x="55.615234375" xlink:href="#ArialMT-2e"/>
       <use x="83.3984375" xlink:href="#ArialMT-30"/>
       <use x="139.013671875" xlink:href="#ArialMT-35"/>
      </g>
     </g>
    </g>
    <g id="ytick_3">
     <g id="line2d_5">
      <g>
       <use style="fill:#262626;stroke:#262626;" x="90.0" xlink:href="#m11608ab6d5" y="303.6"/>
      </g>
     </g>
     <g id="text_5">
      <!-- 1.10 -->
      <g style="fill:#262626;" transform="translate(57.5390625 306.18515625)scale(0.1 -0.1)">
       <use xlink:href="#ArialMT-31"/>
       <use x="55.615234375" xlink:href="#ArialMT-2e"/>
       <use x="83.3984375" xlink:href="#ArialMT-31"/>
       <use x="139.013671875" xlink:href="#ArialMT-30"/>
      </g>
     </g>
    </g>
    <g id="ytick_4">
     <g id="line2d_6">
      <g>
       <use style="fill:#262626;stroke:#262626;" x="90.0" xlink:href="#m11608ab6d5" y="266.4"/>
      </g>
     </g>
     <g id="text_6">
      <!-- 1.15 -->
      <g style="fill:#262626;" transform="translate(57.5390625 268.98515625)scale(0.1 -0.1)">
       <use xlink:href="#ArialMT-31"/>
       <use x="55.615234375" xlink:href="#ArialMT-2e"/>
       <use x="83.3984375" xlink:href="#ArialMT-31"/>
       <use x="139.013671875" xlink:href="#ArialMT-35"/>
      </g>
     </g>
    </g>
    <g id="ytick_5">
     <g id="line2d_7">
      <g>
       <use style="fill:#262626;stroke:#262626;" x="90.0" xlink:href="#m11608ab6d5" y="229.2"/>
      </g>
     </g>
     <g id="text_7">
      <!-- 1.20 -->
      <defs>
       <path d="M 50.34375 8.453125 
L 50.34375 0 
L 3.03125 0 
Q 2.9375 3.171875 4.046875 6.109375 
Q 5.859375 10.9375 9.828125 15.625 
Q 13.8125 20.3125 21.34375 26.46875 
Q 33.015625 36.03125 37.109375 41.625 
Q 41.21875 47.21875 41.21875 52.203125 
Q 41.21875 57.421875 37.46875 61 
Q 33.734375 64.59375 27.734375 64.59375 
Q 21.390625 64.59375 17.578125 60.78125 
Q 13.765625 56.984375 13.71875 50.25 
L 4.6875 51.171875 
Q 5.609375 61.28125 11.65625 66.578125 
Q 17.71875 71.875 27.9375 71.875 
Q 38.234375 71.875 44.234375 66.15625 
Q 50.25 60.453125 50.25 52 
Q 50.25 47.703125 48.484375 43.546875 
Q 46.734375 39.40625 42.65625 34.8125 
Q 38.578125 30.21875 29.109375 22.21875 
Q 21.1875 15.578125 18.9375 13.203125 
Q 16.703125 10.84375 15.234375 8.453125 
z
" id="ArialMT-32"/>
      </defs>
      <g style="fill:#262626;" transform="translate(57.5390625 231.78515625)scale(0.1 -0.1)">
       <use xlink:href="#ArialMT-31"/>
       <use x="55.615234375" xlink:href="#ArialMT-2e"/>
       <use x="83.3984375" xlink:href="#ArialMT-32"/>
       <use x="139.013671875" xlink:href="#ArialMT-30"/>
      </g>
     </g>
    </g>
    <g id="ytick_6">
     <g id="line2d_8">
      <g>
       <use style="fill:#262626;stroke:#262626;" x="90.0" xlink:href="#m11608ab6d5" y="192.0"/>
      </g>
     </g>
     <g id="text_8">
      <!-- 1.25 -->
      <g style="fill:#262626;" transform="translate(57.5390625 194.58515625)scale(0.1 -0.1)">
       <use xlink:href="#ArialMT-31"/>
       <use x="55.615234375" xlink:href="#ArialMT-2e"/>
       <use x="83.3984375" xlink:href="#ArialMT-32"/>
       <use x="139.013671875" xlink:href="#ArialMT-35"/>
      </g>
     </g>
    </g>
    <g id="ytick_7">
     <g id="line2d_9">
      <g>
       <use style="fill:#262626;stroke:#262626;" x="90.0" xlink:href="#m11608ab6d5" y="154.8"/>
      </g>
     </g>
     <g id="text_9">
      <!-- 1.30 -->
      <defs>
       <path d="M 4.203125 18.890625 
L 12.984375 20.0625 
Q 14.5 12.59375 18.140625 9.296875 
Q 21.78125 6 27 6 
Q 33.203125 6 37.46875 10.296875 
Q 41.75 14.59375 41.75 20.953125 
Q 41.75 27 37.796875 30.921875 
Q 33.84375 34.859375 27.734375 34.859375 
Q 25.25 34.859375 21.53125 33.890625 
L 22.515625 41.609375 
Q 23.390625 41.5 23.921875 41.5 
Q 29.546875 41.5 34.03125 44.421875 
Q 38.53125 47.359375 38.53125 53.46875 
Q 38.53125 58.296875 35.25 61.46875 
Q 31.984375 64.65625 26.8125 64.65625 
Q 21.6875 64.65625 18.265625 61.421875 
Q 14.84375 58.203125 13.875 51.765625 
L 5.078125 53.328125 
Q 6.6875 62.15625 12.390625 67.015625 
Q 18.109375 71.875 26.609375 71.875 
Q 32.46875 71.875 37.390625 69.359375 
Q 42.328125 66.84375 44.9375 62.5 
Q 47.5625 58.15625 47.5625 53.265625 
Q 47.5625 48.640625 45.0625 44.828125 
Q 42.578125 41.015625 37.703125 38.765625 
Q 44.046875 37.3125 47.5625 32.6875 
Q 51.078125 28.078125 51.078125 21.140625 
Q 51.078125 11.765625 44.234375 5.25 
Q 37.40625 -1.265625 26.953125 -1.265625 
Q 17.53125 -1.265625 11.296875 4.34375 
Q 5.078125 9.96875 4.203125 18.890625 
" id="ArialMT-33"/>
      </defs>
      <g style="fill:#262626;" transform="translate(57.5390625 157.38515625)scale(0.1 -0.1)">
       <use xlink:href="#ArialMT-31"/>
       <use x="55.615234375" xlink:href="#ArialMT-2e"/>
       <use x="83.3984375" xlink:href="#ArialMT-33"/>
       <use x="139.013671875" xlink:href="#ArialMT-30"/>
      </g>
     </g>
    </g>
    <g id="ytick_8">
     <g id="line2d_10">
      <g>
       <use style="fill:#262626;stroke:#262626;" x="90.0" xlink:href="#m11608ab6d5" y="117.6"/>
      </g>
     </g>
     <g id="text_10">
      <!-- 1.35 -->
      <g style="fill:#262626;" transform="translate(57.5390625 120.18515625)scale(0.1 -0.1)">
       <use xlink:href="#ArialMT-31"/>
       <use x="55.615234375" xlink:href="#ArialMT-2e"/>
       <use x="83.3984375" xlink:href="#ArialMT-33"/>
       <use x="139.013671875" xlink:href="#ArialMT-35"/>
      </g>
     </g>
    </g>
    <g id="ytick_9">
     <g id="line2d_11">
      <g>
       <use style="fill:#262626;stroke:#262626;" x="90.0" xlink:href="#m11608ab6d5" y="80.4"/>
      </g>
     </g>
     <g id="text_11">
      <!-- 1.40 -->
      <defs>
       <path d="M 32.328125 0 
L 32.328125 17.140625 
L 1.265625 17.140625 
L 1.265625 25.203125 
L 33.9375 71.578125 
L 41.109375 71.578125 
L 41.109375 25.203125 
L 50.78125 25.203125 
L 50.78125 17.140625 
L 41.109375 17.140625 
L 41.109375 0 
z
M 32.328125 25.203125 
L 32.328125 57.46875 
L 9.90625 25.203125 
z
" id="ArialMT-34"/>
      </defs>
      <g style="fill:#262626;" transform="translate(57.5390625 82.98515625)scale(0.1 -0.1)">
       <use xlink:href="#ArialMT-31"/>
       <use x="55.615234375" xlink:href="#ArialMT-2e"/>
       <use x="83.3984375" xlink:href="#ArialMT-34"/>
       <use x="139.013671875" xlink:href="#ArialMT-30"/>
      </g>
     </g>
    </g>
    <g id="ytick_10">
     <g id="line2d_12">
      <g>
       <use style="fill:#262626;stroke:#262626;" x="90.0" xlink:href="#m11608ab6d5" y="43.2"/>
      </g>
     </g>
     <g id="text_12">
      <!-- 1.45 -->
      <g style="fill:#262626;" transform="translate(57.5390625 45.78515625)scale(0.1 -0.1)">
       <use xlink:href="#ArialMT-31"/>
       <use x="55.615234375" xlink:href="#ArialMT-2e"/>
       <use x="83.3984375" xlink:href="#ArialMT-34"/>
       <use x="139.013671875" xlink:href="#ArialMT-35"/>
      </g>
     </g>
    </g>
    <g id="text_13">
     <!-- Relative consonant accuracy -->
     <defs>
      <path d="M 40.4375 19 
L 49.078125 17.875 
Q 47.65625 8.9375 41.8125 3.875 
Q 35.984375 -1.171875 27.484375 -1.171875 
Q 16.84375 -1.171875 10.375 5.78125 
Q 3.90625 12.75 3.90625 25.734375 
Q 3.90625 34.125 6.6875 40.421875 
Q 9.46875 46.734375 15.15625 49.875 
Q 20.84375 53.03125 27.546875 53.03125 
Q 35.984375 53.03125 41.359375 48.75 
Q 46.734375 44.484375 48.25 36.625 
L 39.703125 35.296875 
Q 38.484375 40.53125 35.375 43.15625 
Q 32.28125 45.796875 27.875 45.796875 
Q 21.234375 45.796875 17.078125 41.03125 
Q 12.9375 36.28125 12.9375 25.984375 
Q 12.9375 15.53125 16.9375 10.796875 
Q 20.953125 6.0625 27.390625 6.0625 
Q 32.5625 6.0625 36.03125 9.234375 
Q 39.5 12.40625 40.4375 19 
" id="ArialMT-63"/>
      <path d="M 6.203125 -19.96875 
L 5.21875 -11.71875 
Q 8.109375 -12.5 10.25 -12.5 
Q 13.1875 -12.5 14.9375 -11.515625 
Q 16.703125 -10.546875 17.828125 -8.796875 
Q 18.65625 -7.46875 20.515625 -2.25 
Q 20.75 -1.515625 21.296875 -0.09375 
L 1.609375 51.859375 
L 11.078125 51.859375 
L 21.875 21.828125 
Q 23.96875 16.109375 25.640625 9.8125 
Q 27.15625 15.875 29.25 21.625 
L 40.328125 51.859375 
L 49.125 51.859375 
L 29.390625 -0.875 
Q 26.21875 -9.421875 24.46875 -12.640625 
Q 22.125 -17 19.09375 -19.015625 
Q 16.0625 -21.046875 11.859375 -21.046875 
Q 9.328125 -21.046875 6.203125 -19.96875 
" id="ArialMT-79"/>
      <path d="M 7.859375 0 
L 7.859375 71.578125 
L 39.59375 71.578125 
Q 49.171875 71.578125 54.140625 69.640625 
Q 59.125 67.71875 62.109375 62.828125 
Q 65.09375 57.953125 65.09375 52.046875 
Q 65.09375 44.4375 60.15625 39.203125 
Q 55.21875 33.984375 44.921875 32.5625 
Q 48.6875 30.765625 50.640625 29 
Q 54.78125 25.203125 58.5 19.484375 
L 70.953125 0 
L 59.03125 0 
L 49.5625 14.890625 
Q 45.40625 21.34375 42.71875 24.75 
Q 40.046875 28.171875 37.921875 29.53125 
Q 35.796875 30.90625 33.59375 31.453125 
Q 31.984375 31.78125 28.328125 31.78125 
L 17.328125 31.78125 
L 17.328125 0 
z
M 17.328125 39.984375 
L 37.703125 39.984375 
Q 44.1875 39.984375 47.84375 41.328125 
Q 51.515625 42.671875 53.421875 45.625 
Q 55.328125 48.578125 55.328125 52.046875 
Q 55.328125 57.125 51.640625 60.390625 
Q 47.953125 63.671875 39.984375 63.671875 
L 17.328125 63.671875 
z
" id="ArialMT-52"/>
      <path d="M 40.578125 0 
L 40.578125 7.625 
Q 34.515625 -1.171875 24.125 -1.171875 
Q 19.53125 -1.171875 15.546875 0.578125 
Q 11.578125 2.34375 9.640625 5 
Q 7.71875 7.671875 6.9375 11.53125 
Q 6.390625 14.109375 6.390625 19.734375 
L 6.390625 51.859375 
L 15.1875 51.859375 
L 15.1875 23.09375 
Q 15.1875 16.21875 15.71875 13.8125 
Q 16.546875 10.359375 19.234375 8.375 
Q 21.921875 6.390625 25.875 6.390625 
Q 29.828125 6.390625 33.296875 8.421875 
Q 36.765625 10.453125 38.203125 13.9375 
Q 39.65625 17.4375 39.65625 24.078125 
L 39.65625 51.859375 
L 48.4375 51.859375 
L 48.4375 0 
z
" id="ArialMT-75"/>
      <path d="M 21 0 
L 1.265625 51.859375 
L 10.546875 51.859375 
L 21.6875 20.796875 
Q 23.484375 15.765625 25 10.359375 
Q 26.171875 14.453125 28.265625 20.21875 
L 39.796875 51.859375 
L 48.828125 51.859375 
L 29.203125 0 
z
" id="ArialMT-76"/>
      <path d="M 6.390625 0 
L 6.390625 71.578125 
L 15.1875 71.578125 
L 15.1875 0 
z
" id="ArialMT-6c"/>
      <path d="M 3.328125 25.921875 
Q 3.328125 40.328125 11.328125 47.265625 
Q 18.015625 53.03125 27.640625 53.03125 
Q 38.328125 53.03125 45.109375 46.015625 
Q 51.90625 39.015625 51.90625 26.65625 
Q 51.90625 16.65625 48.90625 10.90625 
Q 45.90625 5.171875 40.15625 2 
Q 34.421875 -1.171875 27.640625 -1.171875 
Q 16.75 -1.171875 10.03125 5.8125 
Q 3.328125 12.796875 3.328125 25.921875 
M 12.359375 25.921875 
Q 12.359375 15.96875 16.703125 11.015625 
Q 21.046875 6.0625 27.640625 6.0625 
Q 34.1875 6.0625 38.53125 11.03125 
Q 42.875 16.015625 42.875 26.21875 
Q 42.875 35.84375 38.5 40.796875 
Q 34.125 45.75 27.640625 45.75 
Q 21.046875 45.75 16.703125 40.8125 
Q 12.359375 35.890625 12.359375 25.921875 
" id="ArialMT-6f"/>
      <path id="ArialMT-20"/>
     </defs>
     <g style="fill:#262626;" transform="translate(50.22390625 280.911484375)rotate(-90.0)scale(0.11 -0.11)">
      <use xlink:href="#ArialMT-52"/>
      <use x="72.216796875" xlink:href="#ArialMT-65"/>
      <use x="127.83203125" xlink:href="#ArialMT-6c"/>
      <use x="150.048828125" xlink:href="#ArialMT-61"/>
      <use x="205.6640625" xlink:href="#ArialMT-74"/>
      <use x="233.447265625" xlink:href="#ArialMT-69"/>
      <use x="255.6640625" xlink:href="#ArialMT-76"/>
      <use x="305.6640625" xlink:href="#ArialMT-65"/>
      <use x="361.279296875" xlink:href="#ArialMT-20"/>
      <use x="389.0625" xlink:href="#ArialMT-63"/>
      <use x="439.0625" xlink:href="#ArialMT-6f"/>
      <use x="494.677734375" xlink:href="#ArialMT-6e"/>
      <use x="550.29296875" xlink:href="#ArialMT-73"/>
      <use x="600.29296875" xlink:href="#ArialMT-6f"/>
      <use x="655.908203125" xlink:href="#ArialMT-6e"/>
      <use x="711.5234375" xlink:href="#ArialMT-61"/>
      <use x="767.138671875" xlink:href="#ArialMT-6e"/>
      <use x="822.75390625" xlink:href="#ArialMT-74"/>
      <use x="850.537109375" xlink:href="#ArialMT-20"/>
      <use x="878.3203125" xlink:href="#ArialMT-61"/>
      <use x="933.935546875" xlink:href="#ArialMT-63"/>
      <use x="983.935546875" xlink:href="#ArialMT-63"/>
      <use x="1033.93554688" xlink:href="#ArialMT-75"/>
      <use x="1089.55078125" xlink:href="#ArialMT-72"/>
      <use x="1122.8515625" xlink:href="#ArialMT-61"/>
      <use x="1178.46679688" xlink:href="#ArialMT-63"/>
      <use x="1228.46679688" xlink:href="#ArialMT-79"/>
     </g>
    </g>
   </g>
   <g id="PolyCollection_1">
    <defs>
     <path d="M 155.845788 -250.345057 
L 154.354212 -250.345057 
L 154.194983 -250.67837 
L 154.012455 -251.011683 
L 153.805828 -251.344997 
L 153.574902 -251.67831 
L 153.320189 -252.011623 
L 153.043011 -252.344936 
L 152.745559 -252.678249 
L 152.43092 -253.011562 
L 152.103049 -253.344875 
L 151.766683 -253.678189 
L 151.427197 -254.011502 
L 151.090396 -254.344815 
L 150.762245 -254.678128 
L 150.448551 -255.011441 
L 150.154606 -255.344754 
L 149.8848 -255.678068 
L 149.642239 -256.011381 
L 149.42837 -256.344694 
L 149.242651 -256.678007 
L 149.082279 -257.01132 
L 148.941995 -257.344633 
L 148.813998 -257.677946 
L 148.687958 -258.01126 
L 148.551159 -258.344573 
L 148.388766 -258.677886 
L 148.184213 -259.011199 
L 147.919714 -259.344512 
L 147.576882 -259.677825 
L 147.137439 -260.011138 
L 146.583992 -260.344452 
L 145.900867 -260.677765 
L 145.074946 -261.011078 
L 144.096497 -261.344391 
L 142.959951 -261.677704 
L 141.664582 -262.011017 
L 140.215061 -262.344331 
L 138.62185 -262.677644 
L 136.901373 -263.010957 
L 135.075974 -263.34427 
L 133.173605 -263.677583 
L 131.227251 -264.010896 
L 129.274084 -264.344209 
L 127.354378 -264.677523 
L 125.51019 -265.010836 
L 123.783884 -265.344149 
L 122.216538 -265.677462 
L 120.846323 -266.010775 
L 119.706922 -266.344088 
L 118.826096 -266.677401 
L 118.224444 -267.010715 
L 117.914473 -267.344028 
L 117.9 -267.677341 
L 118.175956 -268.010654 
L 118.728592 -268.343967 
L 119.536093 -268.67728 
L 120.569567 -269.010594 
L 121.794358 -269.343907 
L 123.171603 -269.67722 
L 124.659968 -270.010533 
L 126.217441 -270.343846 
L 127.803102 -270.677159 
L 129.378772 -271.010472 
L 130.910451 -271.343786 
L 132.369487 -271.677099 
L 133.733406 -272.010412 
L 134.986407 -272.343725 
L 136.119471 -272.677038 
L 137.130139 -273.010351 
L 138.021971 -273.343664 
L 138.803738 -273.676978 
L 139.488416 -274.010291 
L 140.092049 -274.343604 
L 140.63255 -274.676917 
L 141.128521 -275.01023 
L 141.598142 -275.343543 
L 142.058196 -275.676857 
L 142.523275 -276.01017 
L 143.00518 -276.343483 
L 143.512549 -276.676796 
L 144.050694 -277.010109 
L 144.621656 -277.343422 
L 145.224425 -277.676735 
L 145.855323 -278.010049 
L 146.508485 -278.343362 
L 147.176419 -278.676675 
L 147.850579 -279.009988 
L 148.521945 -279.343301 
L 149.18155 -279.676614 
L 149.820939 -280.009927 
L 150.432545 -280.343241 
L 151.009968 -280.676554 
L 151.548153 -281.009867 
L 152.04347 -281.34318 
L 152.493717 -281.676493 
L 152.898037 -282.009806 
L 153.256791 -282.34312 
L 153.57138 -282.676433 
L 153.844054 -283.009746 
L 154.077702 -283.343059 
L 156.122298 -283.343059 
L 156.122298 -283.343059 
L 156.355946 -283.009746 
L 156.62862 -282.676433 
L 156.943209 -282.34312 
L 157.301963 -282.009806 
L 157.706283 -281.676493 
L 158.15653 -281.34318 
L 158.651847 -281.009867 
L 159.190032 -280.676554 
L 159.767455 -280.343241 
L 160.379061 -280.009927 
L 161.01845 -279.676614 
L 161.678055 -279.343301 
L 162.349421 -279.009988 
L 163.023581 -278.676675 
L 163.691515 -278.343362 
L 164.344677 -278.010049 
L 164.975575 -277.676735 
L 165.578344 -277.343422 
L 166.149306 -277.010109 
L 166.687451 -276.676796 
L 167.19482 -276.343483 
L 167.676725 -276.01017 
L 168.141804 -275.676857 
L 168.601858 -275.343543 
L 169.071479 -275.01023 
L 169.56745 -274.676917 
L 170.107951 -274.343604 
L 170.711584 -274.010291 
L 171.396262 -273.676978 
L 172.178029 -273.343664 
L 173.069861 -273.010351 
L 174.080529 -272.677038 
L 175.213593 -272.343725 
L 176.466594 -272.010412 
L 177.830513 -271.677099 
L 179.289549 -271.343786 
L 180.821228 -271.010472 
L 182.396898 -270.677159 
L 183.982559 -270.343846 
L 185.540032 -270.010533 
L 187.028397 -269.67722 
L 188.405642 -269.343907 
L 189.630433 -269.010594 
L 190.663907 -268.67728 
L 191.471408 -268.343967 
L 192.024044 -268.010654 
L 192.3 -267.677341 
L 192.285527 -267.344028 
L 191.975556 -267.010715 
L 191.373904 -266.677401 
L 190.493078 -266.344088 
L 189.353677 -266.010775 
L 187.983462 -265.677462 
L 186.416116 -265.344149 
L 184.68981 -265.010836 
L 182.845622 -264.677523 
L 180.925916 -264.344209 
L 178.972749 -264.010896 
L 177.026395 -263.677583 
L 175.124026 -263.34427 
L 173.298627 -263.010957 
L 171.57815 -262.677644 
L 169.984939 -262.344331 
L 168.535418 -262.011017 
L 167.240049 -261.677704 
L 166.103503 -261.344391 
L 165.125054 -261.011078 
L 164.299133 -260.677765 
L 163.616008 -260.344452 
L 163.062561 -260.011138 
L 162.623118 -259.677825 
L 162.280286 -259.344512 
L 162.015787 -259.011199 
L 161.811234 -258.677886 
L 161.648841 -258.344573 
L 161.512042 -258.01126 
L 161.386002 -257.677946 
L 161.258005 -257.344633 
L 161.117721 -257.01132 
L 160.957349 -256.678007 
L 160.77163 -256.344694 
L 160.557761 -256.011381 
L 160.3152 -255.678068 
L 160.045394 -255.344754 
L 159.751449 -255.011441 
L 159.437755 -254.678128 
L 159.109604 -254.344815 
L 158.772803 -254.011502 
L 158.433317 -253.678189 
L 158.096951 -253.344875 
L 157.76908 -253.011562 
L 157.454441 -252.678249 
L 157.156989 -252.344936 
L 156.879811 -252.011623 
L 156.625098 -251.67831 
L 156.394172 -251.344997 
L 156.187545 -251.011683 
L 156.005017 -250.67837 
L 155.845788 -250.345057 
z
" id="m5bb8239054" style="stroke:#4c4c4c;stroke-width:1.75;"/>
    </defs>
    <g clip-path="url(#pdd9def58c0)">
     <use style="fill:#5875a4;stroke:#4c4c4c;stroke-width:1.75;" x="0.0" xlink:href="#m5bb8239054" y="432.0"/>
    </g>
   </g>
   <g id="PolyCollection_2">
    <defs>
     <path d="M 230.18686 -95.280118 
L 228.81314 -95.280118 
L 228.66615 -95.701163 
L 228.495198 -96.122208 
L 228.298082 -96.543254 
L 228.072738 -96.964299 
L 227.81732 -97.385344 
L 227.53028 -97.806389 
L 227.210437 -98.227434 
L 226.857058 -98.648479 
L 226.469913 -99.069524 
L 226.049334 -99.49057 
L 225.596246 -99.911615 
L 225.112184 -100.33266 
L 224.599292 -100.753705 
L 224.060296 -101.17475 
L 223.498459 -101.595795 
L 222.917516 -102.016841 
L 222.321586 -102.437886 
L 221.715075 -102.858931 
L 221.102571 -103.279976 
L 220.488722 -103.701021 
L 219.878128 -104.122066 
L 219.275222 -104.543112 
L 218.684171 -104.964157 
L 218.108782 -105.385202 
L 217.55242 -105.806247 
L 217.017945 -106.227292 
L 216.507664 -106.648337 
L 216.023297 -107.069382 
L 215.565958 -107.490428 
L 215.136148 -107.911473 
L 214.733761 -108.332518 
L 214.358103 -108.753563 
L 214.007915 -109.174608 
L 213.681415 -109.595653 
L 213.376349 -110.016699 
L 213.090047 -110.437744 
L 212.819512 -110.858789 
L 212.561509 -111.279834 
L 212.312685 -111.700879 
L 212.069697 -112.121924 
L 211.829373 -112.54297 
L 211.588872 -112.964015 
L 211.345863 -113.38506 
L 211.098704 -113.806105 
L 210.84661 -114.22715 
L 210.589808 -114.648195 
L 210.329655 -115.069241 
L 210.068715 -115.490286 
L 209.810784 -115.911331 
L 209.560853 -116.332376 
L 209.325 -116.753421 
L 209.110223 -117.174466 
L 208.924196 -117.595511 
L 208.774986 -118.016557 
L 208.670713 -118.437602 
L 208.619198 -118.858647 
L 208.627595 -119.279692 
L 208.702052 -119.700737 
L 208.847399 -120.121782 
L 209.066902 -120.542828 
L 209.362083 -120.963873 
L 209.732632 -121.384918 
L 210.1764 -121.805963 
L 210.689489 -122.227008 
L 211.266421 -122.648053 
L 211.900374 -123.069099 
L 212.583476 -123.490144 
L 213.30713 -123.911189 
L 214.062356 -124.332234 
L 214.840118 -124.753279 
L 215.631629 -125.174324 
L 216.428614 -125.595369 
L 217.223518 -126.016415 
L 218.00965 -126.43746 
L 218.781272 -126.858505 
L 219.533622 -127.27955 
L 220.262889 -127.700595 
L 220.966143 -128.12164 
L 221.641235 -128.542686 
L 222.286677 -128.963731 
L 222.90152 -129.384776 
L 223.48523 -129.805821 
L 224.037579 -130.226866 
L 224.558556 -130.647911 
L 225.048295 -131.068957 
L 225.507033 -131.490002 
L 225.935082 -131.911047 
L 226.332818 -132.332092 
L 226.700696 -132.753137 
L 227.039256 -133.174182 
L 227.349147 -133.595227 
L 227.631143 -134.016273 
L 227.886158 -134.437318 
L 228.115255 -134.858363 
L 228.319641 -135.279408 
L 228.500663 -135.700453 
L 228.659791 -136.121498 
L 228.79859 -136.542544 
L 228.918695 -136.963589 
L 230.081305 -136.963589 
L 230.081305 -136.963589 
L 230.20141 -136.542544 
L 230.340209 -136.121498 
L 230.499337 -135.700453 
L 230.680359 -135.279408 
L 230.884745 -134.858363 
L 231.113842 -134.437318 
L 231.368857 -134.016273 
L 231.650853 -133.595227 
L 231.960744 -133.174182 
L 232.299304 -132.753137 
L 232.667182 -132.332092 
L 233.064918 -131.911047 
L 233.492967 -131.490002 
L 233.951705 -131.068957 
L 234.441444 -130.647911 
L 234.962421 -130.226866 
L 235.51477 -129.805821 
L 236.09848 -129.384776 
L 236.713323 -128.963731 
L 237.358765 -128.542686 
L 238.033857 -128.12164 
L 238.737111 -127.700595 
L 239.466378 -127.27955 
L 240.218728 -126.858505 
L 240.99035 -126.43746 
L 241.776482 -126.016415 
L 242.571386 -125.595369 
L 243.368371 -125.174324 
L 244.159882 -124.753279 
L 244.937644 -124.332234 
L 245.69287 -123.911189 
L 246.416524 -123.490144 
L 247.099626 -123.069099 
L 247.733579 -122.648053 
L 248.310511 -122.227008 
L 248.8236 -121.805963 
L 249.267368 -121.384918 
L 249.637917 -120.963873 
L 249.933098 -120.542828 
L 250.152601 -120.121782 
L 250.297948 -119.700737 
L 250.372405 -119.279692 
L 250.380802 -118.858647 
L 250.329287 -118.437602 
L 250.225014 -118.016557 
L 250.075804 -117.595511 
L 249.889777 -117.174466 
L 249.675 -116.753421 
L 249.439147 -116.332376 
L 249.189216 -115.911331 
L 248.931285 -115.490286 
L 248.670345 -115.069241 
L 248.410192 -114.648195 
L 248.15339 -114.22715 
L 247.901296 -113.806105 
L 247.654137 -113.38506 
L 247.411128 -112.964015 
L 247.170627 -112.54297 
L 246.930303 -112.121924 
L 246.687315 -111.700879 
L 246.438491 -111.279834 
L 246.180488 -110.858789 
L 245.909953 -110.437744 
L 245.623651 -110.016699 
L 245.318585 -109.595653 
L 244.992085 -109.174608 
L 244.641897 -108.753563 
L 244.266239 -108.332518 
L 243.863852 -107.911473 
L 243.434042 -107.490428 
L 242.976703 -107.069382 
L 242.492336 -106.648337 
L 241.982055 -106.227292 
L 241.44758 -105.806247 
L 240.891218 -105.385202 
L 240.315829 -104.964157 
L 239.724778 -104.543112 
L 239.121872 -104.122066 
L 238.511278 -103.701021 
L 237.897429 -103.279976 
L 237.284925 -102.858931 
L 236.678414 -102.437886 
L 236.082484 -102.016841 
L 235.501541 -101.595795 
L 234.939704 -101.17475 
L 234.400708 -100.753705 
L 233.887816 -100.33266 
L 233.403754 -99.911615 
L 232.950666 -99.49057 
L 232.530087 -99.069524 
L 232.142942 -98.648479 
L 231.789563 -98.227434 
L 231.46972 -97.806389 
L 231.18268 -97.385344 
L 230.927262 -96.964299 
L 230.701918 -96.543254 
L 230.504802 -96.122208 
L 230.33385 -95.701163 
L 230.18686 -95.280118 
z
" id="m2c99aa7c8b" style="stroke:#4c4c4c;stroke-width:1.75;"/>
    </defs>
    <g clip-path="url(#pdd9def58c0)">
     <use style="fill:#5f9e6e;stroke:#4c4c4c;stroke-width:1.75;" x="0.0" xlink:href="#m2c99aa7c8b" y="432.0"/>
    </g>
   </g>
   <g id="PolyCollection_3">
    <defs>
     <path d="M 305.393732 -291.870222 
L 302.406268 -291.870222 
L 302.099758 -292.119115 
L 301.74389 -292.368008 
L 301.333732 -292.616901 
L 300.864472 -292.865794 
L 300.331568 -293.114687 
L 299.730904 -293.36358 
L 299.058962 -293.612473 
L 298.313009 -293.861367 
L 297.491272 -294.11026 
L 296.593119 -294.359153 
L 295.619222 -294.608046 
L 294.571705 -294.856939 
L 293.45425 -295.105832 
L 292.272182 -295.354725 
L 291.032497 -295.603618 
L 289.743843 -295.852511 
L 288.416444 -296.101404 
L 287.061971 -296.350297 
L 285.693342 -296.59919 
L 284.32448 -296.848083 
L 282.970012 -297.096976 
L 281.644922 -297.345869 
L 280.364177 -297.594762 
L 279.142334 -297.843655 
L 277.993133 -298.092548 
L 276.929111 -298.341441 
L 275.961232 -298.590334 
L 275.098568 -298.839227 
L 274.348028 -299.08812 
L 273.714164 -299.337013 
L 273.199054 -299.585906 
L 272.802263 -299.834799 
L 272.520901 -300.083692 
L 272.349768 -300.332585 
L 272.28157 -300.581478 
L 272.307216 -300.830371 
L 272.416172 -301.079264 
L 272.596857 -301.328157 
L 272.837062 -301.57705 
L 273.124379 -301.825944 
L 273.446616 -302.074837 
L 273.792183 -302.32373 
L 274.150432 -302.572623 
L 274.511934 -302.821516 
L 274.868695 -303.070409 
L 275.214291 -303.319302 
L 275.54393 -303.568195 
L 275.854445 -303.817088 
L 276.144216 -304.065981 
L 276.413039 -304.314874 
L 276.661952 -304.563767 
L 276.89303 -304.81266 
L 277.109166 -305.061553 
L 277.313853 -305.310446 
L 277.510974 -305.559339 
L 277.704618 -305.808232 
L 277.898927 -306.057125 
L 278.097977 -306.306018 
L 278.305693 -306.554911 
L 278.525802 -306.803804 
L 278.761814 -307.052697 
L 279.017027 -307.30159 
L 279.294548 -307.550483 
L 279.597309 -307.799376 
L 279.928098 -308.048269 
L 280.28956 -308.297162 
L 280.684194 -308.546055 
L 281.114318 -308.794948 
L 281.582023 -309.043841 
L 282.089098 -309.292734 
L 282.636939 -309.541627 
L 283.226449 -309.79052 
L 283.857935 -310.039414 
L 284.531007 -310.288307 
L 285.244497 -310.5372 
L 285.996391 -310.786093 
L 286.783802 -311.034986 
L 287.602967 -311.283879 
L 288.449283 -311.532772 
L 289.317388 -311.781665 
L 290.201264 -312.030558 
L 291.094386 -312.279451 
L 291.98988 -312.528344 
L 292.880708 -312.777237 
L 293.759859 -313.02613 
L 294.620535 -313.275023 
L 295.45633 -313.523916 
L 296.26139 -313.772809 
L 297.030548 -314.021702 
L 297.75943 -314.270595 
L 298.44453 -314.519488 
L 299.083245 -314.768381 
L 299.673887 -315.017274 
L 300.215654 -315.266167 
L 300.70858 -315.51506 
L 301.153459 -315.763953 
L 301.551756 -316.012846 
L 301.905497 -316.261739 
L 302.217166 -316.510632 
L 305.582834 -316.510632 
L 305.582834 -316.510632 
L 305.894503 -316.261739 
L 306.248244 -316.012846 
L 306.646541 -315.763953 
L 307.09142 -315.51506 
L 307.584346 -315.266167 
L 308.126113 -315.017274 
L 308.716755 -314.768381 
L 309.35547 -314.519488 
L 310.04057 -314.270595 
L 310.769452 -314.021702 
L 311.53861 -313.772809 
L 312.34367 -313.523916 
L 313.179465 -313.275023 
L 314.040141 -313.02613 
L 314.919292 -312.777237 
L 315.81012 -312.528344 
L 316.705614 -312.279451 
L 317.598736 -312.030558 
L 318.482612 -311.781665 
L 319.350717 -311.532772 
L 320.197033 -311.283879 
L 321.016198 -311.034986 
L 321.803609 -310.786093 
L 322.555503 -310.5372 
L 323.268993 -310.288307 
L 323.942065 -310.039414 
L 324.573551 -309.79052 
L 325.163061 -309.541627 
L 325.710902 -309.292734 
L 326.217977 -309.043841 
L 326.685682 -308.794948 
L 327.115806 -308.546055 
L 327.51044 -308.297162 
L 327.871902 -308.048269 
L 328.202691 -307.799376 
L 328.505452 -307.550483 
L 328.782973 -307.30159 
L 329.038186 -307.052697 
L 329.274198 -306.803804 
L 329.494307 -306.554911 
L 329.702023 -306.306018 
L 329.901073 -306.057125 
L 330.095382 -305.808232 
L 330.289026 -305.559339 
L 330.486147 -305.310446 
L 330.690834 -305.061553 
L 330.90697 -304.81266 
L 331.138048 -304.563767 
L 331.386961 -304.314874 
L 331.655784 -304.065981 
L 331.945555 -303.817088 
L 332.25607 -303.568195 
L 332.585709 -303.319302 
L 332.931305 -303.070409 
L 333.288066 -302.821516 
L 333.649568 -302.572623 
L 334.007817 -302.32373 
L 334.353384 -302.074837 
L 334.675621 -301.825944 
L 334.962938 -301.57705 
L 335.203143 -301.328157 
L 335.383828 -301.079264 
L 335.492784 -300.830371 
L 335.51843 -300.581478 
L 335.450232 -300.332585 
L 335.279099 -300.083692 
L 334.997737 -299.834799 
L 334.600946 -299.585906 
L 334.085836 -299.337013 
L 333.451972 -299.08812 
L 332.701432 -298.839227 
L 331.838768 -298.590334 
L 330.870889 -298.341441 
L 329.806867 -298.092548 
L 328.657666 -297.843655 
L 327.435823 -297.594762 
L 326.155078 -297.345869 
L 324.829988 -297.096976 
L 323.47552 -296.848083 
L 322.106658 -296.59919 
L 320.738029 -296.350297 
L 319.383556 -296.101404 
L 318.056157 -295.852511 
L 316.767503 -295.603618 
L 315.527818 -295.354725 
L 314.34575 -295.105832 
L 313.228295 -294.856939 
L 312.180778 -294.608046 
L 311.206881 -294.359153 
L 310.308728 -294.11026 
L 309.486991 -293.861367 
L 308.741038 -293.612473 
L 308.069096 -293.36358 
L 307.468432 -293.114687 
L 306.935528 -292.865794 
L 306.466268 -292.616901 
L 306.05611 -292.368008 
L 305.700242 -292.119115 
L 305.393732 -291.870222 
z
" id="m4d83044bba" style="stroke:#4c4c4c;stroke-width:1.75;"/>
    </defs>
    <g clip-path="url(#pdd9def58c0)">
     <use style="fill:#b55d60;stroke:#4c4c4c;stroke-width:1.75;" x="0.0" xlink:href="#m4d83044bba" y="432.0"/>
    </g>
   </g>
   <g id="PolyCollection_4">
    <defs>
     <path d="M 434.78561 -227.176557 
L 433.41439 -227.176557 
L 433.26569 -228.418965 
L 433.094602 -229.661373 
L 432.900128 -230.90378 
L 432.681764 -232.146188 
L 432.439583 -233.388596 
L 432.174307 -234.631004 
L 431.887336 -235.873411 
L 431.58075 -237.115819 
L 431.257251 -238.358227 
L 430.920057 -239.600634 
L 430.572748 -240.843042 
L 430.219054 -242.08545 
L 429.862605 -243.327857 
L 429.506659 -244.570265 
L 429.153803 -245.812673 
L 428.805683 -247.055081 
L 428.462745 -248.297488 
L 428.124051 -249.539896 
L 427.787151 -250.782304 
L 427.448063 -252.024711 
L 427.101346 -253.267119 
L 426.740291 -254.509527 
L 426.357203 -255.751935 
L 425.943786 -256.994342 
L 425.49159 -258.23675 
L 424.992502 -259.479158 
L 424.439246 -260.721565 
L 423.825851 -261.963973 
L 423.14807 -263.206381 
L 422.403693 -264.448788 
L 421.592754 -265.691196 
L 420.717607 -266.933604 
L 419.782868 -268.176012 
L 418.795234 -269.418419 
L 417.763191 -270.660827 
L 416.696648 -271.903235 
L 415.606529 -273.145642 
L 414.504351 -274.38805 
L 413.401842 -275.630458 
L 412.310614 -276.872865 
L 411.241927 -278.115273 
L 410.206548 -279.357681 
L 409.214715 -280.600089 
L 408.276182 -281.842496 
L 407.400337 -283.084904 
L 406.596346 -284.327312 
L 405.873294 -285.569719 
L 405.240291 -286.812127 
L 404.706489 -288.054535 
L 404.281015 -289.296942 
L 403.972774 -290.53935 
L 403.790152 -291.781758 
L 403.740604 -293.024166 
L 403.830182 -294.266573 
L 404.06302 -295.508981 
L 404.440844 -296.751389 
L 404.962534 -297.993796 
L 405.623804 -299.236204 
L 406.417032 -300.478612 
L 407.331265 -301.72102 
L 408.35243 -302.963427 
L 409.463725 -304.205835 
L 410.646195 -305.448243 
L 411.879446 -306.69065 
L 413.142456 -307.933058 
L 414.414428 -309.175466 
L 415.675632 -310.417873 
L 416.908172 -311.660281 
L 418.096644 -312.902689 
L 419.228617 -314.145097 
L 420.294947 -315.387504 
L 421.289876 -316.629912 
L 422.210948 -317.87232 
L 423.058736 -319.114727 
L 423.836428 -320.357135 
L 424.549296 -321.599543 
L 425.204103 -322.84195 
L 425.80848 -324.084358 
L 426.370335 -325.326766 
L 426.897307 -326.569174 
L 427.396327 -327.811581 
L 427.873271 -329.053989 
L 428.332746 -330.296397 
L 428.777987 -331.538804 
L 429.210875 -332.781212 
L 429.632041 -334.02362 
L 430.041054 -335.266028 
L 430.436652 -336.508435 
L 430.817004 -337.750843 
L 431.179972 -338.993251 
L 431.523361 -340.235658 
L 431.845131 -341.478066 
L 432.14357 -342.720474 
L 432.417418 -343.962881 
L 432.665935 -345.205289 
L 432.888935 -346.447697 
L 433.086764 -347.690105 
L 433.260257 -348.932512 
L 433.41066 -350.17492 
L 434.78934 -350.17492 
L 434.78934 -350.17492 
L 434.939743 -348.932512 
L 435.113236 -347.690105 
L 435.311065 -346.447697 
L 435.534065 -345.205289 
L 435.782582 -343.962881 
L 436.05643 -342.720474 
L 436.354869 -341.478066 
L 436.676639 -340.235658 
L 437.020028 -338.993251 
L 437.382996 -337.750843 
L 437.763348 -336.508435 
L 438.158946 -335.266028 
L 438.567959 -334.02362 
L 438.989125 -332.781212 
L 439.422013 -331.538804 
L 439.867254 -330.296397 
L 440.326729 -329.053989 
L 440.803673 -327.811581 
L 441.302693 -326.569174 
L 441.829665 -325.326766 
L 442.39152 -324.084358 
L 442.995897 -322.84195 
L 443.650704 -321.599543 
L 444.363572 -320.357135 
L 445.141264 -319.114727 
L 445.989052 -317.87232 
L 446.910124 -316.629912 
L 447.905053 -315.387504 
L 448.971383 -314.145097 
L 450.103356 -312.902689 
L 451.291828 -311.660281 
L 452.524368 -310.417873 
L 453.785572 -309.175466 
L 455.057544 -307.933058 
L 456.320554 -306.69065 
L 457.553805 -305.448243 
L 458.736275 -304.205835 
L 459.84757 -302.963427 
L 460.868735 -301.72102 
L 461.782968 -300.478612 
L 462.576196 -299.236204 
L 463.237466 -297.993796 
L 463.759156 -296.751389 
L 464.13698 -295.508981 
L 464.369818 -294.266573 
L 464.459396 -293.024166 
L 464.409848 -291.781758 
L 464.227226 -290.53935 
L 463.918985 -289.296942 
L 463.493511 -288.054535 
L 462.959709 -286.812127 
L 462.326706 -285.569719 
L 461.603654 -284.327312 
L 460.799663 -283.084904 
L 459.923818 -281.842496 
L 458.985285 -280.600089 
L 457.993452 -279.357681 
L 456.958073 -278.115273 
L 455.889386 -276.872865 
L 454.798158 -275.630458 
L 453.695649 -274.38805 
L 452.593471 -273.145642 
L 451.503352 -271.903235 
L 450.436809 -270.660827 
L 449.404766 -269.418419 
L 448.417132 -268.176012 
L 447.482393 -266.933604 
L 446.607246 -265.691196 
L 445.796307 -264.448788 
L 445.05193 -263.206381 
L 444.374149 -261.963973 
L 443.760754 -260.721565 
L 443.207498 -259.479158 
L 442.70841 -258.23675 
L 442.256214 -256.994342 
L 441.842797 -255.751935 
L 441.459709 -254.509527 
L 441.098654 -253.267119 
L 440.751937 -252.024711 
L 440.412849 -250.782304 
L 440.075949 -249.539896 
L 439.737255 -248.297488 
L 439.394317 -247.055081 
L 439.046197 -245.812673 
L 438.693341 -244.570265 
L 438.337395 -243.327857 
L 437.980946 -242.08545 
L 437.627252 -240.843042 
L 437.279943 -239.600634 
L 436.942749 -238.358227 
L 436.61925 -237.115819 
L 436.312664 -235.873411 
L 436.025693 -234.631004 
L 435.760417 -233.388596 
L 435.518236 -232.146188 
L 435.299872 -230.90378 
L 435.105398 -229.661373 
L 434.93431 -228.418965 
L 434.78561 -227.176557 
z
" id="m3cc23cfe03" style="stroke:#4c4c4c;stroke-width:1.75;"/>
    </defs>
    <g clip-path="url(#pdd9def58c0)">
     <use style="fill:#5875a4;stroke:#4c4c4c;stroke-width:1.75;" x="0.0" xlink:href="#m3cc23cfe03" y="432.0"/>
    </g>
   </g>
   <g id="PolyCollection_5">
    <defs>
     <path d="M 509.29314 -86.038881 
L 507.70686 -86.038881 
L 507.537908 -87.129619 
L 507.342044 -88.220358 
L 507.116986 -89.311096 
L 506.860636 -90.401835 
L 506.571148 -91.492573 
L 506.246993 -92.583312 
L 505.887014 -93.67405 
L 505.490468 -94.764789 
L 505.057055 -95.855527 
L 504.586929 -96.946266 
L 504.080694 -98.037004 
L 503.539383 -99.127743 
L 502.964418 -100.218481 
L 502.357569 -101.30922 
L 501.720898 -102.399958 
L 501.056703 -103.490697 
L 500.367471 -104.581435 
L 499.655837 -105.672174 
L 498.924548 -106.762912 
L 498.176449 -107.853651 
L 497.414477 -108.944389 
L 496.641666 -110.035128 
L 495.861154 -111.125866 
L 495.076196 -112.216605 
L 494.290164 -113.307343 
L 493.506534 -114.398082 
L 492.728854 -115.48882 
L 491.960691 -116.579559 
L 491.205546 -117.670297 
L 490.466756 -118.761036 
L 489.74737 -119.851774 
L 489.050026 -120.942513 
L 488.376831 -122.033251 
L 487.729252 -123.12399 
L 487.108054 -124.214728 
L 486.513267 -125.305467 
L 485.94422 -126.396205 
L 485.399633 -127.486944 
L 484.877768 -128.577682 
L 484.376639 -129.668421 
L 483.89427 -130.759159 
L 483.428979 -131.849898 
L 482.979673 -132.940636 
L 482.546127 -134.031375 
L 482.129225 -135.122113 
L 481.731141 -136.212852 
L 481.355438 -137.30359 
L 481.007072 -138.394329 
L 480.692297 -139.485067 
L 480.418465 -140.575806 
L 480.193738 -141.666544 
L 480.026718 -142.757283 
L 479.926024 -143.848021 
L 479.899841 -144.93876 
L 479.955471 -146.029498 
L 480.09891 -147.120237 
L 480.334486 -148.210975 
L 480.664582 -149.301714 
L 481.089454 -150.392452 
L 481.60716 -151.483191 
L 482.213609 -152.573929 
L 482.902714 -153.664668 
L 483.666642 -154.755406 
L 484.49615 -155.846145 
L 485.380973 -156.936883 
L 486.310241 -158.027622 
L 487.272908 -159.11836 
L 488.25815 -160.209099 
L 489.255727 -161.299837 
L 490.25628 -162.390576 
L 491.25155 -163.481314 
L 492.234517 -164.572053 
L 493.199456 -165.662791 
L 494.141911 -166.75353 
L 495.05861 -167.844268 
L 495.947311 -168.935007 
L 496.80663 -170.025745 
L 497.63583 -171.116484 
L 498.434622 -172.207222 
L 499.202972 -173.297961 
L 499.940938 -174.388699 
L 500.64854 -175.479438 
L 501.32567 -176.570176 
L 501.972047 -177.660915 
L 502.587213 -178.751653 
L 503.170558 -179.842392 
L 503.721379 -180.93313 
L 504.238952 -182.023869 
L 504.722618 -183.114607 
L 505.171863 -184.205346 
L 505.586397 -185.296084 
L 505.966213 -186.386822 
L 506.311629 -187.477561 
L 506.623314 -188.568299 
L 506.902285 -189.659038 
L 507.149889 -190.749776 
L 507.36777 -191.840515 
L 507.557819 -192.931253 
L 507.722118 -194.021992 
L 509.277882 -194.021992 
L 509.277882 -194.021992 
L 509.442181 -192.931253 
L 509.63223 -191.840515 
L 509.850111 -190.749776 
L 510.097715 -189.659038 
L 510.376686 -188.568299 
L 510.688371 -187.477561 
L 511.033787 -186.386822 
L 511.413603 -185.296084 
L 511.828137 -184.205346 
L 512.277382 -183.114607 
L 512.761048 -182.023869 
L 513.278621 -180.93313 
L 513.829442 -179.842392 
L 514.412787 -178.751653 
L 515.027953 -177.660915 
L 515.67433 -176.570176 
L 516.35146 -175.479438 
L 517.059062 -174.388699 
L 517.797028 -173.297961 
L 518.565378 -172.207222 
L 519.36417 -171.116484 
L 520.19337 -170.025745 
L 521.052689 -168.935007 
L 521.94139 -167.844268 
L 522.858089 -166.75353 
L 523.800544 -165.662791 
L 524.765483 -164.572053 
L 525.74845 -163.481314 
L 526.74372 -162.390576 
L 527.744273 -161.299837 
L 528.74185 -160.209099 
L 529.727092 -159.11836 
L 530.689759 -158.027622 
L 531.619027 -156.936883 
L 532.50385 -155.846145 
L 533.333358 -154.755406 
L 534.097286 -153.664668 
L 534.786391 -152.573929 
L 535.39284 -151.483191 
L 535.910546 -150.392452 
L 536.335418 -149.301714 
L 536.665514 -148.210975 
L 536.90109 -147.120237 
L 537.044529 -146.029498 
L 537.100159 -144.93876 
L 537.073976 -143.848021 
L 536.973282 -142.757283 
L 536.806262 -141.666544 
L 536.581535 -140.575806 
L 536.307703 -139.485067 
L 535.992928 -138.394329 
L 535.644562 -137.30359 
L 535.268859 -136.212852 
L 534.870775 -135.122113 
L 534.453873 -134.031375 
L 534.020327 -132.940636 
L 533.571021 -131.849898 
L 533.10573 -130.759159 
L 532.623361 -129.668421 
L 532.122232 -128.577682 
L 531.600367 -127.486944 
L 531.05578 -126.396205 
L 530.486733 -125.305467 
L 529.891946 -124.214728 
L 529.270748 -123.12399 
L 528.623169 -122.033251 
L 527.949974 -120.942513 
L 527.25263 -119.851774 
L 526.533244 -118.761036 
L 525.794454 -117.670297 
L 525.039309 -116.579559 
L 524.271146 -115.48882 
L 523.493466 -114.398082 
L 522.709836 -113.307343 
L 521.923804 -112.216605 
L 521.138846 -111.125866 
L 520.358334 -110.035128 
L 519.585523 -108.944389 
L 518.823551 -107.853651 
L 518.075452 -106.762912 
L 517.344163 -105.672174 
L 516.632529 -104.581435 
L 515.943297 -103.490697 
L 515.279102 -102.399958 
L 514.642431 -101.30922 
L 514.035582 -100.218481 
L 513.460617 -99.127743 
L 512.919306 -98.037004 
L 512.413071 -96.946266 
L 511.942945 -95.855527 
L 511.509532 -94.764789 
L 511.112986 -93.67405 
L 510.753007 -92.583312 
L 510.428852 -91.492573 
L 510.139364 -90.401835 
L 509.883014 -89.311096 
L 509.657956 -88.220358 
L 509.462092 -87.129619 
L 509.29314 -86.038881 
z
" id="m36b97be2d5" style="stroke:#4c4c4c;stroke-width:1.75;"/>
    </defs>
    <g clip-path="url(#pdd9def58c0)">
     <use style="fill:#5f9e6e;stroke:#4c4c4c;stroke-width:1.75;" x="0.0" xlink:href="#m36b97be2d5" y="432.0"/>
    </g>
   </g>
   <g id="PolyCollection_6">
    <defs>
     <path d="M 584.133766 -141.97444 
L 581.666234 -141.97444 
L 581.402208 -142.889221 
L 581.096585 -143.804002 
L 580.746313 -144.718782 
L 580.348868 -145.633563 
L 579.902421 -146.548343 
L 579.405992 -147.463124 
L 578.859581 -148.377905 
L 578.264275 -149.292685 
L 577.6223 -150.207466 
L 576.937029 -151.122247 
L 576.212917 -152.037027 
L 575.455367 -152.951808 
L 574.670531 -153.866589 
L 573.865033 -154.781369 
L 573.045638 -155.69615 
L 572.218883 -156.61093 
L 571.390673 -157.525711 
L 570.565888 -158.440492 
L 569.748019 -159.355272 
L 568.938858 -160.270053 
L 568.138289 -161.184834 
L 567.344182 -162.099614 
L 566.552435 -163.014395 
L 565.757156 -163.929176 
L 564.951003 -164.843956 
L 564.125667 -165.758737 
L 563.272478 -166.673518 
L 562.383106 -167.588298 
L 561.450317 -168.503079 
L 560.468737 -169.417859 
L 559.435566 -170.33264 
L 558.351193 -171.247421 
L 557.219665 -172.162201 
L 556.048962 -173.076982 
L 554.851053 -173.991763 
L 553.6417 -174.906543 
L 552.440032 -175.821324 
L 551.267886 -176.736105 
L 550.148948 -177.650885 
L 549.107753 -178.565666 
L 548.168584 -179.480446 
L 547.354353 -180.395227 
L 546.685519 -181.310008 
L 546.179115 -182.224788 
L 545.847947 -183.139569 
L 545.7 -184.05435 
L 545.738102 -184.96913 
L 545.959848 -185.883911 
L 546.357786 -186.798692 
L 546.919856 -187.713472 
L 547.63003 -188.628253 
L 548.469124 -189.543033 
L 549.415722 -190.457814 
L 550.447148 -191.372595 
L 551.54044 -192.287375 
L 552.673266 -193.202156 
L 553.824729 -194.116937 
L 554.97605 -195.031717 
L 556.111073 -195.946498 
L 557.216612 -196.861279 
L 558.282618 -197.776059 
L 559.302183 -198.69084 
L 560.271409 -199.60562 
L 561.189152 -200.520401 
L 562.056674 -201.435182 
L 562.877235 -202.349962 
L 563.655653 -203.264743 
L 564.397846 -204.179524 
L 565.110389 -205.094304 
L 565.800106 -206.009085 
L 566.473695 -206.923866 
L 567.137408 -207.838646 
L 567.796788 -208.753427 
L 568.456464 -209.668207 
L 569.120004 -210.582988 
L 569.789829 -211.497769 
L 570.467178 -212.412549 
L 571.152121 -213.32733 
L 571.843628 -214.242111 
L 572.539664 -215.156891 
L 573.237323 -216.071672 
L 573.932997 -216.986453 
L 574.622546 -217.901233 
L 575.301495 -218.816014 
L 575.965229 -219.730794 
L 576.609173 -220.645575 
L 577.228978 -221.560356 
L 577.82067 -222.475136 
L 578.380782 -223.389917 
L 578.90646 -224.304698 
L 579.395525 -225.219478 
L 579.846518 -226.134259 
L 580.258701 -227.04904 
L 580.632033 -227.96382 
L 580.967124 -228.878601 
L 581.265163 -229.793382 
L 581.527831 -230.708162 
L 581.757213 -231.622943 
L 581.955693 -232.537723 
L 583.844307 -232.537723 
L 583.844307 -232.537723 
L 584.042787 -231.622943 
L 584.272169 -230.708162 
L 584.534837 -229.793382 
L 584.832876 -228.878601 
L 585.167967 -227.96382 
L 585.541299 -227.04904 
L 585.953482 -226.134259 
L 586.404475 -225.219478 
L 586.89354 -224.304698 
L 587.419218 -223.389917 
L 587.97933 -222.475136 
L 588.571022 -221.560356 
L 589.190827 -220.645575 
L 589.834771 -219.730794 
L 590.498505 -218.816014 
L 591.177454 -217.901233 
L 591.867003 -216.986453 
L 592.562677 -216.071672 
L 593.260336 -215.156891 
L 593.956372 -214.242111 
L 594.647879 -213.32733 
L 595.332822 -212.412549 
L 596.010171 -211.497769 
L 596.679996 -210.582988 
L 597.343536 -209.668207 
L 598.003212 -208.753427 
L 598.662592 -207.838646 
L 599.326305 -206.923866 
L 599.999894 -206.009085 
L 600.689611 -205.094304 
L 601.402154 -204.179524 
L 602.144347 -203.264743 
L 602.922765 -202.349962 
L 603.743326 -201.435182 
L 604.610848 -200.520401 
L 605.528591 -199.60562 
L 606.497817 -198.69084 
L 607.517382 -197.776059 
L 608.583388 -196.861279 
L 609.688927 -195.946498 
L 610.82395 -195.031717 
L 611.975271 -194.116937 
L 613.126734 -193.202156 
L 614.25956 -192.287375 
L 615.352852 -191.372595 
L 616.384278 -190.457814 
L 617.330876 -189.543033 
L 618.16997 -188.628253 
L 618.880144 -187.713472 
L 619.442214 -186.798692 
L 619.840152 -185.883911 
L 620.061898 -184.96913 
L 620.1 -184.05435 
L 619.952053 -183.139569 
L 619.620885 -182.224788 
L 619.114481 -181.310008 
L 618.445647 -180.395227 
L 617.631416 -179.480446 
L 616.692247 -178.565666 
L 615.651052 -177.650885 
L 614.532114 -176.736105 
L 613.359968 -175.821324 
L 612.1583 -174.906543 
L 610.948947 -173.991763 
L 609.751038 -173.076982 
L 608.580335 -172.162201 
L 607.448807 -171.247421 
L 606.364434 -170.33264 
L 605.331263 -169.417859 
L 604.349683 -168.503079 
L 603.416894 -167.588298 
L 602.527522 -166.673518 
L 601.674333 -165.758737 
L 600.848997 -164.843956 
L 600.042844 -163.929176 
L 599.247565 -163.014395 
L 598.455818 -162.099614 
L 597.661711 -161.184834 
L 596.861142 -160.270053 
L 596.051981 -159.355272 
L 595.234112 -158.440492 
L 594.409327 -157.525711 
L 593.581117 -156.61093 
L 592.754362 -155.69615 
L 591.934967 -154.781369 
L 591.129469 -153.866589 
L 590.344633 -152.951808 
L 589.587083 -152.037027 
L 588.862971 -151.122247 
L 588.1777 -150.207466 
L 587.535725 -149.292685 
L 586.940419 -148.377905 
L 586.394008 -147.463124 
L 585.897579 -146.548343 
L 585.451132 -145.633563 
L 585.053687 -144.718782 
L 584.703415 -143.804002 
L 584.397792 -142.889221 
L 584.133766 -141.97444 
z
" id="m30ab113da8" style="stroke:#4c4c4c;stroke-width:1.75;"/>
    </defs>
    <g clip-path="url(#pdd9def58c0)">
     <use style="fill:#b55d60;stroke:#4c4c4c;stroke-width:1.75;" x="0.0" xlink:href="#m30ab113da8" y="432.0"/>
    </g>
   </g>
   <g id="patch_3">
    <path clip-path="url(#pdd9def58c0)" d="M 229.5 1122 
L 229.5 1122 
L 229.5 1122 
L 229.5 1122 
z
" style="fill:#5875a4;stroke:#4c4c4c;stroke-linejoin:miter;stroke-width:0.875;"/>
   </g>
   <g id="patch_4">
    <path clip-path="url(#pdd9def58c0)" d="M 229.5 1122 
L 229.5 1122 
L 229.5 1122 
L 229.5 1122 
z
" style="fill:#5f9e6e;stroke:#4c4c4c;stroke-linejoin:miter;stroke-width:0.875;"/>
   </g>
   <g id="patch_5">
    <path clip-path="url(#pdd9def58c0)" d="M 229.5 1122 
L 229.5 1122 
L 229.5 1122 
L 229.5 1122 
z
" style="fill:#b55d60;stroke:#4c4c4c;stroke-linejoin:miter;stroke-width:0.875;"/>
   </g>
   <g id="line2d_13">
    <path clip-path="url(#pdd9def58c0)" d="M 155.1 166.659823 
L 155.1 162.900121 
" style="fill:none;stroke:#4c4c4c;stroke-linecap:round;stroke-width:1.75;"/>
   </g>
   <g id="line2d_14">
    <path clip-path="url(#pdd9def58c0)" d="M 155.1 165.155942 
L 155.1 163.182099 
" style="fill:none;stroke:#4c4c4c;stroke-linecap:round;stroke-width:5.25;"/>
   </g>
   <g id="line2d_15">
    <path clip-path="url(#pdd9def58c0)" d="M 229.5 327.537494 
L 229.5 304.218799 
" style="fill:none;stroke:#4c4c4c;stroke-linecap:round;stroke-width:1.75;"/>
   </g>
   <g id="line2d_16">
    <path clip-path="url(#pdd9def58c0)" d="M 229.5 320.962164 
L 229.5 311.20085 
" style="fill:none;stroke:#4c4c4c;stroke-linecap:round;stroke-width:5.25;"/>
   </g>
   <g id="line2d_17">
    <path clip-path="url(#pdd9def58c0)" d="M 303.9 134.201065 
L 303.9 121.41808 
" style="fill:none;stroke:#4c4c4c;stroke-linecap:round;stroke-width:1.75;"/>
   </g>
   <g id="line2d_18">
    <path clip-path="url(#pdd9def58c0)" d="M 303.9 132.039237 
L 303.9 125.11512 
" style="fill:none;stroke:#4c4c4c;stroke-linecap:round;stroke-width:5.25;"/>
   </g>
   <g id="line2d_19">
    <path clip-path="url(#pdd9def58c0)" d="M 434.1 179.997636 
L 434.1 106.650887 
" style="fill:none;stroke:#4c4c4c;stroke-linecap:round;stroke-width:1.75;"/>
   </g>
   <g id="line2d_20">
    <path clip-path="url(#pdd9def58c0)" d="M 434.1 153.031919 
L 434.1 130.74026 
" style="fill:none;stroke:#4c4c4c;stroke-linecap:round;stroke-width:5.25;"/>
   </g>
   <g id="line2d_21">
    <path clip-path="url(#pdd9def58c0)" d="M 508.5 322.787525 
L 508.5 261.151602 
" style="fill:none;stroke:#4c4c4c;stroke-linecap:round;stroke-width:1.75;"/>
   </g>
   <g id="line2d_22">
    <path clip-path="url(#pdd9def58c0)" d="M 508.5 303.783116 
L 508.5 281.69691 
" style="fill:none;stroke:#4c4c4c;stroke-linecap:round;stroke-width:5.25;"/>
   </g>
   <g id="line2d_23">
    <path clip-path="url(#pdd9def58c0)" d="M 582.9 266.561438 
L 582.9 228.68047 
" style="fill:none;stroke:#4c4c4c;stroke-linecap:round;stroke-width:1.75;"/>
   </g>
   <g id="line2d_24">
    <path clip-path="url(#pdd9def58c0)" d="M 582.9 250.13836 
L 582.9 238.869971 
" style="fill:none;stroke:#4c4c4c;stroke-linecap:round;stroke-width:5.25;"/>
   </g>
   <g id="line2d_25">
    <path clip-path="url(#pdd9def58c0)" d="M 90 378 
L 648 378 
" style="fill:none;stroke:#000000;stroke-dasharray:1.000000,3.000000;stroke-dashoffset:0.0;stroke-width:1.75;"/>
   </g>
   <g id="patch_6">
    <path d="M 90 378 
L 648 378 
" style="fill:none;stroke:#262626;stroke-linecap:square;stroke-linejoin:miter;stroke-width:1.25;"/>
   </g>
   <g id="patch_7">
    <path d="M 90 378 
L 90 43.2 
" style="fill:none;stroke:#262626;stroke-linecap:square;stroke-linejoin:miter;stroke-width:1.25;"/>
   </g>
   <g id="PathCollection_1">
    <defs>
     <path d="M 0 1.75 
C 0.464105 1.75 0.909265 1.565609 1.237437 1.237437 
C 1.565609 0.909265 1.75 0.464105 1.75 0 
C 1.75 -0.464105 1.565609 -0.909265 1.237437 -1.237437 
C 0.909265 -1.565609 0.464105 -1.75 0 -1.75 
C -0.464105 -1.75 -0.909265 -1.565609 -1.237437 -1.237437 
C -1.565609 -0.909265 -1.75 -0.464105 -1.75 0 
C -1.75 0.464105 -1.565609 0.909265 -1.237437 1.237437 
C -0.909265 1.565609 -0.464105 1.75 0 1.75 
z
" id="mbcaaa25ad4" style="stroke:#4c4c4c;stroke-width:0.3;"/>
    </defs>
    <g clip-path="url(#pdd9def58c0)">
     <use style="fill:#ffffff;stroke:#4c4c4c;stroke-width:0.3;" x="155.1" xlink:href="#mbcaaa25ad4" y="164.216016563"/>
    </g>
   </g>
   <g id="PathCollection_2">
    <g clip-path="url(#pdd9def58c0)">
     <use style="fill:#ffffff;stroke:#4c4c4c;stroke-width:0.3;" x="229.5" xlink:href="#mbcaaa25ad4" y="314.657982336"/>
    </g>
   </g>
   <g id="PathCollection_3">
    <g clip-path="url(#pdd9def58c0)">
     <use style="fill:#ffffff;stroke:#4c4c4c;stroke-width:0.3;" x="303.9" xlink:href="#mbcaaa25ad4" y="128.624174719"/>
    </g>
   </g>
   <g id="PathCollection_4">
    <g clip-path="url(#pdd9def58c0)">
     <use style="fill:#ffffff;stroke:#4c4c4c;stroke-width:0.3;" x="434.1" xlink:href="#mbcaaa25ad4" y="138.29066094"/>
    </g>
   </g>
   <g id="PathCollection_5">
    <g clip-path="url(#pdd9def58c0)">
     <use style="fill:#ffffff;stroke:#4c4c4c;stroke-width:0.3;" x="508.5" xlink:href="#mbcaaa25ad4" y="288.887767359"/>
    </g>
   </g>
   <g id="PathCollection_6">
    <g clip-path="url(#pdd9def58c0)">
     <use style="fill:#ffffff;stroke:#4c4c4c;stroke-width:0.3;" x="582.9" xlink:href="#mbcaaa25ad4" y="248.340212549"/>
    </g>
   </g>
   <g id="legend_1">
    <g id="text_14">
     <!-- phones -->
     <defs>
      <path d="M 6.59375 0 
L 6.59375 71.578125 
L 15.375 71.578125 
L 15.375 45.90625 
Q 21.53125 53.03125 30.90625 53.03125 
Q 36.671875 53.03125 40.921875 50.75 
Q 45.171875 48.484375 47 44.484375 
Q 48.828125 40.484375 48.828125 32.859375 
L 48.828125 0 
L 40.046875 0 
L 40.046875 32.859375 
Q 40.046875 39.453125 37.1875 42.453125 
Q 34.328125 45.453125 29.109375 45.453125 
Q 25.203125 45.453125 21.75 43.421875 
Q 18.3125 41.40625 16.84375 37.9375 
Q 15.375 34.46875 15.375 28.375 
L 15.375 0 
z
" id="ArialMT-68"/>
      <path d="M 6.59375 -19.875 
L 6.59375 51.859375 
L 14.59375 51.859375 
L 14.59375 45.125 
Q 17.4375 49.078125 21 51.046875 
Q 24.5625 53.03125 29.640625 53.03125 
Q 36.28125 53.03125 41.359375 49.609375 
Q 46.4375 46.1875 49.015625 39.953125 
Q 51.609375 33.734375 51.609375 26.3125 
Q 51.609375 18.359375 48.75 11.984375 
Q 45.90625 5.609375 40.453125 2.21875 
Q 35.015625 -1.171875 29 -1.171875 
Q 24.609375 -1.171875 21.109375 0.6875 
Q 17.625 2.546875 15.375 5.375 
L 15.375 -19.875 
z
M 14.546875 25.640625 
Q 14.546875 15.625 18.59375 10.84375 
Q 22.65625 6.0625 28.421875 6.0625 
Q 34.28125 6.0625 38.453125 11.015625 
Q 42.625 15.96875 42.625 26.375 
Q 42.625 36.28125 38.546875 41.203125 
Q 34.46875 46.140625 28.8125 46.140625 
Q 23.1875 46.140625 18.859375 40.890625 
Q 14.546875 35.640625 14.546875 25.640625 
" id="ArialMT-70"/>
     </defs>
     <g style="fill:#262626;" transform="translate(584.091933594 58.8925546875)scale(0.0935 -0.0935)">
      <use xlink:href="#ArialMT-70"/>
      <use x="55.615234375" xlink:href="#ArialMT-68"/>
      <use x="111.23046875" xlink:href="#ArialMT-6f"/>
      <use x="166.845703125" xlink:href="#ArialMT-6e"/>
      <use x="222.4609375" xlink:href="#ArialMT-65"/>
      <use x="278.076171875" xlink:href="#ArialMT-73"/>
     </g>
    </g>
    <g id="patch_8">
     <path d="M 559.85625 72.90868 
L 579.85625 72.90868 
L 579.85625 65.90868 
L 559.85625 65.90868 
z
" style="fill:#5875a4;stroke:#4c4c4c;stroke-linejoin:miter;stroke-width:0.875;"/>
    </g>
    <g id="text_15">
     <!-- vowels -->
     <defs>
      <path d="M 16.15625 0 
L 0.296875 51.859375 
L 9.375 51.859375 
L 17.625 21.921875 
L 20.703125 10.796875 
Q 20.90625 11.625 23.390625 21.484375 
L 31.640625 51.859375 
L 40.671875 51.859375 
L 48.4375 21.78125 
L 51.03125 11.859375 
L 54 21.875 
L 62.890625 51.859375 
L 71.4375 51.859375 
L 55.21875 0 
L 46.09375 0 
L 37.84375 31.0625 
L 35.84375 39.890625 
L 25.34375 0 
z
" id="ArialMT-77"/>
     </defs>
     <g style="fill:#262626;" transform="translate(587.85625 72.9086796875)scale(0.1 -0.1)">
      <use xlink:href="#ArialMT-76"/>
      <use x="50.0" xlink:href="#ArialMT-6f"/>
      <use x="105.615234375" xlink:href="#ArialMT-77"/>
      <use x="177.83203125" xlink:href="#ArialMT-65"/>
      <use x="233.447265625" xlink:href="#ArialMT-6c"/>
      <use x="255.6640625" xlink:href="#ArialMT-73"/>
     </g>
    </g>
    <g id="patch_9">
     <path d="M 559.85625 87.053992 
L 579.85625 87.053992 
L 579.85625 80.053992 
L 559.85625 80.053992 
z
" style="fill:#5f9e6e;stroke:#4c4c4c;stroke-linejoin:miter;stroke-width:0.875;"/>
    </g>
    <g id="text_16">
     <!-- consonants -->
     <g style="fill:#262626;" transform="translate(587.85625 87.0539921875)scale(0.1 -0.1)">
      <use xlink:href="#ArialMT-63"/>
      <use x="50.0" xlink:href="#ArialMT-6f"/>
      <use x="105.615234375" xlink:href="#ArialMT-6e"/>
      <use x="161.23046875" xlink:href="#ArialMT-73"/>
      <use x="211.23046875" xlink:href="#ArialMT-6f"/>
      <use x="266.845703125" xlink:href="#ArialMT-6e"/>
      <use x="322.4609375" xlink:href="#ArialMT-61"/>
      <use x="378.076171875" xlink:href="#ArialMT-6e"/>
      <use x="433.69140625" xlink:href="#ArialMT-74"/>
      <use x="461.474609375" xlink:href="#ArialMT-73"/>
     </g>
    </g>
    <g id="patch_10">
     <path d="M 559.85625 101.199305 
L 579.85625 101.199305 
L 579.85625 94.199305 
L 559.85625 94.199305 
z
" style="fill:#b55d60;stroke:#4c4c4c;stroke-linejoin:miter;stroke-width:0.875;"/>
    </g>
    <g id="text_17">
     <!-- all -->
     <g style="fill:#262626;" transform="translate(587.85625 101.199304687)scale(0.1 -0.1)">
      <use xlink:href="#ArialMT-61"/>
      <use x="55.615234375" xlink:href="#ArialMT-6c"/>
      <use x="77.83203125" xlink:href="#ArialMT-6c"/>
     </g>
    </g>
   </g>
  </g>
 </g>
 <defs>
  <clipPath id="pdd9def58c0">
   <rect height="334.8" width="558.0" x="90.0" y="43.2"/>
  </clipPath>
 </defs>
</svg>
