<?xml version="1.0" encoding="utf-8" standalone="no"?>
<!DOCTYPE svg PUBLIC "-//W3C//DTD SVG 1.1//EN"
  "http://www.w3.org/Graphics/SVG/1.1/DTD/svg11.dtd">
<!-- Created with matplotlib (http://matplotlib.org/) -->
<svg height="432pt" version="1.1" viewBox="0 0 720 432" width="720pt" xmlns="http://www.w3.org/2000/svg" xmlns:xlink="http://www.w3.org/1999/xlink">
 <defs>
  <style type="text/css">
*{stroke-linecap:butt;stroke-linejoin:round;stroke-miterlimit:100000;}
  </style>
 </defs>
 <g id="figure_1">
  <g id="patch_1">
   <path d="M 0 432 
L 720 432 
L 720 0 
L 0 0 
z
" style="fill:#ffffff;"/>
  </g>
  <g id="axes_1">
   <g id="patch_2">
    <path d="M 90 378 
L 648 378 
L 648 43.2 
L 90 43.2 
z
" style="fill:#ffffff;"/>
   </g>
   <g id="matplotlib.axis_1">
    <g id="xtick_1">
     <g id="line2d_1">
      <defs>
       <path d="M 0 0 
L 0 6 
" id="m2f4438d46a" style="stroke:#262626;"/>
      </defs>
      <g>
       <use style="fill:#262626;stroke:#262626;" x="159.75" xlink:href="#m2f4438d46a" y="378.0"/>
      </g>
     </g>
     <g id="text_1">
      <!-- MFCC training -->
      <defs>
       <path d="M 40.4375 6.390625 
Q 35.546875 2.25 31.03125 0.53125 
Q 26.515625 -1.171875 21.34375 -1.171875 
Q 12.796875 -1.171875 8.203125 3 
Q 3.609375 7.171875 3.609375 13.671875 
Q 3.609375 17.484375 5.34375 20.625 
Q 7.078125 23.78125 9.890625 25.6875 
Q 12.703125 27.59375 16.21875 28.5625 
Q 18.796875 29.25 24.03125 29.890625 
Q 34.671875 31.15625 39.703125 32.90625 
Q 39.75 34.71875 39.75 35.203125 
Q 39.75 40.578125 37.25 42.78125 
Q 33.890625 45.75 27.25 45.75 
Q 21.046875 45.75 18.09375 43.578125 
Q 15.140625 41.40625 13.71875 35.890625 
L 5.125 37.0625 
Q 6.296875 42.578125 8.984375 45.96875 
Q 11.671875 49.359375 16.75 51.1875 
Q 21.828125 53.03125 28.515625 53.03125 
Q 35.15625 53.03125 39.296875 51.46875 
Q 43.453125 49.90625 45.40625 47.53125 
Q 47.359375 45.171875 48.140625 41.546875 
Q 48.578125 39.3125 48.578125 33.453125 
L 48.578125 21.734375 
Q 48.578125 9.46875 49.140625 6.21875 
Q 49.703125 2.984375 51.375 0 
L 42.1875 0 
Q 40.828125 2.734375 40.4375 6.390625 
M 39.703125 26.03125 
Q 34.90625 24.078125 25.34375 22.703125 
Q 19.921875 21.921875 17.671875 20.9375 
Q 15.4375 19.96875 14.203125 18.09375 
Q 12.984375 16.21875 12.984375 13.921875 
Q 12.984375 10.40625 15.640625 8.0625 
Q 18.3125 5.71875 23.4375 5.71875 
Q 28.515625 5.71875 32.46875 7.9375 
Q 36.421875 10.15625 38.28125 14.015625 
Q 39.703125 17 39.703125 22.796875 
z
" id="ArialMT-61"/>
       <path d="M 4.984375 -4.296875 
L 13.53125 -5.5625 
Q 14.0625 -9.515625 16.5 -11.328125 
Q 19.78125 -13.765625 25.4375 -13.765625 
Q 31.546875 -13.765625 34.859375 -11.328125 
Q 38.1875 -8.890625 39.359375 -4.5 
Q 40.046875 -1.8125 39.984375 6.78125 
Q 34.234375 0 25.640625 0 
Q 14.9375 0 9.078125 7.71875 
Q 3.21875 15.4375 3.21875 26.21875 
Q 3.21875 33.640625 5.90625 39.90625 
Q 8.59375 46.1875 13.6875 49.609375 
Q 18.796875 53.03125 25.6875 53.03125 
Q 34.859375 53.03125 40.828125 45.609375 
L 40.828125 51.859375 
L 48.921875 51.859375 
L 48.921875 7.03125 
Q 48.921875 -5.078125 46.453125 -10.125 
Q 44 -15.1875 38.640625 -18.109375 
Q 33.296875 -21.046875 25.484375 -21.046875 
Q 16.21875 -21.046875 10.5 -16.875 
Q 4.78125 -12.703125 4.984375 -4.296875 
M 12.25 26.859375 
Q 12.25 16.65625 16.296875 11.96875 
Q 20.359375 7.28125 26.46875 7.28125 
Q 32.515625 7.28125 36.609375 11.9375 
Q 40.71875 16.609375 40.71875 26.5625 
Q 40.71875 36.078125 36.5 40.90625 
Q 32.28125 45.75 26.3125 45.75 
Q 20.453125 45.75 16.34375 40.984375 
Q 12.25 36.234375 12.25 26.859375 
" id="ArialMT-67"/>
       <path d="M 25.78125 7.859375 
L 27.046875 0.09375 
Q 23.34375 -0.6875 20.40625 -0.6875 
Q 15.625 -0.6875 12.984375 0.828125 
Q 10.359375 2.34375 9.28125 4.8125 
Q 8.203125 7.28125 8.203125 15.1875 
L 8.203125 45.015625 
L 1.765625 45.015625 
L 1.765625 51.859375 
L 8.203125 51.859375 
L 8.203125 64.703125 
L 16.9375 69.96875 
L 16.9375 51.859375 
L 25.78125 51.859375 
L 25.78125 45.015625 
L 16.9375 45.015625 
L 16.9375 14.703125 
Q 16.9375 10.9375 17.40625 9.859375 
Q 17.875 8.796875 18.921875 8.15625 
Q 19.96875 7.515625 21.921875 7.515625 
Q 23.390625 7.515625 25.78125 7.859375 
" id="ArialMT-74"/>
       <path d="M 58.796875 25.09375 
L 68.265625 22.703125 
Q 65.28125 11.03125 57.546875 4.90625 
Q 49.8125 -1.21875 38.625 -1.21875 
Q 27.046875 -1.21875 19.796875 3.484375 
Q 12.546875 8.203125 8.765625 17.140625 
Q 4.984375 26.078125 4.984375 36.328125 
Q 4.984375 47.515625 9.25 55.828125 
Q 13.53125 64.15625 21.40625 68.46875 
Q 29.296875 72.796875 38.765625 72.796875 
Q 49.515625 72.796875 56.828125 67.328125 
Q 64.15625 61.859375 67.046875 51.953125 
L 57.71875 49.75 
Q 55.21875 57.5625 50.484375 61.125 
Q 45.75 64.703125 38.578125 64.703125 
Q 30.328125 64.703125 24.78125 60.734375 
Q 19.234375 56.78125 16.984375 50.109375 
Q 14.75 43.453125 14.75 36.375 
Q 14.75 27.25 17.40625 20.4375 
Q 20.0625 13.625 25.671875 10.25 
Q 31.296875 6.890625 37.84375 6.890625 
Q 45.796875 6.890625 51.3125 11.46875 
Q 56.84375 16.0625 58.796875 25.09375 
" id="ArialMT-43"/>
       <path d="M 6.5 0 
L 6.5 51.859375 
L 14.40625 51.859375 
L 14.40625 44 
Q 17.4375 49.515625 20 51.265625 
Q 22.5625 53.03125 25.640625 53.03125 
Q 30.078125 53.03125 34.671875 50.203125 
L 31.640625 42.046875 
Q 28.421875 43.953125 25.203125 43.953125 
Q 22.3125 43.953125 20.015625 42.21875 
Q 17.71875 40.484375 16.75 37.40625 
Q 15.28125 32.71875 15.28125 27.15625 
L 15.28125 0 
z
" id="ArialMT-72"/>
       <path d="M 8.203125 0 
L 8.203125 71.578125 
L 56.5 71.578125 
L 56.5 63.140625 
L 17.671875 63.140625 
L 17.671875 40.96875 
L 51.265625 40.96875 
L 51.265625 32.515625 
L 17.671875 32.515625 
L 17.671875 0 
z
" id="ArialMT-46"/>
       <path d="M 6.59375 0 
L 6.59375 51.859375 
L 14.5 51.859375 
L 14.5 44.484375 
Q 20.21875 53.03125 31 53.03125 
Q 35.6875 53.03125 39.625 51.34375 
Q 43.5625 49.65625 45.515625 46.921875 
Q 47.46875 44.1875 48.25 40.4375 
Q 48.734375 37.984375 48.734375 31.890625 
L 48.734375 0 
L 39.9375 0 
L 39.9375 31.546875 
Q 39.9375 36.921875 38.90625 39.578125 
Q 37.890625 42.234375 35.28125 43.8125 
Q 32.671875 45.40625 29.15625 45.40625 
Q 23.53125 45.40625 19.453125 41.84375 
Q 15.375 38.28125 15.375 28.328125 
L 15.375 0 
z
" id="ArialMT-6e"/>
       <path d="M 6.640625 61.46875 
L 6.640625 71.578125 
L 15.4375 71.578125 
L 15.4375 61.46875 
z
M 6.640625 0 
L 6.640625 51.859375 
L 15.4375 51.859375 
L 15.4375 0 
z
" id="ArialMT-69"/>
       <path d="M 7.421875 0 
L 7.421875 71.578125 
L 21.6875 71.578125 
L 38.625 20.90625 
Q 40.96875 13.8125 42.046875 10.296875 
Q 43.265625 14.203125 45.84375 21.78125 
L 62.984375 71.578125 
L 75.734375 71.578125 
L 75.734375 0 
L 66.609375 0 
L 66.609375 59.90625 
L 45.796875 0 
L 37.25 0 
L 16.546875 60.9375 
L 16.546875 0 
z
" id="ArialMT-4d"/>
       <path id="ArialMT-20"/>
      </defs>
      <g style="fill:#262626;" transform="translate(127.52265625 398.2796875)scale(0.1 -0.1)">
       <use xlink:href="#ArialMT-4d"/>
       <use x="83.30078125" xlink:href="#ArialMT-46"/>
       <use x="144.384765625" xlink:href="#ArialMT-43"/>
       <use x="216.6015625" xlink:href="#ArialMT-43"/>
       <use x="288.818359375" xlink:href="#ArialMT-20"/>
       <use x="316.6015625" xlink:href="#ArialMT-74"/>
       <use x="344.384765625" xlink:href="#ArialMT-72"/>
       <use x="377.685546875" xlink:href="#ArialMT-61"/>
       <use x="433.30078125" xlink:href="#ArialMT-69"/>
       <use x="455.517578125" xlink:href="#ArialMT-6e"/>
       <use x="511.1328125" xlink:href="#ArialMT-69"/>
       <use x="533.349609375" xlink:href="#ArialMT-6e"/>
       <use x="588.96484375" xlink:href="#ArialMT-67"/>
      </g>
     </g>
    </g>
    <g id="xtick_2">
     <g id="line2d_2">
      <g>
       <use style="fill:#262626;stroke:#262626;" x="299.25" xlink:href="#m2f4438d46a" y="378.0"/>
      </g>
     </g>
     <g id="text_2">
      <!-- MFCC testing -->
      <defs>
       <path d="M 42.09375 16.703125 
L 51.171875 15.578125 
Q 49.03125 7.625 43.21875 3.21875 
Q 37.40625 -1.171875 28.375 -1.171875 
Q 17 -1.171875 10.328125 5.828125 
Q 3.65625 12.84375 3.65625 25.484375 
Q 3.65625 38.578125 10.390625 45.796875 
Q 17.140625 53.03125 27.875 53.03125 
Q 38.28125 53.03125 44.875 45.953125 
Q 51.46875 38.875 51.46875 26.03125 
Q 51.46875 25.25 51.421875 23.6875 
L 12.75 23.6875 
Q 13.234375 15.140625 17.578125 10.59375 
Q 21.921875 6.0625 28.421875 6.0625 
Q 33.25 6.0625 36.671875 8.59375 
Q 40.09375 11.140625 42.09375 16.703125 
M 13.234375 30.90625 
L 42.1875 30.90625 
Q 41.609375 37.453125 38.875 40.71875 
Q 34.671875 45.796875 27.984375 45.796875 
Q 21.921875 45.796875 17.796875 41.75 
Q 13.671875 37.703125 13.234375 30.90625 
" id="ArialMT-65"/>
       <path d="M 3.078125 15.484375 
L 11.765625 16.84375 
Q 12.5 11.625 15.84375 8.84375 
Q 19.1875 6.0625 25.203125 6.0625 
Q 31.25 6.0625 34.171875 8.515625 
Q 37.109375 10.984375 37.109375 14.3125 
Q 37.109375 17.28125 34.515625 19 
Q 32.71875 20.171875 25.53125 21.96875 
Q 15.875 24.421875 12.140625 26.203125 
Q 8.40625 27.984375 6.46875 31.125 
Q 4.546875 34.28125 4.546875 38.09375 
Q 4.546875 41.546875 6.125 44.5 
Q 7.71875 47.46875 10.453125 49.421875 
Q 12.5 50.921875 16.03125 51.96875 
Q 19.578125 53.03125 23.640625 53.03125 
Q 29.734375 53.03125 34.34375 51.265625 
Q 38.96875 49.515625 41.15625 46.5 
Q 43.359375 43.5 44.1875 38.484375 
L 35.59375 37.3125 
Q 35.015625 41.3125 32.203125 43.546875 
Q 29.390625 45.796875 24.265625 45.796875 
Q 18.21875 45.796875 15.625 43.796875 
Q 13.03125 41.796875 13.03125 39.109375 
Q 13.03125 37.40625 14.109375 36.03125 
Q 15.1875 34.625 17.484375 33.6875 
Q 18.796875 33.203125 25.25 31.453125 
Q 34.578125 28.953125 38.25 27.359375 
Q 41.9375 25.78125 44.03125 22.75 
Q 46.140625 19.734375 46.140625 15.234375 
Q 46.140625 10.84375 43.578125 6.953125 
Q 41.015625 3.078125 36.171875 0.953125 
Q 31.34375 -1.171875 25.25 -1.171875 
Q 15.140625 -1.171875 9.84375 3.03125 
Q 4.546875 7.234375 3.078125 15.484375 
" id="ArialMT-73"/>
      </defs>
      <g style="fill:#262626;" transform="translate(268.68984375 398.2796875)scale(0.1 -0.1)">
       <use xlink:href="#ArialMT-4d"/>
       <use x="83.30078125" xlink:href="#ArialMT-46"/>
       <use x="144.384765625" xlink:href="#ArialMT-43"/>
       <use x="216.6015625" xlink:href="#ArialMT-43"/>
       <use x="288.818359375" xlink:href="#ArialMT-20"/>
       <use x="316.6015625" xlink:href="#ArialMT-74"/>
       <use x="344.384765625" xlink:href="#ArialMT-65"/>
       <use x="400.0" xlink:href="#ArialMT-73"/>
       <use x="450.0" xlink:href="#ArialMT-74"/>
       <use x="477.783203125" xlink:href="#ArialMT-69"/>
       <use x="500.0" xlink:href="#ArialMT-6e"/>
       <use x="555.615234375" xlink:href="#ArialMT-67"/>
      </g>
     </g>
    </g>
    <g id="xtick_3">
     <g id="line2d_3">
      <g>
       <use style="fill:#262626;stroke:#262626;" x="438.75" xlink:href="#m2f4438d46a" y="378.0"/>
      </g>
     </g>
     <g id="text_3">
      <!-- NCC training -->
      <defs>
       <path d="M 7.625 0 
L 7.625 71.578125 
L 17.328125 71.578125 
L 54.9375 15.375 
L 54.9375 71.578125 
L 64.015625 71.578125 
L 64.015625 0 
L 54.296875 0 
L 16.703125 56.25 
L 16.703125 0 
z
" id="ArialMT-4e"/>
      </defs>
      <g style="fill:#262626;" transform="translate(410.13046875 398.2796875)scale(0.1 -0.1)">
       <use xlink:href="#ArialMT-4e"/>
       <use x="72.216796875" xlink:href="#ArialMT-43"/>
       <use x="144.43359375" xlink:href="#ArialMT-43"/>
       <use x="216.650390625" xlink:href="#ArialMT-20"/>
       <use x="244.43359375" xlink:href="#ArialMT-74"/>
       <use x="272.216796875" xlink:href="#ArialMT-72"/>
       <use x="305.517578125" xlink:href="#ArialMT-61"/>
       <use x="361.1328125" xlink:href="#ArialMT-69"/>
       <use x="383.349609375" xlink:href="#ArialMT-6e"/>
       <use x="438.96484375" xlink:href="#ArialMT-69"/>
       <use x="461.181640625" xlink:href="#ArialMT-6e"/>
       <use x="516.796875" xlink:href="#ArialMT-67"/>
      </g>
     </g>
    </g>
    <g id="xtick_4">
     <g id="line2d_4">
      <g>
       <use style="fill:#262626;stroke:#262626;" x="578.25" xlink:href="#m2f4438d46a" y="378.0"/>
      </g>
     </g>
     <g id="text_4">
      <!-- NCC testing -->
      <g style="fill:#262626;" transform="translate(551.29765625 398.2796875)scale(0.1 -0.1)">
       <use xlink:href="#ArialMT-4e"/>
       <use x="72.216796875" xlink:href="#ArialMT-43"/>
       <use x="144.43359375" xlink:href="#ArialMT-43"/>
       <use x="216.650390625" xlink:href="#ArialMT-20"/>
       <use x="244.43359375" xlink:href="#ArialMT-74"/>
       <use x="272.216796875" xlink:href="#ArialMT-65"/>
       <use x="327.83203125" xlink:href="#ArialMT-73"/>
       <use x="377.83203125" xlink:href="#ArialMT-74"/>
       <use x="405.615234375" xlink:href="#ArialMT-69"/>
       <use x="427.83203125" xlink:href="#ArialMT-6e"/>
       <use x="483.447265625" xlink:href="#ArialMT-67"/>
      </g>
     </g>
    </g>
   </g>
   <g id="matplotlib.axis_2">
    <g id="ytick_1">
     <g id="line2d_5">
      <defs>
       <path d="M 0 0 
L -6 0 
" id="m1ed87df6dc" style="stroke:#262626;"/>
      </defs>
      <g>
       <use style="fill:#262626;stroke:#262626;" x="90.0" xlink:href="#m1ed87df6dc" y="344.52"/>
      </g>
     </g>
     <g id="text_5">
      <!-- 0.2 -->
      <defs>
       <path d="M 4.15625 35.296875 
Q 4.15625 48 6.765625 55.734375 
Q 9.375 63.484375 14.515625 67.671875 
Q 19.671875 71.875 27.484375 71.875 
Q 33.25 71.875 37.59375 69.546875 
Q 41.9375 67.234375 44.765625 62.859375 
Q 47.609375 58.5 49.21875 52.21875 
Q 50.828125 45.953125 50.828125 35.296875 
Q 50.828125 22.703125 48.234375 14.96875 
Q 45.65625 7.234375 40.5 3 
Q 35.359375 -1.21875 27.484375 -1.21875 
Q 17.140625 -1.21875 11.234375 6.203125 
Q 4.15625 15.140625 4.15625 35.296875 
M 13.1875 35.296875 
Q 13.1875 17.671875 17.3125 11.828125 
Q 21.4375 6 27.484375 6 
Q 33.546875 6 37.671875 11.859375 
Q 41.796875 17.71875 41.796875 35.296875 
Q 41.796875 52.984375 37.671875 58.78125 
Q 33.546875 64.59375 27.390625 64.59375 
Q 21.34375 64.59375 17.71875 59.46875 
Q 13.1875 52.9375 13.1875 35.296875 
" id="ArialMT-30"/>
       <path d="M 9.078125 0 
L 9.078125 10.015625 
L 19.09375 10.015625 
L 19.09375 0 
z
" id="ArialMT-2e"/>
       <path d="M 50.34375 8.453125 
L 50.34375 0 
L 3.03125 0 
Q 2.9375 3.171875 4.046875 6.109375 
Q 5.859375 10.9375 9.828125 15.625 
Q 13.8125 20.3125 21.34375 26.46875 
Q 33.015625 36.03125 37.109375 41.625 
Q 41.21875 47.21875 41.21875 52.203125 
Q 41.21875 57.421875 37.46875 61 
Q 33.734375 64.59375 27.734375 64.59375 
Q 21.390625 64.59375 17.578125 60.78125 
Q 13.765625 56.984375 13.71875 50.25 
L 4.6875 51.171875 
Q 5.609375 61.28125 11.65625 66.578125 
Q 17.71875 71.875 27.9375 71.875 
Q 38.234375 71.875 44.234375 66.15625 
Q 50.25 60.453125 50.25 52 
Q 50.25 47.703125 48.484375 43.546875 
Q 46.734375 39.40625 42.65625 34.8125 
Q 38.578125 30.21875 29.109375 22.21875 
Q 21.1875 15.578125 18.9375 13.203125 
Q 16.703125 10.84375 15.234375 8.453125 
z
" id="ArialMT-32"/>
      </defs>
      <g style="fill:#262626;" transform="translate(63.1 347.10515625)scale(0.1 -0.1)">
       <use xlink:href="#ArialMT-30"/>
       <use x="55.615234375" xlink:href="#ArialMT-2e"/>
       <use x="83.3984375" xlink:href="#ArialMT-32"/>
      </g>
     </g>
    </g>
    <g id="ytick_2">
     <g id="line2d_6">
      <g>
       <use style="fill:#262626;stroke:#262626;" x="90.0" xlink:href="#m1ed87df6dc" y="277.56"/>
      </g>
     </g>
     <g id="text_6">
      <!-- 0.4 -->
      <defs>
       <path d="M 32.328125 0 
L 32.328125 17.140625 
L 1.265625 17.140625 
L 1.265625 25.203125 
L 33.9375 71.578125 
L 41.109375 71.578125 
L 41.109375 25.203125 
L 50.78125 25.203125 
L 50.78125 17.140625 
L 41.109375 17.140625 
L 41.109375 0 
z
M 32.328125 25.203125 
L 32.328125 57.46875 
L 9.90625 25.203125 
z
" id="ArialMT-34"/>
      </defs>
      <g style="fill:#262626;" transform="translate(63.1 280.14515625)scale(0.1 -0.1)">
       <use xlink:href="#ArialMT-30"/>
       <use x="55.615234375" xlink:href="#ArialMT-2e"/>
       <use x="83.3984375" xlink:href="#ArialMT-34"/>
      </g>
     </g>
    </g>
    <g id="ytick_3">
     <g id="line2d_7">
      <g>
       <use style="fill:#262626;stroke:#262626;" x="90.0" xlink:href="#m1ed87df6dc" y="210.6"/>
      </g>
     </g>
     <g id="text_7">
      <!-- 0.6 -->
      <defs>
       <path d="M 49.75 54.046875 
L 41.015625 53.375 
Q 39.84375 58.546875 37.703125 60.890625 
Q 34.125 64.65625 28.90625 64.65625 
Q 24.703125 64.65625 21.53125 62.3125 
Q 17.390625 59.28125 14.984375 53.46875 
Q 12.59375 47.65625 12.5 36.921875 
Q 15.671875 41.75 20.265625 44.09375 
Q 24.859375 46.4375 29.890625 46.4375 
Q 38.671875 46.4375 44.84375 39.96875 
Q 51.03125 33.5 51.03125 23.25 
Q 51.03125 16.5 48.125 10.71875 
Q 45.21875 4.9375 40.140625 1.859375 
Q 35.0625 -1.21875 28.609375 -1.21875 
Q 17.625 -1.21875 10.6875 6.859375 
Q 3.765625 14.9375 3.765625 33.5 
Q 3.765625 54.25 11.421875 63.671875 
Q 18.109375 71.875 29.4375 71.875 
Q 37.890625 71.875 43.28125 67.140625 
Q 48.6875 62.40625 49.75 54.046875 
M 13.875 23.1875 
Q 13.875 18.65625 15.796875 14.5 
Q 17.71875 10.359375 21.1875 8.171875 
Q 24.65625 6 28.46875 6 
Q 34.03125 6 38.03125 10.484375 
Q 42.046875 14.984375 42.046875 22.703125 
Q 42.046875 30.125 38.078125 34.390625 
Q 34.125 38.671875 28.125 38.671875 
Q 22.171875 38.671875 18.015625 34.390625 
Q 13.875 30.125 13.875 23.1875 
" id="ArialMT-36"/>
      </defs>
      <g style="fill:#262626;" transform="translate(63.1 213.18515625)scale(0.1 -0.1)">
       <use xlink:href="#ArialMT-30"/>
       <use x="55.615234375" xlink:href="#ArialMT-2e"/>
       <use x="83.3984375" xlink:href="#ArialMT-36"/>
      </g>
     </g>
    </g>
    <g id="ytick_4">
     <g id="line2d_8">
      <g>
       <use style="fill:#262626;stroke:#262626;" x="90.0" xlink:href="#m1ed87df6dc" y="143.64"/>
      </g>
     </g>
     <g id="text_8">
      <!-- 0.8 -->
      <defs>
       <path d="M 17.671875 38.8125 
Q 12.203125 40.828125 9.5625 44.53125 
Q 6.9375 48.25 6.9375 53.421875 
Q 6.9375 61.234375 12.546875 66.546875 
Q 18.171875 71.875 27.484375 71.875 
Q 36.859375 71.875 42.578125 66.421875 
Q 48.296875 60.984375 48.296875 53.171875 
Q 48.296875 48.1875 45.671875 44.5 
Q 43.0625 40.828125 37.75 38.8125 
Q 44.34375 36.671875 47.78125 31.875 
Q 51.21875 27.09375 51.21875 20.453125 
Q 51.21875 11.28125 44.71875 5.03125 
Q 38.234375 -1.21875 27.640625 -1.21875 
Q 17.046875 -1.21875 10.546875 5.046875 
Q 4.046875 11.328125 4.046875 20.703125 
Q 4.046875 27.6875 7.59375 32.390625 
Q 11.140625 37.109375 17.671875 38.8125 
M 15.921875 53.71875 
Q 15.921875 48.640625 19.1875 45.40625 
Q 22.46875 42.1875 27.6875 42.1875 
Q 32.765625 42.1875 36.015625 45.375 
Q 39.265625 48.578125 39.265625 53.21875 
Q 39.265625 58.0625 35.90625 61.359375 
Q 32.5625 64.65625 27.59375 64.65625 
Q 22.5625 64.65625 19.234375 61.421875 
Q 15.921875 58.203125 15.921875 53.71875 
M 13.09375 20.65625 
Q 13.09375 16.890625 14.875 13.375 
Q 16.65625 9.859375 20.171875 7.921875 
Q 23.6875 6 27.734375 6 
Q 34.03125 6 38.125 10.046875 
Q 42.234375 14.109375 42.234375 20.359375 
Q 42.234375 26.703125 38.015625 30.859375 
Q 33.796875 35.015625 27.4375 35.015625 
Q 21.234375 35.015625 17.15625 30.90625 
Q 13.09375 26.8125 13.09375 20.65625 
" id="ArialMT-38"/>
      </defs>
      <g style="fill:#262626;" transform="translate(63.1 146.22515625)scale(0.1 -0.1)">
       <use xlink:href="#ArialMT-30"/>
       <use x="55.615234375" xlink:href="#ArialMT-2e"/>
       <use x="83.3984375" xlink:href="#ArialMT-38"/>
      </g>
     </g>
    </g>
    <g id="ytick_5">
     <g id="line2d_9">
      <g>
       <use style="fill:#262626;stroke:#262626;" x="90.0" xlink:href="#m1ed87df6dc" y="76.68"/>
      </g>
     </g>
     <g id="text_9">
      <!-- 1.0 -->
      <defs>
       <path d="M 37.25 0 
L 28.46875 0 
L 28.46875 56 
Q 25.296875 52.984375 20.140625 49.953125 
Q 14.984375 46.921875 10.890625 45.40625 
L 10.890625 53.90625 
Q 18.265625 57.375 23.78125 62.296875 
Q 29.296875 67.234375 31.59375 71.875 
L 37.25 71.875 
z
" id="ArialMT-31"/>
      </defs>
      <g style="fill:#262626;" transform="translate(63.1 79.26515625)scale(0.1 -0.1)">
       <use xlink:href="#ArialMT-31"/>
       <use x="55.615234375" xlink:href="#ArialMT-2e"/>
       <use x="83.3984375" xlink:href="#ArialMT-30"/>
      </g>
     </g>
    </g>
    <g id="text_10">
     <!-- Consonant accuracy -->
     <defs>
      <path d="M 40.4375 19 
L 49.078125 17.875 
Q 47.65625 8.9375 41.8125 3.875 
Q 35.984375 -1.171875 27.484375 -1.171875 
Q 16.84375 -1.171875 10.375 5.78125 
Q 3.90625 12.75 3.90625 25.734375 
Q 3.90625 34.125 6.6875 40.421875 
Q 9.46875 46.734375 15.15625 49.875 
Q 20.84375 53.03125 27.546875 53.03125 
Q 35.984375 53.03125 41.359375 48.75 
Q 46.734375 44.484375 48.25 36.625 
L 39.703125 35.296875 
Q 38.484375 40.53125 35.375 43.15625 
Q 32.28125 45.796875 27.875 45.796875 
Q 21.234375 45.796875 17.078125 41.03125 
Q 12.9375 36.28125 12.9375 25.984375 
Q 12.9375 15.53125 16.9375 10.796875 
Q 20.953125 6.0625 27.390625 6.0625 
Q 32.5625 6.0625 36.03125 9.234375 
Q 39.5 12.40625 40.4375 19 
" id="ArialMT-63"/>
      <path d="M 40.578125 0 
L 40.578125 7.625 
Q 34.515625 -1.171875 24.125 -1.171875 
Q 19.53125 -1.171875 15.546875 0.578125 
Q 11.578125 2.34375 9.640625 5 
Q 7.71875 7.671875 6.9375 11.53125 
Q 6.390625 14.109375 6.390625 19.734375 
L 6.390625 51.859375 
L 15.1875 51.859375 
L 15.1875 23.09375 
Q 15.1875 16.21875 15.71875 13.8125 
Q 16.546875 10.359375 19.234375 8.375 
Q 21.921875 6.390625 25.875 6.390625 
Q 29.828125 6.390625 33.296875 8.421875 
Q 36.765625 10.453125 38.203125 13.9375 
Q 39.65625 17.4375 39.65625 24.078125 
L 39.65625 51.859375 
L 48.4375 51.859375 
L 48.4375 0 
z
" id="ArialMT-75"/>
      <path d="M 3.328125 25.921875 
Q 3.328125 40.328125 11.328125 47.265625 
Q 18.015625 53.03125 27.640625 53.03125 
Q 38.328125 53.03125 45.109375 46.015625 
Q 51.90625 39.015625 51.90625 26.65625 
Q 51.90625 16.65625 48.90625 10.90625 
Q 45.90625 5.171875 40.15625 2 
Q 34.421875 -1.171875 27.640625 -1.171875 
Q 16.75 -1.171875 10.03125 5.8125 
Q 3.328125 12.796875 3.328125 25.921875 
M 12.359375 25.921875 
Q 12.359375 15.96875 16.703125 11.015625 
Q 21.046875 6.0625 27.640625 6.0625 
Q 34.1875 6.0625 38.53125 11.03125 
Q 42.875 16.015625 42.875 26.21875 
Q 42.875 35.84375 38.5 40.796875 
Q 34.125 45.75 27.640625 45.75 
Q 21.046875 45.75 16.703125 40.8125 
Q 12.359375 35.890625 12.359375 25.921875 
" id="ArialMT-6f"/>
      <path d="M 6.203125 -19.96875 
L 5.21875 -11.71875 
Q 8.109375 -12.5 10.25 -12.5 
Q 13.1875 -12.5 14.9375 -11.515625 
Q 16.703125 -10.546875 17.828125 -8.796875 
Q 18.65625 -7.46875 20.515625 -2.25 
Q 20.75 -1.515625 21.296875 -0.09375 
L 1.609375 51.859375 
L 11.078125 51.859375 
L 21.875 21.828125 
Q 23.96875 16.109375 25.640625 9.8125 
Q 27.15625 15.875 29.25 21.625 
L 40.328125 51.859375 
L 49.125 51.859375 
L 29.390625 -0.875 
Q 26.21875 -9.421875 24.46875 -12.640625 
Q 22.125 -17 19.09375 -19.015625 
Q 16.0625 -21.046875 11.859375 -21.046875 
Q 9.328125 -21.046875 6.203125 -19.96875 
" id="ArialMT-79"/>
     </defs>
     <g style="fill:#262626;" transform="translate(55.78484375 260.7359375)rotate(-90.0)scale(0.11 -0.11)">
      <use xlink:href="#ArialMT-43"/>
      <use x="72.216796875" xlink:href="#ArialMT-6f"/>
      <use x="127.83203125" xlink:href="#ArialMT-6e"/>
      <use x="183.447265625" xlink:href="#ArialMT-73"/>
      <use x="233.447265625" xlink:href="#ArialMT-6f"/>
      <use x="289.0625" xlink:href="#ArialMT-6e"/>
      <use x="344.677734375" xlink:href="#ArialMT-61"/>
      <use x="400.29296875" xlink:href="#ArialMT-6e"/>
      <use x="455.908203125" xlink:href="#ArialMT-74"/>
      <use x="483.69140625" xlink:href="#ArialMT-20"/>
      <use x="511.474609375" xlink:href="#ArialMT-61"/>
      <use x="567.08984375" xlink:href="#ArialMT-63"/>
      <use x="617.08984375" xlink:href="#ArialMT-63"/>
      <use x="667.08984375" xlink:href="#ArialMT-75"/>
      <use x="722.705078125" xlink:href="#ArialMT-72"/>
      <use x="756.005859375" xlink:href="#ArialMT-61"/>
      <use x="811.62109375" xlink:href="#ArialMT-63"/>
      <use x="861.62109375" xlink:href="#ArialMT-79"/>
     </g>
    </g>
   </g>
   <g id="PolyCollection_1">
    <defs>
     <path d="M 131.975129 -112.137599 
L 131.724871 -112.137599 
L 131.699533 -113.666769 
L 131.670248 -115.195939 
L 131.636665 -116.72511 
L 131.598454 -118.25428 
L 131.555324 -119.78345 
L 131.50703 -121.31262 
L 131.453394 -122.84179 
L 131.394317 -124.37096 
L 131.329795 -125.900131 
L 131.259926 -127.429301 
L 131.184931 -128.958471 
L 131.105153 -130.487641 
L 131.021066 -132.016811 
L 130.933276 -133.545981 
L 130.842516 -135.075152 
L 130.749634 -136.604322 
L 130.655582 -138.133492 
L 130.561394 -139.662662 
L 130.468159 -141.191832 
L 130.37699 -142.721002 
L 130.288992 -144.250173 
L 130.205221 -145.779343 
L 130.126649 -147.308513 
L 130.054122 -148.837683 
L 129.988321 -150.366853 
L 129.929734 -151.896023 
L 129.878622 -153.425194 
L 129.835002 -154.954364 
L 129.798628 -156.483534 
L 129.768997 -158.012704 
L 129.745347 -159.541874 
L 129.726683 -161.071044 
L 129.711799 -162.600215 
L 129.699326 -164.129385 
L 129.68777 -165.658555 
L 129.675575 -167.187725 
L 129.661179 -168.716895 
L 129.64308 -170.246065 
L 129.619893 -171.775235 
L 129.590415 -173.304406 
L 129.553673 -174.833576 
L 129.508971 -176.362746 
L 129.455925 -177.891916 
L 129.39448 -179.421086 
L 129.324922 -180.950256 
L 129.247869 -182.479427 
L 129.164251 -184.008597 
L 129.075281 -185.537767 
L 128.982404 -187.066937 
L 128.887252 -188.596107 
L 128.79158 -190.125277 
L 128.697208 -191.654448 
L 128.605961 -193.183618 
L 128.519605 -194.712788 
L 128.439802 -196.241958 
L 128.368059 -197.771128 
L 128.305696 -199.300298 
L 128.253825 -200.829469 
L 128.213329 -202.358639 
L 128.184866 -203.887809 
L 128.168873 -205.416979 
L 128.165576 -206.946149 
L 128.175017 -208.475319 
L 128.197073 -210.00449 
L 128.231483 -211.53366 
L 128.277872 -213.06283 
L 128.335771 -214.592 
L 128.404644 -216.12117 
L 128.483894 -217.65034 
L 128.572878 -219.179511 
L 128.670912 -220.708681 
L 128.777271 -222.237851 
L 128.891193 -223.767021 
L 129.01187 -225.296191 
L 129.138453 -226.825361 
L 129.270042 -228.354532 
L 129.405694 -229.883702 
L 129.544421 -231.412872 
L 129.6852 -232.942042 
L 129.826981 -234.471212 
L 129.968702 -236.000382 
L 130.109305 -237.529552 
L 130.247758 -239.058723 
L 130.383069 -240.587893 
L 130.51431 -242.117063 
L 130.640637 -243.646233 
L 130.761301 -245.175403 
L 130.875671 -246.704573 
L 130.983234 -248.233744 
L 131.083607 -249.762914 
L 131.176541 -251.292084 
L 131.261911 -252.821254 
L 131.339716 -254.350424 
L 131.41007 -255.879594 
L 131.473185 -257.408765 
L 131.529358 -258.937935 
L 131.57896 -260.467105 
L 131.622414 -261.996275 
L 131.660183 -263.525445 
L 132.039817 -263.525445 
L 132.039817 -263.525445 
L 132.077586 -261.996275 
L 132.12104 -260.467105 
L 132.170642 -258.937935 
L 132.226815 -257.408765 
L 132.28993 -255.879594 
L 132.360284 -254.350424 
L 132.438089 -252.821254 
L 132.523459 -251.292084 
L 132.616393 -249.762914 
L 132.716766 -248.233744 
L 132.824329 -246.704573 
L 132.938699 -245.175403 
L 133.059363 -243.646233 
L 133.18569 -242.117063 
L 133.316931 -240.587893 
L 133.452242 -239.058723 
L 133.590695 -237.529552 
L 133.731298 -236.000382 
L 133.873019 -234.471212 
L 134.0148 -232.942042 
L 134.155579 -231.412872 
L 134.294306 -229.883702 
L 134.429958 -228.354532 
L 134.561547 -226.825361 
L 134.68813 -225.296191 
L 134.808807 -223.767021 
L 134.922729 -222.237851 
L 135.029088 -220.708681 
L 135.127122 -219.179511 
L 135.216106 -217.65034 
L 135.295356 -216.12117 
L 135.364229 -214.592 
L 135.422128 -213.06283 
L 135.468517 -211.53366 
L 135.502927 -210.00449 
L 135.524983 -208.475319 
L 135.534424 -206.946149 
L 135.531127 -205.416979 
L 135.515134 -203.887809 
L 135.486671 -202.358639 
L 135.446175 -200.829469 
L 135.394304 -199.300298 
L 135.331941 -197.771128 
L 135.260198 -196.241958 
L 135.180395 -194.712788 
L 135.094039 -193.183618 
L 135.002792 -191.654448 
L 134.90842 -190.125277 
L 134.812748 -188.596107 
L 134.717596 -187.066937 
L 134.624719 -185.537767 
L 134.535749 -184.008597 
L 134.452131 -182.479427 
L 134.375078 -180.950256 
L 134.30552 -179.421086 
L 134.244075 -177.891916 
L 134.191029 -176.362746 
L 134.146327 -174.833576 
L 134.109585 -173.304406 
L 134.080107 -171.775235 
L 134.05692 -170.246065 
L 134.038821 -168.716895 
L 134.024425 -167.187725 
L 134.01223 -165.658555 
L 134.000674 -164.129385 
L 133.988201 -162.600215 
L 133.973317 -161.071044 
L 133.954653 -159.541874 
L 133.931003 -158.012704 
L 133.901372 -156.483534 
L 133.864998 -154.954364 
L 133.821378 -153.425194 
L 133.770266 -151.896023 
L 133.711679 -150.366853 
L 133.645878 -148.837683 
L 133.573351 -147.308513 
L 133.494779 -145.779343 
L 133.411008 -144.250173 
L 133.32301 -142.721002 
L 133.231841 -141.191832 
L 133.138606 -139.662662 
L 133.044418 -138.133492 
L 132.950366 -136.604322 
L 132.857484 -135.075152 
L 132.766724 -133.545981 
L 132.678934 -132.016811 
L 132.594847 -130.487641 
L 132.515069 -128.958471 
L 132.440074 -127.429301 
L 132.370205 -125.900131 
L 132.305683 -124.37096 
L 132.246606 -122.84179 
L 132.19297 -121.31262 
L 132.144676 -119.78345 
L 132.101546 -118.25428 
L 132.063335 -116.72511 
L 132.029752 -115.195939 
L 132.000467 -113.666769 
L 131.975129 -112.137599 
z
" id="mc72963b5dd" style="stroke:#4c4c4c;stroke-width:1.75;"/>
    </defs>
    <g clip-path="url(#p3848c346d0)">
     <use style="fill:#5875a4;stroke:#4c4c4c;stroke-width:1.75;" x="0.0" xlink:href="#mc72963b5dd" y="432.0"/>
    </g>
   </g>
   <g id="PolyCollection_2">
    <defs>
     <path d="M 189.475328 -242.590357 
L 185.824672 -242.590357 
L 185.476494 -242.768387 
L 185.07841 -242.946417 
L 184.62672 -243.124446 
L 184.118112 -243.302476 
L 183.549808 -243.480505 
L 182.919705 -243.658535 
L 182.226517 -243.836565 
L 181.469908 -244.014594 
L 180.650611 -244.192624 
L 179.770523 -244.370653 
L 178.832775 -244.548683 
L 177.84177 -244.726713 
L 176.80318 -244.904742 
L 175.723906 -245.082772 
L 174.611989 -245.260801 
L 173.476492 -245.438831 
L 172.32733 -245.61686 
L 171.175067 -245.79489 
L 170.030693 -245.97292 
L 168.905366 -246.150949 
L 167.810152 -246.328979 
L 166.755759 -246.507008 
L 165.75228 -246.685038 
L 164.808947 -246.863068 
L 163.933927 -247.041097 
L 163.134139 -247.219127 
L 162.415118 -247.397156 
L 161.780927 -247.575186 
L 161.234113 -247.753216 
L 160.775716 -247.931245 
L 160.405312 -248.109275 
L 160.121108 -248.287304 
L 159.920067 -248.465334 
L 159.798052 -248.643364 
L 159.75 -248.821393 
L 159.770096 -248.999423 
L 159.851951 -249.177452 
L 159.988779 -249.355482 
L 160.173552 -249.533512 
L 160.399154 -249.711541 
L 160.658502 -249.889571 
L 160.944659 -250.0676 
L 161.250927 -250.24563 
L 161.570919 -250.42366 
L 161.898627 -250.601689 
L 162.228476 -250.779719 
L 162.555377 -250.957748 
L 162.874777 -251.135778 
L 163.182712 -251.313808 
L 163.475862 -251.491837 
L 163.75161 -251.669867 
L 164.0081 -251.847896 
L 164.244299 -252.025926 
L 164.460046 -252.203956 
L 164.656098 -252.381985 
L 164.834151 -252.560015 
L 164.996847 -252.738044 
L 165.147749 -252.916074 
L 165.291286 -253.094104 
L 165.432667 -253.272133 
L 165.577756 -253.450163 
L 165.732917 -253.628192 
L 165.904832 -253.806222 
L 166.100287 -253.984252 
L 166.325951 -254.162281 
L 166.588143 -254.340311 
L 166.892597 -254.51834 
L 167.244248 -254.69637 
L 167.647035 -254.8744 
L 168.103735 -255.052429 
L 168.615836 -255.230459 
L 169.183462 -255.408488 
L 169.805338 -255.586518 
L 170.478809 -255.764548 
L 171.199912 -255.942577 
L 171.963489 -256.120607 
L 172.763344 -256.298636 
L 173.592431 -256.476666 
L 174.443068 -256.654696 
L 175.307165 -256.832725 
L 176.176462 -257.010755 
L 177.042752 -257.188784 
L 177.898104 -257.366814 
L 178.735058 -257.544844 
L 179.546789 -257.722873 
L 180.327252 -257.900903 
L 181.071277 -258.078932 
L 181.774641 -258.256962 
L 182.434095 -258.434992 
L 183.047367 -258.613021 
L 183.613125 -258.791051 
L 184.130921 -258.96908 
L 184.601113 -259.14711 
L 185.024772 -259.32514 
L 185.403574 -259.503169 
L 185.73969 -259.681199 
L 186.03568 -259.859228 
L 186.294379 -260.037258 
L 186.518802 -260.215287 
L 188.781198 -260.215287 
L 188.781198 -260.215287 
L 189.005621 -260.037258 
L 189.26432 -259.859228 
L 189.56031 -259.681199 
L 189.896426 -259.503169 
L 190.275228 -259.32514 
L 190.698887 -259.14711 
L 191.169079 -258.96908 
L 191.686875 -258.791051 
L 192.252633 -258.613021 
L 192.865905 -258.434992 
L 193.525359 -258.256962 
L 194.228723 -258.078932 
L 194.972748 -257.900903 
L 195.753211 -257.722873 
L 196.564942 -257.544844 
L 197.401896 -257.366814 
L 198.257248 -257.188784 
L 199.123538 -257.010755 
L 199.992835 -256.832725 
L 200.856932 -256.654696 
L 201.707569 -256.476666 
L 202.536656 -256.298636 
L 203.336511 -256.120607 
L 204.100088 -255.942577 
L 204.821191 -255.764548 
L 205.494662 -255.586518 
L 206.116538 -255.408488 
L 206.684164 -255.230459 
L 207.196265 -255.052429 
L 207.652965 -254.8744 
L 208.055752 -254.69637 
L 208.407403 -254.51834 
L 208.711857 -254.340311 
L 208.974049 -254.162281 
L 209.199713 -253.984252 
L 209.395168 -253.806222 
L 209.567083 -253.628192 
L 209.722244 -253.450163 
L 209.867333 -253.272133 
L 210.008714 -253.094104 
L 210.152251 -252.916074 
L 210.303153 -252.738044 
L 210.465849 -252.560015 
L 210.643902 -252.381985 
L 210.839954 -252.203956 
L 211.055701 -252.025926 
L 211.2919 -251.847896 
L 211.54839 -251.669867 
L 211.824138 -251.491837 
L 212.117288 -251.313808 
L 212.425223 -251.135778 
L 212.744623 -250.957748 
L 213.071524 -250.779719 
L 213.401373 -250.601689 
L 213.729081 -250.42366 
L 214.049073 -250.24563 
L 214.355341 -250.0676 
L 214.641498 -249.889571 
L 214.900846 -249.711541 
L 215.126448 -249.533512 
L 215.311221 -249.355482 
L 215.448049 -249.177452 
L 215.529904 -248.999423 
L 215.55 -248.821393 
L 215.501948 -248.643364 
L 215.379933 -248.465334 
L 215.178892 -248.287304 
L 214.894688 -248.109275 
L 214.524284 -247.931245 
L 214.065887 -247.753216 
L 213.519073 -247.575186 
L 212.884882 -247.397156 
L 212.165861 -247.219127 
L 211.366073 -247.041097 
L 210.491053 -246.863068 
L 209.54772 -246.685038 
L 208.544241 -246.507008 
L 207.489848 -246.328979 
L 206.394634 -246.150949 
L 205.269307 -245.97292 
L 204.124933 -245.79489 
L 202.97267 -245.61686 
L 201.823508 -245.438831 
L 200.688011 -245.260801 
L 199.576094 -245.082772 
L 198.49682 -244.904742 
L 197.45823 -244.726713 
L 196.467225 -244.548683 
L 195.529477 -244.370653 
L 194.649389 -244.192624 
L 193.830092 -244.014594 
L 193.073483 -243.836565 
L 192.380295 -243.658535 
L 191.750192 -243.480505 
L 191.181888 -243.302476 
L 190.67328 -243.124446 
L 190.22159 -242.946417 
L 189.823506 -242.768387 
L 189.475328 -242.590357 
z
" id="m60e4751167" style="stroke:#4c4c4c;stroke-width:1.75;"/>
    </defs>
    <g clip-path="url(#p3848c346d0)">
     <use style="fill:#5f9e6e;stroke:#4c4c4c;stroke-width:1.75;" x="0.0" xlink:href="#m60e4751167" y="432.0"/>
    </g>
   </g>
   <g id="PolyCollection_3">
    <defs>
     <path d="M 271.54121 -97.545513 
L 271.15879 -97.545513 
L 271.120723 -98.750359 
L 271.07719 -99.955206 
L 271.027877 -101.160052 
L 270.972546 -102.364898 
L 270.911063 -103.569744 
L 270.84341 -104.77459 
L 270.769704 -105.979436 
L 270.690208 -107.184282 
L 270.605343 -108.389128 
L 270.515686 -109.593974 
L 270.421967 -110.79882 
L 270.325058 -112.003666 
L 270.225957 -113.208512 
L 270.125757 -114.413359 
L 270.025616 -115.618205 
L 269.926719 -116.823051 
L 269.830237 -118.027897 
L 269.737281 -119.232743 
L 269.648855 -120.437589 
L 269.565815 -121.642435 
L 269.488831 -122.847281 
L 269.418347 -124.052127 
L 269.354561 -125.256973 
L 269.297403 -126.461819 
L 269.246532 -127.666665 
L 269.201336 -128.871512 
L 269.160949 -130.076358 
L 269.124274 -131.281204 
L 269.090022 -132.48605 
L 269.056754 -133.690896 
L 269.022933 -134.895742 
L 268.986981 -136.100588 
L 268.947338 -137.305434 
L 268.902529 -138.51028 
L 268.851221 -139.715126 
L 268.792282 -140.919972 
L 268.724835 -142.124818 
L 268.648304 -143.329665 
L 268.562451 -144.534511 
L 268.467401 -145.739357 
L 268.363655 -146.944203 
L 268.252093 -148.149049 
L 268.133957 -149.353895 
L 268.01083 -150.558741 
L 267.884592 -151.763587 
L 267.75737 -152.968433 
L 267.631478 -154.173279 
L 267.509343 -155.378125 
L 267.393436 -156.582971 
L 267.286192 -157.787818 
L 267.189935 -158.992664 
L 267.106803 -160.19751 
L 267.038688 -161.402356 
L 266.987177 -162.607202 
L 266.953508 -163.812048 
L 266.938541 -165.016894 
L 266.942745 -166.22174 
L 266.966192 -167.426586 
L 267.008572 -168.631432 
L 267.069219 -169.836278 
L 267.147149 -171.041124 
L 267.241102 -172.245971 
L 267.349599 -173.450817 
L 267.470995 -174.655663 
L 267.603535 -175.860509 
L 267.74541 -177.065355 
L 267.89481 -178.270201 
L 268.049967 -179.475047 
L 268.209197 -180.679893 
L 268.370925 -181.884739 
L 268.533714 -183.089585 
L 268.696272 -184.294431 
L 268.857462 -185.499277 
L 269.016303 -186.704124 
L 269.171958 -187.90897 
L 269.323727 -189.113816 
L 269.471033 -190.318662 
L 269.613404 -191.523508 
L 269.750462 -192.728354 
L 269.881903 -193.9332 
L 270.007488 -195.138046 
L 270.127029 -196.342892 
L 270.240383 -197.547738 
L 270.347444 -198.752584 
L 270.448144 -199.95743 
L 270.542444 -201.162277 
L 270.630341 -202.367123 
L 270.711868 -203.571969 
L 270.787093 -204.776815 
L 270.856122 -205.981661 
L 270.919099 -207.186507 
L 270.976208 -208.391353 
L 271.02767 -209.596199 
L 271.07374 -210.801045 
L 271.114704 -212.005891 
L 271.150875 -213.210737 
L 271.182586 -214.415583 
L 271.210183 -215.62043 
L 271.234022 -216.825276 
L 271.465978 -216.825276 
L 271.465978 -216.825276 
L 271.489817 -215.62043 
L 271.517414 -214.415583 
L 271.549125 -213.210737 
L 271.585296 -212.005891 
L 271.62626 -210.801045 
L 271.67233 -209.596199 
L 271.723792 -208.391353 
L 271.780901 -207.186507 
L 271.843878 -205.981661 
L 271.912907 -204.776815 
L 271.988132 -203.571969 
L 272.069659 -202.367123 
L 272.157556 -201.162277 
L 272.251856 -199.95743 
L 272.352556 -198.752584 
L 272.459617 -197.547738 
L 272.572971 -196.342892 
L 272.692512 -195.138046 
L 272.818097 -193.9332 
L 272.949538 -192.728354 
L 273.086596 -191.523508 
L 273.228967 -190.318662 
L 273.376273 -189.113816 
L 273.528042 -187.90897 
L 273.683697 -186.704124 
L 273.842538 -185.499277 
L 274.003728 -184.294431 
L 274.166286 -183.089585 
L 274.329075 -181.884739 
L 274.490803 -180.679893 
L 274.650033 -179.475047 
L 274.80519 -178.270201 
L 274.95459 -177.065355 
L 275.096465 -175.860509 
L 275.229005 -174.655663 
L 275.350401 -173.450817 
L 275.458898 -172.245971 
L 275.552851 -171.041124 
L 275.630781 -169.836278 
L 275.691428 -168.631432 
L 275.733808 -167.426586 
L 275.757255 -166.22174 
L 275.761459 -165.016894 
L 275.746492 -163.812048 
L 275.712823 -162.607202 
L 275.661312 -161.402356 
L 275.593197 -160.19751 
L 275.510065 -158.992664 
L 275.413808 -157.787818 
L 275.306564 -156.582971 
L 275.190657 -155.378125 
L 275.068522 -154.173279 
L 274.94263 -152.968433 
L 274.815408 -151.763587 
L 274.68917 -150.558741 
L 274.566043 -149.353895 
L 274.447907 -148.149049 
L 274.336345 -146.944203 
L 274.232599 -145.739357 
L 274.137549 -144.534511 
L 274.051696 -143.329665 
L 273.975165 -142.124818 
L 273.907718 -140.919972 
L 273.848779 -139.715126 
L 273.797471 -138.51028 
L 273.752662 -137.305434 
L 273.713019 -136.100588 
L 273.677067 -134.895742 
L 273.643246 -133.690896 
L 273.609978 -132.48605 
L 273.575726 -131.281204 
L 273.539051 -130.076358 
L 273.498664 -128.871512 
L 273.453468 -127.666665 
L 273.402597 -126.461819 
L 273.345439 -125.256973 
L 273.281653 -124.052127 
L 273.211169 -122.847281 
L 273.134185 -121.642435 
L 273.051145 -120.437589 
L 272.962719 -119.232743 
L 272.869763 -118.027897 
L 272.773281 -116.823051 
L 272.674384 -115.618205 
L 272.574243 -114.413359 
L 272.474043 -113.208512 
L 272.374942 -112.003666 
L 272.278033 -110.79882 
L 272.184314 -109.593974 
L 272.094657 -108.389128 
L 272.009792 -107.184282 
L 271.930296 -105.979436 
L 271.85659 -104.77459 
L 271.788937 -103.569744 
L 271.727454 -102.364898 
L 271.672123 -101.160052 
L 271.62281 -99.955206 
L 271.579277 -98.750359 
L 271.54121 -97.545513 
z
" id="m2d3c146b0c" style="stroke:#4c4c4c;stroke-width:1.75;"/>
    </defs>
    <g clip-path="url(#p3848c346d0)">
     <use style="fill:#5875a4;stroke:#4c4c4c;stroke-width:1.75;" x="0.0" xlink:href="#m2d3c146b0c" y="432.0"/>
    </g>
   </g>
   <g id="PolyCollection_4">
    <defs>
     <path d="M 327.833511 -129.473819 
L 326.466489 -129.473819 
L 326.316537 -129.684828 
L 326.142385 -129.895837 
L 325.942123 -130.106846 
L 325.714087 -130.317855 
L 325.456931 -130.528864 
L 325.169692 -130.739873 
L 324.851842 -130.950882 
L 324.503322 -131.16189 
L 324.124559 -131.372899 
L 323.716455 -131.583908 
L 323.280353 -131.794917 
L 322.817981 -132.005926 
L 322.33138 -132.216935 
L 321.822806 -132.427944 
L 321.294631 -132.638953 
L 320.749241 -132.849962 
L 320.188928 -133.060971 
L 319.615798 -133.27198 
L 319.031697 -133.482989 
L 318.438143 -133.693998 
L 317.83629 -133.905007 
L 317.226905 -134.116016 
L 316.610361 -134.327025 
L 315.986659 -134.538034 
L 315.355448 -134.749043 
L 314.716072 -134.960052 
L 314.067618 -135.171061 
L 313.408979 -135.38207 
L 312.738928 -135.593079 
L 312.056209 -135.804088 
L 311.359643 -136.015097 
L 310.648253 -136.226105 
L 309.921413 -136.437114 
L 309.179013 -136.648123 
L 308.421644 -136.859132 
L 307.65079 -137.070141 
L 306.869015 -137.28115 
L 306.080138 -137.492159 
L 305.28937 -137.703168 
L 304.503413 -137.914177 
L 303.73048 -138.125186 
L 302.980248 -138.336195 
L 302.263719 -138.547204 
L 301.592991 -138.758213 
L 300.980945 -138.969222 
L 300.440842 -139.180231 
L 299.985872 -139.39124 
L 299.628644 -139.602249 
L 299.38067 -139.813258 
L 299.25185 -140.024267 
L 299.25 -140.235276 
L 299.380437 -140.446285 
L 299.645656 -140.657294 
L 300.045115 -140.868303 
L 300.575132 -141.079312 
L 301.228922 -141.29032 
L 301.996754 -141.501329 
L 302.86624 -141.712338 
L 303.822727 -141.923347 
L 304.8498 -142.134356 
L 305.92984 -142.345365 
L 307.044643 -142.556374 
L 308.176054 -142.767383 
L 309.306587 -142.978392 
L 310.420008 -143.189401 
L 311.501855 -143.40041 
L 312.539851 -143.611419 
L 313.524226 -143.822428 
L 314.447898 -144.033437 
L 315.306534 -144.244446 
L 316.098473 -144.455455 
L 316.824535 -144.666464 
L 317.487719 -144.877473 
L 318.092819 -145.088482 
L 318.645979 -145.299491 
L 319.154216 -145.5105 
L 319.624944 -145.721509 
L 320.065524 -145.932518 
L 320.482856 -146.143527 
L 320.883052 -146.354535 
L 321.271186 -146.565544 
L 321.651135 -146.776553 
L 322.025512 -146.987562 
L 322.39569 -147.198571 
L 322.761895 -147.40958 
L 323.123361 -147.620589 
L 323.478533 -147.831598 
L 323.825293 -148.042607 
L 324.161185 -148.253616 
L 324.483648 -148.464625 
L 324.790209 -148.675634 
L 325.078652 -148.886643 
L 325.34715 -149.097652 
L 325.594348 -149.308661 
L 325.819412 -149.51967 
L 326.022031 -149.730679 
L 326.202398 -149.941688 
L 326.361157 -150.152697 
L 326.499332 -150.363706 
L 327.800668 -150.363706 
L 327.800668 -150.363706 
L 327.938843 -150.152697 
L 328.097602 -149.941688 
L 328.277969 -149.730679 
L 328.480588 -149.51967 
L 328.705652 -149.308661 
L 328.95285 -149.097652 
L 329.221348 -148.886643 
L 329.509791 -148.675634 
L 329.816352 -148.464625 
L 330.138815 -148.253616 
L 330.474707 -148.042607 
L 330.821467 -147.831598 
L 331.176639 -147.620589 
L 331.538105 -147.40958 
L 331.90431 -147.198571 
L 332.274488 -146.987562 
L 332.648865 -146.776553 
L 333.028814 -146.565544 
L 333.416948 -146.354535 
L 333.817144 -146.143527 
L 334.234476 -145.932518 
L 334.675056 -145.721509 
L 335.145784 -145.5105 
L 335.654021 -145.299491 
L 336.207181 -145.088482 
L 336.812281 -144.877473 
L 337.475465 -144.666464 
L 338.201527 -144.455455 
L 338.993466 -144.244446 
L 339.852102 -144.033437 
L 340.775774 -143.822428 
L 341.760149 -143.611419 
L 342.798145 -143.40041 
L 343.879992 -143.189401 
L 344.993413 -142.978392 
L 346.123946 -142.767383 
L 347.255357 -142.556374 
L 348.37016 -142.345365 
L 349.4502 -142.134356 
L 350.477273 -141.923347 
L 351.43376 -141.712338 
L 352.303246 -141.501329 
L 353.071078 -141.29032 
L 353.724868 -141.079312 
L 354.254885 -140.868303 
L 354.654344 -140.657294 
L 354.919563 -140.446285 
L 355.05 -140.235276 
L 355.04815 -140.024267 
L 354.91933 -139.813258 
L 354.671356 -139.602249 
L 354.314128 -139.39124 
L 353.859158 -139.180231 
L 353.319055 -138.969222 
L 352.707009 -138.758213 
L 352.036281 -138.547204 
L 351.319752 -138.336195 
L 350.56952 -138.125186 
L 349.796587 -137.914177 
L 349.01063 -137.703168 
L 348.219862 -137.492159 
L 347.430985 -137.28115 
L 346.64921 -137.070141 
L 345.878356 -136.859132 
L 345.120987 -136.648123 
L 344.378587 -136.437114 
L 343.651747 -136.226105 
L 342.940357 -136.015097 
L 342.243791 -135.804088 
L 341.561072 -135.593079 
L 340.891021 -135.38207 
L 340.232382 -135.171061 
L 339.583928 -134.960052 
L 338.944552 -134.749043 
L 338.313341 -134.538034 
L 337.689639 -134.327025 
L 337.073095 -134.116016 
L 336.46371 -133.905007 
L 335.861857 -133.693998 
L 335.268303 -133.482989 
L 334.684202 -133.27198 
L 334.111072 -133.060971 
L 333.550759 -132.849962 
L 333.005369 -132.638953 
L 332.477194 -132.427944 
L 331.96862 -132.216935 
L 331.482019 -132.005926 
L 331.019647 -131.794917 
L 330.583545 -131.583908 
L 330.175441 -131.372899 
L 329.796678 -131.16189 
L 329.448158 -130.950882 
L 329.130308 -130.739873 
L 328.843069 -130.528864 
L 328.585913 -130.317855 
L 328.357877 -130.106846 
L 328.157615 -129.895837 
L 327.983463 -129.684828 
L 327.833511 -129.473819 
z
" id="m3e12727724" style="stroke:#4c4c4c;stroke-width:1.75;"/>
    </defs>
    <g clip-path="url(#p3848c346d0)">
     <use style="fill:#5f9e6e;stroke:#4c4c4c;stroke-width:1.75;" x="0.0" xlink:href="#m3e12727724" y="432.0"/>
    </g>
   </g>
   <g id="PolyCollection_5">
    <defs>
     <path d="M 411.333144 -278.818683 
L 410.366856 -278.818683 
L 410.265652 -278.977118 
L 410.148465 -279.135553 
L 410.013938 -279.293989 
L 409.860829 -279.452424 
L 409.688063 -279.610859 
L 409.494771 -279.769294 
L 409.28034 -279.927729 
L 409.044441 -280.086165 
L 408.787061 -280.2446 
L 408.508511 -280.403035 
L 408.209431 -280.56147 
L 407.89077 -280.719906 
L 407.553756 -280.878341 
L 407.199848 -281.036776 
L 406.830678 -281.195211 
L 406.447985 -281.353646 
L 406.053535 -281.512082 
L 405.649056 -281.670517 
L 405.23617 -281.828952 
L 404.816336 -281.987387 
L 404.390819 -282.145823 
L 403.960675 -282.304258 
L 403.526765 -282.462693 
L 403.089793 -282.621128 
L 402.65037 -282.779563 
L 402.209106 -282.937999 
L 401.766709 -283.096434 
L 401.324102 -283.254869 
L 400.882531 -283.413304 
L 400.443672 -283.571739 
L 400.009711 -283.730175 
L 399.583394 -283.88861 
L 399.168045 -284.047045 
L 398.76753 -284.20548 
L 398.386188 -284.363916 
L 398.028708 -284.522351 
L 397.699966 -284.680786 
L 397.404835 -284.839221 
L 397.147966 -284.997656 
L 396.933563 -285.156092 
L 396.765164 -285.314527 
L 396.645438 -285.472962 
L 396.576018 -285.631397 
L 396.557378 -285.789833 
L 396.588761 -285.948268 
L 396.668178 -286.106703 
L 396.792454 -286.265138 
L 396.957345 -286.423573 
L 397.157707 -286.582009 
L 397.387711 -286.740444 
L 397.641089 -286.898879 
L 397.9114 -287.057314 
L 398.192306 -287.215749 
L 398.477833 -287.374185 
L 398.762607 -287.53262 
L 399.04206 -287.691055 
L 399.312585 -287.84949 
L 399.571643 -288.007926 
L 399.817811 -288.166361 
L 400.050772 -288.324796 
L 400.27126 -288.483231 
L 400.480952 -288.641666 
L 400.682316 -288.800102 
L 400.878438 -288.958537 
L 401.072821 -289.116972 
L 401.269183 -289.275407 
L 401.471246 -289.433843 
L 401.68255 -289.592278 
L 401.906274 -289.750713 
L 402.145093 -289.909148 
L 402.401058 -290.067583 
L 402.67552 -290.226019 
L 402.969084 -290.384454 
L 403.2816 -290.542889 
L 403.612181 -290.701324 
L 403.959263 -290.859759 
L 404.320675 -291.018195 
L 404.693741 -291.17663 
L 405.075387 -291.335065 
L 405.462257 -291.4935 
L 405.850841 -291.651936 
L 406.237587 -291.810371 
L 406.619016 -291.968806 
L 406.991819 -292.127241 
L 407.352952 -292.285676 
L 407.699699 -292.444112 
L 408.029729 -292.602547 
L 408.341138 -292.760982 
L 408.63246 -292.919417 
L 408.902677 -293.077853 
L 409.151203 -293.236288 
L 409.377864 -293.394723 
L 409.582858 -293.553158 
L 409.766716 -293.711593 
L 409.930251 -293.870029 
L 410.074508 -294.028464 
L 410.200711 -294.186899 
L 410.310209 -294.345334 
L 410.404433 -294.503769 
L 411.295567 -294.503769 
L 411.295567 -294.503769 
L 411.389791 -294.345334 
L 411.499289 -294.186899 
L 411.625492 -294.028464 
L 411.769749 -293.870029 
L 411.933284 -293.711593 
L 412.117142 -293.553158 
L 412.322136 -293.394723 
L 412.548797 -293.236288 
L 412.797323 -293.077853 
L 413.06754 -292.919417 
L 413.358862 -292.760982 
L 413.670271 -292.602547 
L 414.000301 -292.444112 
L 414.347048 -292.285676 
L 414.708181 -292.127241 
L 415.080984 -291.968806 
L 415.462413 -291.810371 
L 415.849159 -291.651936 
L 416.237743 -291.4935 
L 416.624613 -291.335065 
L 417.006259 -291.17663 
L 417.379325 -291.018195 
L 417.740737 -290.859759 
L 418.087819 -290.701324 
L 418.4184 -290.542889 
L 418.730916 -290.384454 
L 419.02448 -290.226019 
L 419.298942 -290.067583 
L 419.554907 -289.909148 
L 419.793726 -289.750713 
L 420.01745 -289.592278 
L 420.228754 -289.433843 
L 420.430817 -289.275407 
L 420.627179 -289.116972 
L 420.821562 -288.958537 
L 421.017684 -288.800102 
L 421.219048 -288.641666 
L 421.42874 -288.483231 
L 421.649228 -288.324796 
L 421.882189 -288.166361 
L 422.128357 -288.007926 
L 422.387415 -287.84949 
L 422.65794 -287.691055 
L 422.937393 -287.53262 
L 423.222167 -287.374185 
L 423.507694 -287.215749 
L 423.7886 -287.057314 
L 424.058911 -286.898879 
L 424.312289 -286.740444 
L 424.542293 -286.582009 
L 424.742655 -286.423573 
L 424.907546 -286.265138 
L 425.031822 -286.106703 
L 425.111239 -285.948268 
L 425.142622 -285.789833 
L 425.123982 -285.631397 
L 425.054562 -285.472962 
L 424.934836 -285.314527 
L 424.766437 -285.156092 
L 424.552034 -284.997656 
L 424.295165 -284.839221 
L 424.000034 -284.680786 
L 423.671292 -284.522351 
L 423.313812 -284.363916 
L 422.93247 -284.20548 
L 422.531955 -284.047045 
L 422.116606 -283.88861 
L 421.690289 -283.730175 
L 421.256328 -283.571739 
L 420.817469 -283.413304 
L 420.375898 -283.254869 
L 419.933291 -283.096434 
L 419.490894 -282.937999 
L 419.04963 -282.779563 
L 418.610207 -282.621128 
L 418.173235 -282.462693 
L 417.739325 -282.304258 
L 417.309181 -282.145823 
L 416.883664 -281.987387 
L 416.46383 -281.828952 
L 416.050944 -281.670517 
L 415.646465 -281.512082 
L 415.252015 -281.353646 
L 414.869322 -281.195211 
L 414.500152 -281.036776 
L 414.146244 -280.878341 
L 413.80923 -280.719906 
L 413.490569 -280.56147 
L 413.191489 -280.403035 
L 412.912939 -280.2446 
L 412.655559 -280.086165 
L 412.41966 -279.927729 
L 412.205229 -279.769294 
L 412.011937 -279.610859 
L 411.839171 -279.452424 
L 411.686062 -279.293989 
L 411.551535 -279.135553 
L 411.434348 -278.977118 
L 411.333144 -278.818683 
z
" id="me34ba4b680" style="stroke:#4c4c4c;stroke-width:1.75;"/>
    </defs>
    <g clip-path="url(#p3848c346d0)">
     <use style="fill:#5875a4;stroke:#4c4c4c;stroke-width:1.75;" x="0.0" xlink:href="#me34ba4b680" y="432.0"/>
    </g>
   </g>
   <g id="PolyCollection_6">
    <defs>
     <path d="M 467.26466 -338.779742 
L 466.03534 -338.779742 
L 465.914847 -338.877054 
L 465.777034 -338.974366 
L 465.620761 -339.071678 
L 465.445083 -339.16899 
L 465.249301 -339.266302 
L 465.033016 -339.363615 
L 464.796176 -339.460927 
L 464.53912 -339.558239 
L 464.262611 -339.655551 
L 463.967856 -339.752863 
L 463.656514 -339.850175 
L 463.330691 -339.947487 
L 462.99291 -340.044799 
L 462.646075 -340.142111 
L 462.293414 -340.239424 
L 461.938404 -340.336736 
L 461.58469 -340.434048 
L 461.235985 -340.53136 
L 460.895968 -340.628672 
L 460.568177 -340.725984 
L 460.255894 -340.823296 
L 459.962044 -340.920608 
L 459.689088 -341.01792 
L 459.438929 -341.115233 
L 459.212831 -341.212545 
L 459.011348 -341.309857 
L 458.834271 -341.407169 
L 458.680591 -341.504481 
L 458.548481 -341.601793 
L 458.435295 -341.699105 
L 458.337592 -341.796417 
L 458.251173 -341.893729 
L 458.171142 -341.991042 
L 458.091986 -342.088354 
L 458.007676 -342.185666 
L 457.911775 -342.282978 
L 457.797576 -342.38029 
L 457.658242 -342.477602 
L 457.48696 -342.574914 
L 457.277111 -342.672226 
L 457.022429 -342.769538 
L 456.717179 -342.866851 
L 456.356317 -342.964163 
L 455.935661 -343.061475 
L 455.452033 -343.158787 
L 454.903408 -343.256099 
L 454.289028 -343.353411 
L 453.60951 -343.450723 
L 452.866923 -343.548035 
L 452.06484 -343.645347 
L 451.208364 -343.742659 
L 450.304117 -343.839972 
L 449.360206 -343.937284 
L 448.386145 -344.034596 
L 447.392744 -344.131908 
L 446.391974 -344.22922 
L 445.39678 -344.326532 
L 444.420875 -344.423844 
L 443.478501 -344.521156 
L 442.58416 -344.618468 
L 441.752331 -344.715781 
L 440.997162 -344.813093 
L 440.332169 -344.910405 
L 439.769913 -345.007717 
L 439.321711 -345.105029 
L 438.997339 -345.202341 
L 438.80478 -345.299653 
L 438.75 -345.396965 
L 438.836764 -345.494277 
L 439.066512 -345.59159 
L 439.438284 -345.688902 
L 439.948709 -345.786214 
L 440.592061 -345.883526 
L 441.360375 -345.980838 
L 442.243626 -346.07815 
L 443.229964 -346.175462 
L 444.306003 -346.272774 
L 445.457143 -346.370086 
L 446.667932 -346.467399 
L 447.922437 -346.564711 
L 449.204626 -346.662023 
L 450.498738 -346.759335 
L 451.789637 -346.856647 
L 453.063124 -346.953959 
L 454.30622 -347.051271 
L 455.507385 -347.148583 
L 456.656692 -347.245895 
L 457.745935 -347.343208 
L 458.768682 -347.44052 
L 459.72027 -347.537832 
L 460.597746 -347.635144 
L 461.399766 -347.732456 
L 462.126453 -347.829768 
L 462.779227 -347.92708 
L 463.360616 -348.024392 
L 463.874056 -348.121704 
L 464.323688 -348.219017 
L 464.714161 -348.316329 
L 465.050449 -348.413641 
L 468.249551 -348.413641 
L 468.249551 -348.413641 
L 468.585839 -348.316329 
L 468.976312 -348.219017 
L 469.425944 -348.121704 
L 469.939384 -348.024392 
L 470.520773 -347.92708 
L 471.173547 -347.829768 
L 471.900234 -347.732456 
L 472.702254 -347.635144 
L 473.57973 -347.537832 
L 474.531318 -347.44052 
L 475.554065 -347.343208 
L 476.643308 -347.245895 
L 477.792615 -347.148583 
L 478.99378 -347.051271 
L 480.236876 -346.953959 
L 481.510363 -346.856647 
L 482.801262 -346.759335 
L 484.095374 -346.662023 
L 485.377563 -346.564711 
L 486.632068 -346.467399 
L 487.842857 -346.370086 
L 488.993997 -346.272774 
L 490.070036 -346.175462 
L 491.056374 -346.07815 
L 491.939625 -345.980838 
L 492.707939 -345.883526 
L 493.351291 -345.786214 
L 493.861716 -345.688902 
L 494.233488 -345.59159 
L 494.463236 -345.494277 
L 494.55 -345.396965 
L 494.49522 -345.299653 
L 494.302661 -345.202341 
L 493.978289 -345.105029 
L 493.530087 -345.007717 
L 492.967831 -344.910405 
L 492.302838 -344.813093 
L 491.547669 -344.715781 
L 490.71584 -344.618468 
L 489.821499 -344.521156 
L 488.879125 -344.423844 
L 487.90322 -344.326532 
L 486.908026 -344.22922 
L 485.907256 -344.131908 
L 484.913855 -344.034596 
L 483.939794 -343.937284 
L 482.995883 -343.839972 
L 482.091636 -343.742659 
L 481.23516 -343.645347 
L 480.433077 -343.548035 
L 479.69049 -343.450723 
L 479.010972 -343.353411 
L 478.396592 -343.256099 
L 477.847967 -343.158787 
L 477.364339 -343.061475 
L 476.943683 -342.964163 
L 476.582821 -342.866851 
L 476.277571 -342.769538 
L 476.022889 -342.672226 
L 475.81304 -342.574914 
L 475.641758 -342.477602 
L 475.502424 -342.38029 
L 475.388225 -342.282978 
L 475.292324 -342.185666 
L 475.208014 -342.088354 
L 475.128858 -341.991042 
L 475.048827 -341.893729 
L 474.962408 -341.796417 
L 474.864705 -341.699105 
L 474.751519 -341.601793 
L 474.619409 -341.504481 
L 474.465729 -341.407169 
L 474.288652 -341.309857 
L 474.087169 -341.212545 
L 473.861071 -341.115233 
L 473.610912 -341.01792 
L 473.337956 -340.920608 
L 473.044106 -340.823296 
L 472.731823 -340.725984 
L 472.404032 -340.628672 
L 472.064015 -340.53136 
L 471.71531 -340.434048 
L 471.361596 -340.336736 
L 471.006586 -340.239424 
L 470.653925 -340.142111 
L 470.30709 -340.044799 
L 469.969309 -339.947487 
L 469.643486 -339.850175 
L 469.332144 -339.752863 
L 469.037389 -339.655551 
L 468.76088 -339.558239 
L 468.503824 -339.460927 
L 468.266984 -339.363615 
L 468.050699 -339.266302 
L 467.854917 -339.16899 
L 467.679239 -339.071678 
L 467.522966 -338.974366 
L 467.385153 -338.877054 
L 467.26466 -338.779742 
z
" id="mb2e93d30a9" style="stroke:#4c4c4c;stroke-width:1.75;"/>
    </defs>
    <g clip-path="url(#p3848c346d0)">
     <use style="fill:#5f9e6e;stroke:#4c4c4c;stroke-width:1.75;" x="0.0" xlink:href="#mb2e93d30a9" y="432.0"/>
    </g>
   </g>
   <g id="PolyCollection_7">
    <defs>
     <path d="M 551.228861 -146.38853 
L 549.471139 -146.38853 
L 549.29227 -146.543861 
L 549.084848 -146.699191 
L 548.846006 -146.854522 
L 548.572915 -147.009853 
L 548.262857 -147.165183 
L 547.913311 -147.320514 
L 547.522032 -147.475845 
L 547.087155 -147.631176 
L 546.607284 -147.786506 
L 546.081597 -147.941837 
L 545.509941 -148.097168 
L 544.892921 -148.252499 
L 544.231989 -148.407829 
L 543.529509 -148.56316 
L 542.788815 -148.718491 
L 542.014239 -148.873821 
L 541.211125 -149.029152 
L 540.385804 -149.184483 
L 539.545542 -149.339814 
L 538.698453 -149.495144 
L 537.853375 -149.650475 
L 537.019706 -149.805806 
L 536.20721 -149.961137 
L 535.425783 -150.116467 
L 534.685192 -150.271798 
L 533.994788 -150.427129 
L 533.363207 -150.582459 
L 532.798059 -150.73779 
L 532.30563 -150.893121 
L 531.89059 -151.048452 
L 531.555747 -151.203782 
L 531.301831 -151.359113 
L 531.12734 -151.514444 
L 531.028459 -151.669774 
L 530.999049 -151.825105 
L 531.030727 -151.980436 
L 531.113028 -152.135767 
L 531.233663 -152.291097 
L 531.378855 -152.446428 
L 531.53375 -152.601759 
L 531.682897 -152.75709 
L 531.810772 -152.91242 
L 531.902324 -153.067751 
L 531.943542 -153.223082 
L 531.921991 -153.378412 
L 531.827322 -153.533743 
L 531.65171 -153.689074 
L 531.390222 -153.844405 
L 531.04108 -153.999735 
L 530.605817 -154.155066 
L 530.089311 -154.310397 
L 529.499698 -154.465728 
L 528.848164 -154.621058 
L 528.148625 -154.776389 
L 527.417303 -154.93172 
L 526.67222 -155.08705 
L 525.93263 -155.242381 
L 525.218405 -155.397712 
L 524.549411 -155.553043 
L 523.944888 -155.708373 
L 523.422859 -155.863704 
L 522.999605 -156.019035 
L 522.689195 -156.174366 
L 522.503117 -156.329696 
L 522.45 -156.485027 
L 522.535442 -156.640358 
L 522.761939 -156.795688 
L 523.128922 -156.951019 
L 523.632879 -157.10635 
L 524.267574 -157.261681 
L 525.024319 -157.417011 
L 525.892323 -157.572342 
L 526.85906 -157.727673 
L 527.910678 -157.883003 
L 529.032408 -158.038334 
L 530.208968 -158.193665 
L 531.424953 -158.348996 
L 532.665192 -158.504326 
L 533.915071 -158.659657 
L 535.160815 -158.814988 
L 536.389714 -158.970319 
L 537.590311 -159.125649 
L 538.752534 -159.28098 
L 539.867781 -159.436311 
L 540.928958 -159.591641 
L 541.930484 -159.746972 
L 542.868245 -159.902303 
L 543.739532 -160.057634 
L 544.542938 -160.212964 
L 545.278245 -160.368295 
L 545.946288 -160.523626 
L 546.548817 -160.678957 
L 547.088348 -160.834287 
L 547.568015 -160.989618 
L 547.991428 -161.144949 
L 548.362533 -161.300279 
L 548.685493 -161.45561 
L 548.964569 -161.610941 
L 549.204019 -161.766272 
L 551.495981 -161.766272 
L 551.495981 -161.766272 
L 551.735431 -161.610941 
L 552.014507 -161.45561 
L 552.337467 -161.300279 
L 552.708572 -161.144949 
L 553.131985 -160.989618 
L 553.611652 -160.834287 
L 554.151183 -160.678957 
L 554.753712 -160.523626 
L 555.421755 -160.368295 
L 556.157062 -160.212964 
L 556.960468 -160.057634 
L 557.831755 -159.902303 
L 558.769516 -159.746972 
L 559.771042 -159.591641 
L 560.832219 -159.436311 
L 561.947466 -159.28098 
L 563.109689 -159.125649 
L 564.310286 -158.970319 
L 565.539185 -158.814988 
L 566.784929 -158.659657 
L 568.034808 -158.504326 
L 569.275047 -158.348996 
L 570.491032 -158.193665 
L 571.667592 -158.038334 
L 572.789322 -157.883003 
L 573.84094 -157.727673 
L 574.807677 -157.572342 
L 575.675681 -157.417011 
L 576.432426 -157.261681 
L 577.067121 -157.10635 
L 577.571078 -156.951019 
L 577.938061 -156.795688 
L 578.164558 -156.640358 
L 578.25 -156.485027 
L 578.196883 -156.329696 
L 578.010805 -156.174366 
L 577.700395 -156.019035 
L 577.277141 -155.863704 
L 576.755112 -155.708373 
L 576.150589 -155.553043 
L 575.481595 -155.397712 
L 574.76737 -155.242381 
L 574.02778 -155.08705 
L 573.282697 -154.93172 
L 572.551375 -154.776389 
L 571.851836 -154.621058 
L 571.200302 -154.465728 
L 570.610689 -154.310397 
L 570.094183 -154.155066 
L 569.65892 -153.999735 
L 569.309778 -153.844405 
L 569.04829 -153.689074 
L 568.872678 -153.533743 
L 568.778009 -153.378412 
L 568.756458 -153.223082 
L 568.797676 -153.067751 
L 568.889228 -152.91242 
L 569.017103 -152.75709 
L 569.16625 -152.601759 
L 569.321145 -152.446428 
L 569.466337 -152.291097 
L 569.586972 -152.135767 
L 569.669273 -151.980436 
L 569.700951 -151.825105 
L 569.671541 -151.669774 
L 569.57266 -151.514444 
L 569.398169 -151.359113 
L 569.144253 -151.203782 
L 568.80941 -151.048452 
L 568.39437 -150.893121 
L 567.901941 -150.73779 
L 567.336793 -150.582459 
L 566.705212 -150.427129 
L 566.014808 -150.271798 
L 565.274217 -150.116467 
L 564.49279 -149.961137 
L 563.680294 -149.805806 
L 562.846625 -149.650475 
L 562.001547 -149.495144 
L 561.154458 -149.339814 
L 560.314196 -149.184483 
L 559.488875 -149.029152 
L 558.685761 -148.873821 
L 557.911185 -148.718491 
L 557.170491 -148.56316 
L 556.468011 -148.407829 
L 555.807079 -148.252499 
L 555.190059 -148.097168 
L 554.618403 -147.941837 
L 554.092716 -147.786506 
L 553.612845 -147.631176 
L 553.177968 -147.475845 
L 552.786689 -147.320514 
L 552.437143 -147.165183 
L 552.127085 -147.009853 
L 551.853994 -146.854522 
L 551.615152 -146.699191 
L 551.40773 -146.543861 
L 551.228861 -146.38853 
z
" id="mbb792ab969" style="stroke:#4c4c4c;stroke-width:1.75;"/>
    </defs>
    <g clip-path="url(#p3848c346d0)">
     <use style="fill:#5875a4;stroke:#4c4c4c;stroke-width:1.75;" x="0.0" xlink:href="#mbb792ab969" y="432.0"/>
    </g>
   </g>
   <g id="PolyCollection_8">
    <defs>
     <path d="M 607.074878 -120.114046 
L 605.225122 -120.114046 
L 605.029851 -120.308337 
L 604.802958 -120.502628 
L 604.541472 -120.696919 
L 604.24257 -120.89121 
L 603.90367 -121.085501 
L 603.522524 -121.279792 
L 603.097316 -121.474083 
L 602.626748 -121.668374 
L 602.110126 -121.862665 
L 601.547422 -122.056956 
L 600.939331 -122.251247 
L 600.287297 -122.445538 
L 599.593517 -122.639829 
L 598.860926 -122.83412 
L 598.093155 -123.028411 
L 597.294461 -123.222702 
L 596.469642 -123.416993 
L 595.623938 -123.611284 
L 594.762912 -123.805575 
L 593.892338 -123.999866 
L 593.018078 -124.194157 
L 592.145975 -124.388448 
L 591.281756 -124.582739 
L 590.430949 -124.77703 
L 589.598828 -124.971321 
L 588.790374 -125.165612 
L 588.010262 -125.359902 
L 587.26287 -125.554193 
L 586.552305 -125.748484 
L 585.882444 -125.942775 
L 585.256981 -126.137066 
L 584.679482 -126.331357 
L 584.153425 -126.525648 
L 583.682237 -126.719939 
L 583.269311 -126.91423 
L 582.917998 -127.108521 
L 582.631573 -127.302812 
L 582.413177 -127.497103 
L 582.265725 -127.691394 
L 582.191788 -127.885685 
L 582.19346 -128.079976 
L 582.272205 -128.274267 
L 582.428692 -128.468558 
L 582.662646 -128.662849 
L 582.972699 -128.85714 
L 583.356279 -129.051431 
L 583.809519 -129.245722 
L 584.327225 -129.440013 
L 584.902892 -129.634304 
L 585.528775 -129.828595 
L 586.196022 -130.022886 
L 586.894871 -130.217177 
L 587.614893 -130.411468 
L 588.345288 -130.605759 
L 589.075213 -130.80005 
L 589.794131 -130.99434 
L 590.492159 -131.188631 
L 591.160411 -131.382922 
L 591.791303 -131.577213 
L 592.378816 -131.771504 
L 592.918693 -131.965795 
L 593.408569 -132.160086 
L 593.848015 -132.354377 
L 594.238505 -132.548668 
L 594.583297 -132.742959 
L 594.887241 -132.93725 
L 595.156518 -133.131541 
L 595.398328 -133.325832 
L 595.620544 -133.520123 
L 595.831339 -133.714414 
L 596.038823 -133.908705 
L 596.250686 -134.102996 
L 596.473888 -134.297287 
L 596.714381 -134.491578 
L 596.976905 -134.685869 
L 597.26484 -134.88016 
L 597.580134 -135.074451 
L 597.923293 -135.268742 
L 598.293444 -135.463033 
L 598.688452 -135.657324 
L 599.105086 -135.851615 
L 599.539222 -136.045906 
L 599.986068 -136.240197 
L 600.440402 -136.434487 
L 600.89681 -136.628778 
L 601.349909 -136.823069 
L 601.794547 -137.01736 
L 602.225976 -137.211651 
L 602.639993 -137.405942 
L 603.033035 -137.600233 
L 603.402248 -137.794524 
L 603.745509 -137.988815 
L 604.061426 -138.183106 
L 604.349298 -138.377397 
L 604.60906 -138.571688 
L 604.841212 -138.765979 
L 605.046729 -138.96027 
L 605.226971 -139.154561 
L 605.38359 -139.348852 
L 606.91641 -139.348852 
L 606.91641 -139.348852 
L 607.073029 -139.154561 
L 607.253271 -138.96027 
L 607.458788 -138.765979 
L 607.69094 -138.571688 
L 607.950702 -138.377397 
L 608.238574 -138.183106 
L 608.554491 -137.988815 
L 608.897752 -137.794524 
L 609.266965 -137.600233 
L 609.660007 -137.405942 
L 610.074024 -137.211651 
L 610.505453 -137.01736 
L 610.950091 -136.823069 
L 611.40319 -136.628778 
L 611.859598 -136.434487 
L 612.313932 -136.240197 
L 612.760778 -136.045906 
L 613.194914 -135.851615 
L 613.611548 -135.657324 
L 614.006556 -135.463033 
L 614.376707 -135.268742 
L 614.719866 -135.074451 
L 615.03516 -134.88016 
L 615.323095 -134.685869 
L 615.585619 -134.491578 
L 615.826112 -134.297287 
L 616.049314 -134.102996 
L 616.261177 -133.908705 
L 616.468661 -133.714414 
L 616.679456 -133.520123 
L 616.901672 -133.325832 
L 617.143482 -133.131541 
L 617.412759 -132.93725 
L 617.716703 -132.742959 
L 618.061495 -132.548668 
L 618.451985 -132.354377 
L 618.891431 -132.160086 
L 619.381307 -131.965795 
L 619.921184 -131.771504 
L 620.508697 -131.577213 
L 621.139589 -131.382922 
L 621.807841 -131.188631 
L 622.505869 -130.99434 
L 623.224787 -130.80005 
L 623.954712 -130.605759 
L 624.685107 -130.411468 
L 625.405129 -130.217177 
L 626.103978 -130.022886 
L 626.771225 -129.828595 
L 627.397108 -129.634304 
L 627.972775 -129.440013 
L 628.490481 -129.245722 
L 628.943721 -129.051431 
L 629.327301 -128.85714 
L 629.637354 -128.662849 
L 629.871308 -128.468558 
L 630.027795 -128.274267 
L 630.10654 -128.079976 
L 630.108212 -127.885685 
L 630.034275 -127.691394 
L 629.886823 -127.497103 
L 629.668427 -127.302812 
L 629.382002 -127.108521 
L 629.030689 -126.91423 
L 628.617763 -126.719939 
L 628.146575 -126.525648 
L 627.620518 -126.331357 
L 627.043019 -126.137066 
L 626.417556 -125.942775 
L 625.747695 -125.748484 
L 625.03713 -125.554193 
L 624.289738 -125.359902 
L 623.509626 -125.165612 
L 622.701172 -124.971321 
L 621.869051 -124.77703 
L 621.018244 -124.582739 
L 620.154025 -124.388448 
L 619.281922 -124.194157 
L 618.407662 -123.999866 
L 617.537088 -123.805575 
L 616.676062 -123.611284 
L 615.830358 -123.416993 
L 615.005539 -123.222702 
L 614.206845 -123.028411 
L 613.439074 -122.83412 
L 612.706483 -122.639829 
L 612.012703 -122.445538 
L 611.360669 -122.251247 
L 610.752578 -122.056956 
L 610.189874 -121.862665 
L 609.673252 -121.668374 
L 609.202684 -121.474083 
L 608.777476 -121.279792 
L 608.39633 -121.085501 
L 608.05743 -120.89121 
L 607.758528 -120.696919 
L 607.497042 -120.502628 
L 607.270149 -120.308337 
L 607.074878 -120.114046 
z
" id="m11335dd138" style="stroke:#4c4c4c;stroke-width:1.75;"/>
    </defs>
    <g clip-path="url(#p3848c346d0)">
     <use style="fill:#5f9e6e;stroke:#4c4c4c;stroke-width:1.75;" x="0.0" xlink:href="#m11335dd138" y="432.0"/>
    </g>
   </g>
   <g id="patch_3">
    <path clip-path="url(#p3848c346d0)" d="M 159.75 411.48 
L 159.75 411.48 
L 159.75 411.48 
L 159.75 411.48 
z
" style="fill:#5875a4;stroke:#4c4c4c;stroke-linejoin:miter;stroke-width:0.875;"/>
   </g>
   <g id="patch_4">
    <path clip-path="url(#p3848c346d0)" d="M 159.75 411.48 
L 159.75 411.48 
L 159.75 411.48 
L 159.75 411.48 
z
" style="fill:#5f9e6e;stroke:#4c4c4c;stroke-linejoin:miter;stroke-width:0.875;"/>
   </g>
   <g id="line2d_10">
    <path clip-path="url(#p3848c346d0)" d="M 131.85 284.071966 
L 131.85 204.264989 
" style="fill:none;stroke:#4c4c4c;stroke-linecap:round;stroke-width:1.75;"/>
   </g>
   <g id="line2d_11">
    <path clip-path="url(#p3848c346d0)" d="M 131.85 262.638219 
L 131.85 217.182748 
" style="fill:none;stroke:#4c4c4c;stroke-linecap:round;stroke-width:5.25;"/>
   </g>
   <g id="line2d_12">
    <path clip-path="url(#p3848c346d0)" d="M 187.65 185.153784 
L 187.65 176.040571 
" style="fill:none;stroke:#4c4c4c;stroke-linecap:round;stroke-width:1.75;"/>
   </g>
   <g id="line2d_13">
    <path clip-path="url(#p3848c346d0)" d="M 187.65 183.760259 
L 187.65 178.164038 
" style="fill:none;stroke:#4c4c4c;stroke-linecap:round;stroke-width:5.25;"/>
   </g>
   <g id="line2d_14">
    <path clip-path="url(#p3848c346d0)" d="M 271.35 307.534874 
L 271.35 242.094337 
" style="fill:none;stroke:#4c4c4c;stroke-linecap:round;stroke-width:1.75;"/>
   </g>
   <g id="line2d_15">
    <path clip-path="url(#p3848c346d0)" d="M 271.35 286.685415 
L 271.35 260.785467 
" style="fill:none;stroke:#4c4c4c;stroke-linecap:round;stroke-width:5.25;"/>
   </g>
   <g id="line2d_16">
    <path clip-path="url(#p3848c346d0)" d="M 327.15 298.210892 
L 327.15 285.951583 
" style="fill:none;stroke:#4c4c4c;stroke-linecap:round;stroke-width:1.75;"/>
   </g>
   <g id="line2d_17">
    <path clip-path="url(#p3848c346d0)" d="M 327.15 294.3259 
L 327.15 290.354575 
" style="fill:none;stroke:#4c4c4c;stroke-linecap:round;stroke-width:5.25;"/>
   </g>
   <g id="line2d_18">
    <path clip-path="url(#p3848c346d0)" d="M 410.85 149.674186 
L 410.85 141.003362 
" style="fill:none;stroke:#4c4c4c;stroke-linecap:round;stroke-width:1.75;"/>
   </g>
   <g id="line2d_19">
    <path clip-path="url(#p3848c346d0)" d="M 410.85 146.577463 
L 410.85 143.325904 
" style="fill:none;stroke:#4c4c4c;stroke-linecap:round;stroke-width:5.25;"/>
   </g>
   <g id="line2d_20">
    <path clip-path="url(#p3848c346d0)" d="M 466.65 89.863192 
L 466.65 85.793214 
" style="fill:none;stroke:#4c4c4c;stroke-linecap:round;stroke-width:1.75;"/>
   </g>
   <g id="line2d_21">
    <path clip-path="url(#p3848c346d0)" d="M 466.65 87.9388 
L 466.65 86.213483 
" style="fill:none;stroke:#4c4c4c;stroke-linecap:round;stroke-width:5.25;"/>
   </g>
   <g id="line2d_22">
    <path clip-path="url(#p3848c346d0)" d="M 550.35 281.980258 
L 550.35 273.864941 
" style="fill:none;stroke:#4c4c4c;stroke-linecap:round;stroke-width:1.75;"/>
   </g>
   <g id="line2d_23">
    <path clip-path="url(#p3848c346d0)" d="M 550.35 280.037762 
L 550.35 275.634771 
" style="fill:none;stroke:#4c4c4c;stroke-linecap:round;stroke-width:5.25;"/>
   </g>
   <g id="line2d_24">
    <path clip-path="url(#p3848c346d0)" d="M 606.15 307.534874 
L 606.15 298.038226 
" style="fill:none;stroke:#4c4c4c;stroke-linecap:round;stroke-width:1.75;"/>
   </g>
   <g id="line2d_25">
    <path clip-path="url(#p3848c346d0)" d="M 606.15 305.160712 
L 606.15 301.966385 
" style="fill:none;stroke:#4c4c4c;stroke-linecap:round;stroke-width:5.25;"/>
   </g>
   <g id="patch_5">
    <path d="M 90 378 
L 648 378 
" style="fill:none;stroke:#262626;stroke-linecap:square;stroke-linejoin:miter;stroke-width:1.25;"/>
   </g>
   <g id="patch_6">
    <path d="M 90 378 
L 90 43.2 
" style="fill:none;stroke:#262626;stroke-linecap:square;stroke-linejoin:miter;stroke-width:1.25;"/>
   </g>
   <g id="PathCollection_1">
    <defs>
     <path d="M 0 1.75 
C 0.464105 1.75 0.909265 1.565609 1.237437 1.237437 
C 1.565609 0.909265 1.75 0.464105 1.75 0 
C 1.75 -0.464105 1.565609 -0.909265 1.237437 -1.237437 
C 0.909265 -1.565609 0.464105 -1.75 0 -1.75 
C -0.464105 -1.75 -0.909265 -1.565609 -1.237437 -1.237437 
C -1.565609 -0.909265 -1.75 -0.464105 -1.75 0 
C -1.75 0.464105 -1.565609 0.909265 -1.237437 1.237437 
C -0.909265 1.565609 -0.464105 1.75 0 1.75 
z
" id="mf14b206aa0" style="stroke:#4c4c4c;stroke-width:0.3;"/>
    </defs>
    <g clip-path="url(#p3848c346d0)">
     <use style="fill:#ffffff;stroke:#4c4c4c;stroke-width:0.3;" x="131.85" xlink:href="#mf14b206aa0" y="233.551141649"/>
    </g>
   </g>
   <g id="PathCollection_2">
    <g clip-path="url(#p3848c346d0)">
     <use style="fill:#ffffff;stroke:#4c4c4c;stroke-width:0.3;" x="187.65" xlink:href="#mf14b206aa0" y="181.481955603"/>
    </g>
   </g>
   <g id="PathCollection_3">
    <g clip-path="url(#p3848c346d0)">
     <use style="fill:#ffffff;stroke:#4c4c4c;stroke-width:0.3;" x="271.35" xlink:href="#mf14b206aa0" y="269.893615266"/>
    </g>
   </g>
   <g id="PathCollection_4">
    <g clip-path="url(#p3848c346d0)">
     <use style="fill:#ffffff;stroke:#4c4c4c;stroke-width:0.3;" x="327.15" xlink:href="#mf14b206aa0" y="292.253904074"/>
    </g>
   </g>
   <g id="PathCollection_5">
    <g clip-path="url(#p3848c346d0)">
     <use style="fill:#ffffff;stroke:#4c4c4c;stroke-width:0.3;" x="410.85" xlink:href="#mf14b206aa0" y="146.179312896"/>
    </g>
   </g>
   <g id="PathCollection_6">
    <g clip-path="url(#p3848c346d0)">
     <use style="fill:#ffffff;stroke:#4c4c4c;stroke-width:0.3;" x="466.65" xlink:href="#mf14b206aa0" y="86.9876638478"/>
    </g>
   </g>
   <g id="PathCollection_7">
    <g clip-path="url(#p3848c346d0)">
     <use style="fill:#ffffff;stroke:#4c4c4c;stroke-width:0.3;" x="550.35" xlink:href="#mf14b206aa0" y="276.109602888"/>
    </g>
   </g>
   <g id="PathCollection_8">
    <g clip-path="url(#p3848c346d0)">
     <use style="fill:#ffffff;stroke:#4c4c4c;stroke-width:0.3;" x="606.15" xlink:href="#mf14b206aa0" y="303.304548736"/>
    </g>
   </g>
   <g id="legend_1">
    <g id="text_11">
     <!-- zscore -->
     <defs>
      <path d="M 1.953125 0 
L 1.953125 7.125 
L 34.96875 45.015625 
Q 29.34375 44.734375 25.046875 44.734375 
L 3.90625 44.734375 
L 3.90625 51.859375 
L 46.296875 51.859375 
L 46.296875 46.046875 
L 18.21875 13.140625 
L 12.796875 7.125 
Q 18.703125 7.5625 23.875 7.5625 
L 47.859375 7.5625 
L 47.859375 0 
z
" id="ArialMT-7a"/>
     </defs>
     <g style="fill:#262626;" transform="translate(599.005613281 58.8925546875)scale(0.0935 -0.0935)">
      <use xlink:href="#ArialMT-7a"/>
      <use x="50.0" xlink:href="#ArialMT-73"/>
      <use x="100.0" xlink:href="#ArialMT-63"/>
      <use x="150.0" xlink:href="#ArialMT-6f"/>
      <use x="205.615234375" xlink:href="#ArialMT-72"/>
      <use x="238.916015625" xlink:href="#ArialMT-65"/>
     </g>
    </g>
    <g id="patch_7">
     <path d="M 586.548437 72.90868 
L 606.548437 72.90868 
L 606.548437 65.90868 
L 586.548437 65.90868 
z
" style="fill:#5875a4;stroke:#4c4c4c;stroke-linejoin:miter;stroke-width:0.875;"/>
    </g>
    <g id="text_12">
     <!-- False -->
     <defs>
      <path d="M 6.390625 0 
L 6.390625 71.578125 
L 15.1875 71.578125 
L 15.1875 0 
z
" id="ArialMT-6c"/>
     </defs>
     <g style="fill:#262626;" transform="translate(614.5484375 72.9086796875)scale(0.1 -0.1)">
      <use xlink:href="#ArialMT-46"/>
      <use x="61.083984375" xlink:href="#ArialMT-61"/>
      <use x="116.69921875" xlink:href="#ArialMT-6c"/>
      <use x="138.916015625" xlink:href="#ArialMT-73"/>
      <use x="188.916015625" xlink:href="#ArialMT-65"/>
     </g>
    </g>
    <g id="patch_8">
     <path d="M 586.548437 87.053992 
L 606.548437 87.053992 
L 606.548437 80.053992 
L 586.548437 80.053992 
z
" style="fill:#5f9e6e;stroke:#4c4c4c;stroke-linejoin:miter;stroke-width:0.875;"/>
    </g>
    <g id="text_13">
     <!-- True -->
     <defs>
      <path d="M 25.921875 0 
L 25.921875 63.140625 
L 2.34375 63.140625 
L 2.34375 71.578125 
L 59.078125 71.578125 
L 59.078125 63.140625 
L 35.40625 63.140625 
L 35.40625 0 
z
" id="ArialMT-54"/>
     </defs>
     <g style="fill:#262626;" transform="translate(614.5484375 87.0539921875)scale(0.1 -0.1)">
      <use xlink:href="#ArialMT-54"/>
      <use x="61.037109375" xlink:href="#ArialMT-72"/>
      <use x="94.337890625" xlink:href="#ArialMT-75"/>
      <use x="149.953125" xlink:href="#ArialMT-65"/>
     </g>
    </g>
   </g>
  </g>
 </g>
 <defs>
  <clipPath id="p3848c346d0">
   <rect height="334.8" width="558.0" x="90.0" y="43.2"/>
  </clipPath>
 </defs>
</svg>
