<?xml version="1.0" encoding="utf-8" standalone="no"?>
<!DOCTYPE svg PUBLIC "-//W3C//DTD SVG 1.1//EN"
  "http://www.w3.org/Graphics/SVG/1.1/DTD/svg11.dtd">
<!-- Created with matplotlib (http://matplotlib.org/) -->
<svg height="432pt" version="1.1" viewBox="0 0 576 432" width="576pt" xmlns="http://www.w3.org/2000/svg" xmlns:xlink="http://www.w3.org/1999/xlink">
 <defs>
  <style type="text/css">
*{stroke-linecap:butt;stroke-linejoin:round;stroke-miterlimit:100000;}
  </style>
 </defs>
 <g id="figure_1">
  <g id="patch_1">
   <path d="M 0 432 
L 576 432 
L 576 0 
L 0 0 
z
" style="fill:#ffffff;"/>
  </g>
  <g id="axes_1">
   <g id="patch_2">
    <path d="M 57.7125 190.328906 
L 275.68125 190.328906 
L 275.68125 15.3 
L 57.7125 15.3 
z
" style="fill:#ffffff;"/>
   </g>
   <g id="matplotlib.axis_1"/>
   <g id="matplotlib.axis_2">
    <g id="ytick_1">
     <g id="line2d_1">
      <defs>
       <path d="M 0 0 
L -6 0 
" id="ma2646a19ae" style="stroke:#262626;"/>
      </defs>
      <g>
       <use style="fill:#262626;stroke:#262626;" x="57.7125" xlink:href="#ma2646a19ae" y="190.32890625"/>
      </g>
     </g>
     <g id="text_1">
      <!-- 0.0 -->
      <defs>
       <path d="M 4.15625 35.296875 
Q 4.15625 48 6.765625 55.734375 
Q 9.375 63.484375 14.515625 67.671875 
Q 19.671875 71.875 27.484375 71.875 
Q 33.25 71.875 37.59375 69.546875 
Q 41.9375 67.234375 44.765625 62.859375 
Q 47.609375 58.5 49.21875 52.21875 
Q 50.828125 45.953125 50.828125 35.296875 
Q 50.828125 22.703125 48.234375 14.96875 
Q 45.65625 7.234375 40.5 3 
Q 35.359375 -1.21875 27.484375 -1.21875 
Q 17.140625 -1.21875 11.234375 6.203125 
Q 4.15625 15.140625 4.15625 35.296875 
M 13.1875 35.296875 
Q 13.1875 17.671875 17.3125 11.828125 
Q 21.4375 6 27.484375 6 
Q 33.546875 6 37.671875 11.859375 
Q 41.796875 17.71875 41.796875 35.296875 
Q 41.796875 52.984375 37.671875 58.78125 
Q 33.546875 64.59375 27.390625 64.59375 
Q 21.34375 64.59375 17.71875 59.46875 
Q 13.1875 52.9375 13.1875 35.296875 
" id="ArialMT-30"/>
       <path d="M 9.078125 0 
L 9.078125 10.015625 
L 19.09375 10.015625 
L 19.09375 0 
z
" id="ArialMT-2e"/>
      </defs>
      <g style="fill:#262626;" transform="translate(30.8125 192.9140625)scale(0.1 -0.1)">
       <use xlink:href="#ArialMT-30"/>
       <use x="55.615234375" xlink:href="#ArialMT-2e"/>
       <use x="83.3984375" xlink:href="#ArialMT-30"/>
      </g>
     </g>
    </g>
    <g id="ytick_2">
     <g id="line2d_2">
      <g>
       <use style="fill:#262626;stroke:#262626;" x="57.7125" xlink:href="#ma2646a19ae" y="170.88125"/>
      </g>
     </g>
     <g id="text_2">
      <!-- 0.1 -->
      <defs>
       <path d="M 37.25 0 
L 28.46875 0 
L 28.46875 56 
Q 25.296875 52.984375 20.140625 49.953125 
Q 14.984375 46.921875 10.890625 45.40625 
L 10.890625 53.90625 
Q 18.265625 57.375 23.78125 62.296875 
Q 29.296875 67.234375 31.59375 71.875 
L 37.25 71.875 
z
" id="ArialMT-31"/>
      </defs>
      <g style="fill:#262626;" transform="translate(30.8125 173.46640625)scale(0.1 -0.1)">
       <use xlink:href="#ArialMT-30"/>
       <use x="55.615234375" xlink:href="#ArialMT-2e"/>
       <use x="83.3984375" xlink:href="#ArialMT-31"/>
      </g>
     </g>
    </g>
    <g id="ytick_3">
     <g id="line2d_3">
      <g>
       <use style="fill:#262626;stroke:#262626;" x="57.7125" xlink:href="#ma2646a19ae" y="151.43359375"/>
      </g>
     </g>
     <g id="text_3">
      <!-- 0.2 -->
      <defs>
       <path d="M 50.34375 8.453125 
L 50.34375 0 
L 3.03125 0 
Q 2.9375 3.171875 4.046875 6.109375 
Q 5.859375 10.9375 9.828125 15.625 
Q 13.8125 20.3125 21.34375 26.46875 
Q 33.015625 36.03125 37.109375 41.625 
Q 41.21875 47.21875 41.21875 52.203125 
Q 41.21875 57.421875 37.46875 61 
Q 33.734375 64.59375 27.734375 64.59375 
Q 21.390625 64.59375 17.578125 60.78125 
Q 13.765625 56.984375 13.71875 50.25 
L 4.6875 51.171875 
Q 5.609375 61.28125 11.65625 66.578125 
Q 17.71875 71.875 27.9375 71.875 
Q 38.234375 71.875 44.234375 66.15625 
Q 50.25 60.453125 50.25 52 
Q 50.25 47.703125 48.484375 43.546875 
Q 46.734375 39.40625 42.65625 34.8125 
Q 38.578125 30.21875 29.109375 22.21875 
Q 21.1875 15.578125 18.9375 13.203125 
Q 16.703125 10.84375 15.234375 8.453125 
z
" id="ArialMT-32"/>
      </defs>
      <g style="fill:#262626;" transform="translate(30.8125 154.01875)scale(0.1 -0.1)">
       <use xlink:href="#ArialMT-30"/>
       <use x="55.615234375" xlink:href="#ArialMT-2e"/>
       <use x="83.3984375" xlink:href="#ArialMT-32"/>
      </g>
     </g>
    </g>
    <g id="ytick_4">
     <g id="line2d_4">
      <g>
       <use style="fill:#262626;stroke:#262626;" x="57.7125" xlink:href="#ma2646a19ae" y="131.9859375"/>
      </g>
     </g>
     <g id="text_4">
      <!-- 0.3 -->
      <defs>
       <path d="M 4.203125 18.890625 
L 12.984375 20.0625 
Q 14.5 12.59375 18.140625 9.296875 
Q 21.78125 6 27 6 
Q 33.203125 6 37.46875 10.296875 
Q 41.75 14.59375 41.75 20.953125 
Q 41.75 27 37.796875 30.921875 
Q 33.84375 34.859375 27.734375 34.859375 
Q 25.25 34.859375 21.53125 33.890625 
L 22.515625 41.609375 
Q 23.390625 41.5 23.921875 41.5 
Q 29.546875 41.5 34.03125 44.421875 
Q 38.53125 47.359375 38.53125 53.46875 
Q 38.53125 58.296875 35.25 61.46875 
Q 31.984375 64.65625 26.8125 64.65625 
Q 21.6875 64.65625 18.265625 61.421875 
Q 14.84375 58.203125 13.875 51.765625 
L 5.078125 53.328125 
Q 6.6875 62.15625 12.390625 67.015625 
Q 18.109375 71.875 26.609375 71.875 
Q 32.46875 71.875 37.390625 69.359375 
Q 42.328125 66.84375 44.9375 62.5 
Q 47.5625 58.15625 47.5625 53.265625 
Q 47.5625 48.640625 45.0625 44.828125 
Q 42.578125 41.015625 37.703125 38.765625 
Q 44.046875 37.3125 47.5625 32.6875 
Q 51.078125 28.078125 51.078125 21.140625 
Q 51.078125 11.765625 44.234375 5.25 
Q 37.40625 -1.265625 26.953125 -1.265625 
Q 17.53125 -1.265625 11.296875 4.34375 
Q 5.078125 9.96875 4.203125 18.890625 
" id="ArialMT-33"/>
      </defs>
      <g style="fill:#262626;" transform="translate(30.8125 134.57109375)scale(0.1 -0.1)">
       <use xlink:href="#ArialMT-30"/>
       <use x="55.615234375" xlink:href="#ArialMT-2e"/>
       <use x="83.3984375" xlink:href="#ArialMT-33"/>
      </g>
     </g>
    </g>
    <g id="ytick_5">
     <g id="line2d_5">
      <g>
       <use style="fill:#262626;stroke:#262626;" x="57.7125" xlink:href="#ma2646a19ae" y="112.53828125"/>
      </g>
     </g>
     <g id="text_5">
      <!-- 0.4 -->
      <defs>
       <path d="M 32.328125 0 
L 32.328125 17.140625 
L 1.265625 17.140625 
L 1.265625 25.203125 
L 33.9375 71.578125 
L 41.109375 71.578125 
L 41.109375 25.203125 
L 50.78125 25.203125 
L 50.78125 17.140625 
L 41.109375 17.140625 
L 41.109375 0 
z
M 32.328125 25.203125 
L 32.328125 57.46875 
L 9.90625 25.203125 
z
" id="ArialMT-34"/>
      </defs>
      <g style="fill:#262626;" transform="translate(30.8125 115.1234375)scale(0.1 -0.1)">
       <use xlink:href="#ArialMT-30"/>
       <use x="55.615234375" xlink:href="#ArialMT-2e"/>
       <use x="83.3984375" xlink:href="#ArialMT-34"/>
      </g>
     </g>
    </g>
    <g id="ytick_6">
     <g id="line2d_6">
      <g>
       <use style="fill:#262626;stroke:#262626;" x="57.7125" xlink:href="#ma2646a19ae" y="93.090625"/>
      </g>
     </g>
     <g id="text_6">
      <!-- 0.5 -->
      <defs>
       <path d="M 4.15625 18.75 
L 13.375 19.53125 
Q 14.40625 12.796875 18.140625 9.390625 
Q 21.875 6 27.15625 6 
Q 33.5 6 37.890625 10.78125 
Q 42.28125 15.578125 42.28125 23.484375 
Q 42.28125 31 38.0625 35.34375 
Q 33.84375 39.703125 27 39.703125 
Q 22.75 39.703125 19.328125 37.765625 
Q 15.921875 35.84375 13.96875 32.765625 
L 5.71875 33.84375 
L 12.640625 70.609375 
L 48.25 70.609375 
L 48.25 62.203125 
L 19.671875 62.203125 
L 15.828125 42.96875 
Q 22.265625 47.46875 29.34375 47.46875 
Q 38.71875 47.46875 45.15625 40.96875 
Q 51.609375 34.46875 51.609375 24.265625 
Q 51.609375 14.546875 45.953125 7.46875 
Q 39.0625 -1.21875 27.15625 -1.21875 
Q 17.390625 -1.21875 11.203125 4.25 
Q 5.03125 9.71875 4.15625 18.75 
" id="ArialMT-35"/>
      </defs>
      <g style="fill:#262626;" transform="translate(30.8125 95.67578125)scale(0.1 -0.1)">
       <use xlink:href="#ArialMT-30"/>
       <use x="55.615234375" xlink:href="#ArialMT-2e"/>
       <use x="83.3984375" xlink:href="#ArialMT-35"/>
      </g>
     </g>
    </g>
    <g id="ytick_7">
     <g id="line2d_7">
      <g>
       <use style="fill:#262626;stroke:#262626;" x="57.7125" xlink:href="#ma2646a19ae" y="73.64296875"/>
      </g>
     </g>
     <g id="text_7">
      <!-- 0.6 -->
      <defs>
       <path d="M 49.75 54.046875 
L 41.015625 53.375 
Q 39.84375 58.546875 37.703125 60.890625 
Q 34.125 64.65625 28.90625 64.65625 
Q 24.703125 64.65625 21.53125 62.3125 
Q 17.390625 59.28125 14.984375 53.46875 
Q 12.59375 47.65625 12.5 36.921875 
Q 15.671875 41.75 20.265625 44.09375 
Q 24.859375 46.4375 29.890625 46.4375 
Q 38.671875 46.4375 44.84375 39.96875 
Q 51.03125 33.5 51.03125 23.25 
Q 51.03125 16.5 48.125 10.71875 
Q 45.21875 4.9375 40.140625 1.859375 
Q 35.0625 -1.21875 28.609375 -1.21875 
Q 17.625 -1.21875 10.6875 6.859375 
Q 3.765625 14.9375 3.765625 33.5 
Q 3.765625 54.25 11.421875 63.671875 
Q 18.109375 71.875 29.4375 71.875 
Q 37.890625 71.875 43.28125 67.140625 
Q 48.6875 62.40625 49.75 54.046875 
M 13.875 23.1875 
Q 13.875 18.65625 15.796875 14.5 
Q 17.71875 10.359375 21.1875 8.171875 
Q 24.65625 6 28.46875 6 
Q 34.03125 6 38.03125 10.484375 
Q 42.046875 14.984375 42.046875 22.703125 
Q 42.046875 30.125 38.078125 34.390625 
Q 34.125 38.671875 28.125 38.671875 
Q 22.171875 38.671875 18.015625 34.390625 
Q 13.875 30.125 13.875 23.1875 
" id="ArialMT-36"/>
      </defs>
      <g style="fill:#262626;" transform="translate(30.8125 76.228125)scale(0.1 -0.1)">
       <use xlink:href="#ArialMT-30"/>
       <use x="55.615234375" xlink:href="#ArialMT-2e"/>
       <use x="83.3984375" xlink:href="#ArialMT-36"/>
      </g>
     </g>
    </g>
    <g id="ytick_8">
     <g id="line2d_8">
      <g>
       <use style="fill:#262626;stroke:#262626;" x="57.7125" xlink:href="#ma2646a19ae" y="54.1953125"/>
      </g>
     </g>
     <g id="text_8">
      <!-- 0.7 -->
      <defs>
       <path d="M 4.734375 62.203125 
L 4.734375 70.65625 
L 51.078125 70.65625 
L 51.078125 63.8125 
Q 44.234375 56.546875 37.515625 44.484375 
Q 30.8125 32.421875 27.15625 19.671875 
Q 24.515625 10.6875 23.78125 0 
L 14.75 0 
Q 14.890625 8.453125 18.0625 20.40625 
Q 21.234375 32.375 27.171875 43.484375 
Q 33.109375 54.59375 39.796875 62.203125 
z
" id="ArialMT-37"/>
      </defs>
      <g style="fill:#262626;" transform="translate(30.8125 56.78046875)scale(0.1 -0.1)">
       <use xlink:href="#ArialMT-30"/>
       <use x="55.615234375" xlink:href="#ArialMT-2e"/>
       <use x="83.3984375" xlink:href="#ArialMT-37"/>
      </g>
     </g>
    </g>
    <g id="ytick_9">
     <g id="line2d_9">
      <g>
       <use style="fill:#262626;stroke:#262626;" x="57.7125" xlink:href="#ma2646a19ae" y="34.74765625"/>
      </g>
     </g>
     <g id="text_9">
      <!-- 0.8 -->
      <defs>
       <path d="M 17.671875 38.8125 
Q 12.203125 40.828125 9.5625 44.53125 
Q 6.9375 48.25 6.9375 53.421875 
Q 6.9375 61.234375 12.546875 66.546875 
Q 18.171875 71.875 27.484375 71.875 
Q 36.859375 71.875 42.578125 66.421875 
Q 48.296875 60.984375 48.296875 53.171875 
Q 48.296875 48.1875 45.671875 44.5 
Q 43.0625 40.828125 37.75 38.8125 
Q 44.34375 36.671875 47.78125 31.875 
Q 51.21875 27.09375 51.21875 20.453125 
Q 51.21875 11.28125 44.71875 5.03125 
Q 38.234375 -1.21875 27.640625 -1.21875 
Q 17.046875 -1.21875 10.546875 5.046875 
Q 4.046875 11.328125 4.046875 20.703125 
Q 4.046875 27.6875 7.59375 32.390625 
Q 11.140625 37.109375 17.671875 38.8125 
M 15.921875 53.71875 
Q 15.921875 48.640625 19.1875 45.40625 
Q 22.46875 42.1875 27.6875 42.1875 
Q 32.765625 42.1875 36.015625 45.375 
Q 39.265625 48.578125 39.265625 53.21875 
Q 39.265625 58.0625 35.90625 61.359375 
Q 32.5625 64.65625 27.59375 64.65625 
Q 22.5625 64.65625 19.234375 61.421875 
Q 15.921875 58.203125 15.921875 53.71875 
M 13.09375 20.65625 
Q 13.09375 16.890625 14.875 13.375 
Q 16.65625 9.859375 20.171875 7.921875 
Q 23.6875 6 27.734375 6 
Q 34.03125 6 38.125 10.046875 
Q 42.234375 14.109375 42.234375 20.359375 
Q 42.234375 26.703125 38.015625 30.859375 
Q 33.796875 35.015625 27.4375 35.015625 
Q 21.234375 35.015625 17.15625 30.90625 
Q 13.09375 26.8125 13.09375 20.65625 
" id="ArialMT-38"/>
      </defs>
      <g style="fill:#262626;" transform="translate(30.8125 37.3328125)scale(0.1 -0.1)">
       <use xlink:href="#ArialMT-30"/>
       <use x="55.615234375" xlink:href="#ArialMT-2e"/>
       <use x="83.3984375" xlink:href="#ArialMT-38"/>
      </g>
     </g>
    </g>
    <g id="ytick_10">
     <g id="line2d_10">
      <g>
       <use style="fill:#262626;stroke:#262626;" x="57.7125" xlink:href="#ma2646a19ae" y="15.3"/>
      </g>
     </g>
     <g id="text_10">
      <!-- 0.9 -->
      <defs>
       <path d="M 5.46875 16.546875 
L 13.921875 17.328125 
Q 14.984375 11.375 18.015625 8.6875 
Q 21.046875 6 25.78125 6 
Q 29.828125 6 32.875 7.859375 
Q 35.9375 9.71875 37.890625 12.8125 
Q 39.84375 15.921875 41.15625 21.1875 
Q 42.484375 26.46875 42.484375 31.9375 
Q 42.484375 32.515625 42.4375 33.6875 
Q 39.796875 29.5 35.234375 26.875 
Q 30.671875 24.265625 25.34375 24.265625 
Q 16.453125 24.265625 10.296875 30.703125 
Q 4.15625 37.15625 4.15625 47.703125 
Q 4.15625 58.59375 10.578125 65.234375 
Q 17 71.875 26.65625 71.875 
Q 33.640625 71.875 39.421875 68.109375 
Q 45.21875 64.359375 48.21875 57.390625 
Q 51.21875 50.4375 51.21875 37.25 
Q 51.21875 23.53125 48.234375 15.40625 
Q 45.265625 7.28125 39.375 3.03125 
Q 33.5 -1.21875 25.59375 -1.21875 
Q 17.1875 -1.21875 11.859375 3.4375 
Q 6.546875 8.109375 5.46875 16.546875 
M 41.453125 48.140625 
Q 41.453125 55.71875 37.421875 60.15625 
Q 33.40625 64.59375 27.734375 64.59375 
Q 21.875 64.59375 17.53125 59.8125 
Q 13.1875 55.03125 13.1875 47.40625 
Q 13.1875 40.578125 17.3125 36.296875 
Q 21.4375 32.03125 27.484375 32.03125 
Q 33.59375 32.03125 37.515625 36.296875 
Q 41.453125 40.578125 41.453125 48.140625 
" id="ArialMT-39"/>
      </defs>
      <g style="fill:#262626;" transform="translate(30.8125 17.88515625)scale(0.1 -0.1)">
       <use xlink:href="#ArialMT-30"/>
       <use x="55.615234375" xlink:href="#ArialMT-2e"/>
       <use x="83.3984375" xlink:href="#ArialMT-39"/>
      </g>
     </g>
    </g>
    <g id="text_11">
     <!-- Accuracy -->
     <defs>
      <path d="M 40.4375 19 
L 49.078125 17.875 
Q 47.65625 8.9375 41.8125 3.875 
Q 35.984375 -1.171875 27.484375 -1.171875 
Q 16.84375 -1.171875 10.375 5.78125 
Q 3.90625 12.75 3.90625 25.734375 
Q 3.90625 34.125 6.6875 40.421875 
Q 9.46875 46.734375 15.15625 49.875 
Q 20.84375 53.03125 27.546875 53.03125 
Q 35.984375 53.03125 41.359375 48.75 
Q 46.734375 44.484375 48.25 36.625 
L 39.703125 35.296875 
Q 38.484375 40.53125 35.375 43.15625 
Q 32.28125 45.796875 27.875 45.796875 
Q 21.234375 45.796875 17.078125 41.03125 
Q 12.9375 36.28125 12.9375 25.984375 
Q 12.9375 15.53125 16.9375 10.796875 
Q 20.953125 6.0625 27.390625 6.0625 
Q 32.5625 6.0625 36.03125 9.234375 
Q 39.5 12.40625 40.4375 19 
" id="ArialMT-63"/>
      <path d="M 40.4375 6.390625 
Q 35.546875 2.25 31.03125 0.53125 
Q 26.515625 -1.171875 21.34375 -1.171875 
Q 12.796875 -1.171875 8.203125 3 
Q 3.609375 7.171875 3.609375 13.671875 
Q 3.609375 17.484375 5.34375 20.625 
Q 7.078125 23.78125 9.890625 25.6875 
Q 12.703125 27.59375 16.21875 28.5625 
Q 18.796875 29.25 24.03125 29.890625 
Q 34.671875 31.15625 39.703125 32.90625 
Q 39.75 34.71875 39.75 35.203125 
Q 39.75 40.578125 37.25 42.78125 
Q 33.890625 45.75 27.25 45.75 
Q 21.046875 45.75 18.09375 43.578125 
Q 15.140625 41.40625 13.71875 35.890625 
L 5.125 37.0625 
Q 6.296875 42.578125 8.984375 45.96875 
Q 11.671875 49.359375 16.75 51.1875 
Q 21.828125 53.03125 28.515625 53.03125 
Q 35.15625 53.03125 39.296875 51.46875 
Q 43.453125 49.90625 45.40625 47.53125 
Q 47.359375 45.171875 48.140625 41.546875 
Q 48.578125 39.3125 48.578125 33.453125 
L 48.578125 21.734375 
Q 48.578125 9.46875 49.140625 6.21875 
Q 49.703125 2.984375 51.375 0 
L 42.1875 0 
Q 40.828125 2.734375 40.4375 6.390625 
M 39.703125 26.03125 
Q 34.90625 24.078125 25.34375 22.703125 
Q 19.921875 21.921875 17.671875 20.9375 
Q 15.4375 19.96875 14.203125 18.09375 
Q 12.984375 16.21875 12.984375 13.921875 
Q 12.984375 10.40625 15.640625 8.0625 
Q 18.3125 5.71875 23.4375 5.71875 
Q 28.515625 5.71875 32.46875 7.9375 
Q 36.421875 10.15625 38.28125 14.015625 
Q 39.703125 17 39.703125 22.796875 
z
" id="ArialMT-61"/>
      <path d="M 6.203125 -19.96875 
L 5.21875 -11.71875 
Q 8.109375 -12.5 10.25 -12.5 
Q 13.1875 -12.5 14.9375 -11.515625 
Q 16.703125 -10.546875 17.828125 -8.796875 
Q 18.65625 -7.46875 20.515625 -2.25 
Q 20.75 -1.515625 21.296875 -0.09375 
L 1.609375 51.859375 
L 11.078125 51.859375 
L 21.875 21.828125 
Q 23.96875 16.109375 25.640625 9.8125 
Q 27.15625 15.875 29.25 21.625 
L 40.328125 51.859375 
L 49.125 51.859375 
L 29.390625 -0.875 
Q 26.21875 -9.421875 24.46875 -12.640625 
Q 22.125 -17 19.09375 -19.015625 
Q 16.0625 -21.046875 11.859375 -21.046875 
Q 9.328125 -21.046875 6.203125 -19.96875 
" id="ArialMT-79"/>
      <path d="M -0.140625 0 
L 27.34375 71.578125 
L 37.546875 71.578125 
L 66.84375 0 
L 56.0625 0 
L 47.703125 21.6875 
L 17.78125 21.6875 
L 9.90625 0 
z
M 20.515625 29.390625 
L 44.78125 29.390625 
L 37.3125 49.21875 
Q 33.890625 58.25 32.234375 64.0625 
Q 30.859375 57.171875 28.375 50.390625 
z
" id="ArialMT-41"/>
      <path d="M 40.578125 0 
L 40.578125 7.625 
Q 34.515625 -1.171875 24.125 -1.171875 
Q 19.53125 -1.171875 15.546875 0.578125 
Q 11.578125 2.34375 9.640625 5 
Q 7.71875 7.671875 6.9375 11.53125 
Q 6.390625 14.109375 6.390625 19.734375 
L 6.390625 51.859375 
L 15.1875 51.859375 
L 15.1875 23.09375 
Q 15.1875 16.21875 15.71875 13.8125 
Q 16.546875 10.359375 19.234375 8.375 
Q 21.921875 6.390625 25.875 6.390625 
Q 29.828125 6.390625 33.296875 8.421875 
Q 36.765625 10.453125 38.203125 13.9375 
Q 39.65625 17.4375 39.65625 24.078125 
L 39.65625 51.859375 
L 48.4375 51.859375 
L 48.4375 0 
z
" id="ArialMT-75"/>
      <path d="M 6.5 0 
L 6.5 51.859375 
L 14.40625 51.859375 
L 14.40625 44 
Q 17.4375 49.515625 20 51.265625 
Q 22.5625 53.03125 25.640625 53.03125 
Q 30.078125 53.03125 34.671875 50.203125 
L 31.640625 42.046875 
Q 28.421875 43.953125 25.203125 43.953125 
Q 22.3125 43.953125 20.015625 42.21875 
Q 17.71875 40.484375 16.75 37.40625 
Q 15.28125 32.71875 15.28125 27.15625 
L 15.28125 0 
z
" id="ArialMT-72"/>
     </defs>
     <g style="fill:#262626;" transform="translate(23.49734375 125.431484375)rotate(-90.0)scale(0.11 -0.11)">
      <use xlink:href="#ArialMT-41"/>
      <use x="66.69921875" xlink:href="#ArialMT-63"/>
      <use x="116.69921875" xlink:href="#ArialMT-63"/>
      <use x="166.69921875" xlink:href="#ArialMT-75"/>
      <use x="222.314453125" xlink:href="#ArialMT-72"/>
      <use x="255.615234375" xlink:href="#ArialMT-61"/>
      <use x="311.23046875" xlink:href="#ArialMT-63"/>
      <use x="361.23046875" xlink:href="#ArialMT-79"/>
     </g>
    </g>
   </g>
   <g id="PolyCollection_1">
    <defs>
     <path d="M 57.7125 -280.566406 
L 57.7125 -248.153646 
L 66.43125 -251.394922 
L 75.15 -254.636198 
L 83.86875 -274.083854 
L 92.5875 -270.842578 
L 101.30625 -274.083854 
L 110.025 -280.566406 
L 118.74375 -283.807682 
L 127.4625 -293.53151 
L 136.18125 -322.702995 
L 144.9 -325.944271 
L 153.61875 -338.909375 
L 162.3375 -345.391927 
L 171.05625 -348.633203 
L 179.775 -361.598307 
L 188.49375 -358.357031 
L 197.2125 -348.633203 
L 205.93125 -335.668099 
L 214.65 -319.461719 
L 223.36875 -312.979167 
L 232.0875 -290.290234 
L 240.80625 -283.807682 
L 249.525 -267.601302 
L 258.24375 -264.360026 
L 266.9625 -264.360026 
L 275.68125 -257.877474 
L 275.68125 -296.772786 
L 275.68125 -296.772786 
L 266.9625 -309.737891 
L 258.24375 -309.737891 
L 249.525 -312.979167 
L 240.80625 -329.185547 
L 232.0875 -338.909375 
L 223.36875 -364.839583 
L 214.65 -377.804688 
L 205.93125 -374.563411 
L 197.2125 -387.528516 
L 188.49375 -397.252344 
L 179.775 -403.734896 
L 171.05625 -387.528516 
L 162.3375 -390.769792 
L 153.61875 -384.28724 
L 144.9 -371.322135 
L 136.18125 -361.598307 
L 127.4625 -345.391927 
L 118.74375 -329.185547 
L 110.025 -325.944271 
L 101.30625 -316.220443 
L 92.5875 -312.979167 
L 83.86875 -309.737891 
L 75.15 -290.290234 
L 66.43125 -287.048958 
L 57.7125 -280.566406 
z
" id="ma17744fb42" style="stroke:#4c72b0;stroke-opacity:0.2;stroke-width:0.3;"/>
    </defs>
    <g clip-path="url(#p382e5f7b62)">
     <use style="fill:#4c72b0;fill-opacity:0.2;stroke:#4c72b0;stroke-opacity:0.2;stroke-width:0.3;" x="0.0" xlink:href="#ma17744fb42" y="432.0"/>
    </g>
   </g>
   <g id="line2d_11">
    <path clip-path="url(#p382e5f7b62)" d="M 57.7125 167.639974 
L 66.43125 164.398698 
L 75.15 161.157422 
L 83.86875 141.709766 
L 92.5875 141.709766 
L 101.30625 138.46849 
L 110.025 128.744661 
L 118.74375 125.503385 
L 127.4625 112.538281 
L 136.18125 89.849349 
L 144.9 83.366797 
L 153.61875 70.401693 
L 162.3375 63.919141 
L 171.05625 63.919141 
L 179.775 47.71276 
L 188.49375 54.195313 
L 197.2125 63.919141 
L 205.93125 76.884245 
L 214.65 83.366797 
L 223.36875 93.090625 
L 232.0875 119.020833 
L 240.80625 125.503385 
L 249.525 141.709766 
L 258.24375 144.951042 
L 266.9625 144.951042 
L 275.68125 154.67487 
" style="fill:none;stroke:#4c72b0;stroke-linecap:round;stroke-width:1.75;"/>
   </g>
   <g id="patch_3">
    <path d="M 57.7125 190.328906 
L 275.68125 190.328906 
" style="fill:none;stroke:#262626;stroke-linecap:square;stroke-linejoin:miter;stroke-width:1.25;"/>
   </g>
   <g id="patch_4">
    <path d="M 57.7125 190.328906 
L 57.7125 15.3 
" style="fill:none;stroke:#262626;stroke-linecap:square;stroke-linejoin:miter;stroke-width:1.25;"/>
   </g>
  </g>
  <g id="axes_2">
   <g id="patch_5">
    <path d="M 337.3875 190.328906 
L 555.35625 190.328906 
L 555.35625 15.3 
L 337.3875 15.3 
z
" style="fill:#ffffff;"/>
   </g>
   <g id="matplotlib.axis_3"/>
   <g id="matplotlib.axis_4">
    <g id="ytick_11">
     <g id="line2d_12">
      <g>
       <use style="fill:#262626;stroke:#262626;" x="337.3875" xlink:href="#ma2646a19ae" y="190.32890625"/>
      </g>
     </g>
     <g id="text_12">
      <!-- 0.0 -->
      <g style="fill:#262626;" transform="translate(310.4875 192.9140625)scale(0.1 -0.1)">
       <use xlink:href="#ArialMT-30"/>
       <use x="55.615234375" xlink:href="#ArialMT-2e"/>
       <use x="83.3984375" xlink:href="#ArialMT-30"/>
      </g>
     </g>
    </g>
    <g id="ytick_12">
     <g id="line2d_13">
      <g>
       <use style="fill:#262626;stroke:#262626;" x="337.3875" xlink:href="#ma2646a19ae" y="161.157421875"/>
      </g>
     </g>
     <g id="text_13">
      <!-- 0.5 -->
      <g style="fill:#262626;" transform="translate(310.4875 163.742578125)scale(0.1 -0.1)">
       <use xlink:href="#ArialMT-30"/>
       <use x="55.615234375" xlink:href="#ArialMT-2e"/>
       <use x="83.3984375" xlink:href="#ArialMT-35"/>
      </g>
     </g>
    </g>
    <g id="ytick_13">
     <g id="line2d_14">
      <g>
       <use style="fill:#262626;stroke:#262626;" x="337.3875" xlink:href="#ma2646a19ae" y="131.9859375"/>
      </g>
     </g>
     <g id="text_14">
      <!-- 1.0 -->
      <g style="fill:#262626;" transform="translate(310.4875 134.57109375)scale(0.1 -0.1)">
       <use xlink:href="#ArialMT-31"/>
       <use x="55.615234375" xlink:href="#ArialMT-2e"/>
       <use x="83.3984375" xlink:href="#ArialMT-30"/>
      </g>
     </g>
    </g>
    <g id="ytick_14">
     <g id="line2d_15">
      <g>
       <use style="fill:#262626;stroke:#262626;" x="337.3875" xlink:href="#ma2646a19ae" y="102.814453125"/>
      </g>
     </g>
     <g id="text_15">
      <!-- 1.5 -->
      <g style="fill:#262626;" transform="translate(310.4875 105.399609375)scale(0.1 -0.1)">
       <use xlink:href="#ArialMT-31"/>
       <use x="55.615234375" xlink:href="#ArialMT-2e"/>
       <use x="83.3984375" xlink:href="#ArialMT-35"/>
      </g>
     </g>
    </g>
    <g id="ytick_15">
     <g id="line2d_16">
      <g>
       <use style="fill:#262626;stroke:#262626;" x="337.3875" xlink:href="#ma2646a19ae" y="73.64296875"/>
      </g>
     </g>
     <g id="text_16">
      <!-- 2.0 -->
      <g style="fill:#262626;" transform="translate(310.4875 76.228125)scale(0.1 -0.1)">
       <use xlink:href="#ArialMT-32"/>
       <use x="55.615234375" xlink:href="#ArialMT-2e"/>
       <use x="83.3984375" xlink:href="#ArialMT-30"/>
      </g>
     </g>
    </g>
    <g id="ytick_16">
     <g id="line2d_17">
      <g>
       <use style="fill:#262626;stroke:#262626;" x="337.3875" xlink:href="#ma2646a19ae" y="44.471484375"/>
      </g>
     </g>
     <g id="text_17">
      <!-- 2.5 -->
      <g style="fill:#262626;" transform="translate(310.4875 47.056640625)scale(0.1 -0.1)">
       <use xlink:href="#ArialMT-32"/>
       <use x="55.615234375" xlink:href="#ArialMT-2e"/>
       <use x="83.3984375" xlink:href="#ArialMT-35"/>
      </g>
     </g>
    </g>
    <g id="ytick_17">
     <g id="line2d_18">
      <g>
       <use style="fill:#262626;stroke:#262626;" x="337.3875" xlink:href="#ma2646a19ae" y="15.3"/>
      </g>
     </g>
     <g id="text_18">
      <!-- 3.0 -->
      <g style="fill:#262626;" transform="translate(310.4875 17.88515625)scale(0.1 -0.1)">
       <use xlink:href="#ArialMT-33"/>
       <use x="55.615234375" xlink:href="#ArialMT-2e"/>
       <use x="83.3984375" xlink:href="#ArialMT-30"/>
      </g>
     </g>
    </g>
    <g id="text_19">
     <!-- Count -->
     <defs>
      <path d="M 25.78125 7.859375 
L 27.046875 0.09375 
Q 23.34375 -0.6875 20.40625 -0.6875 
Q 15.625 -0.6875 12.984375 0.828125 
Q 10.359375 2.34375 9.28125 4.8125 
Q 8.203125 7.28125 8.203125 15.1875 
L 8.203125 45.015625 
L 1.765625 45.015625 
L 1.765625 51.859375 
L 8.203125 51.859375 
L 8.203125 64.703125 
L 16.9375 69.96875 
L 16.9375 51.859375 
L 25.78125 51.859375 
L 25.78125 45.015625 
L 16.9375 45.015625 
L 16.9375 14.703125 
Q 16.9375 10.9375 17.40625 9.859375 
Q 17.875 8.796875 18.921875 8.15625 
Q 19.96875 7.515625 21.921875 7.515625 
Q 23.390625 7.515625 25.78125 7.859375 
" id="ArialMT-74"/>
      <path d="M 58.796875 25.09375 
L 68.265625 22.703125 
Q 65.28125 11.03125 57.546875 4.90625 
Q 49.8125 -1.21875 38.625 -1.21875 
Q 27.046875 -1.21875 19.796875 3.484375 
Q 12.546875 8.203125 8.765625 17.140625 
Q 4.984375 26.078125 4.984375 36.328125 
Q 4.984375 47.515625 9.25 55.828125 
Q 13.53125 64.15625 21.40625 68.46875 
Q 29.296875 72.796875 38.765625 72.796875 
Q 49.515625 72.796875 56.828125 67.328125 
Q 64.15625 61.859375 67.046875 51.953125 
L 57.71875 49.75 
Q 55.21875 57.5625 50.484375 61.125 
Q 45.75 64.703125 38.578125 64.703125 
Q 30.328125 64.703125 24.78125 60.734375 
Q 19.234375 56.78125 16.984375 50.109375 
Q 14.75 43.453125 14.75 36.375 
Q 14.75 27.25 17.40625 20.4375 
Q 20.0625 13.625 25.671875 10.25 
Q 31.296875 6.890625 37.84375 6.890625 
Q 45.796875 6.890625 51.3125 11.46875 
Q 56.84375 16.0625 58.796875 25.09375 
" id="ArialMT-43"/>
      <path d="M 3.328125 25.921875 
Q 3.328125 40.328125 11.328125 47.265625 
Q 18.015625 53.03125 27.640625 53.03125 
Q 38.328125 53.03125 45.109375 46.015625 
Q 51.90625 39.015625 51.90625 26.65625 
Q 51.90625 16.65625 48.90625 10.90625 
Q 45.90625 5.171875 40.15625 2 
Q 34.421875 -1.171875 27.640625 -1.171875 
Q 16.75 -1.171875 10.03125 5.8125 
Q 3.328125 12.796875 3.328125 25.921875 
M 12.359375 25.921875 
Q 12.359375 15.96875 16.703125 11.015625 
Q 21.046875 6.0625 27.640625 6.0625 
Q 34.1875 6.0625 38.53125 11.03125 
Q 42.875 16.015625 42.875 26.21875 
Q 42.875 35.84375 38.5 40.796875 
Q 34.125 45.75 27.640625 45.75 
Q 21.046875 45.75 16.703125 40.8125 
Q 12.359375 35.890625 12.359375 25.921875 
" id="ArialMT-6f"/>
      <path d="M 6.59375 0 
L 6.59375 51.859375 
L 14.5 51.859375 
L 14.5 44.484375 
Q 20.21875 53.03125 31 53.03125 
Q 35.6875 53.03125 39.625 51.34375 
Q 43.5625 49.65625 45.515625 46.921875 
Q 47.46875 44.1875 48.25 40.4375 
Q 48.734375 37.984375 48.734375 31.890625 
L 48.734375 0 
L 39.9375 0 
L 39.9375 31.546875 
Q 39.9375 36.921875 38.90625 39.578125 
Q 37.890625 42.234375 35.28125 43.8125 
Q 32.671875 45.40625 29.15625 45.40625 
Q 23.53125 45.40625 19.453125 41.84375 
Q 15.375 38.28125 15.375 28.328125 
L 15.375 0 
z
" id="ArialMT-6e"/>
     </defs>
     <g style="fill:#262626;" transform="translate(303.30125 117.49)rotate(-90.0)scale(0.11 -0.11)">
      <use xlink:href="#ArialMT-43"/>
      <use x="72.216796875" xlink:href="#ArialMT-6f"/>
      <use x="127.83203125" xlink:href="#ArialMT-75"/>
      <use x="183.447265625" xlink:href="#ArialMT-6e"/>
      <use x="239.0625" xlink:href="#ArialMT-74"/>
     </g>
    </g>
   </g>
   <g id="PolyCollection_2">
    <defs>
     <path d="M 337.3875 -241.671094 
L 337.3875 -241.671094 
L 346.10625 -241.671094 
L 354.825 -241.671094 
L 363.54375 -241.671094 
L 372.2625 -241.671094 
L 380.98125 -241.671094 
L 389.7 -241.671094 
L 398.41875 -244.588242 
L 407.1375 -247.505391 
L 415.85625 -244.588242 
L 424.575 -241.671094 
L 433.29375 -244.588242 
L 442.0125 -247.505391 
L 450.73125 -244.588242 
L 459.45 -241.671094 
L 468.16875 -241.671094 
L 476.8875 -244.588242 
L 485.60625 -241.671094 
L 494.325 -241.671094 
L 503.04375 -241.671094 
L 511.7625 -241.671094 
L 520.48125 -241.671094 
L 529.2 -241.671094 
L 537.91875 -241.671094 
L 546.6375 -241.671094 
L 555.35625 -241.671094 
L 555.35625 -241.671094 
L 555.35625 -241.671094 
L 546.6375 -241.671094 
L 537.91875 -241.671094 
L 529.2 -250.422539 
L 520.48125 -250.422539 
L 511.7625 -267.92543 
L 503.04375 -267.92543 
L 494.325 -265.008281 
L 485.60625 -267.92543 
L 476.8875 -265.008281 
L 468.16875 -259.173984 
L 459.45 -259.173984 
L 450.73125 -265.008281 
L 442.0125 -267.92543 
L 433.29375 -265.008281 
L 424.575 -256.256836 
L 415.85625 -265.008281 
L 407.1375 -267.92543 
L 398.41875 -265.008281 
L 389.7 -259.173984 
L 380.98125 -256.256836 
L 372.2625 -241.671094 
L 363.54375 -241.671094 
L 354.825 -241.671094 
L 346.10625 -241.671094 
L 337.3875 -241.671094 
z
" id="m2425ee59f2" style="stroke:#4c72b0;stroke-opacity:0.2;stroke-width:0.3;"/>
    </defs>
    <g clip-path="url(#p365cb70f8a)">
     <use style="fill:#4c72b0;fill-opacity:0.2;stroke:#4c72b0;stroke-opacity:0.2;stroke-width:0.3;" x="0.0" xlink:href="#m2425ee59f2" y="432.0"/>
    </g>
   </g>
   <g id="PolyCollection_3">
    <defs>
     <path d="M 337.3875 -407.948555 
L 337.3875 -381.694219 
L 346.10625 -375.859922 
L 354.825 -372.942773 
L 363.54375 -358.357031 
L 372.2625 -352.522734 
L 380.98125 -343.771289 
L 389.7 -332.102695 
L 398.41875 -326.268398 
L 407.1375 -311.682656 
L 415.85625 -297.096914 
L 424.575 -291.262617 
L 433.29375 -273.759727 
L 442.0125 -270.842578 
L 450.73125 -264.935353 
L 459.45 -256.256836 
L 468.16875 -253.339687 
L 476.8875 -247.505391 
L 485.60625 -244.588242 
L 494.325 -241.671094 
L 503.04375 -241.671094 
L 511.7625 -241.671094 
L 520.48125 -241.671094 
L 529.2 -241.671094 
L 537.91875 -241.671094 
L 546.6375 -241.671094 
L 555.35625 -241.671094 
L 555.35625 -241.671094 
L 555.35625 -241.671094 
L 546.6375 -241.671094 
L 537.91875 -241.671094 
L 529.2 -241.671094 
L 520.48125 -241.671094 
L 511.7625 -250.422539 
L 503.04375 -250.422539 
L 494.325 -256.256836 
L 485.60625 -265.008281 
L 476.8875 -270.842578 
L 468.16875 -276.676875 
L 459.45 -279.594023 
L 450.73125 -297.096914 
L 442.0125 -308.765508 
L 433.29375 -320.434102 
L 424.575 -329.185547 
L 415.85625 -332.102695 
L 407.1375 -349.605586 
L 398.41875 -367.108477 
L 389.7 -372.942773 
L 380.98125 -381.694219 
L 372.2625 -390.445664 
L 363.54375 -387.528516 
L 354.825 -405.031406 
L 346.10625 -407.948555 
L 337.3875 -407.948555 
z
" id="m805f336ed8" style="stroke:#55a868;stroke-opacity:0.2;stroke-width:0.3;"/>
    </defs>
    <g clip-path="url(#p365cb70f8a)">
     <use style="fill:#55a868;fill-opacity:0.2;stroke:#55a868;stroke-opacity:0.2;stroke-width:0.3;" x="0.0" xlink:href="#m805f336ed8" y="432.0"/>
    </g>
   </g>
   <g id="PolyCollection_4">
    <defs>
     <path d="M 337.3875 -241.671094 
L 337.3875 -241.671094 
L 346.10625 -241.671094 
L 354.825 -241.671094 
L 363.54375 -241.671094 
L 372.2625 -241.671094 
L 380.98125 -241.671094 
L 389.7 -241.671094 
L 398.41875 -241.671094 
L 407.1375 -241.671094 
L 415.85625 -241.671094 
L 424.575 -241.671094 
L 433.29375 -241.671094 
L 442.0125 -241.671094 
L 450.73125 -244.588242 
L 459.45 -244.588242 
L 468.16875 -247.505391 
L 476.8875 -256.256836 
L 485.60625 -270.842578 
L 494.325 -279.594023 
L 503.04375 -288.345469 
L 511.7625 -311.682656 
L 520.48125 -332.102695 
L 529.2 -349.605586 
L 537.91875 -355.439883 
L 546.6375 -355.439883 
L 555.35625 -367.108477 
L 555.35625 -399.197109 
L 555.35625 -399.197109 
L 546.6375 -396.279961 
L 537.91875 -396.279961 
L 529.2 -390.445664 
L 520.48125 -378.77707 
L 511.7625 -364.191328 
L 503.04375 -343.771289 
L 494.325 -335.019844 
L 485.60625 -314.599805 
L 476.8875 -294.179766 
L 468.16875 -279.594023 
L 459.45 -265.008281 
L 450.73125 -265.008281 
L 442.0125 -241.671094 
L 433.29375 -241.671094 
L 424.575 -250.422539 
L 415.85625 -241.671094 
L 407.1375 -241.671094 
L 398.41875 -241.671094 
L 389.7 -241.671094 
L 380.98125 -241.671094 
L 372.2625 -241.671094 
L 363.54375 -241.671094 
L 354.825 -241.671094 
L 346.10625 -241.671094 
L 337.3875 -241.671094 
z
" id="ma9514a5c04" style="stroke:#c44e52;stroke-opacity:0.2;stroke-width:0.3;"/>
    </defs>
    <g clip-path="url(#p365cb70f8a)">
     <use style="fill:#c44e52;fill-opacity:0.2;stroke:#c44e52;stroke-opacity:0.2;stroke-width:0.3;" x="0.0" xlink:href="#ma9514a5c04" y="432.0"/>
    </g>
   </g>
   <g id="line2d_19">
    <path clip-path="url(#p365cb70f8a)" d="M 337.3875 190.328906 
L 346.10625 190.328906 
L 354.825 190.328906 
L 363.54375 190.328906 
L 372.2625 190.328906 
L 380.98125 184.494609 
L 389.7 181.577461 
L 398.41875 178.660313 
L 407.1375 175.743164 
L 415.85625 178.660313 
L 424.575 184.494609 
L 433.29375 178.660313 
L 442.0125 175.743164 
L 450.73125 178.660313 
L 459.45 181.577461 
L 468.16875 181.577461 
L 476.8875 178.660313 
L 485.60625 178.660313 
L 494.325 181.577461 
L 503.04375 178.660313 
L 511.7625 178.660313 
L 520.48125 187.411758 
L 529.2 187.411758 
L 537.91875 190.328906 
L 546.6375 190.328906 
L 555.35625 190.328906 
" style="fill:none;stroke:#4c72b0;stroke-linecap:round;stroke-width:1.75;"/>
   </g>
   <g id="line2d_20">
    <path clip-path="url(#p365cb70f8a)" d="M 337.3875 35.720039 
L 346.10625 38.637188 
L 354.825 41.554336 
L 363.54375 59.057227 
L 372.2625 59.057227 
L 380.98125 67.808672 
L 389.7 79.477266 
L 398.41875 85.311563 
L 407.1375 99.897305 
L 415.85625 117.400195 
L 424.575 120.317344 
L 433.29375 134.903086 
L 442.0125 143.654531 
L 450.73125 152.405977 
L 459.45 164.07457 
L 468.16875 166.991719 
L 476.8875 172.826016 
L 485.60625 178.660313 
L 494.325 184.494609 
L 503.04375 187.411758 
L 511.7625 187.411758 
L 520.48125 190.328906 
L 529.2 190.328906 
L 537.91875 190.328906 
L 546.6375 190.328906 
L 555.35625 190.328906 
" style="fill:none;stroke:#55a868;stroke-linecap:round;stroke-width:1.75;"/>
   </g>
   <g id="line2d_21">
    <path clip-path="url(#p365cb70f8a)" d="M 337.3875 190.328906 
L 346.10625 190.328906 
L 354.825 190.328906 
L 363.54375 190.328906 
L 372.2625 190.328906 
L 380.98125 190.328906 
L 389.7 190.328906 
L 398.41875 190.328906 
L 407.1375 190.328906 
L 415.85625 190.328906 
L 424.575 187.411758 
L 433.29375 190.328906 
L 442.0125 190.328906 
L 450.73125 178.660313 
L 459.45 178.660313 
L 468.16875 169.908867 
L 476.8875 158.240273 
L 485.60625 140.737383 
L 494.325 126.151641 
L 503.04375 117.400195 
L 511.7625 94.063008 
L 520.48125 76.560117 
L 529.2 61.974375 
L 537.91875 56.140078 
L 546.6375 56.140078 
L 555.35625 47.388633 
" style="fill:none;stroke:#c44e52;stroke-linecap:round;stroke-width:1.75;"/>
   </g>
   <g id="patch_6">
    <path d="M 337.3875 190.328906 
L 555.35625 190.328906 
" style="fill:none;stroke:#262626;stroke-linecap:square;stroke-linejoin:miter;stroke-width:1.25;"/>
   </g>
   <g id="patch_7">
    <path d="M 337.3875 190.328906 
L 337.3875 15.3 
" style="fill:none;stroke:#262626;stroke-linecap:square;stroke-linejoin:miter;stroke-width:1.25;"/>
   </g>
   <g id="legend_1">
    <g id="line2d_22">
     <path d="M 403.745312 27.957812 
L 423.745312 27.957812 
" style="fill:none;stroke:#4c72b0;stroke-linecap:round;stroke-width:1.75;"/>
    </g>
    <g id="line2d_23"/>
    <g id="text_20">
     <!-- Substitutions -->
     <defs>
      <path d="M 4.5 23 
L 13.421875 23.78125 
Q 14.0625 18.40625 16.375 14.96875 
Q 18.703125 11.53125 23.578125 9.40625 
Q 28.46875 7.28125 34.578125 7.28125 
Q 39.984375 7.28125 44.140625 8.890625 
Q 48.296875 10.5 50.3125 13.296875 
Q 52.34375 16.109375 52.34375 19.4375 
Q 52.34375 22.796875 50.390625 25.3125 
Q 48.4375 27.828125 43.953125 29.546875 
Q 41.0625 30.671875 31.203125 33.03125 
Q 21.34375 35.40625 17.390625 37.5 
Q 12.25 40.1875 9.734375 44.15625 
Q 7.234375 48.140625 7.234375 53.078125 
Q 7.234375 58.5 10.296875 63.203125 
Q 13.375 67.921875 19.28125 70.359375 
Q 25.203125 72.796875 32.421875 72.796875 
Q 40.375 72.796875 46.453125 70.234375 
Q 52.546875 67.671875 55.8125 62.6875 
Q 59.078125 57.71875 59.328125 51.421875 
L 50.25 50.734375 
Q 49.515625 57.515625 45.28125 60.984375 
Q 41.0625 64.453125 32.8125 64.453125 
Q 24.21875 64.453125 20.28125 61.296875 
Q 16.359375 58.15625 16.359375 53.71875 
Q 16.359375 49.859375 19.140625 47.359375 
Q 21.875 44.875 33.421875 42.265625 
Q 44.96875 39.65625 49.265625 37.703125 
Q 55.515625 34.8125 58.484375 30.390625 
Q 61.46875 25.984375 61.46875 20.21875 
Q 61.46875 14.5 58.203125 9.4375 
Q 54.9375 4.390625 48.796875 1.578125 
Q 42.671875 -1.21875 35.015625 -1.21875 
Q 25.296875 -1.21875 18.71875 1.609375 
Q 12.15625 4.4375 8.421875 10.125 
Q 4.6875 15.828125 4.5 23 
" id="ArialMT-53"/>
      <path d="M 6.640625 61.46875 
L 6.640625 71.578125 
L 15.4375 71.578125 
L 15.4375 61.46875 
z
M 6.640625 0 
L 6.640625 51.859375 
L 15.4375 51.859375 
L 15.4375 0 
z
" id="ArialMT-69"/>
      <path d="M 3.078125 15.484375 
L 11.765625 16.84375 
Q 12.5 11.625 15.84375 8.84375 
Q 19.1875 6.0625 25.203125 6.0625 
Q 31.25 6.0625 34.171875 8.515625 
Q 37.109375 10.984375 37.109375 14.3125 
Q 37.109375 17.28125 34.515625 19 
Q 32.71875 20.171875 25.53125 21.96875 
Q 15.875 24.421875 12.140625 26.203125 
Q 8.40625 27.984375 6.46875 31.125 
Q 4.546875 34.28125 4.546875 38.09375 
Q 4.546875 41.546875 6.125 44.5 
Q 7.71875 47.46875 10.453125 49.421875 
Q 12.5 50.921875 16.03125 51.96875 
Q 19.578125 53.03125 23.640625 53.03125 
Q 29.734375 53.03125 34.34375 51.265625 
Q 38.96875 49.515625 41.15625 46.5 
Q 43.359375 43.5 44.1875 38.484375 
L 35.59375 37.3125 
Q 35.015625 41.3125 32.203125 43.546875 
Q 29.390625 45.796875 24.265625 45.796875 
Q 18.21875 45.796875 15.625 43.796875 
Q 13.03125 41.796875 13.03125 39.109375 
Q 13.03125 37.40625 14.109375 36.03125 
Q 15.1875 34.625 17.484375 33.6875 
Q 18.796875 33.203125 25.25 31.453125 
Q 34.578125 28.953125 38.25 27.359375 
Q 41.9375 25.78125 44.03125 22.75 
Q 46.140625 19.734375 46.140625 15.234375 
Q 46.140625 10.84375 43.578125 6.953125 
Q 41.015625 3.078125 36.171875 0.953125 
Q 31.34375 -1.171875 25.25 -1.171875 
Q 15.140625 -1.171875 9.84375 3.03125 
Q 4.546875 7.234375 3.078125 15.484375 
" id="ArialMT-73"/>
      <path d="M 14.703125 0 
L 6.546875 0 
L 6.546875 71.578125 
L 15.328125 71.578125 
L 15.328125 46.046875 
Q 20.90625 53.03125 29.546875 53.03125 
Q 34.328125 53.03125 38.59375 51.09375 
Q 42.875 49.171875 45.625 45.671875 
Q 48.390625 42.1875 49.953125 37.25 
Q 51.515625 32.328125 51.515625 26.703125 
Q 51.515625 13.375 44.921875 6.09375 
Q 38.328125 -1.171875 29.109375 -1.171875 
Q 19.921875 -1.171875 14.703125 6.5 
z
M 14.59375 26.3125 
Q 14.59375 17 17.140625 12.84375 
Q 21.296875 6.0625 28.375 6.0625 
Q 34.125 6.0625 38.328125 11.0625 
Q 42.53125 16.0625 42.53125 25.984375 
Q 42.53125 36.140625 38.5 40.96875 
Q 34.46875 45.796875 28.765625 45.796875 
Q 23 45.796875 18.796875 40.796875 
Q 14.59375 35.796875 14.59375 26.3125 
" id="ArialMT-62"/>
     </defs>
     <g style="fill:#262626;" transform="translate(431.7453125 31.4578125)scale(0.1 -0.1)">
      <use xlink:href="#ArialMT-53"/>
      <use x="66.69921875" xlink:href="#ArialMT-75"/>
      <use x="122.314453125" xlink:href="#ArialMT-62"/>
      <use x="177.9296875" xlink:href="#ArialMT-73"/>
      <use x="227.9296875" xlink:href="#ArialMT-74"/>
      <use x="255.712890625" xlink:href="#ArialMT-69"/>
      <use x="277.9296875" xlink:href="#ArialMT-74"/>
      <use x="305.712890625" xlink:href="#ArialMT-75"/>
      <use x="361.328125" xlink:href="#ArialMT-74"/>
      <use x="389.111328125" xlink:href="#ArialMT-69"/>
      <use x="411.328125" xlink:href="#ArialMT-6f"/>
      <use x="466.943359375" xlink:href="#ArialMT-6e"/>
      <use x="522.55859375" xlink:href="#ArialMT-73"/>
     </g>
    </g>
    <g id="line2d_24">
     <path d="M 403.745312 42.103125 
L 423.745312 42.103125 
" style="fill:none;stroke:#55a868;stroke-linecap:round;stroke-width:1.75;"/>
    </g>
    <g id="line2d_25"/>
    <g id="text_21">
     <!-- Insertions -->
     <defs>
      <path d="M 9.328125 0 
L 9.328125 71.578125 
L 18.796875 71.578125 
L 18.796875 0 
z
" id="ArialMT-49"/>
      <path d="M 42.09375 16.703125 
L 51.171875 15.578125 
Q 49.03125 7.625 43.21875 3.21875 
Q 37.40625 -1.171875 28.375 -1.171875 
Q 17 -1.171875 10.328125 5.828125 
Q 3.65625 12.84375 3.65625 25.484375 
Q 3.65625 38.578125 10.390625 45.796875 
Q 17.140625 53.03125 27.875 53.03125 
Q 38.28125 53.03125 44.875 45.953125 
Q 51.46875 38.875 51.46875 26.03125 
Q 51.46875 25.25 51.421875 23.6875 
L 12.75 23.6875 
Q 13.234375 15.140625 17.578125 10.59375 
Q 21.921875 6.0625 28.421875 6.0625 
Q 33.25 6.0625 36.671875 8.59375 
Q 40.09375 11.140625 42.09375 16.703125 
M 13.234375 30.90625 
L 42.1875 30.90625 
Q 41.609375 37.453125 38.875 40.71875 
Q 34.671875 45.796875 27.984375 45.796875 
Q 21.921875 45.796875 17.796875 41.75 
Q 13.671875 37.703125 13.234375 30.90625 
" id="ArialMT-65"/>
     </defs>
     <g style="fill:#262626;" transform="translate(431.7453125 45.603125)scale(0.1 -0.1)">
      <use xlink:href="#ArialMT-49"/>
      <use x="27.783203125" xlink:href="#ArialMT-6e"/>
      <use x="83.3984375" xlink:href="#ArialMT-73"/>
      <use x="133.3984375" xlink:href="#ArialMT-65"/>
      <use x="189.013671875" xlink:href="#ArialMT-72"/>
      <use x="222.314453125" xlink:href="#ArialMT-74"/>
      <use x="250.09765625" xlink:href="#ArialMT-69"/>
      <use x="272.314453125" xlink:href="#ArialMT-6f"/>
      <use x="327.9296875" xlink:href="#ArialMT-6e"/>
      <use x="383.544921875" xlink:href="#ArialMT-73"/>
     </g>
    </g>
    <g id="line2d_26">
     <path d="M 403.745312 56.248437 
L 423.745312 56.248437 
" style="fill:none;stroke:#c44e52;stroke-linecap:round;stroke-width:1.75;"/>
    </g>
    <g id="line2d_27"/>
    <g id="text_22">
     <!-- Deletions -->
     <defs>
      <path d="M 6.390625 0 
L 6.390625 71.578125 
L 15.1875 71.578125 
L 15.1875 0 
z
" id="ArialMT-6c"/>
      <path d="M 7.71875 0 
L 7.71875 71.578125 
L 32.375 71.578125 
Q 40.71875 71.578125 45.125 70.5625 
Q 51.265625 69.140625 55.609375 65.4375 
Q 61.28125 60.640625 64.078125 53.1875 
Q 66.890625 45.75 66.890625 36.1875 
Q 66.890625 28.03125 64.984375 21.734375 
Q 63.09375 15.4375 60.109375 11.296875 
Q 57.125 7.171875 53.578125 4.796875 
Q 50.046875 2.4375 45.046875 1.21875 
Q 40.046875 0 33.546875 0 
z
M 17.1875 8.453125 
L 32.46875 8.453125 
Q 39.546875 8.453125 43.578125 9.765625 
Q 47.609375 11.078125 50 13.484375 
Q 53.375 16.84375 55.25 22.53125 
Q 57.125 28.21875 57.125 36.328125 
Q 57.125 47.5625 53.4375 53.59375 
Q 49.75 59.625 44.484375 61.671875 
Q 40.671875 63.140625 32.234375 63.140625 
L 17.1875 63.140625 
z
" id="ArialMT-44"/>
     </defs>
     <g style="fill:#262626;" transform="translate(431.7453125 59.7484375)scale(0.1 -0.1)">
      <use xlink:href="#ArialMT-44"/>
      <use x="72.216796875" xlink:href="#ArialMT-65"/>
      <use x="127.83203125" xlink:href="#ArialMT-6c"/>
      <use x="150.048828125" xlink:href="#ArialMT-65"/>
      <use x="205.6640625" xlink:href="#ArialMT-74"/>
      <use x="233.447265625" xlink:href="#ArialMT-69"/>
      <use x="255.6640625" xlink:href="#ArialMT-6f"/>
      <use x="311.279296875" xlink:href="#ArialMT-6e"/>
      <use x="366.89453125" xlink:href="#ArialMT-73"/>
     </g>
    </g>
   </g>
  </g>
  <g id="axes_3">
   <g id="patch_8">
    <path d="M 57.7125 385.157813 
L 275.68125 385.157813 
L 275.68125 210.128906 
L 57.7125 210.128906 
z
" style="fill:#ffffff;"/>
   </g>
   <g id="matplotlib.axis_5">
    <g id="xtick_1">
     <g id="line2d_28">
      <defs>
       <path d="M 0 0 
L 0 6 
" id="mb204c2d1ea" style="stroke:#262626;"/>
      </defs>
      <g>
       <use style="fill:#262626;stroke:#262626;" x="57.7125" xlink:href="#mb204c2d1ea" y="385.1578125"/>
      </g>
     </g>
     <g id="text_23">
      <!-- 0.65 -->
      <g style="fill:#262626;" transform="translate(47.98203125 405.315625)scale(0.1 -0.1)">
       <use xlink:href="#ArialMT-30"/>
       <use x="55.615234375" xlink:href="#ArialMT-2e"/>
       <use x="83.3984375" xlink:href="#ArialMT-36"/>
       <use x="139.013671875" xlink:href="#ArialMT-35"/>
      </g>
     </g>
    </g>
    <g id="xtick_2">
     <g id="line2d_29">
      <g>
       <use style="fill:#262626;stroke:#262626;" x="101.30625" xlink:href="#mb204c2d1ea" y="385.1578125"/>
      </g>
     </g>
     <g id="text_24">
      <!-- 0.70 -->
      <g style="fill:#262626;" transform="translate(91.57578125 405.315625)scale(0.1 -0.1)">
       <use xlink:href="#ArialMT-30"/>
       <use x="55.615234375" xlink:href="#ArialMT-2e"/>
       <use x="83.3984375" xlink:href="#ArialMT-37"/>
       <use x="139.013671875" xlink:href="#ArialMT-30"/>
      </g>
     </g>
    </g>
    <g id="xtick_3">
     <g id="line2d_30">
      <g>
       <use style="fill:#262626;stroke:#262626;" x="144.9" xlink:href="#mb204c2d1ea" y="385.1578125"/>
      </g>
     </g>
     <g id="text_25">
      <!-- 0.75 -->
      <g style="fill:#262626;" transform="translate(135.16953125 405.315625)scale(0.1 -0.1)">
       <use xlink:href="#ArialMT-30"/>
       <use x="55.615234375" xlink:href="#ArialMT-2e"/>
       <use x="83.3984375" xlink:href="#ArialMT-37"/>
       <use x="139.013671875" xlink:href="#ArialMT-35"/>
      </g>
     </g>
    </g>
    <g id="xtick_4">
     <g id="line2d_31">
      <g>
       <use style="fill:#262626;stroke:#262626;" x="188.49375" xlink:href="#mb204c2d1ea" y="385.1578125"/>
      </g>
     </g>
     <g id="text_26">
      <!-- 0.80 -->
      <g style="fill:#262626;" transform="translate(178.76328125 405.315625)scale(0.1 -0.1)">
       <use xlink:href="#ArialMT-30"/>
       <use x="55.615234375" xlink:href="#ArialMT-2e"/>
       <use x="83.3984375" xlink:href="#ArialMT-38"/>
       <use x="139.013671875" xlink:href="#ArialMT-30"/>
      </g>
     </g>
    </g>
    <g id="xtick_5">
     <g id="line2d_32">
      <g>
       <use style="fill:#262626;stroke:#262626;" x="232.0875" xlink:href="#mb204c2d1ea" y="385.1578125"/>
      </g>
     </g>
     <g id="text_27">
      <!-- 0.85 -->
      <g style="fill:#262626;" transform="translate(222.35703125 405.315625)scale(0.1 -0.1)">
       <use xlink:href="#ArialMT-30"/>
       <use x="55.615234375" xlink:href="#ArialMT-2e"/>
       <use x="83.3984375" xlink:href="#ArialMT-38"/>
       <use x="139.013671875" xlink:href="#ArialMT-35"/>
      </g>
     </g>
    </g>
    <g id="xtick_6">
     <g id="line2d_33">
      <g>
       <use style="fill:#262626;stroke:#262626;" x="275.68125" xlink:href="#mb204c2d1ea" y="385.1578125"/>
      </g>
     </g>
     <g id="text_28">
      <!-- 0.90 -->
      <g style="fill:#262626;" transform="translate(265.95078125 405.315625)scale(0.1 -0.1)">
       <use xlink:href="#ArialMT-30"/>
       <use x="55.615234375" xlink:href="#ArialMT-2e"/>
       <use x="83.3984375" xlink:href="#ArialMT-39"/>
       <use x="139.013671875" xlink:href="#ArialMT-30"/>
      </g>
     </g>
    </g>
    <g id="text_29">
     <!-- Similarity threshold -->
     <defs>
      <path d="M 40.234375 0 
L 40.234375 6.546875 
Q 35.296875 -1.171875 25.734375 -1.171875 
Q 19.53125 -1.171875 14.328125 2.25 
Q 9.125 5.671875 6.265625 11.796875 
Q 3.421875 17.921875 3.421875 25.875 
Q 3.421875 33.640625 6 39.96875 
Q 8.59375 46.296875 13.765625 49.65625 
Q 18.953125 53.03125 25.34375 53.03125 
Q 30.03125 53.03125 33.6875 51.046875 
Q 37.359375 49.078125 39.65625 45.90625 
L 39.65625 71.578125 
L 48.390625 71.578125 
L 48.390625 0 
z
M 12.453125 25.875 
Q 12.453125 15.921875 16.640625 10.984375 
Q 20.84375 6.0625 26.5625 6.0625 
Q 32.328125 6.0625 36.34375 10.765625 
Q 40.375 15.484375 40.375 25.140625 
Q 40.375 35.796875 36.265625 40.765625 
Q 32.171875 45.75 26.171875 45.75 
Q 20.3125 45.75 16.375 40.96875 
Q 12.453125 36.1875 12.453125 25.875 
" id="ArialMT-64"/>
      <path id="ArialMT-20"/>
      <path d="M 6.59375 0 
L 6.59375 71.578125 
L 15.375 71.578125 
L 15.375 45.90625 
Q 21.53125 53.03125 30.90625 53.03125 
Q 36.671875 53.03125 40.921875 50.75 
Q 45.171875 48.484375 47 44.484375 
Q 48.828125 40.484375 48.828125 32.859375 
L 48.828125 0 
L 40.046875 0 
L 40.046875 32.859375 
Q 40.046875 39.453125 37.1875 42.453125 
Q 34.328125 45.453125 29.109375 45.453125 
Q 25.203125 45.453125 21.75 43.421875 
Q 18.3125 41.40625 16.84375 37.9375 
Q 15.375 34.46875 15.375 28.375 
L 15.375 0 
z
" id="ArialMT-68"/>
      <path d="M 6.59375 0 
L 6.59375 51.859375 
L 14.453125 51.859375 
L 14.453125 44.578125 
Q 16.890625 48.390625 20.9375 50.703125 
Q 25 53.03125 30.171875 53.03125 
Q 35.9375 53.03125 39.625 50.640625 
Q 43.3125 48.25 44.828125 43.953125 
Q 50.984375 53.03125 60.84375 53.03125 
Q 68.5625 53.03125 72.703125 48.75 
Q 76.859375 44.484375 76.859375 35.59375 
L 76.859375 0 
L 68.109375 0 
L 68.109375 32.671875 
Q 68.109375 37.9375 67.25 40.25 
Q 66.40625 42.578125 64.15625 43.984375 
Q 61.921875 45.40625 58.890625 45.40625 
Q 53.421875 45.40625 49.796875 41.765625 
Q 46.1875 38.140625 46.1875 30.125 
L 46.1875 0 
L 37.40625 0 
L 37.40625 33.6875 
Q 37.40625 39.546875 35.25 42.46875 
Q 33.109375 45.40625 28.21875 45.40625 
Q 24.515625 45.40625 21.359375 43.453125 
Q 18.21875 41.5 16.796875 37.734375 
Q 15.375 33.984375 15.375 26.90625 
L 15.375 0 
z
" id="ArialMT-6d"/>
     </defs>
     <g style="fill:#262626;" transform="translate(120.2390625 420.31078125)scale(0.11 -0.11)">
      <use xlink:href="#ArialMT-53"/>
      <use x="66.69921875" xlink:href="#ArialMT-69"/>
      <use x="88.916015625" xlink:href="#ArialMT-6d"/>
      <use x="172.216796875" xlink:href="#ArialMT-69"/>
      <use x="194.43359375" xlink:href="#ArialMT-6c"/>
      <use x="216.650390625" xlink:href="#ArialMT-61"/>
      <use x="272.265625" xlink:href="#ArialMT-72"/>
      <use x="305.56640625" xlink:href="#ArialMT-69"/>
      <use x="327.783203125" xlink:href="#ArialMT-74"/>
      <use x="355.56640625" xlink:href="#ArialMT-79"/>
      <use x="405.56640625" xlink:href="#ArialMT-20"/>
      <use x="433.349609375" xlink:href="#ArialMT-74"/>
      <use x="461.1328125" xlink:href="#ArialMT-68"/>
      <use x="516.748046875" xlink:href="#ArialMT-72"/>
      <use x="550.048828125" xlink:href="#ArialMT-65"/>
      <use x="605.6640625" xlink:href="#ArialMT-73"/>
      <use x="655.6640625" xlink:href="#ArialMT-68"/>
      <use x="711.279296875" xlink:href="#ArialMT-6f"/>
      <use x="766.89453125" xlink:href="#ArialMT-6c"/>
      <use x="789.111328125" xlink:href="#ArialMT-64"/>
     </g>
    </g>
   </g>
   <g id="matplotlib.axis_6">
    <g id="ytick_18">
     <g id="line2d_34">
      <g>
       <use style="fill:#262626;stroke:#262626;" x="57.7125" xlink:href="#ma2646a19ae" y="385.1578125"/>
      </g>
     </g>
     <g id="text_30">
      <!-- 0.7 -->
      <defs>
       <path d="M 52.828125 31.203125 
L 5.5625 31.203125 
L 5.5625 39.40625 
L 52.828125 39.40625 
z
" id="ArialMT-2212"/>
      </defs>
      <g style="fill:#262626;" transform="translate(24.971875 387.74296875)scale(0.1 -0.1)">
       <use xlink:href="#ArialMT-2212"/>
       <use x="58.3984375" xlink:href="#ArialMT-30"/>
       <use x="114.013671875" xlink:href="#ArialMT-2e"/>
       <use x="141.796875" xlink:href="#ArialMT-37"/>
      </g>
     </g>
    </g>
    <g id="ytick_19">
     <g id="line2d_35">
      <g>
       <use style="fill:#262626;stroke:#262626;" x="57.7125" xlink:href="#ma2646a19ae" y="363.279199219"/>
      </g>
     </g>
     <g id="text_31">
      <!-- 0.6 -->
      <g style="fill:#262626;" transform="translate(24.971875 365.864355469)scale(0.1 -0.1)">
       <use xlink:href="#ArialMT-2212"/>
       <use x="58.3984375" xlink:href="#ArialMT-30"/>
       <use x="114.013671875" xlink:href="#ArialMT-2e"/>
       <use x="141.796875" xlink:href="#ArialMT-36"/>
      </g>
     </g>
    </g>
    <g id="ytick_20">
     <g id="line2d_36">
      <g>
       <use style="fill:#262626;stroke:#262626;" x="57.7125" xlink:href="#ma2646a19ae" y="341.400585937"/>
      </g>
     </g>
     <g id="text_32">
      <!-- 0.5 -->
      <g style="fill:#262626;" transform="translate(24.971875 343.985742187)scale(0.1 -0.1)">
       <use xlink:href="#ArialMT-2212"/>
       <use x="58.3984375" xlink:href="#ArialMT-30"/>
       <use x="114.013671875" xlink:href="#ArialMT-2e"/>
       <use x="141.796875" xlink:href="#ArialMT-35"/>
      </g>
     </g>
    </g>
    <g id="ytick_21">
     <g id="line2d_37">
      <g>
       <use style="fill:#262626;stroke:#262626;" x="57.7125" xlink:href="#ma2646a19ae" y="319.521972656"/>
      </g>
     </g>
     <g id="text_33">
      <!-- 0.4 -->
      <g style="fill:#262626;" transform="translate(24.971875 322.107128906)scale(0.1 -0.1)">
       <use xlink:href="#ArialMT-2212"/>
       <use x="58.3984375" xlink:href="#ArialMT-30"/>
       <use x="114.013671875" xlink:href="#ArialMT-2e"/>
       <use x="141.796875" xlink:href="#ArialMT-34"/>
      </g>
     </g>
    </g>
    <g id="ytick_22">
     <g id="line2d_38">
      <g>
       <use style="fill:#262626;stroke:#262626;" x="57.7125" xlink:href="#ma2646a19ae" y="297.643359375"/>
      </g>
     </g>
     <g id="text_34">
      <!-- 0.3 -->
      <g style="fill:#262626;" transform="translate(24.971875 300.228515625)scale(0.1 -0.1)">
       <use xlink:href="#ArialMT-2212"/>
       <use x="58.3984375" xlink:href="#ArialMT-30"/>
       <use x="114.013671875" xlink:href="#ArialMT-2e"/>
       <use x="141.796875" xlink:href="#ArialMT-33"/>
      </g>
     </g>
    </g>
    <g id="ytick_23">
     <g id="line2d_39">
      <g>
       <use style="fill:#262626;stroke:#262626;" x="57.7125" xlink:href="#ma2646a19ae" y="275.764746094"/>
      </g>
     </g>
     <g id="text_35">
      <!-- 0.2 -->
      <g style="fill:#262626;" transform="translate(24.971875 278.349902344)scale(0.1 -0.1)">
       <use xlink:href="#ArialMT-2212"/>
       <use x="58.3984375" xlink:href="#ArialMT-30"/>
       <use x="114.013671875" xlink:href="#ArialMT-2e"/>
       <use x="141.796875" xlink:href="#ArialMT-32"/>
      </g>
     </g>
    </g>
    <g id="ytick_24">
     <g id="line2d_40">
      <g>
       <use style="fill:#262626;stroke:#262626;" x="57.7125" xlink:href="#ma2646a19ae" y="253.886132812"/>
      </g>
     </g>
     <g id="text_36">
      <!-- 0.1 -->
      <g style="fill:#262626;" transform="translate(24.971875 256.471289062)scale(0.1 -0.1)">
       <use xlink:href="#ArialMT-2212"/>
       <use x="58.3984375" xlink:href="#ArialMT-30"/>
       <use x="114.013671875" xlink:href="#ArialMT-2e"/>
       <use x="141.796875" xlink:href="#ArialMT-31"/>
      </g>
     </g>
    </g>
    <g id="ytick_25">
     <g id="line2d_41">
      <g>
       <use style="fill:#262626;stroke:#262626;" x="57.7125" xlink:href="#ma2646a19ae" y="232.007519531"/>
      </g>
     </g>
     <g id="text_37">
      <!-- 0.0 -->
      <g style="fill:#262626;" transform="translate(30.8125 234.592675781)scale(0.1 -0.1)">
       <use xlink:href="#ArialMT-30"/>
       <use x="55.615234375" xlink:href="#ArialMT-2e"/>
       <use x="83.3984375" xlink:href="#ArialMT-30"/>
      </g>
     </g>
    </g>
    <g id="ytick_26">
     <g id="line2d_42">
      <g>
       <use style="fill:#262626;stroke:#262626;" x="57.7125" xlink:href="#ma2646a19ae" y="210.12890625"/>
      </g>
     </g>
     <g id="text_38">
      <!-- 0.1 -->
      <g style="fill:#262626;" transform="translate(30.8125 212.7140625)scale(0.1 -0.1)">
       <use xlink:href="#ArialMT-30"/>
       <use x="55.615234375" xlink:href="#ArialMT-2e"/>
       <use x="83.3984375" xlink:href="#ArialMT-31"/>
      </g>
     </g>
    </g>
    <g id="text_39">
     <!-- Timing -->
     <defs>
      <path d="M 4.984375 -4.296875 
L 13.53125 -5.5625 
Q 14.0625 -9.515625 16.5 -11.328125 
Q 19.78125 -13.765625 25.4375 -13.765625 
Q 31.546875 -13.765625 34.859375 -11.328125 
Q 38.1875 -8.890625 39.359375 -4.5 
Q 40.046875 -1.8125 39.984375 6.78125 
Q 34.234375 0 25.640625 0 
Q 14.9375 0 9.078125 7.71875 
Q 3.21875 15.4375 3.21875 26.21875 
Q 3.21875 33.640625 5.90625 39.90625 
Q 8.59375 46.1875 13.6875 49.609375 
Q 18.796875 53.03125 25.6875 53.03125 
Q 34.859375 53.03125 40.828125 45.609375 
L 40.828125 51.859375 
L 48.921875 51.859375 
L 48.921875 7.03125 
Q 48.921875 -5.078125 46.453125 -10.125 
Q 44 -15.1875 38.640625 -18.109375 
Q 33.296875 -21.046875 25.484375 -21.046875 
Q 16.21875 -21.046875 10.5 -16.875 
Q 4.78125 -12.703125 4.984375 -4.296875 
M 12.25 26.859375 
Q 12.25 16.65625 16.296875 11.96875 
Q 20.359375 7.28125 26.46875 7.28125 
Q 32.515625 7.28125 36.609375 11.9375 
Q 40.71875 16.609375 40.71875 26.5625 
Q 40.71875 36.078125 36.5 40.90625 
Q 32.28125 45.75 26.3125 45.75 
Q 20.453125 45.75 16.34375 40.984375 
Q 12.25 36.234375 12.25 26.859375 
" id="ArialMT-67"/>
      <path d="M 25.921875 0 
L 25.921875 63.140625 
L 2.34375 63.140625 
L 2.34375 71.578125 
L 59.078125 71.578125 
L 59.078125 63.140625 
L 35.40625 63.140625 
L 35.40625 0 
z
" id="ArialMT-54"/>
     </defs>
     <g style="fill:#262626;" transform="translate(17.65671875 314.1425)rotate(-90.0)scale(0.11 -0.11)">
      <use xlink:href="#ArialMT-54"/>
      <use x="61.037109375" xlink:href="#ArialMT-69"/>
      <use x="83.25390625" xlink:href="#ArialMT-6d"/>
      <use x="166.5546875" xlink:href="#ArialMT-69"/>
      <use x="188.771484375" xlink:href="#ArialMT-6e"/>
      <use x="244.38671875" xlink:href="#ArialMT-67"/>
     </g>
    </g>
   </g>
   <g id="PolyCollection_5">
    <defs>
     <path d="M 57.7125 -207.598749 
L 57.7125 -186.94102 
L 66.43125 -187.775415 
L 75.15 -192.063831 
L 83.86875 -186.603277 
L 92.5875 -185.673863 
L 101.30625 -187.281137 
L 110.025 -188.451827 
L 118.74375 -187.205483 
L 127.4625 -184.383398 
L 136.18125 -169.476289 
L 144.9 -170.391436 
L 153.61875 -151.195202 
L 162.3375 -150.184763 
L 171.05625 -167.700809 
L 179.775 -156.061051 
L 188.49375 -122.361664 
L 197.2125 -140.226369 
L 205.93125 -131.775726 
L 214.65 -145.540061 
L 223.36875 -123.804475 
L 232.0875 -117.00853 
L 240.80625 -102.652821 
L 249.525 -89.169619 
L 258.24375 -117.190939 
L 266.9625 -139.905826 
L 275.68125 -56.86658 
L 275.68125 -213.328805 
L 275.68125 -213.328805 
L 266.9625 -220.928946 
L 258.24375 -192.821697 
L 249.525 -192.897874 
L 240.80625 -185.687888 
L 232.0875 -181.375933 
L 223.36875 -186.968211 
L 214.65 -204.651426 
L 205.93125 -179.486884 
L 197.2125 -186.38401 
L 188.49375 -182.272619 
L 179.775 -186.349668 
L 171.05625 -201.822744 
L 162.3375 -182.820472 
L 153.61875 -185.625311 
L 144.9 -199.75173 
L 136.18125 -194.657307 
L 127.4625 -210.252653 
L 118.74375 -210.85395 
L 110.025 -207.457059 
L 101.30625 -213.489543 
L 92.5875 -215.049096 
L 83.86875 -211.580674 
L 75.15 -219.621626 
L 66.43125 -213.355349 
L 57.7125 -207.598749 
z
" id="m6cc5dad908" style="stroke:#4c72b0;stroke-opacity:0.2;stroke-width:0.3;"/>
    </defs>
    <g clip-path="url(#p5e0949328e)">
     <use style="fill:#4c72b0;fill-opacity:0.2;stroke:#4c72b0;stroke-opacity:0.2;stroke-width:0.3;" x="0.0" xlink:href="#m6cc5dad908" y="432.0"/>
    </g>
   </g>
   <g id="PolyCollection_6">
    <defs>
     <path d="M 57.7125 -211.066032 
L 57.7125 -204.980804 
L 66.43125 -204.502512 
L 75.15 -205.204355 
L 83.86875 -205.329697 
L 92.5875 -206.034785 
L 101.30625 -205.808726 
L 110.025 -205.141575 
L 118.74375 -204.073541 
L 127.4625 -203.351333 
L 136.18125 -204.129274 
L 144.9 -203.683487 
L 153.61875 -202.317191 
L 162.3375 -202.413983 
L 171.05625 -201.88349 
L 179.775 -202.519596 
L 188.49375 -202.301783 
L 197.2125 -202.067558 
L 205.93125 -201.149224 
L 214.65 -200.905842 
L 223.36875 -201.38187 
L 232.0875 -199.994124 
L 240.80625 -200.005091 
L 249.525 -199.992987 
L 258.24375 -199.9928 
L 266.9625 -199.992894 
L 275.68125 -199.99248 
L 275.68125 -202.141294 
L 275.68125 -202.141294 
L 266.9625 -200.68861 
L 258.24375 -206.619325 
L 249.525 -206.5067 
L 240.80625 -206.837819 
L 232.0875 -202.82743 
L 223.36875 -208.071623 
L 214.65 -204.27725 
L 205.93125 -205.325125 
L 197.2125 -206.161752 
L 188.49375 -208.226679 
L 179.775 -208.585468 
L 171.05625 -204.558821 
L 162.3375 -205.92586 
L 153.61875 -204.775861 
L 144.9 -207.343126 
L 136.18125 -208.458497 
L 127.4625 -207.132761 
L 118.74375 -208.40001 
L 110.025 -209.60818 
L 101.30625 -210.396931 
L 92.5875 -210.083931 
L 83.86875 -210.019964 
L 75.15 -210.699398 
L 66.43125 -209.973572 
L 57.7125 -211.066032 
z
" id="md389b45cee" style="stroke:#55a868;stroke-opacity:0.2;stroke-width:0.3;"/>
    </defs>
    <g clip-path="url(#p5e0949328e)">
     <use style="fill:#55a868;fill-opacity:0.2;stroke:#55a868;stroke-opacity:0.2;stroke-width:0.3;" x="0.0" xlink:href="#md389b45cee" y="432.0"/>
    </g>
   </g>
   <g id="line2d_43">
    <path clip-path="url(#p5e0949328e)" d="M 57.7125 234.605262 
L 66.43125 231.779274 
L 75.15 226.26951 
L 83.86875 232.989891 
L 92.5875 231.607892 
L 101.30625 231.726698 
L 110.025 233.48687 
L 118.74375 232.865897 
L 127.4625 234.688469 
L 136.18125 249.90378 
L 144.9 247.04805 
L 153.61875 263.053525 
L 162.3375 265.34531 
L 171.05625 247.433795 
L 179.775 260.712028 
L 188.49375 275.709555 
L 197.2125 268.278792 
L 205.93125 276.123039 
L 214.65 255.673498 
L 223.36875 276.843226 
L 232.0875 283.471084 
L 240.80625 283.218299 
L 249.525 285.27874 
L 258.24375 275.255533 
L 266.9625 250.76717 
L 275.68125 290.524768 
" style="fill:none;stroke:#4c72b0;stroke-linecap:round;stroke-width:1.75;"/>
   </g>
   <g id="line2d_44">
    <path clip-path="url(#p5e0949328e)" d="M 57.7125 224.139288 
L 66.43125 224.911768 
L 75.15 224.231125 
L 83.86875 224.439251 
L 92.5875 224.090706 
L 101.30625 223.950787 
L 110.025 224.665041 
L 118.74375 225.860668 
L 127.4625 226.891732 
L 136.18125 225.770994 
L 144.9 226.553839 
L 153.61875 228.49359 
L 162.3375 227.952238 
L 171.05625 228.833982 
L 179.775 226.968063 
L 188.49375 227.256216 
L 197.2125 228.071428 
L 205.93125 228.94347 
L 214.65 229.682122 
L 223.36875 227.723823 
L 232.0875 230.766419 
L 240.80625 229.459523 
L 249.525 229.347859 
L 258.24375 230.009714 
L 266.9625 231.778834 
L 275.68125 231.344113 
" style="fill:none;stroke:#55a868;stroke-linecap:round;stroke-width:1.75;"/>
   </g>
   <g id="patch_9">
    <path d="M 57.7125 385.157813 
L 275.68125 385.157813 
" style="fill:none;stroke:#262626;stroke-linecap:square;stroke-linejoin:miter;stroke-width:1.25;"/>
   </g>
   <g id="patch_10">
    <path d="M 57.7125 385.157812 
L 57.7125 210.128906 
" style="fill:none;stroke:#262626;stroke-linecap:square;stroke-linejoin:miter;stroke-width:1.25;"/>
   </g>
   <g id="legend_2">
    <g id="line2d_45">
     <path d="M 66.7125 356.290625 
L 86.7125 356.290625 
" style="fill:none;stroke:#4c72b0;stroke-linecap:round;stroke-width:1.75;"/>
    </g>
    <g id="line2d_46"/>
    <g id="text_40">
     <!-- Timing mean -->
     <g style="fill:#262626;" transform="translate(94.7125 359.790625)scale(0.1 -0.1)">
      <use xlink:href="#ArialMT-54"/>
      <use x="61.037109375" xlink:href="#ArialMT-69"/>
      <use x="83.25390625" xlink:href="#ArialMT-6d"/>
      <use x="166.5546875" xlink:href="#ArialMT-69"/>
      <use x="188.771484375" xlink:href="#ArialMT-6e"/>
      <use x="244.38671875" xlink:href="#ArialMT-67"/>
      <use x="300.001953125" xlink:href="#ArialMT-20"/>
      <use x="327.78515625" xlink:href="#ArialMT-6d"/>
      <use x="411.0859375" xlink:href="#ArialMT-65"/>
      <use x="466.701171875" xlink:href="#ArialMT-61"/>
      <use x="522.31640625" xlink:href="#ArialMT-6e"/>
     </g>
    </g>
    <g id="line2d_47">
     <path d="M 66.7125 370.553125 
L 86.7125 370.553125 
" style="fill:none;stroke:#55a868;stroke-linecap:round;stroke-width:1.75;"/>
    </g>
    <g id="line2d_48"/>
    <g id="text_41">
     <!-- Timing variance -->
     <defs>
      <path d="M 21 0 
L 1.265625 51.859375 
L 10.546875 51.859375 
L 21.6875 20.796875 
Q 23.484375 15.765625 25 10.359375 
Q 26.171875 14.453125 28.265625 20.21875 
L 39.796875 51.859375 
L 48.828125 51.859375 
L 29.203125 0 
z
" id="ArialMT-76"/>
     </defs>
     <g style="fill:#262626;" transform="translate(94.7125 374.053125)scale(0.1 -0.1)">
      <use xlink:href="#ArialMT-54"/>
      <use x="61.037109375" xlink:href="#ArialMT-69"/>
      <use x="83.25390625" xlink:href="#ArialMT-6d"/>
      <use x="166.5546875" xlink:href="#ArialMT-69"/>
      <use x="188.771484375" xlink:href="#ArialMT-6e"/>
      <use x="244.38671875" xlink:href="#ArialMT-67"/>
      <use x="300.001953125" xlink:href="#ArialMT-20"/>
      <use x="327.78515625" xlink:href="#ArialMT-76"/>
      <use x="377.78515625" xlink:href="#ArialMT-61"/>
      <use x="433.400390625" xlink:href="#ArialMT-72"/>
      <use x="466.701171875" xlink:href="#ArialMT-69"/>
      <use x="488.91796875" xlink:href="#ArialMT-61"/>
      <use x="544.533203125" xlink:href="#ArialMT-6e"/>
      <use x="600.1484375" xlink:href="#ArialMT-63"/>
      <use x="650.1484375" xlink:href="#ArialMT-65"/>
     </g>
    </g>
   </g>
  </g>
  <g id="axes_4">
   <g id="patch_11">
    <path d="M 337.3875 385.157813 
L 555.35625 385.157813 
L 555.35625 210.128906 
L 337.3875 210.128906 
z
" style="fill:#ffffff;"/>
   </g>
   <g id="matplotlib.axis_7">
    <g id="xtick_7">
     <g id="line2d_49">
      <g>
       <use style="fill:#262626;stroke:#262626;" x="337.3875" xlink:href="#mb204c2d1ea" y="385.1578125"/>
      </g>
     </g>
     <g id="text_42">
      <!-- 0.65 -->
      <g style="fill:#262626;" transform="translate(327.65703125 405.315625)scale(0.1 -0.1)">
       <use xlink:href="#ArialMT-30"/>
       <use x="55.615234375" xlink:href="#ArialMT-2e"/>
       <use x="83.3984375" xlink:href="#ArialMT-36"/>
       <use x="139.013671875" xlink:href="#ArialMT-35"/>
      </g>
     </g>
    </g>
    <g id="xtick_8">
     <g id="line2d_50">
      <g>
       <use style="fill:#262626;stroke:#262626;" x="380.98125" xlink:href="#mb204c2d1ea" y="385.1578125"/>
      </g>
     </g>
     <g id="text_43">
      <!-- 0.70 -->
      <g style="fill:#262626;" transform="translate(371.25078125 405.315625)scale(0.1 -0.1)">
       <use xlink:href="#ArialMT-30"/>
       <use x="55.615234375" xlink:href="#ArialMT-2e"/>
       <use x="83.3984375" xlink:href="#ArialMT-37"/>
       <use x="139.013671875" xlink:href="#ArialMT-30"/>
      </g>
     </g>
    </g>
    <g id="xtick_9">
     <g id="line2d_51">
      <g>
       <use style="fill:#262626;stroke:#262626;" x="424.575" xlink:href="#mb204c2d1ea" y="385.1578125"/>
      </g>
     </g>
     <g id="text_44">
      <!-- 0.75 -->
      <g style="fill:#262626;" transform="translate(414.84453125 405.315625)scale(0.1 -0.1)">
       <use xlink:href="#ArialMT-30"/>
       <use x="55.615234375" xlink:href="#ArialMT-2e"/>
       <use x="83.3984375" xlink:href="#ArialMT-37"/>
       <use x="139.013671875" xlink:href="#ArialMT-35"/>
      </g>
     </g>
    </g>
    <g id="xtick_10">
     <g id="line2d_52">
      <g>
       <use style="fill:#262626;stroke:#262626;" x="468.16875" xlink:href="#mb204c2d1ea" y="385.1578125"/>
      </g>
     </g>
     <g id="text_45">
      <!-- 0.80 -->
      <g style="fill:#262626;" transform="translate(458.43828125 405.315625)scale(0.1 -0.1)">
       <use xlink:href="#ArialMT-30"/>
       <use x="55.615234375" xlink:href="#ArialMT-2e"/>
       <use x="83.3984375" xlink:href="#ArialMT-38"/>
       <use x="139.013671875" xlink:href="#ArialMT-30"/>
      </g>
     </g>
    </g>
    <g id="xtick_11">
     <g id="line2d_53">
      <g>
       <use style="fill:#262626;stroke:#262626;" x="511.7625" xlink:href="#mb204c2d1ea" y="385.1578125"/>
      </g>
     </g>
     <g id="text_46">
      <!-- 0.85 -->
      <g style="fill:#262626;" transform="translate(502.03203125 405.315625)scale(0.1 -0.1)">
       <use xlink:href="#ArialMT-30"/>
       <use x="55.615234375" xlink:href="#ArialMT-2e"/>
       <use x="83.3984375" xlink:href="#ArialMT-38"/>
       <use x="139.013671875" xlink:href="#ArialMT-35"/>
      </g>
     </g>
    </g>
    <g id="xtick_12">
     <g id="line2d_54">
      <g>
       <use style="fill:#262626;stroke:#262626;" x="555.35625" xlink:href="#mb204c2d1ea" y="385.1578125"/>
      </g>
     </g>
     <g id="text_47">
      <!-- 0.90 -->
      <g style="fill:#262626;" transform="translate(545.62578125 405.315625)scale(0.1 -0.1)">
       <use xlink:href="#ArialMT-30"/>
       <use x="55.615234375" xlink:href="#ArialMT-2e"/>
       <use x="83.3984375" xlink:href="#ArialMT-39"/>
       <use x="139.013671875" xlink:href="#ArialMT-30"/>
      </g>
     </g>
    </g>
    <g id="text_48">
     <!-- Similarity threshold -->
     <g style="fill:#262626;" transform="translate(399.9140625 420.31078125)scale(0.11 -0.11)">
      <use xlink:href="#ArialMT-53"/>
      <use x="66.69921875" xlink:href="#ArialMT-69"/>
      <use x="88.916015625" xlink:href="#ArialMT-6d"/>
      <use x="172.216796875" xlink:href="#ArialMT-69"/>
      <use x="194.43359375" xlink:href="#ArialMT-6c"/>
      <use x="216.650390625" xlink:href="#ArialMT-61"/>
      <use x="272.265625" xlink:href="#ArialMT-72"/>
      <use x="305.56640625" xlink:href="#ArialMT-69"/>
      <use x="327.783203125" xlink:href="#ArialMT-74"/>
      <use x="355.56640625" xlink:href="#ArialMT-79"/>
      <use x="405.56640625" xlink:href="#ArialMT-20"/>
      <use x="433.349609375" xlink:href="#ArialMT-74"/>
      <use x="461.1328125" xlink:href="#ArialMT-68"/>
      <use x="516.748046875" xlink:href="#ArialMT-72"/>
      <use x="550.048828125" xlink:href="#ArialMT-65"/>
      <use x="605.6640625" xlink:href="#ArialMT-73"/>
      <use x="655.6640625" xlink:href="#ArialMT-68"/>
      <use x="711.279296875" xlink:href="#ArialMT-6f"/>
      <use x="766.89453125" xlink:href="#ArialMT-6c"/>
      <use x="789.111328125" xlink:href="#ArialMT-64"/>
     </g>
    </g>
   </g>
   <g id="matplotlib.axis_8">
    <g id="ytick_27">
     <g id="line2d_55">
      <g>
       <use style="fill:#262626;stroke:#262626;" x="337.3875" xlink:href="#ma2646a19ae" y="385.1578125"/>
      </g>
     </g>
     <g id="text_49">
      <!-- 0.3 -->
      <g style="fill:#262626;" transform="translate(310.4875 387.74296875)scale(0.1 -0.1)">
       <use xlink:href="#ArialMT-30"/>
       <use x="55.615234375" xlink:href="#ArialMT-2e"/>
       <use x="83.3984375" xlink:href="#ArialMT-33"/>
      </g>
     </g>
    </g>
    <g id="ytick_28">
     <g id="line2d_56">
      <g>
       <use style="fill:#262626;stroke:#262626;" x="337.3875" xlink:href="#ma2646a19ae" y="360.153683036"/>
      </g>
     </g>
     <g id="text_50">
      <!-- 0.4 -->
      <g style="fill:#262626;" transform="translate(310.4875 362.738839286)scale(0.1 -0.1)">
       <use xlink:href="#ArialMT-30"/>
       <use x="55.615234375" xlink:href="#ArialMT-2e"/>
       <use x="83.3984375" xlink:href="#ArialMT-34"/>
      </g>
     </g>
    </g>
    <g id="ytick_29">
     <g id="line2d_57">
      <g>
       <use style="fill:#262626;stroke:#262626;" x="337.3875" xlink:href="#ma2646a19ae" y="335.149553571"/>
      </g>
     </g>
     <g id="text_51">
      <!-- 0.5 -->
      <g style="fill:#262626;" transform="translate(310.4875 337.734709821)scale(0.1 -0.1)">
       <use xlink:href="#ArialMT-30"/>
       <use x="55.615234375" xlink:href="#ArialMT-2e"/>
       <use x="83.3984375" xlink:href="#ArialMT-35"/>
      </g>
     </g>
    </g>
    <g id="ytick_30">
     <g id="line2d_58">
      <g>
       <use style="fill:#262626;stroke:#262626;" x="337.3875" xlink:href="#ma2646a19ae" y="310.145424107"/>
      </g>
     </g>
     <g id="text_52">
      <!-- 0.6 -->
      <g style="fill:#262626;" transform="translate(310.4875 312.730580357)scale(0.1 -0.1)">
       <use xlink:href="#ArialMT-30"/>
       <use x="55.615234375" xlink:href="#ArialMT-2e"/>
       <use x="83.3984375" xlink:href="#ArialMT-36"/>
      </g>
     </g>
    </g>
    <g id="ytick_31">
     <g id="line2d_59">
      <g>
       <use style="fill:#262626;stroke:#262626;" x="337.3875" xlink:href="#ma2646a19ae" y="285.141294643"/>
      </g>
     </g>
     <g id="text_53">
      <!-- 0.7 -->
      <g style="fill:#262626;" transform="translate(310.4875 287.726450893)scale(0.1 -0.1)">
       <use xlink:href="#ArialMT-30"/>
       <use x="55.615234375" xlink:href="#ArialMT-2e"/>
       <use x="83.3984375" xlink:href="#ArialMT-37"/>
      </g>
     </g>
    </g>
    <g id="ytick_32">
     <g id="line2d_60">
      <g>
       <use style="fill:#262626;stroke:#262626;" x="337.3875" xlink:href="#ma2646a19ae" y="260.137165179"/>
      </g>
     </g>
     <g id="text_54">
      <!-- 0.8 -->
      <g style="fill:#262626;" transform="translate(310.4875 262.722321429)scale(0.1 -0.1)">
       <use xlink:href="#ArialMT-30"/>
       <use x="55.615234375" xlink:href="#ArialMT-2e"/>
       <use x="83.3984375" xlink:href="#ArialMT-38"/>
      </g>
     </g>
    </g>
    <g id="ytick_33">
     <g id="line2d_61">
      <g>
       <use style="fill:#262626;stroke:#262626;" x="337.3875" xlink:href="#ma2646a19ae" y="235.133035714"/>
      </g>
     </g>
     <g id="text_55">
      <!-- 0.9 -->
      <g style="fill:#262626;" transform="translate(310.4875 237.718191964)scale(0.1 -0.1)">
       <use xlink:href="#ArialMT-30"/>
       <use x="55.615234375" xlink:href="#ArialMT-2e"/>
       <use x="83.3984375" xlink:href="#ArialMT-39"/>
      </g>
     </g>
    </g>
    <g id="ytick_34">
     <g id="line2d_62">
      <g>
       <use style="fill:#262626;stroke:#262626;" x="337.3875" xlink:href="#ma2646a19ae" y="210.12890625"/>
      </g>
     </g>
     <g id="text_56">
      <!-- 1.0 -->
      <g style="fill:#262626;" transform="translate(310.4875 212.7140625)scale(0.1 -0.1)">
       <use xlink:href="#ArialMT-31"/>
       <use x="55.615234375" xlink:href="#ArialMT-2e"/>
       <use x="83.3984375" xlink:href="#ArialMT-30"/>
      </g>
     </g>
    </g>
    <g id="text_57">
     <!-- Memory accuracy -->
     <defs>
      <path d="M 7.421875 0 
L 7.421875 71.578125 
L 21.6875 71.578125 
L 38.625 20.90625 
Q 40.96875 13.8125 42.046875 10.296875 
Q 43.265625 14.203125 45.84375 21.78125 
L 62.984375 71.578125 
L 75.734375 71.578125 
L 75.734375 0 
L 66.609375 0 
L 66.609375 59.90625 
L 45.796875 0 
L 37.25 0 
L 16.546875 60.9375 
L 16.546875 0 
z
" id="ArialMT-4d"/>
     </defs>
     <g style="fill:#262626;" transform="translate(303.17234375 341.03921875)rotate(-90.0)scale(0.11 -0.11)">
      <use xlink:href="#ArialMT-4d"/>
      <use x="83.30078125" xlink:href="#ArialMT-65"/>
      <use x="138.916015625" xlink:href="#ArialMT-6d"/>
      <use x="222.216796875" xlink:href="#ArialMT-6f"/>
      <use x="277.83203125" xlink:href="#ArialMT-72"/>
      <use x="311.1328125" xlink:href="#ArialMT-79"/>
      <use x="361.1328125" xlink:href="#ArialMT-20"/>
      <use x="388.916015625" xlink:href="#ArialMT-61"/>
      <use x="444.53125" xlink:href="#ArialMT-63"/>
      <use x="494.53125" xlink:href="#ArialMT-63"/>
      <use x="544.53125" xlink:href="#ArialMT-75"/>
      <use x="600.146484375" xlink:href="#ArialMT-72"/>
      <use x="633.447265625" xlink:href="#ArialMT-61"/>
      <use x="689.0625" xlink:href="#ArialMT-63"/>
      <use x="739.0625" xlink:href="#ArialMT-79"/>
     </g>
    </g>
   </g>
   <g id="PolyCollection_7">
    <defs>
     <path d="M 337.3875 -178.113867 
L 337.3875 -90.599414 
L 346.10625 -84.348382 
L 354.825 -84.348382 
L 363.54375 -90.599414 
L 372.2625 -84.348382 
L 380.98125 -90.599414 
L 389.7 -103.101479 
L 398.41875 -103.101479 
L 407.1375 -128.105608 
L 415.85625 -128.105608 
L 424.575 -128.105608 
L 433.29375 -115.603544 
L 442.0125 -134.356641 
L 450.73125 -146.858705 
L 459.45 -153.109738 
L 468.16875 -171.862835 
L 476.8875 -153.109738 
L 485.60625 -171.862835 
L 494.325 -140.607673 
L 503.04375 -121.854576 
L 511.7625 -96.850446 
L 520.48125 -109.352511 
L 529.2 -90.599414 
L 537.91875 -65.595285 
L 546.6375 -53.09322 
L 555.35625 -71.846317 
L 555.35625 -146.858705 
L 555.35625 -146.858705 
L 546.6375 -134.356641 
L 537.91875 -146.858705 
L 529.2 -165.611802 
L 520.48125 -184.3649 
L 511.7625 -178.113867 
L 503.04375 -190.615932 
L 494.325 -203.117997 
L 485.60625 -215.620061 
L 476.8875 -209.369029 
L 468.16875 -215.620061 
L 459.45 -209.369029 
L 450.73125 -209.369029 
L 442.0125 -203.117997 
L 433.29375 -190.615932 
L 424.575 -190.615932 
L 415.85625 -196.866964 
L 407.1375 -203.117997 
L 398.41875 -178.113867 
L 389.7 -178.113867 
L 380.98125 -178.113867 
L 372.2625 -171.862835 
L 363.54375 -171.862835 
L 354.825 -165.768078 
L 346.10625 -171.862835 
L 337.3875 -178.113867 
z
" id="md35be0ef21" style="stroke:#4c72b0;stroke-opacity:0.2;stroke-width:0.3;"/>
    </defs>
    <g clip-path="url(#p7a7e49c076)">
     <use style="fill:#4c72b0;fill-opacity:0.2;stroke:#4c72b0;stroke-opacity:0.2;stroke-width:0.3;" x="0.0" xlink:href="#md35be0ef21" y="432.0"/>
    </g>
   </g>
   <g id="line2d_63">
    <path clip-path="url(#p7a7e49c076)" d="M 337.3875 297.643359 
L 346.10625 303.894392 
L 354.825 303.894392 
L 363.54375 297.643359 
L 372.2625 303.894392 
L 380.98125 297.643359 
L 389.7 291.392327 
L 398.41875 291.392327 
L 407.1375 266.388198 
L 415.85625 266.388198 
L 424.575 272.63923 
L 433.29375 278.890262 
L 442.0125 260.137165 
L 450.73125 253.886133 
L 459.45 247.6351 
L 468.16875 235.133036 
L 476.8875 247.6351 
L 485.60625 235.133036 
L 494.325 260.137165 
L 503.04375 272.63923 
L 511.7625 291.392327 
L 520.48125 285.141295 
L 529.2 303.894392 
L 537.91875 322.647489 
L 546.6375 341.400586 
L 555.35625 322.647489 
" style="fill:none;stroke:#4c72b0;stroke-linecap:round;stroke-width:1.75;"/>
   </g>
   <g id="line2d_64">
    <path clip-path="url(#p7a7e49c076)" d="M 337.3875 376.823103 
L 555.35625 376.823103 
" style="fill:none;stroke:#000000;stroke-dasharray:1.000000,3.000000;stroke-dashoffset:0.0;stroke-width:1.75;"/>
   </g>
   <g id="patch_12">
    <path d="M 337.3875 385.157813 
L 555.35625 385.157813 
" style="fill:none;stroke:#262626;stroke-linecap:square;stroke-linejoin:miter;stroke-width:1.25;"/>
   </g>
   <g id="patch_13">
    <path d="M 337.3875 385.157812 
L 337.3875 210.128906 
" style="fill:none;stroke:#262626;stroke-linecap:square;stroke-linejoin:miter;stroke-width:1.25;"/>
   </g>
  </g>
 </g>
 <defs>
  <clipPath id="p7a7e49c076">
   <rect height="175.02890625" width="217.96875" x="337.3875" y="210.12890625"/>
  </clipPath>
  <clipPath id="p382e5f7b62">
   <rect height="175.02890625" width="217.96875" x="57.7125" y="15.3"/>
  </clipPath>
  <clipPath id="p5e0949328e">
   <rect height="175.02890625" width="217.96875" x="57.7125" y="210.12890625"/>
  </clipPath>
  <clipPath id="p365cb70f8a">
   <rect height="175.02890625" width="217.96875" x="337.3875" y="15.3"/>
  </clipPath>
 </defs>
</svg>
